<svg xmlns="http://www.w3.org/2000/svg" viewBox="0 0 108.37 115.52"><g id="Layer_2" data-name="Layer 2"><g id="Layer_1-2" data-name="Layer 1"><path d="M47.7,104.61c1.12,3,3.77,4,6.27,4.93.92.36,6,5.12-1.51,3.63a48.57,48.57,0,0,1-7.85-2.26c-2.1-1-1-4.12-1.36-5.34C43.25,105.57,46,100.24,47.7,104.61Z" style="fill:#fbb88d"/><path d="M54,109.54c3,1.22,5.41,2.76,4.65,4.57-.87,2-5.51,1.49-7.18.72-.91-.41-2.54-1.37-3.76-1.84-1.45-.56-2.63-1.27-3.62-1.7-1.37-.6-1.58-2.58-.75-4.17A3.11,3.11,0,0,0,44.52,109c2.58,1.52,5.75,3.17,7.32,3.36s2.46,0,2.79-.8C55.12,110.38,54.58,110,54,109.54Z" style="fill:#34173a"/><path d="M53.85,98.77c.89,3,3.45,4.23,5.87,5.4.89.43,5.58,5.57-1.78,3.5a49.43,49.43,0,0,1-7.66-2.86c-2-1.13-.7-4.2-1-5.44C49.31,99.37,52.54,94.28,53.85,98.77Z" style="fill:#fbb88d"/><path d="M59.72,104.17c2.88,1.35,5.18,3.17,4.28,4.92-1,2-5.6,1-7.22.16-.87-.48-2.42-1.57-3.59-2.13-1.41-.67-2.53-1.47-3.48-2-1.32-.71-1.41-2.7-.46-4.23a3.16,3.16,0,0,0,1.09,2c2.45,1.71,5.49,3.6,7,3.92s2.46.15,2.84-.59C60.8,105.1,60.29,104.69,59.72,104.17Z" style="fill:#34173a"/><path d="M27.85,58.27c1.31,13.28,17.91,13.81,18.79-3.85.18-3.55,3.73-12.39-7.26-16.06C34.47,36.73,27.85,58.27,27.85,58.27Z" style="fill:#34173a"/><path d="M36.69,69.72c-3.06,17.42-5.14,37.38-17.82,37.4S4.83,91.49,3.05,91.23.26,87.71.39,83.12c0-.33,0-.68,0-1,.8-13.71,9.73-37.61,25.25-34.37C38.08,50.31,39.68,52.68,36.69,69.72Z" style="fill:#a9d3df"/><path d="M9.35,89s20.88-6.43,27.9-28.69c2.83-9,7.61,8.85,6.38,24.76-.55,7-2.29,13.08-5.6,17.87C32.34,111.12,10.05,114.13,9.35,89Z" style="fill:#34173a"/><path d="M48.49,100.62s-25-44-7.87-43.58c12.54.34,13.7,42.15,13.7,42.15C54.48,100.46,48.89,101.24,48.49,100.62Z" style="fill:#34173a"/><path d="M3.05,91.23S20.34,85,27.36,62.74c0,0,8.86.17,8.88,19.8,0,1.79-1,15.59-8.19,23.81C21.19,114.19,1.62,111.45,3.05,91.23Z" style="fill:#01619a"/><path d="M38.73,94.66c.85-.16,2.29-.53,2.4-.92.17-.62-2.86.27-4.1,0-.91-.22-2.37-1-2.41-1.28.14-.91,3.08-.92,3.58-1.54.3-.37-.53-.63-2.19-.3-1.5.3-2.12-.17-3.46-.12-.5,0-1.48.09-2.47.13A5.38,5.38,0,0,1,28,89.82l-.74,3.74c.61.5,6.21,4.13,8.68,4.25,2.78.14,4.65-.73,5-1.15.16-.21-.7-.3-1.14-.26a5.26,5.26,0,0,0,2-.75c.23-.34-1.43-.23-2.73,0,1.22-.3,2.79-.64,3-1C42.34,94,40,94.48,38.73,94.66Z" style="fill:#fbb88d"/><path d="M42.52,105.94S14.21,62.27,32.33,58.57C48,55.39,48.47,104.42,48.47,104.42,48.77,106.18,43.36,106.63,42.52,105.94Z" style="fill:#01619a"/><path d="M5.29,82.69l.45,4.77c0,.46.77.47.73,0L6,82.69c0-.47-.77-.47-.73,0Z" style="fill:#01619a"/><path d="M26.74,94.64c-7-4.5-16.29-4.06-22.16-10.12A17,17,0,0,1,.1,74.19c0-.24,0-.48-.06-.72C-.61,62.86,6.32,49,21.37,48.35L23.94,61c2.46,4.83-4.86,10.09-2.53,12.89,4.62,5.57,3,8.5,3.9,11.62a5.27,5.27,0,0,0,.27.72c.38.86,2.39,2,3.49,3S27.85,95.35,26.74,94.64Z" style="fill:#a9d3df"/><path d="M31.53,48.35,23.4,53.09c-2.06,2.11,1.65,7.64,4.11,5.42L31,56Z" style="fill:#ec715e"/><path d="M7.67,55.59,11,55.48c.47,0,.47-.75,0-.73l-3.35.11c-.47,0-.47.75,0,.73Z" style="fill:#01619a"/><path d="M12.89,66l3.35-.12a.37.37,0,0,0,0-.73l-3.35.12a.37.37,0,0,0,0,.73Z" style="fill:#01619a"/><path d="M13.92,73.19l-2.44,4.13c-.23.4.35.83.59.43l2.44-4.13c.24-.4-.35-.83-.59-.43Z" style="fill:#01619a"/><path d="M38.2,57.43a14,14,0,0,1-1.5,1,7.54,7.54,0,0,1-2.28.7c-2.12.28-5.39.21-6.45-1.57-1.88-3.15-.61-9.33,4.34-11.44,4.31-1.85,12.49-1.93,10.79.67-2.64,4,0,5.39-1.51,8.06a4.76,4.76,0,0,1-2.18,1.94C39,57,38.55,57.2,38.2,57.43Z" style="fill:#fbb88d"/><path d="M32.2,52.15a2.07,2.07,0,1,1,.68-2.85A2.07,2.07,0,0,1,32.2,52.15Z" style="fill:#ec715e"/><path d="M36.7,58.38a7.84,7.84,0,0,1-2.28.7,2.07,2.07,0,0,1,3.71-1.78l.07.13A14,14,0,0,1,36.7,58.38Z" style="fill:#ec715e"/><path d="M35.2,52.08s-1.61,0-1.51-3c0-.37.24,1.18.61,2S35.56,52.13,35.2,52.08Z" style="fill:#213065"/><path d="M38.76,56.61c-.39,0-2.53-.92-1.77-2.13.2-.32-.13.65.53,1.22S39,56.61,38.76,56.61Z" style="fill:#213065"/><path d="M32.87,54.72c.25.49.77,1.15,1.4,1a1.09,1.09,0,0,0,.56-.56,3.73,3.73,0,0,1,1.37-1.47c.08,0,0-.18-.06-.14a3.68,3.68,0,0,0-1.35,1.39c-.21.34-.37.69-.85.63a1.44,1.44,0,0,1-.93-.86c0-.09-.18,0-.14,0Z" style="fill:#ec715e"/><path d="M46.38,44.65S42.7,33.25,31.25,38C26.87,39.84,18,34,17.41,44.73c-.36,6.5-9.41-1.25-8.06,11.88.83,8.09,11.79,16.52,15.22,13.18,6-5.84-3.25-12.1,4.86-18.47a9.28,9.28,0,0,0,2.51-2.91l.41-.6h0a3.32,3.32,0,0,1,1.75-1.42c2.26-.66,2.39,3.78,5.76,4.54C44.6,52,46.38,44.65,46.38,44.65Z" style="fill:#34173a"/><path d="M31.93,57.77c-.29-.08.42-1.61-1.45-2.48C30.29,54.84,32.64,55.67,31.93,57.77Z" style="fill:#ec715e"/><path d="M12.48,83.23A21.55,21.55,0,0,0,15,86.17c.34.33.86-.19.52-.51a21,21,0,0,1-2.43-2.8c-.27-.37-.9,0-.62.37Z" style="fill:#01619a"/><path d="M1,83.73c-.2-.2-.41-.4-.6-.61,0-.33,0-.68,0-1,.34.39.7.76,1.08,1.13S1.33,84.06,1,83.73Z" style="fill:#01619a"/><path d="M18.87,75.41v3.64a.37.37,0,0,0,.73,0V75.41a.37.37,0,0,0-.73,0Z" style="fill:#01619a"/><path d="M7.64,79.35l-2.81-.79c-.45-.13-.69.56-.24.69L7.4,80c.45.13.69-.56.24-.69Z" style="fill:#01619a"/><path d="M4,68.2a23.6,23.6,0,0,1,2.84-2.63c.36-.29-.15-.8-.52-.51a22,22,0,0,0-2.83,2.63c-.32.34.19.86.51.51Z" style="fill:#01619a"/><path d="M25.58,86.27a21.86,21.86,0,0,0-1.95,1.9c-.32.35-.83-.16-.52-.51a21.89,21.89,0,0,1,2.2-2.11A5.27,5.27,0,0,0,25.58,86.27Z" style="fill:#01619a"/><path d="M1.36,74.15l-1.26,0c0-.24,0-.48-.06-.72l1.32,0C1.83,73.4,1.83,74.13,1.36,74.15Z" style="fill:#01619a"/><path d="M58.89,20.17C58.51,9.49,67.45.78,83.49,0c13.58-.64,25,10.33,24.88,21-.13,9.83-7.88,18.14-21.48,18.2A64.39,64.39,0,0,1,74.23,38c-2.88-.58-17.59,8.16-18.52,7.45s10.45-12.52,9.45-13.27A14.76,14.76,0,0,1,58.89,20.17Z" style="fill:#fbb88d"/><path d="M83.66,32.19A10.06,10.06,0,0,1,73.4,22.36a10.26,10.26,0,0,1,20.51,0A10.06,10.06,0,0,1,83.66,32.19Zm0-19a9.38,9.38,0,0,0-9.57,9.17,9.57,9.57,0,0,0,19.13,0A9.38,9.38,0,0,0,83.66,13.19Z" style="fill:#01619a"/><path d="M83,26.93A10.06,10.06,0,0,1,72.71,17.1a10.26,10.26,0,0,1,20.51,0A10.06,10.06,0,0,1,83,26.93Zm0-19A9.38,9.38,0,0,0,73.4,17.1a9.57,9.57,0,0,0,19.13,0A9.38,9.38,0,0,0,83,7.93Z" style="fill:#01619a"/><path d="M87.1,31.54a10.06,10.06,0,0,1-10.25-9.83,10.26,10.26,0,0,1,20.51,0A10.06,10.06,0,0,1,87.1,31.54Zm0-19a9.39,9.39,0,0,0-9.56,9.18,9.57,9.57,0,0,0,19.13,0A9.39,9.39,0,0,0,87.1,12.53Z" style="fill:#01619a"/><path d="M86.41,28.25a10.06,10.06,0,0,1-10.25-9.83,10.26,10.26,0,0,1,20.51,0A10.06,10.06,0,0,1,86.41,28.25Zm0-19a9.39,9.39,0,0,0-9.56,9.18,9.57,9.57,0,0,0,19.13,0A9.39,9.39,0,0,0,86.41,9.24Z" style="fill:#01619a"/><path d="M79.52,28.25a10.06,10.06,0,0,1-10.25-9.83,10.26,10.26,0,0,1,20.5,0A10.06,10.06,0,0,1,79.52,28.25Zm0-19A9.39,9.39,0,0,0,70,18.42a9.57,9.57,0,0,0,19.13,0A9.4,9.4,0,0,0,79.52,9.24Z" style="fill:#01619a"/><path d="M85,28.9a10.06,10.06,0,0,1-10.26-9.83,10.26,10.26,0,0,1,20.51,0A10.06,10.06,0,0,1,85,28.9Zm0-19a9.39,9.39,0,0,0-9.57,9.17,9.57,9.57,0,0,0,19.13,0A9.39,9.39,0,0,0,85,9.9Z" style="fill:#01619a"/><path d="M79.52,32.19a10.06,10.06,0,0,1-10.25-9.83,10.26,10.26,0,0,1,20.5,0A10.06,10.06,0,0,1,79.52,32.19Zm0-19A9.38,9.38,0,0,0,70,22.36a9.57,9.57,0,0,0,19.13,0A9.39,9.39,0,0,0,79.52,13.19Z" style="fill:#01619a"/><path d="M83,25.35a5.75,5.75,0,0,1-5.86-5.62,5.87,5.87,0,0,1,11.72,0A5.75,5.75,0,0,1,83,25.35Zm0-10.58a5.08,5.08,0,0,0-5.17,5,5.17,5.17,0,0,0,10.34,0A5.08,5.08,0,0,0,83,14.77Z" style="fill:#01619a"/><path d="M87.1,22.72a5.75,5.75,0,0,1-5.86-5.62A5.87,5.87,0,0,1,93,17.1,5.75,5.75,0,0,1,87.1,22.72Zm0-10.58a5.08,5.08,0,0,0-5.17,5,5.17,5.17,0,0,0,10.34,0A5.08,5.08,0,0,0,87.1,12.14Z" style="fill:#01619a"/><path d="M81.59,22.72a5.75,5.75,0,0,1-5.86-5.62,5.87,5.87,0,0,1,11.72,0A5.75,5.75,0,0,1,81.59,22.72Zm0-10.58a5.08,5.08,0,0,0-5.17,5,5.17,5.17,0,0,0,10.34,0A5.08,5.08,0,0,0,81.59,12.14Z" style="fill:#01619a"/><path d="M79.52,22.72a5.75,5.75,0,0,1-5.86-5.62,5.87,5.87,0,0,1,11.72,0A5.75,5.75,0,0,1,79.52,22.72Zm0-10.58a5.08,5.08,0,0,0-5.17,5,5.17,5.17,0,0,0,10.34,0A5.08,5.08,0,0,0,79.52,12.14Z" style="fill:#01619a"/><path d="M81.59,24.69a5.75,5.75,0,0,1-5.86-5.62,5.87,5.87,0,0,1,11.72,0A5.75,5.75,0,0,1,81.59,24.69Zm0-10.58a5.08,5.08,0,0,0-5.17,5,5.17,5.17,0,0,0,10.34,0A5.08,5.08,0,0,0,81.59,14.11Z" style="fill:#01619a"/><path d="M83,26.66a5.75,5.75,0,0,1-5.86-5.61,5.87,5.87,0,0,1,11.72,0A5.75,5.75,0,0,1,83,26.66Zm0-10.57a5.07,5.07,0,0,0-5.17,5,5.17,5.17,0,0,0,10.34,0A5.07,5.07,0,0,0,83,16.09Z" style="fill:#01619a"/><path d="M85,28a5.74,5.74,0,0,1-5.86-5.62,5.86,5.86,0,0,1,11.71,0A5.74,5.74,0,0,1,85,28ZM85,17.4a5,5,0,1,0,5.17,5A5.07,5.07,0,0,0,85,17.4Z" style="fill:#01619a"/><polygon points="12.32 19.63 16.71 20.43 13.22 27.36 17.96 28.23 8.28 40.19 11.13 30.19 7.65 29.56 12.32 19.63" style="fill:#edc77b"/><polygon points="50.67 45.69 55.87 46.64 51.74 54.83 57.35 55.85 45.9 70 49.27 58.17 45.15 57.42 50.67 45.69" style="fill:#edc77b"/></g></g></svg>