<svg xmlns="http://www.w3.org/2000/svg" viewBox="0 0 82.8 73.6"><g id="Layer_2" data-name="Layer 2"><g id="Layer_1-2" data-name="Layer 1"><g id="Exclamation_mark_icon" data-name="Exclamation mark icon"><g id="Shape"><path d="M35.29,3.53a7.05,7.05,0,0,1,12.22,0L81.86,63A7.06,7.06,0,0,1,75.75,73.6H7.06A7.06,7.06,0,0,1,1,63Z" style="fill:#fdd911"/><path d="M7.06,70.07A3.53,3.53,0,0,1,4,64.78L38.35,5.29a3.53,3.53,0,0,1,6.11,0L78.8,64.78a3.53,3.53,0,0,1-3,5.29Z" style="fill:#2b2c2b"/><path d="M7.06,67.25a.68.68,0,0,1-.61-.36.66.66,0,0,1,0-.7L40.79,6.7A.71.71,0,0,1,42,6.7L76.36,66.19a.69.69,0,0,1,0,.7.71.71,0,0,1-.61.36Z" style="fill:#fdd911"/></g><path id="Exclamation_mark" data-name="Exclamation mark" d="M44.93,58.78a3.3,3.3,0,0,1-3.53,3.53,3.53,3.53,0,0,1,0-7.06A3.3,3.3,0,0,1,44.93,58.78ZM41.4,20.68c-3.48,0-5.26,2.56-4.89,5.69h0L39.3,49.93h0a2.11,2.11,0,0,0,4.18,0h0l2.8-23.56h0C46.66,23.25,44.89,20.68,41.4,20.68Z" style="fill:#2b2c2b"/></g></g></g></svg>