<svg xmlns="http://www.w3.org/2000/svg" viewBox="0 0 98.82 98.82"><defs><style>.cls-1{fill:#fdb816;}.cls-2{fill:#25bdbe;}.cls-3{fill:#fff;}.cls-4{fill:#f05164;}.cls-5{fill:#78909c;}.cls-6{fill:#2b455e;}.cls-7{fill:#b2bbc4;}.cls-8{fill:#ead3c0;}.cls-9{fill:#2dbfc8;}.cls-10{fill:#17afbe;}</style></defs><g id="Layer_2" data-name="Layer 2"><g id="Layer_1-2" data-name="Layer 1"><circle class="cls-1" cx="49.41" cy="49.41" r="49.41"/><g id="_13" data-name="13"><path class="cls-2" d="M26.73,14.38a2.49,2.49,0,1,0,2.48-2.53A2.51,2.51,0,0,0,26.73,14.38Z"/><path class="cls-2" d="M24.79,19a1.41,1.41,0,0,1,1.39-1.45h6.11a1.41,1.41,0,0,1,1.39,1.42c0,2.15,0,4.23,0,6.4a1.39,1.39,0,0,1-1.38,1.4h0c0,1.82,0,3.65,0,5.44a1.39,1.39,0,0,1-1.38,1.38h0a1.38,1.38,0,0,1-1.36-1.41c0-2.05,0-3.29,0-5.39h-.48c0,2.07,0,3.3,0,5.36a1.37,1.37,0,0,1-1.36,1.4h0a1.39,1.39,0,0,1-1.38-1.38c0-1.79,0-3.61,0-5.41h-.23a1.39,1.39,0,0,1-1.33-1.44C24.81,23.1,24.83,21.05,24.79,19Z"/><path class="cls-3" d="M48.8,14.38a2.49,2.49,0,1,0,2.49-2.53A2.52,2.52,0,0,0,48.8,14.38Z"/><path class="cls-3" d="M46.87,19a1.41,1.41,0,0,1,1.39-1.45h6.11a1.41,1.41,0,0,1,1.39,1.42v6.4a1.38,1.38,0,0,1-1.37,1.4h0c0,1.82,0,3.65,0,5.44A1.4,1.4,0,0,1,53,33.54h0a1.38,1.38,0,0,1-1.36-1.41c0-2.05,0-3.29,0-5.39h-.47c0,2.07,0,3.3,0,5.36a1.37,1.37,0,0,1-1.36,1.4h0a1.39,1.39,0,0,1-1.37-1.38c0-1.79,0-3.61,0-5.41h-.23a1.39,1.39,0,0,1-1.33-1.44C46.89,23.1,46.91,21.05,46.87,19Z"/><path class="cls-4" d="M70.88,14.38a2.49,2.49,0,1,0,2.49-2.53A2.52,2.52,0,0,0,70.88,14.38Z"/><path class="cls-4" d="M69,19a1.41,1.41,0,0,1,1.39-1.45h6.11a1.41,1.41,0,0,1,1.39,1.42v6.4a1.38,1.38,0,0,1-1.37,1.4h0c0,1.82,0,3.65,0,5.44a1.38,1.38,0,0,1-1.37,1.38h0a1.38,1.38,0,0,1-1.36-1.41c0-2.05,0-3.29,0-5.39h-.47c0,2.07,0,3.3,0,5.36a1.39,1.39,0,0,1-1.37,1.4h0a1.39,1.39,0,0,1-1.37-1.38c0-1.79,0-3.61,0-5.41h-.22a1.39,1.39,0,0,1-1.33-1.44C69,23.1,69,21.05,69,19Z"/><polygon class="cls-5" points="75.75 47.65 24.16 47.65 24.16 86.97 60.5 86.97 75.75 77.35 75.75 47.65"/><polygon class="cls-3" points="72.61 50.04 27.3 50.04 27.3 84.58 59.21 84.58 72.61 76.13 72.61 50.04"/><rect class="cls-6" x="29.78" y="67.06" width="38.9" height="4.14"/><rect class="cls-6" x="29.78" y="54.36" width="38.9" height="4.14"/><rect class="cls-6" x="29.78" y="60.71" width="38.9" height="4.14"/><rect class="cls-6" x="29.78" y="73.41" width="38.9" height="4.14"/><polygon class="cls-7" points="75.75 77.35 60.5 86.97 60.5 77.35 75.75 77.35"/><polygon class="cls-8" points="32.9 71.89 37.88 72.76 40.78 73.27 42.05 71.97 41.21 67.85 40.5 64.14 34.13 66.35 32.9 71.89"/><rect class="cls-4" x="25.44" y="47.51" width="5.19" height="24.17" transform="translate(-34.15 37.91) rotate(-45.58)"/><path class="cls-4" d="M21.22,49.28,38.48,66.2l2-2.06-16.28-16a1.39,1.39,0,0,0-1.95,0Z"/><path class="cls-4" d="M16.62,55.94l16.28,16,2-2L17.59,53l-1,1A1.39,1.39,0,0,0,16.62,55.94Z"/><rect class="cls-9" x="26.85" y="50.87" width="5.19" height="20.21" transform="translate(-34.72 39.33) rotate(-45.58)"/><rect class="cls-10" x="30.83" y="47.99" width="2.88" height="20.21" transform="translate(-31.81 40.5) rotate(-45.59)"/><rect class="cls-10" x="25.27" y="53.72" width="2.78" height="20.21" transform="translate(-37.59 38.2) rotate(-45.58)"/><path class="cls-8" d="M37.83,64.18l.65,2-3.23,0a.51.51,0,0,0-.52.53l.12,3.23-1.52-.08a.5.5,0,0,0-.53.55l.1,1.51,3.16-1.17,2.58-3.12,1.87-3.46-2-.61A.52.52,0,0,0,37.83,64.18Z"/><path class="cls-4" d="M40.32,68.31l.23,1.38a.38.38,0,0,1-.49.43l-.77-.23a.48.48,0,0,0-.57.68l.35.7a.39.39,0,0,1-.25.55l-.68.18a.48.48,0,0,0-.3.7l0,.06,3.6.63a.61.61,0,0,0,.71-.72l-1-4.82-.28-.08A.49.49,0,0,0,40.32,68.31Z"/><path class="cls-6" d="M74.81,44.13H28a.74.74,0,1,1,0-1.48H74.81a.74.74,0,1,1,0,1.48Z"/><path class="cls-6" d="M51.42,51.06a.74.74,0,0,1-.74-.74V39.06a.74.74,0,0,1,1.48,0V50.32A.74.74,0,0,1,51.42,51.06Z"/><path class="cls-6" d="M28,44a.75.75,0,0,1-.75-.75V38.75a.75.75,0,0,1,1.49,0V43.2A.75.75,0,0,1,28,44Z"/><path class="cls-6" d="M74.87,44a.75.75,0,0,1-.74-.75V38.75a.74.74,0,0,1,1.48,0V43.2A.75.75,0,0,1,74.87,44Z"/><circle class="cls-2" cx="27.76" cy="38.13" r="1.67"/><circle class="cls-3" cx="51.46" cy="38.13" r="1.67"/><path class="cls-6" d="M53.13,51.5a1.67,1.67,0,1,1-1.67-1.67A1.67,1.67,0,0,1,53.13,51.5Z"/><circle class="cls-4" cx="74.73" cy="38.13" r="1.67"/></g></g></g></svg>