<svg xmlns="http://www.w3.org/2000/svg" viewBox="0 0 98.82 98.82"><defs><style>.cls-1{fill:#fdb816;}.cls-2{isolation:isolate;}.cls-3,.cls-4{fill:#fff;}.cls-3{opacity:0.4;}.cls-5{fill:#25bdbe;}.cls-6{fill:#f05164;}.cls-7{fill:#054062;}</style></defs><g id="Layer_2" data-name="Layer 2"><g id="Layer_1-2" data-name="Layer 1"><circle class="cls-1" cx="49.41" cy="49.41" r="49.41"/><g class="cls-2"><path class="cls-3" d="M80.08,40.06l.09.3.23.84c-.06-.19-.06-.19-.32-1.14Z"/><path class="cls-3" d="M80.76,42.71a.75.75,0,0,0,0-.16l.06.24,0,.23-.07-.29v0Z"/><path class="cls-3" d="M80.69,56.46l-.06.27c-.27.91-.68,2.1-1,3l0-.15c.32-.93.8-2.15,1.07-3.09Z"/><path class="cls-3" d="M79.12,61a.77.77,0,0,1,.07-.16,14,14,0,0,1-.49,1.59l-.09.21a15.91,15.91,0,0,0,.5-1.62v0Z"/><path class="cls-3" d="M51.88,81.5l-.22,0-1.93,0a6.87,6.87,0,0,1,1.24,0Z"/><path class="cls-3" d="M25.37,27.85a3.39,3.39,0,0,1,.91-.15.6.6,0,0,1-.08.08s0,.06-.05.07a3.64,3.64,0,0,1-.45,0,1.6,1.6,0,0,0-.46.1l.13-.15Z"/><path class="cls-3" d="M58.64,18.61l-.1,0c.65.21,1.52.49,2.17.73l.31.12c-.71-.25-1.65-.59-2.37-.82Z"/><path class="cls-3" d="M78.91,61.43l0-.09a22.36,22.36,0,0,1-2.3,5l-.2.31a22.16,22.16,0,0,0,2.44-5.2Z"/><path class="cls-3" d="M37.35,19.5a7.13,7.13,0,0,1,1-.29l-.18.07-.43.1-.61.19.19-.07Z"/><path class="cls-3" d="M31.87,22.33a30,30,0,0,1,5.89-2.87c-1.11.49-2.25.9-3.34,1.44-.86.42-2,1.07-2.77,1.57l.22-.14Z"/><path class="cls-3" d="M48.14,17.23h.11a28.89,28.89,0,0,0-8.82,1.62l-.1,0a28.41,28.41,0,0,1,8.79-1.65Z"/><path class="cls-3" d="M42.86,18.87s-.07.06-.11.07c-1.38.11-2.77.14-4.15.28.17-.07.36-.14,4.26-.35Z"/><path class="cls-3" d="M45.59,81.4l.39,0h0l-.42,0Z"/><path class="cls-3" d="M25.24,70.82c.06.08.13.15.2.23-.07-.08-.14-.15-.2-.23Z"/><path class="cls-3" d="M35,78.26c-.5-.29-.51-.29-.7-.59-.07-.11,0-.3.06-.42l.16.1c0,.12-.12.31,0,.41a1.33,1.33,0,0,0,.71.59L35,78.26Z"/><path class="cls-3" d="M18.46,40.05A27.46,27.46,0,0,1,25.7,28.5c-.24.65-1.09,1.2-1.56,1.71a26.88,26.88,0,0,0-5.76,10.11v0a1.87,1.87,0,0,1,.07-.22Z"/><path class="cls-3" d="M18.07,41.46c0-.06,0-.12,0-.18.24.43,1.19.79,5.28,1.36,0,.09,0,.11,0,.19-3.64-.5-5.17-.89-5.29-1.34v0Z"/><path class="cls-3" d="M25,70.58l-.08-.1a31,31,0,0,0,8.66,6.25.27.27,0,0,0,.08.07,30.7,30.7,0,0,1-8.65-6.21Z"/><path class="cls-3" d="M24.56,70l-.12-.15c.33,0,.89.1,7.18.21l.08.13c-3.35,0-6.9-.14-7.13-.18Z"/><path class="cls-3" d="M26.15,58.48l.07.14c-2.91,3.62-4.76,6.52-2.06,10.9-3.65-4.44.45-9.23,2-11Z"/><path class="cls-3" d="M17.5,54.71c-.33-4.09,1.19-7.06,5.82-11.35a.68.68,0,0,1,0,.14c-4.19,4.09-6.24,7-5.8,11.45a2,2,0,0,0,0-.24Z"/><path class="cls-3" d="M18,57.29c.19.09.54.27,7.91.55,0,.09,0,.11,0,.18-2-.06-7.74-.28-7.89-.53a1.46,1.46,0,0,0-.05-.2Z"/><path class="cls-3" d="M72.42,65.68l.1-.15c1.94,1.64,2.68,2.81,1.37,4.61l-.14.16c1-1.47,1.1-2.58-1.34-4.6v0Z"/><path class="cls-3" d="M47.34,81.55h-.2l.78,0h.16l-.72,0Z"/><path class="cls-3" d="M35,77.62l.12.06a29.5,29.5,0,0,0,4.22,2.26,27.55,27.55,0,0,0,7,1.54c-6.58-.61-9.91-2.89-11.33-3.86Z"/><path class="cls-3" d="M54.45,80.62c-.31.13-4.2.81-4.64.89a9.37,9.37,0,0,1,1-.19c1.78-.32,2.82-.53,3.66-.7Z"/><path class="cls-3" d="M26,28.56l.09-.07c-1.31,2.47-3.3,6.2-2.12,13.25l-.12.1c-.42-3.13-1.05-7.87,2.14-13.27Z"/><path class="cls-3" d="M37.41,19.65h0a30.26,30.26,0,0,0-10.15,7.23,29.52,29.52,0,0,1,10.12-7.22Z"/><path class="cls-3" d="M37.87,19.5l.14-.05c-1.74.95-5,2.73-4.24,6.78a.76.76,0,0,0-.14.11c-.2-1.65-.52-4.42,4.22-6.84Z"/><path class="cls-3" d="M33.2,26.81l-.09.15c-3.52.35-4.67.51-6.34.8.09-.11.27-.32,6.43-1Z"/><path class="cls-3" d="M32.15,70.71l.14.12a6.84,6.84,0,0,0,1.85,6s-2.48-1.66-2-6.09Z"/><path class="cls-3" d="M35.46,77.7l-.06,0a37.62,37.62,0,0,0,11.84,3.84h.07a36.85,36.85,0,0,1-11.85-3.79Z"/><path class="cls-3" d="M35.23,77.51l-.11-.08a84.5,84.5,0,0,0,10.19,3.31l0,0a80.16,80.16,0,0,1-10.11-3.24Z"/><path class="cls-3" d="M24,44.05l.11,0a42.08,42.08,0,0,0,2.29,12.76l-.12,0A42,42,0,0,1,24,44.05Z"/><path class="cls-3" d="M33,27.64l.07,0a50.79,50.79,0,0,0-8.56,14l-.07,0a47.46,47.46,0,0,1,8.56-14Z"/><path class="cls-3" d="M33.65,27.6l.13-.07c-.29,4.46.51,8.81,5.43,17.83l-.17.11c-3.83-7.16-5.94-12.38-5.4-17.86Z"/><path class="cls-3" d="M24.73,43.12a1.18,1.18,0,0,0,.05-.18,137.75,137.75,0,0,0,13.81,3.23s0,.11,0,.15a132,132,0,0,1-13.83-3.17v0Z"/><path class="cls-3" d="M42.37,19.29A32.39,32.39,0,0,0,34.57,26l-.09,0a32.34,32.34,0,0,1,7.89-6.69Z"/><path class="cls-3" d="M46.1,23.93v.12c-3.77.82-7.67,1.66-11.54,2.64a.47.47,0,0,1,0-.1c1.69-.45,3.44-.92,11.49-2.66Z"/><path class="cls-3" d="M38.67,47.14l.07.13c-5.2,4.07-7.8,6.12-11.35,10.09l-.08-.13c1.57-1.85,3.73-4.39,11.36-10.09Z"/><path class="cls-3" d="M33.05,71l.07,0c2,2.16,6.59,7.22,12.07,9.62C43.63,79.88,38.87,77.67,33,71Z"/><path class="cls-3" d="M27.07,59.16l.11,0A44.11,44.11,0,0,0,31.79,69.2l-.11,0a43,43,0,0,1-4.62-10.06Z"/><path class="cls-3" d="M27.63,58.14s0-.08,0-.17c3.31.37,6.21.69,13.38,1.3v.15c-5.53-.36-12.57-1.16-13.35-1.25v0Z"/><path class="cls-3" d="M33.19,70.52a.34.34,0,0,0,0-.13c2.54.94,4.38,1.6,9.74,3.36,0,0,0,.09,0,.13-5.36-1.76-7.07-2.37-9.7-3.35Z"/><path class="cls-3" d="M42.07,60.63h.13c.37,6.18.53,8.74,1.4,12.66h-.13a61.32,61.32,0,0,1-1.4-12.66Z"/><path class="cls-3" d="M41.19,60.1l.13.16c-3.54,2.94-6.86,5.87-8.65,9.38l-.14-.12c1-1.9,2.36-4.26,8.66-9.42Z"/><path class="cls-3" d="M43,19.14l.11-.06c-.14,1.15.31,2.09,3.26,4.29l-.09.1c-2.73-2.07-3.47-3-3.29-4.33Z"/><path class="cls-3" d="M49.15,17.21h0Z"/><path class="cls-3" d="M48.74,17.22h.18c-4,.1-5.91.61-5.77,1.52l-.13.06c-.08-.95,1.83-1.48,5.69-1.57Z"/><path class="cls-3" d="M49.29,17.21l0,0a6.11,6.11,0,0,1-.88.27c-1.59.43-3.19.83-4.78,1.26a4.93,4.93,0,0,1,1.14-.34l2.62-.68a15.21,15.21,0,0,0,1.9-.52l0,0Z"/><path class="cls-3" d="M49.58,81.52s0,0-.38,0l-1,0H48c.39,0,.81,0,1.57,0Z"/><path class="cls-3" d="M45.94,81c.2.06.35.2.55.26a10.06,10.06,0,0,0,1.21.27A4,4,0,0,1,45.94,81Z"/><path class="cls-3" d="M66.45,22.19l.17.11a1.68,1.68,0,0,1,.46.46.63.63,0,0,1,0,.41l-.16-.12a.83.83,0,0,0-.06-.47,1.6,1.6,0,0,0-.43-.39Z"/><path class="cls-3" d="M43.54,74.74l.13.06c-.17,1.72-.43,4.33,1.79,5.84,0,0-2.62-1.06-1.92-5.9Z"/><path class="cls-3" d="M46.22,81l-.08,0c2.23.34,3,.46,3.48.58,0,0-.14,0-.2,0-.58-.11-1.14-.2-3.19-.51Z"/><path class="cls-3" d="M49.39,17.23c.31.22.5.35,0,1.72a36.17,36.17,0,0,1-2.09,4.22l-.08,0c2.07-3.91,2.84-5.37,2.15-5.9Z"/><path class="cls-3" d="M52.48,79.66l0,0a13.57,13.57,0,0,1-2.59,1.75,15.37,15.37,0,0,0,2.56-1.77Z"/><path class="cls-3" d="M44.33,74.75a.17.17,0,0,0,.07-.06c4.37,4.42,5.68,5.92,5.38,6.74h0c.18-.85-.73-2-5.43-6.68Z"/><path class="cls-3" d="M51.72,69.92l.05.12c-4.52,2.16-5.21,2.49-7.4,3.74l-.08-.1a72.32,72.32,0,0,1,7.43-3.76Z"/><path class="cls-3" d="M44.51,74.51a.56.56,0,0,0,0-.1c5.22,2.52,6.94,3.43,8.27,4.59l-.07.06c-1.67-1.3-2.9-2-8.22-4.53v0Z"/><path class="cls-3" d="M46.54,24.55l.12,0a173.19,173.19,0,0,0-6.55,20.71l-.12,0c.92-4.2,2.35-9.62,6.55-20.7Z"/><path class="cls-3" d="M78.92,60.72s-.71,1.55-6.17,4.31a1.21,1.21,0,0,0,0-.18,21.1,21.1,0,0,0,6.12-4.13Z"/><path class="cls-3" d="M53.21,32.11a.48.48,0,0,0,.11.09c-4,4.69-8.53,8.87-12.67,13.42l-.11-.11c4.07-4.61,8.59-8.79,12.67-13.4Z"/><path class="cls-3" d="M43,60.37l.12-.12c7.78,7.3,7.78,7.3,9,8.55l-.1.09c-.6-.58-.6-.58-9-8.5v0Z"/><path class="cls-3" d="M43.32,59.64v-.17c16.14,1.32,16.14,1.32,18,1.48a1.29,1.29,0,0,0,0,.19L43.32,59.67v0Z"/><path class="cls-3" d="M39.82,47.77l.18,0c.48,3.23.87,5.78,2,10.54l-.15,0a98.6,98.6,0,0,1-2-10.53Z"/><path class="cls-3" d="M40.92,46.65c0-.06,0-.14,0-.19,6.69.35,13.39.67,20.09,1a1.62,1.62,0,0,0,0,.22c-6.7-.38-13.4-.7-20.1-1v0Z"/><path class="cls-3" d="M61.12,48.24a1.74,1.74,0,0,0,.1.19c-5.87,3.75-12,7-18,10.53l-.1-.17c6-3.53,12.19-6.76,18-10.55Z"/><path class="cls-3" d="M47.29,24.43l.09-.07a71.6,71.6,0,0,0,5.84,6.23.58.58,0,0,0-.12.1,70.44,70.44,0,0,1-5.83-6.25Z"/><path class="cls-3" d="M50.83,18l.06,0c0,1.08-.3,1.95-3.4,5.27a.28.28,0,0,0-.09-.07c2.23-2.41,3.57-4,3.43-5.22Z"/><path class="cls-3" d="M57.14,22l.06.08c-2.2.53-4.6.92-9.53,1.69v-.12c3.68-.57,6.58-1,9.47-1.65Z"/><path class="cls-3" d="M56,18.45c3.52,1.53,7.28,3.57,11.2,10h-.07c-2.62-4-5.26-7.53-11.13-10Z"/><path class="cls-3" d="M67.19,23.58s1.94,1.62.73,5.33l-.13-.13a5.4,5.4,0,0,0-.6-5.2Z"/><path class="cls-3" d="M55.5,18.33a4.88,4.88,0,0,1,1.55,1.1,3,3,0,0,1,.71,2.12l-.12-.07c-.13-1.61-.38-2.1-2.14-3.15Z"/><path class="cls-3" d="M51.2,18v0a65,65,0,0,1,5.72,3.42.11.11,0,0,0,0,.05c-2.47-1.6-3.7-2.37-5.7-3.44Z"/><path class="cls-3" d="M62.18,49l.19,0a74.5,74.5,0,0,1,.09,11h-.13a84.37,84.37,0,0,0-.15-11Z"/><path class="cls-3" d="M49.31,17.21h0a49.37,49.37,0,0,1,5.29.81l.13.05c-3.65-.7-5-.83-5.38-.86Z"/><path class="cls-3" d="M49.42,17.23h0a7.85,7.85,0,0,1,1,.38h0a7.09,7.09,0,0,0-1-.38Z"/><path class="cls-3" d="M51.07,17.83l0,0c2.07.15,2.59.19,3.75.29l.15.05c-1.1-.1-1.71-.15-3.85-.3Z"/><path class="cls-3" d="M58.43,22.47s0,0,0-.06A93.29,93.29,0,0,1,66.8,28.6a.38.38,0,0,0,0,.1,91.86,91.86,0,0,0-8.35-6.22Z"/><path class="cls-3" d="M57.63,22.42l.1,0c0,1.48-.09,3.49-3.19,8.19l-.14-.09c1.39-2.2,3.29-5.21,3.23-8.15Z"/><path class="cls-3" d="M71,46a1.52,1.52,0,0,0,0,.21c-3,.58-3.86.76-7.7,1.4a1.36,1.36,0,0,0,0-.21C67.1,46.74,68,46.57,71,46Z"/><path class="cls-3" d="M54.4,32.38l.14-.06a139.29,139.29,0,0,1,7.22,14.14l-.13,0a154.08,154.08,0,0,0-7.25-14.13Z"/><path class="cls-3" d="M67,29.42l.08.12c-1.13.24-3.48.75-12.11,1.83l0-.13C66,29.61,66,29.61,67,29.42Z"/><path class="cls-3" d="M67.65,30.15l.07,0c.22,4.1-.52,8.28-4.88,16.46l-.16-.11c2.65-5.06,5.21-10.49,5-16.39Z"/><path class="cls-3" d="M52.83,70.46l.14,0c.45,2.31,1.14,5.81.25,8.38l-.09,0c.34-1.4.81-3.31-.32-8.36Z"/><path class="cls-3" d="M61.34,61.89a.64.64,0,0,0,.1.13c-2.93,2.64-3.31,3-7.9,6.9a.6.6,0,0,1-.08-.08c2.61-2.33,5.29-4.6,7.88-7Z"/><path class="cls-3" d="M53.6,69.83l0-.13c3.11.76,8.9,2.18,11.88,3.77l-.1.09c-2.32-1-4.51-2-11.83-3.71v0Z"/><path class="cls-3" d="M53.29,79.42l.07-.06c1,.47,1.37.67,1.56,1.08l-.14,0c-.16-.37-.38-.56-1.5-1.06Z"/><path class="cls-3" d="M65,74.05s-.43.57-11.45,5l0-.06c8.61-3.6,8.61-3.6,11.43-5Z"/><path class="cls-3" d="M71.4,66.32l.07,0a36.48,36.48,0,0,1-4.87,6.58h-.07a38.87,38.87,0,0,0,4.87-6.59Z"/><path class="cls-3" d="M62.77,62a.79.79,0,0,0,.14-.11c2.56,4.32,3.82,7.37,3.12,11.15l-.11.07c.35-2.79.34-5.37-3.17-11.09l0,0Z"/><path class="cls-3" d="M58.55,18.59a23.14,23.14,0,0,1,7.8,4.08l0,0,0,0a14.29,14.29,0,0,1-1.49-1.1,22.15,22.15,0,0,0-6.22-2.94Z"/><path class="cls-3" d="M56,18.38l-.07,0a47.63,47.63,0,0,1,10.18,4.34l.08.08A48.44,48.44,0,0,0,56,18.38Z"/><path class="cls-3" d="M68.47,30.19l0-.08A52.78,52.78,0,0,1,75.41,38a.59.59,0,0,0,0,.08,55.35,55.35,0,0,0-6.91-7.83Z"/><path class="cls-3" d="M68.07,30.33h.09a36.62,36.62,0,0,1,3.67,14.33l-.08,0c-.52-4.51-1-8.78-3.68-14.32Z"/><path class="cls-3" d="M71.31,46.9a.57.57,0,0,0,.11.11c-1.41,3.07-3,6.54-8.31,13.23L63,60.13A60.15,60.15,0,0,0,71.31,46.9Z"/><path class="cls-3" d="M75.75,57.25l.07,0a38.26,38.26,0,0,1-3.13,7l-.09,0a41.51,41.51,0,0,0,3.15-7Z"/><path class="cls-3" d="M63.18,61.53a1,1,0,0,0,.07-.17,50.13,50.13,0,0,1,8.35,3.56,1,1,0,0,0-.1.17,46.2,46.2,0,0,0-8.33-3.54v0Z"/><path class="cls-3" d="M75.51,56.32a.81.81,0,0,0,0,.15c-2.27,1.1-4.75,2.18-12.17,4.45v-.14C71,58.24,72,57.91,75.51,56.32Z"/><path class="cls-3" d="M75.71,39.58l.11.16a22.42,22.42,0,0,1-3.33,5.49,1,1,0,0,0-.1-.17,22.22,22.22,0,0,0,3.32-5.48Z"/><path class="cls-3" d="M72.39,47l.09-.11A35.43,35.43,0,0,1,76,55.05a.58.58,0,0,0-.1.12A34.89,34.89,0,0,0,72.37,47l0,0Z"/><path class="cls-3" d="M64.93,74.44l0,0a34.14,34.14,0,0,1-9.25,5.77,34.7,34.7,0,0,0,9.22-5.8Z"/><path class="cls-3" d="M76.28,31.9a31.51,31.51,0,0,1,4,9,32.18,32.18,0,0,0-4-9Z"/><path class="cls-3" d="M72.72,71.45l-.14.15c-.51.41-1.29,1-6.25,2.06,0,0,0-.11.11-.13a11,11,0,0,1,1.14-.24c1.28-.28,4.32-1,5.14-1.84Z"/><path class="cls-3" d="M69.35,74.56l-.27.22a31.36,31.36,0,0,1-6.19,3.71c1.25-.67,2.54-1.28,3.75-2a31.53,31.53,0,0,0,2.71-1.91Z"/><path class="cls-3" d="M65.75,74.19l.13-.1c-.16,1.21-.36,2.72-3.32,4.49l-.16.07c1.35-.86,3.2-2.05,3.33-4.45Z"/><path class="cls-3" d="M67.84,23.79l-.07-.07A29.69,29.69,0,0,1,75,30.13l.06.08a29.37,29.37,0,0,0-7.25-6.41Z"/><path class="cls-3" d="M67.75,23.92s5.84,4.23,8.1,13.92l-.06,0c-1-3.7-2.43-8.78-8-13.89Z"/><path class="cls-3" d="M75.89,31.35a7,7,0,0,1,.47,7.08c0-.08-.06-.09-.1-.17a7.12,7.12,0,0,0-.37-6.91Z"/><path class="cls-3" d="M55.64,17.85l.25,0,1.12.25-1.37-.3Z"/><path class="cls-3" d="M51.12,17.27h.22c2.23.16,3.33.4,3.79.81L55,18a1,1,0,0,1-.18-.13,3.24,3.24,0,0,0-1-.34,19.76,19.76,0,0,0-2.66-.3Z"/><path class="cls-3" d="M55.39,18.17l-.14-.05c1.2.07,1.72.1,2.2.16l.2.06c-.45-.06-.88-.1-2.25-.17Z"/><path class="cls-3" d="M80.82,43.27a31.8,31.8,0,0,1-1.18,16,32.37,32.37,0,0,0,1.18-16Z"/><path class="cls-3" d="M76.66,56.57c0-.08,0-.14,0-.17a6.84,6.84,0,0,1,2.49,3.54l-.07.18c-.33-1.07-.57-1.84-2.48-3.53v0Z"/><path class="cls-3" d="M54.89,80.62l.13,0c.2.14.57.42-1.12.69l-.42.06-.21,0c1.32-.18,2.1-.37,1.62-.72h0Z"/><path class="cls-3" d="M61.36,79.19l.14-.06a20.52,20.52,0,0,1-3,1.12l-.24.07a23.34,23.34,0,0,0,3-1.12Z"/><path class="cls-3" d="M61.7,79a39.94,39.94,0,0,1-6.49,1.53l.13,0c2.12-.5,4.27-.84,6.36-1.48Z"/><path class="cls-3" d="M76.26,40.11h.07a36,36,0,0,1,.16,14.75l-.07,0a37.77,37.77,0,0,0-.16-14.74Z"/><path class="cls-3" d="M76.65,39.28a1.08,1.08,0,0,0,0-.17c2.18,1,2.94,1.51,3.79,2.59,0,.06,0,.13,0,.2-.79-1-1.32-1.43-3.79-2.6v0Z"/><path class="cls-3" d="M80.67,42.81S82,47.93,76.81,55.34l0-.14c1.75-2.7,4.4-6.77,3.89-12.39Z"/><path class="cls-3" d="M18.39,40.27c-.15.5-.42,1.56-.54,2.06.16-.69.34-1.38.54-2.06Z"/><path class="cls-3" d="M46,81.45H46c.61.06,1.46.14,2.57.16h-.06c-.82,0-1.64-.07-2.45-.15Z"/><path class="cls-3" d="M23.72,69s0,0,0,0,1.53,1.85,1.54,1.87v0c-.53-.59-1-1.2-1.52-1.83Z"/><path class="cls-3" d="M49.27,17.21c-.55,0-1,0-1.33,0,.44,0,.88,0,1.33,0Z"/><path class="cls-3" d="M38.55,19.15a7.11,7.11,0,0,0-1.14.49h0c.15,0,2.16-.81,2.23-.85h0a9.64,9.64,0,0,0-1.09.36Z"/><path class="cls-3" d="M26.24,27.75a2.89,2.89,0,0,1,1-.88c.28.06-.87,1.38-1.34,1.7-.2.13-.3.13-.27,0a2.48,2.48,0,0,1,.57-.82Z"/><path class="cls-3" d="M34.16,77.14c-.52-.34-.71-.55-.63-.58h0c.34,0,2.07,1.12,1.94,1.23a3.68,3.68,0,0,1-1.33-.65Z"/><path class="cls-3" d="M23.36,42.81c.1-.58.43-1.18.92-1.2.77,0,.69,1.61.06,2.24-.46.45-1,.21-1-.67a1.61,1.61,0,0,1,0-.37Z"/><path class="cls-3" d="M26,58c-.16-.81.18-1.19.57-1.19,1.05.07,1.37,1.82.84,2.27S26.18,59,26,58Z"/><path class="cls-3" d="M48,81.56a6.27,6.27,0,0,1-.85-.09c.61,0,1.21.12,1.81.14-.1,0-.49,0-1,0Z"/><path class="cls-3" d="M31.67,70.14c-.32-.55-.26-.93.14-.94.87,0,1.72,1.42,1.31,1.79-.24.21-1-.06-1.45-.85Z"/><path class="cls-3" d="M33.19,26.82A1.85,1.85,0,0,1,34.41,26c.55,0,.24.77-.26,1.27s-1.19.59-1.2.19a1.23,1.23,0,0,1,.24-.61Z"/><path class="cls-3" d="M42.83,18.89a3.08,3.08,0,0,1,1-.37s.12,0,0,.1c-.37.34-1.51.86-1.5.64s.19-.21.48-.37Z"/><path class="cls-3" d="M45.59,80.87c-.33-.14-.46-.24-.4-.26h0a3.73,3.73,0,0,1,1.27.52,2.82,2.82,0,0,1-.91-.25Z"/><path class="cls-3" d="M38.55,46.49a1.21,1.21,0,0,1,1.21-1.26,1.28,1.28,0,0,1,.77,2.23,1.18,1.18,0,0,1-2-1Z"/><path class="cls-3" d="M42.94,74.06a.53.53,0,0,1,.53-.77c.89,0,1.32,1,.93,1.4s-1.2.14-1.46-.63Z"/><path class="cls-3" d="M41,59.48a1,1,0,0,1,1.07-1.2A1.2,1.2,0,1,1,41,59.48Z"/><path class="cls-3" d="M46.13,23.77A.91.91,0,0,1,47,23.1a.68.68,0,0,1,.44,1.21c-.44.44-1.34.32-1.34-.32a1.22,1.22,0,0,1,0-.22Z"/><path class="cls-3" d="M51.69,69.46a1.06,1.06,0,0,1,1.09-.87c1.12,0,1.08,1.15.55,1.62a1,1,0,0,1-1.65-.65s0-.07,0-.1Z"/><path class="cls-3" d="M49.27,17.21a.38.38,0,0,1,.16,0h0l-.11,0Z"/><path class="cls-3" d="M49.57,81.53a.8.8,0,0,1,.31-.12s0,0,0,0a1,1,0,0,1-.46.13h0l.12-.06Z"/><path class="cls-3" d="M52.87,31.3a.87.87,0,0,1,.93-.89,1.1,1.1,0,0,1,.94,1.76,1.14,1.14,0,0,1-1.87-.87Z"/><path class="cls-3" d="M50.54,17.78c-.1-.09-.18-.2-.06-.2s.83.35.7.46-.36,0-.64-.26Z"/><path class="cls-3" d="M52.57,79.24a1,1,0,0,1,.78-.45c.33,0,.33.26,0,.58s-.92.46-.91.17a.62.62,0,0,1,.13-.3Z"/><path class="cls-3" d="M61,47.66a1.15,1.15,0,0,1,1.11-1.27c1.27,0,1.46,1.72.77,2.32A1.16,1.16,0,0,1,61,47.66Z"/><path class="cls-3" d="M61.23,61.14A1.29,1.29,0,0,1,62.46,60c1.16,0,1,1.4.43,2s-1.69.38-1.68-.57a.75.75,0,0,1,0-.23Z"/><path class="cls-3" d="M57,21.86c-.09-.12-.33-.52.09-.54.69,0,1.53,1,1.25,1.21s-.91,0-1.34-.67Z"/><path class="cls-3" d="M54.64,80.55a4.8,4.8,0,0,1,1-.34s.06,0,0,0a5.25,5.25,0,0,1-1.7.6h0s0-.06.64-.29Z"/><path class="cls-3" d="M70.93,45.77c0-.66.3-1.1.77-1.12.93,0,1.28,1.75.67,2.34s-1.42.07-1.44-1.22Z"/><path class="cls-3" d="M66.91,29.27c-.28-.57-.12-.82.16-.83.71,0,1.76,1.44,1.34,1.82-.27.25-1-.09-1.5-1Z"/><path class="cls-3" d="M54.92,18.14a7.63,7.63,0,0,1-.76-.27h0a6.94,6.94,0,0,1,1.88.59,4.86,4.86,0,0,1-1.13-.31Z"/><path class="cls-3" d="M65.29,73.71a2.1,2.1,0,0,1,1.21-.8c.34,0,.18.43-.37,1s-1.22.78-1.23.5a1.35,1.35,0,0,1,.39-.66Z"/><path class="cls-3" d="M71.4,65.28c.29-.62.72-1,1.1-1,.65,0,.21,1.25-.38,1.81s-.92.4-.91-.1a1.88,1.88,0,0,1,.19-.66Z"/><path class="cls-3" d="M75.57,56c.11-.51.38-1.07.81-1.1.7,0,.53,1.7-.07,2.28-.33.32-.81.24-.82-.61a3,3,0,0,1,.08-.57Z"/><path class="cls-3" d="M75.41,38.8c-.12-.47-.12-1,.24-1,.62,0,1.34,1.81.9,2.26-.26.27-.86-.14-1.14-1.24Z"/><path class="cls-3" d="M66.62,23.16c-.35-.28-.74-.6-.61-.62.36,0,2,1.26,1.9,1.4s-.36-.06-1.29-.78Z"/><path class="cls-3" d="M61.94,78.86c.71-.32,1-.47,1.13-.49a12.42,12.42,0,0,1-2.21,1,8,8,0,0,1,1.08-.5Z"/><path class="cls-3" d="M79,60.38a2.88,2.88,0,0,1,.58-1.14c.21,0-.53,2.15-.81,2.32-.08,0-.08-.12,0-.43s.17-.54.24-.75Z"/><path class="cls-3" d="M57.58,18.32c-.39-.11-.78-.18-1.16-.3a22.44,22.44,0,0,1,2.39.65l-.16-.05-1.07-.3Z"/><path class="cls-3" d="M80.48,42.05a5.43,5.43,0,0,1-.21-1.19,12.42,12.42,0,0,1,.57,2.44,6.36,6.36,0,0,1-.36-1.25Z"/><path class="cls-3" d="M75.51,30.81c-.2-.29-.42-.58-.62-.88h0l.36.48,1,1.51c-.27-.36-.52-.74-.78-1.11Z"/><path class="cls-4" d="M60.85,79.64l-.11,0a30.88,30.88,0,0,0,6.11-3l.24-.16a30.6,30.6,0,0,1-6.22,3.1Z"/><path class="cls-4" d="M69.15,75.07l.2-.16a13.13,13.13,0,0,0,2.08-2L71.3,73c-.29.28-.64.68-.91,1a11.62,11.62,0,0,1-1.24,1.07Z"/><path class="cls-4" d="M61.06,79.53a33.11,33.11,0,0,0,9.81-6.2v0a33.15,33.15,0,0,1-9.8,6.22Z"/><path class="cls-4" d="M72.39,26.63c-.06-.05-.11-.11-.17-.17l-.15-.15a33.48,33.48,0,0,0-13.86-8c5.17,1.93,9.26,3.46,14.18,8.35Z"/><path class="cls-4" d="M74.11,28.52a2.09,2.09,0,0,1-.14-.17c-.26-.26-.61-.6-.89-.84l.13.15c.27.26.65.58.9.86Z"/><path class="cls-4" d="M79.42,41.66l.07.11a19.42,19.42,0,0,0-3.68-11.05l-.21-.29a19.45,19.45,0,0,1,3.81,11.22Z"/><path class="cls-4" d="M58.23,19.32l.13.07c.13-.34.16-.43,0-.73a2.25,2.25,0,0,0-.85-.56l-.19-.05a2.08,2.08,0,0,1,.91.6.59.59,0,0,1,0,.66Z"/><path class="cls-4" d="M71.9,26.44a33.66,33.66,0,0,0-13.6-8.13,34.17,34.17,0,0,1,13.6,8.13Z"/><path class="cls-4" d="M72.21,26.85s-3.09-3.16-13.29-7.12a6.85,6.85,0,0,0,1.62.68,45.76,45.76,0,0,1,11.67,6.44Z"/><path class="cls-4" d="M60.53,79.71a11.56,11.56,0,0,0,4.53-3.34,1.19,1.19,0,0,0-.15.09,6.27,6.27,0,0,0-.8.9,11.62,11.62,0,0,1-3.58,2.35Z"/><path class="cls-4" d="M72.63,71.6a31.35,31.35,0,0,0,8.18-14.44c0-.24.11-.48.16-.72A31.62,31.62,0,0,1,72.63,71.6Z"/><path class="cls-4" d="M81.73,48.58c0-.08,0-.17,0-.25a9.45,9.45,0,0,0-1.84-5.08,1.09,1.09,0,0,0,0,.18,7.44,7.44,0,0,0,.75,1.24,8.78,8.78,0,0,1,1.09,3.91Z"/><path class="cls-4" d="M77.09,52.93l.06.08a28,28,0,0,0,2.29-9.18.31.31,0,0,1-.08-.11,28.27,28.27,0,0,1-2.28,9.19v0Z"/><path class="cls-4" d="M77.29,53.7c0,.08,0,.15,0,.18,2.78-1.27,4.23-2.18,4.45-3.63V50c-.22,1.07-.68,2-4.44,3.64v0Z"/><path class="cls-4" d="M53.12,81.42a36.38,36.38,0,0,0,11.25-4.84v-.06a38.2,38.2,0,0,1-11.25,4.9Z"/><path class="cls-4" d="M71.49,33.14l.09.13c1.59-1.91,2.3-3.35,1.45-5.52l-.14-.15c.64,1.81.59,3.1-1.42,5.52l0,0Z"/><path class="cls-4" d="M79.26,41.5l.06,0A27.48,27.48,0,0,0,73.53,28.2l-.06,0A27.39,27.39,0,0,1,79.25,41.5Z"/><path class="cls-4" d="M78.94,42c0-.26-1.91-3.43-7-7.73v.11a37.91,37.91,0,0,1,7,7.62Z"/><path class="cls-4" d="M66.08,75.58l-.09.08a35,35,0,0,0,5.18-2.75l.12-.14a34.17,34.17,0,0,1-5.2,2.8Z"/><path class="cls-4" d="M72.37,71.73c.06,0,5.69-5.19,4.48-16.61l-.06.06c.37,5.41.3,10.39-4.42,16.55Z"/><path class="cls-4" d="M71.91,72.15s2.23-2.24-1.74-6.53l-.12.16c1.65,1.88,3,3.78,1.86,6.37Z"/><path class="cls-4" d="M49.48,17c.17,0,.44,0,.44,0h-.44Z"/><path class="cls-4" d="M56.9,17.94c-.77-.2-4.52-.75-7.35-1,6.59.85,6.59.85,7.35,1Z"/><path class="cls-4" d="M56.44,17.79l.13,0a26.6,26.6,0,0,0-5.2-.81l-.27,0a27.45,27.45,0,0,1,5.32.79Z"/><path class="cls-4" d="M51.51,81.81l.33,0a28.36,28.36,0,0,0,7.31-1.51,28.9,28.9,0,0,1-7.64,1.54Z"/><path class="cls-4" d="M52.73,81.52l-.12,0a57.33,57.33,0,0,0,6.71-1.39l.18-.07a56.72,56.72,0,0,1-6.75,1.43Z"/><path class="cls-4" d="M58,78.61l-.06.06c3-1,4.61-1.58,6.68-2.4l.12-.11c-2.43,1-3.6,1.4-6.74,2.44Z"/><path class="cls-4" d="M65.86,75.3s3-2.43,3.78-9.15a.39.39,0,0,1-.11.06c-.47,3-.88,5.57-3.67,9.09Z"/><path class="cls-4" d="M53,81.43a8.44,8.44,0,0,0,3.91-2.12l-.11,0a7.69,7.69,0,0,0-1,.82A10.53,10.53,0,0,1,53,81.43Z"/><path class="cls-4" d="M49.41,81.88h.23c2,0,2.49-.16,2.67-.27l-.16,0s-.06,0-.09,0a4.18,4.18,0,0,1-.86.14c-.21,0-.73.05-1.79.06Z"/><path class="cls-4" d="M49.27,81.88a19.14,19.14,0,0,0,2.46-.21l.13,0a20.57,20.57,0,0,1-2.59.23Z"/><path class="cls-4" d="M76.57,52.8l.08,0a39.72,39.72,0,0,0-4.89-18.05l-.09,0a41.41,41.41,0,0,1,4.9,18Z"/><path class="cls-4" d="M70.38,64.24l0,0a44,44,0,0,0,5.77-9.08.39.39,0,0,1-.08-.1,47.22,47.22,0,0,1-5.73,9.13Z"/><path class="cls-4" d="M69.45,64.38l.09-.07c-.36-2.16-1.3-7.87-8.74-18.47l-.15.13c3.79,5.56,7.8,12.1,8.8,18.41Z"/><path class="cls-4" d="M76,53.67a1,1,0,0,1,0-.16c-3.38-2.74-7.72-5.14-15-8.28l0,.15c6.28,2.93,10.82,5,14.94,8.29Z"/><path class="cls-4" d="M53.27,31.54l.17,0h0C53,29.07,51.55,21.59,50,18H50c.39,1,1.56,4.12,3.29,13.56Z"/><path class="cls-4" d="M57.51,19.25A49.3,49.3,0,0,0,49.68,17a53.9,53.9,0,0,1,7.83,2.28Z"/><path class="cls-4" d="M57.72,19.4c-.12-.08-.12-.08-1.17-.32-2.12-.46-4.25-.88-6.37-1.35v0c2.5.58,5,1.06,7.53,1.63Z"/><path class="cls-4" d="M49.38,81.88c1.44-.14,3.07-.3,7.09-2.54v0c-2.08,1.13-4.44,2.41-7.07,2.57Z"/><path class="cls-4" d="M70.49,32.6l.06,0A33.79,33.79,0,0,0,59.08,20c3.79,2.66,7.26,5.45,11.41,12.62Z"/><path class="cls-4" d="M54.19,31.77l.11.1c3.7-4.17,6.79-8.51,4.29-12l-.13-.06c1.59,2.49,1.47,5.48-4.29,12Z"/><path class="cls-4" d="M60.88,44.06l.09.13c4.33-3.32,7.67-6.27,9.86-9.83l-.13-.16c-1.56,2.38-3.49,4.93-9.84,9.83l0,0Z"/><path class="cls-4" d="M70.42,33.69a1,1,0,0,1-.07-.18c-3.22-.24-6.84-.5-15.72-1a1,1,0,0,1,0,.18c3.88.2,10.36.54,15.78,1Z"/><path class="cls-4" d="M49.27,81.88h0Z"/><path class="cls-4" d="M49.27,81.88h0c1,0,1.39-.31,1.21-.92l-.06,0c0,.2,0,.53-.15.66a1.7,1.7,0,0,1-1,.22Z"/><path class="cls-4" d="M50.75,80.61v0c1.95-.51,5.81-1.57,5.85-1.58l.08-.08c-2,.54-4,1.06-5.92,1.62Z"/><path class="cls-4" d="M69,64.91l.08-.13c-2.94-2-6.58-3.83-13.41-6.6,0,0,0,.11-.06.15,7.74,3.35,9.82,4.25,13.39,6.58Z"/><path class="cls-4" d="M58,78.32a42.72,42.72,0,0,0,11.06-12s-.08,0-.1-.05A45.91,45.91,0,0,1,58,78.32Z"/><path class="cls-4" d="M57.11,78.63l.13-.08c-.74-1.53-2-2.58-5.51-4.69a.5.5,0,0,1-.08.12c3.55,2.12,4.77,3.17,5.46,4.65Z"/><path class="cls-4" d="M51.8,73.11l0,.1C63,68.68,67,66.64,68.74,65.77c0,0,0-.12,0-.17-5.14,2.56-7.41,3.51-17,7.5Z"/><path class="cls-4" d="M52.64,31.87a.38.38,0,0,1,.09-.09c-5.9-5.62-7.13-6.79-8.54-9.32l-.09.06c1.63,2.88,3.74,5,8.54,9.35Z"/><path class="cls-4" d="M52.43,32.48a1,1,0,0,1,0-.17C45.33,31.16,42.08,30.63,37,29.59l-.07.16c5.16,1.06,8.18,1.55,15.46,2.73Z"/><path class="cls-4" d="M55,56.66l.14.05a109.36,109.36,0,0,0,4.51-10.63L59.45,46c-1.37,3.62-2.13,5.61-4.49,10.65Z"/><path class="cls-4" d="M59.33,43.71l.13-.06c-1.26-2.69-1.89-4-5.28-10.12l-.12.06c4.31,8.16,4.31,8.16,5.27,10.12Z"/><path class="cls-4" d="M35.64,44.47l0,.09c5.64-3.83,11.4-7.47,17-11.29l-.12-.15c-5.66,3.78-11.48,7.3-17,11.33l0,0Z"/><path class="cls-4" d="M35.81,45.17v.12c2.81,0,2.81,0,23-.32,0-.06,0-.14,0-.21l-23,.39v0Z"/><path class="cls-4" d="M48.27,17h-.16l1.35,0H48.27Z"/><path class="cls-4" d="M41.67,79.29l.1.06c.64-1.37,2.21-2.7,8.4-5.41l-.05-.13c-4.79,2.13-7.87,3.79-8.46,5.47Z"/><path class="cls-4" d="M50.44,80.39h.06a22.5,22.5,0,0,0,.55-6.07h-.14a26.85,26.85,0,0,1-.47,6.06Z"/><path class="cls-4" d="M48.71,81.86a23.6,23.6,0,0,1-6.24-2,20.58,20.58,0,0,0,6.24,2Z"/><path class="cls-4" d="M48.9,81.87H49a.83.83,0,0,1-.38-.14c.09-.18.14-.3,1.4-.81v0c-.32.14-.76.31-1.06.48a1.28,1.28,0,0,0-.39.34c.08.14.09.14.35.18Z"/><path class="cls-4" d="M50,80.73l0,0c-2.64-.44-5.3-.73-7.94-1.12.1.07.1.07,1,.21,2.29.34,4.59.61,6.88,1Z"/><path class="cls-4" d="M37,28.64s.05,0,.06.06c2.4-2.42,3.49-3.52,6.24-6.08l-.07-.06c-2.06,1.91-3.82,3.57-6.24,6.07Z"/><path class="cls-4" d="M50.18,73.14l.06-.09C43.81,69.25,37.09,66,30.79,62l0,.11c2.22,1.48,2.75,1.83,5.75,3.54,4.52,2.57,9.14,4.95,13.66,7.52Z"/><path class="cls-4" d="M51.12,72.67h.07c1.43-5.11,3-12.77,3.18-13.62l-.2,0c-.73,3.59-1.22,6-3.07,13.64Z"/><path class="cls-4" d="M53.4,57.28a1.08,1.08,0,0,1,.11-.18c-13.23-8-13.23-8-17.83-11.24a1.18,1.18,0,0,1-.11.19C40,49.14,40,49.14,53.4,57.28Z"/><path class="cls-4" d="M30.67,61.21a.42.42,0,0,0,0,.12c14.88-2.21,14.88-2.21,22.57-3.23,0-.06,0-.14,0-.2-10.33,1.36-16.57,2.18-22.6,3.29v0Z"/><path class="cls-4" d="M49.92,17.47a.05.05,0,0,0,0,0l0-.31L49.69,17h0l.24.19,0,.29Z"/><path class="cls-4" d="M43.45,18.21l-.09.05c5.92-1.16,5.92-1.16,6.17-1.27v0h0v0c-.11,0-.11,0-6,1.22Z"/><path class="cls-4" d="M44.57,21.52a.19.19,0,0,1,0,.07,30.85,30.85,0,0,0,5.14-3.69l0,0c-.76.7-1.21,1.13-5.13,3.66Z"/><path class="cls-4" d="M43.48,21.69l.11-.09c-.79-1-1.6-1.94-.79-3.09-.15.06-.63.37-.37,1.58a4.45,4.45,0,0,0,1,1.6Z"/><path class="cls-4" d="M43.32,18.27l-.09.05,6.37-.59s0,0,0,0c-2.08.19-4.17.37-6.25.57Z"/><path class="cls-4" d="M40.92,79c-2.54-2.09-7.27-6-10.66-16.44h-.09C31.68,67.37,34.44,74.25,40.92,79Z"/><path class="cls-4" d="M21.6,50.56a1,1,0,0,0,0,.16,69.56,69.56,0,0,1,12-5,1.55,1.55,0,0,1,0-.21,66.47,66.47,0,0,0-12,5v0Z"/><path class="cls-4" d="M29.91,60.34l.08,0A57.63,57.63,0,0,1,34.24,46.5l-.17-.08a53.19,53.19,0,0,0-4.18,13.91Z"/><path class="cls-4" d="M34.55,44l.14,0c.05-5.91.18-8.43,1.34-13.52l-.15,0A48.89,48.89,0,0,0,34.55,44Z"/><path class="cls-4" d="M33.74,44.67a1.42,1.42,0,0,1,.11-.18c-3.34-2.73-6.07-5.09-8.14-8.44a1,1,0,0,1-.12.17c1.54,2.35,3,4.33,8.15,8.45Z"/><path class="cls-4" d="M43.93,81.27l.15,0c-1-.35-1.85-.63-2.27-1.51l-.13-.07c.32.58.55,1,2.23,1.55Z"/><path class="cls-4" d="M40.86,79.13A58.35,58.35,0,0,1,31,72.31v.06a53.76,53.76,0,0,0,9.89,6.76Z"/><path class="cls-4" d="M29.78,70.77l.1.06a17.52,17.52,0,0,1-.18-8.35l-.15-.1a17.86,17.86,0,0,0,.21,8.38Z"/><path class="cls-4" d="M29,60.72l0-.11a46.29,46.29,0,0,1-7.43-8.8.78.78,0,0,1,0,.14A41.28,41.28,0,0,0,29,60.72Z"/><path class="cls-4" d="M43.29,18.1l.13,0a22,22,0,0,1,2.11-.75,14,14,0,0,1,1.94-.3,10.92,10.92,0,0,0-4.18,1.09Z"/><path class="cls-4" d="M36.27,28.6l.11,0c.67-3.15,1.5-7.08,5.92-9.88,0,0-4.66,1.76-6,9.91Z"/><path class="cls-4" d="M36.14,20.15l-.12.06c1.62-.51,2.9-.91,6.33-1.73l.12-.06c-3.37.8-4.63,1.18-6.31,1.72Z"/><path class="cls-4" d="M26.12,34.93a.59.59,0,0,1,0,.13,101.61,101.61,0,0,1,9.18-5v-.16a99.44,99.44,0,0,0-9.16,5v0Z"/><path class="cls-4" d="M35.67,29l.13-.14c-2.61-3.16-3.53-5.53-.56-8.27a4.3,4.3,0,0,0-2,3.82c.09,1.83,1.53,3.56,2.4,4.59Z"/><path class="cls-4" d="M22,31.84c.52-.74,1.22-1.73,1.78-2.44l.06-.08c-.5.65-1.17,1.52-1.63,2.2l-.21.32Z"/><path class="cls-4" d="M24.38,28.58v0c0-.06.09-.11.13-.16v0s-.09.1-.13.16Z"/><path class="cls-4" d="M43.34,81.15a22.25,22.25,0,0,1-12.59-8.68l-.1,0c2.68,3.37,5.87,6.82,12.69,8.7Z"/><path class="cls-4" d="M43.49,81.21a39.52,39.52,0,0,1-9.34-3.43s3,1.92,9.34,3.43Z"/><path class="cls-4" d="M18,40.53c.56-1.26,1.45-2.48,6.52-4.63l.05-.18c-3.69,1.59-5.82,2.79-6.51,4.6l-.06.21Z"/><path class="cls-4" d="M21.07,49.68l.06,0A40,40,0,0,1,24.8,36.66l-.09,0a39.28,39.28,0,0,0-3.66,13.06Z"/><path class="cls-4" d="M24.88,35.1l.11-.17c-1.17-1.88-2-3.52-.7-6-.46.54-1.79,2.59.59,6.21Z"/><path class="cls-4" d="M25.42,34.51l.13-.07a20.08,20.08,0,0,1,9.17-13.56c-.07,0-7.19,3.55-9.3,13.63Z"/><path class="cls-4" d="M29.3,70.68c-2.8-4-6.64-9.43-8.06-18.4l-.09,0A39.16,39.16,0,0,0,29.3,70.68Z"/><path class="cls-4" d="M32.67,76.85l.12.07c-1.78-1.78-2.24-2.62-2.6-4.72L30,72.08a7.21,7.21,0,0,0,2.61,4.76Z"/><path class="cls-4" d="M18.88,60.86c1.53,3.34,3.64,6,10.41,10.28,0,0,0-.09-.05-.11a9.55,9.55,0,0,0-1.6-1c-6.57-4.26-8.11-7.7-8.85-9.36l.09.23Z"/><path class="cls-4" d="M17.09,45c0,1.28,0,2.88,3.33,5.65a.75.75,0,0,1,0-.21c-2-1.71-3.55-3.31-3.32-5.67l0,.23Z"/><path class="cls-4" d="M17.81,57.48c-.19-1.38-.41-2.95,2.68-5.9,0-.09,0-.11,0-.21-1.44,1.45-3.23,3.25-2.7,5.89l.06.22Z"/><path class="cls-4" d="M49.27,81.88H49a.57.57,0,0,0,.13,0Z"/><path class="cls-4" d="M49,81.88c-.46,0-1.8-.1-4.34-.45.31.07,2.69.37,4.34.45Z"/><path class="cls-4" d="M38.51,80.05a31.78,31.78,0,0,0,5.55,1.3A41.47,41.47,0,0,1,38.3,80l.21.07Z"/><path class="cls-4" d="M47.58,81.84a15.11,15.11,0,0,1-2.92-.38l-.19,0a12.83,12.83,0,0,0,2.89.4Z"/><path class="cls-4" d="M21,65.37A32.41,32.41,0,0,0,32.24,76.72a11.37,11.37,0,0,0-2-1.34A31.76,31.76,0,0,1,20.76,65c.08.14.16.28.23.42Z"/><path class="cls-4" d="M35.67,78.9a8.47,8.47,0,0,1-2.12-1.32l-.17-.1a8.11,8.11,0,0,0,2.09,1.32l.2.1Z"/><path class="cls-4" d="M28.76,74.57A21.66,21.66,0,0,0,32.62,77l-.14-.1c-.37-.23-.9-.49-1.28-.7a19.24,19.24,0,0,1-2.63-1.79l.19.15Z"/><path class="cls-4" d="M48.44,17a2,2,0,0,0-.37,0l.59,0Z"/><path class="cls-4" d="M42.29,17.69A21,21,0,0,0,36,20.05c.87-.39,1.67-.91,2.57-1.25a24.32,24.32,0,0,1,4-1.16l-.26.05Z"/><path class="cls-4" d="M36.6,19.87l-.05,0A34.19,34.19,0,0,1,47.15,17h.08A33.63,33.63,0,0,0,36.6,19.87Z"/><path class="cls-4" d="M35.7,19.91a.9.9,0,0,0-.31.23c0,.05,0,.15,0,.2l.18-.09a.33.33,0,0,1,0-.24,1,1,0,0,1,.29-.19l-.19.09Z"/><path class="cls-4" d="M25.73,27.06l-.81.91,1-1.1-.18.19Z"/><path class="cls-4" d="M25.26,27.69l0,0a35.71,35.71,0,0,1,9.29-6.86l.06,0a35.73,35.73,0,0,0-9.31,6.84Z"/><path class="cls-4" d="M72.64,27.34c.53.57.87.89,1,.88a7,7,0,0,0-1.68-1.82h0c0,.06.23.38.74.94Z"/><path class="cls-4" d="M71.55,72.51c-.74.75-.7.82-.68.82a6.81,6.81,0,0,0,1.76-1.75h0s-.26.11-1.06.93Z"/><path class="cls-4" d="M59.76,80l-1,.38a12.72,12.72,0,0,0,2.32-.84h0a11.77,11.77,0,0,0-1.29.47Z"/><path class="cls-4" d="M57.07,18l1.25.34a16.7,16.7,0,0,0-2.38-.65s0,0,.34.1l.79.21Z"/><path class="cls-4" d="M79.06,42.89c.21.9.56,1.29.74,1s-.13-2.4-.64-2.44c-.3.05-.24.79-.1,1.42Z"/><path class="cls-4" d="M64.91,76c-.55.48-.61.66-.49.67.4.05,2-1.21,1.84-1.41a.08.08,0,0,0-.07,0,3,3,0,0,0-1.28.77Z"/><path class="cls-4" d="M76,54.23c-.06,1,.41,1.34.84,1,.6-.54.72-2.39,0-2.43-.42,0-.77.63-.82,1.48Z"/><path class="cls-4" d="M70.4,33.66c.46,1.09,1.33,1.37,1.52.86s-.51-1.91-1.29-1.94c-.4,0-.49.45-.23,1.08Z"/><path class="cls-4" d="M68.85,65.28c-.31.85.1,1.2.67.94.82-.38,1.33-1.86.71-2.08a.56.56,0,0,0-.17,0,1.56,1.56,0,0,0-1.21,1.16Z"/><path class="cls-4" d="M57.94,19.53c.79.48,1.17.52,1.16.41A3.43,3.43,0,0,0,57.37,19s-.14,0,.05.17a4.47,4.47,0,0,0,.52.35Z"/><path class="cls-4" d="M52.09,81.61c-.24,0-.5.07-.74.13a10.09,10.09,0,0,0,1.8-.33h0l-1,.21Z"/><path class="cls-4" d="M56.8,78.88c-.35.29-.44.48-.24.49.48,0,1.69-.82,1.47-1a.24.24,0,0,0-.13,0,2.11,2.11,0,0,0-1.1.57Z"/><path class="cls-4" d="M49.27,81.88h0Z"/><path class="cls-4" d="M58.77,44.87a1.23,1.23,0,0,0,2.07.93,1.36,1.36,0,0,0-.94-2.23,1.13,1.13,0,0,0-1.13,1.3Z"/><path class="cls-4" d="M49.44,17l.19,0a.38.38,0,0,0,.16,0,1.53,1.53,0,0,0-.52-.07h.17Z"/><path class="cls-4" d="M53.27,57.84a1.21,1.21,0,0,0,2.06.9,1.23,1.23,0,0,0-.66-2.15h-.11a1.24,1.24,0,0,0-1.29,1.25Z"/><path class="cls-4" d="M52.44,32.66a1.19,1.19,0,0,0,2,.66,1.17,1.17,0,0,0-1-1.8h0a1,1,0,0,0-1,1.14Z"/><path class="cls-4" d="M50,80.76c-.09.3.17.37.43.23s.45-.5.18-.59h-.11a.51.51,0,0,0-.5.37Z"/><path class="cls-4" d="M49.59,17.68A.39.39,0,0,0,50,18h0c.27,0,.27-.23.08-.41a.49.49,0,0,0-.3-.14.18.18,0,0,0-.17.25Z"/><path class="cls-4" d="M50.08,73.56a.86.86,0,0,0,1.51.49A.78.78,0,0,0,51,72.67a.89.89,0,0,0-1,.89Z"/><path class="cls-4" d="M43.2,22.09c-.23.55.24.7.68.54.6-.22,1-1,.54-1.24a.51.51,0,0,0-.2,0,1.26,1.26,0,0,0-1,.74Z"/><path class="cls-4" d="M49.12,81.88h.15a4.68,4.68,0,0,1-.55,0h-.11a3.87,3.87,0,0,0,.51,0Z"/><path class="cls-4" d="M33.59,45.31a1.07,1.07,0,0,0,1.79,1c.63-.58.69-2.21-.6-2.29a1.25,1.25,0,0,0-1.19,1.32Z"/><path class="cls-4" d="M35.36,29.55c-.32.85.33,1.12.93.85.8-.37,1.18-1.6.56-1.83a1.39,1.39,0,0,0-.23,0,1.51,1.51,0,0,0-1.26,1Z"/><path class="cls-4" d="M41.38,79.56c.57.34,1.15.51,1.12.37A2.93,2.93,0,0,0,41,79c-.13,0-.14.08,0,.21a2.89,2.89,0,0,0,.43.31Z"/><path class="cls-4" d="M29,61.6c.37,1,1.42,1.31,1.7.64s-.2-2-1.17-2c-.67,0-.75.73-.53,1.34Z"/><path class="cls-4" d="M42.64,18.34c-.48.21-.64.35-.56.38A4.84,4.84,0,0,0,43.79,18h0a4.58,4.58,0,0,0-1.12.36Z"/><path class="cls-4" d="M29.63,71.65c.6.74,1.3,1,1.35.67a2.39,2.39,0,0,0-1.57-1.67c-.28,0-.31.36.22,1Z"/><path class="cls-4" d="M24.66,35.54c-.34.89,0,1.3.48,1.06.76-.36,1.31-2,.74-2.19l-.11,0c-.39,0-.85.49-1.11,1.15Z"/><path class="cls-4" d="M48.12,17c-.58,0-1,.07-1.06.08.73,0,1.47-.11,2.2-.11-.38,0-.77,0-1.14,0Z"/><path class="cls-4" d="M44.34,81.4c.59.12,1.13.2,1.19.2s-2.09-.44-2.2-.45a6.31,6.31,0,0,0,1,.25Z"/><path class="cls-4" d="M20.42,51.05c.06,1.15.63,1.5,1,1.12.47-.55.3-2.48-.41-2.5-.43,0-.59.71-.55,1.38Z"/><path class="cls-4" d="M35.31,20.4a3,3,0,0,0-.82.53,9.43,9.43,0,0,0,2.16-1.11h0a5.92,5.92,0,0,0-1.32.58Z"/><path class="cls-4" d="M33.1,77.32a4.91,4.91,0,0,0,1.18.59,11.3,11.3,0,0,0-2.08-1.28h0c0,.07.46.4.91.68Z"/><path class="cls-4" d="M24.42,28.54a6.73,6.73,0,0,0-.71,1,14.1,14.1,0,0,0,1.6-1.9h0a7.2,7.2,0,0,0-.89.94Z"/><path class="cls-4" d="M49.27,81.88h0Z"/><path class="cls-4" d="M18.54,41.19l-.06.1A22.5,22.5,0,0,1,22,31.84l.21-.32a22.26,22.26,0,0,0-3.64,9.66Z"/><path class="cls-4" d="M24.38,28.58c0-.06.09-.11.13-.16a15,15,0,0,1,3.25-.26l-.12.16a20.22,20.22,0,0,0-3.26.26Z"/><path class="cls-4" d="M18.24,41.9a1.21,1.21,0,0,1,0,.18A2.17,2.17,0,0,1,18,40.53l.06-.21a2.18,2.18,0,0,0,.16,1.56v0Z"/><path class="cls-4" d="M18.88,60.86l-.09-.23c-.12-.42-.31-1-.39-1.4.19.54.28,1.1.48,1.63Z"/><path class="cls-4" d="M17.09,45l0-.23a4.85,4.85,0,0,1,1-2.15.64.64,0,0,1,0,.2,7.64,7.64,0,0,1-.53.86A4.26,4.26,0,0,0,17.09,45Z"/><path class="cls-4" d="M18.07,58.14a1.36,1.36,0,0,0,0,.17l-.3-.83-.06-.22.31.85v0Z"/><path class="cls-4" d="M49.23,81.88h0Z"/><path class="cls-4" d="M38.51,80.05,38.3,80l-.85-.34,1.06.41Z"/><path class="cls-4" d="M49,81.88h.19c-.67,0-.85,0-1.58,0h-.22c.69,0,.84,0,1.59,0Z"/><path class="cls-4" d="M21,65.37c-.07-.14-.15-.28-.23-.42a26,26,0,0,1-2.17-5.24l0,.07c.27.62.52,1.5.74,2.15A27.7,27.7,0,0,0,21,65.37Z"/><path class="cls-4" d="M36.69,79.32l.15.07c-.35-.14-.82-.33-1.17-.49l-.2-.1c.36.16.83.37,1.19.51Z"/><path class="cls-4" d="M28.76,74.57l-.19-.15a9.7,9.7,0,0,1-2.36-2.74.86.86,0,0,1,.14.13,7.67,7.67,0,0,1,.58.9,9.89,9.89,0,0,0,1.83,1.86Z"/><path class="cls-4" d="M48.44,17h0Z"/><path class="cls-4" d="M42.29,17.69l.26-.05A32.74,32.74,0,0,1,48.11,17a34.33,34.33,0,0,0-5.82.73Z"/><path class="cls-4" d="M35.7,19.91l.19-.09a13.07,13.07,0,0,1,2.85-.65l-.17.08a4.35,4.35,0,0,1-.63.1,13.23,13.23,0,0,0-2.24.56Z"/><path class="cls-4" d="M25.73,27.06l.18-.19c1.58-1.5,4.85-4.61,12.27-7.42a15.81,15.81,0,0,1-1.8.74,43.31,43.31,0,0,0-5,2.49,25.84,25.84,0,0,0-5.69,4.38Z"/><path class="cls-4" d="M39.75,18.79a.24.24,0,0,0-.09,0A21.24,21.24,0,0,1,47.73,17h.13a22.12,22.12,0,0,0-8.1,1.81Z"/><path class="cls-4" d="M39.17,19.18c.18-.08.26-.12,5.53-.34,0,0,0,.06-.06.06-1.83.12-3.65.17-5.47.28Z"/><path class="cls-4" d="M48.07,81.86h0A32.94,32.94,0,0,1,38.4,80l0,0a32.38,32.38,0,0,0,9.71,1.91Z"/><path class="cls-4" d="M36.17,79.06a28.34,28.34,0,0,1-9.41-6.93,7.93,7.93,0,0,1,1.67,1.7,28.45,28.45,0,0,0,7.74,5.23Z"/><path class="cls-4" d="M37.22,79.49c-.23-.09-.27-.11-.37-.24a.61.61,0,0,1-.07-.35c0-.19.35-.38.6-.54l.16.09c-.37.23-.52.33-.58.55s.08.33.26.49Z"/><path class="cls-4" d="M18,57.47a31.08,31.08,0,0,1,0-14,32.91,32.91,0,0,0,0,14Z"/><path class="cls-4" d="M18.82,41.29S20.3,36.05,27.33,29v.07c-3.37,3.53-6.13,6.67-8.52,12.23Z"/><path class="cls-4" d="M28.09,43.81l0,.15a65.37,65.37,0,0,1-9.4-1.45,1.6,1.6,0,0,0,.05-.21h0a61.09,61.09,0,0,0,9.38,1.49v0Z"/><path class="cls-4" d="M36.76,77.89l0,0a50.48,50.48,0,0,1-10-6l-.08-.12a50.55,50.55,0,0,0,10,6.06Z"/><path class="cls-4" d="M36.68,71.5a.54.54,0,0,0,0,.11c-4,0-10.29-.24-10.34-.24l-.14-.16c1.08.05,2.88.14,10.42.28Z"/><path class="cls-4" d="M25.22,70.36a32.62,32.62,0,0,1-6.49-10.52v-.06a33.85,33.85,0,0,0,6.49,10.58Z"/><path class="cls-4" d="M26,70.88S23,67.16,31.78,60l.08.13C28.63,63,24.6,66.69,26,70.88Z"/><path class="cls-4" d="M18.32,58.13c0-.05-1.6-5.14,9.76-13.59l0,.14c-4.08,3.25-9.67,7.71-9.79,13.45Z"/><path class="cls-4" d="M31.58,59.34a.68.68,0,0,1,0,.14C27,59.43,20,59,18.52,58.79l-.06-.21c1.22.18,3.24.39,13.12.75Z"/><path class="cls-4" d="M74.44,69.9a2.39,2.39,0,0,0,.36-2.49l.12-.17a2.36,2.36,0,0,1-.35,2.49l-.13.17Z"/><polygon class="cls-4" points="49.27 81.88 49.26 81.88 49.24 81.88 49.27 81.88 49.27 81.88"/><path class="cls-4" d="M48.43,81.87C42,81.69,39.32,79.67,38,78.7l.1,0a11.45,11.45,0,0,1,1.06.77,9.54,9.54,0,0,0,2.53,1.22,21.76,21.76,0,0,0,6.71,1.13Z"/><path class="cls-4" d="M49.36,81.88A36.47,36.47,0,0,0,54,81.37a39.11,39.11,0,0,1-4.61.51Z"/><path class="cls-4" d="M28.66,42.87l-.12.1c-1-3.3-2.53-8.29-.73-13.9L28,29c-1.11,4-1.35,7.56.73,13.87Z"/><path class="cls-4" d="M28.91,27.29h-.06A27.17,27.17,0,0,1,38,19.64h0a27.27,27.27,0,0,0-9.1,7.65Z"/><path class="cls-4" d="M37.7,26.68l-.11.09c-.9-1.63-2.58-4.65.87-7.28l.15-.06c-1.29,1.08-3.44,2.88-.9,7.24Z"/><path class="cls-4" d="M28.68,28.23l.08-.12c1.23-.17,2.38-.33,8.46-.83l-.07.16c-4.62.37-6.13.53-8.47.79Z"/><path class="cls-4" d="M37.41,78s-2-1.46-.27-5.82l.14.11c-.78,2.11-1.16,3.55.13,5.71Z"/><path class="cls-4" d="M48.94,81.88H49c-2.33-.19-4.89-.57-10.42-3.1l0,0c3.31,1.5,6.59,2.87,10.39,3.15Z"/><path class="cls-4" d="M47.56,81.43l0,0c-4.67-1.27-7.17-2.14-9.18-2.85l-.1-.08c2,.7,4.47,1.58,9.23,2.9Z"/><path class="cls-4" d="M32.2,58.26l-.08,0a53.28,53.28,0,0,1-3.09-13l.16,0a57.71,57.71,0,0,0,3,13Z"/><path class="cls-4" d="M29.51,42.82l-.15-.07a65.87,65.87,0,0,1,8-14.6l.06,0a69.94,69.94,0,0,0-7.87,14.64Z"/><path class="cls-4" d="M47.16,46.73l-.1.05c-7.61-11.41-8.63-16.68-9-18.66L38.2,28c1,4.66,2.48,8.28,9,18.68Z"/><path class="cls-4" d="M46.5,47.57a1.36,1.36,0,0,0,0,.2c-5.64-1.06-11.15-2.11-16.59-3.44a1.6,1.6,0,0,0,.05-.21c2.86.68,6.77,1.61,16.57,3.43v0Z"/><path class="cls-4" d="M38.63,26.44l-.08,0a35.05,35.05,0,0,1,6-7.11h0a36,36,0,0,0-5.92,7.13Z"/><path class="cls-4" d="M38.87,27.16l0-.14c4.16-.94,8.34-1.79,12.5-2.72a.69.69,0,0,0,.05.13c-4.2.92-8.4,1.78-12.59,2.73Z"/><path class="cls-4" d="M33.38,58.86a1,1,0,0,0-.09-.13c1.57-1.46,4.5-4.16,13.33-10.18a.75.75,0,0,0,.09.15c-10.47,7.55-10.47,7.55-13.33,10.16Z"/><path class="cls-4" d="M47.52,81.33c-1.05-.59-4.22-2.38-9.41-8.88l.1,0c1.55,1.91,5.68,7,9.31,8.93Z"/><path class="cls-4" d="M37,70.65H37a48.53,48.53,0,0,1-4.14-10l.16,0a54.09,54.09,0,0,0,4.06,10Z"/><path class="cls-4" d="M48.73,60.88a.31.31,0,0,1,0,.09c-1.21-.06-4.9-.26-15.1-1.3,0-.13,0-.13,0-.2,3.84.39,7.17.71,15.14,1.38v0Z"/><path class="cls-4" d="M48.16,75.14s0,0,0,.06c-.79-.24-3.18-1-9.73-3.24a.89.89,0,0,0,0-.14c1.21.42,1.21.42,9.78,3.3v0Z"/><path class="cls-4" d="M49,74.69H48.9c.1-2.11.17-3.63.87-12.47H50c-.46,5.62-.73,9-.94,12.47Z"/><path class="cls-4" d="M38,71.09l-.1-.09c1.56-1.93,3.7-4.24,11-9.32l.09.12c-5.59,4.09-8.39,6.14-11,9.29Z"/><path class="cls-4" d="M51.47,23.72a.59.59,0,0,1,0,.08c-4-2.29-5.37-3.29-6.3-4.66l.1-.06c1,1.44,2.3,2.33,6.25,4.63Z"/><path class="cls-4" d="M48.73,16.94h0Z"/><path class="cls-4" d="M44.9,18.7l-.07.05c-.44-.34-1.58-1.22,1.52-1.65.72-.09,1.5-.13,2-.15h.21c-3.49.14-4.78.67-3.83,1.57.06.06.16.12.22.17Z"/><path class="cls-4" d="M45.58,18.73s0,0,0-.05c.29-.11.69-.22,1-.31,2.53-.8,3.22-1.05,3.29-1.32a.92.92,0,0,0-.32-.1c.27,0,.29,0,.38.14-.17.26-.59.47-4.38,1.64Z"/><polygon class="cls-4" points="49.27 81.88 49.27 81.88 49.28 81.88 49.27 81.88 49.27 81.88"/><path class="cls-4" d="M49.23,81.88c-.19,0-.68,0-.68,0a2.05,2.05,0,0,1-.6-.22,2.53,2.53,0,0,0,.33.16,6,6,0,0,0,.95.1Z"/><path class="cls-4" d="M68.93,23.59l0,0-.2-.15a1.09,1.09,0,0,1,.17.13Z"/><path class="cls-4" d="M49.83,16.94h0Z"/><path class="cls-4" d="M47.74,81.36s-1.55-.63.78-5.29l.12.05c-.82,1.71-1.94,4.06-.9,5.24Z"/><path class="cls-4" d="M49.37,81.88H49.3a.9.9,0,0,0,.23,0v0a9.09,9.09,0,0,0-1.33-.25l0,0c1.26.2,1.38.24,1.43.29a.69.69,0,0,1-.2,0Z"/><path class="cls-4" d="M52.42,23.49l-.13,0c.33-2.09.94-6-2.4-6.47,1.67.17,3.47,1.44,2.53,6.51Z"/><path class="cls-4" d="M49.74,81.87A13.26,13.26,0,0,0,54,80.59v0a13.39,13.39,0,0,1-4.21,1.26Z"/><path class="cls-4" d="M49.69,81.87h0c2-.4,2.6-1.47-.35-5.78l.11-.07c2.22,3.33,3,5.36.28,5.85Z"/><path class="cls-4" d="M49.67,75.16l0-.09c1.55-.76,1.55-.76,7.86-3.62a.34.34,0,0,0,0,.1c-2.6,1.23-5.23,2.39-7.83,3.61Z"/><path class="cls-4" d="M54.72,80l-.09,0c-.28-.94-.85-1.91-5.05-4.21a.6.6,0,0,0,.06-.11c2.56,1.44,4.88,2.85,5.09,4.26Z"/><path class="cls-4" d="M48.19,46.63l-.22,0C50.79,34,51.74,29.78,52.09,25l.11,0c-.32,5-1,8.19-4,21.65Z"/><path class="cls-4" d="M78.41,63.73a9,9,0,0,1-3.19,3,.7.7,0,0,1,.09-.17,8,8,0,0,1,1-.71,7.82,7.82,0,0,0,2.18-2.33l-.09.2Z"/><path class="cls-4" d="M48.79,47l-.12-.12c9-10,9-10,11.57-13.91a.94.94,0,0,0,.12.09C58,36.85,55.61,39.71,48.79,47Z"/><path class="cls-4" d="M58.06,70.37l-.1.08A53.56,53.56,0,0,0,50.75,62a.93.93,0,0,0,.15-.13,52,52,0,0,1,7.18,8.52Z"/><path class="cls-4" d="M67.41,62.64a.94.94,0,0,1,0,.09c-5.41-.38-10.79-1-16.2-1.48a1.11,1.11,0,0,0,0-.19c6.63.57,11.18,1,16.22,1.56v0Z"/><path class="cls-4" d="M49.86,59.87l-.16,0c-.91-5.1-1.72-10.11-1.81-10.67l.22,0c.59,3.56,1.19,7.12,1.77,10.68Z"/><path class="cls-4" d="M68.25,49.06v.12c-6.39-.2-12.76-.75-19.13-1.1,0-.15,0-.15,0-.22,8.94.5,13.41.77,19.12,1.18v0Z"/><path class="cls-4" d="M51.11,60.55a1,1,0,0,0-.09-.18c7.74-4.23,12.54-7,17.31-10.57a1.67,1.67,0,0,0,.08.2c-4.35,3.15-7.88,5.42-17.3,10.55Z"/><path class="cls-4" d="M60,31.37a.35.35,0,0,0-.08.1c-2.35-2.22-4.74-4.41-7.1-6.62l.09-.09c2.37,2.2,4.75,4.38,7.1,6.6Z"/><path class="cls-4" d="M52.63,23.61a.5.5,0,0,0-.12-.08c1.18-2.25,2-4.09.41-5.63a2.26,2.26,0,0,1,1,2.06,8,8,0,0,1-1.25,3.65Z"/><path class="cls-4" d="M53,24.13l0-.1c6.8-1.32,6.8-1.32,8.32-1.75l.09.09A60.87,60.87,0,0,1,53,24.13Z"/><path class="cls-4" d="M71.63,29.19h-.08c-3.48-4.82-6.8-8.12-13.47-10.73A27.13,27.13,0,0,1,71.63,29.19Z"/><path class="cls-4" d="M72.3,29.67s-.1-.07-.13-.13a3.23,3.23,0,0,1-.1-1.08c-.08-.91-.61-2.42-2.65-4.41a7.55,7.55,0,0,1,2.88,5.62Z"/><path class="cls-4" d="M61.64,21.82a.75.75,0,0,1-.15-.09c-.22-.18-.31-.58-.44-.83-.65-1.25-2.57-2.15-3.49-2.59a10.33,10.33,0,0,1,2.23,1.2,5.3,5.3,0,0,1,1.85,2.31Z"/><path class="cls-4" d="M60.83,21.66v0a53.72,53.72,0,0,0-7.51-3.76l0,0a51.13,51.13,0,0,1,7.54,3.75Z"/><path class="cls-4" d="M68.56,61.65h0l-.13,0a49.3,49.3,0,0,0,.8-11.11h0a.44.44,0,0,0,.16,0,48.09,48.09,0,0,1-.83,11.11Z"/><path class="cls-4" d="M56.46,18l.13,0A60.38,60.38,0,0,0,49.69,17H49.6a55.79,55.79,0,0,1,6.84,1Z"/><path class="cls-4" d="M52,17.45h0c-.61-.17-1.43-.37-2.06-.48h0c.63.11,1.47.3,2.08.47Z"/><path class="cls-4" d="M56.71,18l.16.05c-.72-.08-1.61-.17-3.88-.36l-.11-.05c.94.08,2.52.21,3.81.36Z"/><path class="cls-4" d="M71.39,29.35v0a69.17,69.17,0,0,0-8.78-6.59.17.17,0,0,1,0-.07,64.85,64.85,0,0,1,8.79,6.6Z"/><path class="cls-4" d="M61.24,31.45a.83.83,0,0,0-.15-.11c.86-2.27,2-5.37.81-8.59,0,0,1.87,2.55-.66,8.7Z"/><path class="cls-4" d="M70.2,49.15a.82.82,0,0,0,0-.22c3.23-.64,4-.81,6.27-1.4,0,.09,0,.12,0,.22-2.29.58-3,.76-6.27,1.4Z"/><path class="cls-4" d="M68.89,48l-.08,0a77,77,0,0,0-7.44-14.75l.13-.07A73.14,73.14,0,0,1,68.91,48Z"/><path class="cls-4" d="M61.74,32.19l0-.14c8.45-1.43,8.45-1.43,10-1.85a1.63,1.63,0,0,1,.11.17,88.55,88.55,0,0,1-10.11,1.82Z"/><path class="cls-4" d="M69.84,48.17l-.14-.12c2.74-6.36,4.06-11.19,2.71-17.08,0,0,2.81,5-2.57,17.2Z"/><path class="cls-4" d="M55.19,79.85h0C56.33,78.57,58,76.8,58.3,72l.15,0c-.26,2.21-.64,5.55-3.25,7.91Z"/><path class="cls-4" d="M59.31,70.48a.35.35,0,0,1-.05-.08c5.33-4.36,5.53-4.53,8.08-6.84a.47.47,0,0,0,0,.1c-2,1.85-3.33,3.07-8.08,6.82Z"/><path class="cls-4" d="M67.21,75l-.11.1c-.68-.72-1.69-1.79-8-3.67a.71.71,0,0,0,.08-.15c2.41.74,6.9,2.12,8,3.71Z"/><path class="cls-4" d="M54.55,81.24l-.15,0c.15-.07.39-.16.44-.31s.1-.27-.11-.56l.12-.06c.08.11.24.28.2.41s-.1.27-.48.48Z"/><path class="cls-4" d="M55.25,80.09a4.57,4.57,0,0,1,1.38-.51,82.92,82.92,0,0,0,10-4.07s-2.93,1.77-11.34,4.58Z"/><path class="cls-4" d="M68.2,74.44l0,0A35.71,35.71,0,0,0,74,68h0a33.86,33.86,0,0,1-5.81,6.41Z"/><path class="cls-4" d="M67.75,74.59l-.1.06c1.85-3.08,2.53-5.74.84-10.93l.15-.12c1.3,4.21,1.54,7.2-.87,11Z"/><path class="cls-4" d="M67.46,22.52l.78.56-1.09-.76.31.2Z"/><path class="cls-4" d="M68.19,23.1l.1.07A37.76,37.76,0,0,0,58,18.37l-.11,0a37.1,37.1,0,0,1,10.3,4.76Z"/><path class="cls-4" d="M79.06,39.21s0,.07,0,.1A35,35,0,0,0,73,31a.34.34,0,0,0,0-.1,36,36,0,0,1,6,8.25v0Z"/><path class="cls-4" d="M77.11,46.16l-.08,0a35.14,35.14,0,0,0-4.26-15h.08a33.77,33.77,0,0,1,4.26,15Z"/><path class="cls-4" d="M69.07,61.92,69,61.81c3.12-4,5.68-7.56,7.73-13.33l.1.12c-1.21,3.2-2.58,6.83-7.74,13.32Z"/><path class="cls-4" d="M75.42,66l0,0a38.11,38.11,0,0,0,3.48-7l0,0a34.3,34.3,0,0,1-3.48,7Z"/><path class="cls-4" d="M74.53,66.65a.83.83,0,0,1-.08.12c-1.23-1.23-2.12-1.94-5.53-3.55L69,63c3,1.41,4.25,2.17,5.54,3.59l0,0Z"/><path class="cls-4" d="M69.15,62.6a1.37,1.37,0,0,0,0-.19,42.24,42.24,0,0,0,9.71-4.35l0,.15c-1.72,1.17-3.52,2.24-9.7,4.39Z"/><path class="cls-4" d="M77.6,46.75l-.07-.17a15.13,15.13,0,0,0,1.92-5.68s.42,1.42-1.85,5.85Z"/><path class="cls-4" d="M79.35,56.8a.47.47,0,0,0-.06.09,25.11,25.11,0,0,0-1.79-8.32.57.57,0,0,0,.08-.13,25.29,25.29,0,0,1,1.78,8.34v0Z"/><path class="cls-4" d="M55.36,81.08a34.22,34.22,0,0,0,10.93-5.2,33.64,33.64,0,0,1-10.93,5.2Z"/><path class="cls-4" d="M70.35,74.08a8,8,0,0,1-2.73,1.07.57.57,0,0,1,.14-.13,7.32,7.32,0,0,1,.8-.23,6.26,6.26,0,0,0,2-.84l-.16.13Z"/><path class="cls-4" d="M61.76,79.38c2.22-1,3.77-1.83,5.17-3.72l.16-.11c-.89,1.14-1.74,2.22-5.1,3.74l-.23.09Z"/><path class="cls-4" d="M70.38,24.76l-.57-.47-.11-.09.44.36.24.2Z"/><path class="cls-4" d="M79.28,39.09c-.58-.45-.55-1.63-.77-2.34-.62-2-2.7-7.17-8.61-12.34a28.85,28.85,0,0,1,9.38,14.68Z"/><path class="cls-4" d="M79.08,36.56a7.42,7.42,0,0,1,.55,3.15,1,1,0,0,1-.08-.18,9.66,9.66,0,0,1,0-1.21,7.72,7.72,0,0,0-.52-2l.09.22Z"/><path class="cls-4" d="M54.62,17.38A9.21,9.21,0,0,1,57,18c-.32-.09-.62-.25-.94-.34a15.93,15.93,0,0,0-1.64-.36l.22,0Z"/><path class="cls-4" d="M58.52,18.28a9.57,9.57,0,0,0-1.22-.14l-.19-.06a11.29,11.29,0,0,1,1.21.14l.2.06Z"/><path class="cls-4" d="M79.65,60.87a3.46,3.46,0,0,0-.17-2.53,1.07,1.07,0,0,0,.07-.19,3.53,3.53,0,0,1,.18,2.51,1.8,1.8,0,0,0-.08.21Z"/><path class="cls-4" d="M52.24,81.75a6.67,6.67,0,0,0,1.94-.37l.18,0a5,5,0,0,1-1.89.39l-.23,0Z"/><path class="cls-4" d="M59.48,80.24a32.63,32.63,0,0,1-4.87,1.05c1.69-.4,3.42-.61,5.08-1.12l-.21.07Z"/><path class="cls-4" d="M79.67,56.61c1-5.61,1.34-8.74.14-15.16a32.51,32.51,0,0,1-.14,15.16Z"/><path class="cls-4" d="M80.87,41.94a3,3,0,0,0-1-1.32c0-.07,0-.14,0-.2.73.76.76.79,1,1.31a1.6,1.6,0,0,0,.05.21Z"/><path class="cls-4" d="M81.72,50.35a15.86,15.86,0,0,1-2,6.74.85.85,0,0,1,0-.16,13.18,13.18,0,0,1,.78-1.66,15.14,15.14,0,0,0,1.18-5.21c0,.09,0,.19,0,.29Z"/><path class="cls-4" d="M18.48,58.67c.1.34.33,1.14.22,1.19A6.64,6.64,0,0,1,18,57.42a3.13,3.13,0,0,1,.5,1.25Z"/><path class="cls-4" d="M37.42,79.57c.33.14.67.24,1,.41A17.35,17.35,0,0,1,36.09,79h0l1.33.53Z"/><path class="cls-4" d="M18.71,42.3h0c-.24,1.13-.54,1.39-.63,1.22-.22-.4.29-2.42.62-2.46.08,0,.23.15,0,1.24Z"/><path class="cls-4" d="M49.27,81.88c-.7,0-1.22,0-1.23,0l1.23,0Z"/><path class="cls-4" d="M26.32,71.29c.56.64.66.88.56.89-.31,0-1.83-1.68-1.65-1.83h0c.16,0,.56.38,1.06,1Z"/><path class="cls-4" d="M48.82,16.94c-.51,0-.81,0-1.27,0,0,0,.68,0,1.72,0h-.45Z"/><path class="cls-4" d="M39.21,19.16a3.53,3.53,0,0,1-1.27.47A6.71,6.71,0,0,1,40,18.72h0v0a4.18,4.18,0,0,1-.83.42Z"/><path class="cls-4" d="M28.68,28.22c-.7,1-1.3,1.11-1.35.82s1-1.74,1.57-1.75c.31,0,.11.49-.22.93Z"/><path class="cls-4" d="M38.05,78.34c.65.44.57.51.5.52-.37,0-2-.94-1.85-1.12a.11.11,0,0,1,.08,0,3.47,3.47,0,0,1,1.27.63Z"/><path class="cls-4" d="M30,44c-.14,1.29-1.22,1.58-1.69,1s-.14-2.21.88-2.25c.48,0,.91.41.81,1.29Z"/><path class="cls-4" d="M33.6,59.46c.18,1.18-.8,1.47-1.45,1s-.82-2.06.13-2.17h.11a1.35,1.35,0,0,1,1.21,1.22Z"/><path class="cls-4" d="M49.27,81.88h0Z"/><path class="cls-4" d="M38.31,71.61c.3.72-.18,1-.78.77s-1.28-1.41-.71-1.67a.56.56,0,0,1,.26-.06,1.48,1.48,0,0,1,1.23,1Z"/><path class="cls-4" d="M38.77,27.42c-.45.89-1.46,1-1.65.51a1.45,1.45,0,0,1,1.3-1.53c.5,0,.64.43.35,1Z"/><path class="cls-4" d="M45.44,18.89c-.47.48-1,.51-1,.3s.68-.72,1.09-.73c.25,0,.12.23-.09.43Z"/><path class="cls-4" d="M48.11,81.54c.2.12.21.14.21.15s-.82-.23-.82-.33,0,0,.07,0a1.44,1.44,0,0,1,.54.22Z"/><path class="cls-4" d="M49.13,47.92a1.35,1.35,0,0,1-2.29.93,1.33,1.33,0,0,1,1-2.27,1.28,1.28,0,0,1,1.33,1.34Z"/><path class="cls-4" d="M49.71,75.49a.8.8,0,0,1-1.4.41.72.72,0,0,1,.59-1.22.74.74,0,0,1,.81.81Z"/><path class="cls-4" d="M51.2,61.06a1.27,1.27,0,0,1-2.19.78,1.2,1.2,0,0,1,1-2,1.14,1.14,0,0,1,1.22,1.2Z"/><path class="cls-4" d="M53,24.28c.09.76-.82.89-1.32.49A.74.74,0,0,1,52,23.42h.08a1,1,0,0,1,1,.86Z"/><path class="cls-4" d="M59.27,71.11c-.36.92-1.47,1.17-1.73.57a1.25,1.25,0,0,1,1.18-1.52c.67,0,.71.53.55,1Z"/><path class="cls-4" d="M49.47,16.94a2.64,2.64,0,0,1,.5,0H49.9l-.3,0h-.13Z"/><path class="cls-4" d="M49.27,81.88l.51,0s-.23,0-.51,0Z"/><path class="cls-4" d="M61.78,32.31c.2.92-.66,1.25-1.38.77s-.88-1.68-.1-1.88a.86.86,0,0,1,.21,0,1.39,1.39,0,0,1,1.27,1.13Z"/><path class="cls-4" d="M52.89,17.69c.36.15.48.26.41.29s-.13,0-.55-.14a4.56,4.56,0,0,1-.75-.4h0a3.7,3.7,0,0,1,.86.26Z"/><path class="cls-4" d="M55,80.27c-.49.28-1.07.46-1,.31a2.62,2.62,0,0,1,1.35-.74c.2,0,.06.15,0,.19a2.57,2.57,0,0,1-.35.24Z"/><path class="cls-4" d="M70.2,49.37c0,.7-.43,1.18-1,1.19h0c-1.14,0-1.22-1.88-.57-2.45a.81.81,0,0,1,.56-.21c.63,0,1,.63,1,1.47Z"/><path class="cls-4" d="M69.09,62.84c-.37,1.14-1.42,1.37-1.71.8a1.57,1.57,0,0,1,1.18-2h0c.54,0,.75.5.53,1.19Z"/><path class="cls-4" d="M62.27,22.31c.43.41.41.62.17.62-.53,0-1.83-1.09-1.59-1.33a.34.34,0,0,1,.12,0,2.55,2.55,0,0,1,1.3.75Z"/><path class="cls-4" d="M54.43,81.33c-.6.13-1.1.2-1.18.21s2-.48,2.13-.48h0a5,5,0,0,1-1,.27Z"/><path class="cls-4" d="M77.73,47.61c0,1-.48,1.41-.88,1-.57-.54-.59-2.47.17-2.51.41,0,.71.64.71,1.47Z"/><path class="cls-4" d="M72.76,30.29c.4.65.32,1,0,.88-.6-.15-1.67-1.75-1.31-2a.15.15,0,0,1,.09,0h0c.31,0,.84.49,1.21,1.11Z"/><path class="cls-4" d="M57.18,18.1a5.21,5.21,0,0,1,1,.34v0c-.16,0-2.16-.64-2.23-.68h0a12.11,12.11,0,0,1,1.28.32Z"/><path class="cls-4" d="M67.5,75.25c-.65.52-1.21.79-1.21.64a4.55,4.55,0,0,1,1.86-1.47c.15,0,0,.22-.32.54l-.33.29Z"/><path class="cls-4" d="M75.05,67c-.51.83-1,1.2-1.1.9s.89-2,1.37-2c.23,0,.13.46-.27,1.09Z"/><path class="cls-4" d="M79.63,57.88c-.26,1-.63,1.33-.76,1.12s.27-2.36.74-2.41c.21,0,.22.55,0,1.29Z"/><path class="cls-4" d="M79.81,40.26c.25.86.2,1.31,0,1.19-.42-.25-1-2.33-.66-2.42h0c.17,0,.44.52.64,1.23Z"/><path class="cls-4" d="M69.14,23.75a7,7,0,0,1,.83.7c-.08,0-1.94-1.47-2-1.52a12.29,12.29,0,0,1,1.14.82Z"/></g><circle class="cls-5" cx="33.85" cy="45.22" r="4.03"/><circle class="cls-6" cx="61.64" cy="32.96" r="4.03"/><circle class="cls-7" cx="52.81" cy="63.04" r="4.03"/></g></g></svg>