<svg id="Layer_1" data-name="Layer 1" xmlns="http://www.w3.org/2000/svg" viewBox="0 0 781.54 410.4"><defs><style>.cls-1{fill:#4b79a8;}.cls-1,.cls-2,.cls-3{opacity:0.75;}.cls-2{fill:#e35656;}.cls-3{fill:#f48520;}.cls-4{fill:#231f20;}.cls-5{fill:#72b7b2;opacity:0.8;}.cls-6{fill:none;stroke:#231f20;stroke-miterlimit:10;}</style></defs><circle class="cls-1" cx="236.48" cy="149.21" r="114.43"/><circle class="cls-2" cx="164.88" cy="271.92" r="114.43"/><circle class="cls-3" cx="308.08" cy="271.92" r="114.43"/><path class="cls-4" d="M328.62,364.51l-1.51,4.57h-1.94l4.94-14.53h2.26l5,14.53h-2l-1.55-4.57Zm4.76-1.47L332,358.86c-.32-.95-.54-1.81-.76-2.65h0c-.21.86-.45,1.74-.73,2.63L329,363Z" transform="translate(-21.65 -18.96)"/><path class="cls-4" d="M339.2,366.79a6.63,6.63,0,0,0,3.37.95c1.91,0,3-1,3-2.48s-.78-2.13-2.74-2.89c-2.37-.84-3.84-2.07-3.84-4.11,0-2.27,1.88-3.95,4.7-3.95a6.64,6.64,0,0,1,3.21.71l-.51,1.53a5.81,5.81,0,0,0-2.76-.69c-2,0-2.74,1.19-2.74,2.18,0,1.36.88,2,2.89,2.8,2.46,1,3.71,2.14,3.71,4.27s-1.67,4.19-5.09,4.19a7.47,7.47,0,0,1-3.71-.93Z" transform="translate(-21.65 -18.96)"/><path class="cls-4" d="M350.09,354.74a27.19,27.19,0,0,1,4-.3c2.69,0,4.61.62,5.89,1.81a6.71,6.71,0,0,1,2,5.22,7.69,7.69,0,0,1-2.09,5.65c-1.36,1.36-3.6,2.09-6.42,2.09a32.36,32.36,0,0,1-3.41-.17ZM352,367.59a11.29,11.29,0,0,0,1.89.11c4,0,6.19-2.24,6.19-6.17,0-3.43-1.92-5.6-5.88-5.6a10.46,10.46,0,0,0-2.2.19Z" transform="translate(-21.65 -18.96)"/><path class="cls-4" d="M157.8,361.66c0,5-3,7.66-6.75,7.66s-6.53-3-6.53-7.38c0-4.61,2.87-7.63,6.75-7.63S157.8,357.35,157.8,361.66Zm-11.27.24c0,3.1,1.68,5.89,4.63,5.89s4.66-2.74,4.66-6c0-2.89-1.51-5.91-4.64-5.91S146.53,358.71,146.53,361.9Z" transform="translate(-21.65 -18.96)"/><path class="cls-4" d="M170.39,368.6a9.18,9.18,0,0,1-3.83.7c-4.1,0-7.18-2.59-7.18-7.36a7.23,7.23,0,0,1,7.58-7.63,7.8,7.8,0,0,1,3.46.65l-.46,1.53a6.73,6.73,0,0,0-2.93-.61c-3.41,0-5.67,2.18-5.67,6,0,3.56,2,5.84,5.58,5.84a7.66,7.66,0,0,0,3.07-.6Z" transform="translate(-21.65 -18.96)"/><path class="cls-4" d="M172.74,354.74a27.3,27.3,0,0,1,4-.3c2.7,0,4.62.62,5.89,1.81a6.72,6.72,0,0,1,2,5.22,7.73,7.73,0,0,1-2.09,5.65c-1.36,1.36-3.61,2.09-6.43,2.09a32.36,32.36,0,0,1-3.41-.17Zm1.88,12.85a11.35,11.35,0,0,0,1.9.11c4,0,6.18-2.24,6.18-6.17,0-3.43-1.91-5.6-5.88-5.6a10.6,10.6,0,0,0-2.2.19Z" transform="translate(-21.65 -18.96)"/><path class="cls-4" d="M234.13,93.42,232.62,98h-1.94l4.94-14.54h2.26l5,14.54h-2l-1.55-4.57ZM238.9,92l-1.42-4.18c-.33-1-.54-1.81-.76-2.66h0c-.22.87-.46,1.75-.74,2.64L234.52,92Z" transform="translate(-21.65 -18.96)"/><path class="cls-4" d="M245,83.65a27.19,27.19,0,0,1,4-.3c2.69,0,4.61.62,5.88,1.81a6.67,6.67,0,0,1,2,5.22A7.65,7.65,0,0,1,254.81,96c-1.36,1.36-3.6,2.1-6.43,2.1a29.56,29.56,0,0,1-3.4-.18Zm1.87,12.85a12.7,12.7,0,0,0,1.9.11c4,0,6.19-2.25,6.19-6.17,0-3.43-1.92-5.61-5.89-5.61a10.47,10.47,0,0,0-2.2.2Z" transform="translate(-21.65 -18.96)"/><path class="cls-4" d="M261.21,83.45v6.08h7V83.45h1.9V98h-1.9V91.17h-7V98h-1.87V83.45Z" transform="translate(-21.65 -18.96)"/><path class="cls-4" d="M273.39,83.65a27.19,27.19,0,0,1,4-.3c2.7,0,4.61.62,5.89,1.81a6.7,6.7,0,0,1,2.05,5.22,7.65,7.65,0,0,1-2.1,5.64c-1.35,1.36-3.6,2.1-6.42,2.1a29.62,29.62,0,0,1-3.41-.18Zm1.88,12.85a12.53,12.53,0,0,0,1.9.11c4,0,6.18-2.25,6.18-6.17,0-3.43-1.92-5.61-5.88-5.61a10.39,10.39,0,0,0-2.2.2Z" transform="translate(-21.65 -18.96)"/><path class="cls-4" d="M257.69,239.43h-.05l-2.43,1.32-.37-1.45,3.06-1.64h1.62v14h-1.83Z" transform="translate(-21.65 -18.96)"/><path class="cls-4" d="M311.67,209.48v1.25l-6.1,12.76h-2l6.08-12.4v0h-6.85v-1.57Z" transform="translate(-21.65 -18.96)"/><path class="cls-4" d="M313.64,223.49v-1.16l1.48-1.45c3.58-3.41,5.2-5.22,5.22-7.33a2.5,2.5,0,0,0-2.78-2.74,4.74,4.74,0,0,0-3,1.19l-.61-1.34a6.15,6.15,0,0,1,4-1.42,3.94,3.94,0,0,1,4.29,4.07c0,2.59-1.88,4.68-4.83,7.53l-1.12,1v0h6.29v1.57Z" transform="translate(-21.65 -18.96)"/><path class="cls-4" d="M261.57,300.07a6.79,6.79,0,0,0-1.43.09,5.71,5.71,0,0,0-4.87,5h.07a4.18,4.18,0,0,1,3.38-1.62c2.48,0,4.23,1.79,4.23,4.53a4.69,4.69,0,0,1-4.66,4.94c-3,0-5-2.33-5-6a8.82,8.82,0,0,1,2.37-6.32,7.64,7.64,0,0,1,4.49-2.07,8.64,8.64,0,0,1,1.38-.11Zm-.54,8.09c0-2-1.14-3.21-2.89-3.21a3.14,3.14,0,0,0-2.72,1.72,1.63,1.63,0,0,0-.21.84c0,2.31,1.1,4,3.08,4C259.93,311.52,261,310.16,261,308.16Z" transform="translate(-21.65 -18.96)"/><path class="cls-4" d="M185.11,221.31a6.29,6.29,0,0,0,3.11.89c2.43,0,3.19-1.56,3.17-2.72,0-2-1.79-2.8-3.63-2.8h-1v-1.43h1c1.38,0,3.13-.71,3.13-2.37,0-1.12-.71-2.11-2.46-2.11a5.06,5.06,0,0,0-2.8.93l-.5-1.38a6.69,6.69,0,0,1,3.67-1.08c2.76,0,4,1.64,4,3.34a3.49,3.49,0,0,1-2.59,3.3v0a3.65,3.65,0,0,1,3.13,3.6c0,2.25-1.75,4.21-5.11,4.21a7.16,7.16,0,0,1-3.65-.95Z" transform="translate(-21.65 -18.96)"/><path class="cls-4" d="M195.72,223.49v-1.16l1.49-1.45c3.58-3.41,5.19-5.22,5.21-7.33a2.5,2.5,0,0,0-2.78-2.74,4.74,4.74,0,0,0-3,1.19l-.61-1.34a6.15,6.15,0,0,1,4-1.42,3.94,3.94,0,0,1,4.29,4.07c0,2.59-1.87,4.68-4.83,7.53l-1.12,1v0h6.3v1.57Z" transform="translate(-21.65 -18.96)"/><path class="cls-4" d="M348.36,300.07a6.7,6.7,0,0,0-1.42.09,5.68,5.68,0,0,0-4.87,5h.06a4.19,4.19,0,0,1,3.39-1.62c2.48,0,4.22,1.79,4.22,4.53a4.68,4.68,0,0,1-4.65,4.94c-3,0-5-2.33-5-6a8.82,8.82,0,0,1,2.37-6.32,7.64,7.64,0,0,1,4.48-2.07,8.72,8.72,0,0,1,1.38-.11Zm-.54,8.09c0-2-1.14-3.21-2.89-3.21a3.11,3.11,0,0,0-2.71,1.72,1.63,1.63,0,0,0-.22.84c.05,2.31,1.1,4,3.09,4C346.72,311.52,347.82,310.16,347.82,308.16Z" transform="translate(-21.65 -18.96)"/><path class="cls-4" d="M359.79,300.33h-5.35l-.54,3.6a8.23,8.23,0,0,1,1.15-.08,5.88,5.88,0,0,1,3,.75,4,4,0,0,1,2,3.6c0,2.74-2.18,4.79-5.22,4.79a6.87,6.87,0,0,1-3.49-.86l.47-1.45a6.23,6.23,0,0,0,3,.78,3.1,3.1,0,0,0,3.32-3c0-1.81-1.23-3.11-4-3.11a15.19,15.19,0,0,0-1.94.15l.9-6.72h6.71Z" transform="translate(-21.65 -18.96)"/><path class="cls-4" d="M370.48,300.07a6.7,6.7,0,0,0-1.42.09,5.68,5.68,0,0,0-4.87,5h.06a4.19,4.19,0,0,1,3.39-1.62c2.48,0,4.22,1.79,4.22,4.53a4.68,4.68,0,0,1-4.65,4.94c-3,0-5-2.33-5-6a8.82,8.82,0,0,1,2.37-6.32,7.64,7.64,0,0,1,4.48-2.07,8.72,8.72,0,0,1,1.38-.11Zm-.54,8.09c0-2-1.14-3.21-2.89-3.21a3.12,3.12,0,0,0-2.71,1.72,1.63,1.63,0,0,0-.22.84c.05,2.31,1.1,4,3.09,4C368.84,311.52,369.94,310.16,369.94,308.16Z" transform="translate(-21.65 -18.96)"/><path class="cls-4" d="M139.11,300.51h0l-2.44,1.31-.36-1.44,3.06-1.64h1.61v14h-1.83Z" transform="translate(-21.65 -18.96)"/><path class="cls-4" d="M146.05,312.75v-1.16l1.49-1.45c3.58-3.4,5.2-5.21,5.22-7.33a2.5,2.5,0,0,0-2.78-2.74,4.8,4.8,0,0,0-3,1.19l-.6-1.34a6.15,6.15,0,0,1,4-1.42,4,4,0,0,1,4.29,4.07c0,2.59-1.88,4.68-4.83,7.53l-1.12,1v.05H155v1.57Z" transform="translate(-21.65 -18.96)"/><path class="cls-4" d="M165.11,300.07a6.7,6.7,0,0,0-1.42.09,5.68,5.68,0,0,0-4.87,5h.06a4.19,4.19,0,0,1,3.39-1.62c2.48,0,4.22,1.79,4.22,4.53a4.68,4.68,0,0,1-4.65,4.94c-3,0-5-2.33-5-6a8.82,8.82,0,0,1,2.37-6.32,7.64,7.64,0,0,1,4.48-2.07,8.72,8.72,0,0,1,1.38-.11Zm-.54,8.09c0-2-1.14-3.21-2.89-3.21a3.12,3.12,0,0,0-2.71,1.72,1.63,1.63,0,0,0-.22.84c.05,2.31,1.1,4,3.09,4C163.47,311.52,164.57,310.16,164.57,308.16Z" transform="translate(-21.65 -18.96)"/><path class="cls-4" d="M248.37,147.31V143.5h-6.51v-1.25l6.25-8.95h2V142h2v1.49h-2v3.81Zm0-5.3v-4.68c0-.73,0-1.46.07-2.2h-.07c-.43.82-.77,1.43-1.16,2.07L243.78,142v0Z" transform="translate(-21.65 -18.96)"/><path class="cls-4" d="M262.88,140.16c0,4.76-1.77,7.39-4.87,7.39-2.74,0-4.59-2.56-4.64-7.2s2-7.29,4.88-7.29S262.88,135.69,262.88,140.16Zm-7.61.21c0,3.65,1.12,5.72,2.85,5.72,1.94,0,2.86-2.27,2.86-5.85s-.88-5.71-2.84-5.71C256.48,134.53,255.27,136.56,255.27,140.37Z" transform="translate(-21.65 -18.96)"/><path class="cls-4" d="M265.73,146a7.81,7.81,0,0,0,1.53-.07,5.3,5.3,0,0,0,2.93-1.35,6.17,6.17,0,0,0,1.86-3.73H272a4.14,4.14,0,0,1-3.3,1.5,4.06,4.06,0,0,1-4.14-4.29,4.81,4.81,0,0,1,4.79-5c2.87,0,4.63,2.33,4.63,5.91a8.87,8.87,0,0,1-2.41,6.58,7,7,0,0,1-4.08,1.87,8.76,8.76,0,0,1-1.74.11Zm.69-8.07a2.69,2.69,0,0,0,2.69,3,3.14,3.14,0,0,0,2.76-1.47,1.21,1.21,0,0,0,.18-.69c0-2.39-.89-4.22-2.87-4.22C267.56,134.51,266.42,135.93,266.42,137.91Z" transform="translate(-21.65 -18.96)"/><rect class="cls-5" x="495.75" y="149.81" width="163.76" height="163.76" rx="23.83"/><path class="cls-4" d="M591.15,205.14h-4.42v-1.6h10.76v1.6h-4.44v12.93h-1.9Z" transform="translate(-21.65 -18.96)"/><path class="cls-4" d="M599.11,203.73a27.19,27.19,0,0,1,4-.3c2.69,0,4.61.63,5.88,1.81a6.68,6.68,0,0,1,2,5.22,7.69,7.69,0,0,1-2.09,5.65c-1.36,1.36-3.6,2.09-6.42,2.09a29.87,29.87,0,0,1-3.41-.17ZM601,216.58a11.49,11.49,0,0,0,1.9.11c4,0,6.19-2.24,6.19-6.16,0-3.43-1.92-5.61-5.89-5.61a11.35,11.35,0,0,0-2.2.19Z" transform="translate(-21.65 -18.96)"/><path class="cls-4" d="M583.66,267.39v-1.17l1.49-1.44c3.58-3.41,5.2-5.22,5.22-7.33a2.5,2.5,0,0,0-2.78-2.74,4.77,4.77,0,0,0-3,1.18l-.6-1.33a6.14,6.14,0,0,1,4-1.43,3.94,3.94,0,0,1,4.29,4.08c0,2.59-1.87,4.68-4.83,7.52l-1.12,1v0h6.3v1.58Z" transform="translate(-21.65 -18.96)"/><path class="cls-4" d="M594.72,267.39v-1.17l1.49-1.44c3.58-3.41,5.19-5.22,5.22-7.33a2.5,2.5,0,0,0-2.78-2.74,4.77,4.77,0,0,0-3,1.18l-.6-1.33a6.14,6.14,0,0,1,4-1.43,3.94,3.94,0,0,1,4.29,4.08c0,2.59-1.87,4.68-4.83,7.52l-1.12,1v0h6.3v1.58Z" transform="translate(-21.65 -18.96)"/><path class="cls-4" d="M606.88,266.05a7.78,7.78,0,0,0,1.53-.07,5.27,5.27,0,0,0,2.93-1.35,6.14,6.14,0,0,0,1.86-3.73h-.07a4.21,4.21,0,0,1-7.44-2.79,4.81,4.81,0,0,1,4.79-5c2.87,0,4.64,2.33,4.64,5.91a8.86,8.86,0,0,1-2.42,6.58,7,7,0,0,1-4.07,1.87,8.86,8.86,0,0,1-1.75.11Zm.69-8.06a2.7,2.7,0,0,0,2.7,3,3.13,3.13,0,0,0,2.76-1.47,1.28,1.28,0,0,0,.17-.68c0-2.4-.89-4.23-2.87-4.23C608.71,254.58,607.57,256,607.57,258Z" transform="translate(-21.65 -18.96)"/><rect class="cls-6" x="0.5" y="0.5" width="780.54" height="409.4"/><path class="cls-4" d="M702.72,51.46a6.72,6.72,0,0,0,3.37.94c1.91,0,3-1,3-2.48s-.78-2.13-2.74-2.88c-2.37-.85-3.84-2.07-3.84-4.12,0-2.27,1.88-4,4.7-4a6.64,6.64,0,0,1,3.21.71l-.52,1.53a5.85,5.85,0,0,0-2.75-.69c-2,0-2.74,1.19-2.74,2.18,0,1.36.88,2,2.89,2.8,2.45,1,3.7,2.14,3.7,4.27S709.38,54,706,54a7.47,7.47,0,0,1-3.71-.93Z" transform="translate(-21.65 -18.96)"/><path class="cls-4" d="M717.4,46.47V45.18h11.13v1.29Zm0,4.23V49.41h11.13V50.7Z" transform="translate(-21.65 -18.96)"/><path class="cls-4" d="M739.05,41.49h0l-2.44,1.32-.37-1.45,3.07-1.63h1.61v14h-1.83Z" transform="translate(-21.65 -18.96)"/><path class="cls-4" d="M754.36,41.32H749l-.54,3.6a8.07,8.07,0,0,1,1.14-.08,5.89,5.89,0,0,1,3,.75,4,4,0,0,1,2,3.6c0,2.74-2.18,4.79-5.22,4.79a6.87,6.87,0,0,1-3.49-.86l.47-1.45a6.23,6.23,0,0,0,3,.78,3.1,3.1,0,0,0,3.32-3c0-1.81-1.23-3.11-4-3.11a15.19,15.19,0,0,0-1.94.15l.9-6.72h6.71Z" transform="translate(-21.65 -18.96)"/><path class="cls-4" d="M757.5,51.56a6.29,6.29,0,0,0,3.11.89c2.44,0,3.19-1.56,3.17-2.72,0-2-1.79-2.8-3.62-2.8H759.1V45.5h1.06c1.38,0,3.12-.71,3.12-2.37,0-1.12-.71-2.11-2.46-2.11A5.17,5.17,0,0,0,758,42l-.49-1.38a6.62,6.62,0,0,1,3.66-1.08c2.76,0,4,1.64,4,3.34a3.48,3.48,0,0,1-2.59,3.3v0a3.65,3.65,0,0,1,3.13,3.6C765.74,52,764,54,760.63,54A7.15,7.15,0,0,1,757,53Z" transform="translate(-21.65 -18.96)"/><path class="cls-4" d="M772.23,41.49h0l-2.44,1.32-.37-1.45,3.06-1.63h1.62v14h-1.83Z" transform="translate(-21.65 -18.96)"/></svg>