<svg xmlns="http://www.w3.org/2000/svg" viewBox="0 0 98.82 98.82"><defs><style>.cls-1{fill:#66c8c9;}.cls-2{fill:#035b83;}.cls-3{fill:#353049;}.cls-4{fill:#f37666;}.cls-5{fill:#fff;}.cls-6{fill:#fdb816;}</style></defs><g id="Layer_2" data-name="Layer 2"><g id="Layer_1-2" data-name="Layer 1"><circle class="cls-1" cx="49.41" cy="49.41" r="49.41"/><path class="cls-2" d="M88.86,65.81c2,1.83,1.42,3.33-1.29,3.33H25.12c-2.72,0-3.31-1.5-1.3-3.33l3.56-3.25A14.73,14.73,0,0,1,36,59.22H76.72a14.72,14.72,0,0,1,8.58,3.34Z"/><path class="cls-3" d="M83.81,58.94a2.48,2.48,0,0,1-2.47,2.47h-50a2.48,2.48,0,0,1-2.48-2.47V30a2.48,2.48,0,0,1,2.48-2.46h50A2.47,2.47,0,0,1,83.81,30Z"/><path class="cls-2" d="M83.81,58.94a2.48,2.48,0,0,1-2.47,2.47h-50a2.48,2.48,0,0,1-2.48-2.47V30a2.48,2.48,0,0,1,2.48-2.46h50A2.47,2.47,0,0,1,83.81,30Z"/><path class="cls-4" d="M81.83,57.72a1.48,1.48,0,0,1-1.48,1.48h-48a1.48,1.48,0,0,1-1.48-1.48V31.21a1.5,1.5,0,0,1,1.48-1.49h48a1.5,1.5,0,0,1,1.48,1.49Z"/><path class="cls-5" d="M34.74,34.41A1.29,1.29,0,0,1,36.15,33H37.4a1.21,1.21,0,0,1,1.34,1.36v2.86a1.22,1.22,0,0,1-1.35,1.36H36.14a1.24,1.24,0,0,1-1.4-1.36Zm1.64,3.19h.74c.36,0,.56-.13.56-.55V34.53c0-.35-.16-.54-.52-.54h-.8a.5.5,0,0,0-.55.54v2.52A.5.5,0,0,0,36.38,37.6Z"/><path class="cls-5" d="M54.29,34.41A1.29,1.29,0,0,1,55.7,33H57a1.21,1.21,0,0,1,1.34,1.36v2.86a1.22,1.22,0,0,1-1.35,1.36H55.69a1.24,1.24,0,0,1-1.4-1.36Zm1.65,3.19h.73c.36,0,.56-.13.56-.55V34.53c0-.35-.16-.54-.52-.54h-.8a.5.5,0,0,0-.55.54v2.52C55.36,37.52,55.68,37.6,55.94,37.6Z"/><path class="cls-5" d="M41.26,43.3a1.28,1.28,0,0,1,1.4-1.4h1.25a1.21,1.21,0,0,1,1.35,1.36v2.86a1.22,1.22,0,0,1-1.35,1.36H42.66a1.24,1.24,0,0,1-1.4-1.36Zm1.64,3.2h.74c.36,0,.55-.13.55-.55V43.43c0-.35-.15-.54-.52-.54h-.8a.49.49,0,0,0-.54.54V46A.5.5,0,0,0,42.9,46.5Z"/><path class="cls-5" d="M41.26,52.2a1.28,1.28,0,0,1,1.4-1.4h1.25a1.21,1.21,0,0,1,1.35,1.36V55a1.22,1.22,0,0,1-1.35,1.36H42.66A1.25,1.25,0,0,1,41.26,55Zm1.64,3.2h.74c.36,0,.55-.14.55-.55V52.33c0-.35-.15-.55-.52-.55h-.8a.49.49,0,0,0-.54.55v2.52A.5.5,0,0,0,42.9,55.4Z"/><path class="cls-5" d="M34.74,52.2a1.29,1.29,0,0,1,1.41-1.4H37.4a1.21,1.21,0,0,1,1.34,1.36V55a1.22,1.22,0,0,1-1.35,1.36H36.14A1.25,1.25,0,0,1,34.74,55Zm1.64,3.2h.74c.36,0,.56-.14.56-.55V52.33c0-.35-.16-.55-.52-.55h-.8a.5.5,0,0,0-.55.55v2.52A.5.5,0,0,0,36.38,55.4Z"/><path class="cls-5" d="M60.81,34.41A1.29,1.29,0,0,1,62.21,33h1.25a1.21,1.21,0,0,1,1.35,1.36v2.86a1.22,1.22,0,0,1-1.35,1.36H62.21a1.24,1.24,0,0,1-1.4-1.36Zm1.64,3.19h.74c.36,0,.55-.13.55-.55V34.53c0-.35-.15-.54-.52-.54h-.8a.49.49,0,0,0-.54.54v2.52A.5.5,0,0,0,62.45,37.6Z"/><path class="cls-5" d="M67.33,34.41A1.29,1.29,0,0,1,68.73,33H70a1.21,1.21,0,0,1,1.35,1.36v2.86A1.22,1.22,0,0,1,70,38.58H68.73a1.24,1.24,0,0,1-1.4-1.36ZM69,37.6h.74c.36,0,.55-.13.55-.55V34.53c0-.35-.15-.54-.52-.54h-.8a.5.5,0,0,0-.55.54v2.52C68.39,37.52,68.71,37.6,69,37.6Z"/><path class="cls-5" d="M42.19,33.63,43.27,33h1.06v5.58H43.26V34.06l-1.07.27Z"/><path class="cls-5" d="M48.71,33.63,49.79,33h1.06v5.58H49.78V34.06l-1.07.27Z"/><path class="cls-5" d="M74.78,33.63,75.85,33h1.06v5.58H75.85V34.06l-1.07.27Z"/><path class="cls-5" d="M35.67,42.53l1.08-.63h1.06v5.58H36.75V43l-1.08.27Z"/><path class="cls-5" d="M48.71,51.43l1.08-.63h1.06v5.58H49.78V51.86l-1.07.27Z"/><path class="cls-5" d="M54.29,43.3a1.29,1.29,0,0,1,1.41-1.4H57a1.21,1.21,0,0,1,1.34,1.36v2.86a1.22,1.22,0,0,1-1.35,1.36H55.69a1.24,1.24,0,0,1-1.4-1.36Zm1.65,3.2h.73c.36,0,.56-.13.56-.55V43.43c0-.35-.16-.54-.52-.54h-.8a.5.5,0,0,0-.55.54V46A.51.51,0,0,0,55.94,46.5Z"/><path class="cls-5" d="M60.81,52.2a1.28,1.28,0,0,1,1.4-1.4h1.25a1.21,1.21,0,0,1,1.35,1.36V55a1.22,1.22,0,0,1-1.35,1.36H62.21A1.25,1.25,0,0,1,60.81,55Zm1.64,3.2h.74c.36,0,.55-.14.55-.55V52.33c0-.35-.15-.55-.52-.55h-.8a.49.49,0,0,0-.54.55v2.52A.5.5,0,0,0,62.45,55.4Z"/><path class="cls-5" d="M67.33,52.2a1.28,1.28,0,0,1,1.4-1.4H70a1.21,1.21,0,0,1,1.35,1.36V55A1.22,1.22,0,0,1,70,56.38H68.73A1.25,1.25,0,0,1,67.33,55ZM69,55.4h.74c.36,0,.55-.14.55-.55V52.33c0-.35-.15-.55-.52-.55h-.8a.5.5,0,0,0-.55.55v2.52A.51.51,0,0,0,69,55.4Z"/><path class="cls-5" d="M48.71,42.53l1.08-.63h1.06v5.58H49.78V43l-1.07.27Z"/><path class="cls-5" d="M61.74,42.53l1.08-.63h1.06v5.58H62.81V43l-1.07.27Z"/><path class="cls-5" d="M55.22,51.43l1.08-.63h1.06v5.58H56.3V51.86l-1.08.27Z"/><path class="cls-5" d="M73.84,43.3a1.29,1.29,0,0,1,1.41-1.4H76.5a1.22,1.22,0,0,1,1.35,1.36v2.86a1.22,1.22,0,0,1-1.36,1.36H75.24a1.25,1.25,0,0,1-1.4-1.36Zm1.65,3.2h.73c.36,0,.56-.13.56-.55V43.43c0-.35-.16-.54-.52-.54h-.8a.5.5,0,0,0-.55.54V46A.51.51,0,0,0,75.49,46.5Z"/><path class="cls-5" d="M74.78,51.43l1.07-.63h1.06v5.58H75.85V51.86l-1.07.27Z"/><path class="cls-5" d="M68.26,42.53l1.08-.63H70.4v5.58H69.33V43l-1.07.27Z"/><path class="cls-2" d="M20,56.68a2,2,0,0,1-2.77,0h0a2,2,0,0,1,0-2.78L21.07,50a2,2,0,0,1,2.77,0h0a2,2,0,0,1,0,2.77Z"/><path class="cls-2" d="M12.34,67.57a4.27,4.27,0,0,1-6-.26h0a4.28,4.28,0,0,1-.27-6L13,54.36a4.27,4.27,0,0,1,6,.26h0a4.27,4.27,0,0,1,.26,6Z"/><path class="cls-6" d="M46.21,41.1A14.83,14.83,0,1,0,31.39,55.93,14.81,14.81,0,0,0,46.21,41.1Z"/><path class="cls-4" d="M42.68,41.1A11.29,11.29,0,1,0,31.39,52.39,11.28,11.28,0,0,0,42.68,41.1Z"/><path class="cls-5" d="M34.27,41.83,35.7,41h1.4v7.38H35.69v-6l-1.42.36Z"/><path class="cls-5" d="M33,34.81a1.65,1.65,0,0,0,1.85,1.8h1.66a1.62,1.62,0,0,0,1.79-1.8v-2.6a12,12,0,0,0-1.41-.95v3.33c0,.54-.26.72-.74.72h-1a.68.68,0,0,1-.77-.73V31.25a.67.67,0,0,1,.73-.73h.14a12,12,0,0,0-2-.54,2.06,2.06,0,0,0-.28,1.1Z"/></g></g></svg>