<svg xmlns="http://www.w3.org/2000/svg" viewBox="0 0 98.82 98.82"><defs><style>.cls-1{fill:#66c8c9;}.cls-2{fill:#054062;}.cls-3{fill:#fff;}.cls-4{fill:#fdb816;}.cls-5{fill:#f37666;}.cls-6{fill:#035b83;}</style></defs><g id="Layer_2" data-name="Layer 2"><g id="Layer_1-2" data-name="Layer 1"><circle class="cls-1" cx="49.41" cy="49.41" r="49.41" transform="translate(-7.38 8.7) rotate(-9.36)"/><rect class="cls-2" x="53.76" y="55.12" width="13.13" height="24.05"/><rect class="cls-3" x="70.4" y="39.77" width="13.13" height="39.4"/><rect class="cls-4" x="20.46" y="62.22" width="13.13" height="16.8"/><rect class="cls-5" x="37.11" y="48.71" width="13.13" height="30.46"/><polygon class="cls-5" points="16.54 64.32 13.65 61.43 40.46 34.62 59.96 42.47 75.79 26.53 78.69 29.41 60.95 47.27 41.44 39.42 16.54 64.32"/><polygon class="cls-5" points="81.34 35.4 85.5 19.65 69.78 23.92 81.34 35.4"/><path class="cls-6" d="M21.76,36.15a1.67,1.67,0,0,1-1.53-1.8h0A1.67,1.67,0,0,1,22,32.82l4.64.36A1.68,1.68,0,0,1,28.2,35h0a1.68,1.68,0,0,1-1.8,1.54Z"/><path class="cls-6" d="M10.48,37.23a3.65,3.65,0,0,1-3.17-4h0a3.65,3.65,0,0,1,3.76-3.51l8.33.66a3.64,3.64,0,0,1,3.16,4.05h0a3.64,3.64,0,0,1-3.76,3.5Z"/><path class="cls-1" d="M44.22,42.86a9.62,9.62,0,1,1,1.39-13.54A9.62,9.62,0,0,1,44.22,42.86Z"/><path class="cls-5" d="M48.73,38.13V36.25L36.64,31.39l-8.22,8.22c1,1.35,2.11,2.67,3.11,4l6.32-6.33L47,41C47.58,40,48.19,39.1,48.73,38.13Z"/><path class="cls-3" d="M44.43,35a6.58,6.58,0,1,0-6.58,6.58A6.57,6.57,0,0,0,44.43,35Z"/><path class="cls-4" d="M47.94,27.42A12.63,12.63,0,1,0,46.12,45.2,12.63,12.63,0,0,0,47.94,27.42ZM44.22,42.86a9.62,9.62,0,1,1,1.39-13.54A9.62,9.62,0,0,1,44.22,42.86Z"/></g></g></svg>