<svg xmlns="http://www.w3.org/2000/svg" viewBox="0 0 289.24 153.39"><defs><style>.cls-1{fill:#66c8c9;}.cls-2{fill:#035b83;}.cls-3{fill:#353049;}.cls-4{fill:#f37666;}.cls-5{fill:#fff;}.cls-6{fill:#fdb816;}.cls-7{fill:#231f20;}.cls-8{fill:#054062;}.cls-9{fill:none;stroke:#000;stroke-miterlimit:10;}</style></defs><g id="Layer_2" data-name="Layer 2"><g id="Layer_1-2" data-name="Layer 1"><circle class="cls-1" cx="49.41" cy="49.41" r="49.41"/><path class="cls-2" d="M88.86,65.81c2,1.83,1.42,3.33-1.29,3.33H25.12c-2.72,0-3.31-1.5-1.3-3.33l3.56-3.25A14.73,14.73,0,0,1,36,59.22H76.72a14.72,14.72,0,0,1,8.58,3.34Z"/><path class="cls-3" d="M83.81,58.94a2.48,2.48,0,0,1-2.47,2.47h-50a2.48,2.48,0,0,1-2.48-2.47V30a2.48,2.48,0,0,1,2.48-2.46h50A2.47,2.47,0,0,1,83.81,30Z"/><path class="cls-2" d="M83.81,58.94a2.48,2.48,0,0,1-2.47,2.47h-50a2.48,2.48,0,0,1-2.48-2.47V30a2.48,2.48,0,0,1,2.48-2.46h50A2.47,2.47,0,0,1,83.81,30Z"/><path class="cls-4" d="M81.83,57.72a1.48,1.48,0,0,1-1.48,1.48h-48a1.48,1.48,0,0,1-1.48-1.48V31.21a1.5,1.5,0,0,1,1.48-1.49h48a1.5,1.5,0,0,1,1.48,1.49Z"/><path class="cls-5" d="M34.74,34.41A1.29,1.29,0,0,1,36.15,33H37.4a1.21,1.21,0,0,1,1.34,1.36v2.86a1.22,1.22,0,0,1-1.35,1.36H36.14a1.24,1.24,0,0,1-1.4-1.36Zm1.64,3.19h.74c.36,0,.56-.13.56-.55V34.53c0-.35-.16-.54-.52-.54h-.8a.5.5,0,0,0-.55.54v2.52A.5.5,0,0,0,36.38,37.6Z"/><path class="cls-5" d="M54.29,34.41A1.29,1.29,0,0,1,55.7,33H57a1.21,1.21,0,0,1,1.34,1.36v2.86a1.22,1.22,0,0,1-1.35,1.36H55.69a1.24,1.24,0,0,1-1.4-1.36Zm1.65,3.19h.73c.36,0,.56-.13.56-.55V34.53c0-.35-.16-.54-.52-.54h-.8a.5.5,0,0,0-.55.54v2.52C55.36,37.52,55.68,37.6,55.94,37.6Z"/><path class="cls-5" d="M41.26,43.3a1.28,1.28,0,0,1,1.4-1.4h1.25a1.21,1.21,0,0,1,1.35,1.36v2.86a1.22,1.22,0,0,1-1.35,1.36H42.66a1.24,1.24,0,0,1-1.4-1.36Zm1.64,3.2h.74c.36,0,.55-.13.55-.55V43.43c0-.35-.15-.54-.52-.54h-.8a.49.49,0,0,0-.54.54V46A.5.5,0,0,0,42.9,46.5Z"/><path class="cls-5" d="M41.26,52.2a1.28,1.28,0,0,1,1.4-1.4h1.25a1.21,1.21,0,0,1,1.35,1.36V55a1.22,1.22,0,0,1-1.35,1.36H42.66A1.25,1.25,0,0,1,41.26,55Zm1.64,3.2h.74c.36,0,.55-.14.55-.55V52.33c0-.35-.15-.55-.52-.55h-.8a.49.49,0,0,0-.54.55v2.52A.5.5,0,0,0,42.9,55.4Z"/><path class="cls-5" d="M34.74,52.2a1.29,1.29,0,0,1,1.41-1.4H37.4a1.21,1.21,0,0,1,1.34,1.36V55a1.22,1.22,0,0,1-1.35,1.36H36.14A1.25,1.25,0,0,1,34.74,55Zm1.64,3.2h.74c.36,0,.56-.14.56-.55V52.33c0-.35-.16-.55-.52-.55h-.8a.5.5,0,0,0-.55.55v2.52A.5.5,0,0,0,36.38,55.4Z"/><path class="cls-5" d="M60.81,34.41A1.29,1.29,0,0,1,62.21,33h1.25a1.21,1.21,0,0,1,1.35,1.36v2.86a1.22,1.22,0,0,1-1.35,1.36H62.21a1.24,1.24,0,0,1-1.4-1.36Zm1.64,3.19h.74c.36,0,.55-.13.55-.55V34.53c0-.35-.15-.54-.52-.54h-.8a.49.49,0,0,0-.54.54v2.52A.5.5,0,0,0,62.45,37.6Z"/><path class="cls-5" d="M67.33,34.41A1.29,1.29,0,0,1,68.73,33H70a1.21,1.21,0,0,1,1.35,1.36v2.86A1.22,1.22,0,0,1,70,38.58H68.73a1.24,1.24,0,0,1-1.4-1.36ZM69,37.6h.74c.36,0,.55-.13.55-.55V34.53c0-.35-.15-.54-.52-.54h-.8a.5.5,0,0,0-.55.54v2.52C68.39,37.52,68.71,37.6,69,37.6Z"/><path class="cls-5" d="M42.19,33.63,43.27,33h1.06v5.58H43.26V34.06l-1.07.27Z"/><path class="cls-5" d="M48.71,33.63,49.79,33h1.06v5.58H49.78V34.06l-1.07.27Z"/><path class="cls-5" d="M74.78,33.63,75.85,33h1.06v5.58H75.85V34.06l-1.07.27Z"/><path class="cls-5" d="M35.67,42.53l1.08-.63h1.06v5.58H36.75V43l-1.08.27Z"/><path class="cls-5" d="M48.71,51.43l1.08-.63h1.06v5.58H49.78V51.86l-1.07.27Z"/><path class="cls-5" d="M54.29,43.3a1.29,1.29,0,0,1,1.41-1.4H57a1.21,1.21,0,0,1,1.34,1.36v2.86a1.22,1.22,0,0,1-1.35,1.36H55.69a1.24,1.24,0,0,1-1.4-1.36Zm1.65,3.2h.73c.36,0,.56-.13.56-.55V43.43c0-.35-.16-.54-.52-.54h-.8a.5.5,0,0,0-.55.54V46A.51.51,0,0,0,55.94,46.5Z"/><path class="cls-5" d="M60.81,52.2a1.28,1.28,0,0,1,1.4-1.4h1.25a1.21,1.21,0,0,1,1.35,1.36V55a1.22,1.22,0,0,1-1.35,1.36H62.21A1.25,1.25,0,0,1,60.81,55Zm1.64,3.2h.74c.36,0,.55-.14.55-.55V52.33c0-.35-.15-.55-.52-.55h-.8a.49.49,0,0,0-.54.55v2.52A.5.5,0,0,0,62.45,55.4Z"/><path class="cls-5" d="M67.33,52.2a1.28,1.28,0,0,1,1.4-1.4H70a1.21,1.21,0,0,1,1.35,1.36V55A1.22,1.22,0,0,1,70,56.38H68.73A1.25,1.25,0,0,1,67.33,55ZM69,55.4h.74c.36,0,.55-.14.55-.55V52.33c0-.35-.15-.55-.52-.55h-.8a.5.5,0,0,0-.55.55v2.52A.51.51,0,0,0,69,55.4Z"/><path class="cls-5" d="M48.71,42.53l1.08-.63h1.06v5.58H49.78V43l-1.07.27Z"/><path class="cls-5" d="M61.74,42.53l1.08-.63h1.06v5.58H62.81V43l-1.07.27Z"/><path class="cls-5" d="M55.22,51.43l1.08-.63h1.06v5.58H56.3V51.86l-1.08.27Z"/><path class="cls-5" d="M73.84,43.3a1.29,1.29,0,0,1,1.41-1.4H76.5a1.22,1.22,0,0,1,1.35,1.36v2.86a1.22,1.22,0,0,1-1.36,1.36H75.24a1.25,1.25,0,0,1-1.4-1.36Zm1.65,3.2h.73c.36,0,.56-.13.56-.55V43.43c0-.35-.16-.54-.52-.54h-.8a.5.5,0,0,0-.55.54V46A.51.51,0,0,0,75.49,46.5Z"/><path class="cls-5" d="M74.78,51.43l1.07-.63h1.06v5.58H75.85V51.86l-1.07.27Z"/><path class="cls-5" d="M68.26,42.53l1.08-.63H70.4v5.58H69.33V43l-1.07.27Z"/><path class="cls-2" d="M20,56.68a2,2,0,0,1-2.77,0h0a2,2,0,0,1,0-2.78L21.07,50a2,2,0,0,1,2.77,0h0a2,2,0,0,1,0,2.77Z"/><path class="cls-2" d="M12.34,67.57a4.27,4.27,0,0,1-6-.26h0a4.28,4.28,0,0,1-.27-6L13,54.36a4.27,4.27,0,0,1,6,.26h0a4.27,4.27,0,0,1,.26,6Z"/><path class="cls-6" d="M46.21,41.1A14.83,14.83,0,1,0,31.39,55.93,14.81,14.81,0,0,0,46.21,41.1Z"/><path class="cls-4" d="M42.68,41.1A11.29,11.29,0,1,0,31.39,52.39,11.28,11.28,0,0,0,42.68,41.1Z"/><path class="cls-5" d="M34.27,41.83,35.7,41h1.4v7.38H35.69v-6l-1.42.36Z"/><path class="cls-5" d="M33,34.81a1.65,1.65,0,0,0,1.85,1.8h1.66a1.62,1.62,0,0,0,1.79-1.8v-2.6a12,12,0,0,0-1.41-.95v3.33c0,.54-.26.72-.74.72h-1a.68.68,0,0,1-.77-.73V31.25a.67.67,0,0,1,.73-.73h.14a12,12,0,0,0-2-.54,2.06,2.06,0,0,0-.28,1.1Z"/><path class="cls-7" d="M42.9,124.53a5.83,5.83,0,0,1-1.51,4.35A6.1,6.1,0,0,1,37,130.35H34.22V118.93h3.09a5.6,5.6,0,0,1,4.16,1.43A5.65,5.65,0,0,1,42.9,124.53Zm-.87,0a5,5,0,0,0-1.25-3.69,5,5,0,0,0-3.66-1.24H35v10h1.89Q42,129.65,42,124.56Z"/><path class="cls-7" d="M50.48,130.35,50.29,129h-.07a4.07,4.07,0,0,1-1.31,1.16,3.63,3.63,0,0,1-1.6.34,2.83,2.83,0,0,1-2-.64,2.31,2.31,0,0,1-.69-1.78,2.18,2.18,0,0,1,1-1.93,5.57,5.57,0,0,1,3-.72l1.62,0v-.56a2.94,2.94,0,0,0-.49-1.83,1.92,1.92,0,0,0-1.59-.62,5.31,5.31,0,0,0-2.45.66l-.29-.67a6.49,6.49,0,0,1,2.77-.66,2.74,2.74,0,0,1,2.09.73,3.18,3.18,0,0,1,.69,2.26v5.65Zm-3.12-.55a2.7,2.7,0,0,0,2.93-2.93V126l-1.49.06a5.72,5.72,0,0,0-2.55.56,1.61,1.61,0,0,0-.76,1.47,1.57,1.57,0,0,0,.49,1.24A1.94,1.94,0,0,0,47.36,129.8Z"/><path class="cls-7" d="M56,129.82a5.51,5.51,0,0,0,1.29-.13v.63a4.29,4.29,0,0,1-1.3.19,2.07,2.07,0,0,1-1.66-.61,2.77,2.77,0,0,1-.54-1.89v-5.48H52.58v-.45l1.25-.36.39-1.92h.4v2.06h2.49v.67H54.62v5.37a2.44,2.44,0,0,0,.35,1.45A1.24,1.24,0,0,0,56,129.82Z"/><path class="cls-7" d="M64.32,130.35l-.2-1.34h-.06a4.2,4.2,0,0,1-1.32,1.16,3.58,3.58,0,0,1-1.59.34,2.79,2.79,0,0,1-1.95-.64,2.32,2.32,0,0,1-.7-1.78,2.19,2.19,0,0,1,1-1.93,5.57,5.57,0,0,1,3-.72l1.61,0v-.56a2.87,2.87,0,0,0-.49-1.83,1.92,1.92,0,0,0-1.58-.62,5.28,5.28,0,0,0-2.45.66l-.29-.67a6.46,6.46,0,0,1,2.77-.66,2.74,2.74,0,0,1,2.09.73,3.18,3.18,0,0,1,.69,2.26v5.65Zm-3.13-.55a3,3,0,0,0,2.15-.77,2.92,2.92,0,0,0,.78-2.16V126l-1.48.06a5.69,5.69,0,0,0-2.55.56,1.82,1.82,0,0,0-.28,2.71A2,2,0,0,0,61.19,129.8Z"/><path class="cls-7" d="M25.07,138.68a4.32,4.32,0,0,0-3.39,1.38,5.44,5.44,0,0,0-1.23,3.76,5.68,5.68,0,0,0,1.16,3.8A4.17,4.17,0,0,0,24.94,149a9.16,9.16,0,0,0,2.64-.36v.7a8.76,8.76,0,0,1-2.83.4A4.79,4.79,0,0,1,21,148.15a6.25,6.25,0,0,1-1.39-4.34,6.8,6.8,0,0,1,.66-3.07,4.78,4.78,0,0,1,1.9-2.05A5.65,5.65,0,0,1,25,138a6.87,6.87,0,0,1,3,.63l-.32.72A5.75,5.75,0,0,0,25.07,138.68Z"/><path class="cls-7" d="M30.71,149.55h-.78V137.39h.78Z"/><path class="cls-7" d="M37,149.71a3.73,3.73,0,0,1-2.89-1.14,4.59,4.59,0,0,1-1-3.2,5,5,0,0,1,1-3.25,3.3,3.3,0,0,1,2.69-1.23,2.91,2.91,0,0,1,2.37,1.05,4.32,4.32,0,0,1,.87,2.84v.63H33.87a4,4,0,0,0,.82,2.67A2.85,2.85,0,0,0,37,149a6.93,6.93,0,0,0,1.28-.1,7.36,7.36,0,0,0,1.39-.44v.71a5.86,5.86,0,0,1-1.32.42A7.06,7.06,0,0,1,37,149.71Zm-.23-8.13a2.53,2.53,0,0,0-2,.81,3.77,3.77,0,0,0-.87,2.33h5.25a3.71,3.71,0,0,0-.64-2.31A2.13,2.13,0,0,0,36.75,141.58Z"/><path class="cls-7" d="M47.49,149.55l-.2-1.34h-.06a4.18,4.18,0,0,1-1.31,1.16,3.66,3.66,0,0,1-1.6.34,2.81,2.81,0,0,1-2-.64,2.31,2.31,0,0,1-.69-1.78,2.18,2.18,0,0,1,1-1.93,5.57,5.57,0,0,1,3-.72l1.62,0V144a2.87,2.87,0,0,0-.5-1.83,1.9,1.9,0,0,0-1.58-.62,5.31,5.31,0,0,0-2.45.66l-.29-.67a6.49,6.49,0,0,1,2.77-.66,2.74,2.74,0,0,1,2.09.73,3.18,3.18,0,0,1,.69,2.26v5.65ZM44.36,149a2.69,2.69,0,0,0,2.93-2.93v-.84l-1.48.06a5.72,5.72,0,0,0-2.55.56,1.61,1.61,0,0,0-.76,1.47,1.56,1.56,0,0,0,.49,1.24A1.93,1.93,0,0,0,44.36,149Z"/><path class="cls-7" d="M56.73,149.55V144a2.68,2.68,0,0,0-.54-1.86,2.16,2.16,0,0,0-1.67-.58,2.86,2.86,0,0,0-2.23.77,3.61,3.61,0,0,0-.71,2.49v4.69h-.77v-8.49h.66l.14,1.16h0a3.21,3.21,0,0,1,3-1.33c1.92,0,2.89,1,2.89,3.11v5.55Z"/><path class="cls-7" d="M60.14,138.7c0-.5.16-.75.49-.75a.44.44,0,0,1,.38.19,1,1,0,0,1,.14.56,1,1,0,0,1-.14.55.43.43,0,0,1-.38.21C60.3,139.46,60.14,139.2,60.14,138.7ZM61,149.55h-.77v-8.49H61Z"/><path class="cls-7" d="M69.79,149.55V144a2.68,2.68,0,0,0-.54-1.86,2.17,2.17,0,0,0-1.67-.58,2.9,2.9,0,0,0-2.24.77,3.61,3.61,0,0,0-.7,2.49v4.69h-.78v-8.49h.66l.15,1.16h0a3.19,3.19,0,0,1,2.94-1.33c1.93,0,2.89,1,2.89,3.11v5.55Z"/><path class="cls-7" d="M79.93,141.06v.54l-1.76.11a3,3,0,0,1,.7,1.92,2.61,2.61,0,0,1-.81,2,3.14,3.14,0,0,1-2.2.76,4.85,4.85,0,0,1-.81,0,1.94,1.94,0,0,0-.7.57,1.16,1.16,0,0,0-.24.7.63.63,0,0,0,.31.59,2,2,0,0,0,1,.19h1.48a3.46,3.46,0,0,1,2.12.56,1.94,1.94,0,0,1,.74,1.65,2.35,2.35,0,0,1-1.09,2.07,5.57,5.57,0,0,1-3.11.73,4.29,4.29,0,0,1-2.48-.61,2,2,0,0,1-.88-1.72,2,2,0,0,1,.54-1.45,2.83,2.83,0,0,1,1.48-.79,1.55,1.55,0,0,1-.62-.47,1.12,1.12,0,0,1-.23-.69,1.83,1.83,0,0,1,1.09-1.5,2.39,2.39,0,0,1-1.16-1,2.75,2.75,0,0,1-.41-1.49,2.71,2.71,0,0,1,.81-2.05,3,3,0,0,1,2.18-.77,4,4,0,0,1,1.3.17ZM73.05,151c0,1.16.87,1.75,2.6,1.75,2.23,0,3.35-.71,3.35-2.13a1.21,1.21,0,0,0-.53-1.11,3.13,3.13,0,0,0-1.69-.35H75.39C73.83,149.15,73.05,149.76,73.05,151Zm.65-7.28a1.94,1.94,0,0,0,.6,1.52,2.65,2.65,0,0,0,3.22,0,2,2,0,0,0,.57-1.56,2.11,2.11,0,0,0-.58-1.63,2.27,2.27,0,0,0-1.63-.55,2,2,0,0,0-2.18,2.21Z"/><circle class="cls-1" cx="232.29" cy="50.69" r="49.41" transform="translate(-5.15 38.46) rotate(-9.36)"/><rect class="cls-8" x="236.63" y="56.4" width="13.13" height="24.05"/><rect class="cls-5" x="253.28" y="41.05" width="13.13" height="39.4"/><rect class="cls-6" x="203.34" y="63.5" width="13.13" height="16.8"/><rect class="cls-4" x="219.98" y="49.99" width="13.13" height="30.46"/><polygon class="cls-4" points="199.42 65.6 196.53 62.71 223.34 35.9 242.83 43.75 258.66 27.81 261.56 30.69 243.82 48.55 224.32 40.7 199.42 65.6"/><polygon class="cls-4" points="264.21 36.68 268.38 20.93 252.65 25.2 264.21 36.68"/><path class="cls-2" d="M204.64,37.43a1.68,1.68,0,0,1-1.54-1.8h0a1.68,1.68,0,0,1,1.8-1.53l4.64.36a1.68,1.68,0,0,1,1.54,1.8h0a1.68,1.68,0,0,1-1.8,1.54Z"/><path class="cls-2" d="M193.35,38.5a3.63,3.63,0,0,1-3.16-4h0A3.64,3.64,0,0,1,194,31l8.32.66a3.63,3.63,0,0,1,3.16,4h0a3.63,3.63,0,0,1-3.76,3.5Z"/><path class="cls-1" d="M227.1,44.14a9.62,9.62,0,1,1,1.38-13.54A9.62,9.62,0,0,1,227.1,44.14Z"/><path class="cls-4" d="M231.6,39.41V37.53l-12.08-4.86-8.23,8.22c1,1.35,2.11,2.67,3.11,4l6.33-6.33,9.15,3.68C230.46,41.32,231.07,40.38,231.6,39.41Z"/><path class="cls-5" d="M227.3,36.26a6.58,6.58,0,1,0-6.57,6.58A6.57,6.57,0,0,0,227.3,36.26Z"/><path class="cls-6" d="M230.82,28.7A12.64,12.64,0,1,0,229,46.48,12.65,12.65,0,0,0,230.82,28.7ZM227.1,44.14a9.62,9.62,0,1,1,1.38-13.54A9.62,9.62,0,0,1,227.1,44.14Z"/><path class="cls-7" d="M178.34,131.63H172.1V120.21h6.24v.73H172.9v4.32H178V126H172.9v4.89h5.44Z"/><path class="cls-7" d="M182.82,127.26l-3-4.12h.89l2.53,3.57,2.51-3.57h.85l-2.92,4.12,3.13,4.37H186l-2.67-3.79-2.69,3.79h-.85Z"/><path class="cls-7" d="M192.33,131.79a3.11,3.11,0,0,1-2.86-1.47h-.05l0,.65c0,.39,0,.81,0,1.27v3.23h-.77V123.14h.66l.15,1.21h0a3.08,3.08,0,0,1,2.8-1.38A3.16,3.16,0,0,1,195,124.1a5.18,5.18,0,0,1,.9,3.29,4.93,4.93,0,0,1-1,3.24A3.17,3.17,0,0,1,192.33,131.79Zm0-.69a2.36,2.36,0,0,0,2-1,4.55,4.55,0,0,0,.71-2.71c0-2.5-.9-3.74-2.7-3.74a2.72,2.72,0,0,0-2.18.81,4.11,4.11,0,0,0-.7,2.66v.25a4.74,4.74,0,0,0,.67,2.85A2.63,2.63,0,0,0,192.32,131.1Z"/><path class="cls-7" d="M199,131.63h-.78V119.47H199Z"/><path class="cls-7" d="M208.87,127.37a4.83,4.83,0,0,1-1,3.25,3.47,3.47,0,0,1-2.78,1.17,3.57,3.57,0,0,1-2-.54,3.45,3.45,0,0,1-1.31-1.55,5.66,5.66,0,0,1-.45-2.33,4.82,4.82,0,0,1,1-3.24,3.47,3.47,0,0,1,2.76-1.16,3.39,3.39,0,0,1,2.75,1.18A4.85,4.85,0,0,1,208.87,127.37Zm-6.71,0a4.33,4.33,0,0,0,.77,2.73,2.9,2.9,0,0,0,4.35,0,4.26,4.26,0,0,0,.77-2.73,4.33,4.33,0,0,0-.77-2.73,2.66,2.66,0,0,0-2.19-1,2.61,2.61,0,0,0-2.17,1A4.35,4.35,0,0,0,202.16,127.37Z"/><path class="cls-7" d="M214.56,123a7,7,0,0,1,1.16.11l-.15.74a5,5,0,0,0-1.1-.13,2.13,2.13,0,0,0-1.78.92,3.73,3.73,0,0,0-.7,2.33v4.69h-.77v-8.49h.65l.08,1.53H212a3.52,3.52,0,0,1,1.11-1.32A2.66,2.66,0,0,1,214.56,123Z"/><path class="cls-7" d="M222.6,131.63l-.2-1.34h-.06a4.07,4.07,0,0,1-1.31,1.16,3.63,3.63,0,0,1-1.6.34,2.77,2.77,0,0,1-2-.65,2.28,2.28,0,0,1-.69-1.77,2.18,2.18,0,0,1,1-1.93,5.66,5.66,0,0,1,3-.73l1.62,0v-.56a2.87,2.87,0,0,0-.5-1.83,1.89,1.89,0,0,0-1.58-.62,5.31,5.31,0,0,0-2.45.66l-.29-.68a6.62,6.62,0,0,1,2.77-.65,2.77,2.77,0,0,1,2.09.72,3.21,3.21,0,0,1,.69,2.27v5.65Zm-3.13-.55a2.7,2.7,0,0,0,2.93-2.94v-.83l-1.48.06a5.59,5.59,0,0,0-2.55.56,1.61,1.61,0,0,0-.76,1.47,1.57,1.57,0,0,0,.49,1.24A1.93,1.93,0,0,0,219.47,131.08Z"/><path class="cls-7" d="M228.16,131.1a5.37,5.37,0,0,0,1.28-.13v.63a4.17,4.17,0,0,1-1.29.19,2.07,2.07,0,0,1-1.66-.61,2.77,2.77,0,0,1-.54-1.89v-5.48h-1.26v-.45L226,123l.39-1.92h.4v2.06h2.49v.67h-2.49v5.37a2.44,2.44,0,0,0,.34,1.45A1.26,1.26,0,0,0,228.16,131.1Z"/><path class="cls-7" d="M238.3,127.37a4.77,4.77,0,0,1-1,3.25,3.46,3.46,0,0,1-2.78,1.17,3.62,3.62,0,0,1-2-.54,3.5,3.5,0,0,1-1.3-1.55,5.66,5.66,0,0,1-.45-2.33,4.81,4.81,0,0,1,1-3.24,3.51,3.51,0,0,1,2.77-1.16,3.4,3.4,0,0,1,2.75,1.18A4.84,4.84,0,0,1,238.3,127.37Zm-6.7,0a4.33,4.33,0,0,0,.77,2.73,2.9,2.9,0,0,0,4.35,0,4.33,4.33,0,0,0,.77-2.73,4.27,4.27,0,0,0-.78-2.73,2.64,2.64,0,0,0-2.18-1,2.61,2.61,0,0,0-2.17,1A4.29,4.29,0,0,0,231.6,127.37Z"/><path class="cls-7" d="M244,123a6.86,6.86,0,0,1,1.15.11l-.14.74a5.11,5.11,0,0,0-1.11-.13,2.16,2.16,0,0,0-1.78.92,3.79,3.79,0,0,0-.69,2.33v4.69h-.78v-8.49h.66l.08,1.53h.05a3.62,3.62,0,0,1,1.12-1.32A2.66,2.66,0,0,1,244,123Z"/><path class="cls-7" d="M245.46,123.14h.8l1.79,4.76c.55,1.47.9,2.45,1,3h0c.22-.67.57-1.67,1.07-3l1.8-4.72h.79L249,133a7.52,7.52,0,0,1-.78,1.63,2,2,0,0,1-.73.63,2.19,2.19,0,0,1-1,.21,3.44,3.44,0,0,1-1-.16v-.67a3.81,3.81,0,0,0,1,.12,1.27,1.27,0,0,0,.7-.19,1.63,1.63,0,0,0,.55-.58,7.38,7.38,0,0,0,.57-1.25q.33-.86.42-1.11Z"/><path class="cls-7" d="M267.25,125.81a5.81,5.81,0,0,1-1.51,4.35,6.09,6.09,0,0,1-4.43,1.47h-2.73V120.21h3.08a5.59,5.59,0,0,1,4.16,1.43A5.65,5.65,0,0,1,267.25,125.81Zm-.87,0a4.38,4.38,0,0,0-4.91-4.93h-2.1v10h1.89Q266.38,130.93,266.38,125.84Z"/><path class="cls-7" d="M274.83,131.63l-.19-1.34h-.06a4.2,4.2,0,0,1-1.32,1.16,3.6,3.6,0,0,1-1.6.34,2.74,2.74,0,0,1-1.94-.65,2.25,2.25,0,0,1-.7-1.77,2.19,2.19,0,0,1,1-1.93,5.64,5.64,0,0,1,3-.73l1.62,0v-.56a2.87,2.87,0,0,0-.49-1.83,1.92,1.92,0,0,0-1.59-.62,5.27,5.27,0,0,0-2.44.66l-.29-.68a6.55,6.55,0,0,1,2.76-.65,2.76,2.76,0,0,1,2.09.72,3.21,3.21,0,0,1,.69,2.27v5.65Zm-3.12-.55a2.89,2.89,0,0,0,2.14-.78,2.85,2.85,0,0,0,.79-2.16v-.83l-1.49.06a5.59,5.59,0,0,0-2.55.56,1.63,1.63,0,0,0-.76,1.47,1.57,1.57,0,0,0,.49,1.24A2,2,0,0,0,271.71,131.08Z"/><path class="cls-7" d="M280.4,131.1a5.42,5.42,0,0,0,1.28-.13v.63a4.29,4.29,0,0,1-1.3.19,2.09,2.09,0,0,1-1.66-.61,2.77,2.77,0,0,1-.53-1.89v-5.48h-1.26v-.45l1.26-.36.39-1.92H279v2.06h2.5v.67H279v5.37a2.44,2.44,0,0,0,.35,1.45A1.26,1.26,0,0,0,280.4,131.1Z"/><path class="cls-7" d="M288.67,131.63l-.2-1.34h-.06a4.07,4.07,0,0,1-1.31,1.16,3.63,3.63,0,0,1-1.6.34,2.78,2.78,0,0,1-1.95-.65,2.28,2.28,0,0,1-.69-1.77,2.18,2.18,0,0,1,1-1.93,5.66,5.66,0,0,1,3-.73l1.62,0v-.56a2.87,2.87,0,0,0-.5-1.83,1.89,1.89,0,0,0-1.58-.62,5.31,5.31,0,0,0-2.45.66l-.29-.68a6.62,6.62,0,0,1,2.77-.65,2.77,2.77,0,0,1,2.09.72,3.21,3.21,0,0,1,.69,2.27v5.65Zm-3.13-.55a2.7,2.7,0,0,0,2.93-2.94v-.83l-1.48.06a5.59,5.59,0,0,0-2.55.56,1.61,1.61,0,0,0-.76,1.47,1.57,1.57,0,0,0,.49,1.24A1.93,1.93,0,0,0,285.54,131.08Z"/><path class="cls-7" d="M194.35,139.41h.86l-4.27,11.42h-.7L186,139.41h.85l2.88,7.77c.43,1.17.73,2,.88,2.64.1-.39.31-1,.62-1.82Z"/><path class="cls-7" d="M196.53,140c0-.5.16-.75.49-.75a.44.44,0,0,1,.38.19,1,1,0,0,1,.13.56,1,1,0,0,1-.13.55.43.43,0,0,1-.38.21C196.69,140.74,196.53,140.48,196.53,140Zm.88,10.85h-.78v-8.49h.78Z"/><path class="cls-7" d="M205.52,148.62a2,2,0,0,1-.87,1.75,4.22,4.22,0,0,1-2.46.62,5.8,5.8,0,0,1-2.7-.53v-.83a6,6,0,0,0,2.7.64,3.54,3.54,0,0,0,1.91-.42,1.28,1.28,0,0,0,.65-1.11,1.34,1.34,0,0,0-.52-1.08,5.61,5.61,0,0,0-1.7-.86,10,10,0,0,1-1.79-.79,2.56,2.56,0,0,1-.78-.75,1.84,1.84,0,0,1-.26-1,1.73,1.73,0,0,1,.8-1.51,3.88,3.88,0,0,1,2.24-.56,6.83,6.83,0,0,1,2.61.52l-.29.7a6.22,6.22,0,0,0-2.32-.51,3.32,3.32,0,0,0-1.65.34,1.05,1.05,0,0,0-.61.95,1.34,1.34,0,0,0,.47,1.07,6.86,6.86,0,0,0,1.85.89,9,9,0,0,1,1.67.74,2.51,2.51,0,0,1,.79.76A1.87,1.87,0,0,1,205.52,148.62Z"/><path class="cls-7" d="M208.38,142.34v5.5a2.68,2.68,0,0,0,.54,1.86,2.16,2.16,0,0,0,1.67.58,2.92,2.92,0,0,0,2.23-.76,3.61,3.61,0,0,0,.71-2.49v-4.69h.77v8.49h-.66l-.14-1.17h0a3.22,3.22,0,0,1-3,1.33c-1.93,0-2.9-1-2.9-3.11v-5.54Z"/><path class="cls-7" d="M222.3,150.83l-.2-1.34H222a4.2,4.2,0,0,1-1.32,1.16,3.58,3.58,0,0,1-1.59.34,2.81,2.81,0,0,1-1.95-.64,2.31,2.31,0,0,1-.69-1.78,2.18,2.18,0,0,1,1-1.93,5.57,5.57,0,0,1,3-.72l1.61,0v-.56a2.87,2.87,0,0,0-.49-1.83,1.9,1.9,0,0,0-1.58-.62,5.31,5.31,0,0,0-2.45.66l-.29-.67a6.46,6.46,0,0,1,2.77-.66,2.74,2.74,0,0,1,2.09.73,3.17,3.17,0,0,1,.69,2.26v5.65Zm-3.13-.55a3,3,0,0,0,2.15-.77,2.92,2.92,0,0,0,.78-2.16v-.84l-1.48.06a5.72,5.72,0,0,0-2.55.56,1.82,1.82,0,0,0-.28,2.71A2,2,0,0,0,219.17,150.28Z"/><path class="cls-7" d="M226.39,150.83h-.77V138.67h.77Z"/><path class="cls-7" d="M229.13,140c0-.5.16-.75.49-.75a.44.44,0,0,1,.38.19,1,1,0,0,1,.13.56,1,1,0,0,1-.13.55.43.43,0,0,1-.38.21C229.29,140.74,229.13,140.48,229.13,140Zm.88,10.85h-.77v-8.49H230Z"/><path class="cls-7" d="M238.13,150.83h-6.06v-.49l5-7.31h-4.67v-.69h5.68v.49l-5.07,7.31h5.08Z"/><path class="cls-7" d="M245.38,150.83l-.19-1.34h-.06a4.2,4.2,0,0,1-1.32,1.16,3.6,3.6,0,0,1-1.6.34,2.78,2.78,0,0,1-1.94-.64,2.28,2.28,0,0,1-.7-1.78,2.19,2.19,0,0,1,1-1.93,5.56,5.56,0,0,1,3-.72l1.62,0v-.56a2.87,2.87,0,0,0-.49-1.83,1.92,1.92,0,0,0-1.59-.62,5.27,5.27,0,0,0-2.44.66l-.29-.67a6.41,6.41,0,0,1,2.76-.66,2.72,2.72,0,0,1,2.09.73,3.17,3.17,0,0,1,.7,2.26v5.65Zm-3.12-.55a2.92,2.92,0,0,0,2.14-.77,2.89,2.89,0,0,0,.79-2.16v-.84l-1.48.06a5.74,5.74,0,0,0-2.56.56,1.63,1.63,0,0,0-.76,1.47,1.6,1.6,0,0,0,.49,1.24A2,2,0,0,0,242.26,150.28Z"/><path class="cls-7" d="M251,150.3a5.42,5.42,0,0,0,1.28-.13v.63a4.29,4.29,0,0,1-1.3.19,2.09,2.09,0,0,1-1.66-.61,2.82,2.82,0,0,1-.53-1.89V143h-1.26v-.45l1.26-.36.39-1.92h.4v2.06H252V143h-2.49v5.37a2.44,2.44,0,0,0,.34,1.45A1.26,1.26,0,0,0,251,150.3Z"/><path class="cls-7" d="M254,140c0-.5.16-.75.49-.75a.44.44,0,0,1,.38.19,1,1,0,0,1,.13.56,1,1,0,0,1-.13.55.43.43,0,0,1-.38.21C254.12,140.74,254,140.48,254,140Zm.88,10.85h-.78v-8.49h.78Z"/><path class="cls-7" d="M264.71,146.57a4.83,4.83,0,0,1-1,3.25,3.47,3.47,0,0,1-2.78,1.17,3.57,3.57,0,0,1-2-.54,3.45,3.45,0,0,1-1.31-1.55,5.66,5.66,0,0,1-.45-2.33,4.82,4.82,0,0,1,1-3.24,3.47,3.47,0,0,1,2.76-1.16,3.43,3.43,0,0,1,2.75,1.18A4.85,4.85,0,0,1,264.71,146.57Zm-6.71,0a4.33,4.33,0,0,0,.77,2.73,2.9,2.9,0,0,0,4.35,0,5.21,5.21,0,0,0,0-5.45,2.64,2.64,0,0,0-2.19-1,2.61,2.61,0,0,0-2.17,1A4.39,4.39,0,0,0,258,146.57Z"/><path class="cls-7" d="M273,150.83v-5.51a2.68,2.68,0,0,0-.54-1.86,2.17,2.17,0,0,0-1.67-.58,2.86,2.86,0,0,0-2.23.77,3.61,3.61,0,0,0-.71,2.49v4.69h-.77v-8.49h.65l.15,1.16h.05a3.19,3.19,0,0,1,2.94-1.33c1.93,0,2.89,1,2.89,3.11v5.55Z"/><line class="cls-9" x1="133.52" y1="51.04" x2="152.31" y2="51.04"/><polygon points="135.52 52.74 133.82 51.04 135.52 49.35 134.08 49.35 132.38 51.04 134.08 52.74 135.52 52.74"/><polygon points="150.32 52.74 152.02 51.04 150.32 49.35 151.76 49.35 153.46 51.04 151.76 52.74 150.32 52.74"/></g></g></svg>