<svg id="Layer_1" data-name="Layer 1" xmlns="http://www.w3.org/2000/svg" viewBox="0 0 875 619.04"><defs><style>.cls-1{fill:#0097a7;}.cls-2{fill:#6d6e71;}.cls-3{fill:#fbc02d;}.cls-4{fill:#afb42b;}.cls-5{fill:#43a047;}.cls-6{fill:#fff;}</style></defs><rect class="cls-1" y="69.92" width="127.56" height="425.2"/><rect class="cls-2" x="127.56" y="281.02" width="111.17" height="3"/><rect class="cls-3" x="733.27" width="141.73" height="85.04"/><rect class="cls-4" x="506.5" y="534" width="141.73" height="85.04"/><rect class="cls-4" x="506.5" y="426" width="141.73" height="85.04"/><rect class="cls-4" x="506.5" width="141.73" height="85.04"/><rect class="cls-4" x="506.5" y="106.26" width="141.73" height="85.04"/><rect class="cls-4" x="506.5" y="213.74" width="141.73" height="85.04"/><rect class="cls-4" x="506.5" y="320" width="141.73" height="85.04"/><rect class="cls-5" x="279.73" y="480" width="141.73" height="85.04"/><rect class="cls-5" x="279.73" y="320" width="141.73" height="85.04"/><rect class="cls-5" x="279.73" y="160" width="141.73" height="85.04"/><rect class="cls-5" x="279.73" width="141.73" height="85.04"/><rect class="cls-3" x="733.27" y="372" width="141.73" height="85.04"/><rect class="cls-3" x="733.27" y="480" width="141.73" height="85.04"/><rect class="cls-2" x="421.46" y="201.02" width="42.52" height="3"/><rect class="cls-2" x="463.98" y="147.28" width="42.52" height="3"/><rect class="cls-2" x="463.98" y="254.76" width="42.52" height="3"/><rect class="cls-2" x="462.48" y="147.29" width="3" height="110.5"/><rect class="cls-2" x="421.46" y="521" width="42.52" height="3"/><rect class="cls-2" x="463.98" y="467.26" width="42.52" height="3"/><rect class="cls-2" x="463.98" y="574.74" width="42.52" height="3"/><rect class="cls-2" x="462.48" y="467.27" width="3" height="110.5"/><rect class="cls-2" x="648.23" y="467" width="42.52" height="3"/><rect class="cls-2" x="690.75" y="413.26" width="42.52" height="3"/><rect class="cls-2" x="690.75" y="520.74" width="42.52" height="3"/><rect class="cls-2" x="689.25" y="413.27" width="3" height="110.5"/><rect class="cls-3" x="733.27" y="159.8" width="141.73" height="85.04"/><rect class="cls-3" x="733.27" y="267.74" width="141.73" height="85.04"/><rect class="cls-2" x="648.23" y="254.74" width="42.52" height="3"/><rect class="cls-2" x="690.75" y="201" width="42.52" height="3"/><rect class="cls-2" x="690.75" y="308.48" width="42.52" height="3"/><rect class="cls-2" x="689.25" y="201.01" width="3" height="110.5"/><rect class="cls-2" x="237.21" y="201.02" width="42.52" height="3"/><rect class="cls-2" x="237.21" y="361.02" width="42.52" height="3"/><rect class="cls-2" x="237.21" y="521.02" width="42.52" height="3"/><rect class="cls-2" x="237.21" y="41.02" width="42.52" height="3"/><rect class="cls-2" x="421.46" y="361.02" width="85.04" height="3"/><rect class="cls-2" x="421.46" y="41.02" width="85.04" height="3"/><rect class="cls-2" x="648.23" y="41.02" width="85.04" height="3"/><rect class="cls-2" x="236.88" y="41.02" width="3" height="482.97"/><path class="cls-6" d="M102.63,405l-3.76,1.14v5.76l3.76,1.15v3.61l-15.86-5.58V407l15.86-5.6Zm-6.57,1.94-5.78,1.79c-.44.14-.8.23-1.06.29.92.24,3.21.92,6.84,2Z" transform="translate(-32.49 -47.68)"/><path class="cls-6" d="M102.63,396.34v3.3H85.82v-3.3Z" transform="translate(-32.49 -47.68)"/><path class="cls-6" d="M102.63,389.59v3.3H85.82v-3.3Z" transform="translate(-32.49 -47.68)"/><path class="cls-6" d="M91.76,369.21a4.83,4.83,0,0,1,3.9,1.59A6.82,6.82,0,0,1,97,375.33v1.44h5.62v3.35H86.83v-5a6.76,6.76,0,0,1,1.24-4.38A4.54,4.54,0,0,1,91.76,369.21Zm2.51,7.56v-1.1a3.64,3.64,0,0,0-.61-2.31,2.15,2.15,0,0,0-1.78-.77,2.2,2.2,0,0,0-1.74.64,3,3,0,0,0-.56,2v1.52Z" transform="translate(-32.49 -47.68)"/><path class="cls-6" d="M102.63,358.81l-1.64.64v.09a4.91,4.91,0,0,1,1.46,1.71,5.53,5.53,0,0,1,.4,2.29,3.71,3.71,0,0,1-1,2.74,3.83,3.83,0,0,1-2.84,1,3.17,3.17,0,0,1-2.83-1.34,7.75,7.75,0,0,1-1-4.06l-.07-2.1h-.53a1.64,1.64,0,0,0-1.83,1.88,8.64,8.64,0,0,0,.87,3.41l-2.23,1.09a9.9,9.9,0,0,1-1.09-4.62,5.78,5.78,0,0,1,1.06-3.73,3.9,3.9,0,0,1,3.22-1.3h8Zm-5.59,1,0,1.28a4.07,4.07,0,0,0,.52,2.14,1.63,1.63,0,0,0,1.45.7c.93,0,1.39-.53,1.39-1.6a2.54,2.54,0,0,0-.66-1.83,2.3,2.3,0,0,0-1.75-.69Z" transform="translate(-32.49 -47.68)"/><path class="cls-6" d="M90.33,346.37a5.78,5.78,0,0,1,.09-1.11l3.09.25a3.91,3.91,0,0,0-.1,1,3.51,3.51,0,0,0,.81,2.46,2.91,2.91,0,0,0,2.27.88h6.14v3.3H90.55v-2.5l2-.49V350A4.49,4.49,0,0,1,91,348.45,3.68,3.68,0,0,1,90.33,346.37Z" transform="translate(-32.49 -47.68)"/><path class="cls-6" d="M100.22,338a7.2,7.2,0,0,0-.37-2.08h2.45a7.36,7.36,0,0,1,.55,3,3.69,3.69,0,0,1-1,2.88,4.36,4.36,0,0,1-3,.9H93v1.58h-1.4l-1.1-1.82-2.55-1v-2.11h2.57V336H93v3.38h5.82a1.29,1.29,0,0,0,1-.39A1.56,1.56,0,0,0,100.22,338Z" transform="translate(-32.49 -47.68)"/><path class="cls-6" d="M87.43,333.6c-1.07,0-1.61-.6-1.61-1.79s.54-1.8,1.61-1.8a1.55,1.55,0,0,1,1.19.45,1.87,1.87,0,0,1,.43,1.35C89.05,333,88.51,333.6,87.43,333.6Zm15.2-3.44v3.3H90.55v-3.3Z" transform="translate(-32.49 -47.68)"/><path class="cls-6" d="M102.85,321.8q0,5.64-6.19,5.64A6.63,6.63,0,0,1,92,325.91a5.78,5.78,0,0,1-1.62-4.4,8.31,8.31,0,0,1,.82-3.76l2.55,1c-.21.52-.38,1-.52,1.45a4.73,4.73,0,0,0-.2,1.34q0,2.57,3.66,2.57t3.54-2.57a5.92,5.92,0,0,0-.25-1.77,6.41,6.41,0,0,0-.8-1.62H102a5.45,5.45,0,0,1,.71,1.62A9.08,9.08,0,0,1,102.85,321.8Z" transform="translate(-32.49 -47.68)"/><path class="cls-6" d="M87.43,315.47c-1.07,0-1.61-.6-1.61-1.8s.54-1.79,1.61-1.79a1.55,1.55,0,0,1,1.19.45,1.83,1.83,0,0,1,.43,1.34Q89.05,315.47,87.43,315.47Zm15.2-3.44v3.29H90.55V312Z" transform="translate(-32.49 -47.68)"/><path class="cls-6" d="M102.85,301.93a4,4,0,0,1-1.54,3.34v.18c1-.12,1.59-.18,1.75-.18H108v3.3H90.55v-2.68l1.57-.46v-.16a3.79,3.79,0,0,1-1.79-3.42A3.92,3.92,0,0,1,92,298.5a7.61,7.61,0,0,1,4.59-1.21,9.24,9.24,0,0,1,3.36.56,4.69,4.69,0,0,1,2.17,1.62A4.12,4.12,0,0,1,102.85,301.93Zm-9.89,1a2.08,2.08,0,0,0,.75,1.78,4.24,4.24,0,0,0,2.48.58h.36a5.15,5.15,0,0,0,2.79-.57,2.08,2.08,0,0,0,.84-1.84c0-1.47-1.22-2.21-3.65-2.21a5.3,5.3,0,0,0-2.68.54A1.89,1.89,0,0,0,93,302.91Z" transform="translate(-32.49 -47.68)"/><path class="cls-6" d="M102.63,286.89l-1.64.64v.09a4.91,4.91,0,0,1,1.46,1.71,5.55,5.55,0,0,1,.4,2.3,3.69,3.69,0,0,1-1,2.73,3.83,3.83,0,0,1-2.84,1A3.17,3.17,0,0,1,96.19,294a7.75,7.75,0,0,1-1-4.06l-.07-2.1h-.53a1.64,1.64,0,0,0-1.83,1.89,8.6,8.6,0,0,0,.87,3.4l-2.23,1.09a9.9,9.9,0,0,1-1.09-4.62,5.78,5.78,0,0,1,1.06-3.73,3.9,3.9,0,0,1,3.22-1.3h8Zm-5.59,1,0,1.28a4.07,4.07,0,0,0,.52,2.14,1.63,1.63,0,0,0,1.45.7c.93,0,1.39-.53,1.39-1.6a2.54,2.54,0,0,0-.66-1.83,2.3,2.3,0,0,0-1.75-.69Z" transform="translate(-32.49 -47.68)"/><path class="cls-6" d="M102.63,270v3.3h-7a3.46,3.46,0,0,0-2,.46,1.7,1.7,0,0,0-.66,1.49,2.21,2.21,0,0,0,.93,2,5.6,5.6,0,0,0,3.06.62h5.68v3.3H90.55v-2.52l1.55-.44v-.19a3.45,3.45,0,0,1-1.33-1.52,5.12,5.12,0,0,1-.44-2.2,4.2,4.2,0,0,1,1.14-3.19,4.56,4.56,0,0,1,3.29-1.1Z" transform="translate(-32.49 -47.68)"/><path class="cls-6" d="M100.22,261.56a7.09,7.09,0,0,0-.37-2.07h2.45a7.34,7.34,0,0,1,.55,3,3.69,3.69,0,0,1-1,2.88,4.36,4.36,0,0,1-3,.9H93v1.58h-1.4l-1.1-1.81-2.55-1V263h2.57v-3.38H93V263h5.82a1.27,1.27,0,0,0,1-.4A1.56,1.56,0,0,0,100.22,261.56Z" transform="translate(-32.49 -47.68)"/><path class="cls-6" d="M99.05,248.61a3.31,3.31,0,0,1,2.83,1.3,6.35,6.35,0,0,1,1,3.86,12,12,0,0,1-.18,2.25,8.59,8.59,0,0,1-.52,1.74H99.42a12.23,12.23,0,0,0,.73-2.07,8.67,8.67,0,0,0,.29-2c0-1.2-.35-1.79-1-1.79a.89.89,0,0,0-.63.23,3.45,3.45,0,0,0-.55.83,16.19,16.19,0,0,0-.72,1.55,10,10,0,0,1-1.08,2,3,3,0,0,1-1.14,1,3.74,3.74,0,0,1-1.58.3,2.86,2.86,0,0,1-2.49-1.25,6.05,6.05,0,0,1-.88-3.54,10,10,0,0,1,1-4.25l2.37,1a16.47,16.47,0,0,0-.63,1.69,5.25,5.25,0,0,0-.25,1.61c0,1,.26,1.46.79,1.46a.9.9,0,0,0,.76-.47,12.71,12.71,0,0,0,1-2.05,9.05,9.05,0,0,1,1.07-2.08,3.15,3.15,0,0,1,1.14-1A3.51,3.51,0,0,1,99.05,248.61Z" transform="translate(-32.49 -47.68)"/><path class="cls-2" d="M799.5,84.46a3.41,3.41,0,0,0-2.92,1.42,6.56,6.56,0,0,0-1,4q0,5.3,4,5.29a12.71,12.71,0,0,0,4-.83v2.81a11.24,11.24,0,0,1-4.35.81,6.62,6.62,0,0,1-5.27-2.09,8.87,8.87,0,0,1-1.83-6,9.73,9.73,0,0,1,.9-4.31,6.44,6.44,0,0,1,2.58-2.85,7.6,7.6,0,0,1,3.93-1,10.68,10.68,0,0,1,4.63,1.12l-1.08,2.72a19.06,19.06,0,0,0-1.78-.73A5.35,5.35,0,0,0,799.5,84.46Z" transform="translate(-32.49 -47.68)"/><path class="cls-2" d="M809.93,97.7h-3.29V80.89h3.29Z" transform="translate(-32.49 -47.68)"/><path class="cls-2" d="M822,97.7l-.44-1.54h-.18a3.48,3.48,0,0,1-1.5,1.3,5.2,5.2,0,0,1-2.21.46,4.22,4.22,0,0,1-3.21-1.14,4.6,4.6,0,0,1-1.08-3.28V85.62h3.29v7.06a3.39,3.39,0,0,0,.47,2,1.7,1.7,0,0,0,1.48.65,2.24,2.24,0,0,0,2-.92,5.77,5.77,0,0,0,.61-3.07V85.62h3.3V97.7Z" transform="translate(-32.49 -47.68)"/><path class="cls-2" d="M836.37,94.11a3.31,3.31,0,0,1-1.29,2.83,6.4,6.4,0,0,1-3.87,1,12,12,0,0,1-2.25-.18,8,8,0,0,1-1.74-.53V94.49a12.23,12.23,0,0,0,2.07.73,8.67,8.67,0,0,0,2,.29c1.2,0,1.79-.35,1.79-1a.89.89,0,0,0-.23-.63,3.45,3.45,0,0,0-.83-.55,16.19,16.19,0,0,0-1.55-.72,10,10,0,0,1-2-1.08,3,3,0,0,1-1-1.14,3.76,3.76,0,0,1-.3-1.59,2.88,2.88,0,0,1,1.25-2.49,6.13,6.13,0,0,1,3.54-.88,10.12,10.12,0,0,1,4.25,1l-1,2.38c-.6-.26-1.17-.47-1.69-.64a5.57,5.57,0,0,0-1.61-.25c-1,0-1.46.27-1.46.79a.92.92,0,0,0,.47.77,11.93,11.93,0,0,0,2.06,1,9.59,9.59,0,0,1,2.07,1.07,3.18,3.18,0,0,1,1,1.15A3.5,3.5,0,0,1,836.37,94.11Z" transform="translate(-32.49 -47.68)"/><path class="cls-2" d="M844,95.29a7.2,7.2,0,0,0,2.07-.38v2.46a7.51,7.51,0,0,1-3,.55,3.72,3.72,0,0,1-2.88-1,4.37,4.37,0,0,1-.91-3V88.09h-1.57V86.7l1.81-1.1,1-2.55h2.11v2.57H846v2.47h-3.38v5.83a1.28,1.28,0,0,0,.4,1A1.56,1.56,0,0,0,844,95.29Z" transform="translate(-32.49 -47.68)"/><path class="cls-2" d="M854,97.92a6.27,6.27,0,0,1-4.56-1.61,6.14,6.14,0,0,1-1.64-4.56,6.73,6.73,0,0,1,1.52-4.7,5.42,5.42,0,0,1,4.2-1.66,5.35,5.35,0,0,1,4,1.46,5.52,5.52,0,0,1,1.42,4v1.6h-7.79a3.2,3.2,0,0,0,.83,2.2,3,3,0,0,0,2.19.78,9.16,9.16,0,0,0,2.06-.22,10.42,10.42,0,0,0,2-.73v2.55a7.66,7.66,0,0,1-1.85.65A11.62,11.62,0,0,1,854,97.92Zm-.46-10.18a2.08,2.08,0,0,0-1.64.66,3,3,0,0,0-.68,1.89h4.62a2.73,2.73,0,0,0-.64-1.89A2.15,2.15,0,0,0,853.55,87.74Z" transform="translate(-32.49 -47.68)"/><path class="cls-2" d="M868.37,85.39a5,5,0,0,1,1.11.1l-.25,3.09a3.87,3.87,0,0,0-1-.11,3.51,3.51,0,0,0-2.46.81,2.92,2.92,0,0,0-.88,2.27V97.7h-3.3V85.62h2.5l.49,2h.16A4.52,4.52,0,0,1,866.29,86,3.76,3.76,0,0,1,868.37,85.39Z" transform="translate(-32.49 -47.68)"/><path class="cls-2" d="M884.83,97.7H881.5V88.56l0-1.5.05-1.65c-.55.56-.94.92-1.15,1.1L878.61,88,877,86l5.09-4h2.74Z" transform="translate(-32.49 -47.68)"/><path class="cls-2" d="M799.5,244.2a3.41,3.41,0,0,0-2.92,1.42,6.57,6.57,0,0,0-1,4q0,5.28,4,5.28a12.71,12.71,0,0,0,4-.83v2.81a11.24,11.24,0,0,1-4.35.81,6.62,6.62,0,0,1-5.27-2.09,8.87,8.87,0,0,1-1.83-6,9.73,9.73,0,0,1,.9-4.31,6.44,6.44,0,0,1,2.58-2.85,7.7,7.7,0,0,1,3.93-1,10.68,10.68,0,0,1,4.63,1.12l-1.08,2.72a19.06,19.06,0,0,0-1.78-.73A5.35,5.35,0,0,0,799.5,244.2Z" transform="translate(-32.49 -47.68)"/><path class="cls-2" d="M809.93,257.44h-3.29V240.63h3.29Z" transform="translate(-32.49 -47.68)"/><path class="cls-2" d="M822,257.44l-.44-1.54h-.18a3.48,3.48,0,0,1-1.5,1.3,5.2,5.2,0,0,1-2.21.46,4.22,4.22,0,0,1-3.21-1.14,4.6,4.6,0,0,1-1.08-3.28v-7.88h3.29v7.06a3.39,3.39,0,0,0,.47,2,1.7,1.7,0,0,0,1.48.65,2.24,2.24,0,0,0,2-.92,5.77,5.77,0,0,0,.61-3.07v-5.68h3.3v12.08Z" transform="translate(-32.49 -47.68)"/><path class="cls-2" d="M836.37,253.85a3.35,3.35,0,0,1-1.29,2.84,6.47,6.47,0,0,1-3.87,1,12,12,0,0,1-2.25-.18,8.59,8.59,0,0,1-1.74-.52v-2.73a12.23,12.23,0,0,0,2.07.73,8.67,8.67,0,0,0,2,.29c1.2,0,1.79-.35,1.79-1a.89.89,0,0,0-.23-.63,3.45,3.45,0,0,0-.83-.55,16.19,16.19,0,0,0-1.55-.72,10,10,0,0,1-2-1.08,3,3,0,0,1-1-1.14,3.76,3.76,0,0,1-.3-1.59,2.88,2.88,0,0,1,1.25-2.49,6.13,6.13,0,0,1,3.54-.88,10.12,10.12,0,0,1,4.25,1l-1,2.38c-.6-.26-1.17-.47-1.69-.64a5.56,5.56,0,0,0-1.61-.24c-1,0-1.46.26-1.46.78a.92.92,0,0,0,.47.77,11.93,11.93,0,0,0,2.06,1,10.06,10.06,0,0,1,2.07,1.07,3.18,3.18,0,0,1,1,1.15A3.5,3.5,0,0,1,836.37,253.85Z" transform="translate(-32.49 -47.68)"/><path class="cls-2" d="M844,255a6.87,6.87,0,0,0,2.07-.38v2.46a7.51,7.51,0,0,1-3,.55,3.72,3.72,0,0,1-2.88-1,4.37,4.37,0,0,1-.91-3v-5.83h-1.57v-1.39l1.81-1.1,1-2.55h2.11v2.57H846v2.47h-3.38v5.83a1.28,1.28,0,0,0,.4,1A1.56,1.56,0,0,0,844,255Z" transform="translate(-32.49 -47.68)"/><path class="cls-2" d="M854,257.66a6.27,6.27,0,0,1-4.56-1.61,6.14,6.14,0,0,1-1.64-4.56,6.73,6.73,0,0,1,1.52-4.7,5.42,5.42,0,0,1,4.2-1.66,5.35,5.35,0,0,1,4,1.46,5.52,5.52,0,0,1,1.42,4v1.6h-7.79a3.2,3.2,0,0,0,.83,2.2,3,3,0,0,0,2.19.78,9.16,9.16,0,0,0,2.06-.22,9.8,9.8,0,0,0,2-.73v2.55a7.66,7.66,0,0,1-1.85.65A11.62,11.62,0,0,1,854,257.66Zm-.46-10.18a2.08,2.08,0,0,0-1.64.66,3,3,0,0,0-.68,1.89h4.62a2.74,2.74,0,0,0-.64-1.89A2.15,2.15,0,0,0,853.55,247.48Z" transform="translate(-32.49 -47.68)"/><path class="cls-2" d="M868.37,245.13a5,5,0,0,1,1.11.1l-.25,3.09a3.87,3.87,0,0,0-1-.11,3.51,3.51,0,0,0-2.46.81,2.92,2.92,0,0,0-.88,2.27v6.15h-3.3V245.36h2.5l.49,2h.16a4.52,4.52,0,0,1,1.52-1.64A3.76,3.76,0,0,1,868.37,245.13Z" transform="translate(-32.49 -47.68)"/><path class="cls-2" d="M887.62,257.44h-11v-2.32l4-4c1.18-1.2,2-2,2.31-2.5a5.38,5.38,0,0,0,.77-1.29,3.3,3.3,0,0,0,.24-1.24,1.78,1.78,0,0,0-.52-1.41,2,2,0,0,0-1.4-.47,4,4,0,0,0-1.78.42,10.09,10.09,0,0,0-1.81,1.2l-1.81-2.15a11.43,11.43,0,0,1,1.93-1.4,7,7,0,0,1,1.67-.63,8.54,8.54,0,0,1,2-.23,6,6,0,0,1,2.61.55,4.08,4.08,0,0,1,1.76,1.51,4,4,0,0,1,.63,2.22,5.57,5.57,0,0,1-.38,2.05,8.16,8.16,0,0,1-1.19,2,30.1,30.1,0,0,1-2.84,2.87l-2,1.91v.15h6.88Z" transform="translate(-32.49 -47.68)"/><path class="cls-2" d="M799.5,350.94a3.39,3.39,0,0,0-2.92,1.42,6.56,6.56,0,0,0-1,4q0,5.28,4,5.28a12.44,12.44,0,0,0,4-.83v2.81a11.24,11.24,0,0,1-4.35.81,6.62,6.62,0,0,1-5.27-2.09,8.82,8.82,0,0,1-1.83-6A9.78,9.78,0,0,1,793,352a6.42,6.42,0,0,1,2.58-2.84,7.6,7.6,0,0,1,3.93-1,10.66,10.66,0,0,1,4.63,1.11L803.05,352a16.78,16.78,0,0,0-1.78-.74A5.33,5.33,0,0,0,799.5,350.94Z" transform="translate(-32.49 -47.68)"/><path class="cls-2" d="M809.93,364.18h-3.29V347.36h3.29Z" transform="translate(-32.49 -47.68)"/><path class="cls-2" d="M822,364.18l-.44-1.55h-.18a3.41,3.41,0,0,1-1.5,1.3,5.05,5.05,0,0,1-2.21.46,4.22,4.22,0,0,1-3.21-1.14,4.58,4.58,0,0,1-1.08-3.28v-7.88h3.29v7.06a3.37,3.37,0,0,0,.47,2,1.68,1.68,0,0,0,1.48.66,2.22,2.22,0,0,0,2-.93,5.73,5.73,0,0,0,.61-3.06v-5.69h3.3v12.09Z" transform="translate(-32.49 -47.68)"/><path class="cls-2" d="M836.37,360.59a3.33,3.33,0,0,1-1.29,2.83,6.4,6.4,0,0,1-3.87,1,12,12,0,0,1-2.25-.18,8.59,8.59,0,0,1-1.74-.52V361a12.23,12.23,0,0,0,2.07.72,8.67,8.67,0,0,0,2,.29c1.2,0,1.79-.34,1.79-1a.89.89,0,0,0-.23-.63,3.78,3.78,0,0,0-.83-.55c-.38-.2-.9-.44-1.55-.72a10,10,0,0,1-2-1.08,3,3,0,0,1-1-1.14,3.71,3.71,0,0,1-.3-1.58,2.86,2.86,0,0,1,1.25-2.49,6.05,6.05,0,0,1,3.54-.88,10,10,0,0,1,4.25.95l-1,2.38a16.68,16.68,0,0,0-1.69-.64,5.25,5.25,0,0,0-1.61-.25c-1,0-1.46.26-1.46.79a.93.93,0,0,0,.47.77,13.74,13.74,0,0,0,2.06,1,9.59,9.59,0,0,1,2.07,1.07,3.15,3.15,0,0,1,1,1.14A3.51,3.51,0,0,1,836.37,360.59Z" transform="translate(-32.49 -47.68)"/><path class="cls-2" d="M844,361.77a7.2,7.2,0,0,0,2.07-.38v2.45a7.34,7.34,0,0,1-3,.55,3.69,3.69,0,0,1-2.88-1,4.34,4.34,0,0,1-.91-3v-5.82h-1.57v-1.4l1.81-1.1,1-2.55h2.11v2.57H846v2.48h-3.38v5.82a1.27,1.27,0,0,0,.4,1A1.57,1.57,0,0,0,844,361.77Z" transform="translate(-32.49 -47.68)"/><path class="cls-2" d="M854,364.39a6.22,6.22,0,0,1-4.56-1.61,6.1,6.1,0,0,1-1.64-4.56,6.7,6.7,0,0,1,1.52-4.69,5.39,5.39,0,0,1,4.2-1.66,5.31,5.31,0,0,1,4,1.46,5.51,5.51,0,0,1,1.42,4V359h-7.79a3.19,3.19,0,0,0,.83,2.19,2.93,2.93,0,0,0,2.19.79,9.16,9.16,0,0,0,2.06-.23,10.35,10.35,0,0,0,2-.72v2.55a7.64,7.64,0,0,1-1.85.64A11.62,11.62,0,0,1,854,364.39Zm-.46-10.18a2.06,2.06,0,0,0-1.64.67,3,3,0,0,0-.68,1.88h4.62a2.72,2.72,0,0,0-.64-1.88A2.13,2.13,0,0,0,853.55,354.21Z" transform="translate(-32.49 -47.68)"/><path class="cls-2" d="M868.37,351.87a5.78,5.78,0,0,1,1.11.09l-.25,3.09a3.91,3.91,0,0,0-1-.1,3.51,3.51,0,0,0-2.46.81,2.91,2.91,0,0,0-.88,2.27v6.15h-3.3V352.09h2.5l.49,2h.16a4.49,4.49,0,0,1,1.52-1.63A3.68,3.68,0,0,1,868.37,351.87Z" transform="translate(-32.49 -47.68)"/><path class="cls-2" d="M887,351.91a3.71,3.71,0,0,1-.9,2.52,4.67,4.67,0,0,1-2.52,1.42v.07a5,5,0,0,1,2.9,1.16,3.28,3.28,0,0,1,1,2.49,4.22,4.22,0,0,1-1.65,3.55,7.6,7.6,0,0,1-4.72,1.27,11.41,11.41,0,0,1-4.56-.85V360.7a9.83,9.83,0,0,0,2,.75,8.22,8.22,0,0,0,2.18.29,4.19,4.19,0,0,0,2.44-.56,2,2,0,0,0,.79-1.8,1.63,1.63,0,0,0-.91-1.58,6.67,6.67,0,0,0-2.89-.47H879v-2.56h1.22a5.66,5.66,0,0,0,2.68-.48,1.73,1.73,0,0,0,.85-1.65c0-1.19-.75-1.79-2.25-1.79a5.27,5.27,0,0,0-1.58.26,7.48,7.48,0,0,0-1.79.9l-1.54-2.31a8.63,8.63,0,0,1,5.15-1.55,6.69,6.69,0,0,1,3.88,1A3.22,3.22,0,0,1,887,351.91Z" transform="translate(-32.49 -47.68)"/><path class="cls-2" d="M798.35,459.11a3.39,3.39,0,0,0-2.92,1.42,6.56,6.56,0,0,0-1,4q0,5.28,4,5.28a12.44,12.44,0,0,0,4-.83v2.81a11.24,11.24,0,0,1-4.35.81,6.6,6.6,0,0,1-5.27-2.09,8.82,8.82,0,0,1-1.83-6,9.81,9.81,0,0,1,.9-4.32,6.47,6.47,0,0,1,2.58-2.84,7.6,7.6,0,0,1,3.93-1,10.66,10.66,0,0,1,4.63,1.11l-1.08,2.73a19.17,19.17,0,0,0-1.78-.74A5.33,5.33,0,0,0,798.35,459.11Z" transform="translate(-32.49 -47.68)"/><path class="cls-2" d="M808.78,472.35h-3.29V455.53h3.29Z" transform="translate(-32.49 -47.68)"/><path class="cls-2" d="M820.8,472.35l-.44-1.55h-.18a3.41,3.41,0,0,1-1.5,1.3,5.05,5.05,0,0,1-2.21.46,4.22,4.22,0,0,1-3.21-1.14,4.58,4.58,0,0,1-1.08-3.28v-7.88h3.29v7.06a3.37,3.37,0,0,0,.47,2,1.68,1.68,0,0,0,1.48.66,2.22,2.22,0,0,0,2-.93A5.71,5.71,0,0,0,820,466v-5.69h3.3v12.09Z" transform="translate(-32.49 -47.68)"/><path class="cls-2" d="M835.22,468.76a3.33,3.33,0,0,1-1.29,2.83,6.4,6.4,0,0,1-3.87,1,12,12,0,0,1-2.25-.18,8.17,8.17,0,0,1-1.74-.52v-2.72a11.41,11.41,0,0,0,2.07.72,8.17,8.17,0,0,0,2,.29c1.2,0,1.79-.34,1.79-1a.93.93,0,0,0-.23-.64,3.92,3.92,0,0,0-.82-.55q-.58-.3-1.56-.72a10,10,0,0,1-2.05-1.08,3.09,3.09,0,0,1-.95-1.14,3.71,3.71,0,0,1-.3-1.58,2.88,2.88,0,0,1,1.25-2.49,6.05,6.05,0,0,1,3.54-.88,10.12,10.12,0,0,1,4.25.95l-1,2.38a16.68,16.68,0,0,0-1.69-.64,5.25,5.25,0,0,0-1.61-.25c-1,0-1.46.26-1.46.79a.93.93,0,0,0,.47.77,13.74,13.74,0,0,0,2.06,1,9.59,9.59,0,0,1,2.07,1.07,3.15,3.15,0,0,1,1,1.14A3.54,3.54,0,0,1,835.22,468.76Z" transform="translate(-32.49 -47.68)"/><path class="cls-2" d="M842.88,469.94a7.14,7.14,0,0,0,2.07-.38V472a7.34,7.34,0,0,1-3,.55,3.69,3.69,0,0,1-2.88-1,4.34,4.34,0,0,1-.9-3v-5.82h-1.58v-1.39l1.81-1.11,1-2.55h2.11v2.57h3.38v2.48h-3.38v5.82a1.27,1.27,0,0,0,.4,1A1.52,1.52,0,0,0,842.88,469.94Z" transform="translate(-32.49 -47.68)"/><path class="cls-2" d="M852.86,472.56A6.22,6.22,0,0,1,848.3,471a6.1,6.1,0,0,1-1.64-4.56,6.7,6.7,0,0,1,1.52-4.69,5.39,5.39,0,0,1,4.2-1.66,5.29,5.29,0,0,1,4,1.46,5.51,5.51,0,0,1,1.42,4v1.6H850a3.19,3.19,0,0,0,.83,2.19,2.93,2.93,0,0,0,2.19.79,9.16,9.16,0,0,0,2.06-.23,10.13,10.13,0,0,0,2-.72v2.55a7.49,7.49,0,0,1-1.85.64A11.62,11.62,0,0,1,852.86,472.56Zm-.46-10.18a2.06,2.06,0,0,0-1.64.67,3,3,0,0,0-.68,1.88h4.62a2.72,2.72,0,0,0-.64-1.88A2.13,2.13,0,0,0,852.4,462.38Z" transform="translate(-32.49 -47.68)"/><path class="cls-2" d="M867.22,460a5.78,5.78,0,0,1,1.11.09l-.25,3.1a3.45,3.45,0,0,0-1-.11,3.51,3.51,0,0,0-2.46.81,2.92,2.92,0,0,0-.88,2.27v6.15h-3.3V460.26H863l.49,2h.16a4.44,4.44,0,0,1,1.52-1.64A3.76,3.76,0,0,1,867.22,460Z" transform="translate(-32.49 -47.68)"/><path class="cls-2" d="M886.83,469.07h-1.9v3.28h-3.26v-3.28h-6.75v-2.32l6.93-10.2h3.08v9.93h1.9Zm-5.16-2.59V463.8c0-.45,0-1.1.05-1.95s.06-1.34.09-1.48h-.09a12.81,12.81,0,0,1-1,1.73l-2.9,4.38Z" transform="translate(-32.49 -47.68)"/><path class="cls-2" d="M796.06,562.68a3.4,3.4,0,0,0-2.93,1.42,6.59,6.59,0,0,0-1,4q0,5.28,4,5.28a12.39,12.39,0,0,0,4-.83v2.81a11.24,11.24,0,0,1-4.35.81,6.63,6.63,0,0,1-5.27-2.09,8.84,8.84,0,0,1-1.83-6,9.75,9.75,0,0,1,.9-4.32,6.48,6.48,0,0,1,2.58-2.84,7.61,7.61,0,0,1,3.94-1,10.65,10.65,0,0,1,4.62,1.11l-1.08,2.72a18,18,0,0,0-1.78-.73A5.31,5.31,0,0,0,796.06,562.68Z" transform="translate(-32.49 -47.68)"/><path class="cls-2" d="M806.48,575.91h-3.29V559.1h3.29Z" transform="translate(-32.49 -47.68)"/><path class="cls-2" d="M818.5,575.91l-.44-1.54h-.17a3.5,3.5,0,0,1-1.51,1.3,5,5,0,0,1-2.21.46A4.22,4.22,0,0,1,811,575a4.58,4.58,0,0,1-1.08-3.28v-7.88h3.29v7.06a3.39,3.39,0,0,0,.47,2,1.67,1.67,0,0,0,1.48.65,2.22,2.22,0,0,0,2-.92,5.75,5.75,0,0,0,.61-3.06v-5.69H821v12.08Z" transform="translate(-32.49 -47.68)"/><path class="cls-2" d="M832.92,572.33a3.33,3.33,0,0,1-1.29,2.83,6.38,6.38,0,0,1-3.87,1,11.86,11.86,0,0,1-2.24-.18,8.59,8.59,0,0,1-1.74-.52V572.7a11.81,11.81,0,0,0,2.06.73,8.67,8.67,0,0,0,2,.29c1.2,0,1.8-.35,1.8-1a.85.85,0,0,0-.24-.63,3.35,3.35,0,0,0-.82-.55c-.39-.21-.91-.44-1.56-.72a10,10,0,0,1-2-1.08,3.09,3.09,0,0,1-1-1.14,3.74,3.74,0,0,1-.3-1.58,2.86,2.86,0,0,1,1.25-2.49,6.05,6.05,0,0,1,3.54-.88,10,10,0,0,1,4.25.95l-1,2.37a16.47,16.47,0,0,0-1.69-.63,5.21,5.21,0,0,0-1.61-.25c-1,0-1.46.26-1.46.79a.92.92,0,0,0,.47.76,12.52,12.52,0,0,0,2.06,1,9.16,9.16,0,0,1,2.07,1.07,3.06,3.06,0,0,1,1,1.14A3.51,3.51,0,0,1,832.92,572.33Z" transform="translate(-32.49 -47.68)"/><path class="cls-2" d="M840.58,573.5a7.2,7.2,0,0,0,2.08-.37v2.45a7.39,7.39,0,0,1-3,.55,3.69,3.69,0,0,1-2.88-1,4.36,4.36,0,0,1-.9-3v-5.82h-1.58v-1.4l1.81-1.1,1-2.55h2.1v2.57h3.39v2.48h-3.39v5.82a1.27,1.27,0,0,0,.4,1A1.56,1.56,0,0,0,840.58,573.5Z" transform="translate(-32.49 -47.68)"/><path class="cls-2" d="M850.57,576.13a6.27,6.27,0,0,1-4.57-1.61,6.1,6.1,0,0,1-1.64-4.56,6.74,6.74,0,0,1,1.52-4.7,5.42,5.42,0,0,1,4.2-1.65,5.33,5.33,0,0,1,4,1.45,5.54,5.54,0,0,1,1.42,4v1.6H847.7a3.2,3.2,0,0,0,.83,2.2,3,3,0,0,0,2.19.79,9.16,9.16,0,0,0,2.06-.23,10.13,10.13,0,0,0,2-.72v2.55a7.49,7.49,0,0,1-1.85.64A11.58,11.58,0,0,1,850.57,576.13ZM850.1,566a2.06,2.06,0,0,0-1.64.67,3,3,0,0,0-.68,1.88h4.62a2.67,2.67,0,0,0-.64-1.88A2.13,2.13,0,0,0,850.1,566Z" transform="translate(-32.49 -47.68)"/><path class="cls-2" d="M864.92,563.61a5.71,5.71,0,0,1,1.11.09l-.25,3.09a3.86,3.86,0,0,0-1-.1,3.51,3.51,0,0,0-2.46.81,2.91,2.91,0,0,0-.88,2.27v6.14h-3.3V563.83h2.5l.49,2h.16a4.49,4.49,0,0,1,1.52-1.63A3.7,3.7,0,0,1,864.92,563.61Z" transform="translate(-32.49 -47.68)"/><path class="cls-2" d="M878.88,565.82a5.09,5.09,0,0,1,3.65,1.29,4.62,4.62,0,0,1,1.35,3.52,5.1,5.1,0,0,1-1.63,4.07,6.83,6.83,0,0,1-4.67,1.43,9.12,9.12,0,0,1-4.25-.85v-2.89a8.79,8.79,0,0,0,2,.74,8.92,8.92,0,0,0,2.15.29c2,0,3.06-.84,3.06-2.51s-1-2.39-3.16-2.39a7.42,7.42,0,0,0-1.27.12,7.85,7.85,0,0,0-1.12.24l-1.33-.71.59-8.06h8.57V563h-5.64l-.29,3.1.38-.08A7.48,7.48,0,0,1,878.88,565.82Z" transform="translate(-32.49 -47.68)"/></svg>