<svg xmlns="http://www.w3.org/2000/svg" viewBox="0 0 92.14 102.31"><g style="isolation:isolate"><g id="Layer_2" data-name="Layer 2"><g id="Layer_1-2" data-name="Layer 1"><path d="M92.14,95.8c0,3.59-20.62,6.51-46.07,6.51S0,99.39,0,95.8s20.63-6.52,46.07-6.52S92.14,92.2,92.14,95.8Z" style="fill:#666cb2;opacity:0.4;mix-blend-mode:multiply"/><rect x="16.5" width="58.27" height="90.05" rx="2.65" style="fill:#221e53"/><path d="M70.68,82.5a2.31,2.31,0,0,1-2.28,2.34H22.87A2.31,2.31,0,0,1,20.6,82.5V7.55a2.31,2.31,0,0,1,2.27-2.34H68.4a2.31,2.31,0,0,1,2.28,2.34Z" style="fill:#fff"/><path d="M76,20.65a1.5,1.5,0,0,1-1.5,1.5h0a1.5,1.5,0,0,1-1.5-1.5V11.86a1.51,1.51,0,0,1,1.5-1.51h0A1.51,1.51,0,0,1,76,11.86Z" style="fill:#221e53"/><path d="M76,31.35a1.17,1.17,0,0,1-1.2,1.15h0a1.17,1.17,0,0,1-1.2-1.15V24.63a1.18,1.18,0,0,1,1.2-1.16h0A1.18,1.18,0,0,1,76,24.63Z" style="fill:#221e53"/><rect x="30.82" y="55.14" width="5.55" height="21.65" style="fill:#ffd56c"/><rect x="39.59" y="50.01" width="5.55" height="26.77" style="fill:#221e53"/><rect x="48.59" y="61.05" width="5.55" height="15.75" style="fill:#db79b1"/><rect x="57.31" y="54.23" width="5.55" height="22.57" style="fill:#72b3e2"/><polygon points="51.71 58.89 42.31 41.99 33.97 53.4 33.21 52.84 42.42 40.25 51.92 57.33 59.76 49.3 60.43 49.95 51.71 58.89" style="fill:#221e53"/><path d="M35.76,52.56a1.68,1.68,0,1,1-1.68-1.68A1.68,1.68,0,0,1,35.76,52.56Z" style="fill:#3f50a2"/><path d="M44.25,41.12a1.68,1.68,0,1,1-1.68-1.67A1.68,1.68,0,0,1,44.25,41.12Z" style="fill:#3f50a2"/><path d="M53.47,58.11a1.68,1.68,0,1,1-1.68-1.67A1.68,1.68,0,0,1,53.47,58.11Z" style="fill:#3f50a2"/><path d="M61.77,49.62a1.68,1.68,0,1,1-1.68-1.68A1.68,1.68,0,0,1,61.77,49.62Z" style="fill:#3f50a2"/><path d="M46.84,11.64h-.07V24.53H59.46c0-.09,0-.18,0-.27A12.63,12.63,0,0,0,46.84,11.64Z" style="fill:#221e53"/><path d="M46.86,24.47V11.64h0A12.64,12.64,0,0,0,34.22,24.31v.16Z" style="fill:#ffd56c"/><path d="M34.22,24.47a12.62,12.62,0,0,0,25.24,0Z" style="fill:#db79b1"/><path d="M67.76,37.68s-.17,1.63-1.56,1.63-1.51-1.63-1.51-1.63V36h3.07Z" style="fill:#f48065"/><path d="M71.62,56.7l1.23-16.5a2,2,0,0,0-1.15-2.14,15,15,0,0,0-3.93-.41l-1.59,1.61-1.51-1.61a12,12,0,0,0-4,.39,2,2,0,0,0-1.32,2.22s1,12.09,1.22,16.45Z" style="fill:#72b3e2"/><polygon points="63.74 95.02 66.42 64.34 68.18 95.02 70.92 95.04 71.62 56.7 60.58 56.71 61.05 95.04 63.74 95.02" style="fill:#3f50a2"/><path d="M68.76,35.94a5.5,5.5,0,0,1-2.63,1.62c-.79,0-2.4-1.55-2.5-1.83a15.09,15.09,0,0,1-.41-5A3,3,0,0,1,66.36,28a2.81,2.81,0,0,1,3,2.44A13.7,13.7,0,0,1,68.76,35.94Z" style="fill:#f5886c"/><path d="M61.05,95s-4.46,2.1-4,3.11,6.59-1.47,6.59-1.47L63.74,95Z" style="fill:#221e53"/><path d="M70.87,95s4.47,2.1,4,3.11-6.58-1.47-6.58-1.47L68.18,95Z" style="fill:#221e53"/><path d="M62.83,32.47l.63.37s.27-2.09.77-2c3.47.88,3.14-.84,4.46-.09a2.68,2.68,0,0,1,.42,2.12l.6-.25s.37-4.47-3-4.75C66.74,27.91,62.8,27.43,62.83,32.47Z" style="fill:#221e53"/><path d="M72.26,59.43l-.72.92a.87.87,0,0,1-1.24.06A.94.94,0,0,1,70,59.5a4.51,4.51,0,0,1,.92-1.27,4.39,4.39,0,0,1-.88.23.27.27,0,0,1-.07-.52l.67-.2c.06,0,1.49-.48,1.64-1l1,.71s-.1,0-.34.69A5.28,5.28,0,0,1,72.26,59.43Z" style="fill:#f5886c"/><path d="M74,50.77,71.82,57.2l1.12.67s2.55-4.14,4-7.1Z" style="fill:#f5886c"/><path d="M74.88,48.08l-1.44,4.13,2.33,1a28.82,28.82,0,0,0,2.09-4.76c.07-1.17-2.23-6-3.25-7.45-2.07-3-3.49-3.06-3.49-3.06a9.58,9.58,0,0,1,1.63,4.4c.12,1.54,2.13,5.77,2.13,5.77Z" style="fill:#64abde"/><path d="M75.93,52.77a.31.31,0,0,1,.16.42l-.1.23a.31.31,0,0,1-.41.18l-2.28-1a.32.32,0,0,1-.15-.42l.1-.23a.31.31,0,0,1,.41-.18Z" style="fill:#56a6db"/><path d="M69.13,58.35l2.4,2.06s-2.19,2.67-3,1.84C68.51,62.25,66.44,59.91,69.13,58.35Z" style="fill:#3f50a2"/><path d="M60,59.38c.19.23.72.91.72.91a.86.86,0,0,0,1.24.06.89.89,0,0,0,.33-.9,4.31,4.31,0,0,0-.92-1.27,4.59,4.59,0,0,0,.88.23.28.28,0,0,0,.25-.19.27.27,0,0,0-.18-.33l-.67-.2c-.05,0-1.49-.48-1.63-1l-.95.72s.09-.05.33.69A5.47,5.47,0,0,0,60,59.38Z" style="fill:#f5886c"/><path d="M55.05,50a83.82,83.82,0,0,0,4.29,7.87l1.12-.67L58.05,50Z" style="fill:#f5886c"/><path d="M57.41,48l1.44,4.12-2.34,1a29.71,29.71,0,0,1-2.09-4.76c-.07-1.17,2.23-6,3.25-7.45,2.08-3,3.49-3.06,3.49-3.06a7.63,7.63,0,0,0-1.63,4.41C59.49,43.8,57.4,48,57.4,48Z" style="fill:#64abde"/><path d="M56.35,52.71a.32.32,0,0,0-.16.42l.1.24a.31.31,0,0,0,.41.18l2.28-1a.32.32,0,0,0,.16-.42L59,51.92a.31.31,0,0,0-.41-.17Z" style="fill:#56a6db"/><path d="M63.15,58.3l-2.4,2.06s2.19,2.67,3,1.84C63.77,62.2,65.84,59.86,63.15,58.3Z" style="fill:#3f50a2"/><path d="M69,33.69s-.37,1.69-.88,1.86-1.1-.51-2-.51c-1.05,0-1.39.63-2,.34-.41-.18-.63-1.61-.63-1.61L63,34a8.81,8.81,0,0,0,.6,1.92,3.55,3.55,0,0,0,2.54,1.87,3.55,3.55,0,0,0,2.79-1.92,12.82,12.82,0,0,0,.61-1.94Z" style="fill:#221e53"/><path d="M63.58,33.26a.77.77,0,0,1-.59.85c-.28,0-.42-.31-.46-.77s.08-.85.37-.87S63.54,32.8,63.58,33.26Z" style="fill:#f5886c"/><path d="M68.89,33.34a.78.78,0,0,0,.56.87c.28,0,.43-.3.48-.75s-.05-.86-.34-.89S68.94,32.88,68.89,33.34Z" style="fill:#f5886c"/><path d="M65.19,35.92a1.67,1.67,0,0,1,1.86,0,1,1,0,0,1-.92.64S65.36,36.49,65.19,35.92Z" style="fill:#f5886c"/><path d="M29.42,39.54s-.39,1.59-1.77,1.4-1.27-1.82-1.27-1.82l.22-1.65,3,.42Z" style="fill:#f48065"/><path d="M49,46.33l1-.67A.84.84,0,0,0,50,44.44a.89.89,0,0,0-.88-.39,4.29,4.29,0,0,0-1.32.84,4.66,4.66,0,0,0,.28-.87.27.27,0,0,0-.52-.1l-.24.67s-.57,1.45-1.08,1.57l.66,1s0-.1.71-.29A5.46,5.46,0,0,0,49,46.33Z" style="fill:#f5886c"/><path d="M40.55,51a67.81,67.81,0,0,0,7-4.17l-.68-1.24-6.53,2.87Z" style="fill:#f5886c"/><path d="M41.37,47.85l-4,1.76a21,21,0,0,0-3.76-8.8,2.4,2.4,0,0,0-2.1-1.12A10.5,10.5,0,0,1,33,46c-.1,2.48,1.68,6.27,2.71,6.85.73.41,4.38-1.36,6.89-2.69Z" style="fill:#64abde"/><path d="M30.17,57.7l3.59-15.32a2,2,0,0,0-.85-2.28,9.54,9.54,0,0,0-3.48-.6l-1.79,1.39-1.27-1.81a7,7,0,0,0-3.5-.49,2,2,0,0,0-1.61,2S20,51.92,19.62,56.27Z" style="fill:#72b3e2"/><path d="M22.84,96.28l1.94-30.47,4.47,30.47h2.89l-2-39L19.59,56.1a48.27,48.27,0,0,0-.89,5c-.25,7.89,1.22,31.24,1.47,35.18Z" style="fill:#3f50a2"/><path d="M31,37.23a5.51,5.51,0,0,1-2.65,1.29A4.4,4.4,0,0,1,26,37.19a15.33,15.33,0,0,1-.43-5,3,3,0,0,1,3.14-2.72,2.81,2.81,0,0,1,3,2.43A12.91,12.91,0,0,1,31,37.23Z" style="fill:#f5886c"/><path d="M31.72,32.15a6.13,6.13,0,0,0-4.18.68s-1,1.85-1.56,1.69a6.14,6.14,0,0,0,.27,3,1.74,1.74,0,0,1-1-.91,6.48,6.48,0,0,1-.42-3.41c.4-3.28,2.1-3.87,3.69-4A3.12,3.12,0,0,1,31.72,32.15Z" style="fill:#221e53"/><path d="M26.61,34.39a.78.78,0,0,1-.58.86c-.29,0-.43-.31-.47-.76s.08-.85.37-.88S26.57,33.94,26.61,34.39Z" style="fill:#f5886c"/><path d="M31.92,96.2s5.3.14,4.65,1.62l-7.26,0-.08-1.66Z" style="fill:#221e53"/><path d="M22.84,96.2s1.22.91.73,2c-.3.65-3.42.14-3.42.14s-1-.44,0-2.16Z" style="fill:#221e53"/><path d="M18.89,59.6l.57,1a.85.85,0,0,0,1.21.24.9.9,0,0,0,.47-.84,4.11,4.11,0,0,0-.72-1.39,5,5,0,0,0,.84.36.29.29,0,0,0,.27-.16.26.26,0,0,0-.12-.35l-.64-.3c-.05,0-1.4-.7-1.47-1.22l-1,.57s.09,0,.22.73A5.27,5.27,0,0,0,18.89,59.6Z" style="fill:#f5886c"/><path d="M15.37,49.54A84.8,84.8,0,0,0,18.44,58l1.22-.49L18.34,50Z" style="fill:#f5886c"/><path d="M18,48l.81,4.3-2.45.61a30.17,30.17,0,0,1-1.36-5c.11-1.18,3.1-5.57,4.33-6.89,2.5-2.68,3.91-2.5,3.91-2.5A7.58,7.58,0,0,0,21,42.6C20.69,44.12,18,48,18,48Z" style="fill:#64abde"/><path d="M16.25,52.46a.32.32,0,0,0-.22.39l.06.25a.33.33,0,0,0,.39.24l2.39-.62a.32.32,0,0,0,.22-.39L19,52.08a.32.32,0,0,0-.38-.24Z" style="fill:#64abde"/><path d="M22.14,59l-2.68,1.68s1.77,3,2.71,2.27C22.17,62.94,24.57,60.94,22.14,59Z" style="fill:#3f50a2"/><path d="M41.83,47.54a.33.33,0,0,0-.43-.14l-.23.11a.33.33,0,0,0-.16.43l1.07,2.22a.32.32,0,0,0,.43.14l.23-.11a.33.33,0,0,0,.16-.42Z" style="fill:#64abde"/><path d="M33.5,29.81c-.46.48-.94.2-1.53-.34A2.54,2.54,0,0,0,30.7,29c.32,0,.67-.26.08-.29s-2.18.21-1.85.15,1.29-.44.25-.37a5.27,5.27,0,0,0-2.21.91c.16-.18.68-.76,0-.4A3.32,3.32,0,0,0,26,30.25c0-.45.12-1.05-.08-.84a1.39,1.39,0,0,0-.31.57c-.06.34.13.54,0,.56-.47.05-1.09.68-.59.57.77-.18.36.8.34,1.07a30.75,30.75,0,0,1,6.33,0c.84.15,1.24-.13,2.11-2.11C33.77,30,34.08,29.2,33.5,29.81Z" style="fill:#221e53"/></g></g></g></svg>