<svg xmlns="http://www.w3.org/2000/svg" viewBox="0 0 98.82 98.82"><defs><style>.cls-1{fill:#fdb816;}.cls-2{fill:#fff;}.cls-3{fill:#f37666;}.cls-4{fill:#035b83;}.cls-5{fill:#054062;}</style></defs><g id="Layer_2" data-name="Layer 2"><g id="Layer_1-2" data-name="Layer 1"><circle class="cls-1" cx="49.41" cy="49.41" r="49.41"/><path class="cls-2" d="M21.81,22a1.68,1.68,0,0,1,1.65-2l1.64-.16A1.59,1.59,0,0,1,27,21.44l.37,3.73a1.61,1.61,0,0,1-1.6,1.95l-1.63.16a1.63,1.63,0,0,1-2-1.6Zm2.55,4,1-.1c.46,0,.7-.24.65-.78l-.32-3.3c-.05-.46-.27-.69-.75-.65l-1.05.11a.64.64,0,0,0-.64.78l.32,3.29A.66.66,0,0,0,24.36,26Z"/><path class="cls-3" d="M30.41,31.34a1.7,1.7,0,0,1,1.63-2l1.63-.18a1.59,1.59,0,0,1,2,1.58l.42,3.73a1.61,1.61,0,0,1-1.57,2l-1.63.19a1.64,1.64,0,0,1-2-1.57ZM33,35.27l1-.11c.47,0,.7-.26.64-.79l-.37-3.3c0-.45-.28-.69-.76-.63l-1,.12a.65.65,0,0,0-.64.79l.37,3.28A.66.66,0,0,0,33,35.27Z"/><path class="cls-3" d="M63.67,18.73a1.69,1.69,0,0,1,2.24-1.34l1.59.4A1.59,1.59,0,0,1,68.78,20l-.91,3.64a1.61,1.61,0,0,1-2.16,1.3l-1.6-.4a1.64,1.64,0,0,1-1.34-2.18Zm1.07,4.59.94.24c.46.12.75,0,.88-.52l.81-3.21a.61.61,0,0,0-.49-.86l-1-.26a.66.66,0,0,0-.87.52l-.81,3.21A.66.66,0,0,0,64.74,23.32Z"/><path class="cls-3" d="M60.12,30.22a1.69,1.69,0,0,1,1.63-2L63.38,28a1.59,1.59,0,0,1,2,1.58l.42,3.73a1.61,1.61,0,0,1-1.57,2l-1.63.18a1.63,1.63,0,0,1-2-1.57Zm2.62,3.93,1-.11c.47,0,.7-.25.64-.79L64,30c0-.46-.28-.69-.75-.64l-1,.12a.65.65,0,0,0-.63.79l.36,3.29A.66.66,0,0,0,62.74,34.15Z"/><path class="cls-3" d="M71.8,41.38a1.68,1.68,0,0,1,1.62-2l1.63-.18a1.59,1.59,0,0,1,2,1.57l.42,3.74a1.6,1.6,0,0,1-1.56,2l-1.64.18a1.63,1.63,0,0,1-2-1.57Zm2.61,3.92,1-.1c.47-.06.7-.26.64-.8l-.36-3.29c-.06-.46-.28-.69-.76-.64l-1,.12a.65.65,0,0,0-.63.79l.37,3.29A.65.65,0,0,0,74.41,45.3Z"/><path class="cls-2" d="M47,81.62a1.7,1.7,0,0,1,1.63-2l1.63-.18a1.59,1.59,0,0,1,2,1.58l.42,3.73a1.61,1.61,0,0,1-1.57,2l-1.63.19a1.65,1.65,0,0,1-2-1.57Zm2.61,3.93,1-.11c.46,0,.7-.26.64-.79l-.37-3.3c-.05-.45-.28-.69-.76-.63l-1,.12a.65.65,0,0,0-.64.79l.37,3.29A.66.66,0,0,0,49.6,85.55Z"/><path class="cls-2" d="M42,28.23a1.68,1.68,0,0,1,2.53-.59l1.4.86A1.59,1.59,0,0,1,46.48,31l-2,3.2a1.62,1.62,0,0,1-2.46.58l-1.39-.87A1.63,1.63,0,0,1,40,31.38Zm-.38,4.7.82.52a.63.63,0,0,0,1-.23l1.75-2.82a.62.62,0,0,0-.21-1l-.89-.55a.66.66,0,0,0-1,.23l-1.74,2.81A.66.66,0,0,0,41.61,32.93Z"/><path class="cls-4" d="M54,20.72a1.69,1.69,0,0,1,1.14-2.34l1.55-.54A1.59,1.59,0,0,1,59,18.94l1.24,3.54a1.62,1.62,0,0,1-1.09,2.28l-1.55.54a1.65,1.65,0,0,1-2.33-1.08ZM57.45,24l.92-.32a.61.61,0,0,0,.45-.91l-1.09-3.13c-.16-.44-.43-.61-.88-.45l-1,.35a.65.65,0,0,0-.44.91l1.09,3.12A.65.65,0,0,0,57.45,24Z"/><path class="cls-3" d="M33.22,18.2a1.69,1.69,0,0,1,2.54-.6l1.39.87a1.59,1.59,0,0,1,.57,2.45l-2,3.19a1.6,1.6,0,0,1-2.45.58l-1.4-.86a1.65,1.65,0,0,1-.62-2.49Zm-.37,4.7.82.51a.62.62,0,0,0,1-.23l1.74-2.81a.62.62,0,0,0-.2-1l-.9-.56a.65.65,0,0,0-1,.24l-1.75,2.81A.66.66,0,0,0,32.85,22.9Z"/><path class="cls-4" d="M71.87,28.79a1.69,1.69,0,0,1,2.54-.6l1.4.87a1.59,1.59,0,0,1,.56,2.45l-2,3.19a1.6,1.6,0,0,1-2.45.58l-1.4-.86a1.65,1.65,0,0,1-.62-2.49Zm-.37,4.7.82.51a.62.62,0,0,0,1-.22L75.06,31a.62.62,0,0,0-.2-1l-.9-.55a.64.64,0,0,0-1,.23l-1.75,2.81A.66.66,0,0,0,71.5,33.49Z"/><path class="cls-4" d="M50.32,36.4a1.7,1.7,0,0,1,2.54-.6l1.4.87a1.59,1.59,0,0,1,.56,2.45l-2,3.19a1.6,1.6,0,0,1-2.45.59L49,42a1.64,1.64,0,0,1-.63-2.49ZM50,41.1l.82.51a.62.62,0,0,0,1-.22l1.74-2.82a.61.61,0,0,0-.2-1l-.9-.55a.64.64,0,0,0-1,.23l-1.74,2.81A.65.65,0,0,0,50,41.1Z"/><path class="cls-2" d="M57.7,38.35a1.69,1.69,0,0,1,2.1-1.55l1.62.24a1.6,1.6,0,0,1,1.49,2l-.56,3.72a1.6,1.6,0,0,1-2,1.5l-1.63-.24a1.64,1.64,0,0,1-1.55-2Zm1.51,4.47,1,.14c.47.07.75-.06.83-.6l.49-3.28a.62.62,0,0,0-.57-.81l-1-.15a.65.65,0,0,0-.81.6L58.57,42A.67.67,0,0,0,59.21,42.82Z"/><path class="cls-4" d="M20.33,36.35a1.69,1.69,0,0,1,1.44-2.17l1.61-.33a1.59,1.59,0,0,1,2.09,1.4l.75,3.68A1.61,1.61,0,0,1,24.84,41l-1.61.32A1.64,1.64,0,0,1,21.07,40Zm3,3.68.95-.19a.62.62,0,0,0,.57-.85l-.67-3.24c-.09-.46-.34-.67-.81-.57l-1,.21a.65.65,0,0,0-.56.85l.66,3.24A.66.66,0,0,0,23.29,40Z"/><path class="cls-2" d="M28.64,40l1.12-1.21,1.33-.41,2.14,7-1.34.41-1.74-5.67-1.24.75Z"/><path class="cls-2" d="M48.73,89.75l1.49-.69,1.39.12-.67,7.3-1.4-.13.54-5.91-1.43.23Z"/><path class="cls-2" d="M40.34,38.08l1.58-.47,1.35.32-1.71,7.13-1.37-.33L41.58,39H40.13Z"/><path class="cls-2" d="M71,18.38l1.4-.88,1.39,0L74,24.79l-1.41,0L72.4,18.9l-1.4.39Z"/><path class="cls-2" d="M48.77,14.17l1.58-.48L51.7,14,50,21.15l-1.37-.33L50,15.05H48.56Z"/><path class="cls-3" d="M49.74,28.06l.77-1.45,1.19-.73,3.85,6.24-1.19.73L51.24,27.8l-1,1Z"/><path class="cls-4" d="M39.7,16.78l.77-1.45,1.19-.73,3.85,6.23-1.2.74-3.12-5.05-1,1Z"/><path class="cls-2" d="M66.66,38.08l1.58-.47,1.35.32-1.71,7.13-1.37-.33L67.9,39H66.45Z"/><polygon class="cls-4" points="79.93 52.58 49.41 76.11 18.89 52.58 79.93 52.58"/><rect class="cls-4" x="45.03" y="70.8" width="8.76" height="10.73"/><rect class="cls-5" x="18.89" y="45.05" width="61.04" height="7.53"/></g></g></svg>