<?xml version="1.0" encoding="UTF-8" standalone="no"?>
<!DOCTYPE svg PUBLIC "-//W3C//DTD SVG 1.1//EN"
 "http://www.w3.org/Graphics/SVG/1.1/DTD/svg11.dtd">
<!-- Generated by graphviz version 2.47.0 (20210316.0004)
 -->
<!-- Title: G Pages: 1 -->
<svg width="1912pt" height="437pt"
 viewBox="0.00 0.00 1912.00 437.07" xmlns="http://www.w3.org/2000/svg" xmlns:xlink="http://www.w3.org/1999/xlink">
<g id="graph0" class="graph" transform="scale(1 1) rotate(0) translate(4 433.07)">
<title>G</title>
<polygon fill="white" stroke="transparent" points="-4,4 -4,-433.07 1908,-433.07 1908,4 -4,4"/>
<!-- Sensory -->
<g id="node1" class="node">
<title>Sensory</title>
<ellipse fill="#cae6df" stroke="black" cx="827" cy="-383.58" rx="40.09" ry="40.09"/>
<text text-anchor="middle" x="827" y="-379.88" font-family="Times New Roman,serif" font-size="14.00">Sensory</text>
</g>
<!-- Social_Communication -->
<g id="node7" class="node">
<title>Social_Communication</title>
<ellipse fill="#cae6df" stroke="black" cx="924" cy="-180.54" rx="95.58" ry="95.58"/>
<text text-anchor="middle" x="924" y="-176.84" font-family="Times New Roman,serif" font-size="14.00">Social_Communication</text>
</g>
<!-- Sensory&#45;&gt;Social_Communication -->
<g id="edge2" class="edge">
<title>Sensory&#45;&gt;Social_Communication</title>
<path fill="none" stroke="black" d="M843.33,-346.73C850.76,-330.59 859.72,-311.33 868,-294.08 870.92,-288 873.95,-281.75 877.02,-275.46"/>
<polygon fill="black" stroke="black" points="880.29,-276.74 881.55,-266.22 874.01,-273.66 880.29,-276.74"/>
<text text-anchor="middle" x="893" y="-310.48" font-family="Times New Roman,serif" font-size="12.00">&#45;0.342</text>
<text text-anchor="middle" x="893" y="-297.48" font-family="Times New Roman,serif" font-size="12.00">p&#45;val: 0.00</text>
</g>
<!-- SSP_TOTAL_RS -->
<g id="node18" class="node">
<title>SSP_TOTAL_RS</title>
<polygon fill="none" stroke="black" points="810.5,-198.54 689.5,-198.54 689.5,-162.54 810.5,-162.54 810.5,-198.54"/>
<text text-anchor="middle" x="750" y="-176.84" font-family="Times New Roman,serif" font-size="14.00">SSP_TOTAL_RS</text>
</g>
<!-- Sensory&#45;&gt;SSP_TOTAL_RS -->
<g id="edge10" class="edge">
<title>Sensory&#45;&gt;SSP_TOTAL_RS</title>
<path fill="none" stroke="black" d="M812.88,-345.71C797.7,-306.09 773.95,-244.06 760.4,-208.68"/>
<polygon fill="black" stroke="black" points="763.54,-207.12 756.7,-199.03 757.01,-209.62 763.54,-207.12"/>
<text text-anchor="middle" x="817" y="-303.98" font-family="Times New Roman,serif" font-size="12.00">1.000</text>
</g>
<!-- Anxiety -->
<g id="node2" class="node">
<title>Anxiety</title>
<ellipse fill="#cae6df" stroke="black" cx="518" cy="-383.58" rx="38.19" ry="38.19"/>
<text text-anchor="middle" x="518" y="-379.88" font-family="Times New Roman,serif" font-size="14.00">Anxiety</text>
</g>
<!-- Anxiety&#45;&gt;Social_Communication -->
<g id="edge3" class="edge">
<title>Anxiety&#45;&gt;Social_Communication</title>
<path fill="none" stroke="black" d="M553,-367.22C577.48,-355.76 610.43,-338.89 637,-320.08 650.86,-310.27 649.58,-301.2 665,-294.08 727.57,-265.21 756.21,-304.48 819,-276.08 830.11,-271.06 840.87,-264.42 850.98,-256.99"/>
<polygon fill="black" stroke="black" points="853.15,-259.73 858.96,-250.87 848.89,-254.18 853.15,-259.73"/>
<text text-anchor="middle" x="690" y="-310.48" font-family="Times New Roman,serif" font-size="12.00">&#45;0.126</text>
<text text-anchor="middle" x="690" y="-297.48" font-family="Times New Roman,serif" font-size="12.00">p&#45;val: 0.00</text>
</g>
<!-- CBCL_ANXIETY_PROBLEMS_PER -->
<g id="node9" class="node">
<title>CBCL_ANXIETY_PROBLEMS_PER</title>
<polygon fill="none" stroke="black" points="511.5,-198.54 274.5,-198.54 274.5,-162.54 511.5,-162.54 511.5,-198.54"/>
<text text-anchor="middle" x="393" y="-176.84" font-family="Times New Roman,serif" font-size="14.00">CBCL_ANXIETY_PROBLEMS_PER</text>
</g>
<!-- Anxiety&#45;&gt;CBCL_ANXIETY_PROBLEMS_PER -->
<g id="edge11" class="edge">
<title>Anxiety&#45;&gt;CBCL_ANXIETY_PROBLEMS_PER</title>
<path fill="none" stroke="black" d="M498.19,-350.72C473.51,-311.02 431.8,-243.94 409.02,-207.31"/>
<polygon fill="black" stroke="black" points="411.91,-205.33 403.66,-198.69 405.97,-209.03 411.91,-205.33"/>
<text text-anchor="middle" x="492" y="-303.98" font-family="Times New Roman,serif" font-size="12.00">1.000</text>
</g>
<!-- RRB -->
<g id="node3" class="node">
<title>RRB</title>
<ellipse fill="#cae6df" stroke="black" cx="694" cy="-383.58" rx="29.5" ry="29.5"/>
<text text-anchor="middle" x="694" y="-379.88" font-family="Times New Roman,serif" font-size="14.00">RRB</text>
</g>
<!-- RRB&#45;&gt;Social_Communication -->
<g id="edge6" class="edge">
<title>RRB&#45;&gt;Social_Communication</title>
<path fill="none" stroke="black" d="M701.52,-354.92C708.35,-335.06 720.4,-309.22 740,-294.08 768.5,-272.07 787.03,-292.67 819,-276.08 829.74,-270.51 840.24,-263.58 850.19,-256.02"/>
<polygon fill="black" stroke="black" points="852.35,-258.77 858.04,-249.83 848.02,-253.27 852.35,-258.77"/>
<text text-anchor="middle" x="765" y="-310.48" font-family="Times New Roman,serif" font-size="12.00">0.485</text>
<text text-anchor="middle" x="765" y="-297.48" font-family="Times New Roman,serif" font-size="12.00">p&#45;val: 0.00</text>
</g>
<!-- RRB_TOTAL -->
<g id="node16" class="node">
<title>RRB_TOTAL</title>
<polygon fill="none" stroke="black" points="628.5,-198.54 529.5,-198.54 529.5,-162.54 628.5,-162.54 628.5,-198.54"/>
<text text-anchor="middle" x="579" y="-176.84" font-family="Times New Roman,serif" font-size="14.00">RRB_TOTAL</text>
</g>
<!-- RRB&#45;&gt;RRB_TOTAL -->
<g id="edge15" class="edge">
<title>RRB&#45;&gt;RRB_TOTAL</title>
<path fill="none" stroke="black" d="M666.4,-373.54C623.2,-359.13 543.69,-331.4 536,-320.08 512.16,-285.01 538.28,-236.14 558.96,-206.8"/>
<polygon fill="black" stroke="black" points="561.79,-208.85 564.87,-198.71 556.14,-204.72 561.79,-208.85"/>
<text text-anchor="middle" x="550" y="-303.98" font-family="Times New Roman,serif" font-size="12.00">1.000</text>
</g>
<!-- Attention -->
<g id="node4" class="node">
<title>Attention</title>
<ellipse fill="#cae6df" stroke="black" cx="238" cy="-383.58" rx="44.39" ry="44.39"/>
<text text-anchor="middle" x="238" y="-379.88" font-family="Times New Roman,serif" font-size="14.00">Attention</text>
</g>
<!-- Attention&#45;&gt;Social_Communication -->
<g id="edge4" class="edge">
<title>Attention&#45;&gt;Social_Communication</title>
<path fill="none" stroke="black" d="M281.23,-374.32C369.8,-357.39 563.62,-320.32 564,-320.08 576.09,-312.43 570.49,-301.04 583,-294.08 628.96,-268.5 770.65,-296.79 819,-276.08 830.3,-271.25 841.2,-264.68 851.42,-257.25"/>
<polygon fill="black" stroke="black" points="853.63,-259.96 859.47,-251.12 849.39,-254.39 853.63,-259.96"/>
<text text-anchor="middle" x="608" y="-310.48" font-family="Times New Roman,serif" font-size="12.00">0.182</text>
<text text-anchor="middle" x="608" y="-297.48" font-family="Times New Roman,serif" font-size="12.00">p&#45;val: 0.00</text>
</g>
<!-- CBCL_ATTENTION_PROBLEMS_PER -->
<g id="node10" class="node">
<title>CBCL_ATTENTION_PROBLEMS_PER</title>
<polygon fill="none" stroke="black" points="256,-198.54 0,-198.54 0,-162.54 256,-162.54 256,-198.54"/>
<text text-anchor="middle" x="128" y="-176.84" font-family="Times New Roman,serif" font-size="14.00">CBCL_ATTENTION_PROBLEMS_PER</text>
</g>
<!-- Attention&#45;&gt;CBCL_ATTENTION_PROBLEMS_PER -->
<g id="edge12" class="edge">
<title>Attention&#45;&gt;CBCL_ATTENTION_PROBLEMS_PER</title>
<path fill="none" stroke="black" d="M217.05,-344.29C195.17,-304.3 161.44,-242.66 142.39,-207.84"/>
<polygon fill="black" stroke="black" points="145.3,-205.86 137.43,-198.77 139.16,-209.22 145.3,-205.86"/>
<text text-anchor="middle" x="217" y="-303.98" font-family="Times New Roman,serif" font-size="12.00">1.000</text>
</g>
<!-- SES -->
<g id="node5" class="node">
<title>SES</title>
<ellipse fill="#cae6df" stroke="black" cx="1210" cy="-383.58" rx="26.8" ry="26.8"/>
<text text-anchor="middle" x="1210" y="-379.88" font-family="Times New Roman,serif" font-size="14.00">SES</text>
</g>
<!-- SES&#45;&gt;Social_Communication -->
<g id="edge7" class="edge">
<title>SES&#45;&gt;Social_Communication</title>
<path fill="none" stroke="black" d="M1183.93,-377.46C1134.12,-367.28 1027.79,-343.42 999,-320.08 994.19,-316.19 983.41,-297.73 971.49,-275.5"/>
<polygon fill="black" stroke="black" points="974.47,-273.66 966.69,-266.48 968.29,-276.95 974.47,-273.66"/>
<text text-anchor="middle" x="1024" y="-310.48" font-family="Times New Roman,serif" font-size="12.00">0.198</text>
<text text-anchor="middle" x="1024" y="-297.48" font-family="Times New Roman,serif" font-size="12.00">p&#45;val: 0.00</text>
</g>
<!-- EDUC_PMRY_CGVR_MEAN -->
<g id="node11" class="node">
<title>EDUC_PMRY_CGVR_MEAN</title>
<polygon fill="none" stroke="black" points="1504,-198.54 1308,-198.54 1308,-162.54 1504,-162.54 1504,-198.54"/>
<text text-anchor="middle" x="1406" y="-176.84" font-family="Times New Roman,serif" font-size="14.00">EDUC_PMRY_CGVR_MEAN</text>
</g>
<!-- SES&#45;&gt;EDUC_PMRY_CGVR_MEAN -->
<g id="edge17" class="edge">
<title>SES&#45;&gt;EDUC_PMRY_CGVR_MEAN</title>
<path fill="none" stroke="black" d="M1228.44,-363.67C1264.07,-327.12 1342.35,-246.82 1381.99,-206.17"/>
<polygon fill="black" stroke="black" points="1384.68,-208.43 1389.15,-198.82 1379.67,-203.54 1384.68,-208.43"/>
<text text-anchor="middle" x="1321" y="-310.48" font-family="Times New Roman,serif" font-size="12.00">0.320</text>
<text text-anchor="middle" x="1321" y="-297.48" font-family="Times New Roman,serif" font-size="12.00">p&#45;val: 0.00</text>
</g>
<!-- HSHLD_INCOME_STD -->
<g id="node13" class="node">
<title>HSHLD_INCOME_STD</title>
<polygon fill="none" stroke="black" points="1289.5,-198.54 1130.5,-198.54 1130.5,-162.54 1289.5,-162.54 1289.5,-198.54"/>
<text text-anchor="middle" x="1210" y="-176.84" font-family="Times New Roman,serif" font-size="14.00">HSHLD_INCOME_STD</text>
</g>
<!-- SES&#45;&gt;HSHLD_INCOME_STD -->
<g id="edge16" class="edge">
<title>SES&#45;&gt;HSHLD_INCOME_STD</title>
<path fill="none" stroke="black" d="M1210,-356.71C1210,-318.61 1210,-247.75 1210,-208.85"/>
<polygon fill="black" stroke="black" points="1213.5,-208.78 1210,-198.78 1206.5,-208.78 1213.5,-208.78"/>
<text text-anchor="middle" x="1224" y="-303.98" font-family="Times New Roman,serif" font-size="12.00">1.000</text>
</g>
<!-- Language -->
<g id="node6" class="node">
<title>Language</title>
<ellipse fill="#cae6df" stroke="black" cx="1630" cy="-383.58" rx="45.49" ry="45.49"/>
<text text-anchor="middle" x="1630" y="-379.88" font-family="Times New Roman,serif" font-size="14.00">Language</text>
</g>
<!-- Language&#45;&gt;Social_Communication -->
<g id="edge5" class="edge">
<title>Language&#45;&gt;Social_Communication</title>
<path fill="none" stroke="black" d="M1588.15,-365.71C1534.13,-344.8 1436.76,-309.97 1350,-294.08 1279.72,-281.22 1094.96,-303.54 1029,-276.08 1017.65,-271.36 1006.73,-264.86 996.49,-257.47"/>
<polygon fill="black" stroke="black" points="998.52,-254.61 988.43,-251.36 994.29,-260.19 998.52,-254.61"/>
<text text-anchor="middle" x="1476" y="-310.48" font-family="Times New Roman,serif" font-size="12.00">&#45;0.123</text>
<text text-anchor="middle" x="1476" y="-297.48" font-family="Times New Roman,serif" font-size="12.00">p&#45;val: 0.00</text>
</g>
<!-- LISTENING_COMPREHENSION -->
<g id="node14" class="node">
<title>LISTENING_COMPREHENSION</title>
<polygon fill="none" stroke="black" points="1738,-198.54 1522,-198.54 1522,-162.54 1738,-162.54 1738,-198.54"/>
<text text-anchor="middle" x="1630" y="-176.84" font-family="Times New Roman,serif" font-size="14.00">LISTENING_COMPREHENSION</text>
</g>
<!-- Language&#45;&gt;LISTENING_COMPREHENSION -->
<g id="edge14" class="edge">
<title>Language&#45;&gt;LISTENING_COMPREHENSION</title>
<path fill="none" stroke="black" d="M1630,-337.96C1630,-298.47 1630,-242.09 1630,-208.91"/>
<polygon fill="black" stroke="black" points="1633.5,-208.61 1630,-198.61 1626.5,-208.61 1633.5,-208.61"/>
<text text-anchor="middle" x="1655" y="-310.48" font-family="Times New Roman,serif" font-size="12.00">1.030</text>
<text text-anchor="middle" x="1655" y="-297.48" font-family="Times New Roman,serif" font-size="12.00">p&#45;val: 0.00</text>
</g>
<!-- ORAL_EXPRESSION -->
<g id="node15" class="node">
<title>ORAL_EXPRESSION</title>
<polygon fill="none" stroke="black" points="1904,-198.54 1756,-198.54 1756,-162.54 1904,-162.54 1904,-198.54"/>
<text text-anchor="middle" x="1830" y="-176.84" font-family="Times New Roman,serif" font-size="14.00">ORAL_EXPRESSION</text>
</g>
<!-- Language&#45;&gt;ORAL_EXPRESSION -->
<g id="edge13" class="edge">
<title>Language&#45;&gt;ORAL_EXPRESSION</title>
<path fill="none" stroke="black" d="M1664.21,-353.25C1688.05,-332.38 1720.25,-303.32 1747,-276.08 1769.23,-253.45 1792.95,-226.07 1809.32,-206.61"/>
<polygon fill="black" stroke="black" points="1812.13,-208.71 1815.86,-198.79 1806.76,-204.21 1812.13,-208.71"/>
<text text-anchor="middle" x="1742" y="-303.98" font-family="Times New Roman,serif" font-size="12.00">1.000</text>
</g>
<!-- SCQ_SC_DOMAIN -->
<g id="node17" class="node">
<title>SCQ_SC_DOMAIN</title>
<polygon fill="none" stroke="black" points="991,-36 857,-36 857,0 991,0 991,-36"/>
<text text-anchor="middle" x="924" y="-14.3" font-family="Times New Roman,serif" font-size="14.00">SCQ_SC_DOMAIN</text>
</g>
<!-- Social_Communication&#45;&gt;SCQ_SC_DOMAIN -->
<g id="edge8" class="edge">
<title>Social_Communication&#45;&gt;SCQ_SC_DOMAIN</title>
<path fill="none" stroke="black" d="M924,-84.76C924,-70.71 924,-57.27 924,-46.25"/>
<polygon fill="black" stroke="black" points="927.5,-46.09 924,-36.09 920.5,-46.09 927.5,-46.09"/>
<text text-anchor="middle" x="938" y="-57.4" font-family="Times New Roman,serif" font-size="12.00">1.000</text>
</g>
<!-- IQ -->
<g id="node8" class="node">
<title>IQ</title>
<ellipse fill="#cae6df" stroke="black" cx="1002" cy="-383.58" rx="20.6" ry="20.6"/>
<text text-anchor="middle" x="1002" y="-379.88" font-family="Times New Roman,serif" font-size="14.00">IQ</text>
</g>
<!-- IQ&#45;&gt;Social_Communication -->
<g id="edge1" class="edge">
<title>IQ&#45;&gt;Social_Communication</title>
<path fill="none" stroke="black" d="M984.07,-372.87C966.76,-362.38 941.51,-343.93 930,-320.08 924.89,-309.5 921.51,-297.91 919.39,-286.08"/>
<polygon fill="black" stroke="black" points="922.84,-285.48 917.89,-276.12 915.92,-286.52 922.84,-285.48"/>
<text text-anchor="middle" x="955" y="-310.48" font-family="Times New Roman,serif" font-size="12.00">&#45;0.174</text>
<text text-anchor="middle" x="955" y="-297.48" font-family="Times New Roman,serif" font-size="12.00">p&#45;val: 0.00</text>
</g>
<!-- FULL_IQ -->
<g id="node12" class="node">
<title>FULL_IQ</title>
<polygon fill="none" stroke="black" points="1112,-198.54 1038,-198.54 1038,-162.54 1112,-162.54 1112,-198.54"/>
<text text-anchor="middle" x="1075" y="-176.84" font-family="Times New Roman,serif" font-size="14.00">FULL_IQ</text>
</g>
<!-- IQ&#45;&gt;FULL_IQ -->
<g id="edge9" class="edge">
<title>IQ&#45;&gt;FULL_IQ</title>
<path fill="none" stroke="black" d="M1017.05,-368.7C1028.81,-356.93 1044.53,-339 1053,-320.08 1069.24,-283.82 1073.71,-237.5 1074.82,-208.68"/>
<polygon fill="black" stroke="black" points="1078.33,-208.64 1075.1,-198.55 1071.33,-208.45 1078.33,-208.64"/>
<text text-anchor="middle" x="1076" y="-303.98" font-family="Times New Roman,serif" font-size="12.00">1.000</text>
</g>
</g>
</svg>
