<svg xmlns="http://www.w3.org/2000/svg" viewBox="0 0 98.82 98.82"><defs><style>.cls-1{fill:#f37666;}.cls-2{fill:#044163;}.cls-3{fill:#67c8c9;}.cls-4{fill:#fdb817;}</style></defs><g id="Layer_2" data-name="Layer 2"><g id="Layer_1-2" data-name="Layer 1"><circle class="cls-1" cx="49.41" cy="49.41" r="49.41"/><path class="cls-2" d="M77.57,77.57H21.84a.58.58,0,0,1-.59-.57V21.25h1.18V76.39H77.57Z"/><circle class="cls-3" cx="29.81" cy="67.1" r="1.48"/><circle class="cls-3" cx="38.18" cy="67.07" r="1.48"/><circle class="cls-3" cx="38.18" cy="61.02" r="1.48"/><circle class="cls-3" cx="45.29" cy="60.35" r="1.48"/><circle class="cls-3" cx="45.51" cy="56.35" r="1.48"/><circle class="cls-3" cx="51.74" cy="57.5" r="1.48"/><circle class="cls-3" cx="45.74" cy="51.26" r="1.48"/><circle class="cls-3" cx="52.87" cy="47.75" r="1.48"/><circle class="cls-3" cx="57.76" cy="52.94" r="1.48"/><circle class="cls-3" cx="63.96" cy="57.12" r="1.48"/><circle class="cls-3" cx="55.32" cy="40.41" r="1.48"/><circle class="cls-3" cx="63.09" cy="43.58" r="1.48"/><circle class="cls-3" cx="62.9" cy="35.65" r="1.48"/><circle class="cls-3" cx="70.01" cy="45.25" r="1.48"/><circle class="cls-3" cx="44.09" cy="46.2" r="1.48"/><circle class="cls-3" cx="38.41" cy="55.91" r="1.48"/><circle class="cls-3" cx="31.29" cy="35.54" r="1.48"/><rect class="cls-4" x="42.35" y="23.3" width="2" height="54.61" rx="1" transform="translate(40.11 -15.95) rotate(37.8)"/></g></g></svg>