<svg xmlns="http://www.w3.org/2000/svg" viewBox="0 0 652.85 343.42"><defs><style>.cls-1{fill:#fff;}.cls-2{fill:#282828;}</style></defs><title>Asset 2</title><g id="Layer_2" data-name="Layer 2"><g id="TEXT"><path class="cls-1" d="M188.32,289.68H232a20.58,20.58,0,0,0,20.56-20.55v-64.8l23.89-7.79L265.81,120c-.35-3.55-.84-7.11-1.47-10.58A133.06,133.06,0,0,0,133.23,0C59.77,0,0,59.77,0,133.23c0,.7,0,1.43,0,2.17.06,3.33.23,6.65.52,9.88.61,8,1.65,17.21,2.76,27C5.48,191.53,8,213.35,8,233V343.42H164.28V313.73A24.07,24.07,0,0,1,188.32,289.68Z"/><path class="cls-1" d="M464.53,289.68H420.88a20.57,20.57,0,0,1-20.55-20.55v-64.8l-23.9-7.79L387.05,120c.34-3.55.84-7.11,1.46-10.58A133.06,133.06,0,0,1,519.62,0c73.47,0,133.23,59.77,133.23,133.23,0,.7,0,1.43,0,2.17-.05,3.33-.23,6.65-.52,9.88-.6,8-1.65,17.21-2.76,27-2.17,19.26-4.64,41.08-4.64,60.72V343.42H488.58V313.73A24.08,24.08,0,0,0,464.53,289.68Z"/><path class="cls-2" d="M92.72,136.6c-6,6-7.63,15.87-3.18,23.25s13.94,10.6,22,8.05a.8.8,0,0,0,.35-1.32c-9.55-10.38-26.93-11-37.27-1.48a.79.79,0,0,0,.16,1.24c10.42,5.65,24.53,3,31.8-6.56,7.56-9.92,5.78-25-3.28-33.31a.81.81,0,0,0-1.25.16c-3.6,4.75-1.5,11.33,2.82,14.87,4.81,3.93,11.33,2.86,15.39-1.62a15.27,15.27,0,0,0,2-17.76c-3.65-6.27-10.9-9.56-18-9.67a.79.79,0,0,0-.79.79C105.21,133,125.92,148,145.18,143.4a.81.81,0,0,0,.55-1c-4.11-14.39-21-23-35.06-17.81a.8.8,0,0,0-.35,1.32,64.78,64.78,0,0,0,45.42,16.67c.85,0,1.12-1.39.21-1.56l-21-3.87c.06.48.12,1,.19,1.45,5-3.1,5.75-9.64,3.38-14.69-2.77-5.91-9.39-7.94-15.22-5.14C116.57,122,113,129.9,115.58,137a19.15,19.15,0,0,0,16.34,12c7.16.52,15.47-3.43,17-11,1.4-6.84-2.89-13.63-10.13-13.94-4.3-.18-8.48,1.57-12.31,3.34a51.88,51.88,0,0,0-11.33,6.9c-6.07,5-10.21,12.1-9.33,20.16a17.88,17.88,0,0,0,3.36,8.83c1.14,1.5,4.28,4.94,6.42,4.36,1.28-.35,2.62-2.25,3.38-3.26a15.14,15.14,0,0,0,2.47-5.09,12.89,12.89,0,0,0-1.17-9.93c-3.3-5.44-11.44-7.67-16.72-3.78-5.92,4.37-6.79,13.29-4.7,19.82a24.75,24.75,0,0,0,13.46,15.07c7.21,3.08,15.45,1.56,21.72-2.93a26.19,26.19,0,0,0,11.11-19.27c.48-7.77-3.1-15.37-8.62-20.7-5.84-5.65-14-9-22.21-7.93-7.26.91-13.3,5.68-14.49,13.09-1.09,6.75,1.51,13.93,6,19,5.73,6.43,14.74,9,23,10.08a142.44,142.44,0,0,0,14.31.94.81.81,0,0,0,.79-.8,59.32,59.32,0,0,0-13.83-37.76,55.78,55.78,0,0,0-7.66-7.55c-2.24-1.81-4.89-4-8-3.78-5.17.36-7,6.5-7.32,10.78-.87,11.83,5.69,23.91,15.46,30.41a25.12,25.12,0,0,0,31.11-2.27c9-8,13-20.69,14.84-32.23,2.36-14.85,2.66-31-3-45.22-4.76-12-14.57-22.55-27.22-26.15-14.09-4-27.33,3-38,11.73-22.77,18.66-40.14,44.09-49.92,71.8-4.18,11.86-9.5,28-1,39.22,8,10.67,23.8,10.69,35.82,10.2a151.31,151.31,0,0,0,85.9-31.23c11-8.52,21.32-18.91,26.53-32.07,4.88-12.36,4.61-27.58-3.67-38.45-8.41-11-23.11-15.8-36.45-16.87a73.49,73.49,0,0,0-39.43,8.06c-10.91,5.67-25.22,16-25.7,29.62-.49,14,12.73,23.72,25.12,26.47,7.49,1.66,15.23,1.61,22.87,1.45.53,0,1.07-.69.68-1.2-16.44-21.42-48.85-27.6-72-13.54a.8.8,0,0,0-.28,1.08,63.86,63.86,0,0,0,45.41,26.85c15.82,1.71,37.07-3.16,43.55-19.7,6.95-17.71-11-31.1-25.21-36.92-7.33-3-15.68-5-23.61-3.57-7.15,1.33-13.07,6.63-13.25,14.25-.24,10,8.37,18.23,16.21,23a71.84,71.84,0,0,0,34.63,10.37.8.8,0,0,0,.79-.79,70,70,0,0,0-32.61-59.13.81.81,0,0,0-1.17.47,129.6,129.6,0,0,0-1,84.06,128.38,128.38,0,0,0,84.21,81.44.8.8,0,0,0,1-1,765.66,765.66,0,0,0-37.71-94.1q-11-22.82-23.42-44.87c-3.93-7-7.8-14-12.27-20.66-3.35-4.95-7.23-9.77-12.28-13.09-10.77-7.08-22.9-3.16-31.25,5.62C72,86,66.58,98.79,62.81,111c-7.29,23.63-8.25,52.14,7.45,72.73,3.53,4.64,7.62,9,13.51,10.31,4.26,1,9.51-.1,10-5.26.57-5.77-6.28-8.8-10.86-10-9.66-2.55-19.7-4.1-29.48-6.11l.47,1.16L130.52,58.13l-1.45-.19a406.16,406.16,0,0,1,12.7,122.58l1.56-.21a398.55,398.55,0,0,1-5.12-94l-1.35.56a58.09,58.09,0,0,1,12.57,43.58l.59-.76c-8,3.26-16.45.39-24.31-1.76l-25.7-7L48.63,106.78l-.21,1.56a651,651,0,0,0,151-14.61q21.29-4.62,42.22-10.66a.8.8,0,0,0-.21-1.56c-49.81-1.37-98.78,13.83-148.61,10.07a148.12,148.12,0,0,1-40.76-8.7l.35,1.33c4-3.39,8,2.31,9.62,5.5,2.15,4.31,2.59,9.49,3.53,14.16q3.27,16.22,6.55,32.44l13.2,65.46q3.73,18.49,7.46,37c.19.93,1.5.64,1.56-.21q4.24-60.54,5-121.26.21-17.33.13-34.67c0-.86-1.43-1.13-1.55-.22-.8,5.8-1.42,11.62-1.8,17.45-.35,5.29-1.24,11.31-.18,16.54,1.72,8.49,10.79,7.59,16.52,3.79,7.06-4.68,11.56-13.76,13.14-21.87,1.52-7.85.39-16.69-4.9-23-9-10.76-29.12-12.29-35.36,2.21-3.17,7.36-.9,15.72,2.78,22.44,4.53,8.26,11.38,14.56,19,20a117.24,117.24,0,0,0,66.5,21.34.79.79,0,0,0,.79-.79c-1.92-18.39-18.86-32.77-37-33.85-18.5-1.1-33.14,13.38-36.52,30.88-1.86,9.65-.3,19.81,5.32,28a.8.8,0,0,0,1.45-.19,142.17,142.17,0,0,0,7.12-84.76.78.78,0,0,0-1-.55C100,85.37,93.64,100.85,95.4,114.91c1.95,15.66,14.19,26.66,29.77,28.06,16.31,1.47,33.19-7.09,40.57-21.88,8.15-16.34,5.11-36.94-5.5-51.45-5.61-7.67-13.63-14.32-23-16.59-8.75-2.12-17.73.32-24.83,5.68C96.2,71,94.18,92.27,101.79,110c6.84,15.95,24.47,37.48,44.34,31.19,8.33-2.65,14.76-9.74,17.7-17.83,3.55-9.75,1.75-20.68-2.39-29.94-7.7-17.2-25.56-32.58-45.4-30.76-16,1.47-31.5,17.65-27.49,34.31s24.71,24.58,40.26,24.31c6.25-.11,15.17-2.3,15.94-9.82.95-9.42-11.46-15.23-18.48-18.25A71.42,71.42,0,0,0,67.93,94,71.59,71.59,0,0,0,31.6,135.31c-2.48,7.34-6.48,19.85,1.75,25,3.67,2.29,8.37,2.75,12.57,3.29a105.67,105.67,0,0,0,14.23.87,118.28,118.28,0,0,0,54-13.72,116.2,116.2,0,0,0,41.6-36.4c10-14.49,19-35.18,11-52.54-4.31-9.3-13.26-14.29-22.2-18.36-9.95-4.52-21.16-9.39-32.32-7.1C93.26,40.23,87,62.23,86.24,79c-2.08,45.25,26.31,85,59.6,112.73,17.66,14.71,37.09,27.12,56.63,39.14,20.2,12.43,40.81,24.26,62.28,34.37,41.72,19.67,87.77,33,134.24,27.05,44.17-5.63,84.16-27.37,120.08-52.67,9.2-6.48,18.2-13.23,27.08-20.13s17.73-13.64,26.1-21c7.92-7,15.23-14.95,19.43-24.77s5.07-20.4,3.77-30.83c-2.66-21.36-13.34-41.18-25-58.89C559.35,67.2,546.17,51.52,530,39.49a108,108,0,0,0-25.46-14.21c-9.33-3.59-21.23-7.46-31-3.7-8.1,3.11-12.75,10.91-15.81,18.6-3.72,9.31-6.18,19.31-8.4,29.07-4.37,19.25-6.85,40-1.53,59.29,5.12,18.61,17.95,33.14,35.08,41.73,17.3,8.68,36.83,11.8,55.83,14.21,10.73,1.36,22.2,3.24,32.76-.07a35.37,35.37,0,0,0,18.94-14.95c10.4-16.09,11.72-37.36,12.48-55.94.91-22.26-1.73-45.4-14-64.55C578.69,33,562.55,22,543.44,20.62c-18.65-1.3-37.54,5.9-51.6,18-15.37,13.25-24.68,32.46-29.11,52a141.4,141.4,0,0,0-.63,60.19c3.87,18.18,12.34,36.06,27.27,47.7,16.9,13.19,40.35,17,61.3,16,9.92-.45,19.75-3.18,26.43-10.94,5.9-6.86,8.67-15.9,10-24.71,3.06-20.9,0-43.1-7.06-62.91s-18.67-39.47-35.07-53.16c-14.74-12.31-34.47-19.63-53.18-12.14C475.78,57.08,465.21,72,458.1,87a168.85,168.85,0,0,0-9.38,25.3,232,232,0,0,0-7.78,35.4c-2.66,21.15-.12,44,13.17,61.47,12.34,16.18,31.86,22.49,51.51,23.64a204.22,204.22,0,0,0,31.37-1c10.66-1,21.86-2.35,31.12-8.19,15.28-9.64,20.55-28.45,20.83-45.56.34-20.62-5.66-41.65-14.54-60.11-9-18.7-21.89-36.83-39.12-48.76-15.57-10.77-36.26-16.48-53.39-5.7-16.86,10.63-25.2,32.42-28.68,51.16-3.67,19.83-.36,40.53,14.06,55.39,12.07,12.45,29.08,19,45.79,22.33,18.3,3.6,38.37,4.39,56.65.36,9.37-2.06,18.46-5.86,25.71-12.26,7.76-6.85,12.73-16.27,15.77-26.06,10.94-35.31-1-75.41-26.29-101.65C571.25,38.57,552.83,27.57,533.12,25c-21.29-2.78-41.44,7-57.17,20.66-30.81,26.82-48.6,69.29-44.72,110.09,3.56,37.57,26.94,72.45,60.79,89.42,18.21,9.13,40.81,13.8,60.62,7.36,17.82-5.79,31.55-20.54,38.78-37.51,17.58-41.25-3.06-90.44-30.31-122.38-13.42-15.72-30.57-30.38-51.28-34.89-9.19-2-18.81-1.59-27.5,2.15-9,3.89-16.14,11-21.54,19-20.44,30.48-22.74,78.45,6.47,104.31,27.94,24.75,70.19,20.32,104.31,15.67,1-.14.58-1.66-.42-1.53-33.74,4.6-76,9.09-103.39-15.81-27.8-25.29-25.45-71-6.34-100.71,5.25-8.17,12.29-15.46,21.29-19.43s19.34-4.11,28.88-1.65c19.53,5.05,35.58,18.94,48.39,34a157.76,157.76,0,0,1,30.68,55c6.32,20.25,8.06,42.75.43,62.9-6.5,17.16-19.74,32.5-37.27,38.83-19.09,6.88-41.23,2.78-59.14-5.75-32.19-15.33-55.56-47.22-61.05-82.38-6-38.47,8.24-78.87,34.64-107,13.61-14.52,31.52-27,51.82-29,20.12-1.94,40.43,7.35,55.62,20,26.43,22,41.4,57.73,37.25,92-2.39,19.79-11.07,39.38-29.93,48.25-16.55,7.79-36.63,7.9-54.52,6.31-16.62-1.49-33.64-5.51-48-14.36-15.7-9.72-25.87-25.37-27.1-44-.71-10.84,1.19-21.71,4.4-32,2.82-9,6.63-17.94,12.23-25.62,5.75-7.88,13.58-14.23,23.16-16.67,9.29-2.37,19-.8,27.8,2.82,18.56,7.68,32.65,23.3,43.25,39.92A150.22,150.22,0,0,1,586,160.08c2.69,16.89,2.24,36.2-7.43,51-11.65,17.8-34.18,19-53.47,20.07-18.84,1.08-39.31.22-55.75-10.12-16.91-10.63-25.61-30-27.41-49.4-2-22,3.57-44.62,10.33-65.37,5.15-15.83,12.38-32.1,24.56-43.83,13.2-12.71,31.47-16.53,48.59-9.7,19,7.58,33.12,24.34,43,41.7a139.32,139.32,0,0,1,17.8,59c1.18,17.15.84,40.45-13.67,52.46-8.36,6.91-19.79,7.43-30.14,7.08a114.66,114.66,0,0,1-30.52-4.7c-19-5.93-33.3-19.14-41.52-37.13-7.72-16.89-10.1-36-9.39-54.4.74-19.57,5.19-39.41,15.15-56.42,9.64-16.45,24.46-29.22,42.74-35,17.3-5.49,36.52-4.15,51.65,6.41,16,11.2,25.26,29.94,28.8,48.77,2.15,11.42,2.43,23.11,1.87,34.69A197.16,197.16,0,0,1,598,144.55c-3.36,16.65-11.26,34.73-29.42,39-10.18,2.39-21,.51-31.19-.8A274.65,274.65,0,0,1,510,178c-17.28-4-34.64-10.87-46.84-24.26-13-14.31-17.36-33.57-16.79-52.49s5.12-38,11.06-55.93c2.76-8.3,6.79-17.64,15.13-21.68,9.54-4.62,21.79-.56,31.08,3,17.64,6.71,32.82,18.64,45.5,32.44a210.79,210.79,0,0,1,33,48.08c9.12,18.21,16.06,40,10.1,60.26s-24.42,33-40.16,45.38C519.46,238.56,485,263.43,446,278.5a196.47,196.47,0,0,1-60.09,13.36c-21.33,1.14-42.7-1.55-63.34-6.9-42.18-10.92-81-32-117.93-54.68-35.8-21.95-72.94-45.89-96.12-81.89-11.16-17.32-19-37.16-20.49-57.83-1.23-16.89,1-40.53,17.49-50,10.19-5.85,22.15-2.55,32.28,1.63,9.36,3.87,20.14,8.25,25.82,17.14,10.37,16.21,1.71,37.7-7.77,52.12-19.65,29.86-54.23,49.15-89.8,51.24a95.31,95.31,0,0,1-26.54-1.77,14,14,0,0,1-6.79-3.11c-2.35-2.26-2.76-5.56-2.54-8.66a54.74,54.74,0,0,1,3.13-13.82A70,70,0,0,1,69.5,95.05a69.81,69.81,0,0,1,58.5.69c4.35,2.08,9,4.56,12.25,8.19,3.59,4,4.14,9.72-.64,13-6.75,4.59-16.71,2.85-24,.95-8.22-2.13-16.66-6.11-21.74-13.18-5.29-7.37-5.5-16.66-1.2-24.55A31.18,31.18,0,0,1,113.11,64.7c9.54-2,19.59,1.11,27.55,6.37,16.33,10.78,29.67,34.66,20.77,54-3.9,8.47-12.06,15.4-21.69,15.57-10.39.18-19.42-6.83-25.88-14.34-12.9-15-20.8-38.15-9.59-56.31,4.77-7.74,12.56-14,21.6-15.7,10.43-2,20.48,3.05,27.8,10.17C166.56,77,172.19,97.13,166.74,114.4c-5.17,16.41-20.84,27.09-37.9,27.14-15.48.05-28.92-9.64-31.64-25.2-2.38-13.62,3.44-29.53,17-34.83l-1-.55a140.68,140.68,0,0,1-7.12,83.92l1.45-.19c-9.5-13.78-6.9-33.4,4-45.66,12.12-13.62,32-13.63,46.26-3.28,8.08,5.88,13.93,14.7,15,24.74l.8-.79a115.85,115.85,0,0,1-51.9-12.76c-14.35-7.38-30-18.18-35.08-34.37C84.35,85.37,85.16,77,91.37,72c5.36-4.34,13-4.36,19.19-1.93,16.57,6.5,16.7,26.87,8.65,40.18-2.33,3.86-5.21,7.41-9.26,9.55s-9.89,3-12-2.22c-1-2.56-.76-5.53-.7-8.24s.19-5.59.36-8.38q.56-9.1,1.81-18.14l-1.55-.21q.26,60.69-3,121.32-.93,17.31-2.15,34.61l1.56-.21L79.72,166.06,72.49,130.2c-2.45-12.13-4.57-24.38-7.35-36.43-1.22-5.27-7.28-16.32-13.85-10.69a.81.81,0,0,0,.35,1.33c47.45,17.72,98.61,5.67,147.21.67a327.34,327.34,0,0,1,42.58-2l-.22-1.56A648.61,648.61,0,0,1,91.39,106.22q-21.47,1-43,.53a.8.8,0,0,0-.21,1.56L101.83,123c8.93,2.44,17.86,4.91,26.8,7.34,7.12,1.94,14.7,3.77,21.81.84a.84.84,0,0,0,.58-.76,59.66,59.66,0,0,0-13-44.7c-.47-.58-1.32-.06-1.35.56a400,400,0,0,0,5.17,94.44c.16.92,1.51.64,1.56-.21a407.66,407.66,0,0,0-12.76-123,.8.8,0,0,0-1.45-.19L52.54,173a.8.8,0,0,0,.48,1.17L76.56,179c4.77,1,15.59,2.37,15.67,9.07.1,7-9.31,4.55-12.88,2.46-4.82-2.83-8.52-8.23-11.31-12.94C55.92,157.16,57.85,131.19,65,109.38c3.75-11.47,9-23.52,17.59-32.21,4.33-4.37,9.86-8,16.16-8.33,6.49-.37,12.29,2.65,16.88,7,4.37,4.17,7.73,9.29,10.82,14.45,3.76,6.27,7.41,12.63,11,19q11,19.75,20.84,40.14a762.76,762.76,0,0,1,38,94.69l1-1a128,128,0,0,1-62.05-41.89,125.25,125.25,0,0,1-27.5-75.18,127.24,127.24,0,0,1,7.42-46.48l-1.16.48a68.38,68.38,0,0,1,31.82,57.76l.8-.8a70.18,70.18,0,0,1-28.49-7.2c-7.82-3.89-15.6-9.35-19.25-17.59s.07-17,8.85-19.35c7-1.89,14.78-.36,21.46,2,13.64,4.86,32.19,16.42,27.95,33.58-4,16.29-24.34,22-39,21.38a62.16,62.16,0,0,1-47.91-26.36l-.29,1.08c22.31-13.56,53.88-7.77,69.8,13l.69-1.19c-14,.3-30.11.11-40.25-11.1-4.51-5-7.22-11.74-5.72-18.48s6.82-12.31,12-16.68c19.44-16.39,49.15-21.7,72.46-10.67,12.71,6,20.43,17.52,20.39,31.69-.05,13.82-7.08,26.18-16.37,36-18.56,19.58-44.57,32.65-70.65,38.64-13,3-26.73,4.57-40,3.5-6.37-.52-13.2-1.95-18.29-6.06-5.35-4.32-7.41-10.87-7.33-17.55s1.87-13,3.86-19.19A158.62,158.62,0,0,1,58,127.37a164.11,164.11,0,0,1,20.9-33.49c8.23-10.19,17.74-20,28.6-27.45,11.33-7.72,24.71-10.78,37.26-4,25.37,13.71,26.91,47.95,21,72.85-2.47,10.44-7.12,21.8-16.51,27.82-10.45,6.7-22.94,3.66-31.21-5a34.34,34.34,0,0,1-8.65-15.92c-1.13-4.91-2-13.8,3-17.07,3.58-2.34,7.66,1.47,10.25,3.71a55.31,55.31,0,0,1,6.85,7.09,57.63,57.63,0,0,1,9.75,17.64,56.7,56.7,0,0,1,3,18.3l.8-.79c-13.16-.38-30.35-.94-38.3-13.35-3.07-4.8-4.67-11.05-3-16.64,2-6.95,8.92-10.19,15.78-10.1,13.39.17,25.87,12,26,25.58.15,13-12.09,25.17-25.26,23.82-12.21-1.26-22-15.25-18.1-27.13,1.15-3.46,3.4-6.83,7.11-7.81a10.82,10.82,0,0,1,9.39,2.22,10.16,10.16,0,0,1,3.6,8.67c-.2,3.09-1.73,7.3-4.47,9.05-2.32,1.49-5.59-3.08-6.57-4.89a17.58,17.58,0,0,1-2-8.68c.11-6.84,4.16-12.58,9.34-16.74s12.08-7.92,18.6-9.19c4.12-.8,8.61,0,10.9,3.86a11.17,11.17,0,0,1,.9,9.17c-2.75,8-13.2,10.06-20.24,7.19-6.89-2.82-12.55-10.46-9.85-18.08,2.39-6.72,11.67-12.37,17.82-6.67,4.38,4.07,5,12.48-.44,15.88a.8.8,0,0,0,.19,1.45l21,3.87.22-1.55a63.21,63.21,0,0,1-44.3-16.21l-.35,1.32c13.25-4.91,29.22,3.1,33.12,16.71l.55-1c-18.2,4.35-38-10-39.62-28.63l-.79.8c6,.09,12.11,2.59,15.71,7.53a13.56,13.56,0,0,1,.33,15.6c-3,4.55-8.86,7-13.71,3.68-4.27-2.91-6.56-9-3.22-13.42l-1.25.16c8.36,7.67,10.18,21.41,3.5,30.76s-20.22,12-30.09,6.62c0,.42.1.83.16,1.25,9.73-9,26.08-8.24,35,1.48l.35-1.33c-7.41,2.34-16.17-.53-20.25-7.32s-2.61-15.84,2.93-21.33a.79.79,0,0,0-1.12-1.12Z"/></g></g></svg>