<svg xmlns="http://www.w3.org/2000/svg" viewBox="0 0 455.61 156.43"><defs><style>.cls-1{fill:#fdb816;}.cls-2,.cls-8{fill:#fff;}.cls-3{fill:#f37666;}.cls-4{fill:#035b83;}.cls-5{fill:#054062;}.cls-6{fill:#231f20;}.cls-7{isolation:isolate;}.cls-8{opacity:0.4;}.cls-9{fill:#25bdbe;}.cls-10{fill:#f05164;}.cls-11{fill:#78909c;}.cls-12{fill:#2b455e;}.cls-13{fill:#b2bbc4;}.cls-14{fill:#ead3c0;}.cls-15{fill:#2dbfc8;}.cls-16{fill:#17afbe;}</style></defs><g id="Layer_2" data-name="Layer 2"><g id="Layer_1-2" data-name="Layer 1"><circle class="cls-1" cx="50.4" cy="51.82" r="49.41"/><path class="cls-2" d="M24.42,24.41a1.68,1.68,0,0,1,1.65-2l1.64-.16a1.59,1.59,0,0,1,1.93,1.61L30,27.59a1.62,1.62,0,0,1-1.6,1.95l-1.63.16a1.65,1.65,0,0,1-2-1.6Zm2.55,4,1-.09c.46-.05.7-.25.65-.79l-.32-3.3c-.05-.46-.27-.69-.75-.64l-1.05.1a.65.65,0,0,0-.64.78l.32,3.29A.66.66,0,0,0,27,28.38Z" transform="translate(-1.62)"/><path class="cls-3" d="M33,33.75a1.69,1.69,0,0,1,1.63-2l1.63-.19a1.6,1.6,0,0,1,2,1.58l.42,3.73a1.62,1.62,0,0,1-1.57,2L35.46,39a1.64,1.64,0,0,1-2-1.57Zm2.61,3.93,1-.11c.46,0,.7-.25.64-.79l-.37-3.29c0-.46-.28-.69-.76-.64l-1,.12a.66.66,0,0,0-.64.79l.37,3.29A.66.66,0,0,0,35.63,37.68Z" transform="translate(-1.62)"/><path class="cls-3" d="M66.28,21.14a1.69,1.69,0,0,1,2.24-1.33l1.59.4a1.58,1.58,0,0,1,1.28,2.16L70.48,26a1.61,1.61,0,0,1-2.16,1.3l-1.6-.4a1.63,1.63,0,0,1-1.34-2.18Zm1.07,4.6.94.23c.46.12.75,0,.88-.51L70,22.24a.62.62,0,0,0-.49-.86l-1-.25a.65.65,0,0,0-.87.51l-.81,3.21A.67.67,0,0,0,67.35,25.74Z" transform="translate(-1.62)"/><path class="cls-3" d="M62.73,32.64a1.69,1.69,0,0,1,1.63-2L66,30.42A1.59,1.59,0,0,1,68,32l.42,3.73a1.61,1.61,0,0,1-1.57,2l-1.63.18a1.63,1.63,0,0,1-2-1.57Zm2.61,3.93,1-.11c.47-.06.7-.26.64-.8l-.37-3.29c0-.46-.28-.69-.76-.63l-1,.11a.66.66,0,0,0-.64.79l.37,3.29A.67.67,0,0,0,65.34,36.57Z" transform="translate(-1.62)"/><path class="cls-3" d="M74.4,43.79a1.7,1.7,0,0,1,1.63-2l1.63-.18a1.59,1.59,0,0,1,2,1.58L80,46.88a1.61,1.61,0,0,1-1.57,2L76.84,49a1.64,1.64,0,0,1-2-1.57ZM77,47.72l1-.11c.47,0,.7-.26.64-.79l-.37-3.3c0-.45-.28-.69-.75-.63l-1,.11a.65.65,0,0,0-.63.8l.36,3.28A.67.67,0,0,0,77,47.72Z" transform="translate(-1.62)"/><path class="cls-2" d="M49.6,84a1.69,1.69,0,0,1,1.63-2l1.63-.19a1.6,1.6,0,0,1,2,1.58l.42,3.73a1.62,1.62,0,0,1-1.57,2L52,89.28a1.64,1.64,0,0,1-2-1.57ZM52.21,88l1-.11c.46,0,.7-.25.64-.79l-.37-3.29c-.05-.46-.28-.69-.76-.64l-1,.12A.65.65,0,0,0,51,84l.37,3.29A.66.66,0,0,0,52.21,88Z" transform="translate(-1.62)"/><path class="cls-2" d="M44.59,30.65a1.69,1.69,0,0,1,2.54-.6l1.4.86a1.6,1.6,0,0,1,.56,2.46l-2,3.19a1.6,1.6,0,0,1-2.45.58l-1.39-.86a1.64,1.64,0,0,1-.62-2.49Zm-.37,4.7.82.51a.62.62,0,0,0,1-.23l1.74-2.81a.61.61,0,0,0-.2-1l-.89-.56a.66.66,0,0,0-1,.23L44,34.34A.65.65,0,0,0,44.22,35.35Z" transform="translate(-1.62)"/><path class="cls-4" d="M56.64,23.14a1.69,1.69,0,0,1,1.13-2.35l1.55-.54a1.6,1.6,0,0,1,2.27,1.1l1.23,3.55a1.6,1.6,0,0,1-1.08,2.27l-1.55.54a1.65,1.65,0,0,1-2.33-1.08Zm3.42,3.25.92-.32a.62.62,0,0,0,.45-.92L60.33,22a.61.61,0,0,0-.88-.45l-1,.35a.65.65,0,0,0-.44.91L59.11,26A.66.66,0,0,0,60.06,26.39Z" transform="translate(-1.62)"/><path class="cls-3" d="M35.83,20.61a1.7,1.7,0,0,1,2.54-.6l1.39.87a1.59,1.59,0,0,1,.57,2.45l-2,3.19a1.61,1.61,0,0,1-2.45.59l-1.4-.87a1.65,1.65,0,0,1-.62-2.49Zm-.38,4.7.83.51a.61.61,0,0,0,1-.22L39,22.78a.62.62,0,0,0-.2-1l-.9-.55a.65.65,0,0,0-1,.23L35.19,24.3A.66.66,0,0,0,35.45,25.31Z" transform="translate(-1.62)"/><path class="cls-4" d="M74.48,31.2A1.69,1.69,0,0,1,77,30.61l1.39.86A1.59,1.59,0,0,1,79,33.92l-2,3.19a1.61,1.61,0,0,1-2.45.59l-1.4-.87a1.64,1.64,0,0,1-.62-2.48Zm-.38,4.7.83.51a.61.61,0,0,0,1-.22l1.75-2.82a.62.62,0,0,0-.2-1l-.9-.55a.65.65,0,0,0-1,.23l-1.74,2.81A.66.66,0,0,0,74.1,35.9Z" transform="translate(-1.62)"/><path class="cls-4" d="M52.93,38.81a1.69,1.69,0,0,1,2.54-.59l1.4.86a1.59,1.59,0,0,1,.56,2.45l-2,3.2a1.61,1.61,0,0,1-2.45.58l-1.4-.87A1.64,1.64,0,0,1,51,42Zm-.37,4.7.82.52a.63.63,0,0,0,1-.23L56.12,41a.62.62,0,0,0-.2-1l-.9-.55a.65.65,0,0,0-1,.23L52.29,42.5A.66.66,0,0,0,52.56,43.51Z" transform="translate(-1.62)"/><path class="cls-2" d="M60.31,40.76a1.7,1.7,0,0,1,2.1-1.55l1.62.25a1.59,1.59,0,0,1,1.49,2L65,45.2a1.6,1.6,0,0,1-2,1.5l-1.63-.24a1.64,1.64,0,0,1-1.55-2Zm1.51,4.47,1,.14c.47.07.75-.06.83-.6l.49-3.27c.07-.46-.09-.74-.57-.81l-1-.16a.66.66,0,0,0-.82.6l-.49,3.27A.66.66,0,0,0,61.82,45.23Z" transform="translate(-1.62)"/><path class="cls-4" d="M22.94,38.77a1.7,1.7,0,0,1,1.44-2.18L26,36.27a1.59,1.59,0,0,1,2.09,1.39l.75,3.68a1.61,1.61,0,0,1-1.38,2.11l-1.61.33a1.65,1.65,0,0,1-2.16-1.39Zm2.95,3.68.95-.2c.47-.09.68-.31.57-.84l-.66-3.25a.62.62,0,0,0-.81-.57l-1,.21a.66.66,0,0,0-.56.85L25,41.89A.66.66,0,0,0,25.89,42.45Z" transform="translate(-1.62)"/><path class="cls-2" d="M31.25,42.39l1.12-1.21,1.33-.4,2.14,7-1.34.41-1.74-5.68-1.24.75Z" transform="translate(-1.62)"/><path class="cls-2" d="M51.34,92.17l1.49-.7,1.38.13-.66,7.3-1.4-.13.54-5.92-1.43.23Z" transform="translate(-1.62)"/><path class="cls-2" d="M43,40.5,44.52,40l1.36.33-1.71,7.12-1.37-.32,1.39-5.78-1.45,0Z" transform="translate(-1.62)"/><path class="cls-2" d="M73.58,20.79,75,19.92l1.39,0,.22,7.32-1.4,0L75,21.31l-1.39.39Z" transform="translate(-1.62)"/><path class="cls-2" d="M51.38,16.58,53,16.11l1.36.32L52.6,23.56l-1.37-.33,1.39-5.77H51.17Z" transform="translate(-1.62)"/><path class="cls-3" d="M52.35,30.47,53.12,29l1.19-.73,3.85,6.24-1.2.74-3.11-5.06-1,1Z" transform="translate(-1.62)"/><path class="cls-4" d="M42.31,19.19l.77-1.45L44.27,17l3.85,6.24-1.2.73L43.8,18.93l-1,1Z" transform="translate(-1.62)"/><path class="cls-2" d="M69.27,40.5,70.84,40l1.36.33-1.71,7.12-1.37-.32,1.39-5.78-1.45,0Z" transform="translate(-1.62)"/><polygon class="cls-4" points="80.92 54.99 50.4 78.52 19.89 54.99 80.92 54.99"/><rect class="cls-4" x="46.02" y="73.21" width="8.76" height="10.73"/><rect class="cls-5" x="19.88" y="47.46" width="61.04" height="7.53"/><path class="cls-6" d="M10.29,126.94a5.79,5.79,0,0,1-1.51,4.35,6.09,6.09,0,0,1-4.43,1.47H1.62V121.34H4.7a5.63,5.63,0,0,1,4.16,1.43A5.65,5.65,0,0,1,10.29,126.94Zm-.87,0a5,5,0,0,0-1.24-3.69A5,5,0,0,0,4.52,122H2.41v10H4.3C7.72,132.06,9.42,130.36,9.42,127Z" transform="translate(-1.62)"/><path class="cls-6" d="M12.61,121.91c0-.5.16-.75.49-.75a.44.44,0,0,1,.38.2,1,1,0,0,1,.14.55,1,1,0,0,1-.14.56.44.44,0,0,1-.38.2C12.77,122.67,12.61,122.42,12.61,121.91Zm.88,10.85h-.77v-8.49h.77Z" transform="translate(-1.62)"/><path class="cls-6" d="M21.6,130.55a2,2,0,0,1-.87,1.76,4.25,4.25,0,0,1-2.46.61,5.87,5.87,0,0,1-2.7-.52v-.84a6,6,0,0,0,2.7.64,3.54,3.54,0,0,0,1.91-.42,1.27,1.27,0,0,0,.66-1.11,1.37,1.37,0,0,0-.52-1.08,5.81,5.81,0,0,0-1.71-.86,10,10,0,0,1-1.79-.79,2.55,2.55,0,0,1-.78-.75,1.93,1.93,0,0,1-.26-1,1.75,1.75,0,0,1,.8-1.51,3.91,3.91,0,0,1,2.24-.55,6.75,6.75,0,0,1,2.61.51l-.29.71a6,6,0,0,0-2.32-.52,3.38,3.38,0,0,0-1.65.34,1.07,1.07,0,0,0-.61,1,1.32,1.32,0,0,0,.48,1.06,6.76,6.76,0,0,0,1.84.89,9,9,0,0,1,1.67.75,2.38,2.38,0,0,1,.79.75A1.79,1.79,0,0,1,21.6,130.55Z" transform="translate(-1.62)"/><path class="cls-6" d="M26,132.23a6,6,0,0,0,1.28-.12v.62a3.89,3.89,0,0,1-1.29.19,2.1,2.1,0,0,1-1.66-.6,2.77,2.77,0,0,1-.54-1.89v-5.49H22.56v-.45l1.26-.35.39-1.92h.4v2H27.1v.67H24.61v5.38a2.43,2.43,0,0,0,.34,1.44A1.23,1.23,0,0,0,26,132.23Z" transform="translate(-1.62)"/><path class="cls-6" d="M29,121.91c0-.5.16-.75.49-.75a.44.44,0,0,1,.38.2,1,1,0,0,1,.14.55,1,1,0,0,1-.14.56.44.44,0,0,1-.38.2C29.2,122.67,29,122.42,29,121.91Zm.88,10.85h-.77v-8.49h.77Z" transform="translate(-1.62)"/><path class="cls-6" d="M33.54,132.76h-.77V120.61h.77Z" transform="translate(-1.62)"/><path class="cls-6" d="M37.16,132.76h-.78V120.61h.78Z" transform="translate(-1.62)"/><path class="cls-6" d="M45.15,127.79v5h-.8V121.34h2.72a5.05,5.05,0,0,1,3.14.79,2.79,2.79,0,0,1,1,2.36,3.06,3.06,0,0,1-.61,1.94,3.36,3.36,0,0,1-1.84,1.13l3.1,5.2h-1l-3-5Zm0-.69h2.18a3.47,3.47,0,0,0,2.24-.65,2.3,2.3,0,0,0,.8-1.9,2.24,2.24,0,0,0-.78-1.9,4.31,4.31,0,0,0-2.55-.59H45.15Z" transform="translate(-1.62)"/><path class="cls-6" d="M57.09,132.92a3.69,3.69,0,0,1-2.88-1.14,4.6,4.6,0,0,1-1-3.2,5,5,0,0,1,1-3.25,3.3,3.3,0,0,1,2.7-1.22,2.9,2.9,0,0,1,2.36,1A4.33,4.33,0,0,1,60.1,128v.62H54a4.07,4.07,0,0,0,.82,2.67,2.87,2.87,0,0,0,2.29.93,6.86,6.86,0,0,0,1.28-.11,7.49,7.49,0,0,0,1.4-.43v.7a6.57,6.57,0,0,1-1.33.43A8,8,0,0,1,57.09,132.92Zm-.22-8.13a2.53,2.53,0,0,0-2,.81,3.83,3.83,0,0,0-.87,2.33h5.25a3.66,3.66,0,0,0-.64-2.3A2.11,2.11,0,0,0,56.87,124.79Z" transform="translate(-1.62)"/><path class="cls-6" d="M63.22,132.76h-.77V120.61h.77Z" transform="translate(-1.62)"/><path class="cls-6" d="M69.49,132.92a3.69,3.69,0,0,1-2.88-1.14,4.6,4.6,0,0,1-1-3.2,5,5,0,0,1,1-3.25,3.3,3.3,0,0,1,2.7-1.22,2.92,2.92,0,0,1,2.36,1A4.33,4.33,0,0,1,72.5,128v.62H66.38a4,4,0,0,0,.82,2.67,2.86,2.86,0,0,0,2.29.93,6.86,6.86,0,0,0,1.28-.11,7.21,7.21,0,0,0,1.39-.43v.7a6.3,6.3,0,0,1-1.32.43A8,8,0,0,1,69.49,132.92Zm-.22-8.13a2.53,2.53,0,0,0-2,.81,3.77,3.77,0,0,0-.87,2.33h5.25a3.66,3.66,0,0,0-.64-2.3A2.11,2.11,0,0,0,69.27,124.79Z" transform="translate(-1.62)"/><path class="cls-6" d="M76.7,132.76l-3.28-8.49h.8L76.41,130a15.41,15.41,0,0,1,.66,1.94h.05c.21-.71.43-1.36.65-1.95l2.2-5.76h.8l-3.29,8.49Z" transform="translate(-1.62)"/><path class="cls-6" d="M87.34,132.76l-.19-1.34h-.06a4.08,4.08,0,0,1-1.32,1.16,3.47,3.47,0,0,1-1.6.34,2.74,2.74,0,0,1-1.94-.64,2.28,2.28,0,0,1-.7-1.77,2.18,2.18,0,0,1,1-1.93,5.64,5.64,0,0,1,3-.73l1.62,0v-.56a2.87,2.87,0,0,0-.49-1.83,1.92,1.92,0,0,0-1.59-.62,5.27,5.27,0,0,0-2.44.66l-.29-.67a6.41,6.41,0,0,1,2.76-.66,2.72,2.72,0,0,1,2.09.73,3.18,3.18,0,0,1,.69,2.26v5.65Zm-3.12-.54a2.71,2.71,0,0,0,2.93-2.94v-.84l-1.49.07a5.61,5.61,0,0,0-2.55.55,1.64,1.64,0,0,0-.76,1.48,1.58,1.58,0,0,0,.49,1.23A2,2,0,0,0,84.22,132.22Z" transform="translate(-1.62)"/><path class="cls-6" d="M96.59,132.76v-5.5a2.7,2.7,0,0,0-.54-1.87,2.17,2.17,0,0,0-1.67-.58,2.94,2.94,0,0,0-2.24.77,3.63,3.63,0,0,0-.7,2.5v4.68h-.78v-8.49h.66l.15,1.16h0a3.19,3.19,0,0,1,2.94-1.32c1.93,0,2.89,1,2.89,3.1v5.55Z" transform="translate(-1.62)"/><path class="cls-6" d="M102.34,132.23a6.16,6.16,0,0,0,1.29-.12v.62a4,4,0,0,1-1.3.19,2.12,2.12,0,0,1-1.66-.6,2.77,2.77,0,0,1-.54-1.89v-5.49H98.88v-.45l1.25-.35.39-1.92h.4v2h2.49v.67h-2.49v5.38a2.42,2.42,0,0,0,.35,1.44A1.23,1.23,0,0,0,102.34,132.23Z" transform="translate(-1.62)"/><path class="cls-6" d="M28.17,152h-.79V140.54h6.25v.74H28.17v4.84h5.16v.74H28.17Z" transform="translate(-1.62)"/><path class="cls-6" d="M40.37,152l-.2-1.34h-.06a4.08,4.08,0,0,1-1.32,1.16,3.45,3.45,0,0,1-1.59.34,2.75,2.75,0,0,1-2-.64,2.31,2.31,0,0,1-.7-1.77,2.18,2.18,0,0,1,1-1.93,5.66,5.66,0,0,1,3-.73L40.2,147v-.56a2.87,2.87,0,0,0-.49-1.83,1.9,1.9,0,0,0-1.58-.62,5.28,5.28,0,0,0-2.45.66l-.29-.67a6.46,6.46,0,0,1,2.77-.66,2.74,2.74,0,0,1,2.09.73,3.18,3.18,0,0,1,.69,2.26V152Zm-3.13-.54a2.7,2.7,0,0,0,2.93-2.94v-.84l-1.48.07a5.58,5.58,0,0,0-2.55.55,1.62,1.62,0,0,0-.76,1.48,1.58,1.58,0,0,0,.48,1.23A2,2,0,0,0,37.24,151.42Z" transform="translate(-1.62)"/><path class="cls-6" d="M47.08,152.12A3.61,3.61,0,0,1,44.23,151a4.59,4.59,0,0,1-1-3.2,4.69,4.69,0,0,1,1.07-3.29,3.77,3.77,0,0,1,2.93-1.17,5.75,5.75,0,0,1,2.1.38l-.21.69a6,6,0,0,0-1.91-.37,2.93,2.93,0,0,0-2.37,1,4.28,4.28,0,0,0-.8,2.78,4.11,4.11,0,0,0,.8,2.69,2.77,2.77,0,0,0,2.25,1,5.46,5.46,0,0,0,2.15-.42v.72A4.79,4.79,0,0,1,47.08,152.12Z" transform="translate(-1.62)"/><path class="cls-6" d="M53.53,151.43a6,6,0,0,0,1.28-.12v.62a3.89,3.89,0,0,1-1.29.19,2.1,2.1,0,0,1-1.66-.6,2.77,2.77,0,0,1-.54-1.89v-5.49H50.06v-.45l1.26-.35.39-1.92h.4v2.05H54.6v.67H52.11v5.38a2.43,2.43,0,0,0,.34,1.44A1.23,1.23,0,0,0,53.53,151.43Z" transform="translate(-1.62)"/><path class="cls-6" d="M63.67,147.71a4.76,4.76,0,0,1-1,3.24,3.46,3.46,0,0,1-2.78,1.17,3.62,3.62,0,0,1-2-.54,3.44,3.44,0,0,1-1.3-1.55,5.62,5.62,0,0,1-.45-2.32,4.78,4.78,0,0,1,1-3.24,3.47,3.47,0,0,1,2.77-1.16,3.43,3.43,0,0,1,2.75,1.17A4.87,4.87,0,0,1,63.67,147.71Zm-6.7,0a4.36,4.36,0,0,0,.77,2.73,2.9,2.9,0,0,0,4.35,0,4.36,4.36,0,0,0,.77-2.73,4.23,4.23,0,0,0-.78-2.73,2.93,2.93,0,0,0-4.35,0A4.34,4.34,0,0,0,57,147.71Z" transform="translate(-1.62)"/><path class="cls-6" d="M69.37,143.31a6,6,0,0,1,1.15.11l-.14.74a4.56,4.56,0,0,0-1.11-.13,2.13,2.13,0,0,0-1.78.92,3.77,3.77,0,0,0-.69,2.33V152H66v-8.49h.66l.08,1.53h0a3.66,3.66,0,0,1,1.12-1.31A2.56,2.56,0,0,1,69.37,143.31Z" transform="translate(-1.62)"/><path class="cls-6" d="M77.52,149.75a2,2,0,0,1-.87,1.76,4.22,4.22,0,0,1-2.46.61,6,6,0,0,1-2.71-.52v-.84a6,6,0,0,0,2.71.64A3.56,3.56,0,0,0,76.1,151a1.28,1.28,0,0,0,.65-1.11,1.34,1.34,0,0,0-.52-1.08,5.69,5.69,0,0,0-1.71-.86,10.69,10.69,0,0,1-1.79-.79,2.41,2.41,0,0,1-.77-.75,1.84,1.84,0,0,1-.26-1,1.73,1.73,0,0,1,.8-1.51,3.87,3.87,0,0,1,2.23-.55,6.75,6.75,0,0,1,2.61.51l-.29.71a6,6,0,0,0-2.32-.52,3.31,3.31,0,0,0-1.64.34,1.06,1.06,0,0,0-.61,1,1.31,1.31,0,0,0,.47,1.06,6.86,6.86,0,0,0,1.85.89,8.92,8.92,0,0,1,1.67.75,2.35,2.35,0,0,1,.78.75A1.79,1.79,0,0,1,77.52,149.75Z" transform="translate(-1.62)"/><circle class="cls-1" cx="228.36" cy="49.41" r="49.41"/><g class="cls-7"><path class="cls-8" d="M260.65,40.06l.09.3.22.84-.31-1.14Z" transform="translate(-1.62)"/><path class="cls-8" d="M261.32,42.71l0-.16.06.24,0,.23-.06-.29v0Z" transform="translate(-1.62)"/><path class="cls-8" d="M261.25,56.46l-.06.27c-.27.91-.68,2.1-1,3,0-.05,0-.1,0-.15.31-.93.8-2.15,1.06-3.09Z" transform="translate(-1.62)"/><path class="cls-8" d="M259.68,61l.07-.16a13.92,13.92,0,0,1-.48,1.59l-.1.21a13.79,13.79,0,0,0,.51-1.62v0Z" transform="translate(-1.62)"/><path class="cls-8" d="M232.44,81.5l-.21,0-1.94,0a7.29,7.29,0,0,1,1.25,0Z" transform="translate(-1.62)"/><path class="cls-8" d="M205.94,27.85a3.26,3.26,0,0,1,.9-.15l-.07.08s0,.06-.06.07a3.26,3.26,0,0,1-.45,0,1.67,1.67,0,0,0-.46.1l.14-.15Z" transform="translate(-1.62)"/><path class="cls-8" d="M239.21,18.61l-.11,0c.65.21,1.53.49,2.17.73l.31.12c-.7-.25-1.64-.59-2.36-.82Z" transform="translate(-1.62)"/><path class="cls-8" d="M259.47,61.43l.06-.09a21.93,21.93,0,0,1-2.31,5l-.2.31a22.21,22.21,0,0,0,2.45-5.2Z" transform="translate(-1.62)"/><path class="cls-8" d="M217.92,19.5a6.45,6.45,0,0,1,1-.29l-.19.07c-.12,0-.3.07-.43.1l-.6.19.19-.07Z" transform="translate(-1.62)"/><path class="cls-8" d="M212.44,22.33a29.86,29.86,0,0,1,5.88-2.87c-1.11.49-2.25.9-3.33,1.44-.86.42-2,1.07-2.78,1.57l.23-.14Z" transform="translate(-1.62)"/><path class="cls-8" d="M228.7,17.23h.11A28.79,28.79,0,0,0,220,18.85l-.11,0a28.55,28.55,0,0,1,8.8-1.65Z" transform="translate(-1.62)"/><path class="cls-8" d="M223.42,18.87a.3.3,0,0,1-.11.07c-1.38.11-2.76.14-4.14.28.17-.07.36-.14,4.25-.35Z" transform="translate(-1.62)"/><path class="cls-8" d="M226.16,81.4l.38,0h0l-.41,0Z" transform="translate(-1.62)"/><path class="cls-8" d="M205.8,70.82l.21.23-.21-.23Z" transform="translate(-1.62)"/><path class="cls-8" d="M215.54,78.26c-.5-.29-.51-.29-.7-.59-.06-.11,0-.3.06-.42l.17.1c0,.12-.12.31,0,.41a1.34,1.34,0,0,0,.7.59l-.18-.09Z" transform="translate(-1.62)"/><path class="cls-8" d="M199,40.05a27.68,27.68,0,0,1,7.24-11.55c-.24.65-1.08,1.2-1.56,1.71a27,27,0,0,0-5.76,10.11v0a1.87,1.87,0,0,0,.07-.22Z" transform="translate(-1.62)"/><path class="cls-8" d="M198.63,41.46c0-.06,0-.12.05-.18.24.43,1.18.79,5.28,1.36a1.62,1.62,0,0,0,0,.19c-3.64-.5-5.18-.89-5.29-1.34v0Z" transform="translate(-1.62)"/><path class="cls-8" d="M205.61,70.58l-.09-.1a31.13,31.13,0,0,0,8.66,6.25l.08.07a30.48,30.48,0,0,1-8.64-6.21Z" transform="translate(-1.62)"/><path class="cls-8" d="M205.12,70l-.12-.15c.34,0,.9.1,7.19.21l.08.13c-3.36,0-6.9-.14-7.14-.18Z" transform="translate(-1.62)"/><path class="cls-8" d="M206.71,58.48a1,1,0,0,0,.08.14c-2.92,3.62-4.77,6.52-2.06,10.9-3.65-4.44.44-9.23,2-11Z" transform="translate(-1.62)"/><path class="cls-8" d="M198.07,54.71c-.34-4.09,1.19-7.06,5.82-11.35a.68.68,0,0,0,0,.14c-4.19,4.09-6.24,7-5.8,11.45,0-.08,0-.16,0-.24Z" transform="translate(-1.62)"/><path class="cls-8" d="M198.61,57.29c.19.09.54.27,7.9.55,0,.09,0,.11,0,.18-2-.06-7.75-.28-7.89-.53,0-.07,0-.13,0-.2Z" transform="translate(-1.62)"/><path class="cls-8" d="M253,65.68c0-.07.08-.12.09-.15,1.94,1.64,2.69,2.81,1.37,4.61l-.13.16c1-1.47,1.1-2.58-1.35-4.6l0,0Z" transform="translate(-1.62)"/><path class="cls-8" d="M227.91,81.55h-.2l.77,0h.16l-.72,0Z" transform="translate(-1.62)"/><path class="cls-8" d="M215.57,77.62l.12.06a28.86,28.86,0,0,0,4.21,2.26,27.64,27.64,0,0,0,7,1.54c-6.58-.61-9.9-2.89-11.32-3.86Z" transform="translate(-1.62)"/><path class="cls-8" d="M235,80.62c-.31.13-4.21.81-4.65.89,0,0,0,0,1-.19,1.77-.32,2.82-.53,3.66-.7Z" transform="translate(-1.62)"/><path class="cls-8" d="M206.52,28.56l.09-.07c-1.32,2.47-3.3,6.2-2.13,13.25l-.12.1c-.41-3.13-1-7.87,2.14-13.27Z" transform="translate(-1.62)"/><path class="cls-8" d="M218,19.65h0a30.38,30.38,0,0,0-10.16,7.23A29.58,29.58,0,0,1,218,19.65Z" transform="translate(-1.62)"/><path class="cls-8" d="M218.43,19.5l.14-.05c-1.73.95-5,2.73-4.24,6.78l-.14.11c-.19-1.65-.51-4.42,4.23-6.84Z" transform="translate(-1.62)"/><path class="cls-8" d="M213.76,26.81l-.09.15c-3.51.35-4.66.51-6.34.8.1-.11.28-.32,6.43-1Z" transform="translate(-1.62)"/><path class="cls-8" d="M212.72,70.71l.14.12a6.83,6.83,0,0,0,1.84,6s-2.47-1.66-2-6.09Z" transform="translate(-1.62)"/><path class="cls-8" d="M216,77.7l-.05,0a37.62,37.62,0,0,0,11.84,3.84h.07A36.7,36.7,0,0,1,216,77.71Z" transform="translate(-1.62)"/><path class="cls-8" d="M215.8,77.51l-.11-.08a83.6,83.6,0,0,0,10.18,3.31l0,0a79,79,0,0,1-10.11-3.24Z" transform="translate(-1.62)"/><path class="cls-8" d="M204.57,44.05l.11,0A42.16,42.16,0,0,0,207,56.77l-.13,0a42.34,42.34,0,0,1-2.29-12.77Z" transform="translate(-1.62)"/><path class="cls-8" d="M213.61,27.64l.07,0a50.81,50.81,0,0,0-8.57,14l-.06,0a47.24,47.24,0,0,1,8.56-14Z" transform="translate(-1.62)"/><path class="cls-8" d="M214.22,27.6l.13-.07c-.29,4.46.5,8.81,5.42,17.83l-.17.11c-3.83-7.16-5.94-12.38-5.4-17.86Z" transform="translate(-1.62)"/><path class="cls-8" d="M205.3,43.12s0-.08,0-.18a138.54,138.54,0,0,0,13.81,3.23.77.77,0,0,0,0,.15,132.33,132.33,0,0,1-13.84-3.17v0Z" transform="translate(-1.62)"/><path class="cls-8" d="M222.93,19.29a32.77,32.77,0,0,0-7.8,6.71l-.08,0a32.26,32.26,0,0,1,7.88-6.69Z" transform="translate(-1.62)"/><path class="cls-8" d="M226.67,23.93v.12c-3.77.82-7.68,1.66-11.55,2.64l.06-.1c1.69-.45,3.44-.92,11.49-2.66Z" transform="translate(-1.62)"/><path class="cls-8" d="M219.23,47.14l.08.13c-5.2,4.07-7.81,6.12-11.36,10.09l-.08-.13c1.58-1.85,3.74-4.39,11.36-10.09Z" transform="translate(-1.62)"/><path class="cls-8" d="M213.62,71l.07,0c2,2.16,6.59,7.22,12.06,9.62-1.56-.73-6.31-2.94-12.14-9.58Z" transform="translate(-1.62)"/><path class="cls-8" d="M207.64,59.16l.11,0a43.26,43.26,0,0,0,4.61,10.06l-.11,0a43,43,0,0,1-4.63-10.06Z" transform="translate(-1.62)"/><path class="cls-8" d="M208.19,58.14a.86.86,0,0,0,0-.17c3.32.37,6.22.69,13.38,1.3v.15c-5.52-.36-12.56-1.16-13.35-1.25v0Z" transform="translate(-1.62)"/><path class="cls-8" d="M213.76,70.52l0-.13c2.54.94,4.37,1.6,9.74,3.36v.13c-5.35-1.76-7.06-2.37-9.69-3.35Z" transform="translate(-1.62)"/><path class="cls-8" d="M222.63,60.63h.13c.38,6.18.54,8.74,1.4,12.66H224a61,61,0,0,1-1.41-12.66Z" transform="translate(-1.62)"/><path class="cls-8" d="M221.76,60.1l.13.16c-3.54,2.94-6.87,5.87-8.66,9.38a.81.81,0,0,0-.14-.12c1-1.9,2.36-4.26,8.67-9.42Z" transform="translate(-1.62)"/><path class="cls-8" d="M223.56,19.14l.11-.06c-.14,1.15.31,2.09,3.25,4.29a.7.7,0,0,0-.08.1c-2.74-2.07-3.47-3-3.3-4.33Z" transform="translate(-1.62)"/><path class="cls-8" d="M229.72,17.21h0Z" transform="translate(-1.62)"/><path class="cls-8" d="M229.3,17.22h.19c-4,.1-5.92.61-5.78,1.52l-.13.06c-.08-.95,1.84-1.48,5.7-1.57Z" transform="translate(-1.62)"/><path class="cls-8" d="M229.85,17.21l0,0a6,6,0,0,1-.89.27c-1.59.43-3.18.83-4.77,1.26a4.93,4.93,0,0,1,1.14-.34l2.62-.68a15.21,15.21,0,0,0,1.9-.52l0,0Z" transform="translate(-1.62)"/><path class="cls-8" d="M230.15,81.52s0,0-.38,0l-1.05,0h-.14c.39,0,.81,0,1.57,0Z" transform="translate(-1.62)"/><path class="cls-8" d="M226.51,81c.19.06.35.2.54.26a10.22,10.22,0,0,0,1.22.27,3.9,3.9,0,0,1-1.76-.53Z" transform="translate(-1.62)"/><path class="cls-8" d="M247,22.19l.18.11a1.83,1.83,0,0,1,.46.46.64.64,0,0,1,0,.41l-.16-.12a.83.83,0,0,0-.05-.47,1.65,1.65,0,0,0-.44-.39Z" transform="translate(-1.62)"/><path class="cls-8" d="M224.1,74.74l.13.06c-.17,1.72-.42,4.33,1.8,5.84,0,0-2.63-1.06-1.93-5.9Z" transform="translate(-1.62)"/><path class="cls-8" d="M226.79,81l-.08,0c2.23.34,3,.46,3.48.58-.06,0-.14,0-.2,0-.59-.11-1.14-.2-3.19-.51Z" transform="translate(-1.62)"/><path class="cls-8" d="M230,17.23c.31.22.5.35,0,1.72a37.84,37.84,0,0,1-2.09,4.22l-.08,0c2.06-3.91,2.83-5.37,2.14-5.9Z" transform="translate(-1.62)"/><path class="cls-8" d="M233.05,79.66l0,0a13.61,13.61,0,0,1-2.6,1.75,15.35,15.35,0,0,0,2.57-1.77Z" transform="translate(-1.62)"/><path class="cls-8" d="M224.89,74.75a.26.26,0,0,0,.08-.06c4.36,4.42,5.68,5.92,5.38,6.74h0c.19-.85-.73-2-5.43-6.68Z" transform="translate(-1.62)"/><path class="cls-8" d="M232.29,69.92a.28.28,0,0,0,.05.12c-4.52,2.16-5.22,2.49-7.41,3.74l-.07-.1a71.29,71.29,0,0,1,7.43-3.76Z" transform="translate(-1.62)"/><path class="cls-8" d="M225.08,74.51a.84.84,0,0,1,0-.1c5.22,2.52,6.94,3.43,8.27,4.59l-.08.06c-1.66-1.3-2.89-2-8.22-4.53v0Z" transform="translate(-1.62)"/><path class="cls-8" d="M227.11,24.55l.11,0a173.11,173.11,0,0,0-6.54,20.71l-.12,0c.91-4.2,2.34-9.62,6.55-20.7Z" transform="translate(-1.62)"/><path class="cls-8" d="M259.48,60.72s-.71,1.55-6.16,4.31a1.16,1.16,0,0,0,0-.18,21.1,21.1,0,0,0,6.12-4.13Z" transform="translate(-1.62)"/><path class="cls-8" d="M233.78,32.11l.1.09c-4,4.69-8.52,8.87-12.67,13.42a.57.57,0,0,0-.11-.11c4.07-4.61,8.6-8.79,12.68-13.4Z" transform="translate(-1.62)"/><path class="cls-8" d="M223.55,60.37a.38.38,0,0,0,.11-.12c7.78,7.3,7.78,7.3,9,8.55l-.11.09c-.6-.58-.6-.58-9-8.5l0,0Z" transform="translate(-1.62)"/><path class="cls-8" d="M223.88,59.64v-.17C240,60.79,240,60.79,241.83,61c0,.06,0,.13,0,.19l-17.91-1.47v0Z" transform="translate(-1.62)"/><path class="cls-8" d="M220.39,47.77a.62.62,0,0,0,.17,0c.49,3.23.87,5.78,2,10.54l-.15,0a95.43,95.43,0,0,1-2-10.53Z" transform="translate(-1.62)"/><path class="cls-8" d="M221.48,46.65a1.28,1.28,0,0,0,0-.19c6.7.35,13.4.67,20.09,1v.22c-6.7-.38-13.4-.7-20.1-1v0Z" transform="translate(-1.62)"/><path class="cls-8" d="M241.69,48.24a1.63,1.63,0,0,0,.09.19c-5.87,3.75-12.05,7-18,10.53a1.63,1.63,0,0,0-.11-.17c6-3.53,12.19-6.76,18.05-10.55Z" transform="translate(-1.62)"/><path class="cls-8" d="M227.85,24.43l.1-.07a70.87,70.87,0,0,0,5.83,6.23l-.12.1a69.83,69.83,0,0,1-5.82-6.25Z" transform="translate(-1.62)"/><path class="cls-8" d="M231.4,18l0,0c0,1.08-.3,1.95-3.39,5.27a.23.23,0,0,0-.1-.07c2.23-2.41,3.58-4,3.44-5.22Z" transform="translate(-1.62)"/><path class="cls-8" d="M237.7,22l.07.08c-2.21.53-4.6.92-9.53,1.69a.53.53,0,0,0,0-.12c3.68-.57,6.59-1,9.47-1.65Z" transform="translate(-1.62)"/><path class="cls-8" d="M236.55,18.45c3.52,1.53,7.28,3.57,11.19,10h-.06c-2.62-4-5.26-7.53-11.13-10Z" transform="translate(-1.62)"/><path class="cls-8" d="M247.76,23.58s1.93,1.62.73,5.33l-.14-.13a5.39,5.39,0,0,0-.59-5.2Z" transform="translate(-1.62)"/><path class="cls-8" d="M236.07,18.33a4.8,4.8,0,0,1,1.54,1.1,2.94,2.94,0,0,1,.72,2.12l-.13-.07c-.12-1.61-.38-2.1-2.13-3.15Z" transform="translate(-1.62)"/><path class="cls-8" d="M231.76,18v0c1.69.9,3,1.68,5.72,3.42l0,.05c-2.46-1.6-3.7-2.37-5.7-3.44Z" transform="translate(-1.62)"/><path class="cls-8" d="M242.75,49l.19,0A74.5,74.5,0,0,1,243,60h-.14a86,86,0,0,0-.14-11Z" transform="translate(-1.62)"/><path class="cls-8" d="M229.88,17.21h0a49.44,49.44,0,0,1,5.28.81l.14.05c-3.66-.7-5.05-.83-5.38-.86Z" transform="translate(-1.62)"/><path class="cls-8" d="M230,17.23h0a7.22,7.22,0,0,1,1,.38h0a7.59,7.59,0,0,0-1-.38Z" transform="translate(-1.62)"/><path class="cls-8" d="M231.63,17.83l0,0,3.76.29.14.05c-1.09-.1-1.71-.15-3.84-.3Z" transform="translate(-1.62)"/><path class="cls-8" d="M239,22.47s0,0,0-.06a91.71,91.71,0,0,1,8.35,6.19l0,.1A93.12,93.12,0,0,0,239,22.48Z" transform="translate(-1.62)"/><path class="cls-8" d="M238.2,22.42l.1,0c0,1.48-.09,3.49-3.19,8.19l-.15-.09c1.39-2.2,3.3-5.21,3.24-8.15Z" transform="translate(-1.62)"/><path class="cls-8" d="M251.51,46c0,.09,0,.12,0,.21-2.95.58-3.86.76-7.69,1.4a1.33,1.33,0,0,0,0-.21c3.84-.65,4.78-.82,7.69-1.4Z" transform="translate(-1.62)"/><path class="cls-8" d="M235,32.38l.14-.06a139.29,139.29,0,0,1,7.22,14.14l-.14,0A153.63,153.63,0,0,0,235,32.38Z" transform="translate(-1.62)"/><path class="cls-8" d="M247.56,29.42l.07.12c-1.13.24-3.48.75-12.11,1.83a.61.61,0,0,0,0-.13c11.06-1.63,11.06-1.63,12.07-1.82Z" transform="translate(-1.62)"/><path class="cls-8" d="M248.21,30.15l.07,0c.23,4.1-.51,8.28-4.87,16.46l-.16-.11c2.64-5.06,5.21-10.49,5-16.39Z" transform="translate(-1.62)"/><path class="cls-8" d="M233.4,70.46l.13,0c.46,2.31,1.14,5.81.26,8.38l-.09,0c.34-1.4.81-3.31-.32-8.36Z" transform="translate(-1.62)"/><path class="cls-8" d="M241.9,61.89,242,62c-2.94,2.64-3.31,3-7.91,6.9a.6.6,0,0,0-.08-.08c2.62-2.33,5.29-4.6,7.88-7Z" transform="translate(-1.62)"/><path class="cls-8" d="M234.16,69.83a.44.44,0,0,0,.05-.13c3.11.76,8.9,2.18,11.88,3.77l-.1.09c-2.32-1-4.51-2-11.83-3.71v0Z" transform="translate(-1.62)"/><path class="cls-8" d="M233.85,79.42l.07-.06c1.05.47,1.38.67,1.56,1.08l-.13,0c-.17-.37-.39-.56-1.51-1.06Z" transform="translate(-1.62)"/><path class="cls-8" d="M245.59,74.05s-.44.57-11.45,5l0-.06c8.6-3.6,8.6-3.6,11.43-5Z" transform="translate(-1.62)"/><path class="cls-8" d="M252,66.32l.07,0a36,36,0,0,1-4.87,6.58h-.07A37.82,37.82,0,0,0,252,66.32Z" transform="translate(-1.62)"/><path class="cls-8" d="M243.34,62l.13-.11c2.57,4.32,3.83,7.37,3.12,11.15l-.1.07c.35-2.79.34-5.37-3.17-11.09l0,0Z" transform="translate(-1.62)"/><path class="cls-8" d="M239.12,18.59a23.16,23.16,0,0,1,7.79,4.08l0,0-.05,0a14.18,14.18,0,0,1-1.48-1.1,22.46,22.46,0,0,0-6.22-2.94Z" transform="translate(-1.62)"/><path class="cls-8" d="M236.52,18.38l-.08,0a47.71,47.71,0,0,1,10.19,4.34l.08.08a48.44,48.44,0,0,0-10.18-4.38Z" transform="translate(-1.62)"/><path class="cls-8" d="M249,30.19a.19.19,0,0,0,0-.08A51.67,51.67,0,0,1,256,38l0,.08A55.35,55.35,0,0,0,249,30.2Z" transform="translate(-1.62)"/><path class="cls-8" d="M248.64,30.33h.08a36.57,36.57,0,0,1,3.68,14.33l-.08,0c-.52-4.51-1-8.78-3.68-14.32Z" transform="translate(-1.62)"/><path class="cls-8" d="M251.87,46.9,252,47c-1.42,3.07-3,6.54-8.32,13.23l-.12-.11a60.44,60.44,0,0,0,8.32-13.23Z" transform="translate(-1.62)"/><path class="cls-8" d="M256.32,57.25l.07,0a37.65,37.65,0,0,1-3.14,7l-.08,0a41.51,41.51,0,0,0,3.15-7Z" transform="translate(-1.62)"/><path class="cls-8" d="M243.75,61.53a.88.88,0,0,0,.06-.17,49.77,49.77,0,0,1,8.35,3.56l-.1.17a45.62,45.62,0,0,0-8.32-3.54v0Z" transform="translate(-1.62)"/><path class="cls-8" d="M256.07,56.32s0,.11,0,.15c-2.26,1.1-4.74,2.18-12.16,4.45a.66.66,0,0,0,0-.14c7.7-2.54,8.69-2.87,12.18-4.46Z" transform="translate(-1.62)"/><path class="cls-8" d="M256.28,39.58l.1.16a22,22,0,0,1-3.32,5.49,1,1,0,0,0-.1-.17,22.53,22.53,0,0,0,3.32-5.48Z" transform="translate(-1.62)"/><path class="cls-8" d="M253,47a.73.73,0,0,0,.09-.11,35.42,35.42,0,0,1,3.52,8.19l-.11.12A34.78,34.78,0,0,0,252.94,47v0Z" transform="translate(-1.62)"/><path class="cls-8" d="M245.49,74.44l0,0a34.14,34.14,0,0,1-9.25,5.77,34.68,34.68,0,0,0,9.21-5.8Z" transform="translate(-1.62)"/><path class="cls-8" d="M256.84,31.9a31,31,0,0,1,4,9,31.62,31.62,0,0,0-4-9Z" transform="translate(-1.62)"/><path class="cls-8" d="M253.29,71.45l-.14.15c-.52.41-1.3,1-6.26,2.06,0,0,.05-.11.12-.13a11,11,0,0,1,1.14-.24c1.27-.28,4.32-1,5.14-1.84Z" transform="translate(-1.62)"/><path class="cls-8" d="M249.91,74.56l-.27.22a30.78,30.78,0,0,1-6.19,3.71c1.25-.67,2.54-1.28,3.76-2a31.37,31.37,0,0,0,2.7-1.91Z" transform="translate(-1.62)"/><path class="cls-8" d="M246.31,74.19l.13-.1c-.15,1.21-.35,2.72-3.31,4.49l-.16.07c1.34-.86,3.19-2.05,3.32-4.45Z" transform="translate(-1.62)"/><path class="cls-8" d="M248.4,23.79a.46.46,0,0,0-.07-.07,29.71,29.71,0,0,1,7.27,6.41l.05.08a29.27,29.27,0,0,0-7.24-6.41Z" transform="translate(-1.62)"/><path class="cls-8" d="M248.31,23.92c.06,0,5.85,4.23,8.11,13.92l-.06,0c-1-3.7-2.44-8.78-8.05-13.89Z" transform="translate(-1.62)"/><path class="cls-8" d="M256.46,31.35a7,7,0,0,1,.46,7.08l-.09-.17a7.12,7.12,0,0,0-.37-6.91Z" transform="translate(-1.62)"/><path class="cls-8" d="M236.21,17.85l.25,0,1.11.25-1.36-.3Z" transform="translate(-1.62)"/><path class="cls-8" d="M231.68,17.27h.22c2.23.16,3.33.4,3.8.81l-.16-.05a.75.75,0,0,1-.18-.13,3.24,3.24,0,0,0-1-.34,19.76,19.76,0,0,0-2.66-.3Z" transform="translate(-1.62)"/><path class="cls-8" d="M236,18.17l-.15-.05c1.21.07,1.72.1,2.2.16l.2.06c-.44-.06-.88-.1-2.24-.17Z" transform="translate(-1.62)"/><path class="cls-8" d="M261.38,43.27a31.89,31.89,0,0,1-1.17,16,32.39,32.39,0,0,0,1.17-16Z" transform="translate(-1.62)"/><path class="cls-8" d="M257.22,56.57l.06-.17a6.84,6.84,0,0,1,2.49,3.54l-.08.18c-.33-1.07-.56-1.84-2.48-3.53v0Z" transform="translate(-1.62)"/><path class="cls-8" d="M235.45,80.62l.13,0c.2.14.58.42-1.12.69l-.41.06-.21,0c1.32-.18,2.1-.37,1.61-.72h0Z" transform="translate(-1.62)"/><path class="cls-8" d="M241.92,79.19l.15-.06a21,21,0,0,1-3,1.12l-.25.07a22.8,22.8,0,0,0,3-1.12Z" transform="translate(-1.62)"/><path class="cls-8" d="M242.26,79a39,39,0,0,1-6.48,1.53l.13,0c2.11-.5,4.27-.84,6.35-1.48Z" transform="translate(-1.62)"/><path class="cls-8" d="M256.82,40.11h.08a36.2,36.2,0,0,1,.16,14.75l-.08,0a37.39,37.39,0,0,0-.16-14.74Z" transform="translate(-1.62)"/><path class="cls-8" d="M257.21,39.28c0-.07,0-.14,0-.17,2.17,1,2.93,1.51,3.79,2.59a1.77,1.77,0,0,0,0,.2c-.8-1-1.33-1.43-3.79-2.6v0Z" transform="translate(-1.62)"/><path class="cls-8" d="M261.23,42.81s1.33,5.12-3.85,12.53l0-.14c1.75-2.7,4.4-6.77,3.89-12.39Z" transform="translate(-1.62)"/><path class="cls-8" d="M199,40.27c-.14.5-.42,1.56-.53,2.06.16-.69.33-1.38.53-2.06Z" transform="translate(-1.62)"/><path class="cls-8" d="M226.57,81.45h-.06c.62.06,1.47.14,2.57.16H229q-1.25,0-2.46-.15Z" transform="translate(-1.62)"/><path class="cls-8" d="M204.29,69l0,0c.06.06,1.54,1.85,1.55,1.87l0,0c-.52-.59-1-1.2-1.51-1.83Z" transform="translate(-1.62)"/><path class="cls-8" d="M229.83,17.21c-.55,0-1,0-1.32,0q.66,0,1.32,0Z" transform="translate(-1.62)"/><path class="cls-8" d="M219.12,19.15a7.11,7.11,0,0,0-1.14.49h0c.16,0,2.17-.81,2.24-.85h0a9,9,0,0,0-1.09.36Z" transform="translate(-1.62)"/><path class="cls-8" d="M206.8,27.75a2.89,2.89,0,0,1,1-.88c.27.06-.88,1.38-1.35,1.7-.19.13-.29.13-.27,0a2.86,2.86,0,0,1,.57-.82Z" transform="translate(-1.62)"/><path class="cls-8" d="M214.73,77.14c-.53-.34-.72-.55-.63-.58h0a5.45,5.45,0,0,1,1.94,1.23,3.61,3.61,0,0,1-1.33-.65Z" transform="translate(-1.62)"/><path class="cls-8" d="M203.92,42.81c.11-.58.43-1.18.92-1.2.77,0,.7,1.61.07,2.24-.47.45-1,.21-1-.67,0-.12,0-.24,0-.37Z" transform="translate(-1.62)"/><path class="cls-8" d="M206.53,58c-.16-.81.19-1.19.58-1.19,1,.07,1.36,1.82.84,2.27s-1.2,0-1.42-1.08Z" transform="translate(-1.62)"/><path class="cls-8" d="M228.57,81.56a6.27,6.27,0,0,1-.85-.09c.6,0,1.2.12,1.81.14-.11,0-.5,0-1,0Z" transform="translate(-1.62)"/><path class="cls-8" d="M212.24,70.14c-.33-.55-.27-.93.14-.94.86,0,1.71,1.42,1.31,1.79-.24.21-1-.06-1.45-.85Z" transform="translate(-1.62)"/><path class="cls-8" d="M213.76,26.82A1.83,1.83,0,0,1,215,26c.56,0,.24.77-.26,1.27s-1.18.59-1.2.19a1.24,1.24,0,0,1,.25-.61Z" transform="translate(-1.62)"/><path class="cls-8" d="M223.4,18.89a3,3,0,0,1,1-.37s.11,0,0,.1c-.36.34-1.5.86-1.49.64s.18-.21.48-.37Z" transform="translate(-1.62)"/><path class="cls-8" d="M226.16,80.87c-.34-.14-.46-.24-.4-.26h0a3.59,3.59,0,0,1,1.26.52,2.78,2.78,0,0,1-.9-.25Z" transform="translate(-1.62)"/><path class="cls-8" d="M219.11,46.49a1.22,1.22,0,0,1,1.22-1.26,1.28,1.28,0,0,1,.77,2.23,1.18,1.18,0,0,1-2-1Z" transform="translate(-1.62)"/><path class="cls-8" d="M223.51,74.06a.53.53,0,0,1,.53-.77c.88,0,1.31,1,.93,1.4s-1.2.14-1.46-.63Z" transform="translate(-1.62)"/><path class="cls-8" d="M221.55,59.48a1,1,0,0,1,1.07-1.2,1.2,1.2,0,1,1-1.07,1.2Z" transform="translate(-1.62)"/><path class="cls-8" d="M226.7,23.77a.9.9,0,0,1,.87-.67.68.68,0,0,1,.44,1.21c-.44.44-1.34.32-1.34-.32a.7.7,0,0,1,0-.22Z" transform="translate(-1.62)"/><path class="cls-8" d="M232.26,69.46a1,1,0,0,1,1.09-.87.89.89,0,0,1,.55,1.62c-.64.55-1.73.26-1.65-.65a.34.34,0,0,1,0-.1Z" transform="translate(-1.62)"/><path class="cls-8" d="M229.83,17.21c.1,0,.16,0,.16,0h-.05l-.11,0Z" transform="translate(-1.62)"/><path class="cls-8" d="M230.14,81.53a.76.76,0,0,1,.3-.12c.06,0,.05,0,0,0a1,1,0,0,1-.47.13h0l.13-.06Z" transform="translate(-1.62)"/><path class="cls-8" d="M233.44,31.3a.86.86,0,0,1,.93-.89,1.1,1.1,0,0,1,.94,1.76,1.14,1.14,0,0,1-1.87-.87Z" transform="translate(-1.62)"/><path class="cls-8" d="M231.1,17.78c-.09-.09-.18-.2-.06-.2s.84.35.71.46-.36,0-.65-.26Z" transform="translate(-1.62)"/><path class="cls-8" d="M233.13,79.24a1,1,0,0,1,.78-.45c.33,0,.33.26,0,.58s-.92.46-.91.17a.73.73,0,0,1,.13-.3Z" transform="translate(-1.62)"/><path class="cls-8" d="M241.58,47.66a1.15,1.15,0,0,1,1.11-1.27c1.27,0,1.46,1.72.76,2.32a1.15,1.15,0,0,1-1.87-1.05Z" transform="translate(-1.62)"/><path class="cls-8" d="M241.79,61.14A1.3,1.3,0,0,1,243,60c1.16,0,1,1.4.43,2s-1.68.38-1.68-.57a1.45,1.45,0,0,1,0-.23Z" transform="translate(-1.62)"/><path class="cls-8" d="M237.6,21.86c-.08-.12-.32-.52.09-.54.7,0,1.54,1,1.26,1.21s-.92,0-1.35-.67Z" transform="translate(-1.62)"/><path class="cls-8" d="M235.2,80.55a4.8,4.8,0,0,1,1-.34s.07,0,0,0a5.33,5.33,0,0,1-1.7.6h0s0-.06.63-.29Z" transform="translate(-1.62)"/><path class="cls-8" d="M251.5,45.77c0-.66.29-1.1.77-1.12.92,0,1.27,1.75.67,2.34s-1.43.07-1.44-1.22Z" transform="translate(-1.62)"/><path class="cls-8" d="M247.48,29.27c-.29-.57-.13-.82.16-.83.71,0,1.76,1.44,1.34,1.82-.27.25-1-.09-1.5-1Z" transform="translate(-1.62)"/><path class="cls-8" d="M235.48,18.14a7.86,7.86,0,0,1-.75-.27h0a6.94,6.94,0,0,1,1.88.59,5,5,0,0,1-1.14-.31Z" transform="translate(-1.62)"/><path class="cls-8" d="M245.86,73.71a2.09,2.09,0,0,1,1.2-.8c.35,0,.18.43-.37,1s-1.21.78-1.22.5a1.27,1.27,0,0,1,.39-.66Z" transform="translate(-1.62)"/><path class="cls-8" d="M252,65.28c.28-.62.71-1,1.1-1,.65,0,.21,1.25-.39,1.81s-.92.4-.9-.1a1.67,1.67,0,0,1,.19-.66Z" transform="translate(-1.62)"/><path class="cls-8" d="M256.13,56c.11-.51.39-1.07.82-1.1.69,0,.53,1.7-.07,2.28-.33.32-.82.24-.82-.61a2.62,2.62,0,0,1,.07-.57Z" transform="translate(-1.62)"/><path class="cls-8" d="M256,38.8c-.12-.47-.12-1,.24-1,.62,0,1.34,1.81.9,2.26-.26.27-.87-.14-1.14-1.24Z" transform="translate(-1.62)"/><path class="cls-8" d="M247.18,23.16c-.35-.28-.73-.6-.61-.62.36,0,2,1.26,1.9,1.4s-.36-.06-1.29-.78Z" transform="translate(-1.62)"/><path class="cls-8" d="M242.51,78.86a12.06,12.06,0,0,1,1.12-.49,12.32,12.32,0,0,1-2.2,1,8,8,0,0,1,1.08-.5Z" transform="translate(-1.62)"/><path class="cls-8" d="M259.6,60.38c.24-.67.46-1.11.58-1.14s-.53,2.15-.82,2.32c-.08,0-.08-.12,0-.43a6.62,6.62,0,0,1,.24-.75Z" transform="translate(-1.62)"/><path class="cls-8" d="M238.14,18.32c-.38-.11-.77-.18-1.16-.3a22.63,22.63,0,0,1,2.4.65l-.17-.05-1.07-.3Z" transform="translate(-1.62)"/><path class="cls-8" d="M261.05,42.05a6.51,6.51,0,0,1-.22-1.19,12.43,12.43,0,0,1,.58,2.44,5.71,5.71,0,0,1-.36-1.25Z" transform="translate(-1.62)"/><path class="cls-8" d="M256.08,30.81c-.21-.29-.42-.58-.62-.88h0l.35.48,1.05,1.51c-.27-.36-.52-.74-.78-1.11Z" transform="translate(-1.62)"/><path class="cls-2" d="M241.42,79.64l-.11,0a31.09,31.09,0,0,0,6.1-3l.25-.16a30.71,30.71,0,0,1-6.23,3.1Z" transform="translate(-1.62)"/><path class="cls-2" d="M249.71,75.07a1.56,1.56,0,0,0,.2-.16,13.35,13.35,0,0,0,2.09-2l-.14.11c-.29.28-.63.68-.9,1a12.81,12.81,0,0,1-1.25,1.07Z" transform="translate(-1.62)"/><path class="cls-2" d="M241.63,79.53a33.2,33.2,0,0,0,9.8-6.2v0a33.21,33.21,0,0,1-9.81,6.22Z" transform="translate(-1.62)"/><path class="cls-2" d="M253,26.63l-.18-.17-.14-.15a33.53,33.53,0,0,0-13.87-8C244,20.21,248,21.74,253,26.63Z" transform="translate(-1.62)"/><path class="cls-2" d="M254.67,28.52a2.09,2.09,0,0,0-.14-.17c-.26-.26-.6-.6-.88-.84l.13.15c.26.26.64.58.89.86Z" transform="translate(-1.62)"/><path class="cls-2" d="M260,41.66l.06.11a19.27,19.27,0,0,0-3.68-11.05c-.06-.1-.13-.19-.2-.29A19.52,19.52,0,0,1,260,41.65Z" transform="translate(-1.62)"/><path class="cls-2" d="M238.8,19.32l.13.07c.12-.34.16-.43-.05-.73a2.34,2.34,0,0,0-.85-.56l-.2-.05a2.06,2.06,0,0,1,.92.6.59.59,0,0,1,0,.66Z" transform="translate(-1.62)"/><path class="cls-2" d="M252.47,26.44a33.71,33.71,0,0,0-13.61-8.13,34.13,34.13,0,0,1,13.61,8.13Z" transform="translate(-1.62)"/><path class="cls-2" d="M252.77,26.85s-3.09-3.16-13.29-7.12a6.92,6.92,0,0,0,1.63.68,45.61,45.61,0,0,1,11.66,6.44Z" transform="translate(-1.62)"/><path class="cls-2" d="M241.09,79.71a11.63,11.63,0,0,0,4.54-3.34l-.15.09a6.34,6.34,0,0,0-.81.9,11.45,11.45,0,0,1-3.58,2.35Z" transform="translate(-1.62)"/><path class="cls-2" d="M253.2,71.6a31.33,31.33,0,0,0,8.17-14.44c.06-.24.12-.48.17-.72A31.62,31.62,0,0,1,253.2,71.6Z" transform="translate(-1.62)"/><path class="cls-2" d="M262.3,48.58a2.09,2.09,0,0,1,0-.25,9.53,9.53,0,0,0-1.84-5.08.37.37,0,0,0,0,.18,6.82,6.82,0,0,0,.75,1.24,8.78,8.78,0,0,1,1.09,3.91Z" transform="translate(-1.62)"/><path class="cls-2" d="M257.66,52.93l0,.08A27.51,27.51,0,0,0,260,43.83a.52.52,0,0,1-.07-.11,28.54,28.54,0,0,1-2.28,9.19v0Z" transform="translate(-1.62)"/><path class="cls-2" d="M257.85,53.7a.82.82,0,0,1,0,.18c2.79-1.27,4.24-2.18,4.46-3.63V50c-.23,1.07-.68,2-4.45,3.64v0Z" transform="translate(-1.62)"/><path class="cls-2" d="M233.69,81.42a36.26,36.26,0,0,0,11.24-4.84l0-.06a38.2,38.2,0,0,1-11.25,4.9Z" transform="translate(-1.62)"/><path class="cls-2" d="M252.05,33.14l.09.13c1.6-1.91,2.3-3.35,1.46-5.52l-.14-.15c.64,1.81.59,3.1-1.42,5.52v0Z" transform="translate(-1.62)"/><path class="cls-2" d="M259.83,41.5l.05,0A27.44,27.44,0,0,0,254.1,28.2l-.06,0a27.58,27.58,0,0,1,5.78,13.34Z" transform="translate(-1.62)"/><path class="cls-2" d="M259.51,42c0-.26-1.91-3.43-7-7.73a.41.41,0,0,1,0,.11,38,38,0,0,1,7,7.62Z" transform="translate(-1.62)"/><path class="cls-2" d="M246.64,75.58a.3.3,0,0,1-.08.08,35.52,35.52,0,0,0,5.18-2.75l.12-.14a34.67,34.67,0,0,1-5.2,2.8Z" transform="translate(-1.62)"/><path class="cls-2" d="M252.94,71.73c.06,0,5.69-5.19,4.48-16.61l-.07.06c.38,5.41.31,10.39-4.41,16.55Z" transform="translate(-1.62)"/><path class="cls-2" d="M252.47,72.15s2.23-2.24-1.73-6.53l-.12.16c1.65,1.88,3,3.78,1.85,6.37Z" transform="translate(-1.62)"/><path class="cls-2" d="M230.05,17c.17,0,.43,0,.43,0h-.43Z" transform="translate(-1.62)"/><path class="cls-2" d="M237.47,17.94c-.77-.2-4.53-.75-7.35-1,6.58.85,6.58.85,7.35,1Z" transform="translate(-1.62)"/><path class="cls-2" d="M237,17.79l.13,0a26.6,26.6,0,0,0-5.21-.81l-.26,0a27.45,27.45,0,0,1,5.32.79Z" transform="translate(-1.62)"/><path class="cls-2" d="M232.07,81.81l.33,0a28.35,28.35,0,0,0,7.32-1.51,29,29,0,0,1-7.65,1.54Z" transform="translate(-1.62)"/><path class="cls-2" d="M233.3,81.52l-.12,0a57.76,57.76,0,0,0,6.71-1.39l.17-.07a56,56,0,0,1-6.74,1.43Z" transform="translate(-1.62)"/><path class="cls-2" d="M238.51,78.61s0,0-.06.06c3-1,4.61-1.58,6.69-2.4a1.14,1.14,0,0,0,.11-.11c-2.42,1-3.6,1.4-6.73,2.44Z" transform="translate(-1.62)"/><path class="cls-2" d="M246.43,75.3s3-2.43,3.78-9.15l-.11.06c-.48,3-.89,5.57-3.67,9.09Z" transform="translate(-1.62)"/><path class="cls-2" d="M233.52,81.43a8.49,8.49,0,0,0,3.91-2.12.35.35,0,0,0-.11,0,7.78,7.78,0,0,0-1,.82,10.49,10.49,0,0,1-2.8,1.27Z" transform="translate(-1.62)"/><path class="cls-2" d="M230,81.88h.23c2,0,2.49-.16,2.66-.27l-.15,0s-.06,0-.09,0a4.4,4.4,0,0,1-.87.14c-.21,0-.72.05-1.78.06Z" transform="translate(-1.62)"/><path class="cls-2" d="M229.83,81.88a19.26,19.26,0,0,0,2.47-.21l.13,0a20.55,20.55,0,0,1-2.6.23Z" transform="translate(-1.62)"/><path class="cls-2" d="M257.13,52.8l.08,0a39.45,39.45,0,0,0-4.89-18.05l-.08,0a41.56,41.56,0,0,1,4.89,18Z" transform="translate(-1.62)"/><path class="cls-2" d="M250.94,64.24l0,0a44.06,44.06,0,0,0,5.76-9.08l-.08-.1a47.22,47.22,0,0,1-5.73,9.13Z" transform="translate(-1.62)"/><path class="cls-2" d="M250,64.38l.09-.07c-.35-2.16-1.3-7.87-8.73-18.47l-.16.13c3.79,5.56,7.8,12.1,8.8,18.41Z" transform="translate(-1.62)"/><path class="cls-2" d="M256.6,53.67c0-.05,0-.11,0-.16-3.38-2.74-7.71-5.14-14.95-8.28,0,0,0,.1,0,.15,6.28,2.93,10.82,5,15,8.29Z" transform="translate(-1.62)"/><path class="cls-2" d="M233.83,31.54l.18,0h0c-.47-2.45-1.9-9.93-3.41-13.54h0c.38,1,1.56,4.12,3.28,13.56Z" transform="translate(-1.62)"/><path class="cls-2" d="M238.07,19.25A48.63,48.63,0,0,0,230.24,17a53.53,53.53,0,0,1,7.83,2.28Z" transform="translate(-1.62)"/><path class="cls-2" d="M238.29,19.4c-.12-.08-.12-.08-1.17-.32-2.13-.46-4.26-.88-6.38-1.35l0,0c2.5.58,5,1.06,7.53,1.63Z" transform="translate(-1.62)"/><path class="cls-2" d="M230,81.88c1.44-.14,3.06-.3,7.09-2.54l0,0c-2.08,1.13-4.43,2.41-7.07,2.57Z" transform="translate(-1.62)"/><path class="cls-2" d="M251.06,32.6l.06,0A33.82,33.82,0,0,0,239.64,20c3.79,2.66,7.27,5.45,11.42,12.62Z" transform="translate(-1.62)"/><path class="cls-2" d="M234.75,31.77l.11.1c3.71-4.17,6.79-8.51,4.3-12l-.14-.06c1.59,2.49,1.48,5.48-4.28,12Z" transform="translate(-1.62)"/><path class="cls-2" d="M241.45,44.06a.66.66,0,0,1,.08.13c4.34-3.32,7.67-6.27,9.87-9.83a1,1,0,0,1-.13-.16c-1.56,2.38-3.49,4.93-9.84,9.83l0,0Z" transform="translate(-1.62)"/><path class="cls-2" d="M251,33.69l-.07-.18c-3.21-.24-6.83-.5-15.71-1,0,.05,0,.12,0,.18,3.87.2,10.36.54,15.77,1Z" transform="translate(-1.62)"/><path class="cls-2" d="M229.83,81.88h0Z" transform="translate(-1.62)"/><path class="cls-2" d="M229.83,81.88h0c1,0,1.4-.31,1.22-.92L231,81c0,.2,0,.53-.15.66a1.72,1.72,0,0,1-1,.22Z" transform="translate(-1.62)"/><path class="cls-2" d="M231.32,80.61v0c1.95-.51,5.81-1.57,5.85-1.58l.08-.08c-2,.54-4,1.06-5.92,1.62Z" transform="translate(-1.62)"/><path class="cls-2" d="M249.58,64.91l.08-.13c-2.95-2-6.58-3.83-13.41-6.6,0,0,0,.11-.06.15,7.74,3.35,9.82,4.25,13.39,6.58Z" transform="translate(-1.62)"/><path class="cls-2" d="M238.55,78.32a42.58,42.58,0,0,0,11.06-12l-.1-.05a45.65,45.65,0,0,1-11,12.08Z" transform="translate(-1.62)"/><path class="cls-2" d="M237.68,78.63l.13-.08c-.74-1.53-2-2.58-5.51-4.69a.5.5,0,0,1-.08.12c3.54,2.12,4.77,3.17,5.46,4.65Z" transform="translate(-1.62)"/><path class="cls-2" d="M232.37,73.11l0,.1c11.18-4.53,15.19-6.57,16.91-7.44,0,0,0-.12,0-.17-5.14,2.56-7.4,3.51-17,7.5Z" transform="translate(-1.62)"/><path class="cls-2" d="M233.21,31.87l.08-.09c-5.9-5.62-7.12-6.79-8.54-9.32l-.08.06c1.62,2.88,3.74,5,8.54,9.35Z" transform="translate(-1.62)"/><path class="cls-2" d="M233,32.48s0-.12,0-.17c-7.11-1.15-10.36-1.68-15.4-2.72l-.08.16c5.17,1.06,8.18,1.55,15.47,2.73Z" transform="translate(-1.62)"/><path class="cls-2" d="M235.55,56.66l.15.05a109.43,109.43,0,0,0,4.5-10.63L240,46c-1.37,3.62-2.12,5.61-4.48,10.65Z" transform="translate(-1.62)"/><path class="cls-2" d="M239.9,43.71l.13-.06c-1.26-2.69-1.9-4-5.29-10.12l-.12.06c4.32,8.16,4.32,8.16,5.28,10.12Z" transform="translate(-1.62)"/><path class="cls-2" d="M216.2,44.47l.05.09c5.64-3.83,11.39-7.47,17-11.29l-.11-.15c-5.66,3.78-11.49,7.3-17,11.33v0Z" transform="translate(-1.62)"/><path class="cls-2" d="M216.38,45.17a.53.53,0,0,1,0,.12c2.81,0,2.81,0,23-.32a1.41,1.41,0,0,1,0-.21q-11.49.2-23,.39v0Z" transform="translate(-1.62)"/><path class="cls-2" d="M228.84,17h-.17L230,17h-1.19Z" transform="translate(-1.62)"/><path class="cls-2" d="M222.24,79.29l.1.06c.63-1.37,2.21-2.7,8.4-5.41a.69.69,0,0,1-.05-.13c-4.79,2.13-7.88,3.79-8.47,5.47Z" transform="translate(-1.62)"/><path class="cls-2" d="M231,80.39h.07a23,23,0,0,0,.55-6.07h-.14a26.86,26.86,0,0,1-.48,6.06Z" transform="translate(-1.62)"/><path class="cls-2" d="M229.27,81.86a23.53,23.53,0,0,1-6.23-2,20.58,20.58,0,0,0,6.23,2Z" transform="translate(-1.62)"/><path class="cls-2" d="M229.47,81.87h.06a.79.79,0,0,1-.37-.14c.08-.18.14-.3,1.4-.81v0c-.33.14-.76.31-1.07.48a1.37,1.37,0,0,0-.38.34c.08.14.08.14.35.18Z" transform="translate(-1.62)"/><path class="cls-2" d="M230.58,80.73l0,0c-2.63-.44-5.29-.73-7.93-1.12.1.07.1.07,1,.21,2.29.34,4.59.61,6.88,1Z" transform="translate(-1.62)"/><path class="cls-2" d="M217.54,28.64l.07.06c2.39-2.42,3.48-3.52,6.24-6.08l-.07-.06c-2.06,1.91-3.83,3.57-6.25,6.07Z" transform="translate(-1.62)"/><path class="cls-2" d="M230.75,73.14l.06-.09C224.38,69.25,217.65,66,211.35,62v.11c2.22,1.48,2.74,1.83,5.75,3.54,4.52,2.57,9.14,4.95,13.66,7.52Z" transform="translate(-1.62)"/><path class="cls-2" d="M231.68,72.67h.08c1.42-5.11,3-12.77,3.18-13.62l-.2,0c-.74,3.59-1.23,6-3.07,13.64Z" transform="translate(-1.62)"/><path class="cls-2" d="M234,57.28a1.08,1.08,0,0,1,.11-.18c-13.23-8-13.23-8-17.84-11.24l-.1.19c4.39,3.09,4.39,3.09,17.83,11.23Z" transform="translate(-1.62)"/><path class="cls-2" d="M211.23,61.21a.84.84,0,0,1,0,.12c14.89-2.21,14.89-2.21,22.58-3.23a1.36,1.36,0,0,1,0-.2c-10.34,1.36-16.57,2.18-22.61,3.29v0Z" transform="translate(-1.62)"/><path class="cls-2" d="M230.48,17.47l0,0,0-.31-.23-.18h0l.23.19,0,.29Z" transform="translate(-1.62)"/><path class="cls-2" d="M224,18.21l-.09.05c5.93-1.16,5.93-1.16,6.17-1.27v0h0v0c-.11,0-.11,0-6,1.22Z" transform="translate(-1.62)"/><path class="cls-2" d="M225.13,21.52l0,.07a30.85,30.85,0,0,0,5.14-3.69.1.1,0,0,1-.05,0c-.75.7-1.21,1.13-5.12,3.66Z" transform="translate(-1.62)"/><path class="cls-2" d="M224.05,21.69l.1-.09c-.78-1-1.6-1.94-.78-3.09-.15.06-.63.37-.37,1.58a4.31,4.31,0,0,0,1.05,1.6Z" transform="translate(-1.62)"/><path class="cls-2" d="M223.89,18.27l-.1.05,6.38-.59s0,0,0,0l-6.26.57Z" transform="translate(-1.62)"/><path class="cls-2" d="M221.49,79c-2.54-2.09-7.28-6-10.67-16.44h-.08C212.25,67.37,215,74.25,221.49,79Z" transform="translate(-1.62)"/><path class="cls-2" d="M202.16,50.56s0,.11,0,.16a69.74,69.74,0,0,1,12-5,1.52,1.52,0,0,1,0-.21,66.16,66.16,0,0,0-12,5v0Z" transform="translate(-1.62)"/><path class="cls-2" d="M210.47,60.34l.08,0A58.55,58.55,0,0,1,214.8,46.5l-.16-.08a52.8,52.8,0,0,0-4.18,13.91Z" transform="translate(-1.62)"/><path class="cls-2" d="M215.12,44l.13,0c.06-5.91.18-8.43,1.34-13.52l-.15,0A48.94,48.94,0,0,0,215.12,44Z" transform="translate(-1.62)"/><path class="cls-2" d="M214.31,44.67a.78.78,0,0,1,.11-.18c-3.35-2.73-6.07-5.09-8.14-8.44l-.12.17c1.54,2.35,3,4.33,8.15,8.45Z" transform="translate(-1.62)"/><path class="cls-2" d="M224.49,81.27l.15,0c-1-.35-1.85-.63-2.26-1.51l-.14-.07c.32.58.55,1,2.23,1.55Z" transform="translate(-1.62)"/><path class="cls-2" d="M221.43,79.13a58.79,58.79,0,0,1-9.89-6.82v.06a53.92,53.92,0,0,0,9.9,6.76Z" transform="translate(-1.62)"/><path class="cls-2" d="M210.34,70.77l.1.06a17.53,17.53,0,0,1-.17-8.35l-.15-.1a18,18,0,0,0,.2,8.38Z" transform="translate(-1.62)"/><path class="cls-2" d="M209.51,60.72a.54.54,0,0,1,.05-.11,46.29,46.29,0,0,1-7.43-8.8.78.78,0,0,1,0,.14,41.14,41.14,0,0,0,7.43,8.77Z" transform="translate(-1.62)"/><path class="cls-2" d="M223.85,18.1l.13,0c.63-.23,1.46-.59,2.11-.75A14.22,14.22,0,0,1,228,17a11,11,0,0,0-4.18,1.09Z" transform="translate(-1.62)"/><path class="cls-2" d="M216.83,28.6l.12,0c.67-3.15,1.5-7.08,5.91-9.88,0,0-4.65,1.76-6,9.91Z" transform="translate(-1.62)"/><path class="cls-2" d="M216.71,20.15l-.12.06c1.62-.51,2.9-.91,6.33-1.73l.12-.06c-3.38.8-4.64,1.18-6.32,1.72Z" transform="translate(-1.62)"/><path class="cls-2" d="M206.68,34.93a.57.57,0,0,1,0,.13,100.2,100.2,0,0,1,9.18-5,.43.43,0,0,1,0-.16,98.15,98.15,0,0,0-9.16,5v0Z" transform="translate(-1.62)"/><path class="cls-2" d="M216.23,29l.13-.14c-2.6-3.16-3.52-5.53-.55-8.27a4.3,4.3,0,0,0-2,3.82c.09,1.83,1.54,3.56,2.4,4.59Z" transform="translate(-1.62)"/><path class="cls-2" d="M202.53,31.84c.53-.74,1.22-1.73,1.79-2.44l.06-.08c-.5.65-1.17,1.52-1.63,2.2l-.22.32Z" transform="translate(-1.62)"/><path class="cls-2" d="M204.94,28.58v0a1,1,0,0,1,.13-.16v0l-.14.16Z" transform="translate(-1.62)"/><path class="cls-2" d="M223.91,81.15a22.25,22.25,0,0,1-12.59-8.68l-.11,0c2.69,3.37,5.88,6.82,12.69,8.7Z" transform="translate(-1.62)"/><path class="cls-2" d="M224.05,81.21a39.52,39.52,0,0,1-9.34-3.43s3,1.92,9.34,3.43Z" transform="translate(-1.62)"/><path class="cls-2" d="M198.59,40.53c.57-1.26,1.45-2.48,6.53-4.63a1.67,1.67,0,0,1,0-.18c-3.69,1.59-5.83,2.79-6.51,4.6a1.72,1.72,0,0,0-.07.21Z" transform="translate(-1.62)"/><path class="cls-2" d="M201.63,49.68l.07,0a40,40,0,0,1,3.67-13.05l-.1,0a39.07,39.07,0,0,0-3.65,13.06Z" transform="translate(-1.62)"/><path class="cls-2" d="M205.44,35.1l.12-.17c-1.17-1.88-2-3.52-.7-6-.47.54-1.8,2.59.58,6.21Z" transform="translate(-1.62)"/><path class="cls-2" d="M206,34.51l.12-.07a20.12,20.12,0,0,1,9.17-13.56c-.07,0-7.19,3.55-9.29,13.63Z" transform="translate(-1.62)"/><path class="cls-2" d="M209.86,70.68c-2.8-4-6.63-9.43-8.06-18.4l-.09,0a39.27,39.27,0,0,0,8.15,18.37Z" transform="translate(-1.62)"/><path class="cls-2" d="M213.24,76.85l.11.07c-1.77-1.78-2.23-2.62-2.59-4.72a.79.79,0,0,1-.15-.12,7.17,7.17,0,0,0,2.61,4.76Z" transform="translate(-1.62)"/><path class="cls-2" d="M199.44,60.86c1.53,3.34,3.65,6,10.41,10.28a.36.36,0,0,0,0-.11,10.06,10.06,0,0,0-1.61-1c-6.57-4.26-8.1-7.7-8.84-9.36,0,.08.06.16.08.23Z" transform="translate(-1.62)"/><path class="cls-2" d="M197.66,45c0,1.28,0,2.88,3.32,5.65,0-.09,0-.12,0-.21-1.95-1.71-3.54-3.31-3.31-5.67l0,.23Z" transform="translate(-1.62)"/><path class="cls-2" d="M198.38,57.48c-.2-1.38-.41-2.95,2.68-5.9a1.3,1.3,0,0,1,0-.21c-1.44,1.45-3.24,3.25-2.7,5.89l.06.22Z" transform="translate(-1.62)"/><path class="cls-2" d="M229.83,81.88h-.26a.65.65,0,0,0,.14,0Z" transform="translate(-1.62)"/><path class="cls-2" d="M229.59,81.88c-.45,0-1.79-.1-4.33-.45.31.07,2.69.37,4.33.45Z" transform="translate(-1.62)"/><path class="cls-2" d="M219.07,80.05a32.23,32.23,0,0,0,5.56,1.3A41.47,41.47,0,0,1,218.87,80l.2.07Z" transform="translate(-1.62)"/><path class="cls-2" d="M228.15,81.84a15.2,15.2,0,0,1-2.93-.38l-.18,0a12.81,12.81,0,0,0,2.88.4Z" transform="translate(-1.62)"/><path class="cls-2" d="M201.56,65.37a32.32,32.32,0,0,0,11.25,11.35,11.37,11.37,0,0,0-2-1.34A31.54,31.54,0,0,1,201.33,65c.07.14.15.28.23.42Z" transform="translate(-1.62)"/><path class="cls-2" d="M216.24,78.9a8.3,8.3,0,0,1-2.12-1.32l-.18-.1A8.11,8.11,0,0,0,216,78.8l.21.1Z" transform="translate(-1.62)"/><path class="cls-2" d="M209.32,74.57A22,22,0,0,0,213.18,77l-.13-.1c-.37-.23-.9-.49-1.29-.7a19.24,19.24,0,0,1-2.63-1.79l.19.15Z" transform="translate(-1.62)"/><path class="cls-2" d="M229,17a1.79,1.79,0,0,0-.36,0l.58,0Z" transform="translate(-1.62)"/><path class="cls-2" d="M222.85,17.69a21.24,21.24,0,0,0-6.28,2.36c.87-.39,1.68-.91,2.58-1.25a24,24,0,0,1,4-1.16l-.27.05Z" transform="translate(-1.62)"/><path class="cls-2" d="M217.16,19.87l0,0A34.27,34.27,0,0,1,227.71,17h.09a33.63,33.63,0,0,0-10.63,2.84Z" transform="translate(-1.62)"/><path class="cls-2" d="M216.27,19.91a1,1,0,0,0-.32.23.24.24,0,0,0,0,.2l.18-.09a.33.33,0,0,1,0-.24,1,1,0,0,1,.29-.19l-.19.09Z" transform="translate(-1.62)"/><path class="cls-2" d="M206.29,27.06l-.8.91,1-1.1-.19.19Z" transform="translate(-1.62)"/><path class="cls-2" d="M205.83,27.69l0,0a36,36,0,0,1,9.3-6.86l.06,0a35.75,35.75,0,0,0-9.32,6.84Z" transform="translate(-1.62)"/><path class="cls-2" d="M253.21,27.34c.52.57.87.89.95.88a7,7,0,0,0-1.69-1.82h0c0,.06.23.38.75.94Z" transform="translate(-1.62)"/><path class="cls-2" d="M252.11,72.51c-.74.75-.7.82-.67.82a6.76,6.76,0,0,0,1.75-1.75h0c-.05,0-.26.11-1.07.93Z" transform="translate(-1.62)"/><path class="cls-2" d="M240.32,80l-1,.38a12.63,12.63,0,0,0,2.31-.84h0a10,10,0,0,0-1.3.47Z" transform="translate(-1.62)"/><path class="cls-2" d="M237.63,18l1.25.34a16,16,0,0,0-2.38-.65,1.39,1.39,0,0,0,.34.1l.79.21Z" transform="translate(-1.62)"/><path class="cls-2" d="M259.63,42.89c.2.9.55,1.29.73,1s-.12-2.4-.63-2.44c-.3.05-.25.79-.1,1.42Z" transform="translate(-1.62)"/><path class="cls-2" d="M245.48,76c-.56.48-.62.66-.49.67.4.05,2-1.21,1.84-1.41a.11.11,0,0,0-.07,0,3,3,0,0,0-1.28.77Z" transform="translate(-1.62)"/><path class="cls-2" d="M256.51,54.23c-.06,1,.41,1.34.84,1,.61-.54.72-2.39,0-2.43-.42,0-.76.63-.82,1.48Z" transform="translate(-1.62)"/><path class="cls-2" d="M251,33.66c.46,1.09,1.33,1.37,1.51.86s-.5-1.91-1.29-1.94c-.4,0-.49.45-.22,1.08Z" transform="translate(-1.62)"/><path class="cls-2" d="M249.41,65.28c-.3.85.11,1.2.67.94.83-.38,1.33-1.86.72-2.08a.56.56,0,0,0-.17,0,1.57,1.57,0,0,0-1.22,1.16Z" transform="translate(-1.62)"/><path class="cls-2" d="M238.5,19.53c.8.48,1.18.52,1.17.41a3.42,3.42,0,0,0-1.74-.93c-.05,0-.13,0,.06.17a4.15,4.15,0,0,0,.51.35Z" transform="translate(-1.62)"/><path class="cls-2" d="M232.66,81.61c-.25,0-.5.07-.75.13a10,10,0,0,0,1.81-.33h0l-1.05.21Z" transform="translate(-1.62)"/><path class="cls-2" d="M237.36,78.88c-.34.29-.43.48-.24.49.49,0,1.7-.82,1.47-1a.19.19,0,0,0-.12,0,2.13,2.13,0,0,0-1.11.57Z" transform="translate(-1.62)"/><path class="cls-2" d="M229.83,81.88h0Z" transform="translate(-1.62)"/><path class="cls-2" d="M239.34,44.87a1.22,1.22,0,0,0,2.07.93,1.36,1.36,0,0,0-.94-2.23,1.12,1.12,0,0,0-1.13,1.3Z" transform="translate(-1.62)"/><path class="cls-2" d="M230,17l.18,0a.42.42,0,0,0,.17,0,1.55,1.55,0,0,0-.53-.07H230Z" transform="translate(-1.62)"/><path class="cls-2" d="M233.83,57.84a1.24,1.24,0,1,0,1.4-1.25h-.1a1.26,1.26,0,0,0-1.3,1.25Z" transform="translate(-1.62)"/><path class="cls-2" d="M233,32.66a1.18,1.18,0,0,0,2,.66,1.17,1.17,0,0,0-1-1.8h0a1,1,0,0,0-1,1.14Z" transform="translate(-1.62)"/><path class="cls-2" d="M230.57,80.76c-.08.3.18.37.44.23s.45-.5.17-.59h-.1a.53.53,0,0,0-.51.37Z" transform="translate(-1.62)"/><path class="cls-2" d="M230.16,17.68a.39.39,0,0,0,.39.3h0c.27,0,.27-.23.08-.41a.56.56,0,0,0-.3-.14.18.18,0,0,0-.17.25Z" transform="translate(-1.62)"/><path class="cls-2" d="M230.65,73.56a.86.86,0,0,0,1.51.49.78.78,0,0,0-.55-1.38.88.88,0,0,0-1,.89Z" transform="translate(-1.62)"/><path class="cls-2" d="M223.77,22.09c-.24.55.24.7.68.54.6-.22,1-1,.54-1.24a.56.56,0,0,0-.21,0,1.23,1.23,0,0,0-1,.74Z" transform="translate(-1.62)"/><path class="cls-2" d="M229.68,81.88h.15a4.5,4.5,0,0,1-.54,0h-.11a3.44,3.44,0,0,0,.5,0Z" transform="translate(-1.62)"/><path class="cls-2" d="M214.16,45.31a1.07,1.07,0,0,0,1.79,1c.63-.58.69-2.21-.61-2.29a1.25,1.25,0,0,0-1.18,1.32Z" transform="translate(-1.62)"/><path class="cls-2" d="M215.93,29.55c-.32.85.33,1.12.92.85.8-.37,1.18-1.6.57-1.83a1.59,1.59,0,0,0-.23,0,1.51,1.51,0,0,0-1.26,1Z" transform="translate(-1.62)"/><path class="cls-2" d="M221.94,79.56c.58.34,1.16.51,1.13.37a2.93,2.93,0,0,0-1.54-.89c-.14,0-.14.08,0,.21a3.52,3.52,0,0,0,.43.31Z" transform="translate(-1.62)"/><path class="cls-2" d="M209.59,61.6c.37,1,1.41,1.31,1.7.64s-.2-2-1.17-2c-.68,0-.75.73-.53,1.34Z" transform="translate(-1.62)"/><path class="cls-2" d="M223.21,18.34c-.48.21-.65.35-.56.38a4.92,4.92,0,0,0,1.71-.73h0a4.67,4.67,0,0,0-1.11.36Z" transform="translate(-1.62)"/><path class="cls-2" d="M210.19,71.65c.61.74,1.31,1,1.35.67A2.38,2.38,0,0,0,210,70.65c-.29,0-.31.36.21,1Z" transform="translate(-1.62)"/><path class="cls-2" d="M205.23,35.54c-.34.89,0,1.3.47,1.06.76-.36,1.32-2,.75-2.19l-.12,0c-.39,0-.84.49-1.1,1.15Z" transform="translate(-1.62)"/><path class="cls-2" d="M228.68,17c-.57,0-1,.07-1.05.08.73,0,1.46-.11,2.2-.11-.39,0-.77,0-1.15,0Z" transform="translate(-1.62)"/><path class="cls-2" d="M224.9,81.4c.59.12,1.14.2,1.2.2s-2.1-.44-2.21-.45a6.31,6.31,0,0,0,1,.25Z" transform="translate(-1.62)"/><path class="cls-2" d="M201,51.05c.07,1.15.63,1.5,1,1.12.47-.55.29-2.48-.41-2.5-.44,0-.6.71-.56,1.38Z" transform="translate(-1.62)"/><path class="cls-2" d="M215.88,20.4a2.87,2.87,0,0,0-.82.53,9.37,9.37,0,0,0,2.15-1.11h0a5.92,5.92,0,0,0-1.32.58Z" transform="translate(-1.62)"/><path class="cls-2" d="M213.67,77.32a4.73,4.73,0,0,0,1.18.59,11.3,11.3,0,0,0-2.08-1.28h0a3.35,3.35,0,0,0,.92.68Z" transform="translate(-1.62)"/><path class="cls-2" d="M205,28.54a7,7,0,0,0-.72,1,14.16,14.16,0,0,0,1.61-1.9h0a7.41,7.41,0,0,0-.88.94Z" transform="translate(-1.62)"/><path class="cls-2" d="M229.83,81.88h0Z" transform="translate(-1.62)"/><path class="cls-2" d="M199.1,41.19a.47.47,0,0,0,0,.1,22.34,22.34,0,0,1,3.48-9.45l.22-.32a22.26,22.26,0,0,0-3.64,9.66Z" transform="translate(-1.62)"/><path class="cls-2" d="M204.94,28.58l.14-.16a14.67,14.67,0,0,1,3.24-.26.91.91,0,0,0-.11.16,20.55,20.55,0,0,0-3.27.26Z" transform="translate(-1.62)"/><path class="cls-2" d="M198.81,41.9c0,.06,0,.12-.05.18a2.23,2.23,0,0,1-.17-1.55,1.72,1.72,0,0,1,.07-.21,2.18,2.18,0,0,0,.16,1.56v0Z" transform="translate(-1.62)"/><path class="cls-2" d="M199.44,60.86c0-.07-.05-.15-.08-.23-.12-.42-.31-1-.4-1.4.19.54.29,1.1.48,1.63Z" transform="translate(-1.62)"/><path class="cls-2" d="M197.66,45l0-.23a4.74,4.74,0,0,1,1-2.15c0,.07,0,.14,0,.2a7.73,7.73,0,0,1-.54.86,4.25,4.25,0,0,0-.42,1.32Z" transform="translate(-1.62)"/><path class="cls-2" d="M198.63,58.14s0,.11.05.17l-.3-.83-.06-.22.31.85v0Z" transform="translate(-1.62)"/><path class="cls-2" d="M229.79,81.88h0Z" transform="translate(-1.62)"/><path class="cls-2" d="M219.07,80.05l-.2-.07-.86-.34,1.06.41Z" transform="translate(-1.62)"/><path class="cls-2" d="M229.54,81.88h.18c-.66,0-.84,0-1.57,0h-.23c.7,0,.85,0,1.59,0Z" transform="translate(-1.62)"/><path class="cls-2" d="M201.56,65.37c-.08-.14-.16-.28-.23-.42a25.43,25.43,0,0,1-2.17-5.24l0,.07c.27.62.51,1.5.73,2.15a27.77,27.77,0,0,0,1.64,3.44Z" transform="translate(-1.62)"/><path class="cls-2" d="M217.25,79.32l.16.07c-.35-.14-.82-.33-1.17-.49l-.21-.1c.36.16.84.37,1.2.51Z" transform="translate(-1.62)"/><path class="cls-2" d="M209.32,74.57l-.19-.15a9.65,9.65,0,0,1-2.35-2.74.86.86,0,0,1,.14.13,9.22,9.22,0,0,1,.58.9,9.57,9.57,0,0,0,1.82,1.86Z" transform="translate(-1.62)"/><path class="cls-2" d="M229,17h0Z" transform="translate(-1.62)"/><path class="cls-2" d="M222.85,17.69l.27-.05a32.75,32.75,0,0,1,5.55-.68,34.48,34.48,0,0,0-5.82.73Z" transform="translate(-1.62)"/><path class="cls-2" d="M216.27,19.91l.19-.09a12.88,12.88,0,0,1,2.85-.65l-.17.08a4.58,4.58,0,0,1-.63.1,12.78,12.78,0,0,0-2.24.56Z" transform="translate(-1.62)"/><path class="cls-2" d="M206.29,27.06l.19-.19c1.57-1.5,4.84-4.61,12.27-7.42a16.59,16.59,0,0,1-1.8.74,41.73,41.73,0,0,0-5,2.49,26,26,0,0,0-5.7,4.38Z" transform="translate(-1.62)"/><path class="cls-2" d="M220.32,18.79l-.1,0A21.35,21.35,0,0,1,228.3,17h.12a22.07,22.07,0,0,0-8.09,1.81Z" transform="translate(-1.62)"/><path class="cls-2" d="M219.74,19.18c.17-.08.26-.12,5.53-.34,0,0,0,.06-.07.06-1.82.12-3.64.17-5.46.28Z" transform="translate(-1.62)"/><path class="cls-2" d="M228.64,81.86h.05A32.94,32.94,0,0,1,219,80l0,0a32.38,32.38,0,0,0,9.7,1.91Z" transform="translate(-1.62)"/><path class="cls-2" d="M216.74,79.06a28.24,28.24,0,0,1-9.41-6.93,8.42,8.42,0,0,1,1.67,1.7,28.25,28.25,0,0,0,7.74,5.23Z" transform="translate(-1.62)"/><path class="cls-2" d="M217.78,79.49c-.23-.09-.26-.11-.36-.24a.61.61,0,0,1-.07-.35c0-.19.34-.38.6-.54l.15.09c-.36.23-.51.33-.58.55s.08.33.26.49Z" transform="translate(-1.62)"/><path class="cls-2" d="M198.61,57.47a31.19,31.19,0,0,1,0-14,33.1,33.1,0,0,0,0,14Z" transform="translate(-1.62)"/><path class="cls-2" d="M199.39,41.29s1.48-5.24,8.5-12.3v.07c-3.36,3.53-6.12,6.67-8.51,12.23Z" transform="translate(-1.62)"/><path class="cls-2" d="M208.65,43.81a.77.77,0,0,0,0,.15,65,65,0,0,1-9.4-1.45c0-.07,0-.14.05-.21h0a61.09,61.09,0,0,0,9.38,1.49v0Z" transform="translate(-1.62)"/><path class="cls-2" d="M217.33,77.89l0,0a50.77,50.77,0,0,1-10-6l-.07-.12a50.23,50.23,0,0,0,10,6.06Z" transform="translate(-1.62)"/><path class="cls-2" d="M217.24,71.5l.06.11c-4.05,0-10.3-.24-10.35-.24s-.09-.11-.13-.16c1.08.05,2.88.14,10.42.28Z" transform="translate(-1.62)"/><path class="cls-2" d="M205.79,70.36a32.61,32.61,0,0,1-6.5-10.52v-.06a33.66,33.66,0,0,0,6.49,10.58Z" transform="translate(-1.62)"/><path class="cls-2" d="M206.51,70.88s-2.93-3.72,5.83-10.9l.09.13c-3.24,2.93-7.26,6.58-5.92,10.77Z" transform="translate(-1.62)"/><path class="cls-2" d="M198.88,58.13c0-.05-1.6-5.14,9.76-13.59l0,.14c-4.08,3.25-9.68,7.71-9.8,13.45Z" transform="translate(-1.62)"/><path class="cls-2" d="M212.15,59.34a.68.68,0,0,0,0,.14c-4.58,0-11.59-.45-13.08-.69l-.06-.21c1.22.18,3.24.39,13.12.75Z" transform="translate(-1.62)"/><path class="cls-2" d="M255,69.9a2.37,2.37,0,0,0,.37-2.49l.12-.17a2.39,2.39,0,0,1-.35,2.49c0,.06-.09.12-.14.17Z" transform="translate(-1.62)"/><polygon class="cls-2" points="228.22 81.88 228.21 81.88 228.19 81.88 228.22 81.88 228.22 81.88"/><path class="cls-2" d="M229,81.87c-6.44-.18-9.12-2.2-10.41-3.17l.11,0a11.31,11.31,0,0,1,1.05.77,9.45,9.45,0,0,0,2.54,1.22A21.7,21.7,0,0,0,229,81.87Z" transform="translate(-1.62)"/><path class="cls-2" d="M229.93,81.88a36.22,36.22,0,0,0,4.6-.51,38.54,38.54,0,0,1-4.6.51Z" transform="translate(-1.62)"/><path class="cls-2" d="M209.23,42.87l-.13.1c-1-3.3-2.53-8.29-.72-13.9l.13-.08c-1.11,4-1.34,7.56.74,13.87Z" transform="translate(-1.62)"/><path class="cls-2" d="M209.47,27.29h-.05a27.06,27.06,0,0,1,9.11-7.66h.05a27.28,27.28,0,0,0-9.11,7.65Z" transform="translate(-1.62)"/><path class="cls-2" d="M218.26,26.68l-.1.09c-.9-1.63-2.58-4.65.86-7.28l.16-.06c-1.29,1.08-3.45,2.88-.9,7.24Z" transform="translate(-1.62)"/><path class="cls-2" d="M209.24,28.23l.09-.12c1.22-.17,2.38-.33,8.45-.83l-.06.16c-4.63.37-6.14.53-8.48.79Z" transform="translate(-1.62)"/><path class="cls-2" d="M218,78s-2-1.46-.27-5.82a.76.76,0,0,0,.14.11c-.78,2.11-1.16,3.55.13,5.71Z" transform="translate(-1.62)"/><path class="cls-2" d="M229.5,81.88h.06c-2.33-.19-4.88-.57-10.41-3.1l0,0c3.3,1.5,6.58,2.87,10.38,3.15Z" transform="translate(-1.62)"/><path class="cls-2" d="M228.13,81.43l0,0c-4.68-1.27-7.18-2.14-9.18-2.85l-.11-.08c2,.7,4.48,1.58,9.24,2.9Z" transform="translate(-1.62)"/><path class="cls-2" d="M212.77,58.26l-.08,0a52.68,52.68,0,0,1-3.1-13l.16,0a57.87,57.87,0,0,0,3,13Z" transform="translate(-1.62)"/><path class="cls-2" d="M210.07,42.82l-.14-.07a66.21,66.21,0,0,1,7.95-14.6l.07,0a70.41,70.41,0,0,0-7.88,14.64Z" transform="translate(-1.62)"/><path class="cls-2" d="M227.72,46.73l-.09.05c-7.61-11.41-8.63-16.68-9-18.66l.15-.08c1,4.66,2.48,8.28,9,18.68Z" transform="translate(-1.62)"/><path class="cls-2" d="M227.07,47.57l0,.2c-5.63-1.06-11.14-2.11-16.58-3.44,0-.06,0-.15,0-.21,2.85.68,6.76,1.61,16.57,3.43v0Z" transform="translate(-1.62)"/><path class="cls-2" d="M219.2,26.44l-.09,0a35.16,35.16,0,0,1,6-7.11h0a36,36,0,0,0-5.92,7.13Z" transform="translate(-1.62)"/><path class="cls-2" d="M219.44,27.16l0-.14c4.17-.94,8.35-1.79,12.51-2.72l0,.13c-4.19.92-8.4,1.78-12.58,2.73Z" transform="translate(-1.62)"/><path class="cls-2" d="M214,58.86l-.09-.13c1.57-1.46,4.49-4.16,13.33-10.18,0,.05.06.11.08.15C216.8,56.25,216.8,56.25,214,58.86Z" transform="translate(-1.62)"/><path class="cls-2" d="M228.08,81.33c-1-.59-4.21-2.38-9.41-8.88l.1,0c1.56,1.91,5.69,7,9.32,8.93Z" transform="translate(-1.62)"/><path class="cls-2" d="M217.61,70.65h-.07a48.61,48.61,0,0,1-4.13-10l.16,0a54.7,54.7,0,0,0,4.05,10Z" transform="translate(-1.62)"/><path class="cls-2" d="M229.3,60.88a.25.25,0,0,0,0,.09c-1.21-.06-4.91-.26-15.1-1.3a.7.7,0,0,0,0-.2c3.84.39,7.18.71,15.14,1.38v0Z" transform="translate(-1.62)"/><path class="cls-2" d="M228.72,75.14s0,0,0,.06c-.79-.24-3.19-1-9.74-3.24l0-.14c1.2.42,1.2.42,9.78,3.3v0Z" transform="translate(-1.62)"/><path class="cls-2" d="M229.59,74.69h-.12c.1-2.11.17-3.63.87-12.47h.2c-.46,5.62-.74,9-.95,12.47Z" transform="translate(-1.62)"/><path class="cls-2" d="M218.55,71.09l-.1-.09c1.57-1.93,3.7-4.24,11-9.32l.09.12c-5.59,4.09-8.39,6.14-11,9.29Z" transform="translate(-1.62)"/><path class="cls-2" d="M232,23.72a.59.59,0,0,0,0,.08c-4-2.29-5.37-3.29-6.3-4.66l.1-.06c1,1.44,2.29,2.33,6.25,4.63Z" transform="translate(-1.62)"/><path class="cls-2" d="M229.29,16.94h0Z" transform="translate(-1.62)"/><path class="cls-2" d="M225.46,18.7l-.07.05c-.43-.34-1.58-1.22,1.53-1.65.72-.09,1.49-.13,2-.15h.2c-3.49.14-4.77.67-3.82,1.57a1.84,1.84,0,0,0,.22.17Z" transform="translate(-1.62)"/><path class="cls-2" d="M226.15,18.73l0-.05c.29-.11.7-.22,1-.31,2.53-.8,3.23-1.05,3.3-1.32a.91.91,0,0,0-.33-.1c.27,0,.29,0,.39.14-.17.26-.59.47-4.38,1.64Z" transform="translate(-1.62)"/><polygon class="cls-2" points="228.22 81.88 228.22 81.88 228.22 81.88 228.22 81.88 228.22 81.88"/><path class="cls-2" d="M229.79,81.88c-.19,0-.67,0-.67,0a2.23,2.23,0,0,1-.61-.22c.12,0,.21.13.33.16a6,6,0,0,0,.95.1Z" transform="translate(-1.62)"/><path class="cls-2" d="M249.5,23.59l0,0-.19-.15.17.13Z" transform="translate(-1.62)"/><path class="cls-2" d="M230.4,16.94h0Z" transform="translate(-1.62)"/><path class="cls-2" d="M228.3,81.36s-1.54-.63.78-5.29l.12.05c-.81,1.71-1.93,4.06-.9,5.24Z" transform="translate(-1.62)"/><path class="cls-2" d="M229.94,81.88h-.07a.9.9,0,0,0,.23,0v0a9.09,9.09,0,0,0-1.33-.25l0,0c1.26.2,1.38.24,1.44.29a.69.69,0,0,1-.2,0Z" transform="translate(-1.62)"/><path class="cls-2" d="M233,23.49l-.13,0c.32-2.09.93-6-2.4-6.47,1.67.17,3.46,1.44,2.53,6.51Z" transform="translate(-1.62)"/><path class="cls-2" d="M230.3,81.87a13.11,13.11,0,0,0,4.21-1.28v0a13.37,13.37,0,0,1-4.22,1.26Z" transform="translate(-1.62)"/><path class="cls-2" d="M230.26,81.87h0c2-.4,2.59-1.47-.35-5.78L230,76c2.22,3.33,3,5.36.28,5.85Z" transform="translate(-1.62)"/><path class="cls-2" d="M230.24,75.16l0-.09c1.54-.76,1.54-.76,7.85-3.62a.34.34,0,0,1,0,.1c-2.59,1.23-5.22,2.39-7.82,3.61Z" transform="translate(-1.62)"/><path class="cls-2" d="M235.28,80l-.08,0c-.28-.94-.86-1.91-5.06-4.21a.67.67,0,0,0,.07-.11c2.56,1.44,4.87,2.85,5.09,4.26Z" transform="translate(-1.62)"/><path class="cls-2" d="M228.75,46.63l-.21,0C231.35,34,232.3,29.78,232.65,25l.11,0c-.32,5-1,8.19-4,21.65Z" transform="translate(-1.62)"/><path class="cls-2" d="M259,63.73a9.08,9.08,0,0,1-3.18,3,1.3,1.3,0,0,1,.08-.17,8.86,8.86,0,0,1,1-.71,7.82,7.82,0,0,0,2.18-2.33c0,.07-.07.13-.1.2Z" transform="translate(-1.62)"/><path class="cls-2" d="M229.36,47l-.12-.12c9-10,9-10,11.57-13.91l.11.09c-2.37,3.8-4.75,6.66-11.56,13.94Z" transform="translate(-1.62)"/><path class="cls-2" d="M238.63,70.37l-.11.08A53,53,0,0,0,231.31,62a.93.93,0,0,0,.15-.13,52.58,52.58,0,0,1,7.19,8.52Z" transform="translate(-1.62)"/><path class="cls-2" d="M248,62.64a.94.94,0,0,1,0,.09c-5.41-.38-10.8-1-16.2-1.48,0,0,0-.13,0-.19,6.62.57,11.17,1,16.22,1.56v0Z" transform="translate(-1.62)"/><path class="cls-2" d="M230.42,59.87l-.16,0c-.9-5.1-1.71-10.11-1.8-10.67l.22,0c.58,3.56,1.19,7.12,1.77,10.68Z" transform="translate(-1.62)"/><path class="cls-2" d="M248.82,49.06a.49.49,0,0,0,0,.12c-6.38-.2-12.75-.75-19.13-1.1a.57.57,0,0,0,0-.22c8.95.5,13.41.77,19.13,1.18v0Z" transform="translate(-1.62)"/><path class="cls-2" d="M231.68,60.55a1,1,0,0,0-.1-.18c7.74-4.23,12.55-7,17.31-10.57l.08.2c-4.35,3.15-7.88,5.42-17.29,10.55Z" transform="translate(-1.62)"/><path class="cls-2" d="M240.55,31.37a.7.7,0,0,0-.08.1c-2.35-2.22-4.73-4.41-7.09-6.62l.09-.09c2.36,2.2,4.75,4.38,7.1,6.6Z" transform="translate(-1.62)"/><path class="cls-2" d="M233.2,23.61l-.12-.08c1.17-2.25,1.95-4.09.41-5.63a2.28,2.28,0,0,1,1,2.06,8,8,0,0,1-1.25,3.65Z" transform="translate(-1.62)"/><path class="cls-2" d="M233.56,24.13l0-.1c6.79-1.32,6.79-1.32,8.31-1.75l.1.09a61.8,61.8,0,0,1-8.38,1.76Z" transform="translate(-1.62)"/><path class="cls-2" d="M252.2,29.19h-.08c-3.48-4.82-6.8-8.12-13.47-10.73A27.13,27.13,0,0,1,252.2,29.19Z" transform="translate(-1.62)"/><path class="cls-2" d="M252.87,29.67a.83.83,0,0,1-.14-.13,3.51,3.51,0,0,1-.09-1.08c-.09-.91-.62-2.42-2.65-4.41a7.55,7.55,0,0,1,2.88,5.62Z" transform="translate(-1.62)"/><path class="cls-2" d="M242.2,21.82a1.19,1.19,0,0,1-.15-.09c-.21-.18-.3-.58-.43-.83-.66-1.25-2.57-2.15-3.49-2.59a10.59,10.59,0,0,1,2.23,1.2,5.35,5.35,0,0,1,1.84,2.31Z" transform="translate(-1.62)"/><path class="cls-2" d="M241.39,21.66s0,0,0,0a53.28,53.28,0,0,0-7.52-3.76l0,0a50.58,50.58,0,0,1,7.53,3.75Z" transform="translate(-1.62)"/><path class="cls-2" d="M249.13,61.65h0l-.13,0a49.39,49.39,0,0,0,.79-11.11h0a.41.41,0,0,0,.16,0,48,48,0,0,1-.82,11.11Z" transform="translate(-1.62)"/><path class="cls-2" d="M237,18l.13,0A59.77,59.77,0,0,0,230.26,17h-.09A55.56,55.56,0,0,1,237,18Z" transform="translate(-1.62)"/><path class="cls-2" d="M232.57,17.45h0c-.61-.17-1.44-.37-2.06-.48h0c.63.11,1.46.3,2.08.47Z" transform="translate(-1.62)"/><path class="cls-2" d="M237.28,18l.16.05c-.72-.08-1.62-.17-3.89-.36l-.1-.05c.94.08,2.51.21,3.81.36Z" transform="translate(-1.62)"/><path class="cls-2" d="M252,29.35v0a68.44,68.44,0,0,0-8.78-6.59.17.17,0,0,0,0-.07,64.23,64.23,0,0,1,8.79,6.6Z" transform="translate(-1.62)"/><path class="cls-2" d="M241.81,31.45a1.43,1.43,0,0,0-.15-.11c.86-2.27,2-5.37.8-8.59,0,0,1.88,2.55-.65,8.7Z" transform="translate(-1.62)"/><path class="cls-2" d="M250.77,49.15c0-.1,0-.12,0-.22,3.23-.64,4-.81,6.27-1.4,0,.09,0,.12,0,.22-2.29.58-3,.76-6.27,1.4Z" transform="translate(-1.62)"/><path class="cls-2" d="M249.45,48l-.07,0a77.62,77.62,0,0,0-7.44-14.75l.13-.07A73.16,73.16,0,0,1,249.47,48Z" transform="translate(-1.62)"/><path class="cls-2" d="M242.31,32.19a.78.78,0,0,0-.05-.14c8.46-1.43,8.46-1.43,10.05-1.85a1.63,1.63,0,0,0,.11.17,88.55,88.55,0,0,1-10.11,1.82Z" transform="translate(-1.62)"/><path class="cls-2" d="M250.4,48.17l-.13-.12C253,41.69,254.33,36.86,253,31c0,0,2.82,5-2.57,17.2Z" transform="translate(-1.62)"/><path class="cls-2" d="M235.75,79.85h0c1.19-1.29,2.81-3.06,3.15-7.88l.15,0c-.25,2.21-.63,5.55-3.25,7.91Z" transform="translate(-1.62)"/><path class="cls-2" d="M239.87,70.48a.35.35,0,0,0-.05-.08c5.33-4.36,5.54-4.53,8.09-6.84l0,.1c-2,1.85-3.32,3.07-8.08,6.82Z" transform="translate(-1.62)"/><path class="cls-2" d="M247.78,75l-.12.1c-.67-.72-1.69-1.79-8-3.67l.09-.15c2.41.74,6.9,2.12,8,3.71Z" transform="translate(-1.62)"/><path class="cls-2" d="M235.12,81.24l-.15,0c.14-.07.38-.16.44-.31s.1-.27-.12-.56l.12-.06c.09.11.25.28.21.41s-.1.27-.48.48Z" transform="translate(-1.62)"/><path class="cls-2" d="M235.82,80.09a4.51,4.51,0,0,1,1.37-.51,82.22,82.22,0,0,0,10-4.07s-2.93,1.77-11.33,4.58Z" transform="translate(-1.62)"/><path class="cls-2" d="M248.77,74.44l0,0a35.71,35.71,0,0,0,5.81-6.4h0a34.2,34.2,0,0,1-5.81,6.41Z" transform="translate(-1.62)"/><path class="cls-2" d="M248.32,74.59a.39.39,0,0,0-.11.06c1.86-3.08,2.54-5.74.85-10.93a.81.81,0,0,0,.14-.12c1.3,4.21,1.55,7.2-.87,11Z" transform="translate(-1.62)"/><path class="cls-2" d="M248,22.52l.79.56-1.1-.76.31.2Z" transform="translate(-1.62)"/><path class="cls-2" d="M248.76,23.1l.09.07a37.48,37.48,0,0,0-10.3-4.8l-.11,0a37.17,37.17,0,0,1,10.31,4.76Z" transform="translate(-1.62)"/><path class="cls-2" d="M259.62,39.21v.1a35.32,35.32,0,0,0-6-8.27v-.1a36,36,0,0,1,6,8.25v0Z" transform="translate(-1.62)"/><path class="cls-2" d="M257.68,46.16l-.09,0a35.1,35.1,0,0,0-4.25-15h.08a33.91,33.91,0,0,1,4.26,15Z" transform="translate(-1.62)"/><path class="cls-2" d="M249.63,61.92a.48.48,0,0,0-.09-.11c3.13-4,5.68-7.56,7.74-13.33a1.25,1.25,0,0,0,.09.12c-1.2,3.2-2.57,6.83-7.74,13.32Z" transform="translate(-1.62)"/><path class="cls-2" d="M256,66l0,0a38.11,38.11,0,0,0,3.48-7l0,0A34.37,34.37,0,0,1,256,66Z" transform="translate(-1.62)"/><path class="cls-2" d="M255.1,66.65l-.09.12c-1.22-1.23-2.12-1.94-5.52-3.55l.09-.18c3,1.41,4.25,2.17,5.54,3.59l0,0Z" transform="translate(-1.62)"/><path class="cls-2" d="M249.71,62.6a1.48,1.48,0,0,0,0-.19,42.44,42.44,0,0,0,9.71-4.35l0,.15c-1.72,1.17-3.53,2.24-9.71,4.39Z" transform="translate(-1.62)"/><path class="cls-2" d="M258.17,46.75l-.07-.17A15.31,15.31,0,0,0,260,40.9s.42,1.42-1.85,5.85Z" transform="translate(-1.62)"/><path class="cls-2" d="M259.91,56.8l-.06.09a25.31,25.31,0,0,0-1.78-8.32l.08-.13a25,25,0,0,1,1.77,8.34v0Z" transform="translate(-1.62)"/><path class="cls-2" d="M235.93,81.08a34.22,34.22,0,0,0,10.93-5.2,33.64,33.64,0,0,1-10.93,5.2Z" transform="translate(-1.62)"/><path class="cls-2" d="M250.92,74.08a8.09,8.09,0,0,1-2.73,1.07.44.44,0,0,1,.14-.13,7.32,7.32,0,0,1,.8-.23,6.39,6.39,0,0,0,2-.84l-.16.13Z" transform="translate(-1.62)"/><path class="cls-2" d="M242.32,79.38c2.22-1,3.78-1.83,5.18-3.72l.16-.11c-.9,1.14-1.74,2.22-5.1,3.74l-.24.09Z" transform="translate(-1.62)"/><path class="cls-2" d="M250.94,24.76l-.57-.47-.1-.09.44.36.23.2Z" transform="translate(-1.62)"/><path class="cls-2" d="M259.85,39.09c-.59-.45-.56-1.63-.78-2.34-.62-2-2.7-7.17-8.6-12.34a29,29,0,0,1,9.38,14.68Z" transform="translate(-1.62)"/><path class="cls-2" d="M259.65,36.56a7.56,7.56,0,0,1,.54,3.15,1,1,0,0,1-.07-.18,8.07,8.07,0,0,1,0-1.21,7.74,7.74,0,0,0-.53-2,2.14,2.14,0,0,1,.1.22Z" transform="translate(-1.62)"/><path class="cls-2" d="M235.18,17.38a9.39,9.39,0,0,1,2.37.66c-.33-.09-.62-.25-.94-.34a16.3,16.3,0,0,0-1.65-.36l.22,0Z" transform="translate(-1.62)"/><path class="cls-2" d="M239.09,18.28a9.81,9.81,0,0,0-1.23-.14l-.18-.06a11.34,11.34,0,0,1,1.2.14l.21.06Z" transform="translate(-1.62)"/><path class="cls-2" d="M260.21,60.87a3.45,3.45,0,0,0-.16-2.53c0-.06.05-.12.07-.19a3.47,3.47,0,0,1,.17,2.51,1.8,1.8,0,0,1-.08.21Z" transform="translate(-1.62)"/><path class="cls-2" d="M232.81,81.75a6.66,6.66,0,0,0,1.93-.37l.19,0a5.05,5.05,0,0,1-1.9.39l-.22,0Z" transform="translate(-1.62)"/><path class="cls-2" d="M240.05,80.24a32.63,32.63,0,0,1-4.87,1.05c1.69-.4,3.41-.61,5.08-1.12l-.21.07Z" transform="translate(-1.62)"/><path class="cls-2" d="M260.23,56.61c1-5.61,1.34-8.74.14-15.16a32.37,32.37,0,0,1-.14,15.16Z" transform="translate(-1.62)"/><path class="cls-2" d="M261.43,41.94a3,3,0,0,0-1-1.32,1.17,1.17,0,0,0-.05-.2c.74.76.77.79,1,1.31a1.6,1.6,0,0,1,.05.21Z" transform="translate(-1.62)"/><path class="cls-2" d="M262.29,50.35a16,16,0,0,1-2,6.74.85.85,0,0,1,0-.16,13.18,13.18,0,0,1,.78-1.66,15,15,0,0,0,1.17-5.21v.29Z" transform="translate(-1.62)"/><path class="cls-2" d="M199.05,58.67c.1.34.32,1.14.22,1.19a6.46,6.46,0,0,1-.72-2.44,3.5,3.5,0,0,1,.5,1.25Z" transform="translate(-1.62)"/><path class="cls-2" d="M218,79.57c.33.14.67.24,1,.41a16.34,16.34,0,0,1-2.32-.94h0l1.33.53Z" transform="translate(-1.62)"/><path class="cls-2" d="M199.28,42.3h0c-.25,1.13-.54,1.39-.63,1.22-.23-.4.28-2.42.62-2.46.07,0,.23.15,0,1.24Z" transform="translate(-1.62)"/><path class="cls-2" d="M229.83,81.88c-.69,0-1.22,0-1.22,0l1.22,0Z" transform="translate(-1.62)"/><path class="cls-2" d="M206.88,71.29c.57.64.67.88.57.89-.31,0-1.84-1.68-1.65-1.83h0c.16,0,.57.38,1.06,1Z" transform="translate(-1.62)"/><path class="cls-2" d="M229.39,16.94c-.51,0-.81,0-1.28,0,0,0,.69,0,1.72,0h-.44Z" transform="translate(-1.62)"/><path class="cls-2" d="M219.78,19.16c-.79.37-1.22.52-1.28.47a6.81,6.81,0,0,1,2.08-.91h0v0a4.72,4.72,0,0,1-.83.42Z" transform="translate(-1.62)"/><path class="cls-2" d="M209.25,28.22c-.71,1-1.31,1.11-1.35.82s1-1.74,1.56-1.75c.32,0,.11.49-.21.93Z" transform="translate(-1.62)"/><path class="cls-2" d="M218.62,78.34c.65.44.56.51.5.52-.38,0-2-.94-1.85-1.12a.11.11,0,0,1,.08,0,3.47,3.47,0,0,1,1.27.63Z" transform="translate(-1.62)"/><path class="cls-2" d="M210.52,44c-.14,1.29-1.22,1.58-1.69,1s-.14-2.21.88-2.25c.47,0,.91.41.81,1.29Z" transform="translate(-1.62)"/><path class="cls-2" d="M214.16,59.46c.19,1.18-.79,1.47-1.45,1s-.81-2.06.14-2.17h.1a1.35,1.35,0,0,1,1.21,1.22Z" transform="translate(-1.62)"/><path class="cls-2" d="M229.83,81.88h0Z" transform="translate(-1.62)"/><path class="cls-2" d="M218.88,71.61c.3.72-.18,1-.78.77s-1.28-1.41-.71-1.67a.54.54,0,0,1,.26-.06,1.5,1.5,0,0,1,1.23,1Z" transform="translate(-1.62)"/><path class="cls-2" d="M219.33,27.42c-.45.89-1.45,1-1.64.51A1.45,1.45,0,0,1,219,26.4c.5,0,.65.43.35,1Z" transform="translate(-1.62)"/><path class="cls-2" d="M226,18.89c-.47.48-1,.51-1,.3s.68-.72,1.09-.73c.24,0,.11.23-.09.43Z" transform="translate(-1.62)"/><path class="cls-2" d="M228.68,81.54c.2.12.2.14.2.15s-.81-.23-.82-.33,0,0,.07,0a1.5,1.5,0,0,1,.55.22Z" transform="translate(-1.62)"/><path class="cls-2" d="M229.69,47.92a1.33,1.33,0,1,1-1.33-1.34,1.27,1.27,0,0,1,1.33,1.34Z" transform="translate(-1.62)"/><path class="cls-2" d="M230.28,75.49a.8.8,0,0,1-1.4.41.72.72,0,0,1,.59-1.22.75.75,0,0,1,.81.81Z" transform="translate(-1.62)"/><path class="cls-2" d="M231.77,61.06a1.27,1.27,0,0,1-2.19.78,1.2,1.2,0,0,1,1-2,1.16,1.16,0,0,1,1.23,1.2Z" transform="translate(-1.62)"/><path class="cls-2" d="M233.59,24.28c.1.76-.82.89-1.31.49a.74.74,0,0,1,.26-1.35h.09a1,1,0,0,1,1,.86Z" transform="translate(-1.62)"/><path class="cls-2" d="M239.83,71.11c-.35.92-1.46,1.17-1.73.57a1.26,1.26,0,0,1,1.19-1.52c.67,0,.71.53.54,1Z" transform="translate(-1.62)"/><path class="cls-2" d="M230,16.94a2.82,2.82,0,0,1,.51,0h-.07l-.31,0H230Z" transform="translate(-1.62)"/><path class="cls-2" d="M229.83,81.88l.52,0s-.23,0-.52,0Z" transform="translate(-1.62)"/><path class="cls-2" d="M242.34,32.31c.21.92-.66,1.25-1.38.77s-.88-1.68-.09-1.88a.82.82,0,0,1,.21,0,1.37,1.37,0,0,1,1.26,1.13Z" transform="translate(-1.62)"/><path class="cls-2" d="M233.46,17.69c.36.15.48.26.41.29s-.14,0-.56-.14a4.48,4.48,0,0,1-.74-.4s0,0,0,0a3.84,3.84,0,0,1,.86.26Z" transform="translate(-1.62)"/><path class="cls-2" d="M235.54,80.27c-.49.28-1.07.46-1,.31a2.57,2.57,0,0,1,1.35-.74c.2,0,.06.15,0,.19a1.91,1.91,0,0,1-.34.24Z" transform="translate(-1.62)"/><path class="cls-2" d="M250.77,49.37c-.05.7-.44,1.18-1,1.19h0c-1.13,0-1.21-1.88-.56-2.45a.8.8,0,0,1,.56-.21c.62,0,1,.63,1,1.47Z" transform="translate(-1.62)"/><path class="cls-2" d="M249.65,62.84c-.36,1.14-1.41,1.37-1.71.8a1.57,1.57,0,0,1,1.19-2h0c.53,0,.74.5.52,1.19Z" transform="translate(-1.62)"/><path class="cls-2" d="M242.84,22.31c.42.41.4.62.16.62-.52,0-1.82-1.09-1.58-1.33,0,0,.09,0,.12,0a2.59,2.59,0,0,1,1.3.75Z" transform="translate(-1.62)"/><path class="cls-2" d="M235,81.33c-.6.13-1.1.2-1.19.21s2-.48,2.13-.48h0a4.84,4.84,0,0,1-.95.27Z" transform="translate(-1.62)"/><path class="cls-2" d="M258.3,47.61c0,1-.48,1.41-.89,1-.57-.54-.58-2.47.17-2.51.41,0,.71.64.72,1.47Z" transform="translate(-1.62)"/><path class="cls-2" d="M253.33,30.29c.4.65.31,1,0,.88-.6-.15-1.67-1.75-1.32-2a.18.18,0,0,1,.1,0h0c.31,0,.83.49,1.21,1.11Z" transform="translate(-1.62)"/><path class="cls-2" d="M237.74,18.1a5.79,5.79,0,0,1,1,.34v0c-.16,0-2.16-.64-2.23-.68h0a12.19,12.19,0,0,1,1.27.32Z" transform="translate(-1.62)"/><path class="cls-2" d="M248.06,75.25c-.65.52-1.2.79-1.2.64a4.48,4.48,0,0,1,1.86-1.47c.15,0,0,.22-.32.54l-.34.29Z" transform="translate(-1.62)"/><path class="cls-2" d="M255.62,67c-.52.83-1.05,1.2-1.11.9s.89-2,1.38-2c.23,0,.12.46-.27,1.09Z" transform="translate(-1.62)"/><path class="cls-2" d="M260.2,57.88c-.27,1-.63,1.33-.76,1.12s.26-2.36.73-2.41c.22,0,.23.55,0,1.29Z" transform="translate(-1.62)"/><path class="cls-2" d="M260.38,40.26c.25.86.2,1.31,0,1.19-.41-.25-1-2.33-.66-2.42h0c.18,0,.45.52.65,1.23Z" transform="translate(-1.62)"/><path class="cls-2" d="M249.71,23.75a9.34,9.34,0,0,1,.83.7c-.09,0-1.95-1.47-2-1.52a14,14,0,0,1,1.14.82Z" transform="translate(-1.62)"/></g><circle class="cls-9" cx="212.8" cy="45.22" r="4.03"/><circle class="cls-10" cx="240.58" cy="32.96" r="4.03"/><circle class="cls-5" cx="231.76" cy="63.04" r="4.03"/><path class="cls-6" d="M209.3,119.48a4.3,4.3,0,0,0-3.38,1.38,5.43,5.43,0,0,0-1.24,3.76,5.63,5.63,0,0,0,1.17,3.8,4.15,4.15,0,0,0,3.33,1.35,8.87,8.87,0,0,0,2.64-.37v.71a8.8,8.8,0,0,1-2.83.4A4.79,4.79,0,0,1,205.2,129a6.32,6.32,0,0,1-1.38-4.34,6.8,6.8,0,0,1,.66-3.07,4.72,4.72,0,0,1,1.9-2.05,5.49,5.49,0,0,1,2.87-.73,6.88,6.88,0,0,1,3,.63l-.32.72A5.79,5.79,0,0,0,209.3,119.48Z" transform="translate(-1.62)"/><path class="cls-6" d="M214.94,130.35h-.77V118.19h.77Z" transform="translate(-1.62)"/><path class="cls-6" d="M218.46,121.86v5.5a2.68,2.68,0,0,0,.54,1.86,2.16,2.16,0,0,0,1.67.58,2.92,2.92,0,0,0,2.23-.76,3.57,3.57,0,0,0,.71-2.5v-4.68h.77v8.49h-.66l-.14-1.17h0a3.22,3.22,0,0,1-2.95,1.33q-2.9,0-2.9-3.11v-5.54Z" transform="translate(-1.62)"/><path class="cls-6" d="M232.49,128.14a2,2,0,0,1-.87,1.75,4.22,4.22,0,0,1-2.46.62,5.86,5.86,0,0,1-2.7-.53v-.83a6,6,0,0,0,2.7.64,3.54,3.54,0,0,0,1.91-.42,1.26,1.26,0,0,0,.65-1.11,1.34,1.34,0,0,0-.52-1.08,5.61,5.61,0,0,0-1.7-.86,9.17,9.17,0,0,1-1.79-.8,2.45,2.45,0,0,1-.78-.75,1.87,1.87,0,0,1-.26-1,1.75,1.75,0,0,1,.8-1.51,3.88,3.88,0,0,1,2.24-.56,6.61,6.61,0,0,1,2.61.52l-.29.7a6.18,6.18,0,0,0-2.32-.51,3.38,3.38,0,0,0-1.65.34,1.05,1.05,0,0,0-.61,1,1.34,1.34,0,0,0,.47,1.07,6.86,6.86,0,0,0,1.85.89,8.72,8.72,0,0,1,1.67.74,2.41,2.41,0,0,1,.79.76A1.87,1.87,0,0,1,232.49,128.14Z" transform="translate(-1.62)"/><path class="cls-6" d="M236.92,129.82a5.37,5.37,0,0,0,1.28-.13v.63a4.24,4.24,0,0,1-1.3.19,2.12,2.12,0,0,1-1.66-.61,2.82,2.82,0,0,1-.53-1.89v-5.48h-1.26v-.45l1.26-.36.39-1.92h.4v2.06H238v.67H235.5v5.37a2.46,2.46,0,0,0,.34,1.45A1.26,1.26,0,0,0,236.92,129.82Z" transform="translate(-1.62)"/><path class="cls-6" d="M243.47,130.51a3.67,3.67,0,0,1-2.89-1.15,4.57,4.57,0,0,1-1-3.19,5,5,0,0,1,1-3.25,3.31,3.31,0,0,1,2.7-1.23,2.91,2.91,0,0,1,2.37,1,4.37,4.37,0,0,1,.86,2.84v.63h-6.11a4,4,0,0,0,.81,2.67,2.87,2.87,0,0,0,2.3.92,6.81,6.81,0,0,0,1.27-.1,7.42,7.42,0,0,0,1.4-.44V130a6.3,6.3,0,0,1-1.33.42A7,7,0,0,1,243.47,130.51Zm-.23-8.13a2.55,2.55,0,0,0-2,.81,3.9,3.9,0,0,0-.87,2.33h5.25a3.71,3.71,0,0,0-.64-2.31A2.12,2.12,0,0,0,243.24,122.38Z" transform="translate(-1.62)"/><path class="cls-6" d="M252.16,121.69a7,7,0,0,1,1.16.11l-.15.74a5,5,0,0,0-1.1-.13,2.13,2.13,0,0,0-1.78.92,3.73,3.73,0,0,0-.7,2.33v4.69h-.77v-8.49h.65l.08,1.53h.06a3.61,3.61,0,0,1,1.11-1.32A2.66,2.66,0,0,1,252.16,121.69Z" transform="translate(-1.62)"/><path class="cls-6" d="M192,138.13h.86l-4.27,11.42h-.7l-4.26-11.42h.85l2.88,7.77c.43,1.17.73,2,.88,2.64.1-.39.31-1,.62-1.82Z" transform="translate(-1.62)"/><path class="cls-6" d="M194.22,138.7c0-.5.16-.75.49-.75a.44.44,0,0,1,.38.19,1,1,0,0,1,.13.56,1,1,0,0,1-.13.55.43.43,0,0,1-.38.21C194.38,139.46,194.22,139.2,194.22,138.7Zm.88,10.85h-.77v-8.49h.77Z" transform="translate(-1.62)"/><path class="cls-6" d="M203.21,147.34a2,2,0,0,1-.87,1.75,4.22,4.22,0,0,1-2.46.62,5.8,5.8,0,0,1-2.7-.53v-.83a6,6,0,0,0,2.7.64,3.54,3.54,0,0,0,1.91-.42,1.28,1.28,0,0,0,.65-1.11,1.34,1.34,0,0,0-.52-1.08,5.61,5.61,0,0,0-1.7-.86,9.17,9.17,0,0,1-1.79-.8,2.35,2.35,0,0,1-.78-.75,1.79,1.79,0,0,1-.26-1,1.73,1.73,0,0,1,.8-1.51,3.88,3.88,0,0,1,2.24-.56,6.65,6.65,0,0,1,2.61.52l-.29.7a6.22,6.22,0,0,0-2.32-.51,3.32,3.32,0,0,0-1.65.34,1.05,1.05,0,0,0-.61.95,1.34,1.34,0,0,0,.47,1.07,6.86,6.86,0,0,0,1.85.89,9,9,0,0,1,1.67.74,2.41,2.41,0,0,1,.79.76A1.87,1.87,0,0,1,203.21,147.34Z" transform="translate(-1.62)"/><path class="cls-6" d="M206.07,141.06v5.5a2.68,2.68,0,0,0,.54,1.86,2.16,2.16,0,0,0,1.67.58,2.92,2.92,0,0,0,2.23-.76,3.57,3.57,0,0,0,.71-2.5v-4.68H212v8.49h-.66l-.14-1.17h0a3.22,3.22,0,0,1-3,1.33c-1.93,0-2.9-1-2.9-3.11v-5.54Z" transform="translate(-1.62)"/><path class="cls-6" d="M220,149.55l-.2-1.34h-.06a4.18,4.18,0,0,1-1.31,1.16,3.66,3.66,0,0,1-1.6.34,2.77,2.77,0,0,1-1.95-.65,2.28,2.28,0,0,1-.69-1.77,2.18,2.18,0,0,1,1-1.93,5.66,5.66,0,0,1,3-.73l1.62,0V144a2.87,2.87,0,0,0-.5-1.83,1.9,1.9,0,0,0-1.58-.62,5.31,5.31,0,0,0-2.45.66l-.29-.68a6.62,6.62,0,0,1,2.77-.65,2.77,2.77,0,0,1,2.09.72,3.21,3.21,0,0,1,.69,2.27v5.65Zm-3.13-.55a2.7,2.7,0,0,0,2.93-2.94v-.83l-1.48.06a5.59,5.59,0,0,0-2.55.56,1.61,1.61,0,0,0-.76,1.47,1.57,1.57,0,0,0,.49,1.24A2,2,0,0,0,216.86,149Z" transform="translate(-1.62)"/><path class="cls-6" d="M224.08,149.55h-.77V137.39h.77Z" transform="translate(-1.62)"/><path class="cls-6" d="M226.82,138.7c0-.5.16-.75.49-.75a.44.44,0,0,1,.38.19,1,1,0,0,1,.14.56,1,1,0,0,1-.14.55.43.43,0,0,1-.38.21C227,139.46,226.82,139.2,226.82,138.7Zm.88,10.85h-.77v-8.49h.77Z" transform="translate(-1.62)"/><path class="cls-6" d="M235.83,149.55h-6.07v-.49l5-7.32h-4.67v-.68h5.68v.49l-5.07,7.31h5.09Z" transform="translate(-1.62)"/><path class="cls-6" d="M243.08,149.55l-.2-1.34h-.06a4.2,4.2,0,0,1-1.32,1.16,3.6,3.6,0,0,1-1.6.34,2.74,2.74,0,0,1-1.94-.65,2.25,2.25,0,0,1-.7-1.77,2.19,2.19,0,0,1,1-1.93,5.64,5.64,0,0,1,3-.73l1.62,0V144a2.87,2.87,0,0,0-.49-1.83,1.92,1.92,0,0,0-1.59-.62,5.27,5.27,0,0,0-2.44.66l-.29-.68a6.55,6.55,0,0,1,2.76-.65,2.76,2.76,0,0,1,2.09.72,3.17,3.17,0,0,1,.7,2.27v5.65ZM240,149a2.89,2.89,0,0,0,2.14-.78,2.85,2.85,0,0,0,.79-2.16v-.83l-1.48.06a5.6,5.6,0,0,0-2.56.56,1.63,1.63,0,0,0-.76,1.47,1.6,1.6,0,0,0,.49,1.24A2,2,0,0,0,240,149Z" transform="translate(-1.62)"/><path class="cls-6" d="M248.64,149a5.42,5.42,0,0,0,1.28-.13v.63a4.29,4.29,0,0,1-1.3.19,2.09,2.09,0,0,1-1.66-.61,2.82,2.82,0,0,1-.53-1.89v-5.48h-1.26v-.45l1.26-.36.39-1.92h.4v2.06h2.49v.67h-2.49v5.37a2.44,2.44,0,0,0,.34,1.45A1.26,1.26,0,0,0,248.64,149Z" transform="translate(-1.62)"/><path class="cls-6" d="M251.65,138.7c0-.5.16-.75.49-.75a.44.44,0,0,1,.38.19,1,1,0,0,1,.13.56,1,1,0,0,1-.13.55.43.43,0,0,1-.38.21C251.81,139.46,251.65,139.2,251.65,138.7Zm.88,10.85h-.78v-8.49h.78Z" transform="translate(-1.62)"/><path class="cls-6" d="M262.4,145.29a4.83,4.83,0,0,1-1,3.25,3.47,3.47,0,0,1-2.78,1.17,3.59,3.59,0,0,1-2-.54,3.45,3.45,0,0,1-1.31-1.55,5.66,5.66,0,0,1-.45-2.33,4.82,4.82,0,0,1,1-3.24,3.47,3.47,0,0,1,2.76-1.16,3.39,3.39,0,0,1,2.75,1.18A4.85,4.85,0,0,1,262.4,145.29Zm-6.71,0a4.33,4.33,0,0,0,.77,2.73,2.9,2.9,0,0,0,4.35,0,4.26,4.26,0,0,0,.77-2.73,4.33,4.33,0,0,0-.77-2.73,2.66,2.66,0,0,0-2.19-1,2.61,2.61,0,0,0-2.17,1A4.35,4.35,0,0,0,255.69,145.29Z" transform="translate(-1.62)"/><path class="cls-6" d="M270.67,149.55V144a2.68,2.68,0,0,0-.54-1.86,2.17,2.17,0,0,0-1.67-.58,2.86,2.86,0,0,0-2.23.77,3.61,3.61,0,0,0-.71,2.49v4.69h-.77v-8.49h.65l.15,1.16h.05a3.19,3.19,0,0,1,2.94-1.33c1.93,0,2.89,1,2.89,3.1v5.56Z" transform="translate(-1.62)"/><circle class="cls-1" cx="406.2" cy="52.45" r="49.41"/><g id="_13" data-name="13"><path class="cls-9" d="M385.13,17.41a2.49,2.49,0,1,0,2.49-2.52A2.51,2.51,0,0,0,385.13,17.41Z" transform="translate(-1.62)"/><path class="cls-9" d="M383.2,22a1.4,1.4,0,0,1,1.39-1.44h6.1a1.41,1.41,0,0,1,1.4,1.42v6.4a1.38,1.38,0,0,1-1.37,1.39h0c0,1.83,0,3.65,0,5.44a1.38,1.38,0,0,1-1.37,1.39h0A1.4,1.4,0,0,1,388,35.17c0-2.06,0-3.3,0-5.39h-.48c0,2.07,0,3.3,0,5.35a1.4,1.4,0,0,1-1.37,1.41h0a1.38,1.38,0,0,1-1.37-1.39c0-1.79,0-3.6,0-5.41h-.22a1.39,1.39,0,0,1-1.33-1.44C383.22,26.14,383.23,24.09,383.2,22Z" transform="translate(-1.62)"/><path class="cls-2" d="M407.21,17.41a2.49,2.49,0,1,0,2.49-2.52A2.51,2.51,0,0,0,407.21,17.41Z" transform="translate(-1.62)"/><path class="cls-2" d="M405.28,22a1.4,1.4,0,0,1,1.39-1.44h6.1a1.41,1.41,0,0,1,1.4,1.42c0,2.15,0,4.22,0,6.4a1.38,1.38,0,0,1-1.37,1.39h0c0,1.83,0,3.65,0,5.44a1.38,1.38,0,0,1-1.37,1.39h0A1.4,1.4,0,0,1,410,35.17c0-2.06,0-3.3,0-5.39h-.48c0,2.07,0,3.3,0,5.35a1.4,1.4,0,0,1-1.37,1.41h0a1.38,1.38,0,0,1-1.37-1.39c0-1.79,0-3.6,0-5.41h-.22a1.39,1.39,0,0,1-1.33-1.44C405.3,26.14,405.31,24.09,405.28,22Z" transform="translate(-1.62)"/><path class="cls-10" d="M429.29,17.41a2.49,2.49,0,1,0,2.49-2.52A2.51,2.51,0,0,0,429.29,17.41Z" transform="translate(-1.62)"/><path class="cls-10" d="M427.35,22a1.41,1.41,0,0,1,1.4-1.44h6.1a1.41,1.41,0,0,1,1.4,1.42c0,2.15,0,4.22,0,6.4a1.38,1.38,0,0,1-1.37,1.39h0c0,1.83,0,3.65,0,5.44a1.39,1.39,0,0,1-1.37,1.39h0a1.4,1.4,0,0,1-1.36-1.41c0-2.06,0-3.3,0-5.39h-.48c0,2.07,0,3.3,0,5.35a1.4,1.4,0,0,1-1.37,1.41h0a1.38,1.38,0,0,1-1.37-1.39c0-1.79,0-3.6,0-5.41h-.22a1.38,1.38,0,0,1-1.33-1.44C427.38,26.14,427.39,24.09,427.35,22Z" transform="translate(-1.62)"/><polygon class="cls-11" points="432.54 50.68 380.95 50.68 380.95 90.01 417.29 90.01 432.54 80.39 432.54 50.68"/><polygon class="cls-2" points="429.4 53.08 384.09 53.08 384.09 87.61 416 87.61 429.4 79.17 429.4 53.08"/><rect class="cls-12" x="386.56" y="70.09" width="38.9" height="4.14"/><rect class="cls-12" x="386.56" y="57.4" width="38.9" height="4.14"/><rect class="cls-12" x="386.56" y="63.74" width="38.9" height="4.14"/><rect class="cls-12" x="386.56" y="76.44" width="38.9" height="4.14"/><polygon class="cls-13" points="432.54 80.39 417.29 90.01 417.29 80.39 432.54 80.39"/><polygon class="cls-14" points="389.69 74.93 394.66 75.8 397.57 76.31 398.84 75.01 398 70.89 397.29 67.17 390.92 69.38 389.69 74.93"/><rect class="cls-10" x="383.85" y="50.54" width="5.19" height="24.17" transform="translate(69.62 294.8) rotate(-45.58)"/><path class="cls-10" d="M379.62,52.32l17.27,16.91,2-2.06-16.29-16a1.36,1.36,0,0,0-1.94,0Z" transform="translate(-1.62)"/><path class="cls-10" d="M375,59l16.29,16,1.95-2L376,56l-1,1A1.36,1.36,0,0,0,375,59Z" transform="translate(-1.62)"/><rect class="cls-15" x="385.26" y="53.91" width="5.19" height="20.21" transform="translate(69.05 296.22) rotate(-45.58)"/><rect class="cls-16" x="389.24" y="51.02" width="2.88" height="20.21" transform="translate(72 297.43) rotate(-45.59)"/><rect class="cls-16" x="383.67" y="56.76" width="2.78" height="20.21" transform="translate(66.19 295.1) rotate(-45.58)"/><path class="cls-14" d="M396.24,67.21l.65,2-3.23,0a.51.51,0,0,0-.52.53l.12,3.23-1.52-.08a.52.52,0,0,0-.54.55l.11,1.52,3.16-1.18,2.58-3.12,1.86-3.45-2-.61A.51.51,0,0,0,396.24,67.21Z" transform="translate(-1.62)"/><path class="cls-10" d="M398.73,71.35l.23,1.37a.39.39,0,0,1-.49.44l-.78-.23a.48.48,0,0,0-.56.67l.34.71a.38.38,0,0,1-.24.54l-.69.18a.48.48,0,0,0-.29.7l0,.07,3.61.63a.62.62,0,0,0,.71-.73l-1-4.81-.28-.08A.48.48,0,0,0,398.73,71.35Z" transform="translate(-1.62)"/><path class="cls-12" d="M433.22,47.17H386.43a.75.75,0,0,1-.74-.75.74.74,0,0,1,.74-.74h46.79a.74.74,0,0,1,.74.74A.75.75,0,0,1,433.22,47.17Z" transform="translate(-1.62)"/><path class="cls-12" d="M409.82,54.1a.74.74,0,0,1-.74-.75V42.09a.74.74,0,0,1,.74-.74.75.75,0,0,1,.75.74V53.35A.75.75,0,0,1,409.82,54.1Z" transform="translate(-1.62)"/><path class="cls-12" d="M386.37,47a.74.74,0,0,1-.74-.74V41.78a.74.74,0,0,1,1.48,0v4.46A.74.74,0,0,1,386.37,47Z" transform="translate(-1.62)"/><path class="cls-12" d="M433.28,47a.75.75,0,0,1-.75-.74V41.78a.75.75,0,0,1,.75-.74.74.74,0,0,1,.74.74v4.46A.74.74,0,0,1,433.28,47Z" transform="translate(-1.62)"/><circle class="cls-9" cx="384.55" cy="41.16" r="1.67"/><circle class="cls-2" cx="408.25" cy="41.16" r="1.67"/><path class="cls-12" d="M411.54,54.53a1.68,1.68,0,1,1-1.67-1.67A1.67,1.67,0,0,1,411.54,54.53Z" transform="translate(-1.62)"/><circle class="cls-10" cx="431.52" cy="41.16" r="1.67"/></g><path class="cls-6" d="M388.39,122.52a4.33,4.33,0,0,0-3.38,1.37,5.45,5.45,0,0,0-1.24,3.77,5.6,5.6,0,0,0,1.17,3.79,4.12,4.12,0,0,0,3.33,1.36,9.2,9.2,0,0,0,2.64-.37v.7a8.53,8.53,0,0,1-2.83.4,4.82,4.82,0,0,1-3.79-1.55,6.34,6.34,0,0,1-1.38-4.35,6.83,6.83,0,0,1,.66-3.07,4.77,4.77,0,0,1,1.9-2,5.59,5.59,0,0,1,2.87-.72,7,7,0,0,1,3,.62l-.32.72A5.91,5.91,0,0,0,388.39,122.52Z" transform="translate(-1.62)"/><path class="cls-6" d="M394,133.38h-.77V121.23H394Z" transform="translate(-1.62)"/><path class="cls-6" d="M396.77,122.53c0-.5.16-.75.49-.75a.44.44,0,0,1,.38.2,1,1,0,0,1,.13.55,1,1,0,0,1-.13.56.44.44,0,0,1-.38.2C396.93,123.29,396.77,123,396.77,122.53Zm.88,10.85h-.77v-8.49h.77Z" transform="translate(-1.62)"/><path class="cls-6" d="M406.42,133.38v-5.5a2.7,2.7,0,0,0-.54-1.87,2.22,2.22,0,0,0-1.68-.58,2.93,2.93,0,0,0-2.23.77,3.64,3.64,0,0,0-.7,2.5v4.68h-.78v-8.49h.66l.15,1.17h0a3.2,3.2,0,0,1,3-1.33c1.93,0,2.89,1,2.89,3.1v5.55Z" transform="translate(-1.62)"/><path class="cls-6" d="M409.82,122.53c0-.5.17-.75.49-.75a.44.44,0,0,1,.38.2,1,1,0,0,1,.14.55,1,1,0,0,1-.14.56.44.44,0,0,1-.38.2C410,123.29,409.82,123,409.82,122.53Zm.88,10.85h-.77v-8.49h.77Z" transform="translate(-1.62)"/><path class="cls-6" d="M416.94,133.54a3.6,3.6,0,0,1-2.85-1.15,4.59,4.59,0,0,1-1-3.2,4.69,4.69,0,0,1,1.07-3.29,3.77,3.77,0,0,1,2.93-1.17,6.06,6.06,0,0,1,2.11.38l-.22.69a6,6,0,0,0-1.91-.37,2.9,2.9,0,0,0-2.37,1,4.23,4.23,0,0,0-.8,2.77,4.11,4.11,0,0,0,.8,2.69,2.77,2.77,0,0,0,2.25,1,5.46,5.46,0,0,0,2.15-.42v.72A4.79,4.79,0,0,1,416.94,133.54Z" transform="translate(-1.62)"/><path class="cls-6" d="M426.31,133.38l-.2-1.34h-.06a4.08,4.08,0,0,1-1.32,1.16,3.47,3.47,0,0,1-1.6.34,2.74,2.74,0,0,1-1.94-.64,2.28,2.28,0,0,1-.7-1.77,2.19,2.19,0,0,1,1-1.93,5.64,5.64,0,0,1,3-.73l1.62-.05v-.56a2.87,2.87,0,0,0-.49-1.83,1.92,1.92,0,0,0-1.59-.61,5.25,5.25,0,0,0-2.44.65l-.29-.67a6.41,6.41,0,0,1,2.76-.66,2.76,2.76,0,0,1,2.09.73,3.15,3.15,0,0,1,.7,2.27v5.64Zm-3.13-.54a2.7,2.7,0,0,0,2.93-2.94v-.84l-1.48.07a5.54,5.54,0,0,0-2.55.55,1.81,1.81,0,0,0-.28,2.72A2,2,0,0,0,423.18,132.84Z" transform="translate(-1.62)"/><path class="cls-6" d="M430.4,133.38h-.77V121.23h.77Z" transform="translate(-1.62)"/><path class="cls-6" d="M380.9,152.58V141.16h.8v11.42Z" transform="translate(-1.62)"/><path class="cls-6" d="M390.66,152.58v-5.5a2.7,2.7,0,0,0-.54-1.87,2.21,2.21,0,0,0-1.67-.58,2.9,2.9,0,0,0-2.23.77,3.59,3.59,0,0,0-.71,2.5v4.68h-.77v-8.49h.65l.15,1.17h0a3.17,3.17,0,0,1,2.94-1.33q2.89,0,2.89,3.1v5.55Z" transform="translate(-1.62)"/><path class="cls-6" d="M399.44,150.37a2,2,0,0,1-.87,1.76,4.22,4.22,0,0,1-2.46.61,5.81,5.81,0,0,1-2.7-.52v-.84a5.9,5.9,0,0,0,2.7.64,3.54,3.54,0,0,0,1.91-.42,1.25,1.25,0,0,0,.65-1.11,1.34,1.34,0,0,0-.52-1.08,5.61,5.61,0,0,0-1.7-.86,9.29,9.29,0,0,1-1.79-.79,2.35,2.35,0,0,1-.78-.75,1.93,1.93,0,0,1-.26-1,1.73,1.73,0,0,1,.8-1.51,3.88,3.88,0,0,1,2.24-.55,6.82,6.82,0,0,1,2.61.51l-.29.71a6.05,6.05,0,0,0-2.32-.52A3.47,3.47,0,0,0,395,145a1.06,1.06,0,0,0-.61,1,1.34,1.34,0,0,0,.47,1.06,6.57,6.57,0,0,0,1.85.89,9.28,9.28,0,0,1,1.67.75,2.49,2.49,0,0,1,.79.75A1.87,1.87,0,0,1,399.44,150.37Z" transform="translate(-1.62)"/><path class="cls-6" d="M401.52,141.73c0-.5.16-.75.49-.75a.44.44,0,0,1,.38.2,1,1,0,0,1,.13.55,1,1,0,0,1-.13.56.44.44,0,0,1-.38.2C401.68,142.49,401.52,142.24,401.52,141.73Zm.88,10.85h-.77v-8.49h.77Z" transform="translate(-1.62)"/><path class="cls-6" d="M411.87,144.09v.54l-1.76.11a3,3,0,0,1,.7,1.92,2.61,2.61,0,0,1-.81,2,3.09,3.09,0,0,1-2.19.76,5.23,5.23,0,0,1-.82,0,2,2,0,0,0-.7.57,1.13,1.13,0,0,0-.24.69.63.63,0,0,0,.31.59,2,2,0,0,0,1,.19h1.49A3.44,3.44,0,0,1,411,152a1.94,1.94,0,0,1,.74,1.65,2.37,2.37,0,0,1-1.09,2.08,5.63,5.63,0,0,1-3.11.73,4.29,4.29,0,0,1-2.48-.62,2.15,2.15,0,0,1-.33-3.17,2.76,2.76,0,0,1,1.47-.79,1.38,1.38,0,0,1-.61-.47,1.07,1.07,0,0,1-.24-.69,1.85,1.85,0,0,1,1.09-1.5,2.47,2.47,0,0,1-1.16-.95,2.81,2.81,0,0,1-.41-1.5,2.67,2.67,0,0,1,.81-2,3,3,0,0,1,2.18-.77,4,4,0,0,1,1.3.16ZM405,154c0,1.17.87,1.75,2.6,1.75,2.23,0,3.35-.71,3.35-2.13a1.25,1.25,0,0,0-.52-1.11,3.21,3.21,0,0,0-1.7-.34h-1.39Q405,152.19,405,154Zm.65-7.28a2,2,0,0,0,.6,1.53,2.68,2.68,0,0,0,3.23,0,2.08,2.08,0,0,0,.56-1.56,2.12,2.12,0,0,0-.58-1.63,2.31,2.31,0,0,0-1.63-.54,2.15,2.15,0,0,0-1.6.58A2.23,2.23,0,0,0,405.64,146.74Z" transform="translate(-1.62)"/><path class="cls-6" d="M419.53,152.58v-5.5a2.7,2.7,0,0,0-.54-1.87,2.19,2.19,0,0,0-1.67-.58,2.91,2.91,0,0,0-2.23.77,3.64,3.64,0,0,0-.71,2.5v4.68h-.77V140.43h.77v3.87l0,1.08h.06a2.89,2.89,0,0,1,1.2-1.11,4.24,4.24,0,0,1,1.81-.34c1.92,0,2.89,1,2.89,3.1v5.55Z" transform="translate(-1.62)"/><path class="cls-6" d="M425.29,152.05a6,6,0,0,0,1.28-.12v.62a4,4,0,0,1-1.3.19,2.12,2.12,0,0,1-1.66-.6,2.82,2.82,0,0,1-.53-1.89v-5.49h-1.26v-.45l1.26-.35.39-1.92h.4v2.05h2.49v.67h-2.49v5.38a2.43,2.43,0,0,0,.34,1.44A1.23,1.23,0,0,0,425.29,152.05Z" transform="translate(-1.62)"/><path class="cls-6" d="M433.67,150.37a2,2,0,0,1-.86,1.76,4.23,4.23,0,0,1-2.47.61,5.87,5.87,0,0,1-2.7-.52v-.84a6,6,0,0,0,2.7.64,3.54,3.54,0,0,0,1.91-.42,1.26,1.26,0,0,0,.66-1.11,1.37,1.37,0,0,0-.52-1.08,5.81,5.81,0,0,0-1.71-.86,9.59,9.59,0,0,1-1.79-.79,2.55,2.55,0,0,1-.78-.75,1.93,1.93,0,0,1-.26-1,1.75,1.75,0,0,1,.8-1.51,3.91,3.91,0,0,1,2.24-.55,6.75,6.75,0,0,1,2.61.51l-.29.71a6,6,0,0,0-2.32-.52,3.49,3.49,0,0,0-1.65.34,1.07,1.07,0,0,0-.61,1,1.32,1.32,0,0,0,.48,1.06,6.47,6.47,0,0,0,1.84.89,9.45,9.45,0,0,1,1.68.75,2.45,2.45,0,0,1,.78.75A1.79,1.79,0,0,1,433.67,150.37Z" transform="translate(-1.62)"/></g></g></svg>