<svg xmlns="http://www.w3.org/2000/svg" viewBox="0 0 185.74 41.24"><g id="Layer_2" data-name="Layer 2"><g id="Layer_1-2" data-name="Layer 1"><path d="M152,37c-15.57-2.76-22.55-6.32-29.36-17C116.18,9.63,108.44-.21,92.87,0,77.3-.21,69.56,9.63,63.1,20,56.29,30.67,49.32,34.23,33.74,37S0,39.43,0,39.43v.64H185.74v-.64S167.57,39.75,152,37Z" style="fill:#f15b2b"/><path d="M152,37c-15.57-2.76-22.55-6.32-29.36-17C118.12,12.73,113,5.74,105,2.27v37.8h80.79v-.64S167.57,39.75,152,37Z" style="fill:#f89521"/><path d="M82.08,1.75C73.31,5,67.86,12.35,63.1,20,56.29,30.67,49.32,34.23,33.74,37S0,39.43,0,39.43v.64H82.08Z" style="fill:#f89521"/><path d="M60,24.32C54,31.72,47,34.65,33.74,37,18.17,39.75,0,39.43,0,39.43v.64H60Z" style="fill:#fbb042"/><path d="M152,37c-12.82-2.27-19.81-5.09-25.69-12V40.07h59.43v-.64S167.57,39.75,152,37Z" style="fill:#fbb042"/><path d="M36.12,36.55c-.77.15-1.56.3-2.38.44C18.17,39.75,0,39.43,0,39.43v.64H36.12Z" style="fill:#ffdf7c"/><path d="M152,37l-1.69-.31v3.39h35.43v-.64S167.57,39.75,152,37Z" style="fill:#ffdf7c"/><rect x="24.64" y="38.77" width="0.71" height="2.47" style="fill:#fff"/><rect x="2.32" y="38.77" width="0.71" height="2.47" style="fill:#fff"/><rect x="47.24" y="38.77" width="0.71" height="2.47" style="fill:#fff"/><rect x="69.84" y="38.77" width="0.71" height="2.47" style="fill:#fff"/><rect x="92.44" y="38.77" width="0.71" height="2.47" style="fill:#fff"/><rect x="115.04" y="38.77" width="0.71" height="2.47" style="fill:#fff"/><rect x="137.64" y="38.77" width="0.71" height="2.47" style="fill:#fff"/><rect x="160.24" y="38.77" width="0.71" height="2.47" style="fill:#fff"/><rect x="180.99" y="38.77" width="0.71" height="2.47" style="fill:#fff"/></g></g></svg>