<svg xmlns="http://www.w3.org/2000/svg" viewBox="0 0 100.55 42.01"><g id="Layer_2" data-name="Layer 2"><g id="Layer_1-2" data-name="Layer 1"><path d="M96.78,28.77c-.66.62-1.46,1.85-2.75,3.09-2.61,2.51-7.5,3.3-12.56,4.89-.66.21-1.92.5-2.62.65-2.25.5-4.69,1.28-7.25,1-9.93-1-15.44-3.55-18.93-7.13a12.5,12.5,0,0,1-1.94-2.47c-3.46-6-2.74-4.75-2.17-6.28a29.74,29.74,0,0,1,4.14-2.88c1.57-.7,3.45-2.43,8.56-2.52,3.47-.07,19,0,19,0a30.93,30.93,0,0,1,13.21,2.64c.86.34,3.53.53,4.16,1C100.9,23.44,99.83,25.91,96.78,28.77Z" style="fill:#a91e22"/><path d="M95.26,17.61s0,3.3,0,3.4a3.41,3.41,0,0,1-3.4,3.12h-.51a3.41,3.41,0,0,1-3.29-2.55,3.4,3.4,0,0,1-3.28,2.49h-.51a3.41,3.41,0,0,1-3.37-2.9,3.4,3.4,0,0,1-3.26,2.42h-.51a3.4,3.4,0,0,1-3.29-2.52,3.39,3.39,0,0,1-3.28,2.52H70a3.39,3.39,0,0,1-3.22-2.31,3.4,3.4,0,0,1-3.35,2.79H63a3.4,3.4,0,0,1-3.19-2.22,3.39,3.39,0,0,1-3.21,2.28H56a3.42,3.42,0,0,1-3.41-3.37V17.61a3,3,0,0,1,0-.42,29.54,29.54,0,0,1,6.26-2,3.44,3.44,0,0,1,.82,1.26A3.48,3.48,0,0,1,61,14.78c1.09-.18,2.24-.34,3.48-.47a3.42,3.42,0,0,1,2.22,2.16A3.43,3.43,0,0,1,68.56,14c1,0,2.13-.08,3.27-.08a3.4,3.4,0,0,1,2,2.27A3.42,3.42,0,0,1,75.72,14q1.92.06,3.66.18A3.44,3.44,0,0,1,81,16.58a3.39,3.39,0,0,1,1.84-2.11c1.53.17,3,.37,4.26.61a3.35,3.35,0,0,1,1,1.62,3.54,3.54,0,0,1,.69-1.3,33.12,33.12,0,0,1,6.5,2A1.21,1.21,0,0,1,95.26,17.61Z" style="fill:#fffef5"/><path d="M58.61,32.71S61.83,21.2,73.8,21.13,88.42,33.71,88.42,33.71L74,38.05,63.84,35.49Z" style="fill:#e02826"/><path d="M59.55,32.32a10.28,10.28,0,0,0,4.18-1.15c1.48-1,2.38-7.37,9.67-7.62s8,6.39,10.17,7.46a16.88,16.88,0,0,0,3.77,1.39l-6.4,3.53L71.68,37,62,36.25Z" style="fill:#d02027"/><path d="M87.49,32.34v3.1a3.4,3.4,0,0,1-.19,1.11,29.52,29.52,0,0,1-5.4,1.86,3.65,3.65,0,0,1-1.11-1,3.34,3.34,0,0,1-1.12,1.47,34.83,34.83,0,0,1-3.82.43,3.42,3.42,0,0,1-2-2.28,3.39,3.39,0,0,1-2,2.28A33.9,33.9,0,0,1,68,38.9a3.41,3.41,0,0,1-1.39-2.42,3.35,3.35,0,0,1-1.41,1.83,29.68,29.68,0,0,1-5.66-2.1,3.25,3.25,0,0,1-.09-.77v-3.1a3.39,3.39,0,0,1,1.23-2.62,3.35,3.35,0,0,1,2.18-.79h.51a3.38,3.38,0,0,1,3.21,2.29,2.6,2.6,0,0,1,.18.79,3.5,3.5,0,0,1,.32-.71A3.4,3.4,0,0,1,70,29.64h.52a3.38,3.38,0,0,1,3.18,2.22c0,.1.07.2.1.3,0-.1.07-.2.1-.3a3.39,3.39,0,0,1,3.19-2.22h.51a3.42,3.42,0,0,1,2.78,1.43,3.4,3.4,0,0,1,3.16-2.14h.51a3.37,3.37,0,0,1,2.53,1.13A3.41,3.41,0,0,1,87.49,32.34Z" style="fill:#fffef5"/><path d="M100.52,22.21c-.26-1.54-1.9-3.3-5.27-4.79a33.12,33.12,0,0,0-6.5-2c-.53-.12-1.08-.22-1.65-.32-1.31-.24-2.73-.44-4.26-.61-1.09-.13-2.25-.23-3.46-.31S77,14,75.72,14l-1.82,0H71.83c-1.14,0-2.23,0-3.27.08-1.45.07-2.81.17-4.09.3s-2.39.29-3.48.47q-1.08.18-2.07.39a29.54,29.54,0,0,0-6.26,2c-2.94,1.37-4.44,3-4.78,4.31-.74,2.91,3,10.4,11.69,14.71a29.68,29.68,0,0,0,5.66,2.1c.9.23,1.83.43,2.8.59a33.9,33.9,0,0,0,3.78.41c.58,0,1.16,0,1.76.06q1.17,0,2.28-.06a34.83,34.83,0,0,0,3.82-.43c.77-.13,1.51-.29,2.23-.47a29.52,29.52,0,0,0,5.4-1.86C96.58,32.32,100.94,24.58,100.52,22.21ZM86.61,30.06a48.81,48.81,0,0,1-12.68,1.8h-.2a38.65,38.65,0,0,1-6.62-.56l-.5-.08a45,45,0,0,1-5.9-1.5c-6.9-2.28-11.6-5.76-11.32-7.31.11-.61,1.25-1.17,3.24-1.65,4-1,11.52-1.57,21-1.48,9.8.1,17.4.73,21.65,1.73,2.27.53,3.58,1.18,3.76,1.9C99.34,24.29,94.39,27.86,86.61,30.06Z" style="fill:#f0513f"/><path d="M15.2,36.32c-10.86,1.8-13-6.06-13.78-11.89C1,21.18,1.17,14.19,3.11,10.1,4.65,6.84,5.33,4,7.13,2.87c2.18-1.39,7-.53,12.54.47,3.09.55,3.17,3.23,4.41,6.67,1,2.79,1.07,6.38,1.68,9.74C27.13,27.25,20.85,35.39,15.2,36.32Z" style="fill:#a91e22"/><path d="M5.32,19.39C5,24,8.06,26.9,13.76,26.63s7.74-1.71,7.41-6-1.81-5.87-3.9-6.26c-1.51-.28-2.9.28-2.85,2,0,.93,2.3,3.78-1.48,3.78-2.88,0-.33-3.34-.82-4.77s-2.2-1.7-3.95-.55A5.41,5.41,0,0,0,5.32,19.39Z" style="fill:#6b100f"/><path d="M26,29c-.18.64-1.75,4.6-2.68,5.19s-6.83,2.74-6.83,2.74l-1.62-.09c-2.4-.14-6.65-.44-7.07-.73a1.88,1.88,0,0,1-.29-.29c-1.16-1.29-4.79-6.18-4.79-6.18-.1-1.29,1-2.52,2.49-3.37a9,9,0,0,1,3-1.13,12.56,12.56,0,0,1,4,.19,6.94,6.94,0,0,0,1.54.11c.2,0,.42,0,.67-.08a21.65,21.65,0,0,1,6.85-.27,5.76,5.76,0,0,1,1.49.46C24.93,26.48,26.17,28.44,26,29Z" style="fill:#e02826"/><path d="M21.52,2.87V4.75a3.92,3.92,0,0,1-3.93,3.93H17a3.89,3.89,0,0,1-3-1.39,3.92,3.92,0,0,1-.81-1.52,3.75,3.75,0,0,1-.76,1.47,3.9,3.9,0,0,1-3,1.44H8.82A3.9,3.9,0,0,1,4.89,4.75V3.07A4.72,4.72,0,0,1,6,1.77C8.41,0,10.68.33,13.19.26c1.23,0,3.77-1,6.79.92A5.48,5.48,0,0,1,21.52,2.87Z" style="fill:#fffef5"/><path d="M26,29c-.18.64-1.75,4.6-2.68,5.19s-6.83,2.74-6.83,2.74l-1.62-.09a10.54,10.54,0,0,0-1.76-.38c-.64,0-3.22-.3-5.6-.64-1.16-1.29-4.79-6.18-4.79-6.18-.1-1.29,1-2.52,2.49-3.37-.35,2.32,1.93,6.22,9,6.17,7.23-.06,8.38-5.67,8.54-6.89C24.93,26.48,26.17,28.44,26,29Z" style="fill:#d02027"/><path d="M26.88,22c0-.86,0-1.72-.08-2.36-.67-5-2.83-13.09-5.28-16.79A5.48,5.48,0,0,0,20,1.18C17-.72,14.42.24,13.19.26,10.68.33,8.41,0,6,1.77a4.72,4.72,0,0,0-1.1,1.3C2.6,6.65-.1,15.7,0,22.07c0,.45,0,.91,0,1.39C.3,31,1.19,41.52,13.73,42,25.65,42.45,27.12,29.29,26.88,22ZM20.05,32.87a11.52,11.52,0,0,1-12.83.26C4.64,31.42,2,28,1.8,22.61,1.52,16.37,4.28,11,7.13,8.31c0,0,0,0,0,0C8.57,7,11,7.1,12.44,7.24l.64.07a6.05,6.05,0,0,0,.93,0c1.42-.11,3.68-.38,5.56.86a1.94,1.94,0,0,1,.29.21c2.42,1.82,5.13,9.91,5.25,12.47C25.4,27.16,22.37,31.17,20.05,32.87Z" style="fill:#f0513f"/><path d="M13.6,28.91c-2.51.05-1.1-2.39-1.36-3.61a6.94,6.94,0,0,0,1.54.11c.2,0,.42,0,.67-.08C14.92,26.32,15.91,28.86,13.6,28.91Z" style="fill:#d02027"/></g></g></svg>