<svg xmlns="http://www.w3.org/2000/svg" xmlns:xlink="http://www.w3.org/1999/xlink" viewBox="0 0 2847.11 3231.23"><defs><style>.cls-1{isolation:isolate;}.cls-2{fill:url(#linear-gradient);}.cls-3{opacity:0.53;}.cls-4,.cls-76{fill:#fff;}.cls-5{fill:#91b3fa;}.cls-6{fill:url(#linear-gradient-2);}.cls-7{fill:#f05a2b;}.cls-8{fill:#f79420;}.cls-9{fill:#faaf41;}.cls-10{fill:#ffde7c;}.cls-11{fill:#fab78b;}.cls-12{fill:#34173a;}.cls-13{fill:#a8d2de;}.cls-14{fill:#006099;}.cls-15{fill:#eb715d;}.cls-16{fill:#213065;}.cls-17{fill:#ecc67b;}.cls-18{fill:#a81e22;}.cls-19{fill:#fffdf3;}.cls-20{fill:#df2726;}.cls-21{fill:#cf2027;}.cls-22{fill:#ef503f;}.cls-23{fill:#6b0f0e;}.cls-24{fill:#fcd80e;}.cls-25{fill:#2b2b2b;}.cls-26{fill:#666cb1;opacity:0.4;mix-blend-mode:multiply;}.cls-27{fill:#221e53;}.cls-28{fill:#ffd46c;}.cls-29{fill:#da79b0;}.cls-30{fill:#71b2e1;}.cls-31{fill:#3f50a1;}.cls-32{fill:#f37f64;}.cls-33{fill:#f4876c;}.cls-34{fill:#64aadd;}.cls-35{fill:#56a5db;}.cls-36{fill:#ee9369;}.cls-37{fill:#d87849;}.cls-38{fill:#c56344;}.cls-39{fill:#aa5032;}.cls-40{fill:#763038;}.cls-41{fill:#521e24;}.cls-42{fill:#f6f2e7;}.cls-43{fill:#e2dac2;}.cls-44{fill:#d45565;}.cls-45{fill:#b24a56;}.cls-46{fill:#f17282;}.cls-47{fill:#f1b288;}.cls-48{fill:#4b423b;}.cls-49{fill:#cb7c7a;}.cls-50{fill:#64b1b0;}.cls-51{fill:#616e7d;}.cls-52{fill:#34434e;}.cls-53{fill:#a2c73e;}.cls-54{fill:#85ae3f;}.cls-55{fill:#9ecb41;}.cls-56{fill:#2e92bd;}.cls-57{fill:#25748c;}.cls-58{fill:#b5549b;}.cls-59{fill:#99438d;}.cls-60{fill:#edc31a;}.cls-61{fill:#c9a72c;}.cls-62{fill:#d63c33;}.cls-63{fill:#e24b3c;}.cls-64{fill:#39a5bf;}.cls-65{fill:#be5fa4;}.cls-66{fill:#f2d03a;}.cls-67{fill:#bf3b2d;}.cls-68{fill:#de453d;}.cls-69{fill:url(#linear-gradient-3);}.cls-70{fill:url(#linear-gradient-4);}.cls-71{fill:url(#linear-gradient-5);}.cls-72{fill:url(#linear-gradient-6);}.cls-73{fill:url(#linear-gradient-7);}.cls-74{fill:#7d97f4;}.cls-75{fill:url(#linear-gradient-8);}.cls-76{opacity:0.5;}.cls-77{fill:url(#linear-gradient-9);}.cls-78{fill:url(#linear-gradient-10);}.cls-79{fill:url(#linear-gradient-11);}.cls-80{fill:url(#linear-gradient-12);}.cls-81{fill:url(#linear-gradient-13);}.cls-82{fill:url(#linear-gradient-14);}.cls-83{fill:url(#linear-gradient-15);}.cls-84{fill:url(#linear-gradient-16);}.cls-85{fill:url(#linear-gradient-17);}.cls-86{fill:url(#linear-gradient-18);}.cls-87{fill:url(#linear-gradient-19);}.cls-88{fill:url(#linear-gradient-20);}.cls-89{fill:url(#linear-gradient-21);}</style><linearGradient id="linear-gradient" x1="3078" y1="3714.1" x2="1059.5" y2="1535.4" gradientUnits="userSpaceOnUse"><stop offset="0" stop-color="#dae3fe"/><stop offset="1" stop-color="#e9effd"/></linearGradient><linearGradient id="linear-gradient-2" x1="1416.51" y1="2842.1" x2="1424.82" y2="3697.91" gradientUnits="userSpaceOnUse"><stop offset="0" stop-color="#53d8ff"/><stop offset="1" stop-color="#3840f7"/></linearGradient><linearGradient id="linear-gradient-3" x1="1665.9" y1="1797.27" x2="1650.38" y2="2335.24" gradientUnits="userSpaceOnUse"><stop offset="0" stop-color="#4f52ff"/><stop offset="1" stop-color="#4042e2"/></linearGradient><linearGradient id="linear-gradient-4" x1="1643.84" y1="1819.11" x2="1643.84" y2="2595.04" gradientUnits="userSpaceOnUse"><stop offset="0" stop-color="#fe7062"/><stop offset="1" stop-color="#ff928e"/></linearGradient><linearGradient id="linear-gradient-5" x1="1610.6" y1="2889.17" x2="1641.63" y2="1823.57" xlink:href="#linear-gradient-4"/><linearGradient id="linear-gradient-6" x1="1745.9" y1="2720.23" x2="-1007.77" y2="6601.28" xlink:href="#linear-gradient-3"/><linearGradient id="linear-gradient-7" x1="1640.52" y1="1172.36" x2="2602.66" y2="-177.75" xlink:href="#linear-gradient-3"/><linearGradient id="linear-gradient-8" x1="286.96" y1="2113.82" x2="1238.76" y2="1482.74" gradientUnits="userSpaceOnUse"><stop offset="0" stop-color="#09005d"/><stop offset="1" stop-color="#1a0f91"/></linearGradient><linearGradient id="linear-gradient-9" x1="2018.08" y1="357.01" x2="1200.77" y2="1438.13" xlink:href="#linear-gradient-8"/><linearGradient id="linear-gradient-10" x1="1005.85" y1="2147.27" x2="1120.1" y2="1853.15" gradientTransform="translate(-278.23)" gradientUnits="userSpaceOnUse"><stop offset="0" stop-color="#febbba"/><stop offset="1" stop-color="#ff928e"/></linearGradient><linearGradient id="linear-gradient-11" x1="1004.11" y1="3093.32" x2="1381.72" y2="-1319.99" xlink:href="#linear-gradient-10"/><linearGradient id="linear-gradient-12" x1="1017.68" y1="1681.98" x2="1066.11" y2="1681.98" xlink:href="#linear-gradient-10"/><linearGradient id="linear-gradient-13" x1="-1504.74" y1="2066.16" x2="-1547.12" y2="2137.87" gradientTransform="matrix(-1, 0, 0, 1, -725.84, 0)" xlink:href="#linear-gradient-2"/><linearGradient id="linear-gradient-14" x1="-2627.26" y1="1276.47" x2="-2669.63" y2="1348.18" gradientTransform="matrix(-0.92, -0.39, -0.39, 0.92, -1182.44, -152.12)" xlink:href="#linear-gradient-2"/><linearGradient id="linear-gradient-15" x1="1148.53" y1="1696.92" x2="1038.5" y2="1954.3" gradientTransform="translate(-278.23)" xlink:href="#linear-gradient-3"/><linearGradient id="linear-gradient-16" x1="1070.57" y1="1573.93" x2="1104.97" y2="1573.93" gradientTransform="translate(-372.84 -153.34)" xlink:href="#linear-gradient-10"/><linearGradient id="linear-gradient-17" x1="1132.54" y1="1611.19" x2="950.41" y2="1844.85" gradientTransform="translate(-278.23)" xlink:href="#linear-gradient-4"/><linearGradient id="linear-gradient-18" x1="1272.37" y1="1593.54" x2="974.9" y2="1763.95" xlink:href="#linear-gradient-10"/><linearGradient id="linear-gradient-19" x1="1301.93" y1="1645.13" x2="1004.46" y2="1815.55" xlink:href="#linear-gradient-10"/><linearGradient id="linear-gradient-20" x1="1127.86" y1="1573.91" x2="1061.02" y2="1476.18" xlink:href="#linear-gradient-10"/><linearGradient id="linear-gradient-21" x1="908.8" y1="1600.82" x2="1126.57" y2="1600.82" gradientTransform="translate(-278.23)" xlink:href="#linear-gradient-8"/></defs><g class="cls-1"><g id="Illustration"><path class="cls-2" d="M2796.71,2472.54c-277.36,648.29-1009.49,926.74-1583.13,879.27-156.62-13-471.76-39-717.82-271.74C23.22,2633.2,96,1699.12,548.35,1149.19c58.26-70.82,461.49-545.31,1089.84-539,460,4.65,782.95,264.53,822.21,296.9,49.6,40.9,159,138.09,257.6,292.27C2949.66,1561.68,2970,2067.42,2796.71,2472.54Z" transform="translate(-94.62 -153.34)"/><g class="cls-3"><rect class="cls-4" x="13.77" y="1956.03" width="307.42" height="1245.72"/></g><g class="cls-3"><rect class="cls-4" x="412.61" y="1956.03" width="307.42" height="1245.72"/></g><g class="cls-3"><rect class="cls-4" x="837.9" y="1956.03" width="307.42" height="1245.72"/></g><g class="cls-3"><rect class="cls-4" x="1262.21" y="1956.03" width="307.42" height="1245.72"/></g><g class="cls-3"><rect class="cls-4" x="1686.52" y="1956.03" width="307.42" height="1245.72"/></g><g class="cls-3"><rect class="cls-4" x="2116.38" y="1956.03" width="307.42" height="1245.72"/></g><g class="cls-3"><rect class="cls-4" x="2539.04" y="1956.03" width="307.42" height="1245.72"/></g><rect class="cls-5" x="13.77" y="2896.23" width="305.52" height="305.52"/><rect class="cls-5" x="413.56" y="2772.83" width="305.52" height="428.92"/><rect class="cls-5" x="839.92" y="2650.26" width="305.52" height="552.38"/><rect class="cls-6" x="1257.85" y="2529.52" width="317.77" height="673.11"/><rect class="cls-5" x="1681.83" y="2348.99" width="317.77" height="853.64"/><rect class="cls-5" x="2111.2" y="2150.19" width="317.77" height="1056.72"/><rect class="cls-5" x="2529.34" y="2034.97" width="317.77" height="1171.94"/><path class="cls-7" d="M2422.6,521.17c-45.9-8.12-66.46-18.64-86.55-50.2-19-30.44-41.84-59.46-87.74-58.82-45.9-.64-68.71,28.38-87.74,58.82-20.08,31.56-40.64,42.08-86.54,50.2s-99.46,7.18-99.46,7.18v1.91h547.49v-1.91S2468.5,529.3,2422.6,521.17Z" transform="translate(-94.62 -153.34)"/><path class="cls-8" d="M2422.6,521.17c-45.9-8.12-66.46-18.64-86.55-50.2-13.31-21.31-28.48-41.91-52.12-52.14V530.26h238.13v-1.91S2468.5,529.3,2422.6,521.17Z" transform="translate(-94.62 -153.34)"/><path class="cls-8" d="M2216.5,417.3c-25.84,9.6-41.91,31.24-55.93,53.67-20.08,31.56-40.64,42.08-86.54,50.2s-99.46,7.18-99.46,7.18v1.91H2216.5Z" transform="translate(-94.62 -153.34)"/><path class="cls-9" d="M2151.42,483.81c-17.67,21.82-38.38,30.45-77.39,37.36-45.91,8.13-99.46,7.18-99.46,7.18v1.91h176.85Z" transform="translate(-94.62 -153.34)"/><path class="cls-9" d="M2422.6,521.17c-37.79-6.69-58.4-15-75.71-35.34v44.43h175.17v-1.91S2468.5,529.3,2422.6,521.17Z" transform="translate(-94.62 -153.34)"/><path class="cls-10" d="M2081,519.87q-3.41.68-7,1.3c-45.91,8.13-99.46,7.18-99.46,7.18v1.91H2081Z" transform="translate(-94.62 -153.34)"/><path class="cls-10" d="M2422.6,521.17c-1.69-.3-3.35-.6-5-.91v10h104.43v-1.91S2468.5,529.3,2422.6,521.17Z" transform="translate(-94.62 -153.34)"/><rect class="cls-4" x="1952.58" y="373.09" width="2.08" height="7.27"/><rect class="cls-4" x="1886.79" y="373.09" width="2.08" height="7.27"/><rect class="cls-4" x="2019.19" y="373.09" width="2.08" height="7.27"/><rect class="cls-4" x="2085.81" y="373.09" width="2.08" height="7.27"/><rect class="cls-4" x="2152.42" y="373.09" width="2.08" height="7.27"/><rect class="cls-4" x="2219.03" y="373.09" width="2.08" height="7.27"/><rect class="cls-4" x="2285.64" y="373.09" width="2.08" height="7.27"/><rect class="cls-4" x="2352.26" y="373.09" width="2.08" height="7.27"/><rect class="cls-4" x="2413.44" y="373.09" width="2.08" height="7.27"/><path class="cls-11" d="M2157.17,1064.19c4.68,12.38,15.71,16.44,26.14,20.54,3.82,1.5,25,21.32-6.28,15.1-5.49-1.09-24.13-5.43-32.75-9.41s-4.1-17.17-5.62-22.26C2138.66,1068.16,2150.28,1046,2157.17,1064.19Z" transform="translate(-94.62 -153.34)"/><path class="cls-12" d="M2183.31,1084.73c12.56,5.07,22.56,11.5,19.36,19-3.59,8.47-22.92,6.18-29.92,3-3.78-1.72-10.58-5.72-15.64-7.66-6.07-2.34-11-5.3-15.1-7.09-5.71-2.49-6.6-10.76-3.13-17.4.41,2.45,2.49,6.35,5,7.85,10.74,6.33,24,13.2,30.49,14s10.27-.16,11.62-3.35C2188.11,1088.23,2185.83,1086.68,2183.31,1084.73Z" transform="translate(-94.62 -153.34)"/><path class="cls-11" d="M2182.81,1039.84c3.71,12.71,14.39,17.61,24.47,22.5,3.69,1.79,23.24,23.2-7.44,14.57-5.38-1.51-23.62-7.29-31.91-11.93s-2.92-17.46-4-22.66C2163.89,1042.32,2177.36,1021.13,2182.81,1039.84Z" transform="translate(-94.62 -153.34)"/><path class="cls-12" d="M2207.28,1062.34c12,5.62,21.59,13.22,17.82,20.49-4.24,8.16-23.33,4.38-30.06.67-3.64-2-10.11-6.52-15-8.85-5.87-2.8-10.54-6.14-14.51-8.25-5.5-2.92-5.88-11.24-1.9-17.59.23,2.48,2.12,6.52,4.55,8.22,10.22,7.15,22.89,15,29.32,16.34s10.25.64,11.84-2.44C2211.79,1066.21,2209.64,1064.49,2207.28,1062.34Z" transform="translate(-94.62 -153.34)"/><path class="cls-12" d="M2074.45,871c5.47,55.34,74.63,57.56,78.33-16,.75-14.81,15.51-51.65-30.29-66.91C2102.06,781.29,2074.45,871,2074.45,871Z" transform="translate(-94.62 -153.34)"/><path class="cls-13" d="M2111.29,918.75c-12.73,72.6-21.42,155.79-74.24,155.87s-58.53-65.11-66-66.2c-8-1.2-11.63-14.67-11.06-33.81,0-1.39.08-2.84.16-4.29,3.33-57.12,40.54-156.74,105.22-143.23C2117.1,837.88,2123.74,847.75,2111.29,918.75Z" transform="translate(-94.62 -153.34)"/><path class="cls-12" d="M1997.34,998.91s87-26.81,116.28-119.58c11.79-37.39,31.71,36.89,26.58,103.21-2.27,29.31-9.54,54.51-23.32,74.45C2093.18,1091.32,2000.28,1103.85,1997.34,998.91Z" transform="translate(-94.62 -153.34)"/><path class="cls-12" d="M2160.48,1047.55S2056.19,864,2127.66,865.93c52.26,1.4,57.13,175.67,57.13,175.67C2185.45,1046.89,2162.13,1050.11,2160.48,1047.55Z" transform="translate(-94.62 -153.34)"/><path class="cls-14" d="M1971.1,1008.42s72-26,101.3-118.73c0,0,37,.71,37,82.49,0,7.47-4.15,65-34.12,99.23C2046.7,1104.08,1965.12,1092.7,1971.1,1008.42Z" transform="translate(-94.62 -153.34)"/><path class="cls-11" d="M2119.8,1022.71c3.52-.66,9.52-2.23,10-3.83.75-2.58-11.9,1.1-17.07-.14-3.8-.91-9.88-4.09-10-5.33.56-3.78,12.83-3.83,14.92-6.42,1.26-1.55-2.22-2.63-9.13-1.25-6.26,1.25-8.86-.71-14.42-.52-2.09.08-6.16.4-10.32.56-3.33.12-8.85-3.25-8.85-3.25l-3.09,15.6c2.52,2.07,25.89,17.18,36.18,17.7,11.56.59,19.38-3,20.72-4.8.67-.88-2.91-1.26-4.76-1.08,3.65-1,7.46-2,8.23-3.1,1-1.43-5.93-1-11.35,0,5.09-1.23,11.61-2.68,12.49-4.15C2134.83,1020.08,2125,1022,2119.8,1022.71Z" transform="translate(-94.62 -153.34)"/><path class="cls-14" d="M2135.6,1069.71s-118-182-42.48-197.39c65.15-13.28,67.28,191,67.28,191C2161.64,1070.71,2139.1,1072.59,2135.6,1069.71Z" transform="translate(-94.62 -153.34)"/><path class="cls-14" d="M1980.45,972.8q.93,9.94,1.85,19.9c.18,1.92,3.22,1.94,3,0l-1.86-19.9c-.18-1.93-3.21-1.94-3,0Z" transform="translate(-94.62 -153.34)"/><path class="cls-13" d="M2069.81,1022.6c-29.26-18.73-67.87-16.91-92.35-42.16-9-9.26-17-24-18.65-43-.11-1-.18-2-.25-3-2.69-44.22,26.16-102,88.9-104.7l10.7,52.89c10.27,20.13-20.24,42.06-10.56,53.72,19.28,23.23,12.33,35.45,16.29,48.43a23.89,23.89,0,0,0,1.1,3c1.59,3.6,10,8.54,14.53,12.43C2084.26,1004.2,2074.44,1025.57,2069.81,1022.6Z" transform="translate(-94.62 -153.34)"/><path class="cls-15" d="M2089.81,829.7l-33.9,19.78c-8.56,8.76,6.86,31.82,17.13,22.56l14.7-10.4Z" transform="translate(-94.62 -153.34)"/><path class="cls-14" d="M1990.35,859.89l14-.49c2-.06,2-3.1,0-3l-14,.48c-1.94.07-1.95,3.11,0,3Z" transform="translate(-94.62 -153.34)"/><path class="cls-14" d="M2012.1,903.42l14-.49c1.94-.06,2-3.1,0-3l-14,.48c-1.95.07-2,3.1,0,3Z" transform="translate(-94.62 -153.34)"/><path class="cls-14" d="M2016.4,933.24l-10.15,17.21c-1,1.67,1.46,3.46,2.46,1.78L2018.86,935c1-1.67-1.47-3.46-2.46-1.78Z" transform="translate(-94.62 -153.34)"/><path class="cls-11" d="M2117.59,867.55a55.24,55.24,0,0,1-6.26,4,31,31,0,0,1-9.51,2.9c-8.83,1.16-22.45.91-26.88-6.53-7.81-13.13-2.51-38.87,18.09-47.68,18-7.69,52-8,45,2.8-11,16.8.08,22.44-6.27,33.61-1.33,2.33-3.23,4.87-9.1,8.07C2120.73,865.71,2119.07,866.57,2117.59,867.55Z" transform="translate(-94.62 -153.34)"/><path class="cls-15" d="M2092.58,845.53a8.62,8.62,0,1,1,2.83-11.86A8.61,8.61,0,0,1,2092.58,845.53Z" transform="translate(-94.62 -153.34)"/><path class="cls-15" d="M2111.33,871.51a32.51,32.51,0,0,1-9.51,2.9,8.62,8.62,0,0,1,15.47-7.4q.16.27.3.54A55.24,55.24,0,0,1,2111.33,871.51Z" transform="translate(-94.62 -153.34)"/><path class="cls-16" d="M2105.07,845.25s-6.7-.19-6.26-12.65c.06-1.56,1,4.9,2.54,8.21S2106.6,845.46,2105.07,845.25Z" transform="translate(-94.62 -153.34)"/><path class="cls-16" d="M2119.94,864.12c-1.66-.06-10.56-3.83-7.4-8.86.83-1.32-.55,2.71,2.23,5.09S2121,864.15,2119.94,864.12Z" transform="translate(-94.62 -153.34)"/><path class="cls-15" d="M2095.38,856.26c1,2,3.21,4.79,5.83,4,1.16-.36,1.73-1.37,2.34-2.34,1.56-2.46,3-4.7,5.69-6.11.35-.18.13-.77-.22-.58a14.76,14.76,0,0,0-5.63,5.78c-.89,1.42-1.56,2.88-3.56,2.61-1.8-.24-3.1-2.06-3.87-3.58-.18-.36-.76-.13-.58.23Z" transform="translate(-94.62 -153.34)"/><path class="cls-12" d="M2151.67,814.28s-15.34-47.51-63.06-27.65c-18.24,7.6-55.13-16.89-57.65,28-1.52,27.06-39.23-5.23-33.62,49.49,3.47,33.74,49.15,68.84,63.47,54.93,25-24.32-13.55-50.4,20.22-77,5-3.37,7.81-8,10.47-12.1.56-.83,1.13-1.67,1.7-2.53h0c2-2.77,4.15-5,7.31-5.92,9.41-2.75,10,15.75,24,18.91C2144.25,844.88,2151.67,814.28,2151.67,814.28Z" transform="translate(-94.62 -153.34)"/><path class="cls-15" d="M2091.45,869c-1.2-.36,1.74-6.73-6-10.35C2084.64,856.75,2094.42,860.2,2091.45,869Z" transform="translate(-94.62 -153.34)"/><path class="cls-14" d="M2010.38,975.08A92.83,92.83,0,0,0,2021,987.33c1.4,1.36,3.55-.78,2.15-2.15A86.74,86.74,0,0,1,2013,973.55c-1.13-1.57-3.76-.06-2.62,1.53Z" transform="translate(-94.62 -153.34)"/><path class="cls-14" d="M1962.53,977.15c-.86-.84-1.7-1.68-2.5-2.54,0-1.39.08-2.84.16-4.29,1.41,1.62,2.93,3.17,4.49,4.69C1966.06,976.38,1963.92,978.52,1962.53,977.15Z" transform="translate(-94.62 -153.34)"/><path class="cls-14" d="M2037.05,942.49v15.18a1.52,1.52,0,0,0,3,0V942.49a1.51,1.51,0,1,0-3,0Z" transform="translate(-94.62 -153.34)"/><path class="cls-14" d="M1990.21,958.9l-11.69-3.31c-1.87-.53-2.87,2.34-1,2.87l11.69,3.31c1.87.53,2.87-2.34,1-2.87Z" transform="translate(-94.62 -153.34)"/><path class="cls-14" d="M1975.07,912.44a96.45,96.45,0,0,1,11.81-11c1.53-1.21-.63-3.34-2.15-2.15a98,98,0,0,0-11.81,11c-1.31,1.44.83,3.59,2.15,2.15Z" transform="translate(-94.62 -153.34)"/><path class="cls-14" d="M2065,987.74a98.2,98.2,0,0,0-8.13,7.94c-1.33,1.43-3.46-.7-2.16-2.14a91,91,0,0,1,9.19-8.81A23.89,23.89,0,0,0,2065,987.74Z" transform="translate(-94.62 -153.34)"/><path class="cls-14" d="M1964.05,937.22l-5.24.18c-.11-1-.18-2-.25-3,1.85-.09,3.67-.14,5.49-.21C1966,934.12,1966,937.15,1964.05,937.22Z" transform="translate(-94.62 -153.34)"/><path class="cls-11" d="M2203.79,712.26c-1.58-44.51,35.68-80.79,102.54-83.94,56.59-2.66,104.28,43.07,103.69,87.6-.55,41-32.84,75.62-89.5,75.85a267.77,267.77,0,0,1-52.78-5.13c-12-2.45-73.32,34-77.19,31-4.51-3.47,43.57-52.19,39.39-55.29C2216.81,752.62,2204.7,737.7,2203.79,712.26Z" transform="translate(-94.62 -153.34)"/><path class="cls-14" d="M2307,762.38c-23.57,0-42.74-18.38-42.74-41s19.17-41,42.74-41,42.73,18.38,42.73,41S2330.59,762.38,2307,762.38Zm0-79.2c-22,0-39.86,17.15-39.86,38.23s17.88,38.22,39.86,38.22,39.86-17.14,39.86-38.22S2329,683.18,2307,683.18Z" transform="translate(-94.62 -153.34)"/><path class="cls-14" d="M2304.15,740.45c-23.56,0-42.73-18.38-42.73-41s19.17-41,42.73-41,42.74,18.38,42.74,41S2327.72,740.45,2304.15,740.45Zm0-79.2c-22,0-39.86,17.15-39.86,38.23s17.89,38.22,39.86,38.22S2344,720.55,2344,699.48,2326.13,661.25,2304.15,661.25Z" transform="translate(-94.62 -153.34)"/><path class="cls-14" d="M2321.39,759.63c-23.56,0-42.73-18.37-42.73-41s19.17-41,42.73-41,42.73,18.38,42.73,41S2345,759.63,2321.39,759.63Zm0-79.19c-22,0-39.86,17.15-39.86,38.23s17.88,38.22,39.86,38.22,39.86-17.15,39.86-38.22S2343.37,680.44,2321.39,680.44Z" transform="translate(-94.62 -153.34)"/><path class="cls-14" d="M2318.52,745.93c-23.56,0-42.73-18.38-42.73-41s19.17-41,42.73-41,42.73,18.38,42.73,41S2342.08,745.93,2318.52,745.93Zm0-79.2c-22,0-39.86,17.15-39.86,38.23s17.88,38.23,39.86,38.23S2358.38,726,2358.38,705,2340.5,666.73,2318.52,666.73Z" transform="translate(-94.62 -153.34)"/><path class="cls-14" d="M2289.79,745.93c-23.56,0-42.73-18.38-42.73-41s19.17-41,42.73-41,42.73,18.38,42.73,41S2313.35,745.93,2289.79,745.93Zm0-79.2c-22,0-39.86,17.15-39.86,38.23s17.88,38.23,39.86,38.23S2329.65,726,2329.65,705,2311.77,666.73,2289.79,666.73Z" transform="translate(-94.62 -153.34)"/><path class="cls-14" d="M2312.77,748.67c-23.56,0-42.73-18.38-42.73-41s19.17-41,42.73-41,42.74,18.38,42.74,41S2336.34,748.67,2312.77,748.67Zm0-79.2c-22,0-39.86,17.15-39.86,38.23s17.88,38.23,39.86,38.23,39.86-17.15,39.86-38.23S2334.75,669.47,2312.77,669.47Z" transform="translate(-94.62 -153.34)"/><path class="cls-14" d="M2289.79,762.38c-23.56,0-42.73-18.38-42.73-41s19.17-41,42.73-41,42.73,18.38,42.73,41S2313.35,762.38,2289.79,762.38Zm0-79.2c-22,0-39.86,17.15-39.86,38.23s17.88,38.22,39.86,38.22,39.86-17.14,39.86-38.22S2311.77,683.18,2289.79,683.18Z" transform="translate(-94.62 -153.34)"/><path class="cls-14" d="M2304.15,733.85c-13.46,0-24.41-10.5-24.41-23.41s11-23.41,24.41-23.41,24.42,10.5,24.42,23.41S2317.62,733.85,2304.15,733.85Zm0-44.07c-11.88,0-21.54,9.27-21.54,20.66s9.66,20.67,21.54,20.67,21.55-9.27,21.55-20.67S2316,689.78,2304.15,689.78Z" transform="translate(-94.62 -153.34)"/><path class="cls-14" d="M2321.39,722.89c-13.46,0-24.42-10.51-24.42-23.41s11-23.41,24.42-23.41,24.42,10.5,24.42,23.41S2334.86,722.89,2321.39,722.89Zm0-44.08c-11.88,0-21.54,9.27-21.54,20.67s9.66,20.66,21.54,20.66,21.55-9.27,21.55-20.66S2333.27,678.81,2321.39,678.81Z" transform="translate(-94.62 -153.34)"/><path class="cls-14" d="M2298.41,722.89c-13.47,0-24.42-10.51-24.42-23.41s11-23.41,24.42-23.41,24.42,10.5,24.42,23.41S2311.87,722.89,2298.41,722.89Zm0-44.08c-11.88,0-21.55,9.27-21.55,20.67s9.67,20.66,21.55,20.66,21.55-9.27,21.55-20.66S2310.29,678.81,2298.41,678.81Z" transform="translate(-94.62 -153.34)"/><path class="cls-14" d="M2289.79,722.89c-13.46,0-24.42-10.51-24.42-23.41s11-23.41,24.42-23.41,24.42,10.5,24.42,23.41S2303.26,722.89,2289.79,722.89Zm0-44.08c-11.88,0-21.54,9.27-21.54,20.67s9.66,20.66,21.54,20.66,21.55-9.27,21.55-20.66S2301.67,678.81,2289.79,678.81Z" transform="translate(-94.62 -153.34)"/><path class="cls-14" d="M2298.41,731.11c-13.47,0-24.42-10.5-24.42-23.41s11-23.41,24.42-23.41,24.42,10.5,24.42,23.41S2311.87,731.11,2298.41,731.11Zm0-44.08c-11.88,0-21.55,9.27-21.55,20.67s9.67,20.67,21.55,20.67S2320,719.1,2320,707.7,2310.29,687,2298.41,687Z" transform="translate(-94.62 -153.34)"/><path class="cls-14" d="M2304.15,739.33c-13.46,0-24.41-10.5-24.41-23.41s11-23.4,24.41-23.4,24.42,10.5,24.42,23.4S2317.62,739.33,2304.15,739.33Zm0-44.07c-11.88,0-21.54,9.27-21.54,20.66s9.66,20.67,21.54,20.67,21.55-9.27,21.55-20.67S2316,695.26,2304.15,695.26Z" transform="translate(-94.62 -153.34)"/><path class="cls-14" d="M2312.77,744.82c-13.46,0-24.42-10.51-24.42-23.41s11-23.41,24.42-23.41,24.42,10.5,24.42,23.41S2326.24,744.82,2312.77,744.82Zm0-44.08c-11.88,0-21.54,9.27-21.54,20.67s9.66,20.66,21.54,20.66,21.55-9.27,21.55-20.66S2324.65,700.74,2312.77,700.74Z" transform="translate(-94.62 -153.34)"/><polygon class="cls-17" points="1915.1 556.69 1933.43 560.03 1918.87 588.9 1938.62 592.5 1898.3 642.35 1910.15 600.69 1895.66 598.05 1915.1 556.69"/><polygon class="cls-17" points="2074.95 665.28 2096.61 669.23 2079.4 703.37 2102.76 707.63 2055.07 766.59 2069.08 717.31 2051.95 714.19 2074.95 665.28"/><path class="cls-18" d="M1489.33,479.56c-2.94,2.75-6.5,8.22-12.24,13.75-11.61,11.17-33.35,14.64-55.83,21.73-2.92.92-8.54,2.22-11.63,2.9-10,2.24-20.88,5.7-32.25,4.5-44.14-4.67-68.67-15.8-84.18-31.72a55.29,55.29,0,0,1-8.6-11c-15.38-26.91-12.2-21.1-9.67-27.91.48-1.29,16.3-11.89,18.39-12.82,7-3.09,15.37-10.77,38.07-11.19,15.42-.3,84.35,0,84.35,0,32.48.39,45.75,6.7,58.73,11.75,3.84,1.49,15.72,2.35,18.5,4.56C1507.65,455.87,1502.9,466.87,1489.33,479.56Z" transform="translate(-94.62 -153.34)"/><path class="cls-19" d="M1482.56,430s0,14.67,0,15.09a15.15,15.15,0,0,1-15.09,13.86h-2.28a15.14,15.14,0,0,1-14.63-11.33,15.15,15.15,0,0,1-14.58,11.09h-2.28a15.14,15.14,0,0,1-15-12.89,15.12,15.12,0,0,1-14.49,10.76h-2.28a15.11,15.11,0,0,1-14.61-11.21,15.13,15.13,0,0,1-14.62,11.21h-2.28a15.1,15.1,0,0,1-14.32-10.28,15.13,15.13,0,0,1-14.89,12.41h-2.28a15.11,15.11,0,0,1-14.17-9.87,15.14,15.14,0,0,1-14.27,10.11h-2.29a15.13,15.13,0,0,1-15.13-15V430a14.65,14.65,0,0,1,.11-1.89,130.6,130.6,0,0,1,27.85-9,15.65,15.65,0,0,1,3.64,5.58,15.17,15.17,0,0,1,5.54-7.33c4.83-.81,10-1.5,15.48-2.09a15.13,15.13,0,0,1,9.86,9.58,15.08,15.08,0,0,1,8.34-10.9c4.62-.22,9.47-.35,14.5-.37a15.09,15.09,0,0,1,8.93,10.1,15.06,15.06,0,0,1,8.39-9.88c5.67.16,11.09.44,16.26.79a15.22,15.22,0,0,1,7.2,10.76,15.13,15.13,0,0,1,8.19-9.38q10.22,1.13,18.93,2.71a15.2,15.2,0,0,1,4.28,7.22,15.1,15.1,0,0,1,3.09-5.78,148.43,148.43,0,0,1,28.9,9C1482.56,429.38,1482.56,429.67,1482.56,430Z" transform="translate(-94.62 -153.34)"/><path class="cls-20" d="M1319.64,497.09s14.29-51.19,67.54-51.5c53.56-.32,65,56,65,56l-64.27,19.28-45-11.37Z" transform="translate(-94.62 -153.34)"/><path class="cls-21" d="M1323.8,495.35s12-.73,18.59-5.1,10.57-32.8,43-33.89,35.71,28.42,45.19,33.16a74.18,74.18,0,0,0,16.76,6.2l-28.42,15.67-41.18,4.73-43-3.28Z" transform="translate(-94.62 -153.34)"/><path class="cls-19" d="M1448,495.43v13.8a15.07,15.07,0,0,1-.83,4.92,133.43,133.43,0,0,1-24,8.29,15.7,15.7,0,0,1-4.94-4.45,14.91,14.91,0,0,1-5,6.52,147.32,147.32,0,0,1-17,1.91,15.07,15.07,0,0,1-9-10.12,15.15,15.15,0,0,1-9,10.14,148.61,148.61,0,0,1-16.8-1.84,15.15,15.15,0,0,1-6.16-10.76,15.23,15.23,0,0,1-6.26,8.16,130.16,130.16,0,0,1-25.2-9.37,15.08,15.08,0,0,1-.38-3.4v-13.8a15.16,15.16,0,0,1,15.15-15.15h2.27a15.09,15.09,0,0,1,14.29,10.17A14.31,14.31,0,0,1,1356,494a14.9,14.9,0,0,1,1.41-3.12,15.11,15.11,0,0,1,13-7.4h2.28a15.07,15.07,0,0,1,14.17,9.86c.17.44.32.9.45,1.35a13.28,13.28,0,0,1,.44-1.35,15.07,15.07,0,0,1,14.17-9.86h2.28a15.14,15.14,0,0,1,12.34,6.37,15.12,15.12,0,0,1,14-9.53h2.28A15.16,15.16,0,0,1,1448,495.43Z" transform="translate(-94.62 -153.34)"/><path class="cls-22" d="M1506,450.39c-1.2-6.84-8.45-14.64-23.43-21.3a148.43,148.43,0,0,0-28.9-9q-3.56-.78-7.37-1.44-8.73-1.59-18.93-2.71c-4.86-.56-10-1-15.39-1.38-5.17-.35-10.59-.63-16.26-.79q-4-.13-8.1-.18c-3.14-.06-6.21-.06-9.22,0-5,0-9.88.15-14.5.37q-9.68.44-18.2,1.32c-5.51.59-10.65,1.28-15.48,2.09-3.21.53-6.26,1.12-9.18,1.75a130.6,130.6,0,0,0-27.85,9c-13.06,6.11-19.74,13.18-21.25,19.17-3.29,12.94,13.5,46.25,52,65.38a130.16,130.16,0,0,0,25.2,9.37c4,1,8.12,1.9,12.42,2.6a148.61,148.61,0,0,0,16.8,1.84c2.57.15,5.19.22,7.85.24,3.45,0,6.81-.06,10.12-.26a147.32,147.32,0,0,0,17-1.91c3.42-.57,6.72-1.27,9.93-2.07a133.43,133.43,0,0,0,24-8.29C1488.46,495.35,1507.81,460.92,1506,450.39Zm-61.87,34.9a215.45,215.45,0,0,1-56.36,8h-.89a176.87,176.87,0,0,1-29.45-2.46l-2.2-.39a192.62,192.62,0,0,1-26.24-6.67c-30.68-10.11-51.58-25.59-50.33-32.5.5-2.69,5.57-5.19,14.42-7.32,17.88-4.28,51.19-7,93.2-6.57,43.59.44,77.37,3.21,96.25,7.67,10.12,2.37,15.94,5.23,16.73,8.47C1500.72,459.64,1478.68,475.54,1444.11,485.29Z" transform="translate(-94.62 -153.34)"/><path class="cls-18" d="M1126.63,513.15c-48.29,8-58-26.95-61.26-52.9-1.85-14.44-1.14-45.5,7.49-63.67,6.86-14.53,9.88-27,17.89-32.15,9.66-6.21,30.92-2.37,55.75,2.06,13.72,2.44,14.09,14.38,19.58,29.67,4.48,12.4,4.78,28.36,7.49,43.28C1179.64,472.8,1151.76,509,1126.63,513.15Z" transform="translate(-94.62 -153.34)"/><path class="cls-23" d="M1082.67,437.86c-1.51,20.69,12.2,33.41,37.56,32.19s34.38-7.62,32.92-26.83-8.05-26.09-17.31-27.8c-6.72-1.23-12.93,1.22-12.68,8.78.13,4.15,10.24,16.83-6.59,16.83-12.79,0-1.46-14.88-3.66-21.22-2.25-6.52-9.75-7.56-17.55-2.44S1083.41,427.86,1082.67,437.86Z" transform="translate(-94.62 -153.34)"/><path class="cls-20" d="M1174.76,480.45c-.77,2.84-7.76,20.48-11.91,23.07s-30.35,12.2-30.35,12.2-3-.15-7.22-.42c-10.67-.62-29.57-1.92-31.44-3.23a10.82,10.82,0,0,1-1.28-1.29c-5.15-5.75-21.27-27.49-21.27-27.49-.46-5.73,4.63-11.18,11.06-15a39.21,39.21,0,0,1,13.57-5c7.09-1,12.67.12,17.55.85a30.83,30.83,0,0,0,6.85.46c.87-.07,1.86-.19,3-.36,7.12-1,18.8-3.21,30.48-1.2a27.34,27.34,0,0,1,6.62,2.05C1169.88,469.39,1175.4,478.08,1174.76,480.45Z" transform="translate(-94.62 -153.34)"/><path class="cls-19" d="M1154.74,364.41v8.35a17.48,17.48,0,0,1-17.49,17.49h-2.63a17.62,17.62,0,0,1-16.88-12.95,17.57,17.57,0,0,1-16.88,12.95h-2.62a17.44,17.44,0,0,1-17.48-17.49v-7.44a22.18,22.18,0,0,1,4.92-5.79c10.73-7.86,20.82-6.4,32-6.7,5.47-.13,16.75-4.37,30.17,4.07A24.88,24.88,0,0,1,1154.74,364.41Z" transform="translate(-94.62 -153.34)"/><path class="cls-21" d="M1174.76,480.45c-.77,2.84-7.76,20.48-11.91,23.07s-30.35,12.2-30.35,12.2-3-.15-7.22-.42a46.62,46.62,0,0,0-7.83-1.66c-2.84-.14-14.31-1.34-24.89-2.86-5.15-5.75-21.27-27.49-21.27-27.49-.46-5.73,4.63-11.18,11.06-15-1.56,10.31,8.59,27.64,40,27.41,32.14-.25,37.27-25.21,38-30.63C1169.88,469.39,1175.4,478.08,1174.76,480.45Z" transform="translate(-94.62 -153.34)"/><path class="cls-22" d="M1178.55,449.58c-.13-3.84,0-7.66-.34-10.5-3-22.3-12.62-58.2-23.47-74.67a24.88,24.88,0,0,0-6.87-7.51c-13.42-8.44-24.7-4.2-30.17-4.07-11.2.3-21.29-1.16-32,6.7a22.18,22.18,0,0,0-4.92,5.79c-10.17,15.9-22.15,56.12-21.71,84.47,0,2,.09,4,.13,6.17,1.19,33.58,5.15,80.31,60.89,82.43C1173.08,540.39,1179.63,481.87,1178.55,449.58Zm-30.36,48.23c-21,15.42-45.61,8.72-57.06,1.13s-23-22.71-24.1-46.75c-1.21-27.76,11-51.84,23.72-63.61a1.06,1.06,0,0,1,.15-.15c6.23-5.75,17.07-5.22,23.45-4.58l2.86.3a25.69,25.69,0,0,0,4.11-.09c6.34-.46,16.37-1.67,24.73,3.82.44.3.89.59,1.31.93,10.73,8.12,22.77,44.06,23.3,55.47C1172,472.41,1158.51,490.24,1148.19,497.81Z" transform="translate(-94.62 -153.34)"/><path class="cls-21" d="M1119.53,480.18c-11.18.23-4.9-10.6-6.06-16a30.83,30.83,0,0,0,6.85.46c.87-.07,1.86-.19,3-.36C1125.36,468.66,1129.76,480,1119.53,480.18Z" transform="translate(-94.62 -153.34)"/><g id="Exclamation_mark_icon" data-name="Exclamation mark icon"><g id="Shape"><path class="cls-24" d="M1643.22,590.42a36.78,36.78,0,0,1,63.69,0l179,310a36.78,36.78,0,0,1-31.85,55.16h-358a36.78,36.78,0,0,1-31.85-55.16Z" transform="translate(-94.62 -153.34)"/><path class="cls-25" d="M1496.06,937.23a18.41,18.41,0,0,1-15.92-27.58l179-310a18.4,18.4,0,0,1,31.84,0l179,310a18.41,18.41,0,0,1-15.92,27.58Z" transform="translate(-94.62 -153.34)"/><path class="cls-24" d="M1496.06,922.52a3.62,3.62,0,0,1-3.18-1.85,3.57,3.57,0,0,1,0-3.67l179-310a3.69,3.69,0,0,1,6.37,0l179,310a3.68,3.68,0,0,1-3.18,5.51Z" transform="translate(-94.62 -153.34)"/></g><path id="Exclamation_mark" data-name="Exclamation mark" class="cls-25" d="M1693.45,878.4c0,10.15-6.19,18.38-18.39,18.38s-18.38-8.23-18.38-18.38,6.18-18.39,18.38-18.39S1693.45,868.24,1693.45,878.4Zm-18.39-198.57c-18.15,0-27.43,13.33-25.49,29.65h0l14.58,122.79h0c.63,5.29,4.27,9.36,10.9,9.36s10.27-4.07,10.9-9.36h0l14.58-122.79h0C1702.48,693.21,1693.27,679.83,1675.06,679.83Z" transform="translate(-94.62 -153.34)"/></g><path class="cls-26" d="M994.16,651.73c0,14.18-81.29,25.67-181.56,25.67S631,665.91,631,651.73s81.29-25.67,181.57-25.67S994.16,637.55,994.16,651.73Z" transform="translate(-94.62 -153.34)"/><rect class="cls-27" x="601.46" y="120.88" width="229.62" height="354.87" rx="10.44"/><path class="cls-4" d="M909.56,599.32a9.1,9.1,0,0,1-9,9.23H721.18a9.11,9.11,0,0,1-9-9.23V304a9.11,9.11,0,0,1,9-9.23H900.59a9.1,9.1,0,0,1,9,9.23Z" transform="translate(-94.62 -153.34)"/><path class="cls-27" d="M930.44,355.58a5.94,5.94,0,0,1-5.93,5.93h0a5.93,5.93,0,0,1-5.93-5.93V320.94a5.93,5.93,0,0,1,5.93-5.93h0a5.94,5.94,0,0,1,5.93,5.93Z" transform="translate(-94.62 -153.34)"/><path class="cls-27" d="M930.44,397.77a4.65,4.65,0,0,1-4.74,4.54h0a4.64,4.64,0,0,1-4.73-4.54V371.26a4.64,4.64,0,0,1,4.73-4.53h0a4.64,4.64,0,0,1,4.74,4.53Z" transform="translate(-94.62 -153.34)"/><rect class="cls-28" x="657.86" y="338.16" width="21.88" height="85.32"/><rect class="cls-27" x="692.44" y="317.97" width="21.88" height="105.51"/><rect class="cls-29" x="727.89" y="361.45" width="21.88" height="62.08"/><rect class="cls-30" x="762.29" y="334.6" width="21.89" height="88.93"/><polygon class="cls-27" points="740.21 352.97 703.16 286.36 670.3 331.3 667.31 329.11 703.59 279.51 741.03 346.82 771.9 315.16 774.55 317.74 740.21 352.97"/><path class="cls-31" d="M772,481.33a6.61,6.61,0,1,1-6.61-6.6A6.62,6.62,0,0,1,772,481.33Z" transform="translate(-94.62 -153.34)"/><path class="cls-31" d="M805.42,436.27a6.61,6.61,0,1,1-6.61-6.6A6.61,6.61,0,0,1,805.42,436.27Z" transform="translate(-94.62 -153.34)"/><path class="cls-31" d="M841.75,503.23a6.61,6.61,0,1,1-6.6-6.6A6.6,6.6,0,0,1,841.75,503.23Z" transform="translate(-94.62 -153.34)"/><path class="cls-31" d="M874.45,469.75a6.61,6.61,0,1,1-6.6-6.6A6.61,6.61,0,0,1,874.45,469.75Z" transform="translate(-94.62 -153.34)"/><path class="cls-27" d="M815.63,320.07h-.29v50.81h50c0-.36,0-.71,0-1.06A49.76,49.76,0,0,0,815.63,320.07Z" transform="translate(-94.62 -153.34)"/><path class="cls-28" d="M815.7,370.65V320.08h-.07A49.85,49.85,0,0,0,765.88,370c0,.22,0,.44,0,.65Z" transform="translate(-94.62 -153.34)"/><path class="cls-29" d="M765.89,370.65a49.75,49.75,0,0,0,99.49,0Z" transform="translate(-94.62 -153.34)"/><path class="cls-32" d="M898.08,422.72s-.68,6.42-6.16,6.42c-5.06,0-6-6.42-6-6.42v-6.54h12.12Z" transform="translate(-94.62 -153.34)"/><path class="cls-30" d="M913.28,497.65l4.86-65c.16-4.8-1.86-7.35-4.54-8.43-4.38-1.78-15.5-1.64-15.5-1.64L891.86,429l-6-6.37s-10.51-.64-15.71,1.53c-2.66,1.11-5.55,3.21-5.23,8.76,0,0,4,47.65,4.8,64.84Z" transform="translate(-94.62 -153.34)"/><polygon class="cls-31" points="787.61 495.34 798.17 374.41 805.12 495.34 815.89 495.42 818.67 344.31 775.14 344.37 776.99 495.42 787.61 495.34"/><path class="cls-33" d="M902,415.85c-.37,1-7.31,6.44-10.36,6.4s-9.48-6.13-9.87-7.24c-1.06-3-2.58-14.94-1.61-19.62,1.46-7.07,5.79-10.78,12.39-10.68,6.12.09,10.25,3,11.72,9.63C905.52,399.92,903.52,411.88,902,415.85Z" transform="translate(-94.62 -153.34)"/><path class="cls-27" d="M871.63,648.65S854,656.91,856,660.87c1.87,3.76,25.93-5.76,25.93-5.76l.31-6.51Z" transform="translate(-94.62 -153.34)"/><path class="cls-27" d="M910.32,648.57s17.6,8.26,15.64,12.22C924.09,664.55,900,655,900,655l-.31-6.51Z" transform="translate(-94.62 -153.34)"/><path class="cls-27" d="M878.65,402.16l2.46,1.45s1.06-8.22,3-7.72c13.68,3.49,12.38-3.29,17.61-.33.8.45,2.1,3.56,1.63,8.36l2.35-1s1.48-17.6-11.7-18.72C894,384.19,878.52,382.32,878.65,402.16Z" transform="translate(-94.62 -153.34)"/><path class="cls-33" d="M915.79,508.42c-.72.9-2.83,3.61-2.83,3.61-1.49,1.71-3.47,1.29-4.86.24-.65-.49-1.85-2.11-1.33-3.56.86-2.37,3.63-5,3.62-5a18.07,18.07,0,0,1-3.47.9,1.1,1.1,0,0,1-1-.76,1.05,1.05,0,0,1,.7-1.29l2.66-.8c.2-.11,5.85-1.9,6.43-3.88l3.75,2.81s-.37-.17-1.31,2.72A21.18,21.18,0,0,1,915.79,508.42Z" transform="translate(-94.62 -153.34)"/><path class="cls-33" d="M922.57,474.28l-8.51,25.37,4.43,2.63s10-16.33,15.56-28Z" transform="translate(-94.62 -153.34)"/><path class="cls-34" d="M926.11,463.7,920.43,480l9.21,3.84c3-6.16,8.09-16.08,8.24-18.74.27-4.64-8.81-23.51-12.83-29.39-8.16-11.92-13.75-12-13.75-12A37.76,37.76,0,0,1,917.72,441c.49,6,8.42,22.74,8.42,22.74Z" transform="translate(-94.62 -153.34)"/><path class="cls-35" d="M930.27,482.15a1.25,1.25,0,0,1,.63,1.66l-.4.93a1.25,1.25,0,0,1-1.63.71l-9-3.81a1.26,1.26,0,0,1-.62-1.66l.39-.94a1.26,1.26,0,0,1,1.63-.7Z" transform="translate(-94.62 -153.34)"/><path class="cls-31" d="M903.48,504.17l9.45,8.11s-8.62,10.53-11.91,7.25C901,519.53,892.86,510.3,903.48,504.17Z" transform="translate(-94.62 -153.34)"/><path class="cls-33" d="M867.58,508.21c.72.9,2.83,3.61,2.83,3.61,1.5,1.72,3.48,1.29,4.86.24.65-.48,1.86-2.11,1.33-3.55-.86-2.38-3.63-5-3.62-5a17.9,17.9,0,0,0,3.47.91,1.12,1.12,0,0,0,1-.76,1.07,1.07,0,0,0-.7-1.3l-2.66-.8c-.21-.1-5.85-1.89-6.44-3.87l-3.73,2.81s.36-.18,1.3,2.71A21.18,21.18,0,0,0,867.58,508.21Z" transform="translate(-94.62 -153.34)"/><path class="cls-33" d="M848,471.08c5,11.62,16.92,31,16.92,31l4.43-2.63-9.51-28.36Z" transform="translate(-94.62 -153.34)"/><path class="cls-34" d="M857.26,463.49l5.68,16.26-9.21,3.84c-3-6.17-8.09-16.09-8.24-18.75-.27-4.63,8.81-23.51,12.83-29.38,8.16-11.93,13.75-12,13.75-12a30,30,0,0,0-6.43,17.36c-.16,6.05-8.41,22.71-8.41,22.71Z" transform="translate(-94.62 -153.34)"/><path class="cls-35" d="M853.09,482a1.27,1.27,0,0,0-.62,1.66l.4.93a1.26,1.26,0,0,0,1.63.7l9-3.81a1.25,1.25,0,0,0,.62-1.66l-.4-.93a1.24,1.24,0,0,0-1.62-.7Z" transform="translate(-94.62 -153.34)"/><path class="cls-31" d="M879.89,504l-9.45,8.11s8.62,10.54,11.91,7.26C882.35,519.33,890.51,510.09,879.89,504Z" transform="translate(-94.62 -153.34)"/><path class="cls-27" d="M903.05,407s-1.44,6.63-3.45,7.33c-1.58.55-4.35-2-7.86-2-4.15,0-5.49,2.48-8,1.32-1.59-.73-2.48-6.34-2.48-6.34l-2.14.75a36.19,36.19,0,0,0,2.4,7.58c1.38,2.72,5.66,7.26,10,7.34,0,0,7.89-.62,11-7.55a49.75,49.75,0,0,0,2.4-7.64Z" transform="translate(-94.62 -153.34)"/><path class="cls-33" d="M881.59,405.27a3.09,3.09,0,0,1-2.3,3.38c-1.14.1-1.69-1.23-1.84-3s.31-3.35,1.45-3.44S881.44,403.46,881.59,405.27Z" transform="translate(-94.62 -153.34)"/><path class="cls-33" d="M902.52,405.59a3.08,3.08,0,0,0,2.19,3.45c1.14.13,1.72-1.18,1.93-3s-.21-3.36-1.35-3.49S902.72,403.78,902.52,405.59Z" transform="translate(-94.62 -153.34)"/><path class="cls-33" d="M888,415.77s3.63-2.66,7.32-.12a4,4,0,0,1-3.63,2.54S888.61,418,888,415.77Z" transform="translate(-94.62 -153.34)"/><path class="cls-32" d="M747,430s-1.54,6.27-7,5.52c-5-.68-5-7.17-5-7.17l.89-6.49,12,1.65Z" transform="translate(-94.62 -153.34)"/><path class="cls-33" d="M823.94,456.78l3.78-2.61c1.8-1.4,1.49-3.4.52-4.84-.45-.68-2-2-3.47-1.54-2.42.72-5.19,3.34-5.21,3.32a18.28,18.28,0,0,0,1.11-3.4,1.12,1.12,0,0,0-.7-1,1.07,1.07,0,0,0-1.34.62l-1,2.61c-.11.2-2.24,5.73-4.25,6.2L816,460s-.15-.38,2.79-1.15A21,21,0,0,0,823.94,456.78Z" transform="translate(-94.62 -153.34)"/><path class="cls-33" d="M790.85,475.29a275.4,275.4,0,0,0,27.53-16.44l-2.66-4.91L790,465.28Z" transform="translate(-94.62 -153.34)"/><path class="cls-34" d="M794.05,462.77l-15.72,7s-2.57-18.56-14.8-34.67c-3.83-5.05-8.28-4.42-8.28-4.42s6.3,8.64,5.66,24.74c-.39,9.77,6.63,24.72,10.68,27,2.89,1.63,17.27-5.36,27.16-10.6Z" transform="translate(-94.62 -153.34)"/><path class="cls-30" d="M749.91,501.62l14.18-60.41c.81-4.74-.85-7.54-3.35-9-4.11-2.36-13.71-2.35-13.71-2.35l-7,5.46-5-7.12s-8.31-3.39-13.76-2c-2.79.73-5.94,2.42-6.37,8,0,0-4.92,44.6-6.45,61.74Z" transform="translate(-94.62 -153.34)"/><path class="cls-31" d="M721,653.64l7.66-120.08,17.63,120.08h11.36L749.86,500.1l-41.62-4.8s-3.37,14.95-3.52,19.69c-1,31.12,4.81,123.11,5.81,138.65Z" transform="translate(-94.62 -153.34)"/><path class="cls-33" d="M753.3,421c-.37,1-7.38,5.09-10.44,5.05s-9.05-4.12-9.44-5.23c-1.07-3-2.63-14.93-1.68-19.61,1.44-7.08,5.74-10.81,12.35-10.73,6.12.07,10.26,2.95,11.75,9.59C757.1,405.6,754.8,417,753.3,421Z" transform="translate(-94.62 -153.34)"/><path class="cls-27" d="M756,400.92s-9.53-2-16.46,2.68c0,0-3.82,7.27-6.16,6.64a24.23,24.23,0,0,0,1.08,11.93,6.93,6.93,0,0,1-4.1-3.59c-1.31-2.47-2.34-7.65-1.65-13.44,1.55-12.92,8.27-15.24,14.51-15.64C743.25,389.5,754.35,388.76,756,400.92Z" transform="translate(-94.62 -153.34)"/><path class="cls-33" d="M735.9,409.76a3.09,3.09,0,0,1-2.29,3.39c-1.13.1-1.68-1.23-1.84-3s.3-3.35,1.44-3.45S735.75,408,735.9,409.76Z" transform="translate(-94.62 -153.34)"/><path class="cls-27" d="M756.83,653.32s20.89.56,18.33,6.4l-28.63,0-.31-6.51Z" transform="translate(-94.62 -153.34)"/><path class="cls-27" d="M721.05,653.32s4.8,3.57,2.88,7.79c-1.18,2.58-13.5.59-13.5.59s-4-1.74.16-8.54Z" transform="translate(-94.62 -153.34)"/><path class="cls-33" d="M705.48,509.07c.57,1,2.25,4,2.25,4,1.23,1.92,3.25,1.79,4.78,1,.71-.39,2.14-1.81,1.84-3.32-.5-2.47-2.85-5.47-2.83-5.49a18.3,18.3,0,0,0,3.29,1.42,1.11,1.11,0,0,0,1.07-.61,1.05,1.05,0,0,0-.49-1.39l-2.51-1.18c-.19-.14-5.5-2.75-5.79-4.8L703,500.88s.38-.11.88,2.88A21.08,21.08,0,0,0,705.48,509.07Z" transform="translate(-94.62 -153.34)"/><path class="cls-33" d="M691.62,469.43c3.23,12.24,12.1,33.17,12.1,33.17l4.78-1.94-5.18-29.47Z" transform="translate(-94.62 -153.34)"/><path class="cls-34" d="M701.94,463.31l3.19,16.93-9.68,2.42c-2-6.54-5.59-17.11-5.35-19.77.43-4.62,12.23-21.93,17.08-27.14,9.85-10.57,15.39-9.85,15.39-9.85a30,30,0,0,0-9,16.21c-1.06,6-11.7,21.2-11.7,21.2Z" transform="translate(-94.62 -153.34)"/><path class="cls-34" d="M695.07,480.94a1.25,1.25,0,0,0-.86,1.55l.25,1a1.25,1.25,0,0,0,1.5.94l9.43-2.43a1.26,1.26,0,0,0,.87-1.55l-.25-1a1.26,1.26,0,0,0-1.51-.94Z" transform="translate(-94.62 -153.34)"/><path class="cls-31" d="M718.28,506.7l-10.55,6.62s6.95,11.7,10.69,8.95C718.42,522.27,727.87,514.36,718.28,506.7Z" transform="translate(-94.62 -153.34)"/><path class="cls-34" d="M795.87,461.57a1.24,1.24,0,0,0-1.68-.55l-.92.44a1.26,1.26,0,0,0-.62,1.66l4.22,8.77a1.25,1.25,0,0,0,1.68.55l.92-.44a1.25,1.25,0,0,0,.62-1.66Z" transform="translate(-94.62 -153.34)"/><path class="cls-27" d="M763.06,391.68c-1.8,1.9-3.7.81-6-1.32a9.59,9.59,0,0,0-5-2c1.28-.07,2.63-1,.32-1.15-2.52-.13-8.6.84-7.3.58s5.1-1.71,1-1.43-8.71,3.55-8.71,3.55c.63-.71,2.7-3,.18-1.55s-4.21,5.09-4.21,5.09c-.14-1.79.5-4.16-.29-3.33a5.71,5.71,0,0,0-1.23,2.26c-.24,1.32.5,2.12-.08,2.19-1.83.22-4.28,2.67-2.33,2.23,3.06-.68,1.42,3.18,1.34,4.22,0,0,16.37-1.56,24.94.05,3.32.62,4.91-.49,8.34-8.29C764.11,392.44,765.33,389.28,763.06,391.68Z" transform="translate(-94.62 -153.34)"/><path class="cls-36" d="M1102.85,903.33s8.54,12.37,18.1,12.82,18.56-11.36,22.16-18.55,10.57-17.21,18.56-27,22.15-28.69,16.15-66.66-42.28-32.87-54-26-18.86,22.91-21.55,32C1100.62,815.61,1085,866.74,1102.85,903.33Z" transform="translate(-94.62 -153.34)"/><path class="cls-37" d="M1131.36,865.94c.17.22-2,13.85-12.64,12.35s-10.32-10.95-10.32-10.95,15.27-4.76,13-22.15-18.21-21.44-18.21-21.44l6.63,7.31,5.25,9.52.6,10.4-6.41,10.18-6.07,4.67s1.46,9.56,1.79,9.95,6.47,6.52,6.64,6.69,8.43,1,8.43,1l7.82-4.55a44.87,44.87,0,0,0,3.09-8.32C1132,866.28,1131.19,865.71,1131.36,865.94Z" transform="translate(-94.62 -153.34)"/><path class="cls-37" d="M1164,812.8l-3.49-10.35-9.22-8.71-9.5-4-7.54.78s-10.35,8.49-10.68,8.55-4.33,9.62-4.33,9.62l2.47,3.37a67.73,67.73,0,0,1,6.33,10.73c.64-7.5-2.88-16-2.88-16s3.3-14.24,16.34-11.09,21,18.14,24.19,28.08C1165.89,820.47,1164,812.8,1164,812.8Z" transform="translate(-94.62 -153.34)"/><path class="cls-37" d="M1136.82,829c13.24,11.54,3.41,29.09,3.41,29.09s8.29-8,10.52-15.27S1136.2,828.42,1136.82,829Z" transform="translate(-94.62 -153.34)"/><path class="cls-38" d="M1180.77,819.41l0-2.22-.16-2.22c-.11-1.47-.21-3-.33-4.43l-.58-4.39-.29-2.2c-.11-.74-.27-1.47-.41-2.21-.24-1.48-.66-2.93-1-4.39a11,11,0,0,0-.32-1.08l-.36-1.07a22.5,22.5,0,0,0-.77-2.13l-.87-2.1-1-2-.26-.51-.29-.49-.6-1-.6-1-.68-.93a30.37,30.37,0,0,0-14.42-10.92,36.39,36.39,0,0,0-8.83-2,44.38,44.38,0,0,0-9,0,48.11,48.11,0,0,0-8.81,1.7c-.72.19-1.43.46-2.14.68s-1.41.51-2.1.82a23.45,23.45,0,0,0-4,2.11,33.52,33.52,0,0,0-6.84,5.82,51,51,0,0,0-5.4,7.06,75,75,0,0,0-7.52,16c-1.11,3.44-2,6.91-2.83,10.42-.2.87-.4,1.74-.58,2.61l.06.61q.07.5.18,1a4.82,4.82,0,0,0,.9,2.07l.21.24.19.17.37.35.73.68c.49.45,1,.91,1.43,1.37a43,43,0,0,1,5.13,5.94,31.32,31.32,0,0,1,3.74,6.73,23.34,23.34,0,0,1,1.63,7.37,15.91,15.91,0,0,1-.13,3.72,16.72,16.72,0,0,1-.93,3.55,17.49,17.49,0,0,1-4,6.11,20.53,20.53,0,0,1-2.85,2.41c-.51.35-1,.69-1.57,1l-.81.45c-.26.13-.57.29-.78.38l-.87.39-.08.88c0,.41-.06.74-.07,1.09s0,.7,0,1.05c0,.69,0,1.38.09,2.08a26.41,26.41,0,0,0,.65,4.11,19.78,19.78,0,0,0,1.45,4,14.47,14.47,0,0,0,2.48,3.57,13.92,13.92,0,0,0,7.57,4,9.56,9.56,0,0,0,1.05.17c.35,0,.69.1,1,.11l1.06.06,1.07,0a13.62,13.62,0,0,0,4.21-.95,13.24,13.24,0,0,0,6.31-5.56,21.08,21.08,0,0,0,2.66-7.71,27.51,27.51,0,0,0,0-7.9,20.71,20.71,0,0,0,3.2-.68,22,22,0,0,0,4.3-1.84,23.62,23.62,0,0,0,3.81-2.77,24.47,24.47,0,0,0,5.51-7.46,26,26,0,0,0,1.62-4.3,20.32,20.32,0,0,0,.73-4.5,52.29,52.29,0,0,1-4.19,7.76,34.07,34.07,0,0,1-5.49,6.5,28.63,28.63,0,0,1-3.32,2.58,31,31,0,0,1-3.71,2,29.4,29.4,0,0,1-2.74,1.08l-.7.23c0,.46.09.91.11,1.36v.1a27.5,27.5,0,0,1-.6,7.53,19,19,0,0,1-2.86,6.87,11.31,11.31,0,0,1-5.47,4.39,12.78,12.78,0,0,1-7,.24,11,11,0,0,1-6-3.36c-2.92-3.22-3.88-8.17-3.68-12.68l.12-.07.94-.52c.61-.37,1.21-.76,1.79-1.18a23.68,23.68,0,0,0,3.24-2.78,20.17,20.17,0,0,0,4.62-7.24,19.06,19.06,0,0,0,1-4.21,18.58,18.58,0,0,0,0-4.28l-.1-1.06a7.24,7.24,0,0,0-.15-1c-.15-.7-.28-1.39-.44-2.08l-.63-2c-.23-.65-.53-1.29-.79-1.94a32.37,32.37,0,0,0-4.36-7,45.69,45.69,0,0,0-5.73-5.82c-.52-.43-1-.86-1.57-1.28l-.79-.62-.39-.31-.19-.15-.13-.13a3.83,3.83,0,0,1-.79-1.52,15.8,15.8,0,0,1-.43-1.89c-.06-.35-.11-.7-.15-1.06.26-.95.53-1.89.82-2.83.84-2.79,1.68-5.59,2.73-8.29a75.63,75.63,0,0,1,8-15.39,50,50,0,0,1,5.43-6.67,31.77,31.77,0,0,1,6.61-5.32,22.29,22.29,0,0,1,3.77-1.84c.65-.28,1.33-.49,2-.73s1.35-.43,2-.61a46.83,46.83,0,0,1,8.4-1.43,38.5,38.5,0,0,1,16.66,2.17,27.68,27.68,0,0,1,13,10.07l.6.85c.19.3.36.6.54.9l.54.9.27.44.23.47.94,1.88.8,1.95a19.42,19.42,0,0,1,.71,2l.33,1c.11.34.22.67.3,1,.35,1.38.73,2.74,1,4.14.13.71.28,1.39.38,2.1l.27,2.15.55,4.29c.12,1.43.21,2.87.31,4.31l.15,2.15,0,2.15a81.67,81.67,0,0,1-1.28,17.12,69,69,0,0,1-5.06,16.33c-.3.65-.57,1.31-.9,1.94l-1,1.9-.49,1-.55.93-1.08,1.84a85,85,0,0,1-4.93,7.06c-1.77,2.26-3.64,4.55-5.42,6.89s-3.51,4.7-5.2,7.11-3.32,4.85-4.89,7.34a88.21,88.21,0,0,0-4.37,7.7,47.81,47.81,0,0,1-4.39,7.39,41.18,41.18,0,0,1-5.66,6.42,21.44,21.44,0,0,1-7.12,4.52,12.25,12.25,0,0,1-4.1.72,13.63,13.63,0,0,1-4.13-.76,19.67,19.67,0,0,1-3.87-1.86l-.46-.28-.45-.3-.9-.61c-.57-.44-1.16-.87-1.7-1.34a43.36,43.36,0,0,1-6.14-6.2,44.71,44.71,0,0,0,5.82,6.56c.54.51,1.11,1,1.68,1.44l.88.67.45.33.46.3a20.26,20.26,0,0,0,3.92,2.11,14.07,14.07,0,0,0,4.41,1,13.22,13.22,0,0,0,4.51-.61,22.79,22.79,0,0,0,7.76-4.51,43.12,43.12,0,0,0,6.09-6.51,48.87,48.87,0,0,0,4.78-7.53c1.35-2.52,2.86-5,4.45-7.41s3.25-4.8,5-7.14,3.48-4.65,5.29-6.92,3.64-4.5,5.5-6.81a87.06,87.06,0,0,0,5.19-7.23l1.16-1.91.58-1,.53-1,1-2c.35-.65.64-1.34,1-2a70.61,70.61,0,0,0,5.38-17A83.84,83.84,0,0,0,1180.77,819.41Z" transform="translate(-94.62 -153.34)"/><path class="cls-38" d="M1147.12,864.71c-.5.45-1,.88-1.6,1.3s-1.18.8-1.85,1.22a6.45,6.45,0,0,0,2.36,0,9.22,9.22,0,0,0,2.27-.77,11.44,11.44,0,0,0,3.66-3,14.74,14.74,0,0,0,2.33-4,11.75,11.75,0,0,0,.85-4.52c-1,1.2-1.85,2.36-2.71,3.5s-1.68,2.25-2.55,3.29A29.64,29.64,0,0,1,1147.12,864.71Z" transform="translate(-94.62 -153.34)"/><path class="cls-38" d="M1124.89,800.25a35.07,35.07,0,0,1,3.22-3.83,22.32,22.32,0,0,1,3.76-3.08,13.85,13.85,0,0,1,4.27-1.84c.19,0,.37-.1.56-.13l.57-.07c.18,0,.37-.06.56-.07l.57,0,.57,0,.57,0a10.2,10.2,0,0,1,1.17.13,25.59,25.59,0,0,1,4.75,1.1,23.94,23.94,0,0,1,8.36,4.8,30,30,0,0,1,6.09,7.7,44.6,44.6,0,0,1,3.79,9.34c.49,1.64.87,3.3,1.23,5,.17.84.33,1.68.47,2.53s.27,1.71.43,2.56a50.67,50.67,0,0,0-.62-10.42,47.92,47.92,0,0,0-1.21-5.14,35,35,0,0,0-1.91-5,28.58,28.58,0,0,0-6.26-8.78,25.7,25.7,0,0,0-4.38-3.31,26.23,26.23,0,0,0-5-2.28,28.1,28.1,0,0,0-5.33-1.19,12.35,12.35,0,0,0-1.41-.12l-.72,0-.72,0-.73,0-.71.11a8.42,8.42,0,0,0-1.41.3,15.72,15.72,0,0,0-5.1,2.44,21.86,21.86,0,0,0-4,3.72,37.57,37.57,0,0,0-5.57,9c-.58,1.31-1.12,2.64-1.59,4-.15.41-.29.82-.43,1.23l.5.85.85,1.47c.84,1.46,1.65,2.94,2.51,4.4s1.71,2.92,2.63,4.37a44.26,44.26,0,0,0,3,4.28,19.8,19.8,0,0,0-1.14-5.2,28.63,28.63,0,0,0-2.21-4.81,23.79,23.79,0,0,0-3.14-4.3,19.35,19.35,0,0,0-1.81-1.69h0c.67-1.32,1.39-2.62,2.14-3.88A49.4,49.4,0,0,1,1124.89,800.25Z" transform="translate(-94.62 -153.34)"/><path class="cls-36" d="M1289.92,1042.28h0c-6.88-7.14-16.15-12.86-19.66-13.84-3.16-7.11-5.63-9.25-8.71-12-5.36-16.1-.58-55.85-23.78-54.11-23.21-1.74-18.42,38-23.79,54.11-3.08,2.79-5.55,4.93-8.7,12-3.52,1-12.79,6.7-19.67,13.84h0c-5.33,5.53-9.22,11.92-7.89,17.62,3,13.06,26.4,16.68,36.11,13.93a59,59,0,0,0,47.87,0c9.72,2.75,33.07-.87,36.12-13.93C1299.14,1054.2,1295.25,1047.81,1289.92,1042.28Z" transform="translate(-94.62 -153.34)"/><path class="cls-37" d="M1289.92,1042.28c3.88,6,5.81,11.87,4.27,17.33-6-2.78-12-4.58-17.84-4.21.14-10.67-1.39-20.06-6.09-27-3.16-7.11-5.63-9.25-8.71-12-5.36-16.1-.58-55.85-23.78-54.11-23.21-1.74-18.42,38-23.79,54.11-3.08,2.79-5.55,4.93-8.7,12-4.7,6.91-6.23,16.3-6.1,27-5.89-.37-11.85,1.43-17.84,4.21-1.54-5.46.4-11.29,4.27-17.33-5.33,5.53-9.22,11.92-7.89,17.62,3,13.06,26.4,16.68,36.11,13.93a59,59,0,0,0,47.87,0c9.72,2.75,33.07-.87,36.12-13.93C1299.14,1054.2,1295.25,1047.81,1289.92,1042.28ZM1237.77,1075c-31.91,2.27-49.32-40-12.91-63.39a14.19,14.19,0,0,0-7.31,2.14c2.66-25.19,6.78-48.14,20.22-47.25,13.43-.89,17.55,22.06,20.21,47.25a14.18,14.18,0,0,0-7.3-2.14C1287.08,1035,1269.68,1077.26,1237.77,1075Z" transform="translate(-94.62 -153.34)"/><path class="cls-39" d="M1191.13,1064.18c-5.48,3.91,13.69,11.07,20.93,9.25a.58.58,0,0,0,.45-.48.6.6,0,0,0-.23-.62C1208.78,1069.69,1196.11,1060.63,1191.13,1064.18Z" transform="translate(-94.62 -153.34)"/><path class="cls-39" d="M1284.4,1064.18c-5-3.55-17.65,5.51-21.14,8.15a.63.63,0,0,0-.24.62.6.6,0,0,0,.45.48C1270.71,1075.25,1289.89,1068.09,1284.4,1064.18Z" transform="translate(-94.62 -153.34)"/><path class="cls-36" d="M1055.35,844.33c0,36.21-32.13,65.55-71.77,65.55-1.2,0-2.39,0-3.58-.08a75.72,75.72,0,0,1-39-12.72c-17.69-11.94-29.15-31.12-29.15-52.75,0-36.21,32.13-65.57,71.76-65.57S1055.35,808.12,1055.35,844.33Z" transform="translate(-94.62 -153.34)"/><path class="cls-37" d="M1031.42,831c-1.37-6.72-3.84-12.23-8-13.54-26.07-4.38-70.36-1.21-82.12-.25a6,6,0,0,0-2.35.7,5.82,5.82,0,0,0-2.11,1.93l-.12.2c-8.57,14.31-6.84,28,.53,39.41,6,9.28,15.76,17,26.74,22.31L941,897.08a75.72,75.72,0,0,0,39,12.72c5.67-5.09,9.84-16.12,10.47-20.4a44.23,44.23,0,0,0,14.41-1.16,34.46,34.46,0,0,0,16.52-9.11l.68-.69h0a40.27,40.27,0,0,0,9.5-17,31.43,31.43,0,0,0,1-5.25c0-.49.09-1,.13-1.52,0-.1,0-.21,0-.31s0-.3,0-.45a.09.09,0,0,0,0-.05A94.24,94.24,0,0,0,1031.42,831Z" transform="translate(-94.62 -153.34)"/><path class="cls-40" d="M1032.75,849.66a.09.09,0,0,1,0,.05c0,.15,0,.3,0,.45s0,.2,0,.31c0,.53-.08,1-.13,1.51a31.35,31.35,0,0,1-1,5.26,40.18,40.18,0,0,1-9.5,17h0l-.68.69c-7.11,7-18.17,12-34.74,9.67-19.1-2.73-39.39-13.9-49.36-29.31-7.37-11.39-9.1-25.1-.53-39.41l.12-.2a5.94,5.94,0,0,1,4.46-2.63c11.76-1,56-4.13,82.12.25,4.11,1.3,6.58,6.82,8,13.54A94.24,94.24,0,0,1,1032.75,849.66Z" transform="translate(-94.62 -153.34)"/><path class="cls-41" d="M1032.75,849.66a.09.09,0,0,1,0,.05c0,.15,0,.3,0,.45s0,.2,0,.31a55.65,55.65,0,0,1-1.12,6.77,40,40,0,0,1-10.18,17.66c-7.51.06-20.21,0-20.88-.7-.95-1.06-16.19-11.85-16.19-11.85-.21-.63-6-25.81,11-28.45,7.09-1.06,8.36,7.08,7.73,9s1.05,7.72,5.92,7.93a7.1,7.1,0,0,0,7.3-8c-.74-3.6,2-9.6,7.93-9S1033,842.47,1032.75,849.66Z" transform="translate(-94.62 -153.34)"/><path class="cls-42" d="M1031.42,826.81c-19.67,2.32-87.08-1.38-90.57-4.34a13.2,13.2,0,0,1-3-4.54c-.34-.76-.65-1.53-.93-2.28a5.94,5.94,0,0,1,4.46-2.63c11.76-1,56-4.13,82.12.25,2.94.93,5,4,6.48,8.13h0A42.88,42.88,0,0,1,1031.42,826.81Z" transform="translate(-94.62 -153.34)"/><path class="cls-43" d="M1030,821.4c-4.44-6.36-82.22-6.55-87.51-5.54a11.45,11.45,0,0,0-4.62,2.07c-.34-.76-.65-1.53-.93-2.28a5.94,5.94,0,0,1,4.46-2.63c11.76-1,56-4.13,82.12.25C1026.41,814.2,1028.5,817.27,1030,821.4Z" transform="translate(-94.62 -153.34)"/><path class="cls-44" d="M1022.08,874.2h0l-.68.69c-7.11,7-18.17,12-34.74,9.67,0,0-27.22,46.9-63.47,25.88-23.67-13.72-6.16-42.34,14.11-55.19,8.49-5.39,17.47-8,24.11-5.59a13.17,13.17,0,0,1,2.18,1,12.39,12.39,0,0,1,2.61,2.06h0c3.27-2.51,17.83-3.22,31.32.5a55.43,55.43,0,0,1,8.5,3.07h0c1.15.53,2.27,1.11,3.35,1.73C1015.76,861.73,1020.67,867,1022.08,874.2Z" transform="translate(-94.62 -153.34)"/><path class="cls-45" d="M1009.38,858.06h0l0,0c-.51-.29-1-.58-1.57-.85l-.09-.05c-.54-.28-1.1-.55-1.66-.81h0c-15.15-7-35.85-6.63-39.82-3.57-4.91,2.83-11.37,8.53-17.93,15.44,25.32-19.18,54.52-16.29,59.44-8.76,2.92,10.56-20.5,21.81-20.5,21.81a16.57,16.57,0,0,0-.7-3.8C965.93,902.55,944.06,913,930,906.22s-3.67-33.71,5.78-44.29,25.67-12.26,25.67-12.26c-6.64-2.41-15.62.2-24.11,5.59-20.27,12.85-37.78,41.47-14.11,55.19,36.25,21,63.47-25.88,63.47-25.88,16.57,2.36,27.63-2.63,34.74-9.67l.68-.69h0C1020.67,867,1015.76,861.73,1009.38,858.06Z" transform="translate(-94.62 -153.34)"/><path class="cls-40" d="M997.53,853.26c-24.56-5.07-42.61,11.84-50,15.79,7.56-10.13,14.92-14.28,18.62-16.25l.06,0h0C969.48,850.25,984,849.54,997.53,853.26Z" transform="translate(-94.62 -153.34)"/><path class="cls-46" d="M934,871.78c-1.64,2-3.12,4-4.41,5.85s-2.39,3.6-3.36,5.07c-1.89,3-3.24,4.89-4.16,4.64s-1.15-2.71-.24-6.5a31.11,31.11,0,0,1,2.39-6.37,37.28,37.28,0,0,1,4.57-7,39.19,39.19,0,0,1,6-5.83,32,32,0,0,1,5.73-3.61c3.49-1.69,6-1.93,6.43-1.08s-1.19,2.51-3.69,5c-1.26,1.23-2.73,2.7-4.31,4.33S935.62,869.77,934,871.78Z" transform="translate(-94.62 -153.34)"/><path class="cls-37" d="M1130.54,1005s-1.88,4.33-2.83,6.15-4.87,6.49-6.09,8.14-7.83,11.05-10.19,13.64a18.26,18.26,0,0,0-3.33,5s-5,12.37-6.2,17.48a147,147,0,0,1-6.1,20.39c-1.26,3.22-2.44,6.47-3.43,9.31h0c-4.9,6.6-10.52,10.41-16.27,12.31-.63.2-1.26.39-1.89.55-17.7,4.56-36-8-37.62-12.63a.74.74,0,0,1,0-.14.36.36,0,0,0,0-.09c-.91-2.52-5.45-11.05-10.42-15.67-.42-.39-.83-.74-1.25-1.06a3.4,3.4,0,0,0-.3-.23,46.55,46.55,0,0,1-8.46-8.37c-.1-.13-.2-.27-.31-.4a32.31,32.31,0,0,1-4-6.42c-2-4.54-5.14-9.41-7.21-11.41l-1.35-1.3h0a20.47,20.47,0,0,1-3.16-3.76l0,0-.42-.67a63.21,63.21,0,0,0-4.65-6.28l-.27-.9,0-.13s-.59-.29-1.49-.77-1.89-1-3-1.66a36.19,36.19,0,0,1-5.37-3.57,5.31,5.31,0,0,1-.54-.5c-2.29-2.44,1.63-7.47,6.51-7.47s16.74-.07,22.92,9.1l.2.28c.14.12.28.26.43.4.59.55,1.23,1.18,1.92,1.85.18.19.37.36.56.55,1.25,1.26,2.6,2.65,3.85,4,.53.57,1,1.13,1.52,1.67a44.13,44.13,0,0,1,3.09,3.73c1.92,2.74,8.2,1.63,9.53.67s3.33-2.44,5-7.83a69.19,69.19,0,0,0,2.5-10.64c.23-1.4,1-7.16.16-9.68s-3-16-2.81-20.84c-.74-5.61-1.33-11.81-.81-14.1,0-.2-.09-.45-.13-.76s-.08-.53-.12-.84c-.06-.46-.13-1-.18-1.58l-.06-.6c0-.2,0-.41-.05-.63s0-.66-.07-1c-.08-1.35-.13-2.86-.11-4.4,0-.17,0-.34,0-.52v-.31c0-.1,0-.2,0-.31l0-.78v-.16c0-.24,0-.48,0-.72l0-.44c0-.13,0-.26,0-.39s0-.13,0-.2c.05-.45.1-.89.16-1.33,0-.1,0-.2,0-.3,0-.27.09-.53.13-.79s.08-.43.13-.64,0-.13,0-.2.06-.27.1-.41a2.25,2.25,0,0,0,0-.22h0c.87-3.36,2.47-6,5.31-6.33a6.23,6.23,0,0,1,2.84.2c5.37,1.76,5.43,11.68,5.89,18.85.51,8.28,2.35,12.71,3.32,18.4.85,5,2.32,13,2.81,17.7.07.64.12,1.23.14,1.73.07,2.07,3.84,2.88,3.84,2.88s.52-.07.52-4.65-.59-16.11.67-20c.14-5.9.51-15.65,1.4-18v-1.19c0-.14,0-.29,0-.44,0-1,0-2.08.09-3.31l0-.53.06-.81c0-.17,0-.35,0-.52s0-.22,0-.32c0-.47.09-.94.15-1.42,0-.19,0-.39.07-.58s0-.39.08-.59,0-.38.08-.58.06-.39.1-.59v0c.1-.58.21-1.16.34-1.74,0-.12.05-.25.08-.38s0-.22.08-.33.07-.29.11-.44c.1-.38.2-.76.32-1.13,0,0,0-.09,0-.14l.14-.42a.09.09,0,0,0,0-.05l.18-.5.2-.54,0-.06,0-.09c1.56-3.87,4.18-6.81,8.57-6.84a6.78,6.78,0,0,1,1.93.22c8.11,2.06,2.47,18.41,2.06,22.9a122.9,122.9,0,0,0,0,13.89c.05,2.46.32,7.65.29,11.41a29.91,29.91,0,0,1-.14,3c-.37,3.17-1.33,13.21-.67,13.66a2.85,2.85,0,0,0,.66.36h0l.12,0h.12a.61.61,0,0,0,.49-.24,1.23,1.23,0,0,0,.18-.28,3.44,3.44,0,0,0,.33-1c.44-2.06,3-12.48,4.88-16.25,1.48-6.65,2.37-12.41,3.4-15l.06-.43,0-.25c0-.38.09-.78.14-1.21,0-.21,0-.43.07-.66,0-.4.08-.81.12-1.24l.09-.83q.11-1.05.24-2.19l.12-.91c.07-.55.16-1.11.25-1.68l.09-.55c0-.18.07-.37.1-.55s.07-.37.11-.55c.11-.55.23-1.1.37-1.63l.12-.51a23.43,23.43,0,0,1,.85-2.61h0c.12-.3.24-.6.37-.88s.12-.25.17-.37.27-.53.41-.78l.11-.18a10.89,10.89,0,0,1,.67-1,1.56,1.56,0,0,1,.16-.2,7,7,0,0,1,6.28-2.9,7.2,7.2,0,0,1,1.69.27c7.75,2.15,2.58,15.81,2.3,16.65s-1,5-1.26,7.09-1.84,12.26-2,16-3.17,14.73-4.28,17.39a26.84,26.84,0,0,0-2,6,4.51,4.51,0,0,0,.19,2.39,4.13,4.13,0,0,0,4,2.19h0l.15,0,.28-.08.24-.09.08,0,.21-.12.12-.08,0,0,.11-.09h0l0,0h0l.13-.12.12-.14c1.33-1.78,5.42-9.08,9.75-11,4-4.21,4.87-5.76,5.76-7.65.1-.22.25-.59.43-1.06l.13-.33h0l.15-.35v0c0-.11.09-.23.14-.35.3-.72.66-1.57,1.08-2.45l.24-.49.12-.24.13-.25.13-.25.14-.25c.09-.16.18-.33.28-.49a2,2,0,0,1,.14-.25l.3-.49.15-.24.16-.24c.09-.14.18-.28.28-.41l.06-.09.15-.21c.23-.31.47-.61.71-.9s.25-.28.38-.41l.19-.21.2-.19.19-.19.21-.19.23-.19a2.88,2.88,0,0,1,.34-.27l.12-.09.38-.26.22-.14.2-.11.19-.1.14-.08.33-.14.18-.07.13-.05,0,0,.22-.07h0a5.86,5.86,0,0,1,3-.1l.33.09C1136.69,992.41,1130.54,1005,1130.54,1005Z" transform="translate(-94.62 -153.34)"/><path class="cls-36" d="M1128.59,994.28a0,0,0,0,0,0,0c0,.07,0,.15,0,.22l0,.08h0a28.9,28.9,0,0,1-2,5.83s-1.88,4.32-2.83,6.15-4.88,6.48-6.09,8.14-7.83,11-10.19,13.63a18.22,18.22,0,0,0-3.33,5s-5,12.37-6.2,17.47a147.34,147.34,0,0,1-6.11,20.4c-1.2,3.06-3.28,9.52-4.8,11.06a3.37,3.37,0,0,0-.29.35l-.17.2-.18.2c-3.24,3.68-10,9.05-19.74,4.61-2.36,1.63-5.81,2.63-10,2.81-.82,0-1.85,0-3,0a28.12,28.12,0,0,1-19.3-9.9,58.82,58.82,0,0,0-5.4-8.07h0a30.45,30.45,0,0,0-2.79-3,3.75,3.75,0,0,0-1.25-1.06,3.4,3.4,0,0,0-.3-.23,46.55,46.55,0,0,1-8.46-8.37,2,2,0,0,0-.31-.4,32.31,32.31,0,0,1-4-6.42c-2-4.54-5.14-9.41-7.21-11.41l-1.35-1.3h0a20.47,20.47,0,0,1-3.16-3.76l0,0-.42-.67a63.21,63.21,0,0,0-4.65-6.28l-.27-.9,0-.13s-.59-.29-1.49-.77-1.89-1-3-1.66a36.19,36.19,0,0,1-5.37-3.57,5.31,5.31,0,0,1-.54-.5c-2.29-2.44,1.63-7.47,6.51-7.47s16.74-.07,22.92,9.1l.2.28c.14.12.28.26.43.4.59.55,1.23,1.18,1.92,1.85.18.19.37.36.56.55,1.25,1.26,2.6,2.65,3.85,4q.35.45.6.81a3.15,3.15,0,0,0,.92.86,44.13,44.13,0,0,1,3.09,3.73c1.92,2.74,8.2,1.63,9.53.67s3.33-2.44,5-7.83a69.19,69.19,0,0,0,2.5-10.64c.23-1.4,1-7.16.16-9.68s-3-16-2.81-20.84c-.74-5.61-1.33-11.81-.81-14.1,0-.2-.09-.45-.13-.76s-.08-.53-.12-.84c-.06-.46-.13-1-.18-1.58l-.06-.6c0-.2,0-.41-.05-.63s0-.66-.07-1c-.08-1.35-.13-2.86-.11-4.4,0-.17,0-.34,0-.52v-.31c0-.1,0-.2,0-.31l0-.78v-.16c0-.24,0-.48,0-.72l0-.44c0-.13,0-.26,0-.39s0-.13,0-.2c.05-.45.1-.89.16-1.33,0-.1,0-.2,0-.3,0-.27.09-.53.13-.79s.08-.43.13-.64,0-.13,0-.2.06-.27.1-.41a2.25,2.25,0,0,0,0-.22h0c.51-1.65,1.77-4.08,4.75-4.12,3.81,0,4.59,3.45,4.74,4.54,0,0,0,.08,0,.11l0,.18v0c.25,2.5.36,5.09.5,7.39.52,8.27,2.36,12.7,3.33,18.4s2.73,15.14,2.95,19.43a1.67,1.67,0,0,0,.06.39v0h0a8,8,0,0,0,7.78,7.06s.52-.07.52-4.65-.59-16.11.67-20c.14-5.9.51-15.65,1.4-18v-1.19c0-.14,0-.29,0-.44,0-1,0-2.08.09-3.31l0-.53.06-.81c0-.17,0-.35,0-.52s0-.22,0-.32c0-.47.09-.94.15-1.42,0-.19,0-.39.07-.58s0-.39.08-.59,0-.38.08-.58.06-.39.1-.59v0c.1-.58.21-1.16.34-1.74,0-.12.05-.25.08-.38s0-.22.08-.33.07-.29.11-.44c.1-.38.2-.76.32-1.13,0,0,0-.09,0-.14l.14-.42a.09.09,0,0,0,0-.05l.18-.5.2-.54,0-.06,0-.09c.58-1.28,4-6.76,7.75-4.62,2.93,1.67,2.69,6,2.38,8.12v0c-.06.36-.13.71-.19,1a1.2,1.2,0,0,0,0,.14c-.58,3-1.22,5.55-1.36,7a125.3,125.3,0,0,0,0,13.89c.08,3.25.52,11.23.16,14.41-.27,2.31-.85,8.25-.89,11.49h0l-.07.28s-.41,6.14,5,6.85h0l.12,0h.12a.61.61,0,0,0,.49-.24,1.23,1.23,0,0,0,.18-.28,3.44,3.44,0,0,0,.33-1c.44-2.06,3-12.48,4.88-16.25,1.48-6.65,2.37-12.41,3.4-15l.06-.43,0-.25c0-.38.09-.78.14-1.21,0-.21,0-.43.07-.66,0-.4.08-.81.12-1.24l.09-.83q.11-1.05.24-2.19l.12-.91c.07-.55.16-1.11.25-1.68l.09-.55c0-.18.07-.37.1-.55s.07-.37.11-.55c.11-.55.23-1.1.37-1.63l.12-.51a23.43,23.43,0,0,1,.85-2.61h0c.12-.3.24-.6.37-.88s.12-.25.17-.37.27-.53.41-.78l.11-.18a10.89,10.89,0,0,1,.67-1,1.56,1.56,0,0,1,.16-.2,4.33,4.33,0,0,1,4.31-1.87c4.16.89,3.53,5.42,3.53,5.42h0a37.94,37.94,0,0,1-1.59,5.87c-.29.89-1,5-1.26,7.09s-1.84,12.27-2,16-3.18,14.73-4.29,17.39c-.24.59-.51,1.24-.77,1.91v0h0c-.31.63-5.14,10.77,5.78,13.31a4.68,4.68,0,0,0,1.27,0h0l.15,0,.28-.08.24-.09.08,0,.21-.12.12-.08,0,0,.11-.09h0l0,0h0l.13-.12.12-.14c1.33-1.78,5.42-9.08,9.75-11,4-4.21,4.87-5.76,5.76-7.65.1-.22.25-.59.43-1.06l.13-.33h0l.15-.35v0c0-.11.09-.23.14-.35.3-.72.66-1.57,1.08-2.45l.24-.49.12-.24.13-.25.13-.25.14-.25c.09-.16.18-.33.28-.49a2,2,0,0,1,.14-.25l.3-.49.15-.24.16-.24c.09-.14.18-.28.28-.41l.06-.09.15-.21c.23-.31.47-.61.71-.9s.25-.28.38-.41l.19-.21.2-.19.19-.19.21-.19.23-.19a2.88,2.88,0,0,1,.34-.27l.12-.09.38-.26.22-.14.2-.11.19-.1.14-.08.33-.14.18-.07.13-.05,0,0,.22-.07h0C1128.89,990.62,1128.74,993.32,1128.59,994.28Z" transform="translate(-94.62 -153.34)"/><path class="cls-47" d="M994.85,1028.2a.94.94,0,0,1-.12.47l0-.13s-7.07-3.53-9.88-6c1.51-.14,3.48-.23,4,.23C989.8,1023.55,994.79,1025.6,994.85,1028.2Z" transform="translate(-94.62 -153.34)"/><path class="cls-38" d="M1072.42,1071.73q-.47-3.15-1.21-6.24a45.35,45.35,0,0,0-4.71-11.82,28.39,28.39,0,0,0-8.71-9.27,20.82,20.82,0,0,0-12.08-3.49,19.77,19.77,0,0,1,6.15,1.21,23.27,23.27,0,0,1,5.55,2.84,28.65,28.65,0,0,1,8.33,9.16,47.34,47.34,0,0,1,4.81,11.54c.26,1,.57,2,.79,3s.47,2,.66,3.09.4,2.07.56,3.11l.47,3.12-.24-3.15C1072.69,1073.82,1072.54,1072.78,1072.42,1071.73Z" transform="translate(-94.62 -153.34)"/><path class="cls-38" d="M1083.44,1029.42c-3.27-.69-6.55-1.38-9.79-2.21s-6.49-1.63-9.72-2.5q-2.43-.64-4.84-1.33c-1.62-.43-3.23-.92-4.84-1.37,3.11,1.27,6.29,2.35,9.49,3.35s6.45,1.87,9.7,2.71,6.56,1.47,9.88,2a93.13,93.13,0,0,0,10,1.11c-1.66-.31-3.32-.51-5-.85S1085.08,1029.75,1083.44,1029.42Z" transform="translate(-94.62 -153.34)"/><path class="cls-38" d="M1084.27,1045.64c-2.3-2.17-4.75-4.18-7.24-6.12s-5-3.78-7.67-5.54l-3.93-2.62-2-1.29-1-.67a4.56,4.56,0,0,1-.91-.73,10.57,10.57,0,0,0,1.75,1.59l1.87,1.45,3.79,2.82c2.51,1.9,5,3.76,7.52,5.69s4.94,3.89,7.33,5.93c1.19,1,2.37,2.06,3.5,3.14s2.26,2.19,3.35,3.33A53.52,53.52,0,0,0,1084.27,1045.64Z" transform="translate(-94.62 -153.34)"/><path class="cls-38" d="M1013.65,1024.28c-.14,1.15-.3,2.3-.51,3.43s-.49,2.25-.79,3.36-.73,2.2-1.17,3.3a12.23,12.23,0,0,0,1.81-3.06,16.55,16.55,0,0,0,1-3.44,20.78,20.78,0,0,0,.34-3.52l-.63-.68Z" transform="translate(-94.62 -153.34)"/><path class="cls-38" d="M1015.64,1028.62l-.45,2a16,16,0,0,1-.55,2,4.47,4.47,0,0,0,1.2-1.73,11.22,11.22,0,0,0,.66-2,14.37,14.37,0,0,0,.32-2.07c-.19-.18-.38-.36-.55-.55C1016,1027,1015.83,1027.81,1015.64,1028.62Z" transform="translate(-94.62 -153.34)"/><path class="cls-38" d="M1061,1089.71a43.36,43.36,0,0,1-6.45.49c-2.17,0-4.33-.1-6.51-.24s-4.34-.39-6.53-.55c1.07.27,2.14.47,3.22.71s2.16.34,3.25.51a51.46,51.46,0,0,0,6.58.46,31.71,31.71,0,0,0,6.58-.71,17.42,17.42,0,0,0,3.15-1.06,6.82,6.82,0,0,0,2.64-2,7.42,7.42,0,0,1-2.8,1.58A17.72,17.72,0,0,1,1061,1089.71Z" transform="translate(-94.62 -153.34)"/><path class="cls-38" d="M1045.82,972.93a17.18,17.18,0,0,0,2.75-.47,8.63,8.63,0,0,0,2.57-1.11,50.19,50.19,0,0,1-5.4.7c-1.8.16-3.61.26-5.46.52a13.6,13.6,0,0,0,2.76.39A19.86,19.86,0,0,0,1045.82,972.93Z" transform="translate(-94.62 -153.34)"/><path class="cls-38" d="M1041.94,987.53a11.26,11.26,0,0,0,3.14.55,16.31,16.31,0,0,0,3.2-.14,15.72,15.72,0,0,0,3.11-.77,12.68,12.68,0,0,0,2.86-1.41c-1,.25-2,.54-3,.75s-2,.41-3,.55A48.64,48.64,0,0,1,1041.94,987.53Z" transform="translate(-94.62 -153.34)"/><path class="cls-38" d="M1048.1,1008.48a16.28,16.28,0,0,0,4.41-.51,17.39,17.39,0,0,0,2.12-.67,5.8,5.8,0,0,0,1.94-1.15c-.72.22-1.43.33-2.14.49s-1.42.3-2.13.47A24.81,24.81,0,0,0,1048.1,1008.48Z" transform="translate(-94.62 -153.34)"/><path class="cls-38" d="M1072.42,968.62a10.43,10.43,0,0,0,5-.37c-1.68-.1-3.25-.28-4.87-.51s-3.21-.47-4.89-.6a11.72,11.72,0,0,0,2.33.94A15.63,15.63,0,0,0,1072.42,968.62Z" transform="translate(-94.62 -153.34)"/><path class="cls-38" d="M1078.4,983.43a7.71,7.71,0,0,0-2.54-1.11,13.67,13.67,0,0,0-2.76-.37,16.91,16.91,0,0,0-2.76.16,12,12,0,0,0-2.69.66c1.85.05,3.64,0,5.42.07A27.71,27.71,0,0,1,1078.4,983.43Z" transform="translate(-94.62 -153.34)"/><path class="cls-38" d="M1072.18,986.61a14.54,14.54,0,0,0,3,0,8.17,8.17,0,0,0,2.83-.82,27,27,0,0,1-5.69,0c-1-.07-1.89-.2-2.84-.3s-1.91-.23-2.88-.33a12.74,12.74,0,0,0,2.75,1A18.7,18.7,0,0,0,1072.18,986.61Z" transform="translate(-94.62 -153.34)"/><path class="cls-38" d="M1071.88,1006.21a21.23,21.23,0,0,0,2.76.21,10.38,10.38,0,0,0,2.77-.27l-5.4-.82a46.73,46.73,0,0,0-5.46-.51,17.57,17.57,0,0,0,2.63.86A27.4,27.4,0,0,0,1071.88,1006.21Z" transform="translate(-94.62 -153.34)"/><path class="cls-38" d="M1071,1001a4.71,4.71,0,0,0-1.91.74,22.73,22.73,0,0,1,3.88.06c.63.08,1.27.16,1.91.27s1.28.25,2,.33a7.54,7.54,0,0,0-3.78-1.48A7.91,7.91,0,0,0,1071,1001Z" transform="translate(-94.62 -153.34)"/><path class="cls-38" d="M1091.26,1013.09a18.28,18.28,0,0,0-2.54-1.54,23.28,23.28,0,0,0-2.73-1.16,18.56,18.56,0,0,0-2.86-.77c1.71,1,3.46,1.84,5.19,2.72.87.42,1.72.87,2.56,1.33a17.23,17.23,0,0,1,2.45,1.57A7.44,7.44,0,0,0,1091.26,1013.09Z" transform="translate(-94.62 -153.34)"/><path class="cls-38" d="M1090.73,1008.69a38.91,38.91,0,0,0-5.09-1.38,21.82,21.82,0,0,0,4.81,2.22,20.23,20.23,0,0,0,2.57.68,7.73,7.73,0,0,0,2.67.15c-.86-.22-1.66-.53-2.49-.81S1091.56,1009,1090.73,1008.69Z" transform="translate(-94.62 -153.34)"/><path class="cls-38" d="M1093.8,993.75c-1-.23-1.88-.53-2.8-.85s-1.85-.68-2.77-1.08a9.84,9.84,0,0,0,2.5,1.72,14.15,14.15,0,0,0,2.85,1.07,13,13,0,0,0,6,.16c-1-.15-2-.24-2.95-.42S1094.74,994,1093.8,993.75Z" transform="translate(-94.62 -153.34)"/><path class="cls-38" d="M1098.35,991.82a5.4,5.4,0,0,0-1.69-1.19,9.85,9.85,0,0,0-1.93-.68,12.7,12.7,0,0,0-2-.33,8.73,8.73,0,0,0-2,.06,36.15,36.15,0,0,0,3.84,1.13C1095.8,991.12,1097,991.42,1098.35,991.82Z" transform="translate(-94.62 -153.34)"/><path class="cls-38" d="M1097.21,976.83c-1.61-.47-3.22-1-4.92-1.27a13.79,13.79,0,0,0,2.26,1.23,20.45,20.45,0,0,0,2.41.89,19.23,19.23,0,0,0,2.5.56,9.75,9.75,0,0,0,2.59.06Z" transform="translate(-94.62 -153.34)"/><path class="cls-38" d="M1117.91,1003.38a10.9,10.9,0,0,0,3.09,2,9.38,9.38,0,0,0,3.56.84,23.22,23.22,0,0,0-3.21-1.65A17.57,17.57,0,0,0,1117.91,1003.38Z" transform="translate(-94.62 -153.34)"/><path class="cls-38" d="M1126.65,1006.74a9.62,9.62,0,0,0-1.37-1.41,11.75,11.75,0,0,0-1.59-1.13,8.08,8.08,0,0,0-1.79-.82,29.8,29.8,0,0,0,2.81,2.62c1,.82,1.91,1.6,2.9,2.48A5.2,5.2,0,0,0,1126.65,1006.74Z" transform="translate(-94.62 -153.34)"/><path class="cls-38" d="M1114.49,1012.63a20.51,20.51,0,0,1-1.9-1.16,2.74,2.74,0,0,0,.67.94,8.82,8.82,0,0,0,.84.78,14.71,14.71,0,0,0,1.83,1.33,15.07,15.07,0,0,0,4.14,1.83,30.84,30.84,0,0,0-3.67-2.58C1115.77,1013.39,1115.14,1013,1114.49,1012.63Z" transform="translate(-94.62 -153.34)"/><path class="cls-38" d="M1105.43,1028.59a21.34,21.34,0,0,0-3.42-3.88,34.82,34.82,0,0,0,2.69,4.39c.49.69,1,1.39,1.49,2.07s1,1.36,1.47,2.09a7.73,7.73,0,0,0-.89-2.46A20.62,20.62,0,0,0,1105.43,1028.59Z" transform="translate(-94.62 -153.34)"/><path class="cls-36" d="M1289.86,788.46c-40.27,4.45-72.93,41.88-72.93,73.52s32.65,53.68,72.93,49.23,72.93-33.71,72.93-65.35S1330.14,784,1289.86,788.46Z" transform="translate(-94.62 -153.34)"/><path class="cls-48" d="M1347.89,838.9c5.65-1.44,10.21-3.43,12.88-6.38q-12.76,3.74-20.25-3.52c6.4-1.46,10.1-4.37,11.78-8.37-5.7,4.5-13.51,3.88-22.67,0,5.67-3,9.43-6.52,11-10.67-5.91,3.88-12.29,4.08-19,1.43,4.07-1.74,6.66-4.94,8.59-8.81-12.66,9.54-26,.63-40.83,2.09l0,.05c-10.68.5-22.84,5.74-31.81,15.36-9.2,9.85-18.54,22.75-27.61,40.81l-.13.27a9.43,9.43,0,0,0-3.59,5.54,4.4,4.4,0,0,0,.62,3.94,4.83,4.83,0,0,0,3.88,1.67,5.32,5.32,0,0,0,2.77-.71,5,5,0,0,0,2.07-2.77c11.93,12.13,30.38,23.81,51.42,23.81,17.59,0,42.38-8.92,61.88-46.66l.52-1c6.31.38,11.52-1.1,15.52-4.63C1358,842.08,1352.41,841.52,1347.89,838.9Z" transform="translate(-94.62 -153.34)"/><path class="cls-49" d="M1231.46,861.68a7.59,7.59,0,0,0-4,5.34c-1,4.18,3.63,4.51,5.28,3.47s2-3.18,1.57-5.5S1232.94,861.35,1231.46,861.68Z" transform="translate(-94.62 -153.34)"/><path class="cls-43" d="M1347.23,845.17c-34.33,66.48-91,47.24-115.77,16.51.09-.19.2-.39.29-.58q48.42-95.91,112.81-19.18C1345.45,843,1346.34,844.06,1347.23,845.17Z" transform="translate(-94.62 -153.34)"/><path class="cls-42" d="M1344.56,841.92c-33.39,61.21-85.94,47.12-112.81,19.18Q1280.17,765.19,1344.56,841.92Z" transform="translate(-94.62 -153.34)"/><circle class="cls-48" cx="1289.42" cy="842" r="33.02" transform="translate(153.83 1823.53) rotate(-80.62)"/><path class="cls-50" d="M1289.86,870.35a28.63,28.63,0,1,1,28.63-28.63A28.66,28.66,0,0,1,1289.86,870.35Z" transform="translate(-94.62 -153.34)"/><circle class="cls-48" cx="1194.54" cy="687.95" r="13.98"/><circle class="cls-42" cx="1303.13" cy="828.03" r="11.58" transform="translate(-298.45 1010.64) rotate(-45)"/><path class="cls-42" d="M1303.33,842.68a3.17,3.17,0,1,0,3.17,3.16A3.16,3.16,0,0,0,1303.33,842.68Z" transform="translate(-94.62 -153.34)"/><path class="cls-37" d="M1336.76,812.35c-.51-.41-1.26-1-2.22-1.83l-1.61-1.31c-.59-.48-1.23-1-1.94-1.55s-1.44-1.15-2.25-1.76l-2.57-1.91c-.92-.64-1.89-1.33-2.91-2s-2.1-1.39-3.24-2.07l-1.75-1c-.59-.35-1.22-.67-1.84-1-1.25-.7-2.58-1.33-4-2a62,62,0,0,0-9-3.28,47.51,47.51,0,0,0-10.25-1.62,41.92,41.92,0,0,0-10.4.83,40.28,40.28,0,0,0-9.18,3.09,45.25,45.25,0,0,0-7.44,4.42c-1.11.76-2.1,1.61-3.07,2.38s-1.82,1.62-2.67,2.37-1.57,1.55-2.29,2.26-1.34,1.45-2,2.1c-.29.34-.59.65-.86,1l-.77.91-1.35,1.59c-.79,1-1.39,1.73-1.81,2.23s-.65.76-.65.76.93-1,2.72-2.75l1.54-1.38c.57-.5,1.18-1,1.88-1.59s1.4-1.16,2.21-1.75,1.64-1.22,2.55-1.84l1.41-.93c.48-.32.95-.66,1.48-1,1-.6,2.07-1.27,3.22-1.84a52,52,0,0,1,7.37-3.27,44.45,44.45,0,0,1,8.5-2.16,47.12,47.12,0,0,1,9.34-.49,55.71,55.71,0,0,1,9.35,1.23,83.38,83.38,0,0,1,8.6,2.42c1.35.49,2.68.94,3.94,1.47s2.5,1,3.69,1.52c.6.25,1.17.52,1.74.78l1.67.77,3.12,1.53,2.8,1.48c.88.47,1.7.94,2.47,1.37,1.55.86,2.83,1.68,3.9,2.32,2.1,1.34,3.22,2.15,3.22,2.15S1337.27,812.76,1336.76,812.35Z" transform="translate(-94.62 -153.34)"/><path class="cls-37" d="M1300.31,898.83a70,70,0,0,1-13.63,2,82.55,82.55,0,0,1-14.14-.61,36.23,36.23,0,0,0,14.07,4.06,44.9,44.9,0,0,0,14.78-1.23,48.32,48.32,0,0,0,13.61-5.77,41.32,41.32,0,0,0,11-9.68,121.52,121.52,0,0,1-12.58,6.62A80.37,80.37,0,0,1,1300.31,898.83Z" transform="translate(-94.62 -153.34)"/><polygon class="cls-51" points="1612.91 160.61 1608.34 160.73 1608.34 160.74 1612.91 160.61"/><path class="cls-51" d="M1727.27,387.79c-19.86-19.88-31-43.53-33.28-70.34l-27.65,3.09-.37,0-.37,0c-2.16.07-5,.18-7.8.53-.61.07-1.21.15-1.81.24a153.82,153.82,0,0,0,256.78,98.28l-27.06-27.07a115.73,115.73,0,0,1-158.44-4.79Z" transform="translate(-94.62 -153.34)"/><path class="cls-51" d="M1807.87,153.34a152.84,152.84,0,0,0-108.8,45.06c-3.42,3.42-6.64,7-9.7,10.65l27.24,27.24a116.18,116.18,0,0,1,9.48-10.87,115.56,115.56,0,0,1,197.3,78.72q19-3.12,38-6.15a153.78,153.78,0,0,0-153.54-144.65Z" transform="translate(-94.62 -153.34)"/><polygon class="cls-52" points="1566.68 27.64 1550.77 135.3 1658.14 119.1 1622 82.95 1594.76 55.71 1566.68 27.64"/><polygon class="cls-52" points="1791.09 239.25 1818.15 266.31 1845.87 294.02 1862.06 186.65 1754.4 202.56 1791.09 239.25"/><polygon class="cls-53" points="1620.91 93.82 1620.91 115.31 1661.76 136.8 1661.76 115.31 1620.91 93.82"/><polygon class="cls-54" points="1661.76 115.31 1702.62 93.82 1702.62 115.31 1661.76 136.8 1661.76 115.31"/><polyline class="cls-55" points="1702.62 93.82 1661.76 72.32 1620.91 93.82 1661.76 115.31 1702.62 93.82"/><polygon class="cls-56" points="1620.91 115.31 1620.91 136.8 1661.76 158.3 1661.76 136.8 1620.91 115.31"/><polygon class="cls-57" points="1661.76 136.8 1702.62 115.31 1702.62 136.8 1661.76 158.3 1661.76 136.8"/><polygon class="cls-58" points="1620.91 136.8 1620.91 158.3 1661.76 179.79 1661.76 158.3 1620.91 136.8"/><polygon class="cls-59" points="1661.76 158.3 1661.76 179.79 1702.62 158.3 1702.62 136.8 1661.76 158.3"/><polygon class="cls-60" points="1620.91 158.3 1620.91 179.79 1661.76 201.28 1661.76 179.79 1620.91 158.3"/><polygon class="cls-61" points="1661.76 179.79 1702.62 158.3 1702.62 179.79 1661.76 201.28 1661.76 179.79"/><polygon class="cls-62" points="1620.91 179.79 1661.76 201.28 1661.76 222.77 1620.91 201.28 1620.91 179.79"/><polygon class="cls-53" points="1620.91 201.28 1620.91 222.78 1661.76 244.27 1661.76 222.77 1620.91 201.28"/><polygon class="cls-56" points="1620.91 222.78 1620.91 244.27 1661.76 265.76 1661.76 244.27 1620.91 222.78"/><polygon class="cls-57" points="1661.76 244.27 1784.33 179.79 1784.33 201.28 1661.76 265.76 1661.76 244.27"/><polygon class="cls-62" points="1641.34 83.07 1641.33 61.58 1682.19 83.07 1682.19 103.16 1641.34 83.07"/><polygon class="cls-63" points="1641.33 61.58 1743.48 7.85 1784.33 29.34 1682.19 83.07 1641.33 61.58"/><polygon class="cls-64" points="1702.62 179.79 1743.48 158.3 1784.33 179.79 1702.63 222.77 1702.62 179.79"/><polygon class="cls-58" points="1723.05 168.13 1763.9 190.53 1763.9 169.04 1723.04 147.55 1723.05 168.13"/><polygon class="cls-59" points="1763.9 169.04 1804.76 147.55 1804.76 169.04 1763.9 190.53 1763.9 169.04"/><polygon class="cls-65" points="1723.04 147.55 1763.9 126.06 1804.76 147.55 1763.9 169.04 1723.04 147.55"/><polygon class="cls-53" points="1743.48 136.8 1743.48 115.31 1784.32 136.8 1784.33 157.62 1743.48 136.8"/><polygon class="cls-54" points="1784.32 136.8 1825.18 115.31 1825.18 136.47 1784.33 157.62 1784.32 136.8"/><polygon class="cls-55" points="1743.48 115.31 1784.32 93.82 1825.18 115.31 1784.32 136.8 1743.48 115.31"/><polygon class="cls-60" points="1763.9 61.58 1763.9 82.37 1743.47 71.77 1763.9 61.58"/><polygon class="cls-61" points="1804.76 40.09 1763.9 61.58 1763.9 83.07 1804.75 61.58 1804.76 40.09"/><polygon class="cls-66" points="1784.33 29.34 1804.76 40.09 1784.33 50.83 1784.33 29.34"/><path class="cls-67" d="M1810.8,181.31s-1.91,6.86,6.84,6.86c9,0,6.84-6.54,6.84-6.54h-13.85" transform="translate(-94.62 -153.34)"/><path class="cls-68" d="M1824.48,181.63c0,2.45-3.06,4.44-6.84,4.44s-6.84-2-6.84-4.44,3.06-4.44,6.84-4.44S1824.48,179.18,1824.48,181.63Z" transform="translate(-94.62 -153.34)"/><path class="cls-67" d="M1831.23,170.21s-1.91,6.86,6.84,6.86c9,0,6.84-6.54,6.84-6.54h-13.86" transform="translate(-94.62 -153.34)"/><path class="cls-68" d="M1844.91,170.53c0,2.46-3.06,4.44-6.84,4.44s-6.84-2-6.84-4.44,3.06-4.44,6.84-4.44S1844.91,168.08,1844.91,170.53Z" transform="translate(-94.62 -153.34)"/><path class="cls-67" d="M1831.23,190.89s-1.91,6.86,6.84,6.86c9,0,6.84-6.53,6.84-6.53h-13.86" transform="translate(-94.62 -153.34)"/><path class="cls-68" d="M1844.91,191.22c0,2.45-3.06,4.43-6.84,4.43s-6.84-2-6.84-4.43,3.06-4.45,6.84-4.45S1844.91,188.76,1844.91,191.22Z" transform="translate(-94.62 -153.34)"/><path class="cls-67" d="M1790.37,191.94s-1.91,6.86,6.84,6.86c9,0,6.84-6.54,6.84-6.54H1790.2" transform="translate(-94.62 -153.34)"/><path class="cls-68" d="M1804.05,192.26c0,2.45-3.06,4.44-6.84,4.44s-6.84-2-6.84-4.44,3.06-4.44,6.84-4.44S1804.05,189.81,1804.05,192.26Z" transform="translate(-94.62 -153.34)"/><path class="cls-67" d="M1810.8,201.61s-1.91,6.86,6.84,6.86c9,0,6.84-6.54,6.84-6.54h-13.86" transform="translate(-94.62 -153.34)"/><path class="cls-68" d="M1824.48,201.93c0,2.45-3.06,4.45-6.84,4.45s-6.84-2-6.84-4.45,3.06-4.44,6.84-4.44S1824.48,199.48,1824.48,201.93Z" transform="translate(-94.62 -153.34)"/><path class="cls-67" d="M1769.94,201.61s-1.91,6.86,6.84,6.86c9,0,6.84-6.54,6.84-6.54h-13.85" transform="translate(-94.62 -153.34)"/><path class="cls-68" d="M1783.6,201.93c0,2.45-3.06,4.45-6.84,4.45s-6.84-2-6.84-4.45,3.06-4.44,6.84-4.44S1783.6,199.48,1783.6,201.93Z" transform="translate(-94.62 -153.34)"/><path class="cls-67" d="M1790.37,212.52s-1.91,6.86,6.84,6.86c9,0,6.84-6.54,6.84-6.54H1790.2" transform="translate(-94.62 -153.34)"/><path class="cls-68" d="M1804.05,212.84c0,2.45-3.06,4.44-6.84,4.44s-6.84-2-6.84-4.44,3.06-4.44,6.84-4.44S1804.05,210.39,1804.05,212.84Z" transform="translate(-94.62 -153.34)"/><path class="cls-67" d="M1749.52,211.8s-1.91,6.86,6.84,6.86c9,0,6.84-6.54,6.84-6.54h-13.86" transform="translate(-94.62 -153.34)"/><path class="cls-68" d="M1763.2,212.12c0,2.45-3.06,4.44-6.84,4.44s-6.84-2-6.84-4.44,3.06-4.44,6.84-4.44S1763.2,209.67,1763.2,212.12Z" transform="translate(-94.62 -153.34)"/><path class="cls-67" d="M1769.94,221.61s-1.91,6.86,6.84,6.86c9,0,6.84-6.54,6.84-6.54h-13.85" transform="translate(-94.62 -153.34)"/><path class="cls-68" d="M1783.62,221.93c0,2.46-3.06,4.45-6.84,4.45s-6.84-2-6.84-4.45,3.07-4.43,6.84-4.43S1783.62,219.48,1783.62,221.93Z" transform="translate(-94.62 -153.34)"/><path class="cls-54" d="M1749.51,255.13s-1.91,6.86,6.84,6.86c9,0,6.85-6.54,6.85-6.54h-13.86" transform="translate(-94.62 -153.34)"/><path class="cls-53" d="M1763.2,255.45c0,2.45-3.07,4.44-6.85,4.44s-6.84-2-6.84-4.44,3.06-4.44,6.84-4.44S1763.2,253,1763.2,255.45Z" transform="translate(-94.62 -153.34)"/><path class="cls-54" d="M1729.09,245.78s-1.91,6.87,6.84,6.87c9,0,6.84-6.54,6.84-6.54h-13.86" transform="translate(-94.62 -153.34)"/><path class="cls-53" d="M1742.77,246.11c0,2.45-3.06,4.44-6.84,4.44s-6.84-2-6.84-4.44,3.06-4.44,6.84-4.44S1742.77,243.66,1742.77,246.11Z" transform="translate(-94.62 -153.34)"/><path class="cls-59" d="M1851.65,309.59s-1.91,6.86,6.84,6.86c9,0,6.84-6.53,6.84-6.53h-13.85" transform="translate(-94.62 -153.34)"/><path class="cls-58" d="M1865.33,309.92c0,2.45-3.06,4.43-6.84,4.43s-6.84-2-6.84-4.43,3.06-4.45,6.84-4.45S1865.33,307.46,1865.33,309.92Z" transform="translate(-94.62 -153.34)"/><path class="cls-59" d="M1831.22,299.51s-1.91,6.86,6.85,6.86c9,0,6.84-6.53,6.84-6.53h-13.86" transform="translate(-94.62 -153.34)"/><path class="cls-58" d="M1844.91,299.84c0,2.45-3.07,4.44-6.84,4.44s-6.85-2-6.85-4.44,3.07-4.44,6.85-4.44S1844.91,297.39,1844.91,299.84Z" transform="translate(-94.62 -153.34)"/><path class="cls-67" d="M1851.66,181.31s-1.92,6.86,6.84,6.86c9,0,6.84-6.54,6.84-6.54h-13.86" transform="translate(-94.62 -153.34)"/><path class="cls-68" d="M1865.34,181.63c0,2.45-3.06,4.44-6.84,4.44s-6.84-2-6.84-4.44,3.06-4.44,6.84-4.44S1865.34,179.18,1865.34,181.63Z" transform="translate(-94.62 -153.34)"/><path class="cls-61" d="M1872.08,192.05s-1.91,6.86,6.85,6.86c9,0,6.84-6.53,6.84-6.53h-13.86" transform="translate(-94.62 -153.34)"/><path class="cls-60" d="M1885.77,192.38c0,2.45-3.07,4.44-6.84,4.44s-6.85-2-6.85-4.44,3.07-4.44,6.85-4.44S1885.77,189.93,1885.77,192.38Z" transform="translate(-94.62 -153.34)"/><path class="cls-54" d="M1892.48,267.28s-1.91,6.86,6.84,6.86c9,0,6.84-6.54,6.84-6.54h-13.85" transform="translate(-94.62 -153.34)"/><path class="cls-53" d="M1906.16,267.6c0,2.46-3.06,4.44-6.84,4.44s-6.84-2-6.84-4.44,3.06-4.44,6.84-4.44S1906.16,265.15,1906.16,267.6Z" transform="translate(-94.62 -153.34)"/><path class="cls-54" d="M1851.63,267.28s-1.91,6.86,6.84,6.86c9,0,6.84-6.54,6.84-6.54h-13.86" transform="translate(-94.62 -153.34)"/><path class="cls-53" d="M1865.31,267.6c0,2.46-3.06,4.44-6.84,4.44s-6.84-2-6.84-4.44,3.06-4.44,6.84-4.44S1865.31,265.15,1865.31,267.6Z" transform="translate(-94.62 -153.34)"/><path class="cls-54" d="M1872.08,257.19s-1.92,6.86,6.84,6.86c9,0,6.84-6.53,6.84-6.53H1871.9" transform="translate(-94.62 -153.34)"/><path class="cls-53" d="M1885.76,257.52c0,2.45-3.06,4.44-6.84,4.44s-6.84-2-6.84-4.44,3.06-4.45,6.84-4.45S1885.76,255.06,1885.76,257.52Z" transform="translate(-94.62 -153.34)"/><path class="cls-54" d="M1872.08,277.87s-1.92,6.86,6.84,6.86c9,0,6.84-6.53,6.84-6.53H1871.9" transform="translate(-94.62 -153.34)"/><path class="cls-53" d="M1885.76,278.2c0,2.45-3.06,4.44-6.84,4.44s-6.84-2-6.84-4.44,3.06-4.44,6.84-4.44S1885.76,275.74,1885.76,278.2Z" transform="translate(-94.62 -153.34)"/><path class="cls-57" d="M1810.8,351.65s-1.91,6.86,6.84,6.86c9,0,6.84-6.53,6.84-6.53h-13.86" transform="translate(-94.62 -153.34)"/><path class="cls-56" d="M1824.48,352c0,2.45-3.06,4.44-6.84,4.44s-6.84-2-6.84-4.44,3.06-4.44,6.84-4.44S1824.48,349.53,1824.48,352Z" transform="translate(-94.62 -153.34)"/><path class="cls-57" d="M1810.8,333s-1.91,6.86,6.84,6.86c9,0,6.84-6.54,6.84-6.54h-13.86" transform="translate(-94.62 -153.34)"/><path class="cls-56" d="M1824.48,333.36c0,2.46-3.06,4.45-6.84,4.45s-6.84-2-6.84-4.45,3.06-4.44,6.84-4.44S1824.48,330.91,1824.48,333.36Z" transform="translate(-94.62 -153.34)"/><path class="cls-57" d="M1790.37,362.6s-1.91,6.87,6.84,6.87c9,0,6.84-6.54,6.84-6.54H1790.2" transform="translate(-94.62 -153.34)"/><path class="cls-56" d="M1804.05,362.93c0,2.45-3.06,4.44-6.84,4.44s-6.84-2-6.84-4.44,3.06-4.44,6.84-4.44S1804.05,360.47,1804.05,362.93Z" transform="translate(-94.62 -153.34)"/><path class="cls-57" d="M1790.37,341.92s-1.91,6.86,6.84,6.86c9,0,6.84-6.53,6.84-6.53H1790.2" transform="translate(-94.62 -153.34)"/><path class="cls-56" d="M1804.05,342.25c0,2.45-3.06,4.44-6.84,4.44s-6.84-2-6.84-4.44,3.06-4.44,6.84-4.44S1804.05,339.79,1804.05,342.25Z" transform="translate(-94.62 -153.34)"/><path class="cls-57" d="M1831.23,341.92s-1.91,6.86,6.84,6.86c9,0,6.84-6.53,6.84-6.53h-13.86" transform="translate(-94.62 -153.34)"/><path class="cls-56" d="M1844.91,342.25c0,2.45-3.06,4.44-6.84,4.44s-6.84-2-6.84-4.44,3.06-4.44,6.84-4.44S1844.91,339.79,1844.91,342.25Z" transform="translate(-94.62 -153.34)"/><polygon class="cls-67" points="1682.19 83.07 1784.33 29.34 1784.33 50.83 1682.19 103.16 1682.19 83.07"/><polygon class="cls-67" points="1702.62 179.79 1702.62 201.28 1661.76 222.77 1661.76 201.28 1702.62 179.79"/><polygon class="cls-54" points="1702.62 201.28 1702.62 222.77 1661.76 244.27 1661.76 222.77 1702.62 201.28"/><path class="cls-69" d="M2161.82,2696.15c0,17-233.74,50.21-525.46,50.21s-518.12-37-518.12-54,223.66-26.95,515.38-26.95S2161.82,2679.15,2161.82,2696.15Z" transform="translate(-94.62 -153.34)"/><path class="cls-70" d="M2379.78,1936.5c0,21.47-366.36,74.47-778,74.47s-693.86-51.7-693.86-73.17,317.82-37,729.47-37S2379.78,1915,2379.78,1936.5Z" transform="translate(-94.62 -153.34)"/><path class="cls-5" d="M2283.72,1845.06c-432.72,28.18-874.16,26.26-1323.38-2.53a122.83,122.83,0,0,1-110.14-88.86L689.33,1190.86a13.41,13.41,0,0,1,14.19-17c611.32,58.79,1234.84,57.25,1869.84-.11a13.52,13.52,0,0,1,14.22,17.21l-154.32,533.85A167,167,0,0,1,2283.72,1845.06Z" transform="translate(-94.62 -153.34)"/><path class="cls-71" d="M2111.65,2606.17c-326.82,36.56-645.33,35.13-956.31-.64a98.34,98.34,0,0,1-83.08-69.47L896.85,1949a9,9,0,0,1,11-11.22c235,65.76,1262.12,71.15,1464.64-1a5.4,5.4,0,0,1,7,6.63l-176,586.13A108.5,108.5,0,0,1,2111.65,2606.17Z" transform="translate(-94.62 -153.34)"/><path class="cls-72" d="M1894.59,3366.33a1840.29,1840.29,0,0,1-523.2-.91,100.54,100.54,0,0,1-82.08-70.6l-176.93-592.11a8.14,8.14,0,0,1,9.1-10.38c331,52.94,727.25,50.25,1026.72.77a10.66,10.66,0,0,1,11.92,13.6l-174.63,581.63A111.05,111.05,0,0,1,1894.59,3366.33Z" transform="translate(-94.62 -153.34)"/><path class="cls-73" d="M2580.75,1175.15c0,25-415.06,45.36-942.26,45.36S696.3,1200.2,696.3,1175.15s415-45.35,942.19-45.35S2580.75,1150.1,2580.75,1175.15Z" transform="translate(-94.62 -153.34)"/><path class="cls-74" d="M1042.68,3376.88a10,10,0,0,1-10-10V2170a10,10,0,1,1,20,0v1196.9A10,10,0,0,1,1042.68,3376.88Z" transform="translate(-94.62 -153.34)"/><path class="cls-74" d="M771.32,3376.88a10,10,0,0,1-10-10V2170a10,10,0,0,1,20,0v1196.9A10,10,0,0,1,771.32,3376.88Z" transform="translate(-94.62 -153.34)"/><path class="cls-74" d="M104.63,3384.47a10,10,0,0,1-9.21-13.94L607.48,2166a10,10,0,1,1,18.43,7.84L113.85,3378.37A10,10,0,0,1,104.63,3384.47Z" transform="translate(-94.62 -153.34)"/><path class="cls-74" d="M420.92,3384.47a10,10,0,0,1-9.21-13.94L923.77,2166a10,10,0,1,1,18.43,7.84L430.14,3378.37A10,10,0,0,1,420.92,3384.47Z" transform="translate(-94.62 -153.34)"/><path class="cls-74" d="M1058.23,2181H589.17a14.11,14.11,0,0,1-14.12-14.11h0a14.12,14.12,0,0,1,14.12-14.11h469.06a14.11,14.11,0,0,1,14.11,14.11h0A14.11,14.11,0,0,1,1058.23,2181Z" transform="translate(-94.62 -153.34)"/><path class="cls-74" d="M855.63,2364.15H538.4a10,10,0,1,1,0-20H855.63a10,10,0,0,1,0,20Z" transform="translate(-94.62 -153.34)"/><rect class="cls-74" x="346.44" y="2418.58" width="317.23" height="20.03"/><rect class="cls-74" x="252.21" y="2646.38" width="317.23" height="20.03"/><path class="cls-74" d="M565.24,3047.55H248a10,10,0,1,1,0-20H565.24a10,10,0,0,1,0,20Z" transform="translate(-94.62 -153.34)"/><path class="cls-74" d="M469.7,3275.35H152.47a10,10,0,1,1,0-20H469.7a10,10,0,0,1,0,20Z" transform="translate(-94.62 -153.34)"/><path class="cls-75" d="M1149.93,1406.06,451.47,1981.62a65.12,65.12,0,0,0-5.48,95.45l4.33,4.49a60.53,60.53,0,0,0,85.87,1.3l651-635.66Z" transform="translate(-94.62 -153.34)"/><ellipse class="cls-76" cx="1456.31" cy="1100.1" rx="419.83" ry="412.26" transform="translate(-378.22 395.63) rotate(-19.49)"/><path class="cls-77" d="M1303.25,667.65C1060,753.74,931.39,1017.14,1015.92,1256s350.23,362.66,593.45,276.58,371.87-349.49,287.34-588.32S1546.48,581.57,1303.25,667.65ZM1586.89,1469c-207.49,73.44-434.16-32.19-506.28-236s37.64-428.45,245.13-501.89S1759.9,763.37,1832,967.12,1794.38,1395.58,1586.89,1469Z" transform="translate(-94.62 -153.34)"/><path class="cls-5" d="M1067.32,1296.38a1.67,1.67,0,0,1-1.48-.91c-4.92-9.75-9.51-19.82-13.66-29.93a1.65,1.65,0,0,1,3.06-1.25c4.11,10,8.67,20,13.55,29.7a1.64,1.64,0,0,1-1.47,2.39Zm-39.78-122a1.64,1.64,0,0,1-1.63-1.38,420.7,420.7,0,0,1-5-89.41c4.3-84.54,33.56-165.67,84.61-234.63,52.27-70.59,124.1-123.55,207.71-153.14a441,441,0,0,1,243.42-15.07,1.65,1.65,0,0,1-.72,3.22,437.84,437.84,0,0,0-241.6,15c-83,29.37-154.27,81.93-206.15,152-50.67,68.43-79.71,148.94-84,232.83a417.32,417.32,0,0,0,5,88.7,1.65,1.65,0,0,1-1.36,1.9A1.23,1.23,0,0,1,1027.54,1174.39Z" transform="translate(-94.62 -153.34)"/><path class="cls-5" d="M502.7,2080.12c-27.07,0-44.61-9.47-52.15-28.15-7.67-19-1.87-41.22,14.43-55.28l83-71.61a1.65,1.65,0,0,1,2.16,2.5l-83,71.61c-15.23,13.14-20.66,33.86-13.52,51.54,7,17.31,23.49,26.09,49.08,26.09h.84a1.66,1.66,0,0,1,0,3.31Z" transform="translate(-94.62 -153.34)"/><path class="cls-5" d="M574.61,1905.92a1.63,1.63,0,0,1-1.25-.58,1.65,1.65,0,0,1,.17-2.33l10.75-9.28a1.65,1.65,0,0,1,2.16,2.5l-10.75,9.29A1.72,1.72,0,0,1,574.61,1905.92Z" transform="translate(-94.62 -153.34)"/><path class="cls-78" d="M818.24,1879.15l-40.47,10.11,10.12,75.88s-15.18,15.18-20.24,35.41-9.72,105.19-9.72,105.19l-9.6,5.81-1.17,4.85L775.1,2154l-4.64-29.9c-.73-4.74.54-14.37.14-14.57C785.78,2069,818.24,1955,818.24,1955Z" transform="translate(-94.62 -153.34)"/><path class="cls-79" d="M830.06,2116.92c-.44,0-.87,0-1.31,0,2-24.4,10.9-131.77,19.84-172,10.11-45.53-15.18-136.58-15.18-136.58l-45.52,45.53,25.29,86c-17.33,26,2.83,178.26,2.39,178.19l0,.34-6.6,9.07.8,4.92,40.32,23.79-15.86-25.76A29,29,0,0,1,830.06,2116.92Z" transform="translate(-94.62 -153.34)"/><path class="cls-80" d="M778.85,1606.42s-88.64,99.9,0,151.12l9-6.54s-44-42.14,0-93.72Z" transform="translate(-94.62 -153.34)"/><path class="cls-81" d="M852.77,2159.89H839.91a7.74,7.74,0,0,1-6.15-3c-4-5.21-12.32-15.38-16.29-15.64-5.35-.36-4.67,18.65-4.67,18.65h-3l-3.8-23.63a14,14,0,0,1,7.34-14.62h0s1.23,9.05,7.86,13.05,27,18.32,27,18.32a18.17,18.17,0,0,1,5.23.14C857.47,2153.88,856.9,2159.89,852.77,2159.89Z" transform="translate(-94.62 -153.34)"/><path class="cls-82" d="M776.1,2158.43l-11.86-5a7.72,7.72,0,0,1-4.5-5.16c-1.68-6.36-5.39-19-9-20.74-4.8-2.41-11.54,15.39-11.54,15.39l-2.76-1.17,5.66-23.25a14,14,0,0,1,12.43-10.63h0s-2.37,8.81,2.19,15.07,17.76,27.35,17.76,27.35a18.36,18.36,0,0,1,4.76,2.16C782.75,2154.71,779.9,2160,776.1,2158.43Z" transform="translate(-94.62 -153.34)"/><path class="cls-83" d="M845,1731.35s-1.49,9.12.69,34.18,12.6,83.92,10.48,140.23c0,0-29.62,6.9-81.08,3.63,0,0-21.72-87.91-16.43-121.33s34-57.4,34-57.4Z" transform="translate(-94.62 -153.34)"/><polygon class="cls-84" points="728.5 1410.51 732.12 1453.08 697.73 1453.08 706.28 1388.1 728.5 1410.51"/><path class="cls-85" d="M782.16,1600.53c11.87-.65,38.41-1.87,57.21-.84A21.83,21.83,0,0,1,859.58,1617l4.59,22a53,53,0,0,1-.74,24.73L845,1731.35s-16.39,9.84-52.35-.69c0,0-31.59-75.32-18.66-123.5A9,9,0,0,1,782.16,1600.53Z" transform="translate(-94.62 -153.34)"/><path class="cls-86" d="M858.69,1613.09c5.06,13.35,9.64,27.34,14.55,40.45,2.5,6.56,5,13,7.75,18.89,1.37,2.94,2.88,5.65,4.26,8.1a36.63,36.63,0,0,0,3.76,5.37c.16.14-.37.24-.55.25s3.42.58,4.51.76l4.23,0a150.52,150.52,0,0,0,19.84-2.72c13.9-2.6,28.36-6.24,43.21-9l.11,0a5.23,5.23,0,0,1,4.41,9.07A153,153,0,0,1,945.86,1698c-3.32,2-6.69,4-10.11,5.92s-7,3.57-10.64,5.23a123.5,123.5,0,0,1-23.61,8c-2.29.39-4.55.79-6.91,1.1a76.52,76.52,0,0,1-7.94.16c-1.53-.15-3.07-.34-4.61-.56a20.31,20.31,0,0,1-2.41-.43c-1.06-.32-2.11-.67-3.14-1.06a32.75,32.75,0,0,1-5.33-2.7c-1.46-1-2.79-2-4.08-3a54.83,54.83,0,0,1-10.33-12,93.32,93.32,0,0,1-6.52-11.53,157.6,157.6,0,0,1-9-22.66,211.09,211.09,0,0,1-9.36-45.88,13.77,13.77,0,0,1,26.59-6.08Z" transform="translate(-94.62 -153.34)"/><path class="cls-87" d="M955.57,1682l6.14-14.57,32.3-8.05s2.59,5.6-11,8.05c0,0,4.85,5.36,2.26,11.66S955.25,1691.68,955.57,1682Z" transform="translate(-94.62 -153.34)"/><path class="cls-88" d="M837.68,1514.69c1.23.72,10.91,34.85,2.8,49.16s-32.87-1.72-39.58-22.41S805,1495.39,837.68,1514.69Z" transform="translate(-94.62 -153.34)"/><path class="cls-89" d="M773.51,1541.44c-5.56,27.21-24,19.76-37,31.87-21.13,19.62-51.35-.61-80.73,18-21.21,13.42-31.43,47.77-21.25,75.49,14.1,38.41,62.27,54.2,87.24,42.5,23.86-11.18,20.46-44.66,52.56-57.6,13.63-5.49,20.36-1.92,28.52-10.06,14.29-14.25,10.44-41.91,8.95-52.57-3.22-23.12-11-27.3-7.27-37.47,7.21-19.76,40.82-15.68,43.62-29.63,2.55-12.71-21.81-36.79-44.74-33C768,1494.83,776,1529.32,773.51,1541.44Z" transform="translate(-94.62 -153.34)"/><path class="cls-5" d="M645.13,1660.29a.93.93,0,0,1-.9-.71c-4.54-18.86-2.48-34.32,6.13-46,14.28-19.32,42-21.23,42.33-21.25a1,1,0,0,1,1,.87.93.93,0,0,1-.87,1c-.27,0-27.2,1.89-41,20.51-8.26,11.18-10.21,26.12-5.8,44.41a.93.93,0,0,1-.69,1.12A.83.83,0,0,1,645.13,1660.29Z" transform="translate(-94.62 -153.34)"/><path class="cls-5" d="M736.06,1677.55l-.11,0a.47.47,0,0,1-.34-.56c4.43-17,12.19-28.76,23.07-35,7.92-4.57,15.34-5,21.88-5.37,6.3-.36,11.75-.67,16.13-4.57,9.06-8.06,8.54-27.44-1.56-57.59a.47.47,0,0,1,.3-.59.46.46,0,0,1,.58.3c10.23,30.53,10.67,50.24,1.3,58.57-4.63,4.11-10.22,4.44-16.7,4.81s-13.74.79-21.46,5.24c-10.66,6.15-18.28,17.75-22.64,34.47A.46.46,0,0,1,736.06,1677.55Z" transform="translate(-94.62 -153.34)"/><path class="cls-5" d="M786.65,1534.69l-.15,0a.45.45,0,0,1-.29-.59c3.51-10.46,13.64-8.9,24.38-7.25,6.79,1,13.82,2.12,19.78.35,4.44-1.32,7.08-3.36,7.85-6.07,1.3-4.62-3.27-9.76-3.31-9.82a.46.46,0,0,1,0-.65.47.47,0,0,1,.66,0c.2.23,4.95,5.58,3.51,10.69-.85,3-3.71,5.3-8.48,6.71-6.16,1.83-13.29.73-20.18-.33-10.78-1.65-20.09-3.09-23.36,6.64A.48.48,0,0,1,786.65,1534.69Z" transform="translate(-94.62 -153.34)"/></g></g></svg>