<svg xmlns="http://www.w3.org/2000/svg" viewBox="0 0 93.59 73.22"><g id="Layer_2" data-name="Layer 2"><g id="Layer_1-2" data-name="Layer 1"><path d="M77.62,0H4.2C1.88,0,0,2.24,0,5H0c0,2.76,1.88,5,4.2,5H39.66c1.78,0,3.22,1.71,3.22,3.82h0c0,2.12-1.44,3.83-3.22,3.83h-6.2c-4.53,0-8.2,4.36-8.2,9.75h-13c-2.45,0-4.45,2.36-4.45,5.29h0c0,2.92,2,5.29,4.45,5.29H77.62c8.82,0,16-8.5,16-19h0C93.59,8.5,86.44,0,77.62,0Z" style="fill:#fee9c6"/><path d="M54.92,22.45H34a.1.1,0,0,1-.1-.1.1.1,0,0,1,.1-.11h21a.11.11,0,0,1,.1.11A.11.11,0,0,1,54.92,22.45Z" style="fill:#2b337c"/><path d="M53.24,27.79h-27a.1.1,0,0,1,0-.2h27a.1.1,0,0,1,0,.2Z" style="fill:#2b337c"/><path d="M44.77,34.36H30.07a.1.1,0,0,1,0-.2h14.7a.1.1,0,1,1,0,.2Z" style="fill:#2b337c"/><path d="M36.3,72.45c0,.43,11,.77,24.61.77s24.62-.34,24.62-.77-11-.78-24.62-.78S36.3,72,36.3,72.45Z" style="fill:#6177ba"/><path d="M72.17,44.81c-.8.27-3.16,1.18-3.78,2.09l.93.67c0,1.41,1.56,9.54,2.62,15.18a4.58,4.58,0,0,1,2.13-.31L73.22,46.6Z" style="fill:#f37575"/><path d="M76.83,9.34c-.06.06.44,3.62.2,3.75l-.64.35Z" style="fill:#34173a"/><path d="M74.31,9.43s-1.49-1.2-2.13-1.18-1.56.72-2,.54-.43-.41-.43-.41a1.48,1.48,0,0,0-.29.64c0,.33,1,.58,1.45.73s.5.32.5.32-1.55.58-2.41-.14A4,4,0,0,1,68,8.72s-.33.78-.18,1.1a1.52,1.52,0,0,1-1.14-1c-.27-.82-.11-1-.11-1a.82.82,0,0,0-.52.61c-.15.52-.76.38-.76.38a2.41,2.41,0,0,0,.3,2,5,5,0,0,0,4,2.19c1.17,0,3-.48,3.4-1.46a5,5,0,0,1,.85-1.42Z" style="fill:#2f499f"/><path d="M72.94,15.79a4.18,4.18,0,0,1,1.58,1c.74.75-1.08,9.93,0,9.93s6.39-1.21,7.17-2,.65-1.72,2.3-1.9.69.73.29.73-.54.2-.54.38,1,.08,1.28.36,0,2.68-.53,2.68-.84-.83-2.33-.33S72.9,31.15,71.32,30,72.94,15.79,72.94,15.79Z" style="fill:#f15f5c"/><path d="M72,15.52a6.08,6.08,0,0,1,2.59.39c.78.48,0,8.57,0,8.57l-4.1-1.2Z" style="fill:#7578b9"/><path d="M56.89,31.36,64,36.24s1.12-1.73,2.11-3.67L60.37,29.3A7.54,7.54,0,0,0,56.89,31.36Z" style="fill:#222459"/><path d="M74.34,23.63c1.53-1.5.59-2.3,0-4.94a18,18,0,0,1-.54-4.06c0-1.67-3.25-1.59-3.61-1.23s-4.37,5-5.91,8.86a45.56,45.56,0,0,1-3.91,7l5.75,3.27c.26-.52.51-1.06.73-1.58C67.89,28.52,72.81,25.13,74.34,23.63Z" style="fill:#c6c5e3"/><path d="M74.25,9.34,70.19,13.4s2,2.62,3.19,2.38a7.54,7.54,0,0,1,1.26-2.59c.73-.74,2.13-1.32,1.8-1.32S74.25,9.34,74.25,9.34Z" style="fill:#f15f5c"/><path d="M73.72,9.87l.53-.53s1.86,2.53,2.19,2.53-.41.3-1.07.74A9.58,9.58,0,0,1,73.72,9.87Z" style="fill:#c04845"/><path d="M53.37,43.84l-.32.81a10.32,10.32,0,0,0-2.78-.73c-.66,0-7.46.56-12.14.8a10.63,10.63,0,0,0-1.71,2.18c5.66.76,17.1,2.26,18.14,2.26.34,0,1-.63,1.79-1.59C55.46,46.27,54.37,45.05,53.37,43.84Z" style="fill:#f15f5c"/><path d="M34,48.37S37.8,45,38.8,45.16a1.55,1.55,0,0,1,1.13,2c-.22.62-1.58.38-2.51.57a29.62,29.62,0,0,0-2.87.92Z" style="fill:#252c64"/><path d="M39,43.74,32.21,44l-1.85,7.22s1.13.8,1.85.38,3.22-3.61,4.44-3.88,2.78-.91,2.75-2.11A3.75,3.75,0,0,0,39,43.74Z" style="fill:#2e813f"/><path d="M34.15,43.39a1.16,1.16,0,0,1,.36,1.34c-.37.75-2.34,1.19-2.94,2.27s-.72,4.3-.72,4.45-.4.43-.71-.29,1.54-6.85,1.83-7.48S34.15,43.39,34.15,43.39Z" style="fill:#222459"/><path d="M32.57,44.37a4.44,4.44,0,0,0-.25-2.31A2.72,2.72,0,0,0,31,41l-.56,1.55a3.37,3.37,0,0,1,.93,1.73C31.37,45.12,32.57,44.37,32.57,44.37Z" style="fill:#222459"/><path d="M30.78,45.63a1,1,0,0,1-1-1,1,1,0,0,1,.92-1.09,1,1,0,0,1,1,1A1,1,0,0,1,30.78,45.63Z" style="fill:#603f6b"/><path d="M30.12,47.83a1,1,0,0,1-1-1,1,1,0,0,1,.91-1.09,1,1,0,0,1,1,1A1,1,0,0,1,30.12,47.83Z" style="fill:#603f6b"/><path d="M29.47,50.36a1.07,1.07,0,1,1,.91-1.09A1,1,0,0,1,29.47,50.36Z" style="fill:#603f6b"/><path d="M28.82,52.65a1,1,0,0,1-1-1,1,1,0,1,1,1,1Z" style="fill:#603f6b"/><path d="M30.79,48.65s-2.55,2.47-2.43,3.13,2-.61,2-.61Z" style="fill:#222459"/><path d="M29.57,49.56,30.66,47l.31-2.9L32,43a.29.29,0,0,0,0-.38.22.22,0,0,0-.34,0l-1.11,1.2-.33,3-1.05,2.46a.27.27,0,0,0,.11.35A.23.23,0,0,0,29.57,49.56Z" style="fill:#2b337c"/><path d="M31.79,43.05a.13.13,0,0,1-.13-.13.14.14,0,0,1,.12-.15.13.13,0,0,1,.13.14A.12.12,0,0,1,31.79,43.05Z" style="fill:#bbbadd"/><path d="M30.78,44.13a.13.13,0,0,1-.13-.14.13.13,0,0,1,.12-.14.13.13,0,0,1,.13.14A.13.13,0,0,1,30.78,44.13Z" style="fill:#bbbadd"/><path d="M30.47,47a.13.13,0,0,1-.13-.14.13.13,0,1,1,.25,0A.14.14,0,0,1,30.47,47Z" style="fill:#bbbadd"/><path d="M29.35,49.54a.13.13,0,0,1-.13-.13.14.14,0,0,1,.12-.15.13.13,0,0,1,.13.14A.13.13,0,0,1,29.35,49.54Z" style="fill:#bbbadd"/><path d="M28.8,51.74a.15.15,0,1,1,.12-.15A.14.14,0,0,1,28.8,51.74Z" style="fill:#bbbadd"/><path d="M37.81,45.22l.33,2.44-1.2.24-.19-2.4a.62.62,0,0,1,.39-.71h0A.55.55,0,0,1,37.81,45.22Z" style="fill:#2b337c"/><path d="M35.72,46l.58,2.11-1.18.7-.45-2.53a.62.62,0,0,1,.39-.72h0A.55.55,0,0,1,35.72,46Z" style="fill:#2b337c"/><path d="M33.71,47.28l1.06,1.81-1,.92-1-2.1A.66.66,0,0,1,33,47.1h0A.51.51,0,0,1,33.71,47.28Z" style="fill:#2b337c"/><path d="M76.39,66.92s-3.89-3.49-3.88-4.53,1.4-1.34,2.06-1.19.4,1.36.72,2.3a28.86,28.86,0,0,0,1.29,2.82Z" style="fill:#252c64"/><path d="M71,62.39l1,6.9,7.63,1s.68-1.25.16-1.93-4.09-2.86-4.52-4.07-1.27-2.74-2.5-2.56A4,4,0,0,0,71,62.39Z" style="fill:#39ab49"/><path d="M71.27,67.37a1.19,1.19,0,0,1,1.33-.53c.81.29,1.5,2.25,2.69,2.73s4.49.21,4.64.19.49.36-.21.76-7.21-.73-7.89-1S71.27,67.37,71.27,67.37Z" style="fill:#222459"/><path d="M72.47,68.87a4.55,4.55,0,0,0-2.33.54,2.82,2.82,0,0,0-.89,1.5l1.66.38a3.49,3.49,0,0,1,1.65-1.17C73.38,70,72.47,68.87,72.47,68.87Z" style="fill:#222459"/><path d="M74,70.55A1,1,0,0,1,73,71.67a1.05,1.05,0,0,1-1.22-.81,1,1,0,0,1,.93-1.12A1,1,0,0,1,74,70.55Z" style="fill:#603f6b"/><path d="M76.31,71a1.1,1.1,0,1,1-1.23-.81A1.06,1.06,0,0,1,76.31,71Z" style="fill:#603f6b"/><path d="M79,71.32a1,1,0,0,1-.93,1.12,1.06,1.06,0,0,1-1.23-.81A1.1,1.1,0,0,1,79,71.32Z" style="fill:#603f6b"/><path d="M81.42,71.7a1,1,0,0,1-.94,1.12A1.06,1.06,0,0,1,79.25,72a1,1,0,0,1,.94-1.12A1,1,0,0,1,81.42,71.7Z" style="fill:#603f6b"/><path d="M77.07,70.17s2.85,2.31,3.5,2.11-.86-2-.86-2Z" style="fill:#222459"/><path d="M78.15,71.31l-2.73-.8-3,0-1.23-.88a.29.29,0,0,0-.39,0,.22.22,0,0,0,0,.34l1.37,1,3.12,0,2.65.78a.29.29,0,0,0,.35-.16A.24.24,0,0,0,78.15,71.31Z" style="fill:#2b337c"/><path d="M71.22,69.83a.14.14,0,0,1-.13.15.14.14,0,0,1-.16-.11.13.13,0,0,1,.12-.15A.16.16,0,0,1,71.22,69.83Z" style="fill:#bbbadd"/><path d="M72.44,70.74a.13.13,0,0,1-.12.15.16.16,0,0,1-.17-.11.14.14,0,0,1,.13-.15A.14.14,0,0,1,72.44,70.74Z" style="fill:#bbbadd"/><path d="M75.42,70.7a.13.13,0,0,1-.12.15.15.15,0,0,1-.17-.11.14.14,0,0,1,.13-.15A.14.14,0,0,1,75.42,70.7Z" style="fill:#bbbadd"/><path d="M78.16,71.54c0,.07,0,.13-.12.15a.16.16,0,0,1-.17-.11.14.14,0,0,1,.13-.15A.13.13,0,0,1,78.16,71.54Z" style="fill:#bbbadd"/><path d="M80.48,71.83a.14.14,0,0,1-.13.15.14.14,0,0,1-.16-.11.14.14,0,0,1,.13-.15A.14.14,0,0,1,80.48,71.83Z" style="fill:#bbbadd"/><path d="M72.7,63.4l2.49-.63L75.55,64l-2.44.49a.62.62,0,0,1-.77-.32h0A.55.55,0,0,1,72.7,63.4Z" style="fill:#2b337c"/><path d="M73.7,65.44l2.09-.84.86,1.12-2.54.77a.63.63,0,0,1-.78-.32h0A.57.57,0,0,1,73.7,65.44Z" style="fill:#2b337c"/><path d="M75.31,67.35,77,66l1.06.85-2,1.33a.69.69,0,0,1-.86-.08h0A.53.53,0,0,1,75.31,67.35Z" style="fill:#2b337c"/><path d="M57.54,33.67,53.25,44c1,1.21,2.21,2.31,3.1,3.61,2.49-3,6.36-9.13,6.36-9.13Z" style="fill:#222459"/><path d="M61,30.54c-3.49-1.74-6.61,3.07-5.12,5.7,1.13,2,11.66,10.21,12.93,11A21.37,21.37,0,0,1,72.29,45C69.9,41.11,64,32.05,61,30.54Z" style="fill:#2f499f"/><path d="M83.07,24.19s2.27-.26,2.38,0c.23.66-.11.55-.11.92s.17.4,0,.56-.18.27-.18.64-.55,1-.74.85-1.86-.76-1.86-1.06,1.14.14,1.14.14-1.28-.54-1.28-.76,1.77.25,1.77.25-1.54-.36-1.65-.66.81-.26,1.73-.13a3.28,3.28,0,0,1-1.4-.43C82.58,24.22,83.07,24.19,83.07,24.19Z" style="fill:#f37576"/><path d="M71,16.06c0,2.66-8.78-.72-9.1,1.85s1.9,10.28,2.3,10.28S66,29,66,29.59s.24,1.55,0,1.83-.48.13-.75.13-.47.16-.9.16-.41.23-.88.23-.92-.09-1.06-1.2a7,7,0,0,0-.46-2.48c-.37-.79-3.3-10.46-2.7-13.32S71,13.4,71,16.06Z" style="fill:#f37575"/><path d="M78.49,4.34a2.6,2.6,0,0,1,1.33,1.94c0,1.19-.81,1.46-.81,2.16s.75,1.06,1.07,1.25a.18.18,0,0,1,.06.24,1.4,1.4,0,0,1-.48.52,3.51,3.51,0,0,1,.09.64c0,.26-.39.24-.39.24s.2.4,0,.48-.24.06-.3.12a1.48,1.48,0,0,0-.45.68c-.23.54-1.17,1-1.92,0a10.08,10.08,0,0,1-2-3.56c-.15-.9-.87-.86-.7-1.19s1-3.48,2.57-3.48Z" style="fill:#f37576"/><path d="M77.06,4.1a5.85,5.85,0,0,0-2.82,1.2c-1.46,1.09-1,4.12,0,4.28S77,8,77,7,78.53,5.11,77.06,4.1Z" style="fill:#2f499f"/><path d="M76.39,7.87s-.25-1.28-.86-1.08S74.77,8,74.77,8.51A.77.77,0,0,0,76,9,1.66,1.66,0,0,0,76.39,7.87Z" style="fill:#f37576"/><path d="M75.42,7s.56.61.36,1.11-.5.47-.77.2S74.78,6.7,75.42,7Z" style="fill:#f15f5c"/><path d="M78.54,8.86a.61.61,0,0,0,.25-.63Z" style="fill:#304a9f"/><path d="M79.61,8.14c-.53.08-1.5.14-1.88-.24C78,8.42,79,8.48,79.61,8.14Z" style="fill:#222559"/><path d="M77.75,7.5s.94-.35,1.1-.24.11.29,0,.31a4.2,4.2,0,0,0-.65,0A.71.71,0,0,1,77.75,7.5Z" style="fill:#304a9f"/><path d="M79.36,11.33a2.19,2.19,0,0,1-.7-.19C79,11.24,79.36,11.33,79.36,11.33Z" style="fill:#304a9f"/><path d="M63.55,12.87l.29,4.8s5.16.95,6.57,0a2.22,2.22,0,0,0,.47-3.16C69.56,13.19,63.55,12.87,63.55,12.87Z" style="fill:#e4e3f2"/><path d="M72.49,5a5.52,5.52,0,0,0,.85,4,7.2,7.2,0,0,0,2.48,1.8c.44,0-.07-2.69.41-3.39s2.4-.49,3.58-.17c.35.1,1.42-1,.68-2.59S73.73.41,72.49,5Z" style="fill:#603f6b"/><path d="M79.7,4.85c-2.26-1.6-4.34-1.27-5.12-.27s-.2,1.9-.67,1.92c-.22,0-.25-.27-.23-.23C73.76,3.69,76,3.05,78,3.87A6.91,6.91,0,0,1,79.7,4.85Z" style="fill:#e4e3f2"/><path d="M75.27,9.34l-.41.25s1,3.27,1.53,3.85l.64-.35Z" style="fill:#e4e3f2"/><path d="M75.82,8.86a1,1,0,1,1-1-1A1,1,0,0,1,75.82,8.86Z" style="fill:#734c7c"/><polygon points="71.21 47.28 68.94 47.3 69.47 49.02 71.31 47.57 71.21 47.28"/><path d="M73.39,49.9a7.5,7.5,0,0,0,.76-3.25c-.09-1.6-2.54-2.75-2.54-2.75s.4,2.63-.45,2.7-.43,1.87.22,1.51C72.49,47.49,73.39,49.9,73.39,49.9Z" style="fill:#552f5d"/><polygon points="52.21 44.34 53.58 46.6 53.91 46.6 53.25 43.89 52.21 44.34"/><path d="M51.39,48.83s2.25,1.36,3.6,1,2-3.06,2-3.06-2.47.26-2.84-.47-1.29-.13-1.13.29C53.43,47.7,51.39,48.83,51.39,48.83Z" style="fill:#552f5d"/><polygon points="61.24 16.42 61.93 17.73 62.64 17.18 61.42 16.02 61.24 16.42"/><path d="M61.4,13.19a3.88,3.88,0,0,0-2.81,1.08c-.84,1.12.22,3.58.22,3.58s1.61-1.45,2.35-1.1a.48.48,0,0,0,.55-.79C61.3,15.78,61.4,13.19,61.4,13.19Z" style="fill:#552f5d"/><path d="M73.44,7.61a.5.5,0,0,0-.5.23c-.09.18.12.39.33.42.36.05,1-.64,1.44-.39.13.08.44.47.54.52a1.14,1.14,0,0,0,1.23-.27h0a.9.9,0,0,1-.4.52c-.93.58-1.41-.22-1.63-.43a1.2,1.2,0,0,0-.51.13,1.42,1.42,0,0,1-.74.17.65.65,0,0,1-.55-.74,1,1,0,0,1,.58-.57Z" style="fill:#2f499f"/><polygon points="74.18 25.86 72.82 27.5 73.27 27.76 74.64 26.7 74.18 25.86"/><path d="M70.61,27.22s-.67,2.2.46,3S74.64,30,74.64,30s-1.29-1.4-1-2.15-.8-1.12-1-.71S70.61,27.22,70.61,27.22Z" style="fill:#552f5d"/></g></g></svg>