<svg xmlns="http://www.w3.org/2000/svg" viewBox="0 0 98.82 98.82"><defs><style>.cls-1{fill:#f37666;}.cls-2{fill:#054062;}.cls-3{fill:#fdb816;}.cls-4{fill:#66c8c9;}</style></defs><g id="Layer_2" data-name="Layer 2"><g id="Layer_1-2" data-name="Layer 1"><circle class="cls-1" cx="49.41" cy="49.41" r="49.41"/><circle class="cls-2" cx="33.61" cy="27.56" r="1.48"/><circle class="cls-2" cx="28.17" cy="30.99" r="1.48"/><circle class="cls-2" cx="39.66" cy="32.94" r="1.48"/><circle class="cls-2" cx="38.11" cy="28.1" r="1.48"/><circle class="cls-2" cx="33.61" cy="33.1" r="1.48"/><circle class="cls-2" cx="29.27" cy="36.77" r="1.48"/><circle class="cls-2" cx="34.51" cy="38.64" r="1.48"/><circle class="cls-2" cx="39.66" cy="43.45" r="1.48"/><circle class="cls-2" cx="31.13" cy="44.93" r="1.48"/><circle class="cls-3" cx="58.92" cy="33.52" r="1.48"/><circle class="cls-2" cx="45.62" cy="31.52" r="1.48"/><circle class="cls-3" cx="63.69" cy="35.9" r="1.48"/><circle class="cls-3" cx="62.71" cy="31.19" r="1.48"/><circle class="cls-3" cx="61.12" cy="40.26" r="1.48"/><circle class="cls-2" cx="46.72" cy="37.3" r="1.48"/><circle class="cls-2" cx="51.96" cy="39.17" r="1.48"/><circle class="cls-2" cx="41.62" cy="36.77" r="1.48"/><circle class="cls-2" cx="46.39" cy="43.36" r="1.48"/><circle class="cls-4" cx="52.73" cy="51.22" r="1.48"/><circle class="cls-4" cx="38.62" cy="58.23" r="1.48"/><circle class="cls-4" cx="58.78" cy="56.6" r="1.48"/><circle class="cls-4" cx="57.23" cy="51.76" r="1.48"/><circle class="cls-4" cx="52.73" cy="56.76" r="1.48"/><circle class="cls-4" cx="48.39" cy="60.43" r="1.48"/><circle class="cls-4" cx="53.63" cy="62.3" r="1.48"/><circle class="cls-4" cx="45.1" cy="64.34" r="1.48"/><circle class="cls-4" cx="50.25" cy="68.58" r="1.48"/><circle class="cls-4" cx="64.75" cy="55.18" r="1.48"/><circle class="cls-4" cx="65.84" cy="60.96" r="1.48"/><circle class="cls-4" cx="71.08" cy="62.83" r="1.48"/><circle class="cls-4" cx="60.74" cy="60.43" r="1.48"/><circle class="cls-4" cx="65.52" cy="67.02" r="1.48"/><circle class="cls-3" cx="67.88" cy="30.69" r="1.48"/><circle class="cls-4" cx="45.69" cy="57.02" r="1.48"/><circle class="cls-4" cx="35.76" cy="60.91" r="1.48"/><circle class="cls-4" cx="39.32" cy="63.81" r="1.48"/><circle class="cls-4" cx="42.1" cy="68.56" r="1.48"/><circle class="cls-4" cx="31.45" cy="59.55" r="1.48"/><circle class="cls-4" cx="46.16" cy="71.8" r="1.48"/><path class="cls-2" d="M77.57,77.57H21.84a.58.58,0,0,1-.59-.59V21.25h1.18V76.39H77.57Z"/><circle class="cls-4" cx="42.33" cy="49.74" r="1.48"/></g></g></svg>