<svg xmlns="http://www.w3.org/2000/svg" xmlns:xlink="http://www.w3.org/1999/xlink" viewBox="0 0 2756.97 2800"><defs><linearGradient id="linear-gradient" x1="3585.93" y1="4072.52" x2="1121.27" y2="1011.56" gradientUnits="userSpaceOnUse"><stop offset="0" stop-color="#dae3fe"/><stop offset="1" stop-color="#e9effd"/></linearGradient><linearGradient id="linear-gradient-2" x1="5363.39" y1="-1443.27" x2="212.77" y2="2946.92" gradientUnits="userSpaceOnUse"><stop offset="0" stop-color="#e1473d"/><stop offset="1" stop-color="#e9605a"/></linearGradient><linearGradient id="linear-gradient-3" x1="6114.62" y1="-561.92" x2="963.99" y2="3828.28" xlink:href="#linear-gradient-2"/><linearGradient id="linear-gradient-4" x1="555.06" y1="2735.66" x2="5026.37" y2="-1999.26" gradientUnits="userSpaceOnUse"><stop offset="0" stop-color="#ff928e"/><stop offset="1" stop-color="#fe7062"/></linearGradient><linearGradient id="linear-gradient-5" x1="1902.81" y1="1951.44" x2="889.06" y2="3071.63" xlink:href="#linear-gradient-4"/><linearGradient id="linear-gradient-6" x1="7779.64" y1="3089.18" x2="7159.28" y2="3763.95" gradientTransform="translate(-6484.35)" gradientUnits="userSpaceOnUse"><stop offset="0" stop-color="#09005d"/><stop offset="1" stop-color="#1a0f91"/></linearGradient><linearGradient id="linear-gradient-7" x1="7578.28" y1="3139.3" x2="7633.38" y2="3139.3" gradientTransform="translate(-6484.35)" gradientUnits="userSpaceOnUse"><stop offset="0" stop-color="#febbba"/><stop offset="1" stop-color="#ff928e"/></linearGradient><linearGradient id="linear-gradient-8" x1="7828.48" y1="2326.09" x2="7300.62" y2="3041.54" xlink:href="#linear-gradient-6"/><linearGradient id="linear-gradient-9" x1="7640.47" y1="2961.24" x2="7020.12" y2="3636.01" xlink:href="#linear-gradient-6"/><linearGradient id="linear-gradient-10" x1="7379.69" y1="3136.47" x2="7427.26" y2="3136.47" xlink:href="#linear-gradient-7"/><linearGradient id="linear-gradient-11" x1="7734.4" y1="2256.68" x2="7206.54" y2="2972.13" xlink:href="#linear-gradient-6"/><linearGradient id="linear-gradient-12" x1="1063.41" y1="1938.34" x2="1904.94" y2="488.46" gradientUnits="userSpaceOnUse"><stop offset="0" stop-color="#4f52ff"/><stop offset="1" stop-color="#4042e2"/></linearGradient><linearGradient id="linear-gradient-13" x1="-3067.84" y1="1373.75" x2="-2970.62" y2="1651.53" gradientTransform="matrix(-1, 0, 0, 1, -1509.07, 0)" xlink:href="#linear-gradient-7"/><linearGradient id="linear-gradient-14" x1="-3150.94" y1="1402.83" x2="-3053.72" y2="1680.61" gradientTransform="matrix(-1, 0, 0, 1, -1509.07, 0)" xlink:href="#linear-gradient-7"/><linearGradient id="linear-gradient-15" x1="-3076.25" y1="1580.3" x2="-3149.49" y2="1432.58" gradientTransform="matrix(-1, 0, 0, 1, -1509.07, 0)" xlink:href="#linear-gradient-7"/><linearGradient id="linear-gradient-16" x1="888.36" y1="1836.74" x2="1729.9" y2="386.86" xlink:href="#linear-gradient-12"/><linearGradient id="linear-gradient-17" x1="7189.02" y1="2100.49" x2="7545.28" y2="2100.49" xlink:href="#linear-gradient-7"/><linearGradient id="linear-gradient-18" x1="7518.83" y1="2063.14" x2="7629.81" y2="2063.14" xlink:href="#linear-gradient-7"/><linearGradient id="linear-gradient-19" x1="7462.58" y1="1719.63" x2="7603.43" y2="1719.63" xlink:href="#linear-gradient-7"/><linearGradient id="linear-gradient-20" x1="252.65" y1="3487.18" x2="200.02" y2="3313.58" gradientTransform="matrix(0.75, -0.67, 0.67, 0.75, -1358.02, -803.17)" xlink:href="#linear-gradient-7"/><linearGradient id="linear-gradient-21" x1="205.16" y1="3184.71" x2="249.19" y2="3435.83" gradientTransform="matrix(0.75, -0.67, 0.67, 0.75, -1358.02, -803.17)" xlink:href="#linear-gradient-6"/><linearGradient id="linear-gradient-22" x1="198.84" y1="3486.37" x2="151.49" y2="3330.18" gradientTransform="matrix(0.75, -0.67, 0.67, 0.75, -1358.02, -803.17)" xlink:href="#linear-gradient-7"/></defs><g id="Illustration"><path d="M2907.89,2865.39c-56.62,59.6-110.18,98-152.5,128.4-497.48,356.95-1086.14,252.9-1211.24,227.49-184.74-37.52-541.84-110.05-800-413.66-390.6-459.34-329.78-1183-26.8-1660.72,55.42-87.38,348.16-572.37,943.15-650.14,360.08-47.07,779.82,47.86,1083.79,302.52C3382.32,1333.84,3336.89,2413.74,2907.89,2865.39Z" transform="translate(-470.48 -455)" style="fill:url(#linear-gradient)"/><path d="M2355.22,3161.41a17.84,17.84,0,0,1-12-7.06c-42-56.59-347.3-499.44,59-904.24,385.74-384.28,560.59-463.18,583.85-689,2.71-26.36,38.36-32.69,50.09-8.92,87.65,177.65,224.21,592.19-227.71,864.28C2310,2716.64,2350.86,3045.65,2375,3139.15a17.9,17.9,0,0,1-19.74,22.26Z" transform="translate(-470.48 -455)" style="fill:#91b3fa"/><path d="M2417,3169.83a25.81,25.81,0,0,1-22.08-21.61c-11.9-77-41.12-364.76,170.87-441.07,233.37-84,421.78,133.34,593.33-36.77,9-9,24.2-1.15,22.05,11.38-15.28,88.86-83.28,294.69-385.86,336.1-323.86,44.33-360.31,81.48-353.77,127.57,2,14.21-10.32,26.33-24.54,24.4Z" transform="translate(-470.48 -455)" style="fill:#91b3fa"/><path d="M2974.85,1791.34a332.5,332.5,0,0,1-15.5,48.07,485.23,485.23,0,0,1-21,45.66c-15.32,29.84-33.7,58.07-53.84,85-40.53,53.65-89.57,100.78-143.62,140.75a920.44,920.44,0,0,1-84.26,54.63,765.91,765.91,0,0,0-80,53.58,842.05,842.05,0,0,0-138.52,133.81c-81.62,99.26-139.54,219-158.61,346.59a674.06,674.06,0,0,0-1.08,192.93c8.66,64.24,27,127.14,51.11,187.79a6.31,6.31,0,0,1-11.56,5.06c-28.24-59.94-49.33-123.66-61-189.45a657,657,0,0,1-5.68-200.21c8.11-66.74,26.94-132.11,54.05-193.65s63.11-119.08,105.07-171.54,90.61-99.53,143.82-140.59a804.15,804.15,0,0,1,83.63-56.46c28.48-16.34,55.52-32.95,81.72-51.85,52.27-37.34,100.58-80.45,142.15-129.65a678.38,678.38,0,0,0,57.5-77.68c17.06-27.26,33-56,44.48-85.76l.15-.39a5.77,5.77,0,0,1,11,3.4Z" transform="translate(-470.48 -455)" style="fill:#fff;opacity:0.47000000000000003"/><path d="M2403.6,3117.6c1-2.79.68-5.38.59-8l-.25-7.94-.18-15.86q0-15.87.7-31.71c.94-21.13,2.74-42.24,5.57-63.23,5.77-41.93,15.27-83.74,32.19-123.11,16.74-39.11,42.08-76.48,78.87-100.89A173.88,173.88,0,0,1,2581.5,2742c21.41-4.51,43.4-5.18,64.91-3.29,84.31,9.78,166.94,25.94,249.79,39.07,41.27,6.15,83.12,11.64,123.64,6.1a182.72,182.72,0,0,0,29.62-6.77,155.25,155.25,0,0,0,27.66-12.35c17.62-10.06,33.11-23.82,47-39.08l0,0a5.14,5.14,0,0,1,7.69,6.82c-14,16.15-30.06,31.08-48.8,42.33a168.23,168.23,0,0,1-29.57,14,196.69,196.69,0,0,1-31.66,8c-43.15,6.32-85.93.94-127.67-4.78-41.86-6-83.2-13.72-124.68-20.43s-83.19-13.24-124.37-18.07c-20.33-2-40.88-1.49-60.7,2.51a160.13,160.13,0,0,0-55.81,22.37c-34.23,21.8-59.06,56.48-75.92,94-17.06,37.73-27.2,78.58-33.63,119.8-3.17,20.65-5.33,41.47-6.64,62.35q-1,15.67-1.28,31.37l-.11,15.69.1,7.83c.07,2.6-.05,5.26,1.23,7.73a4.77,4.77,0,1,1-8.74.61Z" transform="translate(-470.48 -455)" style="fill:#fff;opacity:0.47000000000000003"/><path d="M1963.11,486.8c-127-1-255.13,19.14-368.48,66.17-263.87,109.48-487.8,399.17-400.17,695.07,28.47,96.12,13.51,202.17,109.27,243.94,51.81,22.6,192.91,36.06,246.56,18.24,142.59-47.34,236.31-176.9,158.76-320.59-24.83-46-57-88-78.42-135.73s-31.22-104.29-9.36-151.79c42.92-93.23,185.49-122.87,277.94-120.08,109.13,3.3,208,57.28,266.73,149.87,73.19,115.4,91.73,255.75,81,389.71-11.47,143.33-71.9,252.78-162.47,362.74-78,94.66-163.85,185.53-215.67,296.69-47.58,102.05-63.13,215.12-65.28,326.76-.42,21.64-108,225.56-107.57,287.86.07,8.8,122,38,130.86,38.05l223.89,2.51a17.85,17.85,0,0,0,18.07-17.61c3.41-303.09,96.64-592.06,332.64-795.62,85.87-74.07,178.35-134.39,245.12-227.88,95.17-133.25,142.13-264.38,128.58-428.83-12.38-150.2-61.84-300.48-159.74-417C2510.17,624,2356.16,545.8,2196.09,512.05A1180.49,1180.49,0,0,0,1963.11,486.8Z" transform="translate(-470.48 -455)" style="fill:url(#linear-gradient-2)"/><path d="M2197.34,2976c0,139.37-77.25,262.68-216.63,262.68-30.1,0-132.51.28-159.28-9.39-97.16-35.1-97.51-109.75-97.51-219,0-139.38,47.06-276.45,186.44-276.45S2197.34,2836.61,2197.34,2976Z" transform="translate(-470.48 -455)" style="fill:url(#linear-gradient-3)"/><path d="M1842.42,455c-127-1-255.13,19.14-368.48,66.17-263.87,109.48-487.8,399.17-400.17,695.07,28.47,96.12,94.29,217.12,190,258.89,51.81,22.6,112.13,21.1,165.78,3.29,142.59-47.34,236.31-176.91,158.76-320.59-24.83-46-57-88-78.42-135.73s-31.22-104.29-9.36-151.79c42.92-93.24,185.49-122.87,277.94-120.08,109.13,3.3,208,57.28,266.73,149.87,73.19,115.39,91.73,255.75,81,389.7-11.47,143.34-71.9,252.79-162.47,362.75-78,94.66-163.85,185.53-215.67,296.69-47.58,102-63.13,215.12-65.28,326.76-.42,21.64,6.87,247.61,7.33,309.9a16.13,16.13,0,0,0,16,16l223.89,2.51a17.85,17.85,0,0,0,18.07-17.61c3.41-303.1,96.64-592.06,332.64-795.62,85.87-74.07,178.35-134.39,245.12-227.88C2621,1430.1,2668,1299,2654.44,1134.52c-12.38-150.2-61.84-300.48-159.74-417C2389.48,592.26,2235.47,514,2075.4,480.29A1180.49,1180.49,0,0,0,1842.42,455Z" transform="translate(-470.48 -455)" style="fill:url(#linear-gradient-4)"/><circle cx="1385.11" cy="2523.51" r="252.36" style="fill:url(#linear-gradient-5)"/><path d="M1157.3,1187.29a3.23,3.23,0,0,1-3.15-2.54c-17.69-79.85-20.29-204.9,67.78-347.15,86-138.85,206.52-231.75,358.35-276.13,162.31-47.44,355-37.29,572.76,30.18a3.24,3.24,0,1,1-1.91,6.19c-418.35-129.63-746.38-43.27-923.7,243.17-86.91,140.4-84.39,263.66-67,342.34a3.23,3.23,0,0,1-2.46,3.86A2.87,2.87,0,0,1,1157.3,1187.29Z" transform="translate(-470.48 -455)" style="fill:#fff;opacity:0.63"/><path d="M1210.39,1315.77a3.24,3.24,0,0,1-2.62-1.33c-.76-1-19-26.17-35.86-70.43a3.24,3.24,0,0,1,6-2.31c16.58,43.38,34.86,68.67,35,68.92a3.23,3.23,0,0,1-2.61,5.15Z" transform="translate(-470.48 -455)" style="fill:#fff;opacity:0.63"/><path d="M1940,2814.94a3.2,3.2,0,0,1-1.46-.35,181.72,181.72,0,0,0-83-19.77,3.24,3.24,0,1,1,0-6.48,188.2,188.2,0,0,1,85.91,20.47,3.24,3.24,0,0,1-1.47,6.13Z" transform="translate(-470.48 -455)" style="fill:#fff;opacity:0.63"/><path d="M1751.08,3136.74a3.23,3.23,0,0,1-1.81-.55,190.22,190.22,0,0,1,16.41-325.29,3.24,3.24,0,1,1,3.07,5.7,183.74,183.74,0,0,0-15.86,314.22,3.24,3.24,0,0,1-1.81,5.92Z" transform="translate(-470.48 -455)" style="fill:#fff;opacity:0.63"/><g style="opacity:0.30000000000000004"><path d="M1016.11,927.13a7.64,7.64,0,0,1-10.75,1.13c-6.36-5.15-13.05-10.11-19.87-14.73a7.63,7.63,0,0,1-2.12-10.48l.08-.13a7.62,7.62,0,0,1,10.6-2c7.18,4.86,14.22,10.08,20.93,15.51a7.64,7.64,0,0,1,1.13,10.73Zm-65.36-33.81c-7.39-3.64-15-7-22.63-10a7.64,7.64,0,1,1,5.58-14.22c8,3.14,16,6.68,23.81,10.52A7.63,7.63,0,0,1,961,889.86a6.06,6.06,0,0,1-.45.78A7.62,7.62,0,0,1,950.75,893.32Zm-61-22c-8-1.9-16.16-3.48-24.28-4.69a7.64,7.64,0,0,1,2.25-15.11c8.56,1.28,17.16,2.94,25.57,5a7.64,7.64,0,0,1,5.66,9.2,7.53,7.53,0,0,1-1,2.39A7.63,7.63,0,0,1,889.8,871.3Zm-64.35-7.83c-8.22-.07-16.54.21-24.73.84a7.63,7.63,0,1,1-1.17-15.22c8.62-.67,17.38-1,26-.9a7.64,7.64,0,0,1-.13,15.28ZM761,870.16c-8,1.76-16.06,3.87-23.92,6.31a7.64,7.64,0,1,1-4.51-14.6c8.27-2.55,16.74-4.78,25.17-6.63A7.64,7.64,0,1,1,761,870.16ZM699.57,891c-7.44,3.48-14.82,7.33-21.94,11.44A7.64,7.64,0,0,1,670,889.17c7.49-4.32,15.26-8.37,23.09-12A7.64,7.64,0,0,1,699.57,891ZM527.44,1116.35a7.64,7.64,0,0,1-6.41-8.69c1.29-8.54,3-17.15,5-25.57a7.64,7.64,0,0,1,14.85,3.57c-1.93,8-3.52,16.17-4.74,24.28a7.64,7.64,0,0,1-8.7,6.41Zm116.9-191.52c-6.47,5-12.81,10.44-18.82,16a7.64,7.64,0,0,1-10.39-11.2c6.33-5.88,13-11.56,19.82-16.88a7.64,7.64,0,1,1,9.39,12.05ZM543.07,1051.65a7.64,7.64,0,0,1-4.3-9.91c3.17-8,6.72-16,10.57-23.8a7.64,7.64,0,0,1,13.68,6.79c-3.65,7.37-7,15-10,22.62a7.68,7.68,0,0,1-9.91,4.3Zm55-81.47c-5.17,6.37-10.14,13-14.77,19.84a7.63,7.63,0,0,1-12.71-8.45.42.42,0,0,1,.09-.14c4.86-7.16,10.09-14.18,15.54-20.89a7.64,7.64,0,0,1,12.34,9C598.41,969.74,598.25,970,598.07,970.18Z" transform="translate(-470.48 -455)" style="fill:#91b3fa"/><path d="M531.82,1166.49a7.58,7.58,0,0,0,1.23-4.39c-.13-3.94-.17-7.94-.13-11.9a7.64,7.64,0,0,0-15.28-.14c0,4.16,0,8.37.14,12.52a7.64,7.64,0,0,0,14,3.91Z" transform="translate(-470.48 -455)" style="fill:#91b3fa"/></g><g style="opacity:0.30000000000000004"><path d="M629.43,1377.88a7.65,7.65,0,0,0-1.29-9.82c-2.92-2.64-5.84-5.38-8.66-8.16a7.64,7.64,0,1,0-10.7,10.9c3,2.92,6,5.81,9.12,8.59a7.66,7.66,0,0,0,11.53-1.51Z" transform="translate(-470.48 -455)" style="fill:#91b3fa"/><path d="M1069.83,1332.14a7.64,7.64,0,0,1-12.39-8.94c4.7-6.51,9.2-13.33,13.42-20.32a7.64,7.64,0,1,1,13.08,7.88q-2.75,4.56-5.61,9C1075.6,1323.94,1072.74,1328.11,1069.83,1332.14Zm23.1-54.4a7.64,7.64,0,0,1-4-10c3.21-7.43,6.13-15.09,8.7-22.74a7.64,7.64,0,1,1,14.48,4.85c-2.7,8.06-5.78,16.11-9.15,23.94a7.34,7.34,0,0,1-.62,1.14A7.63,7.63,0,0,1,1092.93,1277.74Zm-49.71,86.39c-5.87,6.15-12.08,12.13-18.47,17.77a7.64,7.64,0,1,1-10.12-11.44c6.07-5.36,12-11,17.54-16.87a7.63,7.63,0,0,1,11.93,9.42A7.23,7.23,0,0,1,1043.22,1364.13Zm70.46-148.52a7.63,7.63,0,0,1-6.1-8.91c1.49-8,2.66-16,3.48-24.09a7.63,7.63,0,1,1,15.19,1.54c-.86,8.46-2.09,17-3.66,25.36a7.86,7.86,0,0,1-1.09,2.76A7.66,7.66,0,0,1,1113.68,1215.61ZM991.77,1407.24c-7.07,4.7-14.44,9.16-21.91,13.26a7.63,7.63,0,1,1-7.35-13.38c7.09-3.9,14.09-8.14,20.81-12.61a7.64,7.64,0,1,1,8.45,12.73ZM932.12,1438c-7.94,3-16.11,5.8-24.27,8.17a7.64,7.64,0,0,1-4.27-14.67c7.76-2.25,15.52-4.87,23.07-7.76a7.64,7.64,0,1,1,5.47,14.26Zm-64.94,17c-8.42,1.25-17,2.15-25.48,2.69a7.64,7.64,0,0,1-1-15.24c8.06-.51,16.2-1.37,24.21-2.56a7.64,7.64,0,1,1,2.23,15.11Zm-67.11,2.47c-8.49-.62-17.06-1.62-25.46-3a7.64,7.64,0,1,1,2.41-15.08c8,1.27,16.11,2.22,24.18,2.81a7.64,7.64,0,0,1-1.13,15.23ZM734,1445.18c-8.12-2.47-16.25-5.33-24.16-8.49a7.64,7.64,0,0,1,5.67-14.19c7.51,3,15.23,5.72,23,8.07a7.65,7.65,0,0,1,5.08,9.54,7.76,7.76,0,0,1-.9,1.93A7.63,7.63,0,0,1,734,1445.18Zm-61.66-26.51c-5.45-3.09-10.87-6.38-16.11-9.78-1.9-1.24-3.77-2.49-5.64-3.76a7.56,7.56,0,0,1-2-10.61,7.66,7.66,0,0,1,10.62-2c1.76,1.2,3.55,2.4,5.35,3.57,5,3.24,10.14,6.36,15.32,9.3a7.64,7.64,0,0,1,2.88,10.41c-.08.13-.16.27-.25.4A7.63,7.63,0,0,1,672.36,1418.67Z" transform="translate(-470.48 -455)" style="fill:#91b3fa"/><path d="M1126.36,1146.78a7.62,7.62,0,0,0,1.23-4.44c-.15-4.13-.39-8.33-.71-12.5a7.64,7.64,0,0,0-15.23,1.18c.31,4,.53,8,.68,11.88a7.63,7.63,0,0,0,14,3.88Z" transform="translate(-470.48 -455)" style="fill:#91b3fa"/></g><path d="M1030.57,1057.53a3.56,3.56,0,0,0-3.32-2.48l-43.43-1a189.12,189.12,0,0,0-39.61-46.79l6.2-43a3.6,3.6,0,0,0-1.9-3.69L902.17,936.8a3.57,3.57,0,0,0-4.1.59l-31.37,30a189.22,189.22,0,0,0-61.1-5l-26-34.79a3.58,3.58,0,0,0-4-1.26L726,942.22a3.57,3.57,0,0,0-2.48,3.32L722.58,989a189.39,189.39,0,0,0-46.8,39.62l-43-6.2a3.55,3.55,0,0,0-3.68,1.9l-23.85,46.33a3.56,3.56,0,0,0,.59,4.1l30,31.37a189.22,189.22,0,0,0-5,61.1l-34.79,26a3.59,3.59,0,0,0-1.26,4l15.9,49.62a3.57,3.57,0,0,0,3.32,2.48l43.44,1A188.91,188.91,0,0,0,697.07,1297l-6.2,43a3.58,3.58,0,0,0,1.9,3.69l46.34,23.84a3.57,3.57,0,0,0,4.1-.59l31.36-30a189.28,189.28,0,0,0,61.11,5l26,34.79a3.55,3.55,0,0,0,3.94,1.26l49.63-15.9a3.58,3.58,0,0,0,2.48-3.32l1-43.43a189.39,189.39,0,0,0,46.8-39.62l43,6.2a3.56,3.56,0,0,0,3.68-1.9l23.85-46.33a3.57,3.57,0,0,0-.6-4.1l-30-31.37a189.22,189.22,0,0,0,5-61.1l34.79-26a3.56,3.56,0,0,0,1.26-3.95Z" transform="translate(-470.48 -455)" style="fill:#91b3fa"/><path d="M859.93,1186.8a52.39,52.39,0,1,1,4.65-6.13A53.75,53.75,0,0,1,859.93,1186.8Zm-79.37-32.12a40.16,40.16,0,1,0,10-29.08,42,42,0,0,0-3.6,4.74A39.88,39.88,0,0,0,780.56,1154.68Z" transform="translate(-470.48 -455)" style="fill:#bdd0fb"/><path d="M927.43,1222.79a131.92,131.92,0,0,0,6.65-11.45h0c.64-1.24,1.26-2.49,1.86-3.76a129.12,129.12,0,0,0,7.33-19.28,2.76,2.76,0,0,0,.08-.27c.08-.25.15-.51.22-.76.14-.5.28-1,.41-1.5a3.05,3.05,0,0,0-1.28-3.35,3.19,3.19,0,0,0-.88-.39,3.06,3.06,0,0,0-3.74,2.16,122.77,122.77,0,0,1-185.58,71,122.69,122.69,0,1,1,171.26-167.54,3.05,3.05,0,0,0,5.19-3.22,129,129,0,0,0-50.45-46.5c-63.15-32.5-141-7.55-173.46,55.58a128.82,128.82,0,0,0,44.12,166.8,132.1,132.1,0,0,0,11.46,6.65,128.8,128.8,0,0,0,166.81-44.13Z" transform="translate(-470.48 -455)" style="fill:#bdd0fb"/><g style="opacity:0.30000000000000004"><path d="M1327.34,817.62A4.73,4.73,0,0,0,1327,812c-2.61-3-5.35-6-8.13-8.92a4.72,4.72,0,0,0-6.78,6.56c2.65,2.74,5.26,5.6,7.75,8.5a4.7,4.7,0,0,0,7.53-.5Z" transform="translate(-470.48 -455)" style="fill:#91b3fa"/><path d="M1301,792.76a4.73,4.73,0,0,1-6.64.71,196,196,0,0,0-16-11.61c-1.16-.76-2.34-1.5-3.53-2.24a4.72,4.72,0,0,1-1.52-6.49,4.89,4.89,0,0,1,6.5-1.52q1.86,1.15,3.69,2.34a202.22,202.22,0,0,1,16.8,12.18,4.71,4.71,0,0,1,1,6.23C1301.2,792.5,1301.11,792.63,1301,792.76Zm-47.27-24.5a195.88,195.88,0,0,0-22.31-8.71,4.72,4.72,0,1,1,2.88-9,202.93,202.93,0,0,1,23.39,9.13,4.72,4.72,0,0,1-4,8.56Zm-45.54-14.59a193.64,193.64,0,0,0-23.77-2.95,4.72,4.72,0,1,1,.58-9.42,202.59,202.59,0,0,1,24.93,3.1,4.72,4.72,0,0,1,3.77,5.51,4.66,4.66,0,0,1-.68,1.69A4.72,4.72,0,0,1,1208.2,753.67Zm-47.73-2.95a197.18,197.18,0,0,0-23.76,2.95,4.72,4.72,0,1,1-1.74-9.27,202.17,202.17,0,0,1,24.92-3.09,4.71,4.71,0,1,1,.58,9.41Zm-47,8.79a195.46,195.46,0,0,0-22.33,8.64,4.72,4.72,0,0,1-3.94-8.58,205.58,205.58,0,0,1,23.42-9.05,4.72,4.72,0,1,1,2.85,9ZM1070,779.45a192.87,192.87,0,0,0-19.54,13.81,4.72,4.72,0,0,1-5.91-7.36,203.94,203.94,0,0,1,20.49-14.48,4.72,4.72,0,0,1,6.44,6.58A4.66,4.66,0,0,1,1070,779.45Zm-37.23,29.94a193.72,193.72,0,0,0-15.57,18.2,4.72,4.72,0,0,1-7.53-5.69A205.21,205.21,0,0,1,1026,802.82a4.72,4.72,0,0,1,7.35,5.85A6.43,6.43,0,0,1,1032.8,809.39Zm-45.63,62.13a4.72,4.72,0,0,1-2.51-6.18,209.94,209.94,0,0,1,9.57-19.61c.54-1,1.08-1.92,1.63-2.88a4.68,4.68,0,0,1,6.45-1.72,4.73,4.73,0,0,1,1.72,6.45c-.52.89-1,1.79-1.54,2.72A196,196,0,0,0,993.35,869a4.63,4.63,0,0,1-.39.73A4.71,4.71,0,0,1,987.17,871.52Z" transform="translate(-470.48 -455)" style="fill:#91b3fa"/></g><g style="opacity:0.30000000000000004"><path d="M1341.58,1058.05a204.5,204.5,0,0,1-14.93,19.66,4.72,4.72,0,0,1-7.16-6.15,194.33,194.33,0,0,0,14.25-18.75,4.72,4.72,0,0,1,7.88,5.19Zm6.13-19.26a4.7,4.7,0,0,1-2.07-6.33,198.08,198.08,0,0,0,9.38-21.63,4.72,4.72,0,0,1,8.86,3.23,205.6,205.6,0,0,1-9.83,22.66,4.6,4.6,0,0,1-.25.44A4.71,4.71,0,0,1,1347.71,1038.79Zm-38.29,56.64a205.32,205.32,0,0,1-19.26,15.47,4.72,4.72,0,0,1-5.45-7.7,196.43,196.43,0,0,0,18.37-14.76,4.71,4.71,0,0,1,7.12,6.06A4.59,4.59,0,0,1,1309.42,1095.43Zm55.82-101.53a4.73,4.73,0,0,1-3.54-5.66,192.27,192.27,0,0,0,3.88-23.24,4.72,4.72,0,1,1,9.38,1,203.24,203.24,0,0,1-4.06,24.38,4.64,4.64,0,0,1-.65,1.51A4.71,4.71,0,0,1,1365.24,993.9Zm-96,130a205.84,205.84,0,0,1-22.41,10.39,4.72,4.72,0,0,1-3.44-8.79,195.19,195.19,0,0,0,21.37-9.91,4.72,4.72,0,0,1,6.19,6.73A4.82,4.82,0,0,1,1269.19,1123.91Zm-45.9,18a204.81,204.81,0,0,1-24.25,4.73,4.72,4.72,0,0,1-1.24-9.35,196.79,196.79,0,0,0,23.13-4.51,4.71,4.71,0,0,1,5.13,7.14A4.67,4.67,0,0,1,1223.29,1141.91Zm-48.89,6.5a203.07,203.07,0,0,1-24.68-1.23,4.71,4.71,0,1,1,1-9.37,192.43,192.43,0,0,0,23.53,1.16,4.72,4.72,0,0,1,.11,9.44Z" transform="translate(-470.48 -455)" style="fill:#91b3fa"/><path d="M1375.28,943.73a4.75,4.75,0,0,0,.75-2.66c-.07-4-.26-8.09-.57-12a4.72,4.72,0,0,0-9.41.73c.3,3.77.48,7.64.55,11.49a4.72,4.72,0,0,0,8.68,2.48Z" transform="translate(-470.48 -455)" style="fill:#91b3fa"/></g><path d="M1311.41,880.61a2.4,2.4,0,0,0-2.23-1.66l-29.06-.64A126.48,126.48,0,0,0,1253.61,847l4.15-28.75a2.38,2.38,0,0,0-1.27-2.47l-31-15.95a2.38,2.38,0,0,0-2.75.4l-21,20.08a126.81,126.81,0,0,0-40.89-3.37l-17.41-23.28a2.4,2.4,0,0,0-2.64-.84l-33.2,10.64a2.38,2.38,0,0,0-1.66,2.22l-.64,29.06A126.66,126.66,0,0,0,1074,861.24l-28.75-4.15a2.39,2.39,0,0,0-2.46,1.27l-16,31a2.37,2.37,0,0,0,.4,2.74l20.08,21a126.83,126.83,0,0,0-3.37,40.89l-23.28,17.41a2.4,2.4,0,0,0-.84,2.64l10.64,33.21a2.4,2.4,0,0,0,2.22,1.66l29.06.63a126.69,126.69,0,0,0,26.51,31.32l-4.15,28.75a2.41,2.41,0,0,0,1.27,2.47l31,16a2.38,2.38,0,0,0,2.74-.39l21-20.09a126.55,126.55,0,0,0,40.89,3.37l17.41,23.28a2.36,2.36,0,0,0,2.64.84l33.21-10.64a2.4,2.4,0,0,0,1.66-2.22l.64-29.06a126.61,126.61,0,0,0,31.31-26.51l28.75,4.15a2.38,2.38,0,0,0,2.47-1.27l16-31a2.38,2.38,0,0,0-.39-2.74l-20.09-21a126.53,126.53,0,0,0,3.37-40.89l23.28-17.41a2.38,2.38,0,0,0,.85-2.64Z" transform="translate(-470.48 -455)" style="fill:#91b3fa"/><path d="M1197.69,967.52a35.54,35.54,0,1,1,3.2-4.21A36.5,36.5,0,0,1,1197.69,967.52Zm-44.12-3.91a26.23,26.23,0,0,0,37-2.33h0a26.24,26.24,0,1,0-37,2.33Z" transform="translate(-470.48 -455)" style="fill:#bdd0fb"/><path d="M1244.68,992.57q2.43-3.75,4.53-7.82a89,89,0,0,0,6.62-16.85l.21-.78a4.7,4.7,0,0,0-2-5.18,4.45,4.45,0,0,0-1.35-.6,4.73,4.73,0,0,0-5.78,3.33,79.47,79.47,0,0,1-6.11,15.76h0l-.43.83a78.76,78.76,0,0,1-26,28.9,80.13,80.13,0,0,1-19.24,9.35l-.17,0-.51.17a79.42,79.42,0,1,1,43.22-117.59,4.6,4.6,0,0,0,1.44,1.47,4.71,4.71,0,0,0,6.57-6.44,88.86,88.86,0,1,0-124,121.34q3.81,2.47,7.91,4.59A89,89,0,0,0,1244.68,992.57Z" transform="translate(-470.48 -455)" style="fill:#bdd0fb"/><polygon points="1812.17 857.78 1675 998.09 1839.54 954.14 1812.17 857.78" style="fill:#91b3fa"/><path d="M3098.85,1370.86l-779.42,37.82a35.07,35.07,0,0,1-36.78-35V1053a64.52,64.52,0,0,1,62.52-64.48l702.46-21.74a94.72,94.72,0,0,1,94.72,94.72V1325.2A45.72,45.72,0,0,1,3098.85,1370.86Z" transform="translate(-470.48 -455)" style="fill:#91b3fa"/><path d="M2342.74,1395.81a48.18,48.18,0,0,1-48.11-48.2v-289c0-34.06,27.3-61.56,62.16-62.62l680.14-20.54c51.55,0,93.45,40.91,93.45,91.19V1315.8c0,24-19.21,43.67-43.73,44.83l-741.56,35.12C2344.31,1395.79,2343.52,1395.81,2342.74,1395.81Zm694.24-417-680.09,20.54c-33,1-58.89,27-58.89,59.24v289a44.82,44.82,0,0,0,46.94,44.76l741.55-35.12c22.72-1.07,40.51-19.28,40.51-41.45V1066.64C3127,1018.22,3086.62,978.83,3037,978.83Z" transform="translate(-470.48 -455)" style="fill:#fff;opacity:0.85"/><path d="M1099.19,3139.45s-6.42,36.37-9.57,72.37a24.81,24.81,0,0,0,23.73,26.88c47.94,2,150.5,5.88,187.3,4.24a8.07,8.07,0,0,0,7.1-11.06h0a18.07,18.07,0,0,0-9.24-9.73l-169.41-77.86Z" transform="translate(-470.48 -455)" style="fill:url(#linear-gradient-6)"/><path d="M1093.93,3118.08l5.16,43.5s29.67,13.82,49.94-1.74l-12.29-48.48Z" transform="translate(-470.48 -455)" style="fill:url(#linear-gradient-7)"/><path d="M1097.81,2300.2c-2.23,11.36-12,566.92,47.42,815.89a8.47,8.47,0,0,1-5,9.83,147.25,147.25,0,0,1-48.37,9.83,14.56,14.56,0,0,1-14.44-10.44c-17-57.77-98.31-347.19-108.92-623.66-11.86-308.93,0-10.51,0-10.51l7-191Z" transform="translate(-470.48 -455)" style="fill:url(#linear-gradient-8)"/><path d="M904.32,3158.42s-10.23,18.37-20.13,67.16a15.13,15.13,0,0,0,13.32,18.12c15.83,1.56,40.2,3.56,59.72,3.42a15.08,15.08,0,0,0,14.94-16.83c-2.16-17.81-8.9-47-29.71-69.8Z" transform="translate(-470.48 -455)" style="fill:url(#linear-gradient-9)"/><path d="M895.34,3102.47l12.06,65.79s11.92,8.87,35.51,2.44l-5.75-70.79Z" transform="translate(-470.48 -455)" style="fill:url(#linear-gradient-10)"/><path d="M862.76,2317.25c-48.57,293.12,10.53,724.47,30.47,808.9a13.14,13.14,0,0,0,10.63,10c8.89,1.48,23.54,2.68,38-1.51a12.08,12.08,0,0,0,8.67-11.11c2.67-68.26-2.14-487.29,43.12-652.89a37.61,37.61,0,0,1,14.51-20.75l87.83-62.44,6.74-100.94Z" transform="translate(-470.48 -455)" style="fill:url(#linear-gradient-11)"/><path d="M1172.24,1761.84c-145.55-2.41-306.15,38.21-306.15,38.21-43.39,253.16-7.59,545.17-7.59,545.17,112.68,29.55,239.8-18.07,239.8-18.07,18.73-105.82,106.11-403.61,106.11-403.61,71.12-8.83,129.7-29.35,177.95-56.48-36.8-42.65-54.15-96.93-61.69-129C1269.21,1754,1217.14,1762.58,1172.24,1761.84Z" transform="translate(-470.48 -455)" style="fill:url(#linear-gradient-12)"/><path d="M1602.18,1547.44c-14.29-17.27-32.39-9.1-32.39-9.1-21.42,90.48-133.73,163.84-249.12,199.7,7.54,32.09,24.89,86.37,61.69,129C1573.85,1759.4,1602.18,1547.44,1602.18,1547.44Z" transform="translate(-470.48 -455)" style="fill:url(#linear-gradient-13)"/><path d="M1598.71,1551.83c1.5,4.76-15.82,12-26-7.45-.35-9.32-6-49.26-.45-56.86,29.67-40.45,87.19-91.16,87.19-91.16,9.73,9.6,1.72,19,1.72,19l-27.91,29.07c5.84,10.55,13,19.45,16.29,32.21a39,39,0,0,1-3.9,28.78c-4.89,8.83-11.58,20.3-17.9,29.28C1615.77,1551.71,1598.71,1551.83,1598.71,1551.83Z" transform="translate(-470.48 -455)" style="fill:url(#linear-gradient-14)"/><path d="M1621,1463.31l-25.43,21.56-8,21.46,22.67,25.16s7.63-42.59,13.29-51.81S1626.3,1466,1621,1463.31Z" transform="translate(-470.48 -455)" style="fill:url(#linear-gradient-15)"/><path d="M921.92,1941l-55.83-140.94s-136,92.38-158.32,209.5c25.69,1.89,72.44,8.58,118.19,31.68C836,1985.93,921.92,1941,921.92,1941Z" transform="translate(-470.48 -455)" style="fill:url(#linear-gradient-16)"/><path d="M1040.73,2073.61s-152.65,86.27-204.15,12.61c-10.7-15.3-13.25-30.5-10.62-45-45.75-23.1-92.5-29.79-118.19-31.68-6.74,35.31-3.18,72.87,17.57,110.82,90.22,165,335.59-9.12,335.59-9.12Z" transform="translate(-470.48 -455)" style="fill:url(#linear-gradient-17)"/><path d="M1022.38,2182.75l83.31-290.93a8.49,8.49,0,0,1,7.18-6.11c15.09-1.76,58.83-6.7,109.32-11,60.83-5.15,131.47-9.32,173.68-5.77a8.51,8.51,0,0,1,7,12.25c-24,48.56-122.74,246.1-172.18,310.81a8.52,8.52,0,0,1-6.87,3.37l-193.29-1.79A8.52,8.52,0,0,1,1022.38,2182.75Z" transform="translate(-470.48 -455)" style="fill:#91b3fa"/><path d="M1230.84,1849.51l60.4-10.06a4.34,4.34,0,0,1,4.83,5.64l-6,18.11a4.34,4.34,0,0,1-3.55,2.94l-58.12,7.77a4.34,4.34,0,0,1-4.79-5.29l3.7-15.82A4.34,4.34,0,0,1,1230.84,1849.51Z" transform="translate(-470.48 -455)" style="fill:#bdd0fb"/><path d="M1185.61,1900.65l5-25.92a6,6,0,0,1,5.27-4.83l122-12.38a6,6,0,0,1,6.43,7.36l-7.76,32.29a6,6,0,0,1-5.52,4.59l-119.21,6A6,6,0,0,1,1185.61,1900.65Z" transform="translate(-470.48 -455)" style="fill:#bdd0fb"/><path d="M1042.51,2112.46s-11.6-47.72-6.92-64.65,13.75-38.69,44-33.86,65.89,17.58,65.89,17.58-1.8,22-24.77,14.93l14.24,11s-2,17.65-21.44,8.22l13.25,14.62s-8.33,14.5-22.61,5.2S1083,2118.21,1042.51,2112.46Z" transform="translate(-470.48 -455)" style="fill:url(#linear-gradient-18)"/><path d="M1024.81,1643.67,978.5,1777.6a4.83,4.83,0,0,0,2.19,5.82c12.63,7,58.11,27.15,112.92-7.6a22.73,22.73,0,0,0,10.47-16.23l15-115.92Z" transform="translate(-470.48 -455)" style="fill:url(#linear-gradient-19)"/><path d="M1125.58,1519.64s50.86,95.73,44.34,134.41-69.55,35.89-124.59,4.48l-38.46-103.37Z" transform="translate(-470.48 -455)" style="fill:url(#linear-gradient-20)"/><path d="M1047.76,1607.77a4,4,0,0,0,1.73-5.78c-4.08-6.22-11.72-18.92-14.15-30,0,0-9.15-5.85,23.27-13.61s80.74-19.8,90.9-47.39c9.91-26.9-16.12-94.54-57.64-40.64a3.94,3.94,0,0,1-6.25,0c-6.81-8.86-24.7-27.25-49.55-16.1-23.25,10.43-25.87,27.47-25.55,36.06a3.91,3.91,0,0,1-4.65,4c-11.75-2.24-40-4.16-53.13,24.77-10.84,23.84-3.79,37.33,2.63,43.93a3.93,3.93,0,0,1-1.69,6.53c-7.72,2.37-17.7,8.92-16.7,27,1.38,25,29.36,22.82,37.32,21.68a4,4,0,0,1,3.51,1.23c6.83,7.56,37.6,39.65,70.9,43.52a4,4,0,0,0,4.18-5.26l-14.42-41.89a4,4,0,0,1,2.15-4.92Z" transform="translate(-470.48 -455)" style="fill:url(#linear-gradient-21)"/><path d="M1053.56,1613.71s-36.21-24.84-38.86-3.92,32.61,30.31,50.07,22.51Z" transform="translate(-470.48 -455)" style="fill:url(#linear-gradient-22)"/><g style="opacity:0.85"><path d="M2400.27,1141.45q.46,13-6.68,20.13t-21.08,7.64l-14.87.52-1.85-52.52,16.49-.58q12.87-.45,20.22,6.09T2400.27,1141.45Zm-11.55.69q-.6-16.92-15.54-16.39l-5.93.21,1.2,34.19,4.78-.16Q2389.32,1159.42,2388.72,1142.14Z" transform="translate(-470.48 -455)" style="fill:#fff"/><path d="M2409,1117.33c-.13-3.56,1.79-5.42,5.77-5.56s6,1.58,6.15,5.15a5.22,5.22,0,0,1-1.35,4,6.26,6.26,0,0,1-4.42,1.57C2411.17,1122.65,2409.12,1120.93,2409,1117.33Zm13.19,50.15-11,.38-1.4-40.16,11-.38Z" transform="translate(-470.48 -455)" style="fill:#fff"/><path d="M2454.77,1134.36l-9.49.33,1.12,31.94-11,.38-1.12-31.93-6,.21-.18-5.28,5.93-3.16-.1-2.94q-.24-6.87,3-10.15t10.7-3.54a28.3,28.3,0,0,1,10.16,1.34l-2.52,8.14a20.54,20.54,0,0,0-6.15-.82,3.92,3.92,0,0,0-3.32,1.5,5.66,5.66,0,0,0-.92,3.57l.09,2.52,9.48-.34Zm28.48-1-9.48.33,1.12,31.94-11,.38-1.12-31.93-6,.21-.19-5.28,5.94-3.16-.11-2.94q-.24-6.87,3-10.14t10.7-3.55a28.24,28.24,0,0,1,10.15,1.34l-2.52,8.14a20.44,20.44,0,0,0-6.14-.82,3.93,3.93,0,0,0-3.33,1.5,5.68,5.68,0,0,0-.91,3.57l.08,2.52,9.49-.33Z" transform="translate(-470.48 -455)" style="fill:#fff"/><path d="M2508.83,1165.16q-9.7.35-15.35-4.82t-6-15q-.36-10.09,4.5-15.79t13.76-6q8.52-.3,13.43,4.39t5.21,13.23l.19,5.32-25.91.9a10.56,10.56,0,0,0,3,7.2,9.71,9.71,0,0,0,7.35,2.37,30.4,30.4,0,0,0,6.83-1,34.67,34.67,0,0,0,6.67-2.64l.3,8.48a26,26,0,0,1-6.07,2.35A38.94,38.94,0,0,1,2508.83,1165.16Zm-2.73-33.79a7,7,0,0,0-5.39,2.41,10.25,10.25,0,0,0-2,6.34l15.38-.54a9.19,9.19,0,0,0-2.34-6.19A7.18,7.18,0,0,0,2506.1,1131.37Z" transform="translate(-470.48 -455)" style="fill:#fff"/><path d="M2555.08,1121.85a17.19,17.19,0,0,1,3.71.2l-.47,10.3a12.69,12.69,0,0,0-3.25-.25q-5.24.2-8.07,3a9.78,9.78,0,0,0-2.67,7.65l.72,20.44-11,.38-1.41-40.16,8.3-.29,1.86,6.7.54,0a15,15,0,0,1,4.85-5.62A12.48,12.48,0,0,1,2555.08,1121.85Z" transform="translate(-470.48 -455)" style="fill:#fff"/><path d="M2585.71,1162.46q-9.71.35-15.35-4.82t-6-15q-.36-10.1,4.5-15.79t13.76-6q8.51-.3,13.42,4.38t5.22,13.23l.18,5.32-25.9.91a10.55,10.55,0,0,0,3,7.19,9.74,9.74,0,0,0,7.35,2.37,29.85,29.85,0,0,0,6.84-1,34.1,34.1,0,0,0,6.67-2.65l.29,8.48a25.33,25.33,0,0,1-6.06,2.35A38.43,38.43,0,0,1,2585.71,1162.46Zm-2.74-33.78a7,7,0,0,0-5.38,2.4,10.22,10.22,0,0,0-2,6.35l15.37-.54a9.12,9.12,0,0,0-2.34-6.2A7.18,7.18,0,0,0,2583,1128.68Z" transform="translate(-470.48 -455)" style="fill:#fff"/><path d="M2648,1159.56l-10.95.38-.83-23.45q-.15-4.35-1.77-6.47a5.63,5.63,0,0,0-5-2q-4.59.17-6.53,3.3t-1.7,10.26l.67,18.9-11,.38-1.41-40.16,8.37-.3,1.65,5.09.62,0a11.52,11.52,0,0,1,4.89-4.58,17.26,17.26,0,0,1,7.26-1.75q7-.24,10.76,3.42t4,10.81Z" transform="translate(-470.48 -455)" style="fill:#fff"/><path d="M2676,1150.56a24,24,0,0,0,6.86-1.5l.28,8.15a24.54,24.54,0,0,1-10,2.19q-6.59.22-9.69-3t-3.35-9.86l-.68-19.36-5.25.18-.16-4.63,5.91-3.88,2.86-8.59,7-.24.3,8.55,11.24-.4.29,8.23-11.24.39.68,19.37a4.27,4.27,0,0,0,1.43,3.4A5.18,5.18,0,0,0,2676,1150.56Z" transform="translate(-470.48 -455)" style="fill:#fff"/><path d="M2689,1107.52q-.2-5.36,5.78-5.57t6.15,5.15a5.22,5.22,0,0,1-1.35,4,6.31,6.31,0,0,1-4.43,1.58C2691.2,1112.83,2689.15,1111.11,2689,1107.52Zm13.2,50.14-11,.38-1.41-40.16,11-.38Z" transform="translate(-470.48 -455)" style="fill:#fff"/><path d="M2739.22,1156.36l-2.31-5.38h-.29a16.29,16.29,0,0,1-5.53,5,18.48,18.48,0,0,1-7.58,1.61q-5.79.21-9.22-3c-2.3-2.13-3.51-5.23-3.66-9.3q-.23-6.39,4.14-9.58t13.38-3.84l7-.46-.06-1.76q-.23-6.11-6.47-5.88a28.42,28.42,0,0,0-11.21,3.3l-3.89-7.27a32.72,32.72,0,0,1,15.25-4.17q8.08-.29,12.52,3.09t4.68,10.55l.94,26.76Zm-3.89-18.49-4.23.29c-3.18.21-5.54.87-7.06,2a5.43,5.43,0,0,0-2.16,4.9c.11,3.09,1.93,4.57,5.48,4.45a8.4,8.4,0,0,0,6-2.41,7.71,7.71,0,0,0,2.08-5.9Z" transform="translate(-470.48 -455)" style="fill:#fff"/><path d="M2769.11,1155.31l-11,.39-2-55.9,11-.38Z" transform="translate(-470.48 -455)" style="fill:#fff"/><path d="M2381.5,1213.24a11.38,11.38,0,0,0-9.57,5.06q-3.29,4.85-3,13.29.61,17.57,13.8,17.11a41.66,41.66,0,0,0,13.3-3.24l.33,9.34A37.26,37.26,0,0,1,2382,1258q-11.46.4-17.77-6.34t-6.77-19.74a32.5,32.5,0,0,1,2.48-14.45,21.55,21.55,0,0,1,8.23-9.75,25.45,25.45,0,0,1,13-3.75,35.47,35.47,0,0,1,15.51,3.16l-3.28,9.18a59.09,59.09,0,0,0-6-2.23A17.5,17.5,0,0,0,2381.5,1213.24Z" transform="translate(-470.48 -455)" style="fill:#fff"/><path d="M2442.54,1235q.35,9.81-4.63,15.52t-14.21,6a20.14,20.14,0,0,1-10.29-2.18,16.83,16.83,0,0,1-7-7,24.53,24.53,0,0,1-2.76-11q-.34-9.84,4.6-15.49t14.25-6a20.24,20.24,0,0,1,10.29,2.15,16.76,16.76,0,0,1,7,7A24.13,24.13,0,0,1,2442.54,1235Zm-27.77,1q.21,6,2.28,8.94c1.37,2,3.53,2.94,6.48,2.83s5-1.18,6.2-3.25,1.74-5.11,1.6-9.11-.89-6.93-2.25-8.87-3.52-2.86-6.46-2.76-5,1.16-6.22,3.18S2414.63,1232,2414.77,1236Z" transform="translate(-470.48 -455)" style="fill:#fff"/><path d="M2489.38,1253.52l-11,.38-.82-23.46c-.11-2.89-.7-5-1.78-6.46a5.6,5.6,0,0,0-5-2c-3.06.1-5.24,1.21-6.53,3.3s-1.86,5.52-1.69,10.26l.66,18.89-11,.39-1.41-40.17,8.37-.29,1.66,5.09.61,0a11.52,11.52,0,0,1,4.89-4.58,17.26,17.26,0,0,1,7.26-1.75q7-.24,10.76,3.42t4,10.81Z" transform="translate(-470.48 -455)" style="fill:#fff"/><path d="M2517.29,1244.52a24,24,0,0,0,6.86-1.5l.28,8.15a24.54,24.54,0,0,1-10,2.19q-6.57.23-9.69-3t-3.35-9.86l-.68-19.37-5.24.19-.17-4.64,5.91-3.87,2.86-8.59,7-.25.3,8.55,11.24-.39.29,8.23-11.24.39.68,19.36a4.29,4.29,0,0,0,1.43,3.41A5.18,5.18,0,0,0,2517.29,1244.52Z" transform="translate(-470.48 -455)" style="fill:#fff"/><path d="M2553.57,1210.3a17.89,17.89,0,0,1,3.71.19l-.46,10.31a12.29,12.29,0,0,0-3.25-.25c-3.49.12-6.19,1.12-8.08,3a9.76,9.76,0,0,0-2.66,7.65l.72,20.44-11,.38-1.41-40.16,8.3-.29,1.85,6.7.54,0a15.11,15.11,0,0,1,4.86-5.62A12.48,12.48,0,0,1,2553.57,1210.3Z" transform="translate(-470.48 -455)" style="fill:#fff"/><path d="M2563.76,1200.3c-.12-3.57,1.8-5.42,5.78-5.56s6,1.58,6.15,5.14a5.24,5.24,0,0,1-1.35,4,6.31,6.31,0,0,1-4.43,1.57C2565.94,1205.62,2563.89,1203.9,2563.76,1200.3Zm13.2,50.15-11,.38-1.41-40.16,11-.39Z" transform="translate(-470.48 -455)" style="fill:#fff"/><path d="M2609.36,1208.34a13,13,0,0,1,11.33,5.16q4.21,5.41,4.56,15.08.35,9.95-3.61,15.55a14.5,14.5,0,0,1-22.39,1.11l-.75,0-1.68,4.48-8.37.29-2-55.89,11-.39.46,13q.08,2.48-.16,8h.43Q2601.83,1208.61,2609.36,1208.34Zm-3.21,8.89c-2.71.1-4.65,1-5.84,2.71s-1.74,4.48-1.65,8.31l0,1.18c.15,4.32.9,7.38,2.25,9.21s3.41,2.68,6.18,2.58a6.1,6.1,0,0,0,5.26-3.29q1.89-3.18,1.68-9.11t-2.32-8.82A6.31,6.31,0,0,0,2606.15,1217.23Z" transform="translate(-470.48 -455)" style="fill:#fff"/><path d="M2663.46,1247.41l-1.65-5.08-.58,0a11.48,11.48,0,0,1-4.84,4.5,17,17,0,0,1-7.31,1.79q-7.08.24-10.8-3.42t-4-10.78l-.91-26.18,11-.39.83,23.46c.1,2.9.69,5.05,1.77,6.47a5.62,5.62,0,0,0,5,2q4.59-.16,6.53-3.31t1.69-10.25l-.66-18.9,11-.38,1.41,40.16Z" transform="translate(-470.48 -455)" style="fill:#fff"/><path d="M2700,1238.11a23.88,23.88,0,0,0,6.85-1.5l.29,8.16a24.75,24.75,0,0,1-10,2.18q-6.58.22-9.69-3t-3.35-9.86l-.68-19.36-5.25.18-.16-4.63,5.91-3.88,2.86-8.59,7-.24.3,8.55,11.24-.4.29,8.23-11.25.39.68,19.37a4.3,4.3,0,0,0,1.44,3.4A5.17,5.17,0,0,0,2700,1238.11Z" transform="translate(-470.48 -455)" style="fill:#fff"/><path d="M2713.06,1195.07c-.13-3.57,1.8-5.42,5.77-5.56s6,1.57,6.16,5.14a5.26,5.26,0,0,1-1.36,4,6.26,6.26,0,0,1-4.42,1.58Q2713.24,1200.46,2713.06,1195.07Zm13.19,50.14-10.95.39-1.41-40.17,11-.38Z" transform="translate(-470.48 -455)" style="fill:#fff"/><path d="M2773.54,1223.38q.35,9.8-4.63,15.52t-14.21,6a20.14,20.14,0,0,1-10.29-2.17,16.85,16.85,0,0,1-7-7,24.46,24.46,0,0,1-2.76-11q-.34-9.84,4.6-15.48t14.25-6a20.34,20.34,0,0,1,10.29,2.16,16.74,16.74,0,0,1,7,7A24,24,0,0,1,2773.54,1223.38Zm-27.77,1c.14,4,.9,7,2.28,9s3.54,2.93,6.48,2.83,5-1.19,6.2-3.26,1.74-5.1,1.6-9.1-.89-6.94-2.25-8.88-3.52-2.86-6.46-2.76-5,1.17-6.22,3.19S2745.63,1220.35,2745.77,1224.35Z" transform="translate(-470.48 -455)" style="fill:#fff"/><path d="M2820.38,1241.91l-11,.39-.82-23.46c-.1-2.9-.7-5-1.78-6.47a5.61,5.61,0,0,0-5-2q-4.6.17-6.54,3.3t-1.69,10.26l.66,18.9-11,.38-1.41-40.16,8.37-.3,1.66,5.09.61,0a11.58,11.58,0,0,1,4.89-4.58,17.26,17.26,0,0,1,7.26-1.75q7-.24,10.77,3.42t4,10.81Z" transform="translate(-470.48 -455)" style="fill:#fff"/><path d="M2854.32,1223.28l-.09-2.66a11.81,11.81,0,0,1,1.26-6,19.31,19.31,0,0,1,5.2-5.62,22.51,22.51,0,0,0,4.82-4.55,6.39,6.39,0,0,0,1.07-3.82,4.07,4.07,0,0,0-1.85-3.49,8.16,8.16,0,0,0-4.85-1.06q-5.39.2-12.16,4l-4.2-7.73a34.18,34.18,0,0,1,16.84-5.09q7.39-.26,11.89,3.14a11.6,11.6,0,0,1,4.69,9.33,12.55,12.55,0,0,1-1.55,6.89q-1.69,2.94-6.6,6.71a21,21,0,0,0-4.23,4,6,6,0,0,0-.79,3.52l.07,2.15Zm-.72,12.32a6,6,0,0,1,1.46-4.62,6.62,6.62,0,0,1,4.65-1.71,6.38,6.38,0,0,1,4.67,1.42,7,7,0,0,1,.3,9,6.26,6.26,0,0,1-4.54,1.8,6.45,6.45,0,0,1-4.73-1.44A6,6,0,0,1,2853.6,1235.6Z" transform="translate(-470.48 -455)" style="fill:#fff"/><path d="M2889.42,1222.05l-.09-2.66a11.81,11.81,0,0,1,1.26-6.05,19.17,19.17,0,0,1,5.2-5.62,22.51,22.51,0,0,0,4.82-4.55,6.39,6.39,0,0,0,1.07-3.82,4.07,4.07,0,0,0-1.85-3.49,8.19,8.19,0,0,0-4.86-1.06q-5.38.2-12.16,4l-4.19-7.73a34.27,34.27,0,0,1,16.84-5.08q7.39-.26,11.89,3.14a11.63,11.63,0,0,1,4.69,9.33,12.64,12.64,0,0,1-1.55,6.89c-1.14,2-3.33,4.2-6.6,6.71a21,21,0,0,0-4.23,4,6,6,0,0,0-.8,3.52l.08,2.15Zm-.72,12.32a6,6,0,0,1,1.46-4.62,6.62,6.62,0,0,1,4.65-1.71,6.38,6.38,0,0,1,4.67,1.42,7,7,0,0,1,.3,9,6.26,6.26,0,0,1-4.54,1.8,6.45,6.45,0,0,1-4.73-1.44A6,6,0,0,1,2888.7,1234.37Z" transform="translate(-470.48 -455)" style="fill:#fff"/><path d="M2924.52,1220.82l-.1-2.66a11.71,11.71,0,0,1,1.27-6.05,19.17,19.17,0,0,1,5.2-5.62,22.76,22.76,0,0,0,4.82-4.55,6.39,6.39,0,0,0,1.07-3.82,4.08,4.08,0,0,0-1.85-3.49,8.21,8.21,0,0,0-4.86-1.06q-5.39.2-12.16,4l-4.19-7.73a34.27,34.27,0,0,1,16.83-5.08q7.41-.26,11.89,3.14a11.61,11.61,0,0,1,4.7,9.33,12.64,12.64,0,0,1-1.56,6.89q-1.7,2.94-6.6,6.71a20.87,20.87,0,0,0-4.22,4,6,6,0,0,0-.8,3.52l.08,2.15Zm-.72,12.32a6,6,0,0,1,1.46-4.62,6.62,6.62,0,0,1,4.65-1.71,6.41,6.41,0,0,1,4.67,1.42,7,7,0,0,1,.3,9,6.27,6.27,0,0,1-4.54,1.8,6.44,6.44,0,0,1-4.73-1.44A6,6,0,0,1,2923.8,1233.14Z" transform="translate(-470.48 -455)" style="fill:#fff"/><path d="M2959.61,1219.58l-.09-2.65a11.81,11.81,0,0,1,1.26-6,19.45,19.45,0,0,1,5.2-5.62,22.51,22.51,0,0,0,4.82-4.55,6.4,6.4,0,0,0,1.08-3.82,4.1,4.1,0,0,0-1.85-3.49,8.21,8.21,0,0,0-4.86-1.06q-5.39.2-12.16,4l-4.19-7.73a34.21,34.21,0,0,1,16.83-5.08q7.39-.27,11.89,3.14a11.64,11.64,0,0,1,4.7,9.33,12.64,12.64,0,0,1-1.56,6.89q-1.69,2.94-6.6,6.71a21,21,0,0,0-4.23,4,6,6,0,0,0-.79,3.52l.07,2.15Zm-.71,12.33a6,6,0,0,1,1.45-4.62,6.53,6.53,0,0,1,4.65-1.71,6.42,6.42,0,0,1,4.68,1.42,6.05,6.05,0,0,1,1.79,4.47,6,6,0,0,1-1.5,4.53,6.24,6.24,0,0,1-4.54,1.8,6.41,6.41,0,0,1-4.72-1.44A6,6,0,0,1,2958.9,1231.91Z" transform="translate(-470.48 -455)" style="fill:#fff"/><path d="M2994.71,1218.35l-.09-2.65a11.81,11.81,0,0,1,1.26-6,19.31,19.31,0,0,1,5.2-5.62,22.24,22.24,0,0,0,4.82-4.56,6.34,6.34,0,0,0,1.07-3.81,4.08,4.08,0,0,0-1.85-3.5,8.24,8.24,0,0,0-4.85-1.05q-5.4.2-12.17,4l-4.19-7.73a34.27,34.27,0,0,1,16.84-5.08q7.39-.27,11.89,3.14a11.6,11.6,0,0,1,4.69,9.33,12.55,12.55,0,0,1-1.55,6.89q-1.7,2.94-6.6,6.71a21,21,0,0,0-4.23,4,6,6,0,0,0-.79,3.51l.07,2.16Zm-.72,12.33a6,6,0,0,1,1.46-4.62,6.53,6.53,0,0,1,4.65-1.71,6.34,6.34,0,0,1,4.67,1.42,7,7,0,0,1,.3,9,6.26,6.26,0,0,1-4.54,1.8,6.45,6.45,0,0,1-4.73-1.44A6,6,0,0,1,2994,1230.68Z" transform="translate(-470.48 -455)" style="fill:#fff"/><path d="M3029.81,1217.12l-.09-2.65a11.87,11.87,0,0,1,1.26-6.06,19.28,19.28,0,0,1,5.2-5.61,22.24,22.24,0,0,0,4.82-4.56,6.34,6.34,0,0,0,1.07-3.81,4.08,4.08,0,0,0-1.85-3.5,8.29,8.29,0,0,0-4.86-1q-5.39.19-12.16,3.95l-4.19-7.73a34.27,34.27,0,0,1,16.83-5.08q7.41-.27,11.9,3.14a11.63,11.63,0,0,1,4.69,9.33,12.73,12.73,0,0,1-1.55,6.89q-1.71,2.94-6.6,6.7a21.26,21.26,0,0,0-4.23,4,6,6,0,0,0-.8,3.51l.08,2.16Zm-.72,12.33a6,6,0,0,1,1.46-4.62,6.53,6.53,0,0,1,4.65-1.71,6.35,6.35,0,0,1,4.67,1.42,7,7,0,0,1,.3,9,6.27,6.27,0,0,1-4.54,1.8,6.45,6.45,0,0,1-4.73-1.44A6,6,0,0,1,3029.09,1229.45Z" transform="translate(-470.48 -455)" style="fill:#fff"/></g></g></svg>