<svg xmlns="http://www.w3.org/2000/svg" viewBox="0 0 67.88 65.84"><defs><style>.cls-1{fill:#616e7d;}.cls-2{fill:#34444f;}.cls-3{fill:#a4c83e;}.cls-4{fill:#86b03f;}.cls-5{fill:#9fcc42;}.cls-6{fill:#3093be;}.cls-7{fill:#27748e;}.cls-8{fill:#b6549c;}.cls-9{fill:#9a448e;}.cls-10{fill:#eec41a;}.cls-11{fill:#cba82c;}.cls-12{fill:#d73d34;}.cls-13{fill:#e34c3d;}.cls-14{fill:#3aa6c0;}.cls-15{fill:#bf60a5;}.cls-16{fill:#f3d13b;}.cls-17{fill:#c03b2d;}.cls-18{fill:#df463e;}</style></defs><g id="Layer_2" data-name="Layer 2"><g id="Layer_1-2" data-name="Layer 1"><polygon class="cls-1" points="13.35 34.5 12.36 34.52 12.36 34.52 13.35 34.5"/><path class="cls-1" d="M17.59,50.35a23.68,23.68,0,0,1-7.15-15.1l-5.94.66H4.34c-.46,0-1.07,0-1.68.12l-.38.05A33,33,0,0,0,57.43,57.2l-5.82-5.82a24.84,24.84,0,0,1-34-1Z"/><path class="cls-1" d="M34.9,0A32.84,32.84,0,0,0,11.53,9.68c-.73.73-1.43,1.5-2.08,2.29l5.85,5.85a25,25,0,0,1,2-2.34A24.82,24.82,0,0,1,59.71,32.39c2.71-.45,5.44-.88,8.17-1.32A33,33,0,0,0,34.9,0Z"/><polygon class="cls-2" points="3.42 5.94 0 29.06 23.06 25.58 15.3 17.82 9.45 11.97 3.42 5.94"/><polygon class="cls-2" points="51.61 51.38 57.43 57.2 63.38 63.15 66.86 40.09 43.73 43.51 51.61 51.38"/><polygon class="cls-3" points="15.06 20.15 15.06 24.77 23.84 29.38 23.84 24.77 15.06 20.15"/><polygon class="cls-4" points="23.84 24.77 32.61 20.15 32.61 24.77 23.84 29.38 23.84 24.77"/><polyline class="cls-5" points="32.61 20.15 23.84 15.53 15.06 20.15 23.84 24.77 32.61 20.15"/><polygon class="cls-6" points="15.06 24.77 15.06 29.38 23.84 34 23.84 29.38 15.06 24.77"/><polygon class="cls-7" points="23.84 29.38 32.61 24.77 32.61 29.38 23.84 34 23.84 29.38"/><polygon class="cls-8" points="15.06 29.38 15.06 34 23.84 38.61 23.84 34 15.06 29.38"/><polygon class="cls-9" points="23.84 34 23.84 38.61 32.61 34 32.61 29.38 23.84 34"/><polygon class="cls-10" points="15.06 34 15.06 38.61 23.84 43.23 23.84 38.61 15.06 34"/><polygon class="cls-11" points="23.84 38.61 32.61 34 32.61 38.61 23.84 43.23 23.84 38.61"/><polygon class="cls-12" points="15.06 38.61 23.84 43.23 23.84 47.85 15.06 43.23 15.06 38.61"/><polygon class="cls-3" points="15.06 43.23 15.06 47.85 23.84 52.46 23.84 47.85 15.06 43.23"/><polygon class="cls-6" points="15.06 47.85 15.06 52.46 23.84 57.08 23.84 52.46 15.06 47.85"/><polygon class="cls-7" points="23.84 52.46 50.16 38.61 50.16 43.23 23.84 57.08 23.84 52.46"/><polygon class="cls-12" points="19.45 17.84 19.45 13.23 28.23 17.84 28.23 22.16 19.45 17.84"/><polygon class="cls-13" points="19.45 13.23 41.39 1.69 50.16 6.3 28.23 17.84 19.45 13.23"/><polygon class="cls-14" points="32.61 38.61 41.39 34 50.16 38.61 32.61 47.85 32.61 38.61"/><polygon class="cls-8" points="37 36.11 45.77 40.92 45.77 36.3 37 31.69 37 36.11"/><polygon class="cls-9" points="45.77 36.3 54.55 31.69 54.55 36.3 45.77 40.92 45.77 36.3"/><polygon class="cls-15" points="37 31.69 45.77 27.07 54.55 31.69 45.77 36.3 37 31.69"/><polygon class="cls-3" points="41.39 29.38 41.39 24.77 50.16 29.38 50.16 33.85 41.39 29.38"/><polygon class="cls-4" points="50.16 29.38 58.94 24.77 58.94 29.31 50.16 33.85 50.16 29.38"/><polygon class="cls-5" points="41.39 24.77 50.16 20.15 58.94 24.77 50.16 29.38 41.39 24.77"/><polygon class="cls-10" points="45.77 13.23 45.77 17.69 41.39 15.41 45.77 13.23"/><polygon class="cls-11" points="54.55 8.61 45.77 13.23 45.77 17.84 54.55 13.23 54.55 8.61"/><polygon class="cls-16" points="50.16 6.3 54.55 8.61 50.16 10.92 50.16 6.3"/><path class="cls-17" d="M35.53,6S35.12,7.48,37,7.48s1.47-1.4,1.47-1.4h-3"/><path class="cls-18" d="M38.46,6.08c0,.52-.65,1-1.47,1s-1.46-.43-1.46-1,.65-1,1.46-1S38.46,5.55,38.46,6.08Z"/><path class="cls-17" d="M39.91,3.62S39.5,5.1,41.38,5.1s1.47-1.41,1.47-1.41h-3"/><path class="cls-18" d="M42.85,3.69c0,.53-.66,1-1.47,1s-1.47-.43-1.47-1,.66-.95,1.47-.95S42.85,3.17,42.85,3.69Z"/><path class="cls-17" d="M39.91,8.06s-.41,1.48,1.47,1.48,1.47-1.41,1.47-1.41h-3"/><path class="cls-18" d="M42.85,8.13c0,.53-.66,1-1.47,1s-1.47-.43-1.47-1,.66-1,1.47-1S42.85,7.61,42.85,8.13Z"/><path class="cls-17" d="M31.14,8.29s-.41,1.47,1.47,1.47,1.47-1.4,1.47-1.4h-3"/><path class="cls-18" d="M34.08,8.36c0,.53-.66,1-1.47,1s-1.47-.42-1.47-1,.66-.95,1.47-.95S34.08,7.83,34.08,8.36Z"/><path class="cls-17" d="M35.53,10.37s-.42,1.47,1.46,1.47,1.47-1.4,1.47-1.4h-3"/><path class="cls-18" d="M38.46,10.44c0,.52-.65,1-1.47,1s-1.46-.43-1.46-1,.65-1,1.46-1S38.46,9.91,38.46,10.44Z"/><path class="cls-17" d="M26.75,10.37s-.41,1.47,1.47,1.47,1.47-1.4,1.47-1.4h-3"/><path class="cls-18" d="M29.68,10.44c0,.52-.65,1-1.46,1s-1.47-.43-1.47-1,.65-1,1.47-1S29.68,9.91,29.68,10.44Z"/><path class="cls-17" d="M31.14,12.71s-.41,1.47,1.47,1.47,1.47-1.4,1.47-1.4h-3"/><path class="cls-18" d="M34.08,12.78c0,.53-.66,1-1.47,1s-1.47-.42-1.47-1,.66-.95,1.47-.95S34.08,12.25,34.08,12.78Z"/><path class="cls-17" d="M22.36,12.56S22,14,23.83,14s1.47-1.41,1.47-1.41h-3"/><path class="cls-18" d="M25.3,12.62c0,.53-.66,1-1.47,1s-1.47-.43-1.47-1,.66-.95,1.47-.95S25.3,12.1,25.3,12.62Z"/><path class="cls-17" d="M26.75,14.66s-.41,1.48,1.47,1.48,1.47-1.41,1.47-1.41h-3"/><path class="cls-18" d="M29.69,14.73c0,.53-.66,1-1.47,1s-1.47-.43-1.47-1,.66-1,1.47-1S29.69,14.21,29.69,14.73Z"/><path class="cls-4" d="M22.36,21.86s-.41,1.48,1.47,1.48,1.47-1.41,1.47-1.41h-3"/><path class="cls-3" d="M25.3,21.93c0,.53-.66,1-1.47,1s-1.47-.43-1.47-1S23,21,23.83,21,25.3,21.4,25.3,21.93Z"/><path class="cls-4" d="M18,19.85s-.41,1.48,1.47,1.48,1.47-1.41,1.47-1.41h-3"/><path class="cls-3" d="M20.92,19.92c0,.53-.66,1-1.47,1s-1.47-.43-1.47-1,.65-1,1.47-1S20.92,19.4,20.92,19.92Z"/><path class="cls-9" d="M44.3,33.56S43.89,35,45.77,35s1.47-1.4,1.47-1.4h-3"/><path class="cls-8" d="M47.24,33.63c0,.53-.66.95-1.47.95s-1.47-.42-1.47-.95.66-1,1.47-1S47.24,33.1,47.24,33.63Z"/><path class="cls-9" d="M39.91,31.39s-.41,1.48,1.47,1.48,1.47-1.41,1.47-1.41h-3"/><path class="cls-8" d="M42.85,31.46c0,.53-.66,1-1.47,1s-1.47-.43-1.47-1,.66-.95,1.47-.95S42.85,30.94,42.85,31.46Z"/><path class="cls-17" d="M44.3,6s-.41,1.47,1.47,1.47,1.47-1.4,1.47-1.4h-3"/><path class="cls-18" d="M47.24,6.08c0,.52-.66,1-1.47,1s-1.47-.43-1.47-1,.66-1,1.47-1S47.24,5.55,47.24,6.08Z"/><path class="cls-11" d="M48.69,8.31s-.41,1.48,1.47,1.48,1.47-1.41,1.47-1.41h-3"/><path class="cls-10" d="M51.63,8.38c0,.53-.66,1-1.47,1s-1.47-.43-1.47-1,.66-1,1.47-1S51.63,7.86,51.63,8.38Z"/><path class="cls-4" d="M53.07,24.47s-.41,1.47,1.47,1.47S56,24.54,56,24.54H53"/><path class="cls-3" d="M56,24.54c0,.53-.66.95-1.47.95s-1.47-.42-1.47-.95.66-.95,1.47-.95S56,24,56,24.54Z"/><path class="cls-4" d="M44.29,24.47s-.41,1.47,1.47,1.47,1.47-1.4,1.47-1.4h-3"/><path class="cls-3" d="M47.23,24.54c0,.53-.65.95-1.47.95s-1.47-.42-1.47-.95.66-.95,1.47-.95S47.23,24,47.23,24.54Z"/><path class="cls-4" d="M48.69,22.3s-.41,1.48,1.47,1.48,1.47-1.41,1.47-1.41h-3"/><path class="cls-3" d="M51.63,22.37c0,.53-.66,1-1.47,1s-1.47-.43-1.47-1,.65-.95,1.47-.95S51.63,21.85,51.63,22.37Z"/><path class="cls-4" d="M48.69,26.75s-.41,1.47,1.47,1.47,1.47-1.4,1.47-1.4h-3"/><path class="cls-3" d="M51.63,26.82c0,.52-.66.95-1.47.95s-1.47-.43-1.47-.95.65-1,1.47-1S51.63,26.29,51.63,26.82Z"/><path class="cls-7" d="M35.53,42.59s-.42,1.48,1.46,1.48,1.47-1.41,1.47-1.41h-3"/><path class="cls-6" d="M38.46,42.66c0,.53-.65,1-1.47,1s-1.46-.43-1.46-1,.65-.95,1.46-.95S38.46,42.14,38.46,42.66Z"/><path class="cls-7" d="M35.53,38.6s-.42,1.47,1.46,1.47,1.47-1.41,1.47-1.41h-3"/><path class="cls-6" d="M38.46,38.66c0,.53-.65,1-1.47,1s-1.46-.43-1.46-1,.65-.95,1.46-.95S38.46,38.14,38.46,38.66Z"/><path class="cls-7" d="M31.14,45s-.41,1.47,1.47,1.47S34.08,45,34.08,45h-3"/><path class="cls-6" d="M34.08,45c0,.53-.66,1-1.47,1s-1.47-.43-1.47-1,.66-.95,1.47-.95S34.08,44.49,34.08,45Z"/><path class="cls-7" d="M31.14,40.5S30.73,42,32.61,42s1.47-1.41,1.47-1.41h-3"/><path class="cls-6" d="M34.08,40.57c0,.53-.66,1-1.47,1s-1.47-.43-1.47-1,.66-1,1.47-1S34.08,40.05,34.08,40.57Z"/><path class="cls-7" d="M39.91,40.5S39.5,42,41.38,42s1.47-1.41,1.47-1.41h-3"/><path class="cls-6" d="M42.85,40.57c0,.53-.66,1-1.47,1s-1.47-.43-1.47-1,.66-1,1.47-1S42.85,40.05,42.85,40.57Z"/><polygon class="cls-17" points="28.23 17.84 50.16 6.3 50.16 10.92 28.23 22.16 28.23 17.84"/><polygon class="cls-17" points="32.61 38.61 32.61 43.23 23.84 47.85 23.84 43.23 32.61 38.61"/><polygon class="cls-4" points="32.61 43.23 32.61 47.85 23.84 52.46 23.84 47.85 32.61 43.23"/></g></g></svg>