<svg xmlns="http://www.w3.org/2000/svg" viewBox="0 0 98.82 98.82"><defs><style>.cls-1{fill:#f37666;}.cls-2{fill:#67c8c9;}.cls-3{fill:#044163;}.cls-4{fill:none;stroke:#424143;stroke-linecap:round;stroke-linejoin:round;}.cls-5{fill:#424143;}.cls-6{fill:#fdb817;}</style></defs><g id="Layer_2" data-name="Layer 2"><g id="Layer_1-2" data-name="Layer 1"><circle class="cls-1" cx="49.41" cy="49.41" r="49.41"/><rect class="cls-2" x="32.6" y="63.99" width="15.7" height="6.36"/><rect class="cls-2" x="12.02" y="63.99" width="15.7" height="6.36"/><ellipse class="cls-3" cx="30.16" cy="50.46" rx="13.05" ry="6.15"/><line class="cls-4" x1="19.87" y1="63.99" x2="29.23" y2="57.28"/><polygon class="cls-5" points="28.6 59.82 28.99 57.45 26.63 57.06 27.8 56.22 30.16 56.61 29.77 58.98 28.6 59.82"/><line class="cls-4" x1="43.31" y1="50.83" x2="54.57" y2="51.03"/><polygon class="cls-5" points="52.54 52.69 54.27 51.03 52.6 49.3 54.04 49.33 55.71 51.05 53.98 52.72 52.54 52.69"/><line class="cls-4" x1="40.45" y1="63.99" x2="31.09" y2="57.28"/><polygon class="cls-5" points="33.7 57.06 31.33 57.45 31.72 59.82 30.55 58.98 30.16 56.61 32.53 56.22 33.7 57.06"/><rect class="cls-2" x="50.52" y="30.95" width="15.7" height="6.36"/><rect class="cls-2" x="71.11" y="30.95" width="15.7" height="6.36"/><ellipse class="cls-6" cx="68.67" cy="50.84" rx="13.05" ry="6.15"/><line class="cls-4" x1="78.95" y1="37.31" x2="69.59" y2="44.02"/><polygon class="cls-5" points="70.22 41.48 69.83 43.85 72.2 44.24 71.03 45.08 68.66 44.69 69.05 42.32 70.22 41.48"/><line class="cls-4" x1="58.38" y1="37.31" x2="67.74" y2="44.02"/><polygon class="cls-5" points="65.13 44.24 67.5 43.85 67.11 41.48 68.28 42.32 68.66 44.69 66.3 45.08 65.13 44.24"/></g></g></svg>