<svg xmlns="http://www.w3.org/2000/svg" viewBox="0 0 112.17 80.99"><g id="Layer_2" data-name="Layer 2"><g id="Layer_1-2" data-name="Layer 1"><path d="M47.3,32.55s2.11,3.06,4.48,3.17,4.6-2.81,5.49-4.59a40.53,40.53,0,0,1,4.59-6.69c2-2.42,5.49-7.1,4-16.5S55.39-.2,52.5,1.51s-4.67,5.67-5.34,7.93C46.75,10.83,42.88,23.49,47.3,32.55Z" style="fill:#ef9569"/><path d="M54.36,23.29c0,.05-.49,3.43-3.13,3.06a2.72,2.72,0,0,1-2.56-2.71,4.91,4.91,0,0,0,3.22-5.49,6.38,6.38,0,0,0-4.51-5.31L49,14.65,50.32,17l.15,2.57L48.89,22.1l-1.51,1.16s.36,2.37.45,2.46,1.6,1.62,1.64,1.66,2.09.25,2.09.25l1.93-1.13a11.07,11.07,0,0,0,.77-2.06C54.52,23.37,54.32,23.23,54.36,23.29Z" style="fill:#d9794a"/><path d="M62.45,10.13l-.87-2.56L59.3,5.41,57,4.42l-1.87.2s-2.56,2.1-2.64,2.11-1.08,2.39-1.08,2.39L52,10a17,17,0,0,1,1.56,2.66,10,10,0,0,0-.71-4s.82-3.53,4.05-2.75,5.2,4.49,6,7A14,14,0,0,0,62.45,10.13Z" style="fill:#d9794a"/><path d="M55.71,14.13c3.28,2.86.84,7.2.84,7.2a11.4,11.4,0,0,0,2.61-3.78C59.71,15.75,55.56,14,55.71,14.13Z" style="fill:#d9794a"/><path d="M66.59,11.77v-.55l0-.55c0-.37-.05-.73-.08-1.1l-.14-1.09-.07-.54c0-.18-.07-.36-.1-.55-.06-.36-.17-.72-.26-1.08A2.76,2.76,0,0,0,65.81,6l-.09-.27a5.44,5.44,0,0,0-.19-.52l-.22-.52-.25-.51L65,4.1,64.92,4l-.15-.24c0-.08-.09-.16-.15-.24l-.16-.23a8.09,8.09,0,0,0-1.58-1.62,7.85,7.85,0,0,0-2-1.08A8.8,8.8,0,0,0,58.7.06a10.39,10.39,0,0,0-2.23,0,11.5,11.5,0,0,0-2.18.42,5.43,5.43,0,0,0-.53.17,5.55,5.55,0,0,0-.52.2,6,6,0,0,0-1,.52,8.64,8.64,0,0,0-1.69,1.44,12.49,12.49,0,0,0-1.34,1.75,18.75,18.75,0,0,0-1.86,4c-.27.85-.5,1.71-.7,2.58,0,.21-.1.43-.14.65,0,0,0,.1,0,.15a2,2,0,0,0,0,.24,1.29,1.29,0,0,0,.22.52s0,0,.05,0l0,.05.09.08.18.17.35.34a11.83,11.83,0,0,1,1.28,1.47,7.78,7.78,0,0,1,.92,1.67,5.71,5.71,0,0,1,.4,1.82,4,4,0,0,1,0,.92,3.8,3.8,0,0,1-.23.88,4.44,4.44,0,0,1-1,1.52,5.85,5.85,0,0,1-.71.59,3.73,3.73,0,0,1-.39.25l-.2.11-.19.09-.22.1,0,.22a2.53,2.53,0,0,0,0,.27,2.26,2.26,0,0,0,0,.26c0,.17,0,.34,0,.51a5.87,5.87,0,0,0,.17,1,4.53,4.53,0,0,0,.36,1,3.52,3.52,0,0,0,.61.89,3.39,3.39,0,0,0,1.87,1c.09,0,.18,0,.26.05l.26,0,.27,0h.26a3.35,3.35,0,0,0,1-.24,3.24,3.24,0,0,0,1.57-1.37,5.16,5.16,0,0,0,.65-1.91,6.77,6.77,0,0,0,0-2,4.28,4.28,0,0,0,.79-.17,5.91,5.91,0,0,0,1.07-.45,5.83,5.83,0,0,0,.94-.69,6.06,6.06,0,0,0,1.37-1.85,6.78,6.78,0,0,0,.4-1.06,5.35,5.35,0,0,0,.18-1.11,13.58,13.58,0,0,1-1,1.92,8.41,8.41,0,0,1-1.36,1.61,8.57,8.57,0,0,1-.82.64,9,9,0,0,1-.92.5c-.22.1-.45.19-.68.27l-.17.05,0,.34v0a7.31,7.31,0,0,1-.15,1.87,4.76,4.76,0,0,1-.71,1.7A2.76,2.76,0,0,1,52,27.19a3.21,3.21,0,0,1-1.74.06,2.74,2.74,0,0,1-1.47-.83,4.42,4.42,0,0,1-.91-3.14l0,0,.23-.13.44-.29a5.92,5.92,0,0,0,.8-.69,5,5,0,0,0,1.15-1.79,5,5,0,0,0,.25-2.11l0-.26c0-.08,0-.17,0-.26s-.07-.34-.1-.51l-.16-.5c-.06-.16-.13-.32-.2-.48a7.79,7.79,0,0,0-1.08-1.74,10.74,10.74,0,0,0-1.42-1.44l-.38-.32-.2-.15-.1-.08,0,0,0,0a.9.9,0,0,1-.19-.38,3.1,3.1,0,0,1-.11-.46,2.51,2.51,0,0,0,0-.27l.21-.7c.21-.69.41-1.38.67-2.05a18.62,18.62,0,0,1,2-3.81,12.54,12.54,0,0,1,1.34-1.65A7.92,7.92,0,0,1,52.51,1.8a5.41,5.41,0,0,1,.94-.45c.16-.07.32-.12.49-.18s.33-.11.5-.15A11.32,11.32,0,0,1,56.52.66a9.46,9.46,0,0,1,4.13.54,6.75,6.75,0,0,1,3.21,2.49L64,3.9l.13.22.14.23.06.11.06.11.23.47.2.48c.07.16.12.33.18.49l.08.25a2.33,2.33,0,0,1,.07.25c.09.34.18.68.24,1,0,.17.07.34.09.52l.07.53.14,1.06c0,.36,0,.71.07,1.07l0,.53v.53A20,20,0,0,1,65.5,16a16.64,16.64,0,0,1-1.26,4c-.07.16-.14.33-.22.49l-.24.47-.13.23-.13.23-.27.46c-.38.6-.78,1.18-1.22,1.75s-.9,1.12-1.34,1.7-.87,1.17-1.29,1.76-.82,1.2-1.21,1.82a19.92,19.92,0,0,0-1.08,1.91A11.53,11.53,0,0,1,56,32.7a10.16,10.16,0,0,1-1.4,1.6,5.35,5.35,0,0,1-1.76,1.11,3,3,0,0,1-1,.18,3.28,3.28,0,0,1-1-.19,5,5,0,0,1-1-.46l-.11-.07-.11-.07-.23-.15L49,34.32a11.06,11.06,0,0,1-1.52-1.54,11.75,11.75,0,0,0,1.44,1.63l.42.35.22.17.11.08.11.07a5.07,5.07,0,0,0,1,.53,3.74,3.74,0,0,0,1.09.24A3.26,3.26,0,0,0,53,35.7a5.61,5.61,0,0,0,1.92-1.12A10.44,10.44,0,0,0,56.38,33a11.68,11.68,0,0,0,1.18-1.86c.34-.63.71-1.24,1.11-1.84s.8-1.19,1.23-1.77.86-1.15,1.31-1.71.9-1.11,1.36-1.68.88-1.18,1.28-1.79l.29-.48.14-.24.13-.24.27-.49c.08-.16.15-.33.23-.5a17.36,17.36,0,0,0,1.34-4.21A20.86,20.86,0,0,0,66.59,11.77Z" style="fill:#c66445"/><path d="M58.26,23c-.12.11-.26.22-.4.33l-.45.3a1.61,1.61,0,0,0,.58,0,2.31,2.31,0,0,0,.56-.19,2.85,2.85,0,0,0,.91-.74,3.4,3.4,0,0,0,.57-1,2.83,2.83,0,0,0,.22-1.12c-.25.3-.46.59-.68.87s-.41.56-.63.81A5.88,5.88,0,0,1,58.26,23Z" style="fill:#c66445"/><path d="M52.76,7a8.93,8.93,0,0,1,.79-.94,6.13,6.13,0,0,1,.93-.77,3.39,3.39,0,0,1,1.06-.45.7.7,0,0,1,.14,0l.14,0,.14,0h.42l.29,0a7.77,7.77,0,0,1,1.18.27,6.21,6.21,0,0,1,2.07,1.19,7.63,7.63,0,0,1,1.51,1.91,11.42,11.42,0,0,1,.94,2.31c.12.41.21.82.3,1.24l.12.63c0,.21.06.42.1.63a12.42,12.42,0,0,0-.15-2.58c-.08-.43-.18-.85-.3-1.27A8.8,8.8,0,0,0,62,7.91a7.37,7.37,0,0,0-1.55-2.17,6.22,6.22,0,0,0-1.09-.82,6.28,6.28,0,0,0-1.24-.56,6.64,6.64,0,0,0-1.32-.3,3.31,3.31,0,0,0-.34,0h-.54l-.18,0-.35.07a3.78,3.78,0,0,0-1.26.61,5.1,5.1,0,0,0-1,.92A8.91,8.91,0,0,0,51.73,7.9c-.15.33-.28.65-.4,1l-.1.3.12.21.21.37.62,1.09q.32.54.66,1.08A10.27,10.27,0,0,0,53.59,13a5,5,0,0,0-.28-1.29,7.54,7.54,0,0,0-.55-1.19A5.36,5.36,0,0,0,52,9.46,4.32,4.32,0,0,0,51.54,9h0c.16-.33.34-.65.53-1A10.7,10.7,0,0,1,52.76,7Z" style="fill:#c66445"/><path d="M93.62,67h0a15,15,0,0,0-4.87-3.43,7.27,7.27,0,0,0-2.16-3c-1.33-4-.14-13.83-5.89-13.4-5.74-.43-4.56,9.41-5.89,13.4a7.26,7.26,0,0,0-2.15,3A14.87,14.87,0,0,0,67.79,67h0c-1.32,1.37-2.28,3-2,4.36.75,3.23,6.53,4.13,8.94,3.45A12,12,0,0,0,80.7,76a12.08,12.08,0,0,0,5.93-1.26c2.41.68,8.19-.22,8.94-3.45C95.9,69.9,94.94,68.32,93.62,67Z" style="fill:#ef9569"/><path d="M93.62,67a5.34,5.34,0,0,1,1,4.29,9.2,9.2,0,0,0-4.41-1,11.63,11.63,0,0,0-1.51-6.68,7.27,7.27,0,0,0-2.16-3c-1.33-4-.14-13.83-5.89-13.4-5.74-.43-4.56,9.41-5.89,13.4a7.26,7.26,0,0,0-2.15,3,11.63,11.63,0,0,0-1.51,6.68,9.27,9.27,0,0,0-4.42,1A5.35,5.35,0,0,1,67.79,67c-1.32,1.37-2.28,3-2,4.36.75,3.23,6.53,4.13,8.94,3.45A12,12,0,0,0,80.7,76a12.08,12.08,0,0,0,5.93-1.26c2.41.68,8.19-.22,8.94-3.45C95.9,69.9,94.94,68.32,93.62,67ZM80.7,75.05c-7.9.56-12.21-9.9-3.19-15.7a3.54,3.54,0,0,0-1.81.53c.66-6.23,1.68-11.92,5-11.7,3.33-.22,4.35,5.47,5,11.7a3.54,3.54,0,0,0-1.81-.53C92.91,65.15,88.6,75.61,80.7,75.05Z" style="fill:#d9794a"/><path d="M69.16,72.37c-1.36,1,3.39,2.74,5.18,2.29a.14.14,0,0,0,.11-.12.16.16,0,0,0-.06-.15C73.53,73.74,70.39,71.49,69.16,72.37Z" style="fill:#ab5032"/><path d="M92.25,72.37c-1.23-.88-4.37,1.37-5.24,2a.13.13,0,0,0-.05.15.14.14,0,0,0,.11.12C88.86,75.11,93.61,73.34,92.25,72.37Z" style="fill:#ab5032"/><path d="M35.54,17.94c0,9-8,16.23-17.77,16.23l-.89,0A18.74,18.74,0,0,1,7.22,31,15.81,15.81,0,0,1,0,17.94C0,9,8,1.7,17.77,1.7S35.54,9,35.54,17.94Z" style="fill:#ef9569"/><path d="M29.61,14.65c-.34-1.67-.95-3-2-3.36-6.46-1.08-17.43-.3-20.34-.06a1.51,1.51,0,0,0-.58.18,1.38,1.38,0,0,0-.52.47l0,0a8.75,8.75,0,0,0,.13,9.76,16.3,16.3,0,0,0,6.62,5.53L7.22,31a18.74,18.74,0,0,0,9.66,3.15,10.61,10.61,0,0,0,2.59-5A11.06,11.06,0,0,0,23,28.81a8.51,8.51,0,0,0,4.09-2.26,1.37,1.37,0,0,0,.17-.17h0a9.83,9.83,0,0,0,2.35-4.2,8.38,8.38,0,0,0,.25-1.3l0-.37v-.19h0A23.22,23.22,0,0,0,29.61,14.65Z" style="fill:#d9794a"/><path d="M29.94,19.26h0v.19l0,.37a8.38,8.38,0,0,1-.25,1.3,9.83,9.83,0,0,1-2.35,4.2h0l-.17.17c-1.76,1.74-4.5,3-8.6,2.39-4.73-.67-9.75-3.44-12.22-7.26a8.73,8.73,0,0,1-.13-9.75l0-.05a1.44,1.44,0,0,1,1.1-.65c2.91-.24,13.88-1,20.34.06,1,.32,1.62,1.69,2,3.35A23.22,23.22,0,0,1,29.94,19.26Z" style="fill:#763139"/><path d="M29.94,19.26h0v.19a13.48,13.48,0,0,1-.28,1.67,9.93,9.93,0,0,1-2.52,4.38A32.49,32.49,0,0,1,22,25.33c-.23-.26-4-2.93-4-2.93-.05-.16-1.49-6.39,2.73-7,1.75-.26,2.07,1.76,1.91,2.23a1.73,1.73,0,0,0,1.47,2,1.76,1.76,0,0,0,1.8-2,1.88,1.88,0,0,1,2-2.22C29.3,15.49,30,17.48,29.94,19.26Z" style="fill:#521f24"/><path d="M29.61,13.6c-4.87.57-21.56-.34-22.42-1.07a3.19,3.19,0,0,1-.75-1.13c-.09-.19-.16-.38-.23-.56a1.44,1.44,0,0,1,1.1-.65c2.91-.24,13.88-1,20.34.06a3,3,0,0,1,1.6,2h0A9.66,9.66,0,0,1,29.61,13.6Z" style="fill:#f7f3e9"/><path d="M29.25,12.26c-1.1-1.57-20.36-1.62-21.67-1.37a2.71,2.71,0,0,0-1.14.51c-.09-.19-.16-.38-.23-.56a1.44,1.44,0,0,1,1.1-.65c2.91-.24,13.88-1,20.34.06A3,3,0,0,1,29.25,12.26Z" style="fill:#e3dbc3"/><path d="M27.3,25.33h0l-.17.17c-1.76,1.74-4.5,3-8.6,2.39,0,0-6.74,11.61-15.71,6.41C-3,30.91,1.29,23.83,6.31,20.64c2.1-1.33,4.32-2,6-1.38a2.69,2.69,0,0,1,.54.26,3.05,3.05,0,0,1,.65.5h0c.81-.63,4.41-.8,7.75.12a13.56,13.56,0,0,1,2.11.76h0a9.33,9.33,0,0,1,.83.43A6,6,0,0,1,27.3,25.33Z" style="fill:#d55665"/><path d="M24.16,21.34h0l-.39-.21h0l-.41-.2h0c-3.75-1.74-8.88-1.64-9.86-.88A22.41,22.41,0,0,0,9,23.85c6.27-4.75,13.5-4,14.72-2.17.72,2.61-5.08,5.4-5.08,5.4a3.93,3.93,0,0,0-.17-.94c-5.1,6.21-10.52,8.8-14,7.12s-.91-8.35,1.43-11,6.36-3,6.36-3c-1.65-.6-3.87,0-6,1.38C1.29,23.83-3,30.91,2.82,34.31c9,5.2,15.71-6.41,15.71-6.41,4.1.59,6.84-.65,8.6-2.39l.17-.17h0A6,6,0,0,0,24.16,21.34Z" style="fill:#b34b56"/><path d="M21.22,20.15c-6.08-1.26-10.55,2.93-12.38,3.91a13.09,13.09,0,0,1,4.61-4l0,0h0C14.28,19.4,17.88,19.23,21.22,20.15Z" style="fill:#763139"/><path d="M5.49,24.73c-.41.5-.78,1-1.1,1.45s-.59.89-.83,1.26c-.47.73-.8,1.21-1,1.15s-.28-.67-.06-1.61a8.24,8.24,0,0,1,.59-1.58,10,10,0,0,1,1.13-1.73,9.49,9.49,0,0,1,1.48-1.44,8.21,8.21,0,0,1,1.42-.9c.86-.42,1.49-.48,1.59-.27s-.3.63-.92,1.24c-.31.31-.67.67-1.06,1.08S5.89,24.24,5.49,24.73Z" style="fill:#f27283"/><path d="M54.16,57.73s-.47,1.07-.71,1.52-1.2,1.61-1.5,2S50,64,49.42,64.64a4.58,4.58,0,0,0-.82,1.25S47.37,69,47.06,70.21a35.32,35.32,0,0,1-1.51,5.05c-.31.8-.6,1.61-.85,2.31h0a8.22,8.22,0,0,1-4,3.05l-.47.13c-4.38,1.13-8.91-2-9.32-3.12v-.06a12.74,12.74,0,0,0-2.58-3.88,2.32,2.32,0,0,0-.3-.26l-.08-.06a11.7,11.7,0,0,1-2.09-2.07l-.08-.1a7.81,7.81,0,0,1-1-1.59A10.74,10.74,0,0,0,23,66.78l-.33-.32h0a4.8,4.8,0,0,1-.78-.93h0l-.1-.16a16.78,16.78,0,0,0-1.16-1.56l-.06-.22v0l-.37-.19L19.41,63a8.5,8.5,0,0,1-1.33-.89l-.14-.12c-.57-.61.41-1.85,1.61-1.85s4.15,0,5.68,2.25l.05.07.1.1.48.46.14.14c.31.31.64.65.95,1l.38.42a9.67,9.67,0,0,1,.76.92c.48.68,2,.4,2.36.16a3.15,3.15,0,0,0,1.25-1.93A18.12,18.12,0,0,0,32.32,61a7.53,7.53,0,0,0,0-2.4,27.53,27.53,0,0,1-.7-5.15,15.15,15.15,0,0,1-.2-3.5s0-.11,0-.18l0-.21c0-.12,0-.25,0-.39s0-.1,0-.15a.81.81,0,0,1,0-.16,2,2,0,0,1,0-.25c0-.33,0-.7,0-1.08v-.29a1.28,1.28,0,0,1,0-.19v0c0-.06,0-.12,0-.18V46.6c0-.11,0-.22,0-.33s0-.05,0-.08l0-.19,0-.16s0,0,0-.05l0-.1v-.06h0c.21-.83.61-1.47,1.31-1.56a1.45,1.45,0,0,1,.7,0c1.34.43,1.35,2.89,1.46,4.66a31.87,31.87,0,0,0,.83,4.56c.21,1.24.57,3.21.69,4.38,0,.16,0,.3,0,.43,0,.51.95.71.95.71s.13,0,.13-1.15a26.11,26.11,0,0,1,.16-5,26.45,26.45,0,0,1,.35-4.46v-.4c0-.24,0-.52,0-.82a.62.62,0,0,0,0-.13c0-.07,0-.14,0-.2a.62.62,0,0,0,0-.13v-.08c0-.12,0-.24,0-.35s0-.1,0-.15a.68.68,0,0,0,0-.14.77.77,0,0,0,0-.15l0-.14h0c0-.14.05-.29.08-.43a.29.29,0,0,0,0-.09.31.31,0,0,0,0-.08l0-.11a2.29,2.29,0,0,1,.08-.28v0l0-.1h0c0-.05,0-.09,0-.13s0-.09.05-.13v0a2.28,2.28,0,0,1,2.12-1.69,1.42,1.42,0,0,1,.47,0c2,.51.62,4.56.51,5.67a32.67,32.67,0,0,0,0,3.44c0,.61.08,1.9.08,2.82,0,.3,0,.56,0,.75a16.4,16.4,0,0,0-.16,3.38.83.83,0,0,0,.16.09h.06a.14.14,0,0,0,.12-.06.18.18,0,0,0,.05-.07,1,1,0,0,0,.08-.24,25.1,25.1,0,0,1,1.21-4c.37-1.64.59-3.07.84-3.71,0,0,0-.07,0-.11v-.06a2.43,2.43,0,0,0,0-.3.88.88,0,0,1,0-.16c0-.1,0-.2,0-.31a1.49,1.49,0,0,1,0-.21q0-.25.06-.54l0-.22c0-.14,0-.28.06-.42s0-.09,0-.13l0-.14c0-.05,0-.09,0-.14l.09-.4a.65.65,0,0,1,0-.13,4.34,4.34,0,0,1,.2-.64h0a2,2,0,0,1,.1-.21,1,1,0,0,1,0-.1,1.74,1.74,0,0,1,.1-.19l0,0a2.26,2.26,0,0,1,.16-.26l0-.05a1.76,1.76,0,0,1,1.56-.72,1.84,1.84,0,0,1,.42.07c1.91.53.63,3.91.57,4.12s-.24,1.24-.32,1.76-.45,3-.49,4A21.3,21.3,0,0,1,46,59.29a6.75,6.75,0,0,0-.49,1.5,1.13,1.13,0,0,0,0,.59,1,1,0,0,0,1,.54h0l.07,0,.06,0h0l0,0,0,0h0l0,0h0l0,0,0,0c.33-.44,1.35-2.25,2.42-2.72a6.3,6.3,0,0,0,1.42-1.89,2.07,2.07,0,0,0,.11-.27l0-.08h0a.36.36,0,0,0,0-.09h0l0-.08c.07-.18.16-.39.27-.61a.61.61,0,0,1,0-.12l0-.06,0-.06,0-.06,0-.06c0-.05,0-.09.07-.13l0-.06.07-.12,0-.06,0-.06a.61.61,0,0,1,.07-.1v0l0,0,.18-.23.09-.1s0,0,0-.05l0,0,0,0,0,0,.06,0,.09-.07,0,0,.09-.06.06,0,0,0,0,0,0,0,.08,0,0,0h0l0,0h0a1.45,1.45,0,0,1,.75,0l.08,0C55.68,54.6,54.16,57.73,54.16,57.73Z" style="fill:#d9794a"/><path d="M53.67,55.06h0s0,0,0,.06v0h0a6.83,6.83,0,0,1-.49,1.44s-.46,1.07-.7,1.52a24.67,24.67,0,0,1-1.51,2c-.3.41-1.94,2.74-2.52,3.38a4.34,4.34,0,0,0-.82,1.24s-1.24,3.06-1.54,4.33a35.7,35.7,0,0,1-1.51,5,13.09,13.09,0,0,1-1.19,2.73L43.3,77l0,0,0,0a4,4,0,0,1-4.89,1.14,4.75,4.75,0,0,1-2.49.7c-.2,0-.45,0-.73,0a7,7,0,0,1-4.78-2.45,13.86,13.86,0,0,0-1.33-2h0a7.27,7.27,0,0,0-.7-.75.93.93,0,0,0-.3-.26l-.08-.06a11.7,11.7,0,0,1-2.09-2.07l-.08-.1a7.81,7.81,0,0,1-1-1.59A10.74,10.74,0,0,0,23,66.78l-.33-.32h0a4.8,4.8,0,0,1-.78-.93h0l-.1-.16a16.78,16.78,0,0,0-1.16-1.56l-.06-.22v0l-.37-.19L19.41,63a8.5,8.5,0,0,1-1.33-.89l-.14-.12c-.57-.61.41-1.85,1.61-1.85s4.15,0,5.68,2.25l.05.07.1.1.48.46.14.14c.31.31.64.65.95,1l.15.2a.8.8,0,0,0,.23.22,9.67,9.67,0,0,1,.76.92c.48.68,2,.4,2.36.16a3.15,3.15,0,0,0,1.25-1.93A18.12,18.12,0,0,0,32.32,61a7.53,7.53,0,0,0,0-2.4,27.53,27.53,0,0,1-.7-5.15,15.15,15.15,0,0,1-.2-3.5s0-.11,0-.18l0-.21c0-.12,0-.25,0-.39s0-.1,0-.15a.81.81,0,0,1,0-.16,2,2,0,0,1,0-.25c0-.33,0-.7,0-1.08v-.29a1.28,1.28,0,0,1,0-.19v0c0-.06,0-.12,0-.18V46.6c0-.11,0-.22,0-.33s0-.05,0-.08l0-.19,0-.16s0,0,0-.05l0-.1v-.06h0a1.27,1.27,0,0,1,1.17-1,1.19,1.19,0,0,1,1.18,1.13v.07h0c.07.62.09,1.26.13,1.83a32.12,32.12,0,0,0,.82,4.55c.24,1.41.68,3.75.73,4.81a.3.3,0,0,0,0,.1h0a2,2,0,0,0,1.93,1.74s.13,0,.13-1.15a26.11,26.11,0,0,1,.16-5,26.45,26.45,0,0,1,.35-4.46v-.4c0-.24,0-.52,0-.82a.62.62,0,0,0,0-.13c0-.07,0-.14,0-.2a.62.62,0,0,0,0-.13v-.08c0-.12,0-.24,0-.35s0-.1,0-.15a.68.68,0,0,0,0-.14.77.77,0,0,0,0-.15l0-.14h0c0-.14.05-.29.08-.43a.29.29,0,0,0,0-.09.31.31,0,0,0,0-.08l0-.11a2.29,2.29,0,0,1,.08-.28v0l0-.1h0c0-.05,0-.09,0-.13s0-.09.05-.13v0c.14-.32,1-1.67,1.91-1.14.73.41.67,1.48.59,2h0c0,.08,0,.17,0,.26v0c-.15.73-.31,1.37-.34,1.72a30.15,30.15,0,0,0,0,3.44c0,.81.13,2.78,0,3.57-.07.57-.21,2-.22,2.84h0l0,.07s-.1,1.52,1.23,1.7h.06a.14.14,0,0,0,.12-.06.18.18,0,0,0,.05-.07,1,1,0,0,0,.08-.24,25.1,25.1,0,0,1,1.21-4c.37-1.64.59-3.07.84-3.71,0,0,0-.07,0-.11v-.06a2.43,2.43,0,0,0,0-.3.88.88,0,0,1,0-.16c0-.1,0-.2,0-.31a1.49,1.49,0,0,1,0-.21q0-.25.06-.54l0-.22c0-.14,0-.28.06-.42s0-.09,0-.13l0-.14c0-.05,0-.09,0-.14l.09-.4a.65.65,0,0,1,0-.13,4.34,4.34,0,0,1,.2-.64h0a2,2,0,0,1,.1-.21,1,1,0,0,1,0-.1,1.74,1.74,0,0,1,.1-.19l0,0a2.26,2.26,0,0,1,.16-.26l0-.05a1.07,1.07,0,0,1,1.07-.46,1.18,1.18,0,0,1,.87,1.34h0a9.68,9.68,0,0,1-.4,1.45c-.07.22-.23,1.25-.31,1.76s-.46,3-.49,4A22.84,22.84,0,0,1,45,58.16c-.06.14-.13.3-.19.47h0c-.08.15-1.27,2.66,1.43,3.29a1.09,1.09,0,0,0,.32,0h0l.07,0,.06,0h0l0,0,0,0h0l0,0h0l0,0,0,0c.33-.44,1.35-2.25,2.42-2.72a6.3,6.3,0,0,0,1.42-1.89,2.07,2.07,0,0,0,.11-.27l0-.08h0a.36.36,0,0,0,0-.09h0l0-.08c.07-.18.16-.39.27-.61a.61.61,0,0,1,0-.12l0-.06,0-.06,0-.06,0-.06c0-.05,0-.09.07-.13l0-.06.07-.12,0-.06,0-.06a.61.61,0,0,1,.07-.1v0l0,0,.18-.23.09-.1s0,0,0-.05l0,0,0,0,0,0,.06,0,.09-.07,0,0,.09-.06.06,0,0,0,0,0,0,0,.08,0,0,0h0l0,0h0A.76.76,0,0,1,53.67,55.06Z" style="fill:#ef9569"/><path d="M20.56,63.46a.27.27,0,0,1,0,.12v0a16,16,0,0,1-2.44-1.49,2.15,2.15,0,0,1,1,.06C19.31,62.31,20.54,62.82,20.56,63.46Z" style="fill:#f2b38a"/><path d="M39.77,74.24c-.08-.52-.18-1-.3-1.54a11.58,11.58,0,0,0-1.17-2.93,7.09,7.09,0,0,0-2.16-2.3,5.24,5.24,0,0,0-3-.86,4.62,4.62,0,0,1,1.52.3,6,6,0,0,1,1.38.7,7.11,7.11,0,0,1,2.06,2.27,11.76,11.76,0,0,1,1.19,2.86c.07.25.14.5.2.75s.11.51.16.77.1.51.14.77l.12.77L39.86,75Z" style="fill:#c66445"/><path d="M42.49,63.77c-.81-.18-1.62-.35-2.42-.55s-1.61-.41-2.41-.62l-1.2-.33-1.2-.34c.77.31,1.56.58,2.36.83s1.59.46,2.4.67,1.62.36,2.44.5a22.93,22.93,0,0,0,2.48.27c-.41-.07-.82-.12-1.23-.2Z" style="fill:#c66445"/><path d="M42.7,67.78c-.57-.54-1.18-1-1.79-1.51s-1.26-.94-1.9-1.38l-1-.65-.49-.31-.24-.17a1,1,0,0,1-.22-.18,2.27,2.27,0,0,0,.43.39l.46.36.94.7c.62.47,1.25.93,1.86,1.41s1.22,1,1.82,1.47c.29.25.58.51.86.78s.56.54.83.82A12.92,12.92,0,0,0,42.7,67.78Z" style="fill:#c66445"/><path d="M25.21,62.49c0,.29-.07.57-.12.85a7.72,7.72,0,0,1-.2.83,8,8,0,0,1-.29.82,3,3,0,0,0,.45-.76,4.15,4.15,0,0,0,.25-.85,5.12,5.12,0,0,0,.08-.87l-.15-.17S25.22,62.44,25.21,62.49Z" style="fill:#c66445"/><path d="M25.71,63.57l-.11.48a4.34,4.34,0,0,1-.14.48,1.12,1.12,0,0,0,.3-.42,3.11,3.11,0,0,0,.16-.49A3,3,0,0,0,26,63.1a.86.86,0,0,1-.14-.13Q25.77,63.27,25.71,63.57Z" style="fill:#c66445"/><path d="M36.93,78.69a9.58,9.58,0,0,1-1.6.12c-.54,0-1.08,0-1.61-.06s-1.08-.09-1.62-.13l.8.17c.26.06.53.09.8.13a11.07,11.07,0,0,0,1.63.11A7.52,7.52,0,0,0,37,78.86a5.1,5.1,0,0,0,.78-.26,1.86,1.86,0,0,0,.65-.49,1.82,1.82,0,0,1-.69.39A4.13,4.13,0,0,1,36.93,78.69Z" style="fill:#c66445"/><path d="M33.18,49.78a5.09,5.09,0,0,0,.68-.12,2.24,2.24,0,0,0,.64-.27,12.59,12.59,0,0,1-1.34.17c-.45,0-.9.07-1.35.13a3.85,3.85,0,0,0,.68.1A5.3,5.3,0,0,0,33.18,49.78Z" style="fill:#c66445"/><path d="M32.22,53.39a2.56,2.56,0,0,0,.78.14,4.15,4.15,0,0,0,1.56-.23,3,3,0,0,0,.7-.34c-.25.06-.5.13-.75.18s-.5.1-.75.14A13.13,13.13,0,0,1,32.22,53.39Z" style="fill:#c66445"/><path d="M33.74,58.58a3.58,3.58,0,0,0,1.09-.13,3.24,3.24,0,0,0,.53-.16,1.32,1.32,0,0,0,.48-.29,5,5,0,0,1-.53.12l-.53.12A6.65,6.65,0,0,0,33.74,58.58Z" style="fill:#c66445"/><path d="M39.76,48.71A2.6,2.6,0,0,0,41,48.62c-.42,0-.81-.07-1.21-.13s-.79-.11-1.21-.14a3.18,3.18,0,0,0,.58.23A4.29,4.29,0,0,0,39.76,48.71Z" style="fill:#c66445"/><path d="M41.25,52.38a2.09,2.09,0,0,0-.63-.28,4.08,4.08,0,0,0-.69-.09,5.07,5.07,0,0,0-.68,0,3.11,3.11,0,0,0-.67.16c.46,0,.9,0,1.35,0A6.68,6.68,0,0,1,41.25,52.38Z" style="fill:#c66445"/><path d="M39.71,53.16a3.56,3.56,0,0,0,.73,0,2.16,2.16,0,0,0,.7-.2,7.37,7.37,0,0,1-1.41,0L39,52.87l-.71-.08A3.48,3.48,0,0,0,39,53,4.33,4.33,0,0,0,39.71,53.16Z" style="fill:#c66445"/><path d="M39.63,58a5.19,5.19,0,0,0,.68,0A2.7,2.7,0,0,0,41,58l-1.34-.2a11.87,11.87,0,0,0-1.35-.13,3.83,3.83,0,0,0,.65.22Z" style="fill:#c66445"/><path d="M39.42,56.72a1.18,1.18,0,0,0-.48.19,5.1,5.1,0,0,1,1,0l.48.07.48.08a2,2,0,0,0-.93-.37A2.16,2.16,0,0,0,39.42,56.72Z" style="fill:#c66445"/><path d="M44.43,59.72a4.06,4.06,0,0,0-.63-.38,5.15,5.15,0,0,0-.68-.29,4.26,4.26,0,0,0-.7-.19c.42.25.85.46,1.28.68.22.1.43.21.64.33a4.3,4.3,0,0,1,.6.38A2,2,0,0,0,44.43,59.72Z" style="fill:#c66445"/><path d="M44.3,58.63A10.62,10.62,0,0,0,43,58.29a5.35,5.35,0,0,0,1.19.55,4.91,4.91,0,0,0,.63.17,2.16,2.16,0,0,0,.67,0c-.22-.06-.42-.14-.62-.21Z" style="fill:#c66445"/><path d="M45.06,54.93a5.64,5.64,0,0,1-.7-.21c-.23-.08-.45-.16-.68-.26a2.42,2.42,0,0,0,.62.42,3.49,3.49,0,0,0,.7.27,3.31,3.31,0,0,0,1.5,0c-.25,0-.49-.06-.73-.11S45.29,55,45.06,54.93Z" style="fill:#c66445"/><path d="M46.18,54.46a1.36,1.36,0,0,0-.41-.3,4.59,4.59,0,0,0-.48-.17,2.85,2.85,0,0,0-1-.07,7.25,7.25,0,0,0,.95.28C45.55,54.28,45.86,54.36,46.18,54.46Z" style="fill:#c66445"/><path d="M45.9,50.74c-.4-.11-.79-.23-1.22-.31a3.37,3.37,0,0,0,.56.3,4.84,4.84,0,0,0,.6.22,4.29,4.29,0,0,0,.62.14,2.29,2.29,0,0,0,.64,0Z" style="fill:#c66445"/><path d="M51,57.32a2.64,2.64,0,0,0,.76.48,2.23,2.23,0,0,0,.88.21,5.4,5.4,0,0,0-.79-.41A4.7,4.7,0,0,0,51,57.32Z" style="fill:#c66445"/><path d="M53.19,58.15a2.81,2.81,0,0,0-.34-.35,2.76,2.76,0,0,0-.39-.28,2.48,2.48,0,0,0-.44-.2,7.07,7.07,0,0,0,.69.65l.72.61A1.4,1.4,0,0,0,53.19,58.15Z" style="fill:#c66445"/><path d="M50.18,59.61a4.57,4.57,0,0,1-.47-.29.55.55,0,0,0,.17.23,1.89,1.89,0,0,0,.2.2,4.84,4.84,0,0,0,.46.33,3.73,3.73,0,0,0,1,.45,7.88,7.88,0,0,0-.91-.64Z" style="fill:#c66445"/><path d="M47.94,63.56a5.18,5.18,0,0,0-.85-1,8.6,8.6,0,0,0,.67,1.09l.36.51c.13.17.25.33.37.52a1.86,1.86,0,0,0-.22-.61A6.16,6.16,0,0,0,47.94,63.56Z" style="fill:#c66445"/><path d="M93.6,4.1c-10,1.11-18.06,10.37-18.06,18.21S83.63,35.6,93.6,34.5s18.06-8.35,18.06-16.18S103.57,3,93.6,4.1Z" style="fill:#ef9569"/><path d="M108,16.59A6.37,6.37,0,0,0,111.16,15q-3.16.93-5-.87a3.76,3.76,0,0,0,2.92-2.07c-1.41,1.11-3.34,1-5.61,0a5.37,5.37,0,0,0,2.72-2.64,4.86,4.86,0,0,1-4.71.35,4.25,4.25,0,0,0,2.12-2.18c-3.13,2.36-6.44.16-10.11.52h0a11.91,11.91,0,0,0-7.87,3.8A42.5,42.5,0,0,0,78.75,22l0,.06a2.38,2.38,0,0,0-.89,1.38,1.1,1.1,0,0,0,.15,1,1.22,1.22,0,0,0,1,.42,1.36,1.36,0,0,0,.69-.18,1.2,1.2,0,0,0,.51-.69c3,3,7.52,5.9,12.73,5.9,4.36,0,10.5-2.21,15.32-11.55l.13-.26A5.1,5.1,0,0,0,112.17,17,5.44,5.44,0,0,1,108,16.59Z" style="fill:#4c433c"/><path d="M79.14,22.23a1.89,1.89,0,0,0-1,1.33c-.26,1,.9,1.11,1.3.85a1.22,1.22,0,0,0,.39-1.36C79.73,22.48,79.51,22.15,79.14,22.23Z" style="fill:#cd7d7a"/><path d="M107.81,18.15c-8.5,16.45-22.53,11.69-28.67,4.08a.61.61,0,0,0,.07-.14q12-23.74,27.93-4.75C107.36,17.6,107.59,17.87,107.81,18.15Z" style="fill:#e3dbc3"/><path d="M107.14,17.34C98.88,32.5,85.87,29,79.21,22.09Q91.21-1.66,107.14,17.34Z" style="fill:#f7f3e9"/><circle cx="93.49" cy="17.36" r="8.18" transform="translate(61.12 106.77) rotate(-80.62)" style="fill:#4c433c"/><path d="M93.6,24.38a7.09,7.09,0,1,1,7.09-7.09A7.09,7.09,0,0,1,93.6,24.38Z" style="fill:#64b2b1"/><circle cx="93.43" cy="17.18" r="3.46" style="fill:#4c433c"/><circle cx="96.89" cy="13.9" r="2.87" style="fill:#f7f3e9"/><path d="M96.94,17.53a.79.79,0,1,0,.78.78A.78.78,0,0,0,96.94,17.53Z" style="fill:#f7f3e9"/><path d="M105.21,10l-.55-.45-.4-.33-.47-.38-.56-.44L102.59,8l-.72-.5-.8-.51-.44-.26c-.14-.09-.3-.17-.45-.25-.31-.17-.64-.33-1-.49A14.83,14.83,0,0,0,97,5.13a11.43,11.43,0,0,0-2.53-.4,10.43,10.43,0,0,0-2.58.2,9.78,9.78,0,0,0-2.27.77,10.77,10.77,0,0,0-1.84,1.09c-.28.19-.52.4-.76.59s-.46.4-.66.59-.39.38-.57.56-.33.36-.48.52l-.22.23-.19.23-.33.39-.45.56-.16.18s.23-.25.67-.68L85,9.62c.14-.12.29-.26.47-.39L86,8.79c.2-.14.41-.3.64-.45L87,8.11l.37-.24c.26-.15.51-.31.8-.45A12.66,12.66,0,0,1,90,6.61a11.64,11.64,0,0,1,2.11-.54A12.55,12.55,0,0,1,94.39,6a14.57,14.57,0,0,1,2.32.31,19.53,19.53,0,0,1,2.13.6c.33.12.66.23,1,.36s.62.25.91.38l.44.19.41.19.77.38.69.36.62.34,1,.58c.52.33.8.53.8.53Z" style="fill:#d9794a"/><path d="M96.19,31.43a17.35,17.35,0,0,1-3.38.51,20.77,20.77,0,0,1-3.5-.15,9,9,0,0,0,3.49,1,11,11,0,0,0,3.66-.3,12.09,12.09,0,0,0,3.37-1.43,10.37,10.37,0,0,0,2.71-2.4,27.46,27.46,0,0,1-3.12,1.64A20,20,0,0,1,96.19,31.43Z" style="fill:#d9794a"/></g></g></svg>