<svg id="Layer_1" data-name="Layer 1" xmlns="http://www.w3.org/2000/svg" viewBox="0 0 502.43 181.29"><defs><style>.cls-1{fill:#f37666;}.cls-2{fill:#044163;}.cls-3{fill:#67c8c9;}.cls-4{fill:#fdb817;}.cls-5{fill:#231f20;}.cls-6,.cls-8{fill:none;}.cls-6{stroke:#424143;stroke-linecap:round;stroke-linejoin:round;}.cls-7{fill:#424143;}.cls-8{stroke:#8dc63f;stroke-miterlimit:10;stroke-width:4px;stroke-dasharray:12.09 12.09;}</style></defs><circle class="cls-1" cx="66.36" cy="64.45" r="49.41"/><path class="cls-2" d="M146,106.84H90.24a.58.58,0,0,1-.59-.57V50.52h1.18v55.14H146Z" transform="translate(-51.45 -14.23)"/><circle class="cls-3" cx="46.76" cy="82.15" r="1.48"/><circle class="cls-3" cx="55.14" cy="82.12" r="1.48"/><circle class="cls-3" cx="55.14" cy="76.06" r="1.48"/><circle class="cls-3" cx="62.24" cy="75.39" r="1.48"/><circle class="cls-3" cx="62.47" cy="71.39" r="1.48"/><circle class="cls-3" cx="68.69" cy="72.54" r="1.48"/><circle class="cls-3" cx="62.69" cy="66.3" r="1.48"/><circle class="cls-3" cx="69.83" cy="62.79" r="1.48"/><circle class="cls-3" cx="74.71" cy="67.98" r="1.48"/><circle class="cls-3" cx="80.91" cy="72.17" r="1.48"/><circle class="cls-3" cx="72.27" cy="55.45" r="1.48"/><circle class="cls-3" cx="80.04" cy="58.63" r="1.48"/><circle class="cls-3" cx="79.85" cy="50.69" r="1.48"/><circle class="cls-3" cx="86.96" cy="60.29" r="1.48"/><circle class="cls-3" cx="61.04" cy="61.24" r="1.48"/><circle class="cls-3" cx="55.36" cy="70.96" r="1.48"/><circle class="cls-3" cx="48.24" cy="50.59" r="1.48"/><rect class="cls-4" x="110.74" y="52.57" width="2" height="54.61" rx="1" transform="translate(20.96 -65.95) rotate(37.8)"/><path class="cls-5" d="M60.47,153.79a.68.68,0,0,1,0,.21.71.71,0,0,1,0,.17.39.39,0,0,1-.08.1l-.1,0a.76.76,0,0,1-.35-.17,4.81,4.81,0,0,0-.65-.39,7.47,7.47,0,0,0-1-.38,4.69,4.69,0,0,0-1.37-.18,4.18,4.18,0,0,0-1.81.38,3.79,3.79,0,0,0-1.34,1,4.39,4.39,0,0,0-.83,1.54,6.58,6.58,0,0,0,0,4,4.18,4.18,0,0,0,.9,1.52,3.76,3.76,0,0,0,1.37,1,4.58,4.58,0,0,0,1.75.33,5.3,5.3,0,0,0,1.23-.15,4.6,4.6,0,0,0,1.17-.46v-3.7H56.45a.24.24,0,0,1-.21-.12.68.68,0,0,1-.07-.35,1.38,1.38,0,0,1,0-.22.53.53,0,0,1,.05-.15.2.2,0,0,1,.09-.09.24.24,0,0,1,.12,0h3.49a.53.53,0,0,1,.33.12.43.43,0,0,1,.12.17.68.68,0,0,1,0,.27v4.24a.8.8,0,0,1-.07.36.65.65,0,0,1-.3.29,5.76,5.76,0,0,1-.64.3,5.25,5.25,0,0,1-.82.27,8,8,0,0,1-.85.17,5.92,5.92,0,0,1-.84,0,6,6,0,0,1-2.31-.41,4.7,4.7,0,0,1-1.72-1.19,5,5,0,0,1-1.07-1.81,6.88,6.88,0,0,1-.37-2.32,7,7,0,0,1,.4-2.43A5.31,5.31,0,0,1,53,153.85a5,5,0,0,1,1.74-1.2,5.77,5.77,0,0,1,2.24-.43,5.36,5.36,0,0,1,1.16.12,7,7,0,0,1,1,.27,3.75,3.75,0,0,1,.75.36,1.76,1.76,0,0,1,.42.3.46.46,0,0,1,.15.21A.86.86,0,0,1,60.47,153.79Z" transform="translate(-51.45 -14.23)"/><path class="cls-5" d="M69.86,159.19a.47.47,0,0,1-.17.43.56.56,0,0,1-.32.12H63.93a6.06,6.06,0,0,0,.14,1.34,2.8,2.8,0,0,0,.48,1,2.35,2.35,0,0,0,.88.66,3.43,3.43,0,0,0,1.32.23,5.05,5.05,0,0,0,1-.1,7.16,7.16,0,0,0,.76-.22l.53-.21a.75.75,0,0,1,.29-.1.17.17,0,0,1,.1,0s0,0,.07.08a.54.54,0,0,1,0,.15,1.35,1.35,0,0,1,0,.22.37.37,0,0,1,0,.11.36.36,0,0,1,0,.11.36.36,0,0,1,0,.09l-.07.09a1.25,1.25,0,0,1-.27.15,3.81,3.81,0,0,1-.6.23c-.25.07-.53.13-.86.19a5.87,5.87,0,0,1-1.05.09,4.37,4.37,0,0,1-1.64-.28,2.89,2.89,0,0,1-1.2-.82,3.48,3.48,0,0,1-.74-1.34,6.2,6.2,0,0,1-.25-1.86,6,6,0,0,1,.26-1.82,3.74,3.74,0,0,1,.75-1.36,3.15,3.15,0,0,1,1.16-.85,3.78,3.78,0,0,1,1.52-.3,3.62,3.62,0,0,1,1.54.3,2.9,2.9,0,0,1,1,.81,3.1,3.1,0,0,1,.6,1.17,5.05,5.05,0,0,1,.19,1.41Zm-1.08-.31a2.9,2.9,0,0,0-.59-2,2.2,2.2,0,0,0-1.77-.71,2.32,2.32,0,0,0-1,.23,2.23,2.23,0,0,0-.77.59,2.58,2.58,0,0,0-.48.86,3.91,3.91,0,0,0-.19,1Z" transform="translate(-51.45 -14.23)"/><path class="cls-5" d="M78.75,163.59a.16.16,0,0,1,0,.09.14.14,0,0,1-.08.07.5.5,0,0,1-.16.05H78a.5.5,0,0,1-.16-.05.16.16,0,0,1-.09-.07.29.29,0,0,1,0-.09v-4.74a4.93,4.93,0,0,0-.12-1.2,2.42,2.42,0,0,0-.34-.8,1.62,1.62,0,0,0-.59-.51,1.78,1.78,0,0,0-.83-.18,2.1,2.1,0,0,0-1.22.44,6.5,6.5,0,0,0-1.27,1.26v5.73a.16.16,0,0,1,0,.09.18.18,0,0,1-.08.07l-.16.05h-.51a.58.58,0,0,1-.17-.05.11.11,0,0,1-.08-.07.15.15,0,0,1,0-.09v-8a.16.16,0,0,1,0-.1s0,0,.08-.07l.16-.05H73l.15.05a.16.16,0,0,1,.07.07.16.16,0,0,1,0,.1v1.13a4.65,4.65,0,0,1,1.35-1.11,2.83,2.83,0,0,1,1.32-.35,2.93,2.93,0,0,1,1.32.27,2.33,2.33,0,0,1,.87.71,3,3,0,0,1,.47,1.05,6,6,0,0,1,.15,1.45Z" transform="translate(-51.45 -14.23)"/><path class="cls-5" d="M88.16,159.19a.47.47,0,0,1-.17.43.56.56,0,0,1-.32.12H82.23a6.06,6.06,0,0,0,.14,1.34,2.8,2.8,0,0,0,.48,1,2.35,2.35,0,0,0,.88.66,3.43,3.43,0,0,0,1.32.23,5.05,5.05,0,0,0,1-.1,7.16,7.16,0,0,0,.76-.22l.53-.21a.75.75,0,0,1,.29-.1.17.17,0,0,1,.1,0s0,0,.07.08a.54.54,0,0,1,0,.15,1.35,1.35,0,0,1,0,.22.37.37,0,0,1,0,.11.36.36,0,0,1,0,.11.36.36,0,0,1,0,.09.28.28,0,0,1-.07.09,1.25,1.25,0,0,1-.27.15,3.81,3.81,0,0,1-.6.23c-.25.07-.53.13-.86.19a5.87,5.87,0,0,1-1,.09,4.37,4.37,0,0,1-1.64-.28,2.89,2.89,0,0,1-1.2-.82,3.61,3.61,0,0,1-.74-1.34,6.54,6.54,0,0,1-.25-1.86,6,6,0,0,1,.26-1.82,3.74,3.74,0,0,1,.75-1.36,3.15,3.15,0,0,1,1.16-.85,3.78,3.78,0,0,1,1.52-.3,3.58,3.58,0,0,1,1.54.3,2.9,2.9,0,0,1,1,.81,3.1,3.1,0,0,1,.6,1.17,5.05,5.05,0,0,1,.19,1.41Zm-1.08-.31a2.9,2.9,0,0,0-.58-2,2.23,2.23,0,0,0-1.78-.71,2.32,2.32,0,0,0-1,.23,2.23,2.23,0,0,0-.77.59,2.58,2.58,0,0,0-.48.86,3.91,3.91,0,0,0-.19,1Z" transform="translate(-51.45 -14.23)"/><path class="cls-5" d="M95,156a1.55,1.55,0,0,1,0,.23.33.33,0,0,1,0,.15.19.19,0,0,1,0,.09.11.11,0,0,1-.08,0,.72.72,0,0,1-.19,0l-.25-.09-.3-.08a1.5,1.5,0,0,0-.37,0,1.1,1.1,0,0,0-.47.1,2.07,2.07,0,0,0-.48.33,4,4,0,0,0-.53.59c-.19.25-.39.55-.61.91v5.4a.16.16,0,0,1,0,.09.18.18,0,0,1-.08.07.5.5,0,0,1-.16.05h-.51a.58.58,0,0,1-.17-.05.11.11,0,0,1-.08-.07.15.15,0,0,1,0-.09v-8a.16.16,0,0,1,0-.1s0,0,.08-.07l.16-.05h.49l.15.05a.16.16,0,0,1,.07.07.16.16,0,0,1,0,.1v1.26a5.58,5.58,0,0,1,.64-.81,2.85,2.85,0,0,1,.55-.48,1.61,1.61,0,0,1,.52-.24,2.22,2.22,0,0,1,.51-.06l.27,0a1.87,1.87,0,0,1,.32,0,1.93,1.93,0,0,1,.31.09l.19.08s.06.05.07.08a.34.34,0,0,1,0,.08,1.23,1.23,0,0,1,0,.13Z" transform="translate(-51.45 -14.23)"/><path class="cls-5" d="M102,163.59a.16.16,0,0,1-.06.13.26.26,0,0,1-.15.07.86.86,0,0,1-.25,0,1,1,0,0,1-.26,0,.26.26,0,0,1-.16-.07.16.16,0,0,1-.06-.13v-.89a4.12,4.12,0,0,1-1.18.89,2.94,2.94,0,0,1-1.35.32,3.57,3.57,0,0,1-1.12-.16,2.45,2.45,0,0,1-.84-.47,2,2,0,0,1-.53-.73,2.37,2.37,0,0,1-.19-1,2.23,2.23,0,0,1,.28-1.15,2.32,2.32,0,0,1,.77-.82,3.79,3.79,0,0,1,1.21-.49,6.89,6.89,0,0,1,1.57-.16H101v-.69a3.46,3.46,0,0,0-.11-.9,1.54,1.54,0,0,0-.34-.66,1.48,1.48,0,0,0-.62-.4,2.76,2.76,0,0,0-.92-.13,3.19,3.19,0,0,0-1,.13,4.23,4.23,0,0,0-.74.29c-.21.1-.38.2-.52.28a.67.67,0,0,1-.3.13l-.09,0a.16.16,0,0,1-.08-.06.5.5,0,0,1,0-.13.9.9,0,0,1,0-.18,1.12,1.12,0,0,1,0-.29.41.41,0,0,1,.14-.22,1.43,1.43,0,0,1,.39-.26,4,4,0,0,1,.65-.28,4.33,4.33,0,0,1,.79-.21,4.78,4.78,0,0,1,.84-.08,4.3,4.3,0,0,1,1.39.2,2.21,2.21,0,0,1,.91.57,2.18,2.18,0,0,1,.5.91,4.6,4.6,0,0,1,.15,1.23ZM101,159.82H99.53a4.6,4.6,0,0,0-1.11.12,2.19,2.19,0,0,0-.79.33,1.39,1.39,0,0,0-.47.53,1.61,1.61,0,0,0-.16.71,1.43,1.43,0,0,0,.44,1.09,1.69,1.69,0,0,0,1.23.41,2.19,2.19,0,0,0,1.17-.32,5.12,5.12,0,0,0,1.15-1Z" transform="translate(-51.45 -14.23)"/><path class="cls-5" d="M106,163.59a.16.16,0,0,1,0,.09.18.18,0,0,1-.08.07l-.16.05h-.51a.58.58,0,0,1-.17-.05.11.11,0,0,1-.08-.07.15.15,0,0,1,0-.09V151.7a.15.15,0,0,1,0-.09.15.15,0,0,1,.08-.08.61.61,0,0,1,.17,0l.25,0,.26,0a.62.62,0,0,1,.16,0l.08.08a.16.16,0,0,1,0,.09Z" transform="translate(-51.45 -14.23)"/><path class="cls-5" d="M110.14,152.92a.81.81,0,0,1-.15.57.77.77,0,0,1-.55.15.78.78,0,0,1-.53-.14.81.81,0,0,1-.15-.57.84.84,0,0,1,.15-.58.83.83,0,0,1,.55-.14.72.72,0,0,1,.53.14A.81.81,0,0,1,110.14,152.92ZM110,163.59a.16.16,0,0,1,0,.09.11.11,0,0,1-.08.07.5.5,0,0,1-.16.05h-.51a.5.5,0,0,1-.16-.05.16.16,0,0,1-.09-.07.29.29,0,0,1,0-.09v-8a.3.3,0,0,1,0-.1.22.22,0,0,1,.09-.07.5.5,0,0,1,.16-.05h.51a.5.5,0,0,1,.16.05s.07,0,.08.07a.17.17,0,0,1,0,.1Z" transform="translate(-51.45 -14.23)"/><path class="cls-5" d="M117.74,163.3a1.25,1.25,0,0,1,0,.21l-.06.14-.09.09-.12,0H112.7a.35.35,0,0,1-.26-.1.46.46,0,0,1-.12-.36v-.24a.9.9,0,0,1,0-.18.7.7,0,0,1,.06-.17,1.07,1.07,0,0,1,.09-.19l.14-.23,3.79-5.95H112.7a.24.24,0,0,1-.2-.11.62.62,0,0,1-.08-.35,1.12,1.12,0,0,1,0-.2,1.16,1.16,0,0,1,.06-.15.18.18,0,0,1,.09-.08.2.2,0,0,1,.11,0h4.41l.15,0a.25.25,0,0,1,.12.08.37.37,0,0,1,.08.14.66.66,0,0,1,0,.21v.2a1.09,1.09,0,0,1,0,.18,1.21,1.21,0,0,1,0,.18c0,.06-.06.13-.1.2a2.36,2.36,0,0,1-.15.25l-3.78,6h4a.23.23,0,0,1,.12,0,.38.38,0,0,1,.09.09.64.64,0,0,1,.06.14A1.23,1.23,0,0,1,117.74,163.3Z" transform="translate(-51.45 -14.23)"/><path class="cls-5" d="M126.09,159.19a.5.5,0,0,1-.17.43.56.56,0,0,1-.33.12h-5.44a5.49,5.49,0,0,0,.15,1.34,2.8,2.8,0,0,0,.48,1,2.24,2.24,0,0,0,.87.66A3.43,3.43,0,0,0,123,163a5,5,0,0,0,1-.1,6.53,6.53,0,0,0,.76-.22l.53-.21a.78.78,0,0,1,.3-.1.16.16,0,0,1,.09,0,.11.11,0,0,1,.07.08.33.33,0,0,1,0,.15,1.18,1.18,0,0,1,0,.22s0,.08,0,.11,0,.08,0,.11l0,.09-.07.09a1.17,1.17,0,0,1-.28.15,3.81,3.81,0,0,1-.6.23c-.24.07-.53.13-.86.19a5.71,5.71,0,0,1-1.05.09,4.41,4.41,0,0,1-1.64-.28,3,3,0,0,1-1.2-.82,3.46,3.46,0,0,1-.73-1.34,6.19,6.19,0,0,1-.26-1.86,6,6,0,0,1,.26-1.82,4.06,4.06,0,0,1,.75-1.36,3.1,3.1,0,0,1,1.17-.85,3.72,3.72,0,0,1,1.52-.3,3.54,3.54,0,0,1,1.53.3,2.93,2.93,0,0,1,1,.81,3.42,3.42,0,0,1,.6,1.17,5.45,5.45,0,0,1,.19,1.41Zm-1.09-.31a2.85,2.85,0,0,0-.58-2,2.23,2.23,0,0,0-1.77-.71,2.39,2.39,0,0,0-1.06.23,2.2,2.2,0,0,0-.76.59,2.58,2.58,0,0,0-.48.86,3.55,3.55,0,0,0-.2,1Z" transform="translate(-51.45 -14.23)"/><path class="cls-5" d="M134.94,163.59a.17.17,0,0,1,0,.1s0,.05-.08.07a.39.39,0,0,1-.14,0h-.45a.39.39,0,0,1-.15,0,.22.22,0,0,1-.09-.07.17.17,0,0,1,0-.1v-1.15a5.6,5.6,0,0,1-1.32,1.08,2.9,2.9,0,0,1-1.48.39,3,3,0,0,1-1.47-.33,2.8,2.8,0,0,1-1-.91,3.92,3.92,0,0,1-.56-1.35,7.14,7.14,0,0,1-.18-1.63,7.28,7.28,0,0,1,.22-1.83,4.08,4.08,0,0,1,.66-1.39,2.91,2.91,0,0,1,1.06-.88,3.28,3.28,0,0,1,1.47-.31,2.81,2.81,0,0,1,1.33.32,4.73,4.73,0,0,1,1.18,1v-4.8a.16.16,0,0,1,0-.1s0-.05.08-.07a.61.61,0,0,1,.17,0,.9.9,0,0,1,.25,0,1,1,0,0,1,.26,0l.16,0a.27.27,0,0,1,.08.07.17.17,0,0,1,0,.1Zm-1.05-5.76a6.57,6.57,0,0,0-1.28-1.23,2.22,2.22,0,0,0-1.28-.42,1.87,1.87,0,0,0-1,.29,2.26,2.26,0,0,0-.7.77,3.34,3.34,0,0,0-.4,1.07,6.24,6.24,0,0,0-.13,1.22,7.83,7.83,0,0,0,.11,1.29,3.71,3.71,0,0,0,.36,1.11,2.18,2.18,0,0,0,.68.79,1.86,1.86,0,0,0,1.06.29,2.16,2.16,0,0,0,.62-.09,2,2,0,0,0,.61-.29,4.66,4.66,0,0,0,.66-.52,8.61,8.61,0,0,0,.73-.8Z" transform="translate(-51.45 -14.23)"/><path class="cls-5" d="M147.88,163.27a1.25,1.25,0,0,1,0,.21.53.53,0,0,1-.05.15.3.3,0,0,1-.09.1.27.27,0,0,1-.12,0h-4.95a.58.58,0,0,1-.33-.12.49.49,0,0,1-.16-.43V152.53a.18.18,0,0,1,0-.1.22.22,0,0,1,.09-.07l.17,0,.25,0,.26,0,.17,0s.07,0,.08.07a.19.19,0,0,1,0,.1v10.25h4.37a.27.27,0,0,1,.12,0l.09.09a.53.53,0,0,1,.05.15A1.38,1.38,0,0,1,147.88,163.27Z" transform="translate(-51.45 -14.23)"/><path class="cls-5" d="M150.73,152.92a.81.81,0,0,1-.15.57.76.76,0,0,1-.54.15.81.81,0,0,1-.54-.14.87.87,0,0,1-.14-.57.84.84,0,0,1,.15-.58.81.81,0,0,1,.54-.14.76.76,0,0,1,.54.14A.82.82,0,0,1,150.73,152.92Zm-.16,10.67a.15.15,0,0,1,0,.09.16.16,0,0,1-.09.07.44.44,0,0,1-.15.05h-.52l-.16-.05a.11.11,0,0,1-.08-.07.15.15,0,0,1,0-.09v-8a.16.16,0,0,1,0-.1s0,0,.08-.07l.16-.05h.52a.44.44,0,0,1,.15.05.22.22,0,0,1,.09.07.16.16,0,0,1,0,.1Z" transform="translate(-51.45 -14.23)"/><path class="cls-5" d="M160,163.59a.16.16,0,0,1,0,.09.11.11,0,0,1-.08.07.5.5,0,0,1-.16.05h-.51a.5.5,0,0,1-.16-.05.14.14,0,0,1-.08-.07.16.16,0,0,1,0-.09v-4.74a5.57,5.57,0,0,0-.11-1.2,2.43,2.43,0,0,0-.35-.8,1.67,1.67,0,0,0-.58-.51,1.86,1.86,0,0,0-.84-.18,2.07,2.07,0,0,0-1.21.44,6.52,6.52,0,0,0-1.28,1.26v5.73a.16.16,0,0,1,0,.09.11.11,0,0,1-.08.07.5.5,0,0,1-.16.05h-.51a.5.5,0,0,1-.16-.05.13.13,0,0,1-.09-.07.29.29,0,0,1,0-.09v-8a.3.3,0,0,1,0-.1.17.17,0,0,1,.09-.07l.15-.05h.49l.15.05a.16.16,0,0,1,.07.07.17.17,0,0,1,0,.1v1.13a4.5,4.5,0,0,1,1.34-1.11,2.87,2.87,0,0,1,1.32-.35,2.93,2.93,0,0,1,1.32.27,2.26,2.26,0,0,1,.87.71,2.79,2.79,0,0,1,.47,1.05,6,6,0,0,1,.15,1.45Z" transform="translate(-51.45 -14.23)"/><path class="cls-5" d="M169.4,159.19a.5.5,0,0,1-.17.43.56.56,0,0,1-.33.12h-5.44a5.49,5.49,0,0,0,.15,1.34,2.51,2.51,0,0,0,.48,1,2.24,2.24,0,0,0,.87.66,3.43,3.43,0,0,0,1.32.23,5,5,0,0,0,1-.1,6.53,6.53,0,0,0,.76-.22l.53-.21a.78.78,0,0,1,.3-.1.16.16,0,0,1,.09,0,.11.11,0,0,1,.07.08.54.54,0,0,1,0,.15,1.18,1.18,0,0,1,0,.22s0,.08,0,.11a.52.52,0,0,0,0,.11l0,.09-.07.09a1.17,1.17,0,0,1-.28.15,3.81,3.81,0,0,1-.6.23c-.24.07-.53.13-.86.19a5.71,5.71,0,0,1-1.05.09,4.41,4.41,0,0,1-1.64-.28,3,3,0,0,1-1.2-.82,3.46,3.46,0,0,1-.73-1.34,6.19,6.19,0,0,1-.26-1.86,6,6,0,0,1,.26-1.82,4.06,4.06,0,0,1,.75-1.36,3.1,3.1,0,0,1,1.17-.85,3.72,3.72,0,0,1,1.52-.3,3.54,3.54,0,0,1,1.53.3,3,3,0,0,1,1.05.81,3.42,3.42,0,0,1,.6,1.17,5.45,5.45,0,0,1,.19,1.41Zm-1.09-.31a2.85,2.85,0,0,0-.58-2,2.23,2.23,0,0,0-1.77-.71,2.39,2.39,0,0,0-1.06.23,2.2,2.2,0,0,0-.76.59,2.58,2.58,0,0,0-.48.86,3.55,3.55,0,0,0-.2,1Z" transform="translate(-51.45 -14.23)"/><path class="cls-5" d="M177.4,163.59a.16.16,0,0,1-.06.13.26.26,0,0,1-.15.07.86.86,0,0,1-.25,0,.94.94,0,0,1-.25,0,.27.27,0,0,1-.17-.07.15.15,0,0,1-.05-.13v-.89a4.16,4.16,0,0,1-1.19.89,2.9,2.9,0,0,1-1.34.32,3.59,3.59,0,0,1-1.13-.16,2.45,2.45,0,0,1-.84-.47,2,2,0,0,1-.53-.73,2.54,2.54,0,0,1-.18-1,2.23,2.23,0,0,1,1-2,3.79,3.79,0,0,1,1.21-.49,7,7,0,0,1,1.57-.16h1.27v-.69a3.46,3.46,0,0,0-.11-.9,1.54,1.54,0,0,0-.34-.66,1.42,1.42,0,0,0-.62-.4,2.76,2.76,0,0,0-.92-.13,3.12,3.12,0,0,0-1,.13,3.68,3.68,0,0,0-.74.29c-.22.1-.39.2-.53.28a.69.69,0,0,1-.29.13l-.1,0a.16.16,0,0,1-.08-.06.5.5,0,0,1,0-.13,1,1,0,0,1,0-.18,2.07,2.07,0,0,1,0-.29.48.48,0,0,1,.14-.22,1.43,1.43,0,0,1,.39-.26,4.38,4.38,0,0,1,.65-.28,4.56,4.56,0,0,1,.79-.21,4.8,4.8,0,0,1,.85-.08,4.28,4.28,0,0,1,1.38.2,2.15,2.15,0,0,1,.91.57,2.18,2.18,0,0,1,.5.91,4.6,4.6,0,0,1,.15,1.23Zm-1.05-3.77H174.9a4.49,4.49,0,0,0-1.11.12,2.17,2.17,0,0,0-.8.33,1.39,1.39,0,0,0-.47.53,1.61,1.61,0,0,0-.15.71,1.42,1.42,0,0,0,.43,1.09A1.69,1.69,0,0,0,174,163a2.19,2.19,0,0,0,1.17-.32,5.12,5.12,0,0,0,1.15-1Z" transform="translate(-51.45 -14.23)"/><path class="cls-5" d="M184.73,156v.23a.54.54,0,0,1,0,.15.19.19,0,0,1-.05.09.11.11,0,0,1-.08,0,.72.72,0,0,1-.19,0l-.24-.09-.31-.08a1.45,1.45,0,0,0-.37,0,1.1,1.1,0,0,0-.47.1,2.07,2.07,0,0,0-.48.33,4.61,4.61,0,0,0-.53.59c-.18.25-.39.55-.61.91v5.4a.16.16,0,0,1,0,.09.14.14,0,0,1-.08.07.5.5,0,0,1-.16.05h-.51a.69.69,0,0,1-.17-.05.14.14,0,0,1-.08-.07.29.29,0,0,1,0-.09v-8a.3.3,0,0,1,0-.1.19.19,0,0,1,.08-.07l.16-.05h.49l.15.05a.16.16,0,0,1,.07.07.17.17,0,0,1,0,.1v1.26a5.6,5.6,0,0,1,.63-.81,2.85,2.85,0,0,1,.55-.48,1.61,1.61,0,0,1,.52-.24,2.24,2.24,0,0,1,.52-.06l.26,0a1.87,1.87,0,0,1,.32,0,1.93,1.93,0,0,1,.31.09l.19.08a.17.17,0,0,1,.07.08.34.34,0,0,1,0,.08.39.39,0,0,1,0,.13Z" transform="translate(-51.45 -14.23)"/><path class="cls-5" d="M70.51,185.25a.17.17,0,0,1,0,.1.22.22,0,0,1-.09.07l-.17,0-.26,0-.25,0-.17,0s-.07,0-.08-.07a.17.17,0,0,1,0-.1V175h0l-4.49,10.35a.12.12,0,0,1,0,.07.19.19,0,0,1-.1.05l-.14,0h-.41l-.15,0-.09-.05a.1.1,0,0,1,0-.07L59.67,175h0v10.29a.3.3,0,0,1,0,.1.2.2,0,0,1-.1.07l-.16,0-.27,0-.26,0a.62.62,0,0,1-.16,0s-.07,0-.08-.07a.16.16,0,0,1,0-.1V174.58a.5.5,0,0,1,.16-.44.58.58,0,0,1,.33-.12h.58a1.48,1.48,0,0,1,.39,0,1,1,0,0,1,.3.14,1.1,1.1,0,0,1,.21.22,2.11,2.11,0,0,1,.16.3l3.76,9.07h0l3.92-9a2,2,0,0,1,.19-.36,1.2,1.2,0,0,1,.21-.23.8.8,0,0,1,.24-.13,1.27,1.27,0,0,1,.28,0H70l.17,0a.37.37,0,0,1,.16.09.83.83,0,0,1,.12.17.68.68,0,0,1,.05.27Z" transform="translate(-51.45 -14.23)"/><path class="cls-5" d="M80.7,181.18a6.07,6.07,0,0,1-.24,1.75,4.08,4.08,0,0,1-.74,1.4,3.31,3.31,0,0,1-1.22.92,4.09,4.09,0,0,1-1.7.33,4.17,4.17,0,0,1-1.64-.3,3.21,3.21,0,0,1-1.17-.85,3.52,3.52,0,0,1-.7-1.33,6,6,0,0,1-.24-1.77,5.8,5.8,0,0,1,.25-1.76,3.93,3.93,0,0,1,.73-1.39,3.29,3.29,0,0,1,1.22-.91A4.14,4.14,0,0,1,77,177a4.09,4.09,0,0,1,1.63.29,2.93,2.93,0,0,1,1.17.84,3.73,3.73,0,0,1,.71,1.34A6,6,0,0,1,80.7,181.18Zm-1.11.09a6,6,0,0,0-.13-1.29,3.2,3.2,0,0,0-.44-1.09,2.31,2.31,0,0,0-.83-.75,2.77,2.77,0,0,0-1.29-.28,2.8,2.8,0,0,0-1.24.26,2.35,2.35,0,0,0-.85.71,3.19,3.19,0,0,0-.49,1.07,5.64,5.64,0,0,0-.16,1.33,6.12,6.12,0,0,0,.14,1.31,2.94,2.94,0,0,0,.44,1.09,2.17,2.17,0,0,0,.82.74,3.23,3.23,0,0,0,2.54,0,2.35,2.35,0,0,0,.85-.71,3.1,3.1,0,0,0,.49-1.07A5.61,5.61,0,0,0,79.59,181.27Z" transform="translate(-51.45 -14.23)"/><path class="cls-5" d="M89.49,185.25a.2.2,0,0,1,0,.11s0,0-.08.07l-.14,0h-.46l-.15,0a.22.22,0,0,1-.09-.07.2.2,0,0,1,0-.11V184.1a5.56,5.56,0,0,1-1.31,1.08,2.84,2.84,0,0,1-1.48.4,2.91,2.91,0,0,1-1.47-.34,2.63,2.63,0,0,1-1-.91A4,4,0,0,1,82.7,183a7.79,7.79,0,0,1-.17-1.64,7,7,0,0,1,.22-1.83,4,4,0,0,1,.65-1.38,2.93,2.93,0,0,1,1.07-.88,3.25,3.25,0,0,1,1.47-.31,2.69,2.69,0,0,1,1.32.32,4.36,4.36,0,0,1,1.18.95v-4.81a.19.19,0,0,1,0-.1.19.19,0,0,1,.08-.07l.16,0,.25,0,.26,0,.16,0a.35.35,0,0,1,.09.07.36.36,0,0,1,0,.1Zm-1-5.76a6.47,6.47,0,0,0-1.27-1.22,2.25,2.25,0,0,0-1.28-.42,1.77,1.77,0,0,0-1,.29,2.25,2.25,0,0,0-.71.76,3.65,3.65,0,0,0-.39,1.08,5.49,5.49,0,0,0-.13,1.22,7.62,7.62,0,0,0,.11,1.28,3.78,3.78,0,0,0,.36,1.12,2.15,2.15,0,0,0,.68.78,1.77,1.77,0,0,0,1.06.3,2.1,2.1,0,0,0,.61-.09,2.65,2.65,0,0,0,.62-.29,4.78,4.78,0,0,0,.66-.53,8.4,8.4,0,0,0,.72-.79Z" transform="translate(-51.45 -14.23)"/><path class="cls-5" d="M98.94,180.85a.51.51,0,0,1-.16.44.58.58,0,0,1-.33.12H93a5.55,5.55,0,0,0,.15,1.34,2.41,2.41,0,0,0,.48,1,2.06,2.06,0,0,0,.87.66,3.43,3.43,0,0,0,1.32.23,4.4,4.4,0,0,0,1-.1,5.09,5.09,0,0,0,.76-.21c.21-.08.39-.15.53-.22a1.08,1.08,0,0,1,.29-.1.17.17,0,0,1,.1,0,.27.27,0,0,1,.07.08.54.54,0,0,1,0,.15,1.41,1.41,0,0,1,0,.22v.12l0,.1a.18.18,0,0,1,0,.1.28.28,0,0,1-.07.09,1.25,1.25,0,0,1-.27.15,3.91,3.91,0,0,1-.6.22c-.25.07-.53.14-.86.2a5.79,5.79,0,0,1-1.05.09,4.58,4.58,0,0,1-1.64-.28,3.1,3.1,0,0,1-1.2-.82,3.69,3.69,0,0,1-.74-1.34,6.56,6.56,0,0,1-.25-1.87,6,6,0,0,1,.26-1.81,3.8,3.8,0,0,1,.75-1.36,3.13,3.13,0,0,1,1.17-.86,3.89,3.89,0,0,1,1.52-.29,3.54,3.54,0,0,1,1.53.3,3,3,0,0,1,1,.8,3.07,3.07,0,0,1,.6,1.18,5.05,5.05,0,0,1,.19,1.41Zm-1.08-.31a2.89,2.89,0,0,0-.58-2,2.19,2.19,0,0,0-1.77-.71,2.36,2.36,0,0,0-1.06.22,2.25,2.25,0,0,0-.76.6,2.74,2.74,0,0,0-.49.85,3.91,3.91,0,0,0-.19,1Z" transform="translate(-51.45 -14.23)"/><path class="cls-5" d="M102.41,185.25a.17.17,0,0,1,0,.1.19.19,0,0,1-.08.07.53.53,0,0,1-.16,0l-.26,0-.25,0-.17,0a.19.19,0,0,1-.08-.07.3.3,0,0,1,0-.1V173.37a.3.3,0,0,1,0-.1.19.19,0,0,1,.08-.07.69.69,0,0,1,.17,0h.51a.5.5,0,0,1,.16,0,.19.19,0,0,1,.08.07.17.17,0,0,1,0,.1Z" transform="translate(-51.45 -14.23)"/><path class="cls-5" d="M106.39,185.25a.3.3,0,0,1,0,.1.22.22,0,0,1-.09.07l-.16,0-.26,0-.25,0a.62.62,0,0,1-.16,0s-.07,0-.08-.07a.17.17,0,0,1,0-.1V173.37a.17.17,0,0,1,0-.1s0-.05.08-.07l.16,0h.51a.5.5,0,0,1,.16,0,.22.22,0,0,1,.09.07.3.3,0,0,1,0,.1Z" transform="translate(-51.45 -14.23)"/><path class="cls-5" d="M110.54,174.58a.82.82,0,0,1-.15.58.79.79,0,0,1-.55.15.71.71,0,0,1-.53-.15.8.8,0,0,1-.15-.57.81.81,0,0,1,.15-.57.77.77,0,0,1,.55-.15.73.73,0,0,1,.53.15A.77.77,0,0,1,110.54,174.58Zm-.16,10.67a.17.17,0,0,1,0,.1.19.19,0,0,1-.08.07.53.53,0,0,1-.16,0l-.26,0-.25,0-.17,0s-.07,0-.08-.07a.3.3,0,0,1,0-.1v-8a.29.29,0,0,1,0-.09.15.15,0,0,1,.08-.08l.17,0,.25,0,.26,0,.16,0a.2.2,0,0,1,.08.08.16.16,0,0,1,0,.09Z" transform="translate(-51.45 -14.23)"/><path class="cls-5" d="M119.78,185.25a.3.3,0,0,1,0,.1.22.22,0,0,1-.09.07l-.16,0-.25,0-.26,0a.62.62,0,0,1-.16,0,.27.27,0,0,1-.08-.07.17.17,0,0,1,0-.1v-4.73a5,5,0,0,0-.11-1.21,2.58,2.58,0,0,0-.34-.79,1.61,1.61,0,0,0-.59-.51,1.84,1.84,0,0,0-.83-.18,2.08,2.08,0,0,0-1.22.43,6.61,6.61,0,0,0-1.28,1.27v5.72a.3.3,0,0,1,0,.1.22.22,0,0,1-.09.07l-.16,0-.26,0-.25,0a.53.53,0,0,1-.16,0,.22.22,0,0,1-.09-.07.3.3,0,0,1,0-.1v-8a.29.29,0,0,1,0-.09.24.24,0,0,1,.09-.08l.15,0,.24,0,.25,0a.39.39,0,0,1,.15,0,.2.2,0,0,1,.08.08.29.29,0,0,1,0,.09v1.13a5,5,0,0,1,1.35-1.11A2.81,2.81,0,0,1,117,177a2.9,2.9,0,0,1,1.32.26,2.37,2.37,0,0,1,.87.72,2.85,2.85,0,0,1,.48,1,6.72,6.72,0,0,1,.14,1.45Z" transform="translate(-51.45 -14.23)"/><path class="cls-5" d="M129.08,177.54a.5.5,0,0,1-.08.34.23.23,0,0,1-.2.1h-1.26a2.15,2.15,0,0,1,.52.82A3.42,3.42,0,0,1,128,181a2.46,2.46,0,0,1-.62.89,2.61,2.61,0,0,1-.94.56,3.57,3.57,0,0,1-1.21.2,3.4,3.4,0,0,1-1-.15,2.45,2.45,0,0,1-.76-.37,1.47,1.47,0,0,0-.29.4,1.14,1.14,0,0,0-.11.53.68.68,0,0,0,.32.57,1.48,1.48,0,0,0,.83.24l2.16.09a4.19,4.19,0,0,1,1,.15,2.71,2.71,0,0,1,.84.39,2,2,0,0,1,.57.64,1.83,1.83,0,0,1,.21.89,2.55,2.55,0,0,1-.21,1,2.45,2.45,0,0,1-.67.85,3.6,3.6,0,0,1-1.16.58,6,6,0,0,1-1.69.21,6.66,6.66,0,0,1-1.59-.16,3.41,3.41,0,0,1-1.07-.45,1.76,1.76,0,0,1-.61-.67,1.85,1.85,0,0,1-.19-.84,2.15,2.15,0,0,1,.07-.58,2,2,0,0,1,.22-.52,2.23,2.23,0,0,1,.36-.48,5.81,5.81,0,0,1,.5-.47,1.6,1.6,0,0,1-.66-.55,1.21,1.21,0,0,1-.22-.7,2,2,0,0,1,.22-1,3.61,3.61,0,0,1,.51-.76,2.47,2.47,0,0,1-.4-.73,2.93,2.93,0,0,1-.14-1,3,3,0,0,1,.22-1.2,2.65,2.65,0,0,1,.61-.91,3,3,0,0,1,.94-.57,3.59,3.59,0,0,1,1.2-.19,4.45,4.45,0,0,1,.65,0,4.32,4.32,0,0,1,.56.1h2.35a.25.25,0,0,1,.22.11A.77.77,0,0,1,129.08,177.54ZM128,186a1,1,0,0,0-.48-.89,2.48,2.48,0,0,0-1.26-.33l-2.32-.08a4.14,4.14,0,0,0-.52.47,2.23,2.23,0,0,0-.32.42,1.24,1.24,0,0,0-.16.41,1.83,1.83,0,0,0-.05.4,1.07,1.07,0,0,0,.66,1,4.16,4.16,0,0,0,1.83.33,4.87,4.87,0,0,0,1.24-.14,2.39,2.39,0,0,0,.8-.39,1.32,1.32,0,0,0,.44-.54A1.62,1.62,0,0,0,128,186Zm-.84-6.28a2,2,0,0,0-.5-1.42,1.88,1.88,0,0,0-1.42-.51,1.86,1.86,0,0,0-.81.16,1.61,1.61,0,0,0-.59.43,1.91,1.91,0,0,0-.34.63,2.43,2.43,0,0,0-.11.77,1.9,1.9,0,0,0,.49,1.39,1.87,1.87,0,0,0,1.4.51,2.08,2.08,0,0,0,.83-.16,1.64,1.64,0,0,0,.59-.43,1.75,1.75,0,0,0,.34-.63A2.25,2.25,0,0,0,127.12,179.76Z" transform="translate(-51.45 -14.23)"/><path class="cls-5" d="M137.93,173.24a16.18,16.18,0,0,0-1.31,3.68,17.24,17.24,0,0,0-.42,3.75,16.54,16.54,0,0,0,.43,3.75,18.49,18.49,0,0,0,1.29,3.7l0,.14a.13.13,0,0,1,0,.1.32.32,0,0,1-.13.06h-.42l-.15,0a.33.33,0,0,1-.12-.05l-.07-.08a19.45,19.45,0,0,1-.84-1.79,16.31,16.31,0,0,1-.61-1.87,14.31,14.31,0,0,1-.38-1.93,14.51,14.51,0,0,1,0-4,16.29,16.29,0,0,1,.4-1.94,16,16,0,0,1,.63-1.88,19.75,19.75,0,0,1,.81-1.82.1.1,0,0,1,0-.05s0,0,.08,0l.14,0,.25,0a.66.66,0,0,1,.21,0,.32.32,0,0,1,.13.05.15.15,0,0,1,.06.1A.35.35,0,0,1,137.93,173.24Z" transform="translate(-51.45 -14.23)"/><path class="cls-5" d="M149.08,175.46a1.49,1.49,0,0,1,0,.21.6.6,0,0,1-.05.16.21.21,0,0,1-.08.1.13.13,0,0,1-.1,0,.75.75,0,0,1-.35-.18,4.89,4.89,0,0,0-.65-.38,5.87,5.87,0,0,0-1-.39,5,5,0,0,0-1.37-.17,4.18,4.18,0,0,0-1.81.37,4,4,0,0,0-1.34,1,4.52,4.52,0,0,0-.83,1.55,6.28,6.28,0,0,0-.29,1.92,6,6,0,0,0,.33,2.06,4.62,4.62,0,0,0,.9,1.53,3.85,3.85,0,0,0,1.38.94,4.49,4.49,0,0,0,1.74.33,5.17,5.17,0,0,0,1.23-.15A4.45,4.45,0,0,0,148,184v-3.69h-2.91a.21.21,0,0,1-.21-.12.71.71,0,0,1-.08-.36,1.25,1.25,0,0,1,0-.21.26.26,0,0,1,.06-.15.24.24,0,0,1,.08-.09.28.28,0,0,1,.13,0h3.49l.17,0a.65.65,0,0,1,.16.09.43.43,0,0,1,.12.17.77.77,0,0,1,0,.27v4.24a.93.93,0,0,1-.06.36.73.73,0,0,1-.31.29,6.44,6.44,0,0,1-.63.3,6,6,0,0,1-.82.27,6.39,6.39,0,0,1-.85.17,6.18,6.18,0,0,1-.85.06,6,6,0,0,1-2.31-.42,4.76,4.76,0,0,1-1.72-1.18,5.16,5.16,0,0,1-1.07-1.82,6.84,6.84,0,0,1-.37-2.32,7,7,0,0,1,.4-2.43,5.41,5.41,0,0,1,1.13-1.87,5.09,5.09,0,0,1,1.74-1.21,5.8,5.8,0,0,1,2.24-.42,6.28,6.28,0,0,1,1.17.11,7,7,0,0,1,1,.28,5.31,5.31,0,0,1,.75.35,4.09,4.09,0,0,1,.42.3.86.86,0,0,1,.15.22A1.11,1.11,0,0,1,149.08,175.46Z" transform="translate(-51.45 -14.23)"/><path class="cls-5" d="M157.87,184.93a1.22,1.22,0,0,1,0,.21.59.59,0,0,1-.06.16.27.27,0,0,1-.08.1.28.28,0,0,1-.13,0h-4.94a.56.56,0,0,1-.33-.12.52.52,0,0,1-.17-.44V174.2a.17.17,0,0,1,0-.1.22.22,0,0,1,.09-.07l.17-.05H153l.16.05a.22.22,0,0,1,.09.07.17.17,0,0,1,0,.1v10.25h4.36a.28.28,0,0,1,.13,0,.24.24,0,0,1,.08.09.52.52,0,0,1,.06.15A1.34,1.34,0,0,1,157.87,184.93Z" transform="translate(-51.45 -14.23)"/><path class="cls-5" d="M171.64,185.25a.17.17,0,0,1,0,.1.22.22,0,0,1-.09.07l-.17,0-.26,0-.25,0-.17,0s-.07,0-.08-.07a.17.17,0,0,1,0-.1V175h0l-4.49,10.35a.18.18,0,0,1-.05.07.19.19,0,0,1-.1.05l-.14,0h-.41l-.15,0-.09-.05a.1.1,0,0,1,0-.07L160.8,175h0v10.29a.3.3,0,0,1,0,.1.2.2,0,0,1-.1.07.62.62,0,0,1-.16,0l-.27,0-.26,0-.16,0s-.07,0-.08-.07a.16.16,0,0,1,0-.1V174.58a.5.5,0,0,1,.16-.44.58.58,0,0,1,.33-.12h.58a1.48,1.48,0,0,1,.39,0,1,1,0,0,1,.3.14,1.1,1.1,0,0,1,.21.22,2.11,2.11,0,0,1,.16.3l3.76,9.07h0l3.92-9a2,2,0,0,1,.19-.36,1.2,1.2,0,0,1,.21-.23.8.8,0,0,1,.24-.13,1.27,1.27,0,0,1,.28,0h.64l.17,0a.37.37,0,0,1,.16.09.83.83,0,0,1,.12.17.68.68,0,0,1,0,.27Z" transform="translate(-51.45 -14.23)"/><path class="cls-5" d="M177.38,180.7a16.32,16.32,0,0,1-.12,2,18.28,18.28,0,0,1-.38,1.93,18.6,18.6,0,0,1-.62,1.87,17.06,17.06,0,0,1-.83,1.79.3.3,0,0,1-.08.08.23.23,0,0,1-.11.05l-.14,0h-.44a.32.32,0,0,1-.13-.06.1.1,0,0,1,0-.1l0-.14a18,18,0,0,0,1.29-3.69,16.69,16.69,0,0,0,.43-3.76,16.7,16.7,0,0,0-1.73-7.43.35.35,0,0,1,0-.12.15.15,0,0,1,.06-.1.32.32,0,0,1,.13-.05.69.69,0,0,1,.22,0l.23,0,.15,0,.08,0,0,.05a20.55,20.55,0,0,1,1.44,3.7A14.75,14.75,0,0,1,177.38,180.7Z" transform="translate(-51.45 -14.23)"/><circle class="cls-1" cx="247.99" cy="64.45" r="49.41"/><rect class="cls-3" x="231.18" y="79.03" width="15.7" height="6.36"/><rect class="cls-3" x="210.6" y="79.03" width="15.7" height="6.36"/><ellipse class="cls-2" cx="228.74" cy="65.5" rx="13.05" ry="6.15"/><line class="cls-6" x1="218.45" y1="79.03" x2="227.81" y2="72.32"/><polygon class="cls-7" points="227.18 74.86 227.57 72.49 225.21 72.1 226.38 71.26 228.74 71.65 228.35 74.02 227.18 74.86"/><line class="cls-6" x1="241.89" y1="65.87" x2="253.15" y2="66.07"/><polygon class="cls-7" points="251.12 67.73 252.85 66.07 251.18 64.34 252.62 64.37 254.29 66.09 252.56 67.76 251.12 67.73"/><line class="cls-6" x1="239.03" y1="79.03" x2="229.67" y2="72.32"/><polygon class="cls-7" points="232.28 72.1 229.91 72.49 230.3 74.86 229.13 74.02 228.74 71.65 231.11 71.26 232.28 72.1"/><rect class="cls-3" x="249.1" y="45.99" width="15.7" height="6.36"/><rect class="cls-3" x="269.69" y="45.99" width="15.7" height="6.36"/><ellipse class="cls-4" cx="267.25" cy="65.88" rx="13.05" ry="6.15"/><line class="cls-6" x1="277.53" y1="52.35" x2="268.17" y2="59.06"/><polygon class="cls-7" points="268.8 56.52 268.41 58.89 270.78 59.28 269.61 60.12 267.24 59.73 267.63 57.36 268.8 56.52"/><line class="cls-6" x1="256.96" y1="52.35" x2="266.32" y2="59.06"/><polygon class="cls-7" points="263.71 59.28 266.08 58.89 265.69 56.52 266.86 57.36 267.24 59.73 264.88 60.12 263.71 59.28"/><path class="cls-5" d="M237.2,160.68a3.22,3.22,0,0,1-.27,1.35,2.87,2.87,0,0,1-.77,1,3.48,3.48,0,0,1-1.17.64,4.69,4.69,0,0,1-1.48.22,4.87,4.87,0,0,1-1-.1,7,7,0,0,1-.86-.24,4.4,4.4,0,0,1-.64-.29,1.41,1.41,0,0,1-.36-.25.49.49,0,0,1-.14-.23,1.11,1.11,0,0,1,0-.34,1.69,1.69,0,0,1,0-.25.6.6,0,0,1,.05-.16.15.15,0,0,1,.08-.08.18.18,0,0,1,.1,0,.73.73,0,0,1,.35.15,5.42,5.42,0,0,0,.58.33,4.4,4.4,0,0,0,.86.34,4,4,0,0,0,1.16.15,3.1,3.1,0,0,0,1-.14,2.43,2.43,0,0,0,.78-.42,1.84,1.84,0,0,0,.5-.67,2.1,2.1,0,0,0,.19-.92,1.72,1.72,0,0,0-.23-.9,2.43,2.43,0,0,0-.61-.67,5.33,5.33,0,0,0-.85-.52l-1-.47c-.33-.15-.66-.32-1-.5a5,5,0,0,1-.85-.64,2.89,2.89,0,0,1-.6-.86,3.08,3.08,0,0,1,0-2.36,2.46,2.46,0,0,1,.67-.89,3.1,3.1,0,0,1,1-.56,4.36,4.36,0,0,1,1.33-.19,3.61,3.61,0,0,1,.73.07,3.78,3.78,0,0,1,.7.18,3.62,3.62,0,0,1,.59.24,1.81,1.81,0,0,1,.35.22.64.64,0,0,1,.1.13.23.23,0,0,1,0,.1l0,.14a1.34,1.34,0,0,1,0,.21,1.25,1.25,0,0,1,0,.21.76.76,0,0,1,0,.16.36.36,0,0,1-.07.1.16.16,0,0,1-.09,0,.65.65,0,0,1-.3-.12,4.18,4.18,0,0,0-.5-.29,4.35,4.35,0,0,0-.71-.29,3.4,3.4,0,0,0-.94-.12,2.52,2.52,0,0,0-.91.14,1.8,1.8,0,0,0-.65.38,1.59,1.59,0,0,0-.38.57,2,2,0,0,0-.13.69,1.72,1.72,0,0,0,.23.9,2.43,2.43,0,0,0,.61.67,4.82,4.82,0,0,0,.86.53l1,.46c.33.16.66.33,1,.51a4.53,4.53,0,0,1,.86.63,2.89,2.89,0,0,1,.6.86A2.58,2.58,0,0,1,237.2,160.68Z" transform="translate(-51.45 -14.23)"/><path class="cls-5" d="M243.25,163.11a1.26,1.26,0,0,1,0,.3.32.32,0,0,1-.1.18.57.57,0,0,1-.19.12l-.3.1a1.82,1.82,0,0,1-.35.06,2.17,2.17,0,0,1-.36,0,2.93,2.93,0,0,1-1-.15,1.62,1.62,0,0,1-.68-.48,2,2,0,0,1-.39-.82,5,5,0,0,1-.12-1.16v-5h-1.19a.21.21,0,0,1-.19-.11.58.58,0,0,1-.07-.33,1.23,1.23,0,0,1,0-.2.58.58,0,0,1,0-.14.2.2,0,0,1,.08-.08.23.23,0,0,1,.11,0h1.19v-1.95a.17.17,0,0,1,0-.1.15.15,0,0,1,.08-.08l.16,0h.51l.16,0a.24.24,0,0,1,.09.08.3.3,0,0,1,0,.1v1.95H243a.23.23,0,0,1,.11,0,.2.2,0,0,1,.08.08.58.58,0,0,1,0,.14.65.65,0,0,1,0,.2.58.58,0,0,1-.07.33.22.22,0,0,1-.19.11h-2.21v4.83a3,3,0,0,0,.26,1.38,1,1,0,0,0,1,.48,1.46,1.46,0,0,0,.38-.05,1.89,1.89,0,0,0,.31-.1l.22-.09a.41.41,0,0,1,.17,0l.08,0a.1.1,0,0,1,0,.07.34.34,0,0,1,0,.12A1,1,0,0,1,243.25,163.11Z" transform="translate(-51.45 -14.23)"/><path class="cls-5" d="M249.77,156c0,.09,0,.17,0,.23s0,.11,0,.15a.35.35,0,0,1-.06.09.1.1,0,0,1-.08,0,.81.81,0,0,1-.19,0l-.24-.09-.31-.08a1.45,1.45,0,0,0-.37,0,1.1,1.1,0,0,0-.47.1,2.07,2.07,0,0,0-.48.33,4.61,4.61,0,0,0-.53.59c-.18.25-.39.55-.61.91v5.4a.16.16,0,0,1,0,.09.11.11,0,0,1-.08.07.5.5,0,0,1-.16.05h-.51a.5.5,0,0,1-.16-.05.16.16,0,0,1-.09-.07.29.29,0,0,1,0-.09v-8a.3.3,0,0,1,0-.1.22.22,0,0,1,.09-.07l.15-.05h.49l.15.05a.16.16,0,0,1,.07.07.17.17,0,0,1,0,.1v1.26a6.4,6.4,0,0,1,.63-.81,2.88,2.88,0,0,1,.56-.48,1.56,1.56,0,0,1,.51-.24,2.24,2.24,0,0,1,.52-.06l.26,0a1.87,1.87,0,0,1,.32,0,1.93,1.93,0,0,1,.31.09l.19.08a.17.17,0,0,1,.07.08.34.34,0,0,1,0,.08.39.39,0,0,1,0,.13S249.77,155.93,249.77,156Z" transform="translate(-51.45 -14.23)"/><path class="cls-5" d="M258,163.59a.29.29,0,0,1,0,.09.16.16,0,0,1-.09.07.5.5,0,0,1-.16.05h-.49l-.15-.05a.12.12,0,0,1-.07-.07.16.16,0,0,1,0-.09v-1.13a4.83,4.83,0,0,1-1.34,1.11,2.78,2.78,0,0,1-1.31.34,3.07,3.07,0,0,1-1.32-.26,2.37,2.37,0,0,1-.87-.72,3,3,0,0,1-.48-1.05,6.72,6.72,0,0,1-.14-1.45v-4.82a.3.3,0,0,1,0-.1.19.19,0,0,1,.08-.07.69.69,0,0,1,.17-.05h.51a.5.5,0,0,1,.16.05.19.19,0,0,1,.08.07.17.17,0,0,1,0,.1v4.72a5.61,5.61,0,0,0,.11,1.21,2.34,2.34,0,0,0,.35.8,1.5,1.5,0,0,0,.58.51,1.86,1.86,0,0,0,.84.18,2.08,2.08,0,0,0,1.21-.43,6.9,6.9,0,0,0,1.28-1.27v-5.72a.3.3,0,0,1,0-.1.17.17,0,0,1,.09-.07.5.5,0,0,1,.16-.05h.51a.5.5,0,0,1,.16.05s.07,0,.08.07a.17.17,0,0,1,0,.1Z" transform="translate(-51.45 -14.23)"/><path class="cls-5" d="M266.52,162.4c0,.07,0,.14,0,.19l0,.15a.37.37,0,0,1-.05.11l-.14.16a2.17,2.17,0,0,1-.39.29,3.38,3.38,0,0,1-.6.31,5,5,0,0,1-.72.22,4.28,4.28,0,0,1-.81.08,3.52,3.52,0,0,1-1.46-.28,2.64,2.64,0,0,1-1.08-.82,3.84,3.84,0,0,1-.65-1.33,6.6,6.6,0,0,1-.23-1.82,6.45,6.45,0,0,1,.28-2,4,4,0,0,1,.76-1.36,3.06,3.06,0,0,1,1.14-.78,3.94,3.94,0,0,1,1.39-.25,3.67,3.67,0,0,1,.75.08,4.07,4.07,0,0,1,.67.19,3.43,3.43,0,0,1,.54.29,1.64,1.64,0,0,1,.35.27l.15.16a.31.31,0,0,1,.06.13.8.8,0,0,1,0,.15,1.27,1.27,0,0,1,0,.2.65.65,0,0,1-.07.36.21.21,0,0,1-.17.1.49.49,0,0,1-.3-.16,4.49,4.49,0,0,0-.47-.34,2.87,2.87,0,0,0-.68-.35,2.51,2.51,0,0,0-1-.16,2,2,0,0,0-1.76.88,4.37,4.37,0,0,0-.62,2.55,5.85,5.85,0,0,0,.16,1.47,3.24,3.24,0,0,0,.48,1,2,2,0,0,0,.77.63,2.34,2.34,0,0,0,1,.21,2.45,2.45,0,0,0,.93-.17,3.9,3.9,0,0,0,.71-.37c.2-.14.37-.26.5-.37a.6.6,0,0,1,.29-.17.17.17,0,0,1,.1,0,.44.44,0,0,1,.06.1.62.62,0,0,1,0,.16A1.25,1.25,0,0,1,266.52,162.4Z" transform="translate(-51.45 -14.23)"/><path class="cls-5" d="M272.46,163.11a.89.89,0,0,1,0,.3.38.38,0,0,1-.09.18.62.62,0,0,1-.2.12,1.63,1.63,0,0,1-.29.1,2,2,0,0,1-.35.06,2.36,2.36,0,0,1-.37,0,3,3,0,0,1-1-.15,1.68,1.68,0,0,1-.68-.48,2,2,0,0,1-.38-.82,5,5,0,0,1-.12-1.16v-5h-1.19a.22.22,0,0,1-.2-.11.68.68,0,0,1-.07-.33,1.23,1.23,0,0,1,0-.2.58.58,0,0,1,.05-.14.32.32,0,0,1,.09-.08.2.2,0,0,1,.11,0H269v-1.95a.3.3,0,0,1,0-.1.15.15,0,0,1,.08-.08.61.61,0,0,1,.17,0h.51l.16,0a.3.3,0,0,1,.08.08.17.17,0,0,1,0,.1v1.95h2.2a.2.2,0,0,1,.11,0,.2.2,0,0,1,.08.08.35.35,0,0,1,.06.14,1.27,1.27,0,0,1,0,.2.58.58,0,0,1-.07.33.21.21,0,0,1-.19.11H270v4.83a2.87,2.87,0,0,0,.26,1.38,1,1,0,0,0,.94.48,1.54,1.54,0,0,0,.39-.05l.3-.1.23-.09a.37.37,0,0,1,.16,0l.08,0a.14.14,0,0,1,.06.07l0,.12A1,1,0,0,1,272.46,163.11Z" transform="translate(-51.45 -14.23)"/><path class="cls-5" d="M281,163.59a.29.29,0,0,1,0,.09.13.13,0,0,1-.09.07l-.15.05h-.5l-.15-.05a.12.12,0,0,1-.07-.07.15.15,0,0,1,0-.09v-1.13a5,5,0,0,1-1.35,1.11,2.78,2.78,0,0,1-1.31.34,3.07,3.07,0,0,1-1.32-.26,2.37,2.37,0,0,1-.87-.72,2.79,2.79,0,0,1-.47-1.05,6.1,6.1,0,0,1-.15-1.45v-4.82a.3.3,0,0,1,0-.1.17.17,0,0,1,.09-.07.5.5,0,0,1,.16-.05h.51a.5.5,0,0,1,.16.05.19.19,0,0,1,.08.07.17.17,0,0,1,0,.1v4.72a5.61,5.61,0,0,0,.11,1.21,2.34,2.34,0,0,0,.35.8,1.58,1.58,0,0,0,.58.51,1.86,1.86,0,0,0,.84.18,2.06,2.06,0,0,0,1.21-.43,6.9,6.9,0,0,0,1.28-1.27v-5.72a.3.3,0,0,1,0-.1.22.22,0,0,1,.09-.07.5.5,0,0,1,.16-.05h.51a.5.5,0,0,1,.16.05s.07,0,.08.07a.17.17,0,0,1,0,.1Z" transform="translate(-51.45 -14.23)"/><path class="cls-5" d="M288.36,156a1.55,1.55,0,0,1,0,.23l0,.15a.36.36,0,0,1-.05.09.12.12,0,0,1-.09,0,.74.74,0,0,1-.18,0l-.25-.09-.31-.08a1.4,1.4,0,0,0-.37,0,1.06,1.06,0,0,0-.46.1,1.72,1.72,0,0,0-.48.33,4,4,0,0,0-.53.59c-.19.25-.39.55-.62.91v5.4a.29.29,0,0,1,0,.09.16.16,0,0,1-.09.07.5.5,0,0,1-.16.05h-.51l-.16-.05a.11.11,0,0,1-.08-.07.16.16,0,0,1,0-.09v-8a.17.17,0,0,1,0-.1s0,0,.08-.07l.15-.05h.49a.37.37,0,0,1,.15.05.19.19,0,0,1,.08.07.3.3,0,0,1,0,.1v1.26a6.4,6.4,0,0,1,.63-.81,2.88,2.88,0,0,1,.56-.48,1.61,1.61,0,0,1,.52-.24,2.16,2.16,0,0,1,.51-.06l.27,0a2,2,0,0,1,.32,0,2.29,2.29,0,0,1,.31.09l.19.08.07.08a.34.34,0,0,1,0,.08,1.23,1.23,0,0,1,0,.13Z" transform="translate(-51.45 -14.23)"/><path class="cls-5" d="M295.39,163.59a.15.15,0,0,1-.05.13.26.26,0,0,1-.15.07.9.9,0,0,1-.25,0,1,1,0,0,1-.26,0,.24.24,0,0,1-.16-.07.16.16,0,0,1-.06-.13v-.89a4,4,0,0,1-1.19.89,2.9,2.9,0,0,1-1.34.32,3.52,3.52,0,0,1-1.12-.16,2.4,2.4,0,0,1-.85-.47,2.14,2.14,0,0,1-.53-.73,2.54,2.54,0,0,1-.18-1,2.21,2.21,0,0,1,1.05-2,3.7,3.7,0,0,1,1.21-.49,6.89,6.89,0,0,1,1.57-.16h1.26v-.69a3.49,3.49,0,0,0-.1-.9,1.65,1.65,0,0,0-.34-.66,1.48,1.48,0,0,0-.62-.4,2.78,2.78,0,0,0-.93-.13,3.12,3.12,0,0,0-1,.13,3.94,3.94,0,0,0-.74.29,5.67,5.67,0,0,0-.52.28.67.67,0,0,1-.3.13l-.1,0a.13.13,0,0,1-.07-.06.5.5,0,0,1-.05-.13c0-.05,0-.11,0-.18a1.12,1.12,0,0,1,0-.29.46.46,0,0,1,.13-.22,1.72,1.72,0,0,1,.4-.26,3.84,3.84,0,0,1,.64-.28,4.81,4.81,0,0,1,.79-.21,5,5,0,0,1,.85-.08,4.19,4.19,0,0,1,1.38.2,2.25,2.25,0,0,1,.92.57,2.17,2.17,0,0,1,.49.91,4.6,4.6,0,0,1,.15,1.23Zm-1.05-3.77h-1.45a4.6,4.6,0,0,0-1.11.12,2.12,2.12,0,0,0-.79.33,1.42,1.42,0,0,0-.48.53,1.61,1.61,0,0,0-.15.71,1.43,1.43,0,0,0,.44,1.09A1.69,1.69,0,0,0,292,163a2.18,2.18,0,0,0,1.16-.32,4.72,4.72,0,0,0,1.15-1Z" transform="translate(-51.45 -14.23)"/><path class="cls-5" d="M299.35,163.59a.29.29,0,0,1,0,.09.16.16,0,0,1-.09.07.5.5,0,0,1-.16.05h-.51a.5.5,0,0,1-.16-.05.11.11,0,0,1-.08-.07.16.16,0,0,1,0-.09V151.7a.16.16,0,0,1,0-.09.15.15,0,0,1,.08-.08.53.53,0,0,1,.16,0l.25,0,.26,0a.53.53,0,0,1,.16,0,.24.24,0,0,1,.09.08.29.29,0,0,1,0,.09Z" transform="translate(-51.45 -14.23)"/><path class="cls-5" d="M312.68,163.29a.65.65,0,0,1,0,.2.53.53,0,0,1-.05.15.28.28,0,0,1-.1.09.2.2,0,0,1-.11,0h-5.34a.56.56,0,0,1-.33-.12.5.5,0,0,1-.17-.43v-10.3a.52.52,0,0,1,.17-.44.56.56,0,0,1,.33-.12h5.26a.21.21,0,0,1,.11,0,.2.2,0,0,1,.09.09.52.52,0,0,1,.06.15,1.48,1.48,0,0,1,0,.22,1.21,1.21,0,0,1,0,.2.52.52,0,0,1-.06.15.24.24,0,0,1-.09.08.15.15,0,0,1-.11,0h-4.68v4h4a.27.27,0,0,1,.12,0,.38.38,0,0,1,.09.09.37.37,0,0,1,.05.15,1.25,1.25,0,0,1,0,.21,1.12,1.12,0,0,1,0,.2.46.46,0,0,1-.05.14l-.09.08-.12,0h-4v4.55h4.76a.2.2,0,0,1,.11,0,.28.28,0,0,1,.1.09.53.53,0,0,1,.05.15A.72.72,0,0,1,312.68,163.29Z" transform="translate(-51.45 -14.23)"/><path class="cls-5" d="M321.36,166.75a.16.16,0,0,1,0,.1.22.22,0,0,1-.09.07.44.44,0,0,1-.15.05h-.52l-.16-.05s-.07,0-.08-.07a.16.16,0,0,1,0-.1V162.5a7.11,7.11,0,0,1-.74.67,4,4,0,0,1-.67.44,2.74,2.74,0,0,1-.64.23,3.38,3.38,0,0,1-2.14-.26,2.8,2.8,0,0,1-1-.91,3.74,3.74,0,0,1-.56-1.35,7.14,7.14,0,0,1-.18-1.63,6.85,6.85,0,0,1,.22-1.83,4.26,4.26,0,0,1,.65-1.39,3,3,0,0,1,1.07-.88,3.25,3.25,0,0,1,1.47-.31,3,3,0,0,1,.69.08,2.57,2.57,0,0,1,.61.24,2.78,2.78,0,0,1,.61.42,8.94,8.94,0,0,1,.67.62v-1a.21.21,0,0,1,0-.11.27.27,0,0,1,.08-.07l.15,0h.46l.14,0s.07,0,.08.07a.2.2,0,0,1,0,.11Zm-1-8.92A6.57,6.57,0,0,0,319,156.6a2.22,2.22,0,0,0-1.28-.42,1.84,1.84,0,0,0-1,.29,2.39,2.39,0,0,0-.71.77,3.58,3.58,0,0,0-.39,1.07,5.56,5.56,0,0,0-.13,1.22,7.86,7.86,0,0,0,.11,1.3,3.81,3.81,0,0,0,.36,1.11,2.24,2.24,0,0,0,.68.78,1.84,1.84,0,0,0,1.06.29,2.1,2.1,0,0,0,.61-.09,2,2,0,0,0,.62-.29,4.66,4.66,0,0,0,.66-.52,10.28,10.28,0,0,0,.73-.8Z" transform="translate(-51.45 -14.23)"/><path class="cls-5" d="M330.74,163.59a.15.15,0,0,1,0,.09.11.11,0,0,1-.08.07l-.16.05H330a.37.37,0,0,1-.15-.05.14.14,0,0,1-.08-.07.29.29,0,0,1,0-.09v-1.13a5.13,5.13,0,0,1-1.34,1.11,2.81,2.81,0,0,1-1.31.34,3.09,3.09,0,0,1-1.33-.26,2.42,2.42,0,0,1-.86-.72,2.81,2.81,0,0,1-.48-1.05,6.1,6.1,0,0,1-.15-1.45v-4.82a.17.17,0,0,1,0-.1s0,0,.08-.07a.5.5,0,0,1,.16-.05h.51a.5.5,0,0,1,.16.05.22.22,0,0,1,.09.07.3.3,0,0,1,0,.1v4.72a5,5,0,0,0,.12,1.21,2.33,2.33,0,0,0,.34.8,1.53,1.53,0,0,0,.59.51,1.81,1.81,0,0,0,.83.18,2,2,0,0,0,1.21-.43,6.91,6.91,0,0,0,1.29-1.27v-5.72a.16.16,0,0,1,0-.1s0,0,.08-.07l.16-.05h.52a.44.44,0,0,1,.15.05.22.22,0,0,1,.09.07.16.16,0,0,1,0,.1Z" transform="translate(-51.45 -14.23)"/><path class="cls-5" d="M339.28,163.59a.16.16,0,0,1-.06.13.26.26,0,0,1-.15.07.9.9,0,0,1-.25,0,1,1,0,0,1-.26,0,.26.26,0,0,1-.16-.07.16.16,0,0,1-.06-.13v-.89a4.12,4.12,0,0,1-1.18.89,2.94,2.94,0,0,1-1.35.32,3.57,3.57,0,0,1-1.12-.16,2.45,2.45,0,0,1-.84-.47,2,2,0,0,1-.53-.73,2.37,2.37,0,0,1-.19-1,2.23,2.23,0,0,1,.28-1.15,2.32,2.32,0,0,1,.77-.82,3.79,3.79,0,0,1,1.21-.49A6.89,6.89,0,0,1,337,159h1.27v-.69a3.46,3.46,0,0,0-.11-.9,1.54,1.54,0,0,0-.34-.66,1.48,1.48,0,0,0-.62-.4,2.76,2.76,0,0,0-.92-.13,3.19,3.19,0,0,0-1,.13,3.94,3.94,0,0,0-.74.29c-.21.1-.38.2-.52.28a.67.67,0,0,1-.3.13l-.09,0a.16.16,0,0,1-.08-.06.5.5,0,0,1,0-.13.9.9,0,0,1,0-.18,1.12,1.12,0,0,1,0-.29.41.41,0,0,1,.14-.22,1.43,1.43,0,0,1,.39-.26,4,4,0,0,1,.65-.28,4.33,4.33,0,0,1,.79-.21,4.78,4.78,0,0,1,.84-.08,4.3,4.3,0,0,1,1.39.2,2.21,2.21,0,0,1,.91.57,2.18,2.18,0,0,1,.5.91,4.6,4.6,0,0,1,.15,1.23Zm-1-3.77h-1.46a4.6,4.6,0,0,0-1.11.12,2.19,2.19,0,0,0-.79.33,1.39,1.39,0,0,0-.47.53,1.49,1.49,0,0,0-.16.71,1.43,1.43,0,0,0,.44,1.09,1.69,1.69,0,0,0,1.23.41,2.19,2.19,0,0,0,1.17-.32,5.12,5.12,0,0,0,1.15-1Z" transform="translate(-51.45 -14.23)"/><path class="cls-5" d="M348.5,155.42a.34.34,0,0,1,.27.1.47.47,0,0,1,.07.28v7.79a.29.29,0,0,1,0,.09.16.16,0,0,1-.09.07.5.5,0,0,1-.16.05h-.51a.5.5,0,0,1-.16-.05.18.18,0,0,1-.08-.07.16.16,0,0,1,0-.09v-7.28h-4.4v4.83a2.87,2.87,0,0,0,.26,1.38,1,1,0,0,0,.94.48A1.6,1.6,0,0,0,345,163l.3-.1.23-.09a.37.37,0,0,1,.16,0l.08,0a.14.14,0,0,1,.06.07l0,.12a1,1,0,0,1,0,.19,1.26,1.26,0,0,1,0,.3.38.38,0,0,1-.09.18.62.62,0,0,1-.2.12,1.63,1.63,0,0,1-.29.1,1.93,1.93,0,0,1-.36.06,2.17,2.17,0,0,1-.36,0,2.93,2.93,0,0,1-1-.15,1.68,1.68,0,0,1-.68-.48,2,2,0,0,1-.38-.82,5,5,0,0,1-.12-1.16v-5h-1.19a.21.21,0,0,1-.2-.11.68.68,0,0,1-.07-.33,1.23,1.23,0,0,1,0-.2.58.58,0,0,1,.05-.14.23.23,0,0,1,.09-.08.2.2,0,0,1,.11,0h1.19v-1.95a.16.16,0,0,1,0-.1.15.15,0,0,1,.08-.08.61.61,0,0,1,.17,0h.51l.16,0a.3.3,0,0,1,.08.08.17.17,0,0,1,0,.1v1.95Zm.5-2.5a.81.81,0,0,1-.15.57.77.77,0,0,1-.55.15.8.8,0,0,1-.53-.14.82.82,0,0,1-.14-.57.84.84,0,0,1,.15-.58.81.81,0,0,1,.54-.14.76.76,0,0,1,.54.14A.87.87,0,0,1,349,152.92Z" transform="translate(-51.45 -14.23)"/><path class="cls-5" d="M358.85,159.51a5.8,5.8,0,0,1-.25,1.76,4,4,0,0,1-.73,1.39,3.43,3.43,0,0,1-1.23.92,4.06,4.06,0,0,1-1.7.33,4.27,4.27,0,0,1-1.63-.29,3.17,3.17,0,0,1-1.18-.85,3.57,3.57,0,0,1-.7-1.34,6.71,6.71,0,0,1,0-3.52,3.77,3.77,0,0,1,.73-1.39,3.37,3.37,0,0,1,1.22-.91,4.14,4.14,0,0,1,1.71-.33,4.36,4.36,0,0,1,1.64.29,3.18,3.18,0,0,1,1.16.84,3.66,3.66,0,0,1,.71,1.34A6,6,0,0,1,358.85,159.51Zm-1.11.1a6.16,6.16,0,0,0-.14-1.3,3,3,0,0,0-.44-1.09,2.13,2.13,0,0,0-.83-.74,2.62,2.62,0,0,0-1.29-.28,2.73,2.73,0,0,0-1.23.25,2.19,2.19,0,0,0-.85.71,2.92,2.92,0,0,0-.49,1.07,5.24,5.24,0,0,0-.16,1.34,6.26,6.26,0,0,0,.13,1.31,3.07,3.07,0,0,0,.44,1.08,2.06,2.06,0,0,0,.83.74A2.65,2.65,0,0,0,355,163a2.8,2.8,0,0,0,1.24-.26,2.32,2.32,0,0,0,.85-.7,3.19,3.19,0,0,0,.49-1.07A5.66,5.66,0,0,0,357.74,159.61Z" transform="translate(-51.45 -14.23)"/><path class="cls-5" d="M367.67,163.59a.29.29,0,0,1,0,.09.16.16,0,0,1-.09.07.5.5,0,0,1-.16.05h-.51a.5.5,0,0,1-.16-.05.18.18,0,0,1-.08-.07.16.16,0,0,1,0-.09v-4.74a5.57,5.57,0,0,0-.11-1.2,2.65,2.65,0,0,0-.34-.8,1.71,1.71,0,0,0-.59-.51,1.84,1.84,0,0,0-.83-.18,2.08,2.08,0,0,0-1.22.44,6.52,6.52,0,0,0-1.28,1.26v5.73a.16.16,0,0,1,0,.09.11.11,0,0,1-.08.07.5.5,0,0,1-.16.05h-.51a.5.5,0,0,1-.16-.05.16.16,0,0,1-.09-.07.29.29,0,0,1,0-.09v-8a.3.3,0,0,1,0-.1.22.22,0,0,1,.09-.07l.15-.05H362a.37.37,0,0,1,.15.05.19.19,0,0,1,.08.07.3.3,0,0,1,0,.1v1.13a4.65,4.65,0,0,1,1.35-1.11,2.8,2.8,0,0,1,1.31-.35,2.93,2.93,0,0,1,1.32.27,2.26,2.26,0,0,1,.87.71,3,3,0,0,1,.48,1.05,6.65,6.65,0,0,1,.14,1.45Z" transform="translate(-51.45 -14.23)"/><path class="cls-5" d="M253.08,185.25a.17.17,0,0,1,0,.1s0,.05-.09.07a.61.61,0,0,1-.17,0l-.26,0-.24,0a.61.61,0,0,1-.17,0,.22.22,0,0,1-.09-.07.17.17,0,0,1,0-.1V175h0l-4.49,10.35a.18.18,0,0,1-.05.07l-.1.05-.14,0h-.42l-.14,0a.19.19,0,0,1-.09-.05.12.12,0,0,1-.05-.07L242.25,175h0v10.29a.17.17,0,0,1,0,.1.22.22,0,0,1-.09.07l-.17,0-.27,0-.25,0a.53.53,0,0,1-.16,0,.22.22,0,0,1-.09-.07.3.3,0,0,1,0-.1V174.58a.5.5,0,0,1,.17-.44.56.56,0,0,1,.33-.12h.58a1.6,1.6,0,0,1,.39,0,.87.87,0,0,1,.29.14.92.92,0,0,1,.22.22,2.11,2.11,0,0,1,.16.3l3.76,9.07h0l3.93-9a1.52,1.52,0,0,1,.19-.36.78.78,0,0,1,.21-.23.7.7,0,0,1,.24-.13,1.12,1.12,0,0,1,.27,0h.65a.45.45,0,0,1,.16,0,.32.32,0,0,1,.16.09.43.43,0,0,1,.12.17.68.68,0,0,1,.05.27Z" transform="translate(-51.45 -14.23)"/><path class="cls-5" d="M263.28,181.18a5.74,5.74,0,0,1-.25,1.75,4.06,4.06,0,0,1-.73,1.4,3.49,3.49,0,0,1-1.22.92,4.59,4.59,0,0,1-3.34,0,3.05,3.05,0,0,1-1.17-.85,3.54,3.54,0,0,1-.71-1.33,6.38,6.38,0,0,1-.23-1.77,6.14,6.14,0,0,1,.24-1.76,4.1,4.1,0,0,1,.73-1.39,3.46,3.46,0,0,1,1.22-.91,4.75,4.75,0,0,1,3.35,0,2.93,2.93,0,0,1,1.17.84,3.71,3.71,0,0,1,.7,1.34A6,6,0,0,1,263.28,181.18Zm-1.11.09A6,6,0,0,0,262,180a3.42,3.42,0,0,0-.44-1.09,2.4,2.4,0,0,0-.83-.75,2.81,2.81,0,0,0-1.3-.28,2.75,2.75,0,0,0-1.23.26,2.27,2.27,0,0,0-.85.71,3,3,0,0,0-.49,1.07,5.16,5.16,0,0,0-.16,1.33,6.13,6.13,0,0,0,.13,1.31,3.33,3.33,0,0,0,.44,1.09,2.2,2.2,0,0,0,.83.74,3.21,3.21,0,0,0,2.53,0,2.27,2.27,0,0,0,.85-.71,2.93,2.93,0,0,0,.49-1.07A5.13,5.13,0,0,0,262.17,181.27Z" transform="translate(-51.45 -14.23)"/><path class="cls-5" d="M272.07,185.25a.36.36,0,0,1,0,.11.27.27,0,0,1-.08.07l-.15,0h-.45l-.15,0a.22.22,0,0,1-.09-.07.2.2,0,0,1,0-.11V184.1a5.56,5.56,0,0,1-1.31,1.08,2.87,2.87,0,0,1-1.49.4,3,3,0,0,1-1.47-.34,2.78,2.78,0,0,1-1-.91,4,4,0,0,1-.56-1.34,7.17,7.17,0,0,1-.18-1.64,6.94,6.94,0,0,1,.23-1.83,3.84,3.84,0,0,1,.65-1.38,2.82,2.82,0,0,1,1.06-.88,3.32,3.32,0,0,1,1.48-.31,2.69,2.69,0,0,1,1.32.32,4.52,4.52,0,0,1,1.18.95v-4.81a.36.36,0,0,1,0-.1.23.23,0,0,1,.09-.07l.16,0,.25,0,.26,0,.16,0a.29.29,0,0,1,.08.07.19.19,0,0,1,0,.1ZM271,179.49a6.75,6.75,0,0,0-1.27-1.22,2.25,2.25,0,0,0-1.29-.42,1.79,1.79,0,0,0-1,.29,2.22,2.22,0,0,0-.7.76,3.66,3.66,0,0,0-.4,1.08,6.16,6.16,0,0,0-.12,1.22,7.63,7.63,0,0,0,.1,1.28,3.52,3.52,0,0,0,.37,1.12,2,2,0,0,0,.67.78,1.81,1.81,0,0,0,1.06.3,2.16,2.16,0,0,0,.62-.09,2.85,2.85,0,0,0,.62-.29,4.21,4.21,0,0,0,.65-.53A8.39,8.39,0,0,0,271,183Z" transform="translate(-51.45 -14.23)"/><path class="cls-5" d="M281.52,180.85a.52.52,0,0,1-.17.44.56.56,0,0,1-.32.12h-5.44a5.57,5.57,0,0,0,.14,1.34,2.68,2.68,0,0,0,.48,1,2.19,2.19,0,0,0,.87.66,3.45,3.45,0,0,0,1.33.23,4.25,4.25,0,0,0,1-.1,5.25,5.25,0,0,0,.77-.21,4.79,4.79,0,0,0,.52-.22,1,1,0,0,1,.3-.1.17.17,0,0,1,.1,0,.27.27,0,0,1,.07.08,1.55,1.55,0,0,1,0,.15,1.41,1.41,0,0,1,0,.22.49.49,0,0,1,0,.12.3.3,0,0,1,0,.1.3.3,0,0,1,0,.1l-.07.09a1.25,1.25,0,0,1-.27.15,4.91,4.91,0,0,1-.6.22c-.25.07-.54.14-.86.2a5.9,5.9,0,0,1-1.06.09,4.66,4.66,0,0,1-1.64-.28,3.13,3.13,0,0,1-1.19-.82,3.55,3.55,0,0,1-.74-1.34,6.23,6.23,0,0,1-.25-1.87,5.65,5.65,0,0,1,.26-1.81,3.79,3.79,0,0,1,.74-1.36,3.29,3.29,0,0,1,1.17-.86,3.92,3.92,0,0,1,1.52-.29,3.62,3.62,0,0,1,1.54.3,3,3,0,0,1,1,.8,3.38,3.38,0,0,1,.6,1.18,5.05,5.05,0,0,1,.19,1.41Zm-1.09-.31a2.84,2.84,0,0,0-.58-2,2.17,2.17,0,0,0-1.77-.71,2.32,2.32,0,0,0-1.05.22,2.29,2.29,0,0,0-.77.6,2.54,2.54,0,0,0-.48.85,3.54,3.54,0,0,0-.19,1Z" transform="translate(-51.45 -14.23)"/><path class="cls-5" d="M285,185.25a.3.3,0,0,1,0,.1.22.22,0,0,1-.09.07l-.16,0-.26,0-.25,0a.62.62,0,0,1-.16,0s-.07,0-.08-.07a.17.17,0,0,1,0-.1V173.37a.17.17,0,0,1,0-.1s0-.05.08-.07l.16,0h.51a.5.5,0,0,1,.16,0,.22.22,0,0,1,.09.07.3.3,0,0,1,0,.1Z" transform="translate(-51.45 -14.23)"/><path class="cls-5" d="M289,185.25a.17.17,0,0,1,0,.1.19.19,0,0,1-.08.07l-.16,0-.26,0-.25,0-.16,0a.17.17,0,0,1-.09-.07.3.3,0,0,1,0-.1V173.37a.3.3,0,0,1,0-.1.17.17,0,0,1,.09-.07.5.5,0,0,1,.16,0h.51a.5.5,0,0,1,.16,0,.19.19,0,0,1,.08.07.17.17,0,0,1,0,.1Z" transform="translate(-51.45 -14.23)"/><path class="cls-5" d="M293.11,174.58a.82.82,0,0,1-.15.58,1,1,0,0,1-1.08,0,.85.85,0,0,1-.14-.57.81.81,0,0,1,.15-.57,1,1,0,0,1,1.08,0A.82.82,0,0,1,293.11,174.58ZM293,185.25a.3.3,0,0,1,0,.1.22.22,0,0,1-.09.07.53.53,0,0,1-.16,0l-.26,0-.25,0-.16,0s-.07,0-.08-.07a.17.17,0,0,1,0-.1v-8a.16.16,0,0,1,0-.09.15.15,0,0,1,.08-.08l.16,0,.25,0,.26,0,.16,0a.24.24,0,0,1,.09.08.29.29,0,0,1,0,.09Z" transform="translate(-51.45 -14.23)"/><path class="cls-5" d="M302.36,185.25a.17.17,0,0,1,0,.1.19.19,0,0,1-.08.07l-.16,0-.25,0-.26,0a.53.53,0,0,1-.16,0s-.07,0-.08-.07a.17.17,0,0,1,0-.1v-4.73a5.61,5.61,0,0,0-.11-1.21,2.6,2.6,0,0,0-.35-.79,1.53,1.53,0,0,0-.59-.51,1.78,1.78,0,0,0-.83-.18,2.06,2.06,0,0,0-1.21.43,6.34,6.34,0,0,0-1.28,1.27v5.72a.17.17,0,0,1,0,.1.19.19,0,0,1-.08.07.53.53,0,0,1-.16,0l-.26,0-.25,0-.17,0s-.07,0-.08-.07a.3.3,0,0,1,0-.1v-8a.29.29,0,0,1,0-.09.15.15,0,0,1,.08-.08l.16,0,.24,0,.25,0,.15,0a.18.18,0,0,1,.07.08.15.15,0,0,1,0,.09v1.13a5,5,0,0,1,1.35-1.11,2.82,2.82,0,0,1,1.32-.34,2.93,2.93,0,0,1,1.32.26,2.37,2.37,0,0,1,.87.72,2.68,2.68,0,0,1,.47,1,6.1,6.1,0,0,1,.15,1.45Z" transform="translate(-51.45 -14.23)"/><path class="cls-5" d="M311.66,177.54a.56.56,0,0,1-.08.34.23.23,0,0,1-.2.1h-1.26a2.12,2.12,0,0,1,.51.82,2.94,2.94,0,0,1,.15.94,3.07,3.07,0,0,1-.22,1.21,2.44,2.44,0,0,1-.61.89,2.7,2.7,0,0,1-.94.56,3.61,3.61,0,0,1-1.21.2,3.4,3.4,0,0,1-1-.15,2.34,2.34,0,0,1-.76-.37,1.28,1.28,0,0,0-.29.4,1.15,1.15,0,0,0-.12.53.71.71,0,0,0,.32.57,1.54,1.54,0,0,0,.84.24l2.16.09a4.18,4.18,0,0,1,1,.15,2.71,2.71,0,0,1,.84.39,2,2,0,0,1,.58.64,1.83,1.83,0,0,1,.21.89,2.4,2.4,0,0,1-.22,1,2.24,2.24,0,0,1-.67.85,3.64,3.64,0,0,1-1.15.58,6,6,0,0,1-1.69.21,6.66,6.66,0,0,1-1.59-.16,3.38,3.38,0,0,1-1.08-.45,1.73,1.73,0,0,1-.6-.67,1.85,1.85,0,0,1-.19-.84,2.15,2.15,0,0,1,.07-.58,2,2,0,0,1,.21-.52,3.16,3.16,0,0,1,.36-.48c.15-.15.31-.31.5-.47a1.6,1.6,0,0,1-.66-.55,1.27,1.27,0,0,1-.21-.7,2.12,2.12,0,0,1,.21-1,3.61,3.61,0,0,1,.51-.76,2.44,2.44,0,0,1-.39-.73,2.67,2.67,0,0,1-.15-1,3,3,0,0,1,.23-1.2,2.52,2.52,0,0,1,.61-.91,2.85,2.85,0,0,1,.94-.57,3.51,3.51,0,0,1,1.2-.19,4.4,4.4,0,0,1,.64,0,4,4,0,0,1,.56.1h2.36a.22.22,0,0,1,.21.11A.64.64,0,0,1,311.66,177.54Zm-1.13,8.5a1,1,0,0,0-.47-.89,2.52,2.52,0,0,0-1.27-.33l-2.31-.08a3.08,3.08,0,0,0-.52.47,2.32,2.32,0,0,0-.33.42,1.51,1.51,0,0,0-.16.41,1.81,1.81,0,0,0,0,.4,1.07,1.07,0,0,0,.65,1,4.16,4.16,0,0,0,1.83.33,4.76,4.76,0,0,0,1.24-.14,2.55,2.55,0,0,0,.81-.39,1.4,1.4,0,0,0,.44-.54A1.61,1.61,0,0,0,310.53,186Zm-.84-6.28a2,2,0,0,0-.49-1.42,1.91,1.91,0,0,0-1.42-.51,1.94,1.94,0,0,0-.82.16,1.57,1.57,0,0,0-.58.43,1.75,1.75,0,0,0-.34.63,2.43,2.43,0,0,0-.12.77,1.91,1.91,0,0,0,.5,1.39,1.87,1.87,0,0,0,1.4.51,2.15,2.15,0,0,0,.83-.16,1.73,1.73,0,0,0,.59-.43,1.91,1.91,0,0,0,.34-.63A2.25,2.25,0,0,0,309.69,179.76Z" transform="translate(-51.45 -14.23)"/><path class="cls-5" d="M320.51,173.24a16.18,16.18,0,0,0-1.31,3.68,16.38,16.38,0,0,0,0,7.5,19.1,19.1,0,0,0,1.28,3.7.3.3,0,0,1,0,.14.17.17,0,0,1,0,.1.32.32,0,0,1-.13.06h-.43l-.15,0-.11-.05a.27.27,0,0,1-.07-.08,15.32,15.32,0,0,1-.84-1.79,16.37,16.37,0,0,1-.62-1.87,16.05,16.05,0,0,1-.38-1.93,16.32,16.32,0,0,1-.13-2,13,13,0,0,1,.15-2,14.52,14.52,0,0,1,.4-1.94,18,18,0,0,1,.62-1.88c.25-.62.52-1.23.82-1.82a.09.09,0,0,1,0-.05l.08,0,.15,0,.24,0a.69.69,0,0,1,.22,0l.13.05a.14.14,0,0,1,0,.1A.3.3,0,0,1,320.51,173.24Z" transform="translate(-51.45 -14.23)"/><path class="cls-5" d="M329.18,182.34a3.27,3.27,0,0,1-.28,1.36,3,3,0,0,1-.76,1,3.44,3.44,0,0,1-1.18.64,4.94,4.94,0,0,1-1.48.22,5.62,5.62,0,0,1-1-.1,5.53,5.53,0,0,1-.86-.25A4.48,4.48,0,0,1,323,185a1.63,1.63,0,0,1-.36-.25.72.72,0,0,1-.14-.24,1.09,1.09,0,0,1,0-.34,1.63,1.63,0,0,1,0-.24.5.5,0,0,1,.05-.16.24.24,0,0,1,.08-.09l.1,0a.73.73,0,0,1,.35.15,4.06,4.06,0,0,0,.58.34,5.54,5.54,0,0,0,.86.33,3.7,3.7,0,0,0,1.16.16,3.05,3.05,0,0,0,1-.15,2.23,2.23,0,0,0,.78-.41,1.91,1.91,0,0,0,.51-.68,2.21,2.21,0,0,0,.18-.91,1.76,1.76,0,0,0-.23-.91,2.38,2.38,0,0,0-.61-.66,4.19,4.19,0,0,0-.85-.52l-1-.47c-.33-.16-.66-.33-1-.51a3.93,3.93,0,0,1-.86-.64,2.77,2.77,0,0,1-.6-.86,2.81,2.81,0,0,1-.23-1.17,2.84,2.84,0,0,1,.24-1.19,2.55,2.55,0,0,1,.67-.89,3.1,3.1,0,0,1,1-.56,4.36,4.36,0,0,1,1.33-.19,3.61,3.61,0,0,1,.73.07,6.49,6.49,0,0,1,.7.18,3.74,3.74,0,0,1,.6.25,1.52,1.52,0,0,1,.34.22.67.67,0,0,1,.1.12.3.3,0,0,1,0,.1.33.33,0,0,1,0,.15,1.22,1.22,0,0,1,0,.21c0,.07,0,.14,0,.2s0,.12,0,.16a.2.2,0,0,1-.07.1.12.12,0,0,1-.09,0,.59.59,0,0,1-.3-.13l-.5-.29a4,4,0,0,0-.71-.28,3.05,3.05,0,0,0-.94-.13,2.76,2.76,0,0,0-.91.14,1.76,1.76,0,0,0-.64.38,1.81,1.81,0,0,0-.39.57,2,2,0,0,0-.13.69,1.76,1.76,0,0,0,.23.91,2.75,2.75,0,0,0,.61.67,5.17,5.17,0,0,0,.86.52l1,.47c.33.16.66.32,1,.5a4.18,4.18,0,0,1,.86.64,3.07,3.07,0,0,1,.61.85A2.76,2.76,0,0,1,329.18,182.34Z" transform="translate(-51.45 -14.23)"/><path class="cls-5" d="M337.69,185a.59.59,0,0,1,0,.2.53.53,0,0,1-.05.15.24.24,0,0,1-.1.1.2.2,0,0,1-.11,0h-5.34a.56.56,0,0,1-.33-.12.52.52,0,0,1-.17-.44V174.58a.5.5,0,0,1,.17-.44.56.56,0,0,1,.33-.12h5.26a.2.2,0,0,1,.11,0,.2.2,0,0,1,.09.09.38.38,0,0,1,.05.16,1.11,1.11,0,0,1,0,.42.34.34,0,0,1-.05.14.2.2,0,0,1-.09.09.2.2,0,0,1-.11,0h-4.68v4h4l.12,0a.38.38,0,0,1,.09.09.53.53,0,0,1,.05.15,1.27,1.27,0,0,1,0,.22,1.23,1.23,0,0,1,0,.2.39.39,0,0,1-.05.13.32.32,0,0,1-.09.08.27.27,0,0,1-.12,0h-4v4.55h4.76a.2.2,0,0,1,.11,0,.28.28,0,0,1,.1.09.38.38,0,0,1,.05.14A.78.78,0,0,1,337.69,185Z" transform="translate(-51.45 -14.23)"/><path class="cls-5" d="M352.32,185.25a.17.17,0,0,1,0,.1.22.22,0,0,1-.09.07l-.17,0-.26,0-.25,0a.53.53,0,0,1-.16,0c-.05,0-.08,0-.09-.07a.17.17,0,0,1,0-.1V175h0l-4.48,10.35a.2.2,0,0,1-.06.07.19.19,0,0,1-.09.05l-.15,0H346l-.15,0-.09-.05a.1.1,0,0,1,0-.07L341.48,175h0v10.29a.3.3,0,0,1,0,.1.2.2,0,0,1-.1.07l-.16,0-.27,0-.25,0a.61.61,0,0,1-.17,0s-.07,0-.08-.07a.3.3,0,0,1,0-.1V174.58a.48.48,0,0,1,.17-.44.56.56,0,0,1,.32-.12h.58a1.48,1.48,0,0,1,.39,0,1,1,0,0,1,.3.14,1.1,1.1,0,0,1,.21.22,2.11,2.11,0,0,1,.16.3l3.76,9.07h0l3.92-9a2,2,0,0,1,.19-.36,1.2,1.2,0,0,1,.21-.23.94.94,0,0,1,.24-.13,1.27,1.27,0,0,1,.28,0h.64a.51.51,0,0,1,.17,0,.37.37,0,0,1,.16.09.43.43,0,0,1,.12.17.68.68,0,0,1,.05.27Z" transform="translate(-51.45 -14.23)"/><path class="cls-5" d="M358.06,180.7a16.32,16.32,0,0,1-.12,2,18.28,18.28,0,0,1-.38,1.93,18.6,18.6,0,0,1-.62,1.87,17.06,17.06,0,0,1-.83,1.79l-.07.08a.33.33,0,0,1-.12.05l-.14,0h-.44a.32.32,0,0,1-.13-.06.1.1,0,0,1,0-.1s0-.08,0-.14a18,18,0,0,0,1.29-3.69,16.69,16.69,0,0,0,.43-3.76,16.7,16.7,0,0,0-1.73-7.43.35.35,0,0,1,0-.12.21.21,0,0,1,.06-.1.32.32,0,0,1,.13-.05.69.69,0,0,1,.22,0l.23,0,.15,0,.08,0,0,.05a20.55,20.55,0,0,1,1.44,3.7A14.75,14.75,0,0,1,358.06,180.7Z" transform="translate(-51.45 -14.23)"/><circle class="cls-1" cx="429.62" cy="64.45" r="49.41"/><circle class="cls-2" cx="413.82" cy="42.6" r="1.48"/><circle class="cls-2" cx="408.38" cy="46.03" r="1.48"/><circle class="cls-2" cx="419.86" cy="47.98" r="1.48"/><circle class="cls-2" cx="418.32" cy="43.14" r="1.48"/><circle class="cls-2" cx="413.82" cy="48.14" r="1.48"/><circle class="cls-2" cx="409.47" cy="51.81" r="1.48"/><circle class="cls-2" cx="414.72" cy="53.68" r="1.48"/><circle class="cls-2" cx="419.86" cy="58.49" r="1.48"/><circle class="cls-2" cx="411.34" cy="59.97" r="1.48"/><circle class="cls-4" cx="439.13" cy="48.56" r="1.48"/><circle class="cls-2" cx="425.83" cy="46.56" r="1.48"/><circle class="cls-4" cx="443.89" cy="50.94" r="1.48"/><circle class="cls-4" cx="442.92" cy="46.23" r="1.48"/><circle class="cls-4" cx="441.32" cy="55.3" r="1.48"/><circle class="cls-2" cx="426.92" cy="52.34" r="1.48"/><circle class="cls-2" cx="432.17" cy="54.21" r="1.48"/><circle class="cls-2" cx="421.82" cy="51.81" r="1.48"/><circle class="cls-2" cx="426.6" cy="58.4" r="1.48"/><circle class="cls-3" cx="432.94" cy="66.26" r="1.48"/><circle class="cls-3" cx="418.82" cy="73.27" r="1.48"/><circle class="cls-3" cx="438.99" cy="71.64" r="1.48"/><circle class="cls-3" cx="437.44" cy="66.8" r="1.48"/><circle class="cls-3" cx="432.94" cy="71.8" r="1.48"/><circle class="cls-3" cx="428.6" cy="75.47" r="1.48"/><circle class="cls-3" cx="433.84" cy="77.34" r="1.48"/><circle class="cls-3" cx="425.31" cy="79.38" r="1.48"/><circle class="cls-3" cx="430.46" cy="83.63" r="1.48"/><circle class="cls-3" cx="444.95" cy="70.22" r="1.48"/><circle class="cls-3" cx="446.05" cy="76" r="1.48"/><circle class="cls-3" cx="451.29" cy="77.87" r="1.48"/><circle class="cls-3" cx="440.95" cy="75.47" r="1.48"/><circle class="cls-3" cx="445.72" cy="82.06" r="1.48"/><circle class="cls-4" cx="448.09" cy="45.73" r="1.48"/><circle class="cls-3" cx="425.9" cy="72.06" r="1.48"/><circle class="cls-3" cx="415.96" cy="75.95" r="1.48"/><circle class="cls-3" cx="419.53" cy="78.85" r="1.48"/><circle class="cls-3" cx="422.3" cy="83.6" r="1.48"/><circle class="cls-3" cx="411.66" cy="74.59" r="1.48"/><circle class="cls-3" cx="426.37" cy="86.84" r="1.48"/><path class="cls-2" d="M509.22,106.84H453.49a.59.59,0,0,1-.59-.57V50.52h1.18v55.14h55.14Z" transform="translate(-51.45 -14.23)"/><circle class="cls-3" cx="422.53" cy="64.78" r="1.48"/><path class="cls-5" d="M453.94,162.21a1,1,0,0,1,0,.18.58.58,0,0,1,0,.14.22.22,0,0,1,0,.11.54.54,0,0,1-.11.14,2.36,2.36,0,0,1-.37.27,4.41,4.41,0,0,1-.7.38,5.78,5.78,0,0,1-1,.31,5.17,5.17,0,0,1-1.22.14,4.88,4.88,0,0,1-1.95-.38,3.94,3.94,0,0,1-1.49-1.1,5,5,0,0,1-.94-1.78,8.07,8.07,0,0,1-.33-2.41,8.39,8.39,0,0,1,.35-2.5,5.79,5.79,0,0,1,1-1.88,4.32,4.32,0,0,1,1.54-1.18,4.71,4.71,0,0,1,2-.41,4.62,4.62,0,0,1,1,.1,5.36,5.36,0,0,1,.88.24,4.13,4.13,0,0,1,.73.35,2.34,2.34,0,0,1,.44.31,1.35,1.35,0,0,1,.15.17.61.61,0,0,1,.05.12l0,.15c0,.06,0,.12,0,.19a1.38,1.38,0,0,1,0,.22.75.75,0,0,1,0,.16.39.39,0,0,1-.08.1.17.17,0,0,1-.1,0,.67.67,0,0,1-.35-.18,6.54,6.54,0,0,0-.59-.4,4.48,4.48,0,0,0-.9-.4,3.9,3.9,0,0,0-1.26-.18,3.44,3.44,0,0,0-1.47.32,3.17,3.17,0,0,0-1.15,1,4.71,4.71,0,0,0-.75,1.54,7.46,7.46,0,0,0-.27,2.11,7.7,7.7,0,0,0,.25,2,4.25,4.25,0,0,0,.71,1.48,3.06,3.06,0,0,0,1.16.92,3.72,3.72,0,0,0,1.56.32,4,4,0,0,0,1.25-.18,4.86,4.86,0,0,0,.91-.4c.25-.15.46-.28.62-.4a.75.75,0,0,1,.37-.18s.07,0,.09,0a.1.1,0,0,1,.06.08.57.57,0,0,1,0,.15A1.66,1.66,0,0,1,453.94,162.21Z" transform="translate(-51.45 -14.23)"/><path class="cls-5" d="M457,163.59a.16.16,0,0,1,0,.09.11.11,0,0,1-.08.07.5.5,0,0,1-.16.05h-.51a.5.5,0,0,1-.16-.05.13.13,0,0,1-.09-.07.29.29,0,0,1,0-.09V151.7a.29.29,0,0,1,0-.09.18.18,0,0,1,.09-.08.53.53,0,0,1,.16,0l.25,0,.26,0,.16,0a.15.15,0,0,1,.08.08.16.16,0,0,1,0,.09Z" transform="translate(-51.45 -14.23)"/><path class="cls-5" d="M466.36,163.59a.29.29,0,0,1,0,.09.16.16,0,0,1-.09.07.5.5,0,0,1-.16.05h-.49l-.15-.05a.12.12,0,0,1-.07-.07.16.16,0,0,1,0-.09v-1.13a4.83,4.83,0,0,1-1.34,1.11,2.78,2.78,0,0,1-1.31.34,3.07,3.07,0,0,1-1.32-.26,2.37,2.37,0,0,1-.87-.72,3,3,0,0,1-.48-1.05,6.72,6.72,0,0,1-.14-1.45v-4.82a.3.3,0,0,1,0-.1.17.17,0,0,1,.09-.07.5.5,0,0,1,.16-.05h.51a.5.5,0,0,1,.16.05.19.19,0,0,1,.08.07.17.17,0,0,1,0,.1v4.72a5.61,5.61,0,0,0,.11,1.21,2.34,2.34,0,0,0,.35.8,1.58,1.58,0,0,0,.58.51,1.86,1.86,0,0,0,.84.18,2.06,2.06,0,0,0,1.21-.43,6.9,6.9,0,0,0,1.28-1.27v-5.72a.3.3,0,0,1,0-.1.22.22,0,0,1,.09-.07.5.5,0,0,1,.16-.05h.51a.5.5,0,0,1,.16.05s.07,0,.08.07a.17.17,0,0,1,0,.1Z" transform="translate(-51.45 -14.23)"/><path class="cls-5" d="M474,161.46a2.43,2.43,0,0,1-.21,1,2.15,2.15,0,0,1-.6.77,2.78,2.78,0,0,1-.94.48,3.89,3.89,0,0,1-1.21.17,4.75,4.75,0,0,1-.78-.06,5,5,0,0,1-.67-.17,3.11,3.11,0,0,1-.51-.22,1.18,1.18,0,0,1-.3-.2.48.48,0,0,1-.15-.22,1.16,1.16,0,0,1,0-.35,1.25,1.25,0,0,1,0-.21.83.83,0,0,1,0-.15.22.22,0,0,1,.07-.09.17.17,0,0,1,.1,0,.6.6,0,0,1,.28.12,3.11,3.11,0,0,0,.46.27,3.88,3.88,0,0,0,.67.27,2.93,2.93,0,0,0,.88.12,2.85,2.85,0,0,0,.74-.08,1.64,1.64,0,0,0,.58-.27,1.13,1.13,0,0,0,.39-.45,1.48,1.48,0,0,0,.13-.65,1.16,1.16,0,0,0-.17-.63,1.66,1.66,0,0,0-.47-.44,3.3,3.3,0,0,0-.65-.34l-.75-.3-.75-.33a3.41,3.41,0,0,1-.65-.45,2.14,2.14,0,0,1-.46-.64,2,2,0,0,1-.18-.89,2.25,2.25,0,0,1,.16-.81,2.05,2.05,0,0,1,.49-.72,2.3,2.3,0,0,1,.85-.51,3.43,3.43,0,0,1,1.22-.2,3.81,3.81,0,0,1,.59.05,3.57,3.57,0,0,1,.54.13,2.81,2.81,0,0,1,.42.17,2.4,2.4,0,0,1,.27.16.66.66,0,0,1,.12.12.47.47,0,0,1,.05.1.69.69,0,0,0,0,.13c0,.05,0,.11,0,.18a1,1,0,0,1,0,.19.54.54,0,0,1,0,.15.2.2,0,0,1-.06.09.17.17,0,0,1-.1,0,.45.45,0,0,1-.21-.1,3.46,3.46,0,0,0-.37-.21,5.12,5.12,0,0,0-.54-.21,2.76,2.76,0,0,0-.74-.1,2.61,2.61,0,0,0-.72.1,1.7,1.7,0,0,0-.52.27,1.12,1.12,0,0,0-.3.42,1.27,1.27,0,0,0-.1.52,1.13,1.13,0,0,0,.17.65,1.72,1.72,0,0,0,.47.46,3.4,3.4,0,0,0,.66.34l.75.3c.26.1.51.21.76.33a2.81,2.81,0,0,1,.66.44,2,2,0,0,1,.47.61A2.06,2.06,0,0,1,474,161.46Z" transform="translate(-51.45 -14.23)"/><path class="cls-5" d="M479.91,163.11a1.26,1.26,0,0,1,0,.3.32.32,0,0,1-.1.18.57.57,0,0,1-.19.12l-.3.1a2,2,0,0,1-.35.06,2.17,2.17,0,0,1-.36,0,3,3,0,0,1-1-.15,1.75,1.75,0,0,1-.68-.48,2.15,2.15,0,0,1-.38-.82,5,5,0,0,1-.12-1.16v-5H475.2a.2.2,0,0,1-.19-.11.58.58,0,0,1-.07-.33,1.27,1.27,0,0,1,0-.2.59.59,0,0,1,.06-.14.2.2,0,0,1,.08-.08.2.2,0,0,1,.11,0h1.19v-1.95a.3.3,0,0,1,0-.1.24.24,0,0,1,.09-.08l.16,0h.51l.16,0a.15.15,0,0,1,.08.08.17.17,0,0,1,0,.1v1.95h2.2a.2.2,0,0,1,.11,0,.23.23,0,0,1,.09.08.58.58,0,0,1,.05.14,1.23,1.23,0,0,1,0,.2.57.57,0,0,1-.08.33.21.21,0,0,1-.19.11h-2.2v4.83a3,3,0,0,0,.26,1.38,1,1,0,0,0,.95.47,1.48,1.48,0,0,0,.38,0,1.89,1.89,0,0,0,.31-.1l.22-.09a.41.41,0,0,1,.16,0l.08,0a.09.09,0,0,1,.06.07.34.34,0,0,1,0,.12C479.9,163,479.91,163,479.91,163.11Z" transform="translate(-51.45 -14.23)"/><path class="cls-5" d="M488.33,159.19a.5.5,0,0,1-.17.43.56.56,0,0,1-.33.12h-5.44a5.49,5.49,0,0,0,.15,1.34,2.8,2.8,0,0,0,.48,1,2.31,2.31,0,0,0,.87.66,3.46,3.46,0,0,0,1.33.22,4.91,4.91,0,0,0,1-.09,6,6,0,0,0,.76-.22l.53-.21a.78.78,0,0,1,.3-.1.19.19,0,0,1,.1,0,.19.19,0,0,1,.07.08s0,.09,0,.14,0,.14,0,.23a.37.37,0,0,1,0,.11s0,.08,0,.11a.36.36,0,0,1,0,.09l-.07.09a1.48,1.48,0,0,1-.28.16,5.37,5.37,0,0,1-.6.22c-.24.07-.53.13-.85.19a5.9,5.9,0,0,1-1.06.09,4.44,4.44,0,0,1-1.64-.28,3,3,0,0,1-1.2-.82,3.68,3.68,0,0,1-.73-1.34,6.11,6.11,0,0,1-.25-1.86,5.72,5.72,0,0,1,.26-1.82,4,4,0,0,1,.74-1.36,3.1,3.1,0,0,1,1.17-.85,3.72,3.72,0,0,1,1.52-.3,3.54,3.54,0,0,1,1.53.3,2.85,2.85,0,0,1,1.05.81,3.42,3.42,0,0,1,.6,1.17,5.47,5.47,0,0,1,.19,1.42Zm-1.09-.31a2.85,2.85,0,0,0-.58-2,2.2,2.2,0,0,0-1.77-.71,2.32,2.32,0,0,0-1.05.23,2.26,2.26,0,0,0-.77.59,2.58,2.58,0,0,0-.48.86,3.92,3.92,0,0,0-.2,1Z" transform="translate(-51.45 -14.23)"/><path class="cls-5" d="M495.17,156a1.55,1.55,0,0,1,0,.23l0,.15a.36.36,0,0,1-.05.09.14.14,0,0,1-.09,0,.74.74,0,0,1-.18,0l-.25-.09-.31-.08a1.4,1.4,0,0,0-.37,0,1.14,1.14,0,0,0-.47.1,2.07,2.07,0,0,0-.48.33,5.51,5.51,0,0,0-.53.59c-.18.25-.39.55-.61.91v5.4a.29.29,0,0,1,0,.09.16.16,0,0,1-.09.07.5.5,0,0,1-.16.05H491a.5.5,0,0,1-.16-.05.16.16,0,0,1-.09-.07.29.29,0,0,1,0-.09v-8a.3.3,0,0,1,0-.1.22.22,0,0,1,.09-.07l.15-.05h.49a.37.37,0,0,1,.15.05.19.19,0,0,1,.08.07.3.3,0,0,1,0,.1v1.26a6.4,6.4,0,0,1,.63-.81,2.88,2.88,0,0,1,.56-.48,1.66,1.66,0,0,1,.51-.24,2.24,2.24,0,0,1,.52-.06h.26l.33.05a2.8,2.8,0,0,1,.31.09.49.49,0,0,1,.18.09.29.29,0,0,1,.08.07l0,.07a.57.57,0,0,1,0,.14A1.28,1.28,0,0,1,495.17,156Z" transform="translate(-51.45 -14.23)"/><path class="cls-5" d="M498.17,152.92a.81.81,0,0,1-.15.57.76.76,0,0,1-.54.15.81.81,0,0,1-.54-.14.87.87,0,0,1-.14-.57.84.84,0,0,1,.15-.58.82.82,0,0,1,.55-.15.75.75,0,0,1,.53.15A.82.82,0,0,1,498.17,152.92ZM498,163.59a.16.16,0,0,1,0,.09.18.18,0,0,1-.08.07l-.16.05h-.51a.58.58,0,0,1-.17-.05.11.11,0,0,1-.08-.07.15.15,0,0,1,0-.09v-8a.16.16,0,0,1,0-.1s0,0,.08-.07a.58.58,0,0,1,.17-.05h.51l.16.05a.27.27,0,0,1,.08.07.17.17,0,0,1,0,.1Z" transform="translate(-51.45 -14.23)"/><path class="cls-5" d="M507.42,163.59a.16.16,0,0,1,0,.09.11.11,0,0,1-.08.07.5.5,0,0,1-.16.05h-.51a.5.5,0,0,1-.16-.05.14.14,0,0,1-.08-.07.16.16,0,0,1,0-.09v-4.74a5.57,5.57,0,0,0-.11-1.2,2.29,2.29,0,0,0-.35-.79,1.45,1.45,0,0,0-.58-.52,1.86,1.86,0,0,0-.84-.18,2.07,2.07,0,0,0-1.21.44,6.52,6.52,0,0,0-1.28,1.26v5.73a.16.16,0,0,1,0,.09.11.11,0,0,1-.08.07.5.5,0,0,1-.16.05h-.51a.5.5,0,0,1-.16-.05.16.16,0,0,1-.09-.07.29.29,0,0,1,0-.09v-8a.3.3,0,0,1,0-.1.22.22,0,0,1,.09-.07l.15-.05h.49l.15.05a.16.16,0,0,1,.07.07.17.17,0,0,1,0,.1v1.13a4.53,4.53,0,0,1,1.35-1.11,2.8,2.8,0,0,1,1.31-.35,2.93,2.93,0,0,1,1.32.27,2.26,2.26,0,0,1,.87.71,3,3,0,0,1,.48,1.05,6.62,6.62,0,0,1,.14,1.44Z" transform="translate(-51.45 -14.23)"/><path class="cls-5" d="M516.72,155.87a.53.53,0,0,1-.08.35.25.25,0,0,1-.2.09h-1.26a2,2,0,0,1,.51.83,2.89,2.89,0,0,1,.15.94,3,3,0,0,1-.22,1.2,2.36,2.36,0,0,1-.61.9,2.77,2.77,0,0,1-.94.56,3.61,3.61,0,0,1-1.21.19,3.4,3.4,0,0,1-1-.15,2.15,2.15,0,0,1-.76-.37,1.52,1.52,0,0,0-.29.41,1.12,1.12,0,0,0-.12.53.67.67,0,0,0,.33.56,1.48,1.48,0,0,0,.83.25l2.16.09a4.27,4.27,0,0,1,1,.15,2.32,2.32,0,0,1,.84.39,1.85,1.85,0,0,1,.57.64,1.8,1.8,0,0,1,.21.89,2.5,2.5,0,0,1-.21,1,2.36,2.36,0,0,1-.67.85,3.32,3.32,0,0,1-1.16.58,5.59,5.59,0,0,1-1.69.22,6.66,6.66,0,0,1-1.59-.16,3.32,3.32,0,0,1-1.07-.45,1.71,1.71,0,0,1-.61-.68,1.81,1.81,0,0,1-.19-.83,2.27,2.27,0,0,1,.07-.59,2.14,2.14,0,0,1,.22-.52,2.18,2.18,0,0,1,.36-.47,5.55,5.55,0,0,1,.49-.47,1.68,1.68,0,0,1-.66-.56,1.24,1.24,0,0,1-.21-.69,2.13,2.13,0,0,1,.21-1,3.7,3.7,0,0,1,.52-.75,2.37,2.37,0,0,1-.4-.73,2.72,2.72,0,0,1-.14-1,3.11,3.11,0,0,1,.22-1.21,2.56,2.56,0,0,1,1.55-1.47,3.51,3.51,0,0,1,1.2-.2,4.54,4.54,0,0,1,.65,0l.56.1h2.35a.24.24,0,0,1,.22.12A.72.72,0,0,1,516.72,155.87Zm-1.13,8.51a1,1,0,0,0-.47-.89,2.38,2.38,0,0,0-1.26-.34l-2.32-.08a4.2,4.2,0,0,0-.52.47,2.27,2.27,0,0,0-.32.43,1.5,1.5,0,0,0-.17.4,1.9,1.9,0,0,0,0,.41,1.05,1.05,0,0,0,.66,1,4,4,0,0,0,1.83.34,4.3,4.3,0,0,0,1.23-.15,2.26,2.26,0,0,0,.81-.38,1.35,1.35,0,0,0,.44-.55A1.56,1.56,0,0,0,515.59,164.38Zm-.83-6.29a2,2,0,0,0-.5-1.42,1.9,1.9,0,0,0-1.42-.51,2.1,2.1,0,0,0-.82.16,1.69,1.69,0,0,0-.58.43,1.88,1.88,0,0,0-.34.64,2.43,2.43,0,0,0-.12.77,1.75,1.75,0,0,0,1.9,1.89,2,2,0,0,0,.83-.16,1.61,1.61,0,0,0,.59-.43,1.77,1.77,0,0,0,.34-.62A2.36,2.36,0,0,0,514.76,158.09Z" transform="translate(-51.45 -14.23)"/><rect class="cls-8" x="357.2" y="2" width="143.23" height="177.29" rx="21.29"/></svg>