<svg xmlns="http://www.w3.org/2000/svg" xmlns:xlink="http://www.w3.org/1999/xlink" viewBox="0 0 762.81 244.74"><defs><radialGradient id="radial-gradient" cx="410.48" cy="15788.36" r="18.47" gradientTransform="translate(-653.12 -9178.96) scale(1.88 0.6)" gradientUnits="userSpaceOnUse"><stop offset="0" stop-color="#d6d6d6"/><stop offset="1" stop-color="#fff"/></radialGradient><radialGradient id="radial-gradient-2" cx="145.72" cy="15144.95" r="18.47" gradientTransform="translate(-55.6 -6719.06) scale(1.1 0.46)" xlink:href="#radial-gradient"/></defs><g style="isolation:isolate"><g id="Layer_1" data-name="Layer 1"><path d="M59.28,321.26H58.22L54.16,307c-.34-1.17-.6-2.13-.76-2.88-.14.73-.33,1.58-.58,2.53s-1.61,5.83-4.08,14.64H47.65l-5.09-18.51h1.35l3.25,11.92c.12.48.24.93.35,1.34s.21.79.3,1.15.17.7.24,1,.13.67.19,1c.21-1.14.64-2.89,1.3-5.22l3.16-11.23h1.43l3.71,12.88c.43,1.49.74,2.69.92,3.6.11-.61.26-1.25.43-1.94s1.47-5.53,3.9-14.54H64.4Z" transform="translate(-27.96 -107.88)" style="fill:#fff"/><path d="M75.7,321.26l-.31-2.18h-.11A6.62,6.62,0,0,1,73.15,321a5.78,5.78,0,0,1-2.59.55,4.48,4.48,0,0,1-3.15-1,3.71,3.71,0,0,1-1.13-2.87A3.54,3.54,0,0,1,68,314.47a9.14,9.14,0,0,1,4.86-1.18l2.62-.07v-.91a4.72,4.72,0,0,0-.8-3,3.11,3.11,0,0,0-2.57-1,8.55,8.55,0,0,0-4,1.07l-.47-1.09a10.46,10.46,0,0,1,4.48-1.07,4.5,4.5,0,0,1,3.39,1.18,5.21,5.21,0,0,1,1.12,3.67v9.16Zm-5.06-.89a4.39,4.39,0,0,0,4.75-4.76v-1.36l-2.41.11a9.05,9.05,0,0,0-4.13.9,2.6,2.6,0,0,0-1.24,2.39,2.57,2.57,0,0,0,.79,2A3.23,3.23,0,0,0,70.64,320.37Z" transform="translate(-27.96 -107.88)" style="fill:#fff"/><path d="M80.91,303.67c0-.81.26-1.21.79-1.21a.72.72,0,0,1,.62.31,1.61,1.61,0,0,1,.22.9,1.66,1.66,0,0,1-.22.9.71.71,0,0,1-.62.33C81.17,304.9,80.91,304.49,80.91,303.67Zm1.43,17.59H81.08V307.49h1.26Z" transform="translate(-27.96 -107.88)" style="fill:#fff"/><path d="M90.58,320.39a9.08,9.08,0,0,0,2.07-.2v1a6.36,6.36,0,0,1-2.1.31,3.43,3.43,0,0,1-2.69-1,4.51,4.51,0,0,1-.87-3.06v-8.89H85v-.73l2-.57.64-3.12h.64v3.33h4v1.09h-4v8.71a4,4,0,0,0,.56,2.35A2,2,0,0,0,90.58,320.39Z" transform="translate(-27.96 -107.88)" style="fill:#fff"/><path d="M106,320.39a9.08,9.08,0,0,0,2.07-.2v1a6.4,6.4,0,0,1-2.1.31,3.43,3.43,0,0,1-2.69-1,4.51,4.51,0,0,1-.87-3.06v-8.89h-2v-.73l2-.57.64-3.12h.64v3.33h4v1.09h-4v8.71a4,4,0,0,0,.56,2.35A2,2,0,0,0,106,320.39Z" transform="translate(-27.96 -107.88)" style="fill:#fff"/><path d="M110.87,303.67c0-.81.27-1.21.8-1.21a.7.7,0,0,1,.61.31,1.54,1.54,0,0,1,.22.9,1.58,1.58,0,0,1-.22.9.7.7,0,0,1-.61.33C111.14,304.9,110.87,304.49,110.87,303.67Zm1.43,17.59h-1.25V307.49h1.25Z" transform="translate(-27.96 -107.88)" style="fill:#fff"/><path d="M134.1,321.26v-9a4.53,4.53,0,0,0-.78-2.94,3,3,0,0,0-2.41-.92,4,4,0,0,0-3.13,1.16,5.54,5.54,0,0,0-1,3.66v8.07h-1.28v-9.41q0-3.48-3.19-3.48a3.76,3.76,0,0,0-3.15,1.26,6.54,6.54,0,0,0-1,4v7.6h-1.25V307.49h1l.26,1.89h.08a4,4,0,0,1,1.62-1.59,4.88,4.88,0,0,1,2.32-.56q3.26,0,4.17,2.44h.06a4.61,4.61,0,0,1,1.8-1.81,5.18,5.18,0,0,1,2.57-.63,4.45,4.45,0,0,1,3.39,1.2,5.47,5.47,0,0,1,1.12,3.82v9Z" transform="translate(-27.96 -107.88)" style="fill:#fff"/><path d="M145.36,321.51a6,6,0,0,1-4.68-1.85,7.42,7.42,0,0,1-1.68-5.18,8.07,8.07,0,0,1,1.62-5.27,5.36,5.36,0,0,1,4.37-2,4.67,4.67,0,0,1,3.83,1.7,7,7,0,0,1,1.41,4.6v1h-9.91a6.46,6.46,0,0,0,1.32,4.33,4.68,4.68,0,0,0,3.72,1.49,11.54,11.54,0,0,0,2.07-.17,12.22,12.22,0,0,0,2.26-.7v1.14a10.4,10.4,0,0,1-2.16.68A11.17,11.17,0,0,1,145.36,321.51ZM145,308.34a4.12,4.12,0,0,0-3.19,1.31,6.26,6.26,0,0,0-1.41,3.78h8.51a6,6,0,0,0-1-3.74A3.42,3.42,0,0,0,145,308.34Z" transform="translate(-27.96 -107.88)" style="fill:#fff"/><path d="M162.56,317.67a3.31,3.31,0,0,1-1.4,2.85,6.88,6.88,0,0,1-4,1,9.45,9.45,0,0,1-4.38-.85v-1.35a9.66,9.66,0,0,0,4.38,1,5.76,5.76,0,0,0,3.09-.67,2.06,2.06,0,0,0,1.06-1.81,2.19,2.19,0,0,0-.84-1.74,9.22,9.22,0,0,0-2.77-1.4,16.27,16.27,0,0,1-2.9-1.28,4.21,4.21,0,0,1-1.26-1.22,3.06,3.06,0,0,1-.42-1.65,2.81,2.81,0,0,1,1.3-2.44,6.27,6.27,0,0,1,3.62-.9,11,11,0,0,1,4.23.83l-.47,1.14a10,10,0,0,0-3.76-.83,5.35,5.35,0,0,0-2.67.56,1.69,1.69,0,0,0-1,1.54,2.13,2.13,0,0,0,.76,1.72,10.69,10.69,0,0,0,3,1.44,14.37,14.37,0,0,1,2.71,1.21,4.07,4.07,0,0,1,1.28,1.22A3,3,0,0,1,162.56,317.67Z" transform="translate(-27.96 -107.88)" style="fill:#fff"/><path d="M172.09,316.56a4.79,4.79,0,0,1,.93-3A10.94,10.94,0,0,1,176.5,311l-.95-1a6.86,6.86,0,0,1-1.24-1.76,4.16,4.16,0,0,1-.41-1.8,3.66,3.66,0,0,1,1.21-2.87,4.75,4.75,0,0,1,3.25-1.06,4.52,4.52,0,0,1,3.11,1,3.62,3.62,0,0,1,1.14,2.84,3.79,3.79,0,0,1-.88,2.43,11.91,11.91,0,0,1-3.21,2.47l5.73,5.78a10.22,10.22,0,0,0,1.31-2,13,13,0,0,0,.95-2.54h1.22a13.89,13.89,0,0,1-2.65,5.39l3.37,3.4h-1.71l-2.44-2.5a11,11,0,0,1-2.08,1.67,8.13,8.13,0,0,1-2,.8,9.81,9.81,0,0,1-2.47.28,6.13,6.13,0,0,1-4.15-1.31A4.53,4.53,0,0,1,172.09,316.56Zm5.76,3.81a7.74,7.74,0,0,0,3-.55,8.24,8.24,0,0,0,2.65-1.86l-6.11-6.14a15.8,15.8,0,0,0-2.49,1.55,4.06,4.06,0,0,0-1.11,1.39,4.14,4.14,0,0,0-.35,1.75,3.53,3.53,0,0,0,1.18,2.83A4.76,4.76,0,0,0,177.85,320.37Zm-2.59-14a3.64,3.64,0,0,0,.5,1.85,11.88,11.88,0,0,0,1.93,2.2,10,10,0,0,0,2.8-2,3.27,3.27,0,0,0,.78-2.14,2.52,2.52,0,0,0-.78-1.93,3,3,0,0,0-2.13-.74,3.3,3.3,0,0,0-2.27.73A2.56,2.56,0,0,0,175.26,306.37Z" transform="translate(-27.96 -107.88)" style="fill:#fff"/><path d="M50.4,333.86h5.08a8.72,8.72,0,0,1,5,1.16,4.07,4.07,0,0,1,1.61,3.52,3.78,3.78,0,0,1-1,2.68,4.77,4.77,0,0,1-2.86,1.37v.08a5.64,5.64,0,0,1,3.26,1.4,4.11,4.11,0,0,1,1,3,4.76,4.76,0,0,1-1.7,3.94,7.43,7.43,0,0,1-4.81,1.38H50.4Zm1.29,8.24h4.08a6.48,6.48,0,0,0,3.79-.87,3.13,3.13,0,0,0,1.19-2.71,3,3,0,0,0-1.34-2.69,7.69,7.69,0,0,0-4-.83H51.69Zm0,1.14v8h4.36q5.14,0,5.14-4.18,0-3.81-5.42-3.81Z" transform="translate(-27.96 -107.88)" style="fill:#fff"/><path d="M77.72,345.47a7.79,7.79,0,0,1-1.63,5.26,5.64,5.64,0,0,1-4.51,1.89,5.85,5.85,0,0,1-3.19-.87,5.63,5.63,0,0,1-2.11-2.51,9.12,9.12,0,0,1-.74-3.77,7.73,7.73,0,0,1,1.64-5.25,5.63,5.63,0,0,1,4.48-1.88,5.53,5.53,0,0,1,4.45,1.91A7.85,7.85,0,0,1,77.72,345.47Zm-10.86,0a7,7,0,0,0,1.25,4.42,4.7,4.7,0,0,0,7,0,7,7,0,0,0,1.25-4.42,6.9,6.9,0,0,0-1.26-4.42,4.76,4.76,0,0,0-7.06,0A7,7,0,0,0,66.86,345.47Z" transform="translate(-27.96 -107.88)" style="fill:#fff"/><path d="M85.17,351.51a9,9,0,0,0,2.07-.21v1a6.74,6.74,0,0,1-2.1.3,3.42,3.42,0,0,1-2.69-1,4.54,4.54,0,0,1-.87-3.07V339.7h-2V339l2-.57.64-3.11h.64v3.33h4v1.09h-4v8.7a4,4,0,0,0,.56,2.35A2,2,0,0,0,85.17,351.51Z" transform="translate(-27.96 -107.88)" style="fill:#fff"/><path d="M93.85,351.51a9.13,9.13,0,0,0,2.08-.21v1a6.76,6.76,0,0,1-2.11.3,3.43,3.43,0,0,1-2.69-1,4.59,4.59,0,0,1-.86-3.07V339.7h-2V339l2-.57.63-3.11h.65v3.33h4v1.09h-4v8.7a4,4,0,0,0,.55,2.35A2,2,0,0,0,93.85,351.51Z" transform="translate(-27.96 -107.88)" style="fill:#fff"/><path d="M100.15,352.37H98.9v-19.7h1.25Z" transform="translate(-27.96 -107.88)" style="fill:#fff"/><path d="M110.32,352.62a6,6,0,0,1-4.68-1.85A7.41,7.41,0,0,1,104,345.6a8,8,0,0,1,1.63-5.28,5.34,5.34,0,0,1,4.36-2,4.73,4.73,0,0,1,3.84,1.7,7,7,0,0,1,1.4,4.6v1h-9.91A6.56,6.56,0,0,0,106.6,350a4.69,4.69,0,0,0,3.72,1.49,11.61,11.61,0,0,0,2.07-.16,13,13,0,0,0,2.26-.71v1.14a10.4,10.4,0,0,1-2.15.69A12.25,12.25,0,0,1,110.32,352.62ZM110,339.45a4.11,4.11,0,0,0-3.19,1.32,6.14,6.14,0,0,0-1.4,3.77h8.5a6,6,0,0,0-1-3.74A3.44,3.44,0,0,0,110,339.45Z" transform="translate(-27.96 -107.88)" style="fill:#fff"/><path d="M128.59,352.37v-8.93a4.33,4.33,0,0,0-.88-3,3.5,3.5,0,0,0-2.7-.94,4.7,4.7,0,0,0-3.62,1.25,5.89,5.89,0,0,0-1.14,4v7.6H119V338.61h1.07l.24,1.88h.07q1.35-2.14,4.77-2.15,4.7,0,4.69,5v9Z" transform="translate(-27.96 -107.88)" style="fill:#fff"/><path d="M139.84,352.62a5.94,5.94,0,0,1-4.67-1.85,7.41,7.41,0,0,1-1.68-5.17,8.08,8.08,0,0,1,1.62-5.28,5.34,5.34,0,0,1,4.37-2,4.71,4.71,0,0,1,3.83,1.7,7,7,0,0,1,1.41,4.6v1H134.8a6.51,6.51,0,0,0,1.33,4.33,4.66,4.66,0,0,0,3.71,1.49,11.46,11.46,0,0,0,2.07-.16,12.7,12.7,0,0,0,2.26-.71v1.14a10.22,10.22,0,0,1-2.15.69A12.17,12.17,0,0,1,139.84,352.62Zm-.36-13.17a4.1,4.1,0,0,0-3.19,1.32,6.14,6.14,0,0,0-1.41,3.77h8.51a6,6,0,0,0-1-3.74A3.42,3.42,0,0,0,139.48,339.45Z" transform="translate(-27.96 -107.88)" style="fill:#fff"/><path d="M154,352.62a5.88,5.88,0,0,1-4.62-1.86,7.46,7.46,0,0,1-1.67-5.19,7.59,7.59,0,0,1,1.73-5.32,6.11,6.11,0,0,1,4.75-1.91,9.64,9.64,0,0,1,3.42.62l-.35,1.11a10.19,10.19,0,0,0-3.1-.59,4.71,4.71,0,0,0-3.83,1.56,6.88,6.88,0,0,0-1.31,4.5,6.68,6.68,0,0,0,1.31,4.37,4.46,4.46,0,0,0,3.64,1.57,8.88,8.88,0,0,0,3.48-.67V352A7.69,7.69,0,0,1,154,352.62Z" transform="translate(-27.96 -107.88)" style="fill:#fff"/><path d="M162.06,346.33l7-7.72h1.52l-5.42,5.87,5.88,7.89h-1.5l-5.23-6.95-2.25,2.05v4.9h-1.26v-19.7h1.26v9.87l-.09,3.79Z" transform="translate(-27.96 -107.88)" style="fill:#fff"/><path d="M181.91,348.78a3.3,3.3,0,0,1-1.4,2.85,6.88,6.88,0,0,1-4,1,9.45,9.45,0,0,1-4.38-.85v-1.35a9.67,9.67,0,0,0,4.38,1,5.76,5.76,0,0,0,3.09-.68,2,2,0,0,0,1.06-1.81,2.19,2.19,0,0,0-.84-1.74,9.24,9.24,0,0,0-2.77-1.39,16.13,16.13,0,0,1-2.9-1.29,4.19,4.19,0,0,1-1.26-1.21,3.12,3.12,0,0,1-.42-1.66,2.81,2.81,0,0,1,1.3-2.44,6.27,6.27,0,0,1,3.62-.9,10.79,10.79,0,0,1,4.23.84l-.47,1.14a9.86,9.86,0,0,0-3.76-.84,5.46,5.46,0,0,0-2.67.56,1.69,1.69,0,0,0-1,1.54,2.13,2.13,0,0,0,.76,1.72,10.64,10.64,0,0,0,3,1.45,13.74,13.74,0,0,1,2.71,1.21,3.86,3.86,0,0,1,1.28,1.22A3,3,0,0,1,181.91,348.78Z" transform="translate(-27.96 -107.88)" style="fill:#fff"/><path d="M224.07,219c0-3.46-16-6.27-35.75-6.29s-35.75,2.83-35.75,6.29a1.39,1.39,0,0,0,.33.86L180,263h.08v8c.06.79,3.73,1.43,8.26,1.43s8.21-.64,8.26-1.43v-8h.08l27.08-43.12A1.39,1.39,0,0,0,224.07,219Zm-35.7-4.92c18.08,0,32.71,2.28,32.71,5.07s-14.63,5-32.71,5.07-32.7-2.28-32.7-5.07S170.3,214.09,188.37,214.08Z" transform="translate(-27.96 -107.88)" style="fill:#fff"/><ellipse cx="160.42" cy="111.27" rx="32.7" ry="5.07" style="fill:#cdcce7"/><path d="M147.13,229.37c4.35,0,6.14,5.81,2.58,8.4-6.46,4.69-18.19,7.83-31.57,7.83S93,242.46,86.56,237.77c-3.56-2.59-1.77-8.4,2.58-8.4Z" transform="translate(-27.96 -107.88)" style="mix-blend-mode:multiply;fill:url(#radial-gradient)"/><path d="M198.67,187.65a7.76,7.76,0,0,1-15.51,0c0-6.76,5-17.69,7-23.18a.87.87,0,0,1,1.54,0C193.65,170,198.67,181.36,198.67,187.65Z" transform="translate(-27.96 -107.88)" style="fill:#f9f9fa"/><path d="M190.92,199.38a.57.57,0,0,1-.57-.57V184.67a.56.56,0,0,1,.57-.57.57.57,0,0,1,.57.57v14.14A.58.58,0,0,1,190.92,199.38Z" transform="translate(-27.96 -107.88)" style="fill:#eeedee;opacity:0.5"/><path d="M146,187.65a7.76,7.76,0,0,1-15.51,0c0-6.76,5-17.69,7-23.18a.87.87,0,0,1,1.54,0C141,170,146,181.36,146,187.65Z" transform="translate(-27.96 -107.88)" style="fill:#f9f9fa"/><path d="M138.22,199.38a.58.58,0,0,1-.57-.57V184.67a.57.57,0,0,1,.57-.57.56.56,0,0,1,.57.57v14.14A.57.57,0,0,1,138.22,199.38Z" transform="translate(-27.96 -107.88)" style="fill:#eeedee;opacity:0.5"/><path d="M188.32,185.12c0,8-5.55,14.44-12.39,14.44s-12.39-6.47-12.39-14.44c0-13.16,9.81-55.74,11.67-62.06a.76.76,0,0,1,1.45,0C178.51,129.38,188.32,172.88,188.32,185.12Z" transform="translate(-27.96 -107.88)" style="fill:#eeedee"/><path d="M175.93,206.19a.65.65,0,0,1-.65-.65V161.06a.65.65,0,0,1,1.3,0v44.48A.65.65,0,0,1,175.93,206.19Z" transform="translate(-27.96 -107.88)" style="fill:#e9e8e9"/><path d="M168.59,192.38a12.4,12.4,0,0,1-24.78,0c0-10.8,8-28.27,11.16-37a1.38,1.38,0,0,1,2.46,0C160.56,164.11,168.59,182.34,168.59,192.38Z" transform="translate(-27.96 -107.88)" style="fill:#e0e1e0"/><path d="M156.2,210.85a.64.64,0,0,1-.65-.64V187.62a.65.65,0,0,1,1.3,0v22.59A.64.64,0,0,1,156.2,210.85Z" transform="translate(-27.96 -107.88)" style="fill:#e9e8e9"/><path d="M96.16,187.65a7.76,7.76,0,0,1-15.51,0c0-6.76,5-17.69,7-23.18a.87.87,0,0,1,1.54,0C91.14,170,96.16,181.36,96.16,187.65Z" transform="translate(-27.96 -107.88)" style="fill:#f9f9fa"/><path d="M88.41,199.38a.57.57,0,0,1-.57-.57V184.67a.56.56,0,0,1,.57-.57.57.57,0,0,1,.57.57v14.14A.58.58,0,0,1,88.41,199.38Z" transform="translate(-27.96 -107.88)" style="fill:#eeedee;opacity:0.5"/><path d="M43.47,187.65a7.76,7.76,0,0,1-15.51,0c0-6.76,5-17.69,7-23.18a.87.87,0,0,1,1.54,0C38.44,170,43.47,181.36,43.47,187.65Z" transform="translate(-27.96 -107.88)" style="fill:#eeedee"/><path d="M35.71,199.46a.65.65,0,0,1-.65-.65V184.67a.65.65,0,0,1,1.3,0v14.14A.65.65,0,0,1,35.71,199.46Z" transform="translate(-27.96 -107.88)" style="fill:#e9e8e9"/><path d="M85.81,185.12c0,8-5.55,14.44-12.39,14.44S61,193.09,61,185.12c0-13.16,9.81-55.74,11.66-62.06a.76.76,0,0,1,1.46,0C76,129.38,85.81,172.88,85.81,185.12Z" transform="translate(-27.96 -107.88)" style="fill:#eeedee"/><path d="M73.42,206.19a.65.65,0,0,1-.65-.65V161.06a.65.65,0,0,1,1.3,0v44.48A.65.65,0,0,1,73.42,206.19Z" transform="translate(-27.96 -107.88)" style="fill:#e9e8e9"/><path d="M66.08,192.38a12.4,12.4,0,0,1-24.78,0c0-10.8,8-28.27,11.16-37a1.38,1.38,0,0,1,2.46,0C58.05,164.11,66.08,182.34,66.08,192.38Z" transform="translate(-27.96 -107.88)" style="fill:#f9f9fa"/><path d="M53.69,210.78a.57.57,0,0,1-.57-.57V187.62a.57.57,0,0,1,.57-.58.58.58,0,0,1,.57.58v22.59A.58.58,0,0,1,53.69,210.78Z" transform="translate(-27.96 -107.88)" style="fill:#eeedee;opacity:0.5"/><path d="M118.8,225.63h5.94a7.48,7.48,0,0,1,7.48,7.48v0a0,0,0,0,1,0,0H111.31a0,0,0,0,1,0,0v0A7.48,7.48,0,0,1,118.8,225.63Z" transform="translate(-26.98 -108.39) rotate(0.24)" style="fill:#8fa5af"/><path d="M123.24,230.74l.05-11.65a51,51,0,0,1,2.38-15.21l2.78-8.84c3.61-12.45,13.81-29.76,18.94-41-3,7.61-16.08,18.49-26.08,18.45-10.2,0-22.55-4.82-28.43-12.23a98.83,98.83,0,0,1,16.69,32.93l3.31,10.54a51.28,51.28,0,0,1,2.35,15.56l0,11.44C116,230.74,122.52,230.75,123.24,230.74Z" transform="translate(-27.96 -107.88)" style="fill:#b0bec5"/><path d="M115.35,219.27A51,51,0,0,0,113,203.71l-3.3-10.54a99.06,99.06,0,0,0-17-33.2,32.3,32.3,0,1,1,50.5.66,96.66,96.66,0,0,0-18,34.41l-2.79,8.84A51.29,51.29,0,0,0,120,219.09l-.06,13.1-4.67,0Z" transform="translate(-27.96 -107.88)" style="fill:#d0d9dc"/><circle cx="90.23" cy="32.29" r="23.64" style="fill:#fff"/><path d="M118.18,141.14a1,1,0,0,1-.84-.49l-5.52-9.86a1,1,0,0,1,1.69-.95l3.72,6.64.06-15.59a1,1,0,0,1,1-1h0a1,1,0,0,1,1,1l-.09,19.28a1,1,0,0,1-.72.93A1.07,1.07,0,0,1,118.18,141.14Z" transform="translate(-27.96 -107.88)" style="fill:#548bc9"/><path d="M117.8,230.75c.73,0,1.45,0,2.18,0l0-11.65a51.29,51.29,0,0,1,2.37-15.21l2.79-8.84A96.67,96.67,0,0,1,143,160.89a32.29,32.29,0,0,1-50.07-.64,99.07,99.07,0,0,1,16.81,32.92l3.3,10.54a51,51,0,0,1,2.35,15.56l0,11.44C116.13,230.74,117,230.75,117.8,230.75Z" transform="translate(-27.96 -107.88)" style="fill:#d0d9dc"/><path d="M125.92,225.66l-16.2-.06a2.34,2.34,0,0,0-2.36,2.34l0,5.13,20.91.09,0-5.14A2.35,2.35,0,0,0,125.92,225.66Z" transform="translate(-27.96 -107.88)" style="fill:#b0bec5"/><path d="M96.3,141.43a23.12,23.12,0,0,1,43.34-11.21,23.67,23.67,0,1,0-31.43,31.43A23.11,23.11,0,0,1,96.3,141.43Z" transform="translate(-27.96 -107.88)" style="fill:#edeff0"/><path d="M126.22,191.72A96,96,0,0,1,143,160.89a32.29,32.29,0,0,1-50.07-.64,101.71,101.71,0,0,1,9.69,15.16Z" transform="translate(-27.96 -107.88)" style="fill:#c5cfd4"/><path d="M116.22,182.2l-8.5-5.7h-6.66L97,179A4.19,4.19,0,0,0,95.25,181l-4,10.4a5.4,5.4,0,0,0-.23,1.13l-.26,12.66h2.45l2.11-12a3.47,3.47,0,0,1,.27-1l2-4.73-1.16,14h16L111,187.4l4,.09a2.67,2.67,0,0,0,2.72-2.44v-.19A2.67,2.67,0,0,0,116.22,182.2Z" transform="translate(-27.96 -107.88)" style="fill:#548bc9"/><path d="M121.74,240.67c2.54,0,3.59,4.48,1.51,6.48-3.79,3.62-10.66,6-18.5,6s-14.7-2.42-18.49-6c-2.09-2-1-6.48,1.51-6.48Z" transform="translate(-27.96 -107.88)" style="mix-blend-mode:multiply;fill:url(#radial-gradient-2)"/><path d="M101.64,189.31l.8.38a.7.7,0,0,0,.45,0l.19-.06a.52.52,0,0,0,.38-.64h0a.21.21,0,0,0-.14-.15h0a.21.21,0,0,1-.11-.34l.49-.6a.23.23,0,0,1,.2-.08l7.32,1.4L111,187.4l-6.33-.73-1.89-1.32-3.07,2.22,1,1.3Z" transform="translate(-27.96 -107.88)" style="fill:#3d6ab3"/><path d="M104.7,184.08h-2.44a2,2,0,0,0-1.45.65l-1.28,1.44a1.13,1.13,0,0,0-.17,1.22l.86,1.86a1,1,0,0,0,1.19.49l.7-.25a.47.47,0,0,0,.23-.69h0a.49.49,0,0,0-.49-.19l-.34.08a.37.37,0,0,1-.43-.27l-.09-.37a.36.36,0,0,1,.28-.45l1-.17a1.36,1.36,0,0,0,.94-.67l.1-.17,1.38.08Z" transform="translate(-27.96 -107.88)" style="fill:#fbccbd"/><path d="M96.44,201.47l-.69,37.13-2.08,1.22a.64.64,0,0,0-.31.54v.2a.62.62,0,0,0,.62.62h3.34a.65.65,0,0,0,.65-.63l5.58-30.93a.6.6,0,0,1,1.2,0l1.07,31a.64.64,0,0,0,.65.58h3.89a.62.62,0,0,0,.62-.62h0a.63.63,0,0,0-.2-.46l-2.3-1.69,3.92-36.94Z" transform="translate(-27.96 -107.88)" style="fill:#273339"/><rect x="103.64" y="183.91" width="0.72" height="2.87" transform="translate(-53.2 -91.25) rotate(-8.16)" style="fill:#273339"/><rect x="103.05" y="183.6" width="1.45" height="0.42" rx="0.21" transform="translate(-52.98 -91.3) rotate(-8.16)" style="fill:#273339"/><path d="M90.78,205.24l-.66,3.12.65,1,.51-.86a.41.41,0,0,1,.33-.19h.67a.37.37,0,0,1,.33.17l0,0a.27.27,0,0,1-.07.37l-.27.21a.25.25,0,0,0-.07.34h0a.27.27,0,0,0,.35.11l.75-.56a.49.49,0,0,0,.18-.53L93.09,207l.14-1.72Z" transform="translate(-27.96 -107.88)" style="fill:#fbccbd"/><path d="M108.13,175.05c0,2.24-.5,6-4.06,6s-4.06-3.77-4.06-6a4.06,4.06,0,0,1,8.12,0Z" transform="translate(-27.96 -107.88)" style="fill:#fbccbd"/><polygon points="62.17 100.48 63.04 102.47 64.38 102.95 65.06 102.22 64.76 101.82 64.26 102.1 63.41 101.7 63.46 99.98 62.17 100.48" style="fill:#fbccbd"/><path d="M105.21,175.09l-3.34.68a1.53,1.53,0,0,0-1.28,1.07l-.29.95a8.91,8.91,0,0,1-3.07-6.95c2.53,0,5.87-1.24,6.94-1.23a3.92,3.92,0,0,1,4.26,3.65c.48,3.66-.79,5.14-.79,5.14a6.72,6.72,0,0,0-.72-2.57A1.62,1.62,0,0,0,105.21,175.09Z" transform="translate(-27.96 -107.88)" style="fill:#273339"/><rect x="61.58" y="102.95" width="4.51" height="16.31" rx="2.26" style="fill:#3d6ab3"/><rect x="63.41" y="100.43" width="0.85" height="3.58" rx="0.43" style="fill:#3d6ab3"/><rect x="74.95" y="71.66" width="2.06" height="0.62" rx="0.31" style="fill:#fff"/><path d="M378.71,227.42s-7.4,2.88-25.48,1.38c-16.67-1.38-20.8-.18-35.21-.55-13.67-.36-35.62-8.29-35.62-8.29s38.62,2.17,50.22-.53S378.64,217.29,378.71,227.42Z" transform="translate(-27.96 -107.88)" style="fill:#b0bec5"/><path d="M380.55,170s6.61-10.12,16.14-15.77c0,0-12.37-21-37.82-27.62,0,0-24.7,16.35-39.5-2.52,0,0-23.8-3.82-38.32,17.55,0,0,5.74,4,12.35,17.4a64.18,64.18,0,0,0,8-10.22s-.28-.54-.23-.46c1.17,4.62,5,22.93-7.31,31.58,0,0-4-1.65-4.51,4.7,0,0-1,3.72,1.37,5.52,0,0,.1,17.86-8.35,29.8,0,0,34.79,8.74,54.91,3.93,0,0,28.53-7.61,41.4,3.53,0,0,10.35-11.54,3-37.33h0c-.32-1.42-.71-2.87-1.19-4.33-4.35-11.48-12.9-28.39-14.14-36.94C366.41,148.82,372.52,165.94,380.55,170Z" transform="translate(-27.96 -107.88)" style="fill:#e9e8e9"/><path d="M341.63,164.57s4.39,7.06,11.48,7.88c0,0,8-2.44,11-8.69a49.33,49.33,0,0,0-1.16-15.13Z" transform="translate(-27.96 -107.88)" style="fill:#c5cfd4"/><path d="M362.93,148.63a146.39,146.39,0,0,1-22.44.48s-.1,11.16,1.14,15.46c0,0,5.18,5.2,11.48,6.55a20.51,20.51,0,0,0,10.2-7.71S364.07,152.45,362.93,148.63Z" transform="translate(-27.96 -107.88)" style="fill:#eeedee"/><path d="M374.44,158.51c-3.77-4-6.65-14.71-8-14.71s-1.35,3.3-1.35,3.3a36.05,36.05,0,0,0,6.82,18.13c-2.66-6.38-4.91-12.34-5.5-16.41,0,0,6.11,17.12,14.14,21.18a58,58,0,0,1,5-6.36C381.1,165.29,377.8,162.11,374.44,158.51Z" transform="translate(-27.96 -107.88)" style="fill:#c5cfd4"/><path d="M301.35,149l-.14-.57s0,0,0,0v0l.22.44-.08.13c1,4.15,3,15.25-1.41,24,7.55-10,2.66-28.46,2.32-29.55s-.83,0-.83,0c-1.21,6.92-8.54,9.82-10.77,10.54.89,1.54,1.8,3.25,2.74,5.15A64.74,64.74,0,0,0,301.35,149Z" transform="translate(-27.96 -107.88)" style="fill:#c5cfd4"/><path d="M378.71,212.18c-.47,5.34-5.07,9-11.08,10.15a24.63,24.63,0,0,1,11.08,5.09s10.35-11.54,3-37.33h0c-.32-1.42-.71-2.87-1.19-4.33-.66-1.74-1.41-3.61-2.23-5.55l-2.54.6C381.52,186.21,379.35,205,378.71,212.18Z" transform="translate(-27.96 -107.88)" style="fill:#c5cfd4"/><path d="M290.91,213.46c2.2-4.62,2.64-18.69,6.16-20.72s2.45-3.49,1.52-3.49-7.07.23-7.18-3.26a4.92,4.92,0,0,1,3.07-4.67,1.39,1.39,0,0,1-.42-1.51l-.17.13s-4-1.65-4.51,4.7c0,0-1,3.72,1.37,5.52,0,0,.1,17.86-8.35,29.8,0,0,3.13.78,8.05,1.75C288.35,219.33,289.58,216.25,290.91,213.46Z" transform="translate(-27.96 -107.88)" style="fill:#c5cfd4"/><path d="M381,203.61c-15.14,0-27,6-27,13.66h-.08V228.7c-10.43-2.33-17.6-6.63-17.6-11.43a.81.81,0,0,0-1.62,0v24.34c0,8.34,16.1,14.88,36.65,14.88,20.05,0,35.85-6.22,36.62-14.27h0V217.27C408,209.61,396.1,203.61,381,203.61Z" transform="translate(-27.96 -107.88)" style="fill:#f3b51b"/><path d="M338.53,238.57c0,.6-.21,1-.47.81h0a1.81,1.81,0,0,1-.47-1.37V223.45c0-.6.21-1,.47-.8h0a1.78,1.78,0,0,1,.47,1.36Z" transform="translate(-27.96 -107.88)" style="fill:#333"/><path d="M340.92,232.93c0,.6-.21,1-.48.83h0a1.74,1.74,0,0,1-.48-1.35v-7.6c0-.6.22-1,.48-.83h0a1.68,1.68,0,0,1,.48,1.34Z" transform="translate(-27.96 -107.88)" style="fill:#676767"/><path d="M343.36,234.14c0,.59-.22,1-.49.85h0a1.64,1.64,0,0,1-.49-1.33v-7.6c0-.6.22-1,.49-.85h0a1.62,1.62,0,0,1,.49,1.32Z" transform="translate(-27.96 -107.88)" style="fill:#676767"/><path d="M345.83,235.23c0,.6-.23,1-.5.88h0c-.27-.12-.49-.7-.49-1.3V227.2c0-.6.22-1,.49-.87h0a1.55,1.55,0,0,1,.5,1.3Z" transform="translate(-27.96 -107.88)" style="fill:#676767"/><path d="M348.33,243.18c0,.6-.22,1-.5.9h0c-.28-.11-.5-.68-.5-1.28,0-5.83,0-8.74,0-14.56,0-.6.22-1,.5-.9h0c.28.11.5.68.5,1.28Z" transform="translate(-27.96 -107.88)" style="fill:#333"/><path d="M350.86,237.11c0,.6-.23,1-.51.92h0c-.28-.09-.5-.66-.5-1.26v-7.6c0-.6.22-1,.5-.92h0c.28.1.51.66.51,1.26Z" transform="translate(-27.96 -107.88)" style="fill:#676767"/><path d="M353.42,237.89c0,.6-.23,1-.51.94h0c-.29-.08-.51-.63-.51-1.23V230c0-.6.22-1,.51-.94h0c.28.09.51.64.51,1.24Z" transform="translate(-27.96 -107.88)" style="fill:#676767"/><path d="M356,238.57c0,.6-.24,1-.52,1h0c-.29-.07-.52-.62-.52-1.22V230.7c0-.6.23-1,.52-.95h0c.28.07.52.61.52,1.21Z" transform="translate(-27.96 -107.88)" style="fill:#676767"/><path d="M358.61,246.09c0,.6-.24,1-.53,1h0c-.28-.06-.52-.6-.52-1.2V231.31c0-.59.24-1,.52-1h0c.29.06.53.6.53,1.2C358.6,237.35,358.6,240.26,358.61,246.09Z" transform="translate(-27.96 -107.88)" style="fill:#333"/><path d="M361.22,239.59c0,.6-.23,1-.52,1h0c-.29,0-.52-.57-.52-1.17,0-3,0-4.56,0-7.6,0-.6.23-1,.52-1h0c.29,0,.52.57.52,1.17Z" transform="translate(-27.96 -107.88)" style="fill:#676767"/><path d="M363.85,240c0,.6-.23,1.05-.52,1h0c-.29,0-.53-.55-.53-1.15v-7.61c0-.6.24-1.06.53-1h0c.29,0,.52.55.52,1.15Z" transform="translate(-27.96 -107.88)" style="fill:#676767"/><path d="M366.49,240.19c0,.6-.23,1.07-.53,1h0c-.29,0-.52-.53-.52-1.13v-7.6c0-.6.23-1.07.52-1h0c.3,0,.53.52.53,1.12Z" transform="translate(-27.96 -107.88)" style="fill:#676767"/><path d="M369.14,247.28c0,.6-.24,1.08-.53,1.07h0c-.29,0-.53-.51-.53-1.11V232.68c0-.6.24-1.08.53-1.06h0c.29,0,.53.5.53,1.1Z" transform="translate(-27.96 -107.88)" style="fill:#333"/><path d="M371.79,240.36c0,.6-.24,1.09-.53,1.09h0c-.3,0-.53-.49-.53-1.09v-7.61c0-.59.23-1.08.53-1.08h0c.29,0,.53.49.53,1.08Z" transform="translate(-27.96 -107.88)" style="fill:#676767"/><path d="M374.44,240.28c0,.6-.24,1.11-.53,1.12h0c-.29,0-.53-.47-.53-1.07,0-3,0-4.56,0-7.61,0-.6.24-1.09.53-1.1h0c.29,0,.53.46.53,1.06Z" transform="translate(-27.96 -107.88)" style="fill:#676767"/><path d="M377.08,240.1c0,.6-.24,1.11-.53,1.14h0c-.29,0-.53-.45-.53-1.05v-7.61c0-.6.24-1.1.53-1.12h0c.29,0,.53.44.53,1Z" transform="translate(-27.96 -107.88)" style="fill:#676767"/><path d="M379.72,246.77c0,.6-.24,1.12-.53,1.15h0c-.29,0-.53-.42-.53-1V232.34c0-.6.24-1.12.53-1.15h0c.29,0,.53.42.53,1Z" transform="translate(-27.96 -107.88)" style="fill:#333"/><path d="M382.34,239.42c0,.6-.23,1.13-.52,1.18h0c-.29,0-.53-.41-.53-1V232c0-.59.24-1.12.53-1.17h0c.29,0,.52.4.52,1Z" transform="translate(-27.96 -107.88)" style="fill:#676767"/><path d="M385,238.92c0,.6-.23,1.14-.52,1.19h0c-.29.06-.52-.38-.52-1v-7.6c0-.6.23-1.14.52-1.19h0c.29-.06.52.37.52,1Z" transform="translate(-27.96 -107.88)" style="fill:#676767"/><path d="M387.55,238.31c0,.6-.24,1.15-.52,1.22h0c-.29.07-.52-.36-.52-1V231c0-.6.23-1.14.52-1.21h0c.28-.07.52.35.52.95Z" transform="translate(-27.96 -107.88)" style="fill:#676767"/><path d="M390.12,244.55c0,.6-.23,1.16-.51,1.24h0c-.29.08-.52-.34-.52-.94V230.29c0-.6.23-1.15.52-1.24h0c.28-.08.51.34.51.94Z" transform="translate(-27.96 -107.88)" style="fill:#333"/><path d="M392.67,236.77c0,.6-.23,1.17-.51,1.26h0c-.28.1-.51-.32-.51-.92v-7.6c0-.6.23-1.16.51-1.26h0c.28-.09.51.32.51.92Z" transform="translate(-27.96 -107.88)" style="fill:#676767"/><path d="M395.19,235.84c0,.6-.23,1.18-.5,1.28h0c-.28.11-.51-.29-.51-.89v-7.61c0-.6.23-1.17.51-1.27h0c.27-.11.5.29.5.89Z" transform="translate(-27.96 -107.88)" style="fill:#676767"/><path d="M397.68,234.81c0,.6-.22,1.18-.5,1.3h0c-.27.12-.49-.28-.49-.88v-7.6c0-.6.22-1.18.49-1.3h0c.28-.12.5.27.5.87Z" transform="translate(-27.96 -107.88)" style="fill:#676767"/><path d="M400.13,240.62c0,.6-.21,1.19-.48,1.32h0c-.27.13-.49-.25-.49-.85V226.53a1.62,1.62,0,0,1,.49-1.32h0c.27-.13.48.25.48.85Z" transform="translate(-27.96 -107.88)" style="fill:#333"/><path d="M402.55,232.41a1.7,1.7,0,0,1-.48,1.35h0c-.26.14-.48-.23-.48-.83v-7.61a1.71,1.71,0,0,1,.48-1.34h0c.27-.14.48.23.48.83Z" transform="translate(-27.96 -107.88)" style="fill:#676767"/><path d="M404.93,231.06a1.78,1.78,0,0,1-.47,1.36h0c-.27.16-.48-.21-.48-.81V224a1.74,1.74,0,0,1,.48-1.36h0c.26-.16.47.2.47.8Z" transform="translate(-27.96 -107.88)" style="fill:#676767"/><path d="M407.26,229.6a1.89,1.89,0,0,1-.46,1.38h0c-.26.17-.47-.19-.47-.79v-7.6a1.89,1.89,0,0,1,.47-1.39h0c.25-.16.46.19.46.79Z" transform="translate(-27.96 -107.88)" style="fill:#676767"/><path d="M381,203.61c-15.14,0-27,6-27,13.66,0,5.2,9.72,9.27,22.13,9.27,12.12,0,21.67-3.88,22.12-8.9a.76.76,0,0,0,.1-.37c0-5.16-7.63-9.19-17.37-9.19-11.68,0-17.36,2.21-17.36,6.76,0,3.11,8,4.53,15.51,4.53a.81.81,0,0,0,0-1.62c-9,0-13.89-1.93-13.89-2.91,0-3.41,5.3-5.14,15.74-5.14,8.36,0,15.43,3.32,15.72,7.32a1,1,0,0,0-.05.25c0,3.69-8.24,7.64-20.52,7.64s-20.51-3.95-20.51-7.64c0-6.63,11.38-12,25.38-12s25.38,5.4,25.38,12c0,7.18-16,13.25-35,13.25s-35-6.07-35-13.25a.81.81,0,0,0-1.62,0c0,8.34,16.1,14.87,36.65,14.87S408,225.61,408,217.27C408,209.61,396.1,203.61,381,203.61Z" transform="translate(-27.96 -107.88)" style="fill:#fff"/><path d="M377.68,226.51l-1.05,0v3.83l1.05-.07Z" transform="translate(-27.96 -107.88)" style="fill:#676767"/><path d="M369.85,226.17l-1-.13v4.44l1,0Z" transform="translate(-27.96 -107.88)" style="fill:#333"/><path d="M375.06,226.53l-1,0v4l1,0Z" transform="translate(-27.96 -107.88)" style="fill:#676767"/><path d="M380.29,226.38l-1.05.07v3.71l1.05-.1Z" transform="translate(-27.96 -107.88)" style="fill:#333"/><path d="M372.45,226.41c-.35,0-.7,0-1-.08v4.19h1Z" transform="translate(-27.96 -107.88)" style="fill:#676767"/><path d="M388,225.12l-1,.25v3.7l1-.21Z" transform="translate(-27.96 -107.88)" style="fill:#676767"/><path d="M390.48,224.36q-.48.18-1,.33v3.84l1-.24Z" transform="translate(-27.96 -107.88)" style="fill:#333"/><path d="M382.88,226.11l-1,.12v3.65l1-.13Z" transform="translate(-27.96 -107.88)" style="fill:#676767"/><path d="M385.45,225.7l-1,.18v3.64l1-.17Z" transform="translate(-27.96 -107.88)" style="fill:#676767"/><path d="M361.22,224.19v5.75l1,.1v-5.5Z" transform="translate(-27.96 -107.88)" style="fill:#676767"/><path d="M367.27,225.8l-1-.2v4.78l1,.05Z" transform="translate(-27.96 -107.88)" style="fill:#676767"/><path d="M392.92,223.35c-.31.15-.63.3-1,.44v4.1l1-.28Z" transform="translate(-27.96 -107.88)" style="fill:#676767"/><path d="M364.72,225.26c-.34-.09-.68-.17-1-.27v5.2l1,.08Z" transform="translate(-27.96 -107.88)" style="fill:#676767"/><path d="M357.33,222.25a9.56,9.56,0,0,1-.94-.7v7.31a2.19,2.19,0,0,0,0,.36l.91.16h0Z" transform="translate(-27.96 -107.88)" style="fill:#676767"/><path d="M359.74,223.58l-1-.48v6.51l1,.14Z" transform="translate(-27.96 -107.88)" style="fill:#333"/><path d="M355,228v-7.61a1.84,1.84,0,0,0,0-.33,6.09,6.09,0,0,1-.62-1.06c-.16.06-.27.37-.27.81v7.61a1.89,1.89,0,0,0,.46,1.38l.07,0h0C354.84,228.88,355,228.55,355,228Z" transform="translate(-27.96 -107.88)" style="fill:#676767"/><path d="M395.31,221.94c-.29.21-.61.42-.95.62v4.59l.95-.33Z" transform="translate(-27.96 -107.88)" style="fill:#676767"/><path d="M397.63,219.84a1.69,1.69,0,0,0,0-.33,6.89,6.89,0,0,1-.89,1.2v5.58l.92-.39Z" transform="translate(-27.96 -107.88)" style="fill:#676767"/><path d="M365.33,217.42c0-.12,0-.24,0-.35a5.27,5.27,0,0,1-.85-.59,1.71,1.71,0,0,0-.1.6v6.43l1,.24Z" transform="translate(-27.96 -107.88)" style="fill:#333"/><path d="M367.77,218.06c-.33-.1-.66-.2-1-.31v6.32l1,.18v-6.08A.41.41,0,0,0,367.77,218.06Z" transform="translate(-27.96 -107.88)" style="fill:#676767"/><path d="M370.27,218.77s0-.08,0-.13l-1-.19s0,.06,0,.1v5.92l1,.13Z" transform="translate(-27.96 -107.88)" style="fill:#676767"/><path d="M372.78,224.81v-5.57a1.5,1.5,0,0,0,0-.22l-1-.13c0,.06,0,.12,0,.18v5.67Z" transform="translate(-27.96 -107.88)" style="fill:#676767"/><path d="M374.29,219.45v5.43l1,0v-5.35c0-.11,0-.21,0-.32l-1-.07A2.4,2.4,0,0,0,374.29,219.45Z" transform="translate(-27.96 -107.88)" style="fill:#333"/><path d="M391.65,206.36V210c4.07,1.67,6.66,4.28,6.66,7.28a.69.69,0,0,1-.08.32v8c5-2.3,8.11-5.23,8.11-8.37C406.34,212.45,400.32,208.28,391.65,206.36Z" transform="translate(-27.96 -107.88)" style="fill:#ffd767"/><path d="M384.42,209.9v14.34c7.52-1.29,12.19-4.2,12.19-7a1,1,0,0,1,.05-.25C396.41,213.6,391.18,210.67,384.42,209.9Z" transform="translate(-27.96 -107.88)" style="fill:#ffd767"/><path d="M292.51,302.75v12a6.61,6.61,0,0,1-1.85,5,7.07,7.07,0,0,1-5.15,1.8,6.26,6.26,0,0,1-6.82-6.84V302.75H280v12a5.16,5.16,0,0,0,5.67,5.65,5.58,5.58,0,0,0,4.11-1.46,5.51,5.51,0,0,0,1.45-4.06v-12.1Z" transform="translate(-27.96 -107.88)" style="fill:#fff"/><path d="M306.83,321.26v-8.93a4.38,4.38,0,0,0-.87-3,3.54,3.54,0,0,0-2.71-.94,4.71,4.71,0,0,0-3.62,1.24,5.92,5.92,0,0,0-1.14,4.05v7.6h-1.26V307.49h1.07l.24,1.89h.07q1.35-2.14,4.78-2.15,4.68,0,4.68,5v9Z" transform="translate(-27.96 -107.88)" style="fill:#fff"/><path d="M316.16,320.39a9.17,9.17,0,0,0,2.08-.2v1a6.44,6.44,0,0,1-2.1.31,3.44,3.44,0,0,1-2.7-1,4.56,4.56,0,0,1-.86-3.06v-8.89h-2v-.73l2-.57.63-3.12h.65v3.33h4v1.09h-4v8.71a4,4,0,0,0,.55,2.35A2,2,0,0,0,316.16,320.39Z" transform="translate(-27.96 -107.88)" style="fill:#fff"/><path d="M329.57,321.26l-.32-2.18h-.1A6.62,6.62,0,0,1,327,321a5.82,5.82,0,0,1-2.59.55,4.53,4.53,0,0,1-3.16-1,3.71,3.71,0,0,1-1.12-2.87,3.54,3.54,0,0,1,1.68-3.13,9.08,9.08,0,0,1,4.85-1.18l2.62-.07v-.91a4.65,4.65,0,0,0-.8-3,3.1,3.1,0,0,0-2.57-1,8.61,8.61,0,0,0-4,1.07l-.47-1.09a10.5,10.5,0,0,1,4.48-1.07,4.49,4.49,0,0,1,3.39,1.18,5.17,5.17,0,0,1,1.12,3.67v9.16Zm-5.07-.89a4.38,4.38,0,0,0,4.75-4.76v-1.36l-2.4.11a9.07,9.07,0,0,0-4.14.9,2.62,2.62,0,0,0-1.23,2.39,2.53,2.53,0,0,0,.79,2A3.2,3.2,0,0,0,324.5,320.37Z" transform="translate(-27.96 -107.88)" style="fill:#fff"/><path d="M334.77,303.67c0-.81.27-1.21.8-1.21a.7.7,0,0,1,.61.31,1.54,1.54,0,0,1,.22.9,1.58,1.58,0,0,1-.22.9.7.7,0,0,1-.61.33C335,304.9,334.77,304.49,334.77,303.67Zm1.43,17.59H335V307.49h1.25Z" transform="translate(-27.96 -107.88)" style="fill:#fff"/><path d="M342.06,321.26h-1.25v-19.7h1.25Z" transform="translate(-27.96 -107.88)" style="fill:#fff"/><path d="M358.05,314.36a7.81,7.81,0,0,1-1.63,5.26,5.64,5.64,0,0,1-4.51,1.89,5.85,5.85,0,0,1-3.19-.87,5.63,5.63,0,0,1-2.11-2.51,9.12,9.12,0,0,1-.74-3.77,7.73,7.73,0,0,1,1.64-5.25,5.59,5.59,0,0,1,4.48-1.88,5.52,5.52,0,0,1,4.45,1.9A7.86,7.86,0,0,1,358.05,314.36Zm-10.86,0a6.94,6.94,0,0,0,1.25,4.42,4.7,4.7,0,0,0,7.05,0,8.47,8.47,0,0,0,0-8.84,4.76,4.76,0,0,0-7.06,0A7,7,0,0,0,347.19,314.36Z" transform="translate(-27.96 -107.88)" style="fill:#fff"/><path d="M367.28,307.23a10.53,10.53,0,0,1,1.87.18l-.24,1.2a7.48,7.48,0,0,0-1.78-.22,3.47,3.47,0,0,0-2.89,1.5,6.08,6.08,0,0,0-1.13,3.77v7.6h-1.25V307.49h1.07l.12,2.49h.09a5.87,5.87,0,0,1,1.81-2.14A4.24,4.24,0,0,1,367.28,307.23Z" transform="translate(-27.96 -107.88)" style="fill:#fff"/><path d="M377.51,321.51a6,6,0,0,1-4.68-1.85,7.42,7.42,0,0,1-1.68-5.18,8.07,8.07,0,0,1,1.62-5.27,5.36,5.36,0,0,1,4.37-2,4.71,4.71,0,0,1,3.84,1.7,7,7,0,0,1,1.4,4.6v1h-9.91a6.56,6.56,0,0,0,1.32,4.33,4.69,4.69,0,0,0,3.72,1.49,11.54,11.54,0,0,0,2.07-.17,12,12,0,0,0,2.26-.7v1.14a10.52,10.52,0,0,1-2.15.68A11.34,11.34,0,0,1,377.51,321.51Zm-.37-13.17a4.14,4.14,0,0,0-3.19,1.31,6.19,6.19,0,0,0-1.4,3.78h8.5a6,6,0,0,0-1-3.74A3.44,3.44,0,0,0,377.14,308.34Z" transform="translate(-27.96 -107.88)" style="fill:#fff"/><path d="M391.22,307.23a5.71,5.71,0,0,1,2.58.54,5.19,5.19,0,0,1,1.95,1.86h.08c-.05-1.06-.08-2.1-.08-3.12v-4.95H397v19.7h-.82l-.32-2.11h-.1a5.09,5.09,0,0,1-4.51,2.36,5.4,5.4,0,0,1-4.35-1.77,7.82,7.82,0,0,1-1.51-5.17,8.62,8.62,0,0,1,1.5-5.46A5.21,5.21,0,0,1,391.22,307.23Zm0,1.14a3.89,3.89,0,0,0-3.39,1.58,7.91,7.91,0,0,0-1.13,4.6q0,5.83,4.54,5.84a4.12,4.12,0,0,0,3.42-1.35c.73-.9,1.09-2.39,1.09-4.47v-.21c0-2.13-.35-3.66-1.07-4.59A4.06,4.06,0,0,0,391.22,308.37Z" transform="translate(-27.96 -107.88)" style="fill:#fff"/><path d="M263.74,352.37V333.86H265v18.51Z" transform="translate(-27.96 -107.88)" style="fill:#fff"/><path d="M279.55,352.37v-8.93a4.38,4.38,0,0,0-.87-3,3.54,3.54,0,0,0-2.71-.94,4.71,4.71,0,0,0-3.62,1.25,5.89,5.89,0,0,0-1.14,4v7.6H270V338.61H271l.24,1.88h.07q1.35-2.14,4.78-2.15,4.68,0,4.68,5v9Z" transform="translate(-27.96 -107.88)" style="fill:#fff"/><path d="M288.88,351.51a9.19,9.19,0,0,0,2.08-.21v1a6.76,6.76,0,0,1-2.11.3,3.43,3.43,0,0,1-2.69-1,4.59,4.59,0,0,1-.86-3.07V339.7h-2V339l2-.57.63-3.11h.65v3.33h4v1.09h-4v8.7a4,4,0,0,0,.55,2.35A2,2,0,0,0,288.88,351.51Z" transform="translate(-27.96 -107.88)" style="fill:#fff"/><path d="M299.49,352.62a6,6,0,0,1-4.68-1.85,7.41,7.41,0,0,1-1.68-5.17,8.08,8.08,0,0,1,1.62-5.28,5.36,5.36,0,0,1,4.37-2A4.73,4.73,0,0,1,303,340a7,7,0,0,1,1.4,4.6v1h-9.91a6.56,6.56,0,0,0,1.32,4.33,4.69,4.69,0,0,0,3.72,1.49,11.61,11.61,0,0,0,2.07-.16,13,13,0,0,0,2.26-.71v1.14a10.6,10.6,0,0,1-2.15.69A12.25,12.25,0,0,1,299.49,352.62Zm-.37-13.17a4.11,4.11,0,0,0-3.19,1.32,6.14,6.14,0,0,0-1.4,3.77H303a6,6,0,0,0-1-3.74A3.42,3.42,0,0,0,299.12,339.45Z" transform="translate(-27.96 -107.88)" style="fill:#fff"/><path d="M313.58,338.34a10.53,10.53,0,0,1,1.87.18l-.24,1.2a7.48,7.48,0,0,0-1.78-.21,3.45,3.45,0,0,0-2.89,1.49,6.1,6.1,0,0,0-1.13,3.77v7.6h-1.25V338.61h1.06l.13,2.48h.09a5.77,5.77,0,0,1,1.81-2.14A4.32,4.32,0,0,1,313.58,338.34Z" transform="translate(-27.96 -107.88)" style="fill:#fff"/><path d="M321.26,352.37,316,338.61h1.29l3.55,9.35a28.66,28.66,0,0,1,1.07,3.14h.07c.35-1.15.7-2.2,1.07-3.16l3.55-9.33h1.3l-5.32,13.76Z" transform="translate(-27.96 -107.88)" style="fill:#fff"/><path d="M335.71,352.62a6,6,0,0,1-4.68-1.85,7.41,7.41,0,0,1-1.68-5.17,8.08,8.08,0,0,1,1.62-5.28,5.36,5.36,0,0,1,4.37-2,4.73,4.73,0,0,1,3.84,1.7,7,7,0,0,1,1.4,4.6v1h-9.91A6.56,6.56,0,0,0,332,350a4.69,4.69,0,0,0,3.72,1.49,11.61,11.61,0,0,0,2.07-.16,13,13,0,0,0,2.26-.71v1.14a10.48,10.48,0,0,1-2.16.69A12.05,12.05,0,0,1,335.71,352.62Zm-.37-13.17a4.11,4.11,0,0,0-3.19,1.32,6.2,6.2,0,0,0-1.41,3.77h8.51a6,6,0,0,0-1-3.74A3.42,3.42,0,0,0,335.34,339.45Z" transform="translate(-27.96 -107.88)" style="fill:#fff"/><path d="M354,352.37v-8.93a4.37,4.37,0,0,0-.88-3,3.51,3.51,0,0,0-2.71-.94,4.69,4.69,0,0,0-3.61,1.25,5.84,5.84,0,0,0-1.15,4v7.6h-1.25V338.61h1.06l.24,1.88h.08q1.33-2.14,4.77-2.15c3.12,0,4.69,1.68,4.69,5v9Z" transform="translate(-27.96 -107.88)" style="fill:#fff"/><path d="M363.31,351.51a9,9,0,0,0,2.07-.21v1a6.74,6.74,0,0,1-2.1.3,3.42,3.42,0,0,1-2.69-1,4.54,4.54,0,0,1-.87-3.07V339.7h-2V339l2-.57.64-3.11H361v3.33h4v1.09h-4v8.7a4,4,0,0,0,.56,2.35A2,2,0,0,0,363.31,351.51Z" transform="translate(-27.96 -107.88)" style="fill:#fff"/><path d="M368.18,334.78c0-.81.26-1.21.8-1.21a.7.7,0,0,1,.61.31,1.56,1.56,0,0,1,.22.9,1.58,1.58,0,0,1-.22.9.7.7,0,0,1-.61.33C368.44,336,368.18,335.6,368.18,334.78Zm1.43,17.59h-1.25V338.61h1.25Z" transform="translate(-27.96 -107.88)" style="fill:#fff"/><path d="M385.6,345.47a7.85,7.85,0,0,1-1.63,5.26,5.66,5.66,0,0,1-4.51,1.89,5.85,5.85,0,0,1-3.19-.87,5.65,5.65,0,0,1-2.12-2.51,9.12,9.12,0,0,1-.73-3.77,7.73,7.73,0,0,1,1.63-5.25,5.65,5.65,0,0,1,4.48-1.88,5.5,5.5,0,0,1,4.45,1.91A7.8,7.8,0,0,1,385.6,345.47Zm-10.86,0a7,7,0,0,0,1.24,4.42,4.71,4.71,0,0,0,7.06,0,7,7,0,0,0,1.24-4.42,6.9,6.9,0,0,0-1.26-4.42,4.27,4.27,0,0,0-3.54-1.57A4.21,4.21,0,0,0,376,341,7,7,0,0,0,374.74,345.47Z" transform="translate(-27.96 -107.88)" style="fill:#fff"/><path d="M399,352.37v-8.93a4.37,4.37,0,0,0-.88-3,3.51,3.51,0,0,0-2.71-.94,4.69,4.69,0,0,0-3.61,1.25,5.84,5.84,0,0,0-1.15,4v7.6h-1.25V338.61h1.06l.24,1.88h.08q1.33-2.14,4.77-2.15c3.12,0,4.69,1.68,4.69,5v9Z" transform="translate(-27.96 -107.88)" style="fill:#fff"/><path d="M413.23,348.78a3.27,3.27,0,0,1-1.4,2.85,6.88,6.88,0,0,1-4,1,9.45,9.45,0,0,1-4.38-.85v-1.35a9.73,9.73,0,0,0,4.38,1,5.82,5.82,0,0,0,3.1-.68A2.06,2.06,0,0,0,412,349a2.19,2.19,0,0,0-.84-1.74,9.16,9.16,0,0,0-2.76-1.39,15.48,15.48,0,0,1-2.9-1.29,4,4,0,0,1-1.26-1.21,3,3,0,0,1-.43-1.66,2.83,2.83,0,0,1,1.3-2.44,6.3,6.3,0,0,1,3.63-.9,10.86,10.86,0,0,1,4.23.84l-.47,1.14a9.9,9.9,0,0,0-3.76-.84,5.44,5.44,0,0,0-2.67.56,1.7,1.7,0,0,0-1,1.54,2.13,2.13,0,0,0,.76,1.72,10.74,10.74,0,0,0,3,1.45,14.32,14.32,0,0,1,2.71,1.21,3.82,3.82,0,0,1,1.27,1.22A3,3,0,0,1,413.23,348.78Z" transform="translate(-27.96 -107.88)" style="fill:#fff"/><rect x="706.43" y="108.51" width="35.86" height="33.73" style="fill:#fff"/><rect x="655.05" y="77.63" width="35.85" height="64.61" style="fill:#fff"/><polygon points="624.22 142.24 603.67 116.25 603.67 109.45 629.6 142.24 624.22 142.24" style="fill:#548bc9"/><polygon points="630.99 142.24 603.67 107.69 603.67 100.88 636.38 142.24 630.99 142.24" style="fill:#548bc9"/><polygon points="634.21 43.52 639.53 43.52 639.53 50.24 634.21 43.52" style="fill:#548bc9"/><polygon points="639.53 110.21 603.67 64.86 603.67 58.05 639.53 103.4 639.53 110.21" style="fill:#548bc9"/><polygon points="639.53 118.77 603.67 73.43 603.67 66.62 639.53 111.97 639.53 118.77" style="fill:#548bc9"/><polygon points="639.53 142.24 637.77 142.24 603.67 99.12 603.67 92.32 639.53 137.66 639.53 142.24" style="fill:#548bc9"/><polygon points="639.53 101.64 603.67 56.29 603.67 49.49 639.53 94.83 639.53 101.64" style="fill:#548bc9"/><polygon points="639.53 135.91 603.67 90.56 603.67 83.75 639.53 129.1 639.53 135.91" style="fill:#548bc9"/><polygon points="639.53 58.81 627.44 43.52 632.82 43.52 639.53 52.01 639.53 58.81" style="fill:#548bc9"/><polygon points="639.53 127.34 603.67 81.99 603.67 75.18 639.53 120.53 639.53 127.34" style="fill:#548bc9"/><polygon points="639.53 75.94 613.89 43.52 619.27 43.52 639.53 69.14 639.53 75.94" style="fill:#548bc9"/><polygon points="603.67 133.39 603.67 126.58 616.05 142.24 610.67 142.24 603.67 133.39" style="fill:#548bc9"/><polygon points="603.67 141.95 603.67 135.15 609.28 142.24 603.9 142.24 603.67 141.95" style="fill:#548bc9"/><polygon points="639.53 84.51 607.11 43.52 612.5 43.52 639.53 77.7 639.53 84.51" style="fill:#548bc9"/><polygon points="617.44 142.24 603.67 124.82 603.67 118.02 622.83 142.24 617.44 142.24" style="fill:#548bc9"/><polygon points="639.53 60.57 639.53 67.38 620.66 43.52 626.04 43.52 639.53 60.57" style="fill:#548bc9"/><polygon points="639.53 93.07 603.67 47.73 603.67 43.52 605.73 43.52 639.53 86.27 639.53 93.07" style="fill:#548bc9"/><polygon points="639.53 52.01 632.82 43.52 634.21 43.52 639.53 50.24 639.53 52.01" style="fill:#fff"/><polygon points="639.53 60.57 626.04 43.52 627.44 43.52 639.53 58.81 639.53 60.57" style="fill:#fff"/><polygon points="639.53 69.14 619.27 43.52 620.66 43.52 639.53 67.38 639.53 69.14" style="fill:#fff"/><polygon points="639.53 77.7 612.5 43.52 613.89 43.52 639.53 75.94 639.53 77.7" style="fill:#fff"/><polygon points="639.53 86.27 605.73 43.52 607.11 43.52 639.53 84.51 639.53 86.27" style="fill:#fff"/><polygon points="639.53 94.83 603.67 49.49 603.67 47.73 639.53 93.07 639.53 94.83" style="fill:#fff"/><polygon points="639.53 103.4 603.67 58.05 603.67 56.29 639.53 101.64 639.53 103.4" style="fill:#fff"/><polygon points="639.53 111.97 603.67 66.62 603.67 64.86 639.53 110.21 639.53 111.97" style="fill:#fff"/><polygon points="639.53 120.53 603.67 75.18 603.67 73.43 639.53 118.77 639.53 120.53" style="fill:#fff"/><polygon points="639.53 129.1 603.67 83.75 603.67 81.99 639.53 127.34 639.53 129.1" style="fill:#fff"/><polygon points="639.53 137.66 603.67 92.32 603.67 90.56 639.53 135.91 639.53 137.66" style="fill:#fff"/><polygon points="636.38 142.24 603.67 100.88 603.67 99.12 637.77 142.24 636.38 142.24" style="fill:#fff"/><polygon points="629.6 142.24 603.67 109.45 603.67 107.69 630.99 142.24 629.6 142.24" style="fill:#fff"/><polygon points="622.83 142.24 603.67 118.02 603.67 116.25 624.22 142.24 622.83 142.24" style="fill:#fff"/><polygon points="603.67 126.58 603.67 124.82 617.44 142.24 616.05 142.24 603.67 126.58" style="fill:#fff"/><polygon points="603.67 135.15 603.67 133.39 610.67 142.24 609.28 142.24 603.67 135.15" style="fill:#fff"/><polygon points="603.67 141.95 603.9 142.24 603.67 142.24 603.67 141.95" style="fill:#fff"/><path d="M619.88,109.58h0V266.35a4.4,4.4,0,0,0,4.39,4.38H777.63V262h-149V109.58Z" transform="translate(-27.96 -107.88)" style="fill:#fff"/><path d="M740,145.7a3.88,3.88,0,0,1,4.69,2.85l4.57,18.69a3.87,3.87,0,0,1-2.85,4.69l-17.32,4.23a3.88,3.88,0,0,1-1.85-7.53l7.64-1.87-52.69-38.28a3.88,3.88,0,0,1,4.56-6.28l52.91,38.44-2.5-10.25A3.88,3.88,0,0,1,740,145.7Z" transform="translate(-27.96 -107.88)" style="fill:#548bc9"/><polygon points="495.16 35.72 462.8 35.72 480.48 57.85 442.26 57.85 442.26 106.7 480.48 106.7 462.8 128.83 495.16 128.83 537.17 82.28 495.16 35.72" style="fill:#548bc9"/><path d="M622.72,308.06a4.94,4.94,0,0,1-1.82,4.12,8.24,8.24,0,0,1-5.17,1.43h-2.86v7.65h-1.29V302.75h4.53Q622.72,302.75,622.72,308.06Zm-9.85,4.44h2.55a7.7,7.7,0,0,0,4.52-1,3.87,3.87,0,0,0,1.39-3.34,3.79,3.79,0,0,0-1.32-3.18,6.62,6.62,0,0,0-4.07-1h-3.07Z" transform="translate(-27.96 -107.88)" style="fill:#fff"/><path d="M637.81,314.36a7.81,7.81,0,0,1-1.63,5.26,5.64,5.64,0,0,1-4.51,1.89,5.85,5.85,0,0,1-3.19-.87,5.63,5.63,0,0,1-2.11-2.51,9.12,9.12,0,0,1-.74-3.77,7.73,7.73,0,0,1,1.64-5.25,5.63,5.63,0,0,1,4.48-1.88,5.52,5.52,0,0,1,4.45,1.9A7.88,7.88,0,0,1,637.81,314.36Zm-10.86,0a7,7,0,0,0,1.25,4.42,4.7,4.7,0,0,0,7,0,7,7,0,0,0,1.25-4.42,6.88,6.88,0,0,0-1.26-4.42,4.76,4.76,0,0,0-7.06,0A7,7,0,0,0,627,314.36Z" transform="translate(-27.96 -107.88)" style="fill:#fff"/><path d="M653,314.36a7.81,7.81,0,0,1-1.63,5.26,5.64,5.64,0,0,1-4.51,1.89,5.87,5.87,0,0,1-3.19-.87,5.63,5.63,0,0,1-2.11-2.51,9.12,9.12,0,0,1-.73-3.77,7.73,7.73,0,0,1,1.63-5.25,5.63,5.63,0,0,1,4.48-1.88,5.52,5.52,0,0,1,4.45,1.9A7.83,7.83,0,0,1,653,314.36Zm-10.86,0a7,7,0,0,0,1.25,4.42,4.7,4.7,0,0,0,7.05,0,7,7,0,0,0,1.25-4.42,6.88,6.88,0,0,0-1.26-4.42,4.27,4.27,0,0,0-3.54-1.57,4.21,4.21,0,0,0-3.51,1.56A7,7,0,0,0,642.14,314.36Z" transform="translate(-27.96 -107.88)" style="fill:#fff"/><path d="M662.23,307.23a10.64,10.64,0,0,1,1.88.18l-.24,1.2a7.56,7.56,0,0,0-1.79-.22,3.48,3.48,0,0,0-2.89,1.5,6.07,6.07,0,0,0-1.12,3.77v7.6h-1.26V307.5h1.07L658,310h.09a5.87,5.87,0,0,1,1.81-2.14A4.24,4.24,0,0,1,662.23,307.23Z" transform="translate(-27.96 -107.88)" style="fill:#fff"/><path d="M674,321.26V302.75h1.29V320h8.82v1.22Z" transform="translate(-27.96 -107.88)" style="fill:#fff"/><path d="M698.33,314.36a7.81,7.81,0,0,1-1.64,5.26,5.64,5.64,0,0,1-4.5,1.89,5.85,5.85,0,0,1-3.19-.87,5.65,5.65,0,0,1-2.12-2.51,9.12,9.12,0,0,1-.73-3.77,7.73,7.73,0,0,1,1.63-5.25,5.63,5.63,0,0,1,4.48-1.88,5.51,5.51,0,0,1,4.45,1.9A7.83,7.83,0,0,1,698.33,314.36Zm-10.87,0a7,7,0,0,0,1.25,4.42,4.7,4.7,0,0,0,7,0,7,7,0,0,0,1.25-4.42,6.88,6.88,0,0,0-1.26-4.42,4.27,4.27,0,0,0-3.54-1.57,4.21,4.21,0,0,0-3.51,1.56A7,7,0,0,0,687.46,314.36Z" transform="translate(-27.96 -107.88)" style="fill:#fff"/><path d="M711.73,321.26v-8.93a4.38,4.38,0,0,0-.87-3,3.52,3.52,0,0,0-2.71-.94,4.64,4.64,0,0,0-3.61,1.25,5.84,5.84,0,0,0-1.15,4v7.6h-1.25V307.5h1.06l.24,1.88h.08q1.34-2.14,4.77-2.15c3.12,0,4.68,1.67,4.68,5v9Z" transform="translate(-27.96 -107.88)" style="fill:#fff"/><path d="M728.16,307.5v.87l-2.84.18a4.84,4.84,0,0,1,1.14,3.11,4.2,4.2,0,0,1-1.33,3.22,5,5,0,0,1-3.55,1.24,7.81,7.81,0,0,1-1.32-.08,3.32,3.32,0,0,0-1.13.92,1.84,1.84,0,0,0-.4,1.13,1,1,0,0,0,.5,1,3.35,3.35,0,0,0,1.68.31h2.41a5.63,5.63,0,0,1,3.43.9,3.18,3.18,0,0,1,1.19,2.68,3.81,3.81,0,0,1-1.77,3.36,9,9,0,0,1-5,1.18,6.9,6.9,0,0,1-4-1,3.2,3.2,0,0,1-1.43-2.78,3.31,3.31,0,0,1,.88-2.35,4.51,4.51,0,0,1,2.39-1.28,2.44,2.44,0,0,1-1-.76,1.78,1.78,0,0,1-.38-1.12,3,3,0,0,1,1.76-2.43,3.91,3.91,0,0,1-1.87-1.55,4.78,4.78,0,0,1,.64-5.73,4.88,4.88,0,0,1,3.54-1.25,6.44,6.44,0,0,1,2.1.27ZM717,323.59q0,2.84,4.22,2.83,5.41,0,5.42-3.45a2,2,0,0,0-.85-1.8,5.19,5.19,0,0,0-2.75-.56h-2.25C718.29,320.61,717,321.6,717,323.59Zm1.05-11.8a3.18,3.18,0,0,0,1,2.47,4.34,4.34,0,0,0,5.23,0,3.34,3.34,0,0,0,.92-2.53,3.42,3.42,0,0,0-.94-2.64,3.71,3.71,0,0,0-2.64-.88,3.49,3.49,0,0,0-2.59.94A3.55,3.55,0,0,0,718.07,311.79Z" transform="translate(-27.96 -107.88)" style="fill:#fff"/><path d="M729.85,314.77v-1h6v1Z" transform="translate(-27.96 -107.88)" style="fill:#fff"/><path d="M743,320.39a9.11,9.11,0,0,0,2.08-.2v1a6.74,6.74,0,0,1-2.1.3,3.42,3.42,0,0,1-2.69-1,4.49,4.49,0,0,1-.87-3.06v-8.89h-2v-.73l2-.57.63-3.11h.65v3.33h4v1.08h-4v8.71a3.93,3.93,0,0,0,.56,2.35A2,2,0,0,0,743,320.39Z" transform="translate(-27.96 -107.88)" style="fill:#fff"/><path d="M753.57,321.51a6,6,0,0,1-4.68-1.85,7.47,7.47,0,0,1-1.67-5.18,8.07,8.07,0,0,1,1.62-5.27,5.34,5.34,0,0,1,4.36-2,4.72,4.72,0,0,1,3.84,1.7,7,7,0,0,1,1.41,4.6v1h-9.92a6.51,6.51,0,0,0,1.33,4.33,4.66,4.66,0,0,0,3.71,1.49,12.44,12.44,0,0,0,2.07-.16,12.7,12.7,0,0,0,2.26-.71v1.14a10.83,10.83,0,0,1-2.15.69A12.17,12.17,0,0,1,753.57,321.51Zm-.37-13.17a4.15,4.15,0,0,0-3.19,1.31,6.19,6.19,0,0,0-1.4,3.78h8.51a6,6,0,0,0-1-3.74A3.42,3.42,0,0,0,753.2,308.34Z" transform="translate(-27.96 -107.88)" style="fill:#fff"/><path d="M767.66,307.23a10.73,10.73,0,0,1,1.88.18l-.25,1.2a7.42,7.42,0,0,0-1.78-.22,3.48,3.48,0,0,0-2.89,1.5,6.07,6.07,0,0,0-1.12,3.77v7.6h-1.26V307.5h1.07l.12,2.48h.09a5.87,5.87,0,0,1,1.81-2.14A4.24,4.24,0,0,1,767.66,307.23Z" transform="translate(-27.96 -107.88)" style="fill:#fff"/><path d="M789.53,321.26v-9a4.53,4.53,0,0,0-.79-2.94,3,3,0,0,0-2.41-.92,3.94,3.94,0,0,0-3.12,1.16,5.48,5.48,0,0,0-1,3.66v8.07h-1.28v-9.41c0-2.32-1.07-3.48-3.19-3.48a3.77,3.77,0,0,0-3.16,1.26,6.61,6.61,0,0,0-1,4v7.6h-1.26V307.5h1l.27,1.88h.07a4,4,0,0,1,1.62-1.59,4.91,4.91,0,0,1,2.32-.56q3.26,0,4.18,2.44h0a4.74,4.74,0,0,1,1.8-1.81,5.24,5.24,0,0,1,2.58-.63,4.42,4.42,0,0,1,3.38,1.2,5.48,5.48,0,0,1,1.13,3.83v9Z" transform="translate(-27.96 -107.88)" style="fill:#fff"/><path d="M658.87,343.09a10.33,10.33,0,0,1-2.2,7,8.48,8.48,0,0,1-12.14,0,10.38,10.38,0,0,1-2.2-7,10.19,10.19,0,0,1,2.22-6.95,7.65,7.65,0,0,1,6.07-2.54,7.56,7.56,0,0,1,6.06,2.55A10.34,10.34,0,0,1,658.87,343.09Zm-15.14,0a9.51,9.51,0,0,0,1.77,6.15,7.09,7.09,0,0,0,10.2,0,11.55,11.55,0,0,0,0-12.29,6.2,6.2,0,0,0-5.08-2.14,6.29,6.29,0,0,0-5.1,2.15A9.36,9.36,0,0,0,643.73,343.09Z" transform="translate(-27.96 -107.88)" style="fill:#fff"/><path d="M663.9,338.61v8.91a4.38,4.38,0,0,0,.87,3,3.52,3.52,0,0,0,2.71.94,4.7,4.7,0,0,0,3.61-1.24,5.77,5.77,0,0,0,1.16-4v-7.59h1.24v13.76h-1.06l-.23-1.9h-.07q-1.35,2.14-4.78,2.15-4.7,0-4.69-5v-9Z" transform="translate(-27.96 -107.88)" style="fill:#fff"/><path d="M681.74,351.51a9.68,9.68,0,0,0,2.07-.2v1a6.74,6.74,0,0,1-2.1.3,3.42,3.42,0,0,1-2.69-1,4.52,4.52,0,0,1-.87-3.07V339.7h-2V339l2-.57.64-3.11h.64v3.33h4v1.09h-4v8.71a4,4,0,0,0,.56,2.34A2,2,0,0,0,681.74,351.51Z" transform="translate(-27.96 -107.88)" style="fill:#fff"/><path d="M692.28,352.62a5.88,5.88,0,0,1-4.62-1.86,7.51,7.51,0,0,1-1.67-5.19,7.64,7.64,0,0,1,1.73-5.32,6.11,6.11,0,0,1,4.75-1.91,9.64,9.64,0,0,1,3.42.62l-.34,1.12a10,10,0,0,0-3.1-.6,4.72,4.72,0,0,0-3.84,1.56,6.89,6.89,0,0,0-1.3,4.51,6.65,6.65,0,0,0,1.3,4.36,4.47,4.47,0,0,0,3.65,1.57,8.92,8.92,0,0,0,3.48-.67V352A7.92,7.92,0,0,1,692.28,352.62Z" transform="translate(-27.96 -107.88)" style="fill:#fff"/><path d="M710.49,345.47a7.8,7.8,0,0,1-1.64,5.26,5.64,5.64,0,0,1-4.51,1.89,5.87,5.87,0,0,1-3.19-.87,5.57,5.57,0,0,1-2.11-2.51,9.09,9.09,0,0,1-.73-3.77,7.73,7.73,0,0,1,1.63-5.25,5.63,5.63,0,0,1,4.48-1.88,5.53,5.53,0,0,1,4.45,1.91A7.8,7.8,0,0,1,710.49,345.47Zm-10.87,0a7,7,0,0,0,1.25,4.42,4.7,4.7,0,0,0,7,0,7,7,0,0,0,1.25-4.42,6.9,6.9,0,0,0-1.26-4.42,4.27,4.27,0,0,0-3.54-1.57,4.21,4.21,0,0,0-3.51,1.56A7,7,0,0,0,699.62,345.47Z" transform="translate(-27.96 -107.88)" style="fill:#fff"/><path d="M731.49,352.37v-9a4.43,4.43,0,0,0-.79-2.93,3,3,0,0,0-2.4-.93,3.92,3.92,0,0,0-3.13,1.17,5.43,5.43,0,0,0-1,3.65v8.07h-1.28V343q0-3.48-3.19-3.48a3.75,3.75,0,0,0-3.15,1.26,6.54,6.54,0,0,0-1,4v7.6h-1.26V338.61h1l.27,1.88h.07a4,4,0,0,1,1.63-1.59,4.87,4.87,0,0,1,2.31-.56c2.17,0,3.56.82,4.18,2.44h.05a4.81,4.81,0,0,1,1.8-1.81,5.24,5.24,0,0,1,2.58-.63,4.42,4.42,0,0,1,3.38,1.2,5.49,5.49,0,0,1,1.13,3.83v9Z" transform="translate(-27.96 -107.88)" style="fill:#fff"/><path d="M742.74,352.62a6,6,0,0,1-4.68-1.85,7.44,7.44,0,0,1-1.67-5.17,8.08,8.08,0,0,1,1.62-5.28,5.34,5.34,0,0,1,4.36-2,4.72,4.72,0,0,1,3.84,1.7,7,7,0,0,1,1.41,4.61v1H737.7A6.51,6.51,0,0,0,739,350a4.66,4.66,0,0,0,3.71,1.49,11.46,11.46,0,0,0,2.07-.16,12.7,12.7,0,0,0,2.26-.71v1.14a9.83,9.83,0,0,1-2.15.69A12.17,12.17,0,0,1,742.74,352.62Zm-.37-13.16a4.12,4.12,0,0,0-3.19,1.31,6.14,6.14,0,0,0-1.4,3.78h8.51a6,6,0,0,0-1-3.75A3.42,3.42,0,0,0,742.37,339.46Z" transform="translate(-27.96 -107.88)" style="fill:#fff"/><path d="M760,348.79a3.26,3.26,0,0,1-1.41,2.84,6.88,6.88,0,0,1-4,1,9.45,9.45,0,0,1-4.38-.85v-1.35a9.73,9.73,0,0,0,4.38,1,5.82,5.82,0,0,0,3.1-.68,2.07,2.07,0,0,0,1.06-1.8,2.2,2.2,0,0,0-.85-1.75,9.16,9.16,0,0,0-2.76-1.39,15.48,15.48,0,0,1-2.9-1.29,4,4,0,0,1-1.26-1.21,3.13,3.13,0,0,1-.43-1.66,2.83,2.83,0,0,1,1.3-2.44,6.33,6.33,0,0,1,3.63-.9,10.86,10.86,0,0,1,4.23.84l-.47,1.14a9.86,9.86,0,0,0-3.76-.84,5.46,5.46,0,0,0-2.67.56,1.7,1.7,0,0,0-1,1.54,2.14,2.14,0,0,0,.77,1.72,10.5,10.5,0,0,0,3,1.45,14.32,14.32,0,0,1,2.71,1.21,3.73,3.73,0,0,1,1.27,1.22A3,3,0,0,1,760,348.79Z" transform="translate(-27.96 -107.88)" style="fill:#fff"/></g></g></svg>