<svg id="Layer_1" data-name="Layer 1" xmlns="http://www.w3.org/2000/svg" viewBox="0 0 871.98 319.55"><defs><style>.cls-1{fill:#5c79bc;}.cls-2{fill:#a4def6;}.cls-3{fill:#46c6e6;}.cls-4{fill:#6fcff3;}.cls-5{fill:#4f69a3;}.cls-6{fill:#aca6d2;}.cls-7{fill:#97d5f0;}.cls-17,.cls-18,.cls-8{fill:#fff;}.cls-9{fill:#78ceed;}.cls-10{fill:#7aaed8;}.cls-11{fill:#9569ad;}.cls-12{fill:#866ead;}.cls-13{fill:#5fcae5;}.cls-14{fill:#c8eaf5;}.cls-15{fill:#616e7d;}.cls-16{fill:#4e5b6c;}.cls-17,.cls-18{isolation:isolate;}.cls-17{font-size:35px;font-family:OpenSans-SemiBold, Open Sans;font-weight:600;}.cls-18{font-size:29px;font-family:OpenSans-Regular, Open Sans;}</style></defs><g id="Layer_2" data-name="Layer 2"><g id="TEXT"><path class="cls-1" d="M58.8,125.3s1.6-1.5,4.7,1.2l1.5-2.2a4.16,4.16,0,0,0-5.9.6A1.38,1.38,0,0,0,58.8,125.3Z" transform="translate(-47.89 0)"/><path class="cls-1" d="M64.5,118.7s-1.9,2.4.8,5.1l-1.9,1.9C63.5,125.7,59.2,120.5,64.5,118.7Z" transform="translate(-47.89 0)"/><path class="cls-2" d="M56.6,183.1a16.37,16.37,0,0,1,8.7-6.6L78,171.8H90.1l12.7,4.7a16.88,16.88,0,0,1,8.7,6.6Z" transform="translate(-47.89 0)"/><path class="cls-3" d="M100.6,207.8h19.6c0-3.4-.2-8.1-.2-8.1-1.2-20.1-15.8-23.2-15.8-23.2-11.4-2.8-5.2,14.9-5.2,14.9C98.7,195.6,99.3,201.3,100.6,207.8Z" transform="translate(-47.89 0)"/><rect class="cls-2" x="27.81" y="159.9" width="16.6" height="16.2"/><path class="cls-4" d="M92.3,167.4v-7.5H75.7v3.7C80.4,167.6,86.2,168.1,92.3,167.4Z" transform="translate(-47.89 0)"/><path class="cls-1" d="M110,207.8c.3-8.8.2-11.1.1-14.1-.2-6.6-1.6-12.3-6-17.2h0l-11.9-3.9s2.5,4.4-8.4,4.4c0,0-7.2-.3-8.2-4.4l-12,3.9s-10.3,2.5-12,13.4l6,11.1-.2,6.8Z" transform="translate(-47.89 0)"/><path class="cls-1" d="M105.3,139.6c.5-3.7-.3-7.3-.3-11,0-2.5-.5-6.2-3.5-6.5-4.3-.4-5.6,6.9-5.8,10.1-.3,4.4.7,9.1,1.6,13.4.3,1.6.3,4.6,2,5.4,1.5.6,3-.9,3.8-2C104.9,146.3,104.9,142.7,105.3,139.6Z" transform="translate(-47.89 0)"/><path class="cls-2" d="M102.1,157.6c-1.7,6.6-4.6,8.4-4.6,8.4l-4,.8c-2.3-.3-6.2-1.2-6.2-1.2-9.1-3.1-11.7-3.9-13.1-7.4-.1-.1-7.2-24.8-7.2-24.8-1.2-12.7,12.1-15.3,14.1-15.6s14.6-4,18.3,8.2A65.27,65.27,0,0,1,102.1,157.6Z" transform="translate(-47.89 0)"/><path class="cls-1" d="M106.3,113.7c.7,3.9,0,9.4-3,11.9-3.3,2.7-6.2,2-10.1,2.9-4.1.9-8.4,1.3-12.5,2.1-2.9.6-6.3.9-7.6,4a20.56,20.56,0,0,0-.9,13.4c1,3.3,1.3,6.5,2.4,10.9a35.35,35.35,0,0,1-6.7-7.7c-1.9-3.3-1.9-3.3-4-9-1.2-3.4-2.3-6.3-2.5-9.8-.2-4.5,2-6.4,4.3-10.5a16.4,16.4,0,0,1,9.5-7.8s20.8,1.2,20.4-3.6c0,0,5,1.3,4,4.6,0,0,5.2-.9,4.1-4.6A5.18,5.18,0,0,1,106.3,113.7Z" transform="translate(-47.89 0)"/><path class="cls-2" d="M72.9,147.1s-2.2-4.9-5.8-2c0,0-1.6,1.3.4,4.5,0,0,2.9,4.7,6.3,2.1Z" transform="translate(-47.89 0)"/><path class="cls-1" d="M72.5,135.7s0,8.8,1.6,13.4l-1.7.3s-.9-6-4-6.1Z" transform="translate(-47.89 0)"/><path class="cls-3" d="M68.4,207.8H50.1s.1-4.4.1-4.7a90.92,90.92,0,0,1,1.2-12.8c1.1-6,4-11.4,10.5-12.9,3-.7,5.6,1.1,7.2,3.5C69,181,71.9,184.6,68.4,207.8Z" transform="translate(-47.89 0)"/><path class="cls-1" d="M238.3,170.4c-3-1.1-4.9-3.6-8.5-3.3-6.4.6-10.9,7.7-17,2.9-7.4-5.9-5.5-41.3-2.3-49.3,2.7-6.8,7.8-.2,14.9-2.4,8.4-2.7,15.6,3.9,19.9,10.8a40.65,40.65,0,0,1,6.1,24.5C250.9,161.2,249.5,174.4,238.3,170.4Z" transform="translate(-47.89 0)"/><path class="cls-3" d="M266.8,207.8H251.1l-2.8-11.3s-2.3-17.2,9.5-17.4c0,0,6.1,4.3,7.8,14.4A85.36,85.36,0,0,1,266.8,207.8Z" transform="translate(-47.89 0)"/><path class="cls-3" d="M212.5,207.8l2.1-8.5s2.3-17.1-9.5-17.4c0,0-7.1,5.1-6.4,25.9h13.8" transform="translate(-47.89 0)"/><rect class="cls-2" x="176.41" y="154.3" width="14.3" height="20.9"/><path class="cls-4" d="M238.6,162.8v-8.5H224.3v12.3C229,166.5,234.6,165.6,238.6,162.8Z" transform="translate(-47.89 0)"/><path class="cls-2" d="M205.4,181.9a15.55,15.55,0,0,1,8.2-6.3l12.1-4.5h11.5l14.8,4.5a15.18,15.18,0,0,1,8.2,6.3Z" transform="translate(-47.89 0)"/><path class="cls-3" d="M208.3,207.8h47.6l-.3-8.9,7-10.6A15.47,15.47,0,0,0,252,175.6l-11.6-3.3s.7,3.8-8.9,3.8c0,0-7.7,0-8.6-3.9l-9.2,3.4a19.74,19.74,0,0,0-10.4,8.9l5.1,14.4Z" transform="translate(-47.89 0)"/><path class="cls-2" d="M240.1,156a9.45,9.45,0,0,1-2.1,3.1,26.56,26.56,0,0,1-8.2,5.4c-3.7,1.5-9.4,1.7-12.3-1.4-2.4-2.5-3.7-6.3-4.8-9.5-2-6.3-2-13.2-1.5-19.7.1-1.5.3-3,.5-4.5,2.3-14.3,14.5-14.2,14.5-14.2,9.2-.4,17.6,4,19,13.7.5,3.7-.2,7.7-.4,11.4a28.12,28.12,0,0,1-1.4,8.1C242.7,151,241.2,153.4,240.1,156Z" transform="translate(-47.89 0)"/><path class="cls-1" d="M210.2,142.3c-3.4-10.7-.7-23.2,3.4-27.1,11.7-11.1,33.2-6.9,39.8,10.5,2,5.4,1.1,25.4.2,31.6-1.2,8.3-4.3,13.9-10.5,13.9.2-6.8-.4-14.3.3-22.6s-.5-8.4-7.4-12.3a20.21,20.21,0,0,1-7.5-7c-2.6-3.8-.6-5.2-5.8-5C222.6,124.2,210.5,123.7,210.2,142.3Z" transform="translate(-47.89 0)"/><path class="cls-2" d="M241.3,145.1s1.2-5.1,5.1-3c0,0,1.8.9.5,4.4,0,0-1.9,5-5.6,3.2Z" transform="translate(-47.89 0)"/><path class="cls-2" d="M278.3,183.1a16,16,0,0,1,8.7-6.6l12.7-4.7h12.1l12.7,4.7a16.88,16.88,0,0,1,8.7,6.6Z" transform="translate(-47.89 0)"/><path class="cls-3" d="M322.2,207.8h19.6c0-3.4-.2-8.1-.2-8.1-1.1-20.1-15.8-23.2-15.8-23.2-11.4-2.8-5.2,14.9-5.2,14.9A76.63,76.63,0,0,0,322.2,207.8Z" transform="translate(-47.89 0)"/><rect class="cls-2" x="249.51" y="159.9" width="16.6" height="16.2"/><path class="cls-4" d="M314,167.4v-7.5H297.4v3.7C302.1,167.6,307.8,168.1,314,167.4Z" transform="translate(-47.89 0)"/><path class="cls-3" d="M331.7,207.8c.3-8.8.2-11.1.1-14.1-.2-6.6-1.6-12.3-6-17.2h0l-11.9-3.9s2.5,4.4-8.4,4.4c0,0-7.2-.3-8.2-4.4l-12,3.9s-10.4,2.5-12.1,13.4l6.1,11.1-.2,6.8Z" transform="translate(-47.89 0)"/><path class="cls-1" d="M325.5,135.7c0-3.9-.2-7.7-.1-11.6.1-2.5.3-1.8-2.6-2.1-4-.4-5.3,7-5.5,10.1-.4,4.4.6,9.1,1.3,13.4.3,1.5.2,4.6,1.8,5.4,1.4.6,2.8-.9,3.5-2,1.7-2.6,1.4-6.6,1.5-9.5C325.5,138.2,325.5,136.9,325.5,135.7Z" transform="translate(-47.89 0)"/><path class="cls-2" d="M323.8,157.6c-1.7,6.6-4.6,8.4-4.6,8.4l-4,.8c-2.3-.3-6.2-1.2-6.2-1.2-9.1-3.1-11.7-3.9-13.1-7.4-.1-.1-7.1-24.8-7.1-24.8-1.2-12.7,12.1-15.3,14.1-15.6s14.6-4,18.3,8.2A67.75,67.75,0,0,1,323.8,157.6Z" transform="translate(-47.89 0)"/><path class="cls-5" d="M287.3,121.8c-4.4,2.1-4.6,6.1-4.4,10.5a31.46,31.46,0,0,0,2.5,9.8c2.1,5.7,2.1,5.7,4,9a40.71,40.71,0,0,0,6.7,7.7c-1.1-4.3-1.4-7.6-2.4-10.9a20.56,20.56,0,0,1,.9-13.4s1-2.7,5.1-3.5h0l-12.4-9.2" transform="translate(-47.89 0)"/><path class="cls-2" d="M294.6,147.1s-2.2-4.9-5.8-2c0,0-1.6,1.3.4,4.5,0,0,2.9,4.7,6.3,2.1Z" transform="translate(-47.89 0)"/><path class="cls-5" d="M294.2,135.7s0,8.8,1.6,13.4l-1.7.3s-.9-6-4-6.1Z" transform="translate(-47.89 0)"/><path class="cls-1" d="M327.7,117c14.2,14.4-28.7,14.3-28.7,14.3s-4.5,2.1-11.6-9.5c0,0-1.9-9,18.4-11.9C305.7,109.9,319.1,108.3,327.7,117Z" transform="translate(-47.89 0)"/><path class="cls-3" d="M290.1,207.8H271.8s.1-4.4.1-4.7a90.92,90.92,0,0,1,1.2-12.8c1.1-6,4-11.4,10.5-12.9,3-.7,5.6,1.1,7.2,3.5C290.6,181,293.6,184.6,290.1,207.8Z" transform="translate(-47.89 0)"/><path class="cls-1" d="M148.3,113.7s-15.3,4.6-13.9,28.8v52.2h17.4Z" transform="translate(-47.89 0)"/><path class="cls-1" d="M146.5,129.4v75h33.3V141.2S182,117,166.1,114C166.1,114,146.5,110.5,146.5,129.4Z" transform="translate(-47.89 0)"/><rect class="cls-2" x="97.81" y="177.4" width="23.1" height="11.5"/><path class="cls-2" d="M194.4,207.8H178.8L176,196.5s-2.3-17.2,9.5-17.4c0,0,6.1,4.3,7.8,14.4A135.55,135.55,0,0,1,194.4,207.8Z" transform="translate(-47.89 0)"/><path class="cls-2" d="M140,207.8l2.1-8.5s3.7-19-8-19.3c0,0-8.5,7-7.9,27.8H140" transform="translate(-47.89 0)"/><rect class="cls-2" x="103.91" y="154.3" width="14.3" height="20.9"/><path class="cls-4" d="M166.1,162.8v-8.5H151.8v12.3C156.5,166.5,162.1,165.6,166.1,162.8Z" transform="translate(-47.89 0)"/><path class="cls-2" d="M132.9,181.9a15.55,15.55,0,0,1,8.2-6.3l12.1-4.5h11.5l14.8,4.5a15.18,15.18,0,0,1,8.2,6.3Z" transform="translate(-47.89 0)"/><path class="cls-3" d="M135.9,198.9v8.9h46.3l-.6-10.4c-.6-20,1.7-20,1.7-20a19.28,19.28,0,0,0-3.8-1.9l-11.6-3.3S165.4,183,155.8,183c0,0-7.4-4-5.4-10.9l-9.2,3.4a21.28,21.28,0,0,0-7,4.4C134.1,180,135.7,181,135.9,198.9Z" transform="translate(-47.89 0)"/><path class="cls-2" d="M167.7,156a9.45,9.45,0,0,1-2.1,3.1,26.56,26.56,0,0,1-8.2,5.4c-3.7,1.5-9.4,1.7-12.4-1.4-2.4-2.5-3.7-6.3-4.8-9.5-2-6.3-2-13.2-1.5-19.7.1-1.5.3-3,.5-4.5,2.3-14.3,14.5-14.2,14.5-14.2,9.2-.4,17.6,4,19,13.7.5,3.7-.2,7.7-.4,11.4a28.12,28.12,0,0,1-1.4,8.1C170.2,151,168.8,153.4,167.7,156Z" transform="translate(-47.89 0)"/><path class="cls-2" d="M168.9,145.1s1.2-5.1,5.1-3c0,0,1.8.9.5,4.4,0,0-1.9,5-5.6,3.2Z" transform="translate(-47.89 0)"/><path class="cls-1" d="M137.8,131.1c-.6-19.6,17.9-18.7,17.9-18.7,18.3.8,19.2,9,19.2,9,2.2,10.5-.9,20.7-.9,20.7-3.9-.9-4.5,4.4-4.5,4.4.4-8.3-.3-8.8-.3-8.8a87.23,87.23,0,0,1-10.2-.6l-.3-5.8-1.4,5.5a89.06,89.06,0,0,1-17.1-2.3s-2.3.2-2.3,7.2Z" transform="translate(-47.89 0)"/><path class="cls-6" d="M340.9,55a26.69,26.69,0,0,0-5.3-12.2c-9.1-11.4-28.7-14.7-40.4-5.5-12.5,9.9-21.4,32.8-6.6,43.4a30.65,30.65,0,0,0,5.6,3.1c-.5,2.5-1.8,6.7-4.1,8.3,0,0,8.9.7,12.2-5.9,13.2,2.4,28.9-.8,34.9-11.7A30.2,30.2,0,0,0,340.9,55Z" transform="translate(-47.89 0)"/><path class="cls-7" d="M313,77.8c-5.8-.7-11.4-3.2-14.9-8.1a27.79,27.79,0,0,1-4.5-17.5c.4-5.8,2-11.7,6.4-15.7a22.86,22.86,0,0,1,5.4-3.8,25.3,25.3,0,0,0-10.1,4.7c-12.5,9.9-21.4,32.8-6.6,43.4a30.65,30.65,0,0,0,5.6,3.1c-.5,2.5-1.8,6.7-4.1,8.3,0,0,8.9.7,12.2-5.9,13.2,2.4,28.9-.8,34.9-11.7.6-1.1,1.1-2.2,1.6-3.3C331.8,76.9,321.9,78.9,313,77.8Z" transform="translate(-47.89 0)"/><circle class="cls-8" cx="253.51" cy="61.2" r="3.4"/><path class="cls-8" d="M315.8,60.7a3.44,3.44,0,0,1-3.4,3.4,3.5,3.5,0,0,1-3.4-3.4,3.37,3.37,0,0,1,3.4-3.4,3.44,3.44,0,0,1,3.4,3.4Z" transform="translate(-47.89 0)"/><circle class="cls-8" cx="275.31" cy="60.2" r="3.4"/><path class="cls-9" d="M189.9,39.7l-53.7,4.2a6.66,6.66,0,0,0-6.6,6.6l4.2,26.3a6.66,6.66,0,0,0,6.6,6.6l2.5.2h0s1.5,5.7-1.4,8.6c0,0,8.8-2.1,10.2-8.1l34,2.1a6.66,6.66,0,0,0,6.6-6.6h0l4.2-33.3A6.66,6.66,0,0,0,189.9,39.7Z" transform="translate(-47.89 0)"/><path class="cls-10" d="M196.4,45c-.1,1.8-.2,3.6-.4,5.4-.4,3.7-1,7.4-1.6,11a37.1,37.1,0,0,1-2.8,9.7c-2.5,5.1-8,6.9-13.2,7.7-5.5.8-11.1.6-16.6.9-3.1.2-6.1.3-9.2.3-2.6-.1-5.6-.3-7.9-1.7-4.5-2.6-5.2-9.2-5.9-13.8-.7-5.3-2-12.2,1.6-16.8,1.7-2.1,3.9-3,6.4-3.9.8-.3,1.9-.6,2.9-.9l-13.4,1a6.66,6.66,0,0,0-6.6,6.6l4.2,26.3a6.66,6.66,0,0,0,6.6,6.6l2.5.2h0s1.5,5.7-1.4,8.6c0,0,8.8-2.1,10.2-8.1l34,2.1a6.66,6.66,0,0,0,6.6-6.6h0l4.2-33.3A6.88,6.88,0,0,1,196.4,45Z" transform="translate(-47.89 0)"/><path class="cls-8" d="M183.4,57.2a1.35,1.35,0,0,1-1.4,1.3H144a1.42,1.42,0,0,1-1.4-1.3h0a1.37,1.37,0,0,1,1.4-1.4h38a1.37,1.37,0,0,1,1.4,1.4Z" transform="translate(-47.89 0)"/><path class="cls-8" d="M183.4,62.9a1.35,1.35,0,0,1-1.4,1.3H144a1.42,1.42,0,0,1-1.4-1.3h0a1.37,1.37,0,0,1,1.4-1.4h38a1.37,1.37,0,0,1,1.4,1.4Z" transform="translate(-47.89 0)"/><path class="cls-8" d="M183.4,68.6a1.35,1.35,0,0,1-1.4,1.3H144a1.42,1.42,0,0,1-1.4-1.3h0a1.42,1.42,0,0,1,1.3-1.4h38a1.39,1.39,0,0,1,1.5,1.4Z" transform="translate(-47.89 0)"/><path class="cls-11" d="M57.8,39.4c4.8-5.7,13.4-5,20.1-4.4,10.5,1,21,1.2,31.4,2.8,14.4,2.3,17.9,11,17.8,24.5,0,7.9-2.1,16.4-9.5,20.4a23.94,23.94,0,0,1-2.8,1.3,9.36,9.36,0,0,0,4.9,8s-10.1,1.1-12.6-5.8c-9.8,1.8-20.9.6-29.9.3C65.3,86,53.6,82.1,51.2,69,49.4,58.6,52.5,45.6,57.8,39.4Z" transform="translate(-47.89 0)"/><path class="cls-12" d="M57.4,39.8A25.27,25.27,0,0,0,55,47.3a56.59,56.59,0,0,0-.2,10.9c.5,5.9,2,11.8,7,15.4,4.6,3.4,10.4,4.5,15.9,5.6a66,66,0,0,0,14.7,1.4c4.8,0,9.9-.6,14.3-2.8a15.86,15.86,0,0,0,8.6-10.3,43.19,43.19,0,0,0,1.3-14.3c-.3-4.6-1.3-9.5-4.1-13.3a14.62,14.62,0,0,0-1.6-1.9C123.8,40.7,127,49.3,127,62.1c0,7.9-2.1,16.4-9.5,20.4a23.94,23.94,0,0,1-2.8,1.3,9.36,9.36,0,0,0,4.9,8S109.5,92.9,107,86c-9.8,1.8-20.9.6-29.9.3-11.9-.5-23.6-4.4-26-17.5C49.4,58.8,52.4,46.2,57.4,39.8Z" transform="translate(-47.89 0)"/><path class="cls-8" d="M85.4,53.9A1.58,1.58,0,0,0,87,55.5h22.3a1.67,1.67,0,0,0,1.7-1.6v-.1h0a1.58,1.58,0,0,0-1.6-1.6H87a1.73,1.73,0,0,0-1.6,1.7Z" transform="translate(-47.89 0)"/><path class="cls-8" d="M66.9,53.9a1.58,1.58,0,0,0,1.6,1.6H80.6a1.58,1.58,0,0,0,1.6-1.6h0a1.58,1.58,0,0,0-1.6-1.6H68.5a1.58,1.58,0,0,0-1.6,1.6Z" transform="translate(-47.89 0)"/><path class="cls-8" d="M93.4,61.7A1.58,1.58,0,0,0,95,63.3h14.3a1.67,1.67,0,0,0,1.7-1.6h0a1.58,1.58,0,0,0-1.6-1.6H95.1a1.67,1.67,0,0,0-1.7,1.6Z" transform="translate(-47.89 0)"/><path class="cls-8" d="M66.9,61.7a1.58,1.58,0,0,0,1.6,1.6H89a1.58,1.58,0,0,0,1.6-1.6h0A1.58,1.58,0,0,0,89,60.1H68.5a1.58,1.58,0,0,0-1.6,1.6Z" transform="translate(-47.89 0)"/><path class="cls-8" d="M85.4,69.1A1.58,1.58,0,0,0,87,70.7H97.4A1.58,1.58,0,0,0,99,69.1h0a1.58,1.58,0,0,0-1.6-1.6H87a1.52,1.52,0,0,0-1.6,1.6Z" transform="translate(-47.89 0)"/><path class="cls-8" d="M100.3,69.1a1.58,1.58,0,0,0,1.6,1.6h7.4a1.67,1.67,0,0,0,1.7-1.6V69h0a1.58,1.58,0,0,0-1.6-1.6H102a1.75,1.75,0,0,0-1.7,1.7Z" transform="translate(-47.89 0)"/><path class="cls-8" d="M66.9,69.1a1.58,1.58,0,0,0,1.6,1.6H80.6a1.58,1.58,0,0,0,1.6-1.6h0a1.58,1.58,0,0,0-1.6-1.6H68.5a1.52,1.52,0,0,0-1.6,1.6Z" transform="translate(-47.89 0)"/><path class="cls-13" d="M278.5,49.7A12.72,12.72,0,0,0,265.8,37h0a11.3,11.3,0,0,0-4.5.9,15.63,15.63,0,0,0-30-2.6,6.7,6.7,0,0,0-9.3,1.6,6.22,6.22,0,0,0-1.1,5.1,9,9,0,1,0-9.6,15.2,6.71,6.71,0,0,0,2.3,1,12.7,12.7,0,0,0,14.7,20,12.67,12.67,0,0,0,24.8,2.6,12.66,12.66,0,0,0,17.5-18.3,5,5,0,0,0-.8-.7A12.7,12.7,0,0,0,278.5,49.7Z" transform="translate(-47.89 0)"/><path class="cls-14" d="M278.5,49.7a12.73,12.73,0,0,0-9.6-12.3,14.89,14.89,0,0,1,4.8,10.1c.1,3.7-1.1,8.1-4.2,10.5-1.3,1-4,2.3-5.8,2.1,2.4,3.1,3.3,7-.2,10.2-4,3.5-8.7,3.2-11.9-.6.1,3.2-1,7.3-3.8,9.1a12.88,12.88,0,0,1-8.3,2c-5.5-.7-8.8-4.7-9.2-10,0,.3-1.7,1.4-2,1.6a9.06,9.06,0,0,1-2.2,1.1c-5.3,1.9-12-2.5-11.5-8.3a16,16,0,0,1,1.8-6c.4-.8,1.7-2.7,2.8-2.6-7-.5-8.6-12.2-.8-15.7a11.08,11.08,0,0,0-1.9-.2,9,9,0,0,0-2.8,17.4,12.7,12.7,0,0,0,14.7,20,12.67,12.67,0,0,0,24.8,2.6,12.66,12.66,0,0,0,17.5-18.3,5,5,0,0,0-.8-.7A12.52,12.52,0,0,0,278.5,49.7Z" transform="translate(-47.89 0)"/><path class="cls-13" d="M222.5,86.9c-1.2,1.4-3.7,1.3-5.6-.2s-2.5-4-1.3-5.5,3.7-1.3,5.6.2S223.7,85.5,222.5,86.9Z" transform="translate(-47.89 0)"/><path class="cls-13" d="M216,90.1c-.9,1.1-2.8,1-4.3-.2s-1.9-3.1-1-4.2,2.8-1,4.3.2S216.9,89,216,90.1Z" transform="translate(-47.89 0)"/><path class="cls-13" d="M210.1,91.5a2.48,2.48,0,1,1-1.2-3.3l.6.3A2.35,2.35,0,0,1,210.1,91.5Z" transform="translate(-47.89 0)"/><path class="cls-14" d="M241.3,44.8a8.07,8.07,0,0,1,8.1-8.1,7.71,7.71,0,0,1,4.8,1.6,8.09,8.09,0,1,0-13.1,9.5,7.69,7.69,0,0,0,1.8,1.8A7.71,7.71,0,0,1,241.3,44.8Z" transform="translate(-47.89 0)"/><path class="cls-14" d="M227.5,64.1a6.14,6.14,0,0,1,7.2,4.9,6.22,6.22,0,0,1-.5,3.8,6.15,6.15,0,0,0-8.8-8.6,5.67,5.67,0,0,0-1.2,1.8A5.89,5.89,0,0,1,227.5,64.1Z" transform="translate(-47.89 0)"/><path class="cls-8" d="M235.5,58.8a3.4,3.4,0,1,1-3.4-3.4,3.37,3.37,0,0,1,3.4,3.4Z" transform="translate(-47.89 0)"/><path class="cls-8" d="M246.4,58.3a3.4,3.4,0,1,1-3.4-3.4h0A3.37,3.37,0,0,1,246.4,58.3Z" transform="translate(-47.89 0)"/><path class="cls-8" d="M257.3,57.8a3.4,3.4,0,1,1-3.4-3.4,3.37,3.37,0,0,1,3.4,3.4Z" transform="translate(-47.89 0)"/><ellipse class="cls-1" cx="443.91" cy="157.4" rx="71.8" ry="39.4"/><polygon class="cls-15" points="640.71 118.8 637.31 118.9 637.31 118.9 640.71 118.8"/><path class="cls-12" d="M703.2,173.4c-14.7-14.7-23-32.2-24.6-52l-20.4,2.3h-.6c-1.6.1-3.7.1-5.8.4l-1.3.2A113.75,113.75,0,0,0,840.4,197l-20-20a85.52,85.52,0,0,1-117.2-3.6Z" transform="translate(-47.89 0)"/><path class="cls-12" d="M762.8,0a113.08,113.08,0,0,0-80.5,33.3c-2.5,2.5-4.9,5.2-7.2,7.9l20.2,20.1a89.06,89.06,0,0,1,7-8,85.53,85.53,0,0,1,146,58.2c9.3-1.5,18.7-3.1,28.1-4.6A113.73,113.73,0,0,0,762.8,0Z" transform="translate(-47.89 0)"/><polygon class="cls-10" points="606.51 20.4 594.81 100.1 674.21 88.1 647.41 61.4 627.31 41.2 606.51 20.4"/><polygon class="cls-10" points="772.51 176.9 792.51 197 813.01 217.5 825.01 138.1 745.41 149.8 772.51 176.9"/><path class="cls-2" d="M678.7,126.9A24.24,24.24,0,0,0,689,147.6c1.7,1.1,6.6,4.2,11.8,4.2a15,15,0,0,0,2.2-.2,21.25,21.25,0,0,0,3.3,13.9c4.6,7.5,10.9,12.8,17.3,14.5a33.5,33.5,0,0,0,8.9,1.2,23.46,23.46,0,0,0,13.6-3.9c3.2-2.3,6-7.9,5.8-11.7h0v-12a.64.64,0,0,0,0-.6V96.7h0V47.2a13.79,13.79,0,0,0-7.1-11.5c-4.7-2.7-10.1-2.7-13.7-2.2a23.81,23.81,0,0,0-14.7,7.3,16.89,16.89,0,0,0-4.2,14.4,25,25,0,0,0-20.6,6.4,22.63,22.63,0,0,0-7.1,21.5,15.37,15.37,0,0,0,6.9,10.1,16.16,16.16,0,0,0-2.4,6.3,16.47,16.47,0,0,0,.5,7.3A24.24,24.24,0,0,0,678.7,126.9Z" transform="translate(-47.89 0)"/><path class="cls-3" d="M829.6,119a16.47,16.47,0,0,0,.5-7.3,15.59,15.59,0,0,0-2.4-6.3,15.37,15.37,0,0,0,6.9-10.1,22.86,22.86,0,0,0-7.1-21.5,24.71,24.71,0,0,0-20.6-6.4A16.89,16.89,0,0,0,802.7,53,23.81,23.81,0,0,0,788,45.7c-3.7-.5-9-.5-13.7,2.2a13.79,13.79,0,0,0-7.1,11.5v49.5h0V178h0c-.2,3.8,2.6,9.4,5.8,11.7a23.46,23.46,0,0,0,13.6,3.9,33.5,33.5,0,0,0,8.9-1.2c6.4-1.7,12.7-7,17.3-14.5a21.25,21.25,0,0,0,3.3-13.9,16.35,16.35,0,0,0,2.2.2c5.3,0,10.2-3.1,11.8-4.2a25.08,25.08,0,0,0,5.5-35,22.83,22.83,0,0,0-6-6Z" transform="translate(-47.89 0)"/><path class="cls-16" d="M757.8,160.4a.85.85,0,0,0,0-.7V103.2h0V53.8a14,14,0,0,0-7.2-11.7c-4.8-2.8-10.1-2.7-13.8-2.2A24.19,24.19,0,0,0,722,47.3a17.6,17.6,0,0,0-4.3,14.4,24.89,24.89,0,0,0-20.5,6.5A22.79,22.79,0,0,0,690,89.8a15.37,15.37,0,0,0,6.9,10.1,17.41,17.41,0,0,0-2.4,6.2,18,18,0,0,0,.4,7.3,25.17,25.17,0,0,0-.4,41c1.7,1.2,6.6,4.3,11.9,4.3a14.92,14.92,0,0,0,2.1-.2,21.71,21.71,0,0,0,3.3,13.8c4.6,7.5,10.9,12.8,17.3,14.6a34.24,34.24,0,0,0,9,1.2,24,24,0,0,0,13.7-3.9c3.2-2.3,6.1-8,5.9-11.8l.1-12Zm-7.5,21.2c-4.9,3.5-12.5,4.3-20.2,2.2-5.7-1.5-11.4-6.4-15.6-13.2a18.89,18.89,0,0,1-2.9-12,12,12,0,0,1,6.7-9.4h0a13.81,13.81,0,0,0,2.9,1.7,14,14,0,0,0,5.3,1.1,13.56,13.56,0,0,0,7.8-2.4,1.38,1.38,0,0,0,.2-2.1,1.56,1.56,0,0,0-1.9-.4,10.82,10.82,0,0,1-13.4-16.9,1.5,1.5,0,1,0-1.8-2.4c-.1.1-.2.1-.2.2a13.75,13.75,0,0,0-1.3,19,15.29,15.29,0,0,0-6.7,8.1c-4.2,1.4-9.5-.8-13-3.3a22.11,22.11,0,0,1-4.7-31,20.08,20.08,0,0,1,4.6-4.6,11.28,11.28,0,0,0,10.1,6.3,10.55,10.55,0,0,0,6.4-2.2,1.55,1.55,0,0,0,.1-2.1,1.53,1.53,0,0,0-2-.2,7.41,7.41,0,0,1-6.9,1.1,9.3,9.3,0,0,1-5.4-4.9,13.23,13.23,0,0,1-1-7.6,11.36,11.36,0,0,1,4-7.3,7.3,7.3,0,0,1,7.5-1.1,1.5,1.5,0,0,0,1.3-2.7h0A10.6,10.6,0,0,0,699.5,97a4.35,4.35,0,0,0-.7.6,12.44,12.44,0,0,1-6-8.3c-1.5-6.9.8-13.7,6.3-18.7A22,22,0,0,1,717.9,65a9.67,9.67,0,0,0,0,9.6,1.83,1.83,0,0,0,1.3.8,2.35,2.35,0,0,0,.8-.2,1.49,1.49,0,0,0,.5-2.1,6.44,6.44,0,0,1,9-8.7,1.61,1.61,0,0,0,2.1-.6,1.4,1.4,0,0,0-.4-1.9,9.56,9.56,0,0,0-10.4.2,14,14,0,0,1,3.4-12.5,20.72,20.72,0,0,1,13-6.4A18.71,18.71,0,0,1,749.1,45a10.94,10.94,0,0,1,5.7,9.4V75.2a15.93,15.93,0,0,1-9.4-.7,11.25,11.25,0,0,1-6.6-7.2,8.74,8.74,0,0,1,2.5-8.8,1.55,1.55,0,0,0,.1-2.1,1.53,1.53,0,0,0-2-.2,11.63,11.63,0,0,0-3.5,11.9,14.42,14.42,0,0,0,8.2,9.2,18.6,18.6,0,0,0,7,1.4,21.86,21.86,0,0,0,3.6-.3V103a10.65,10.65,0,0,1-9.8,5.9,9.66,9.66,0,0,1-8.2-6.9,13.89,13.89,0,0,0-.3-20,1.45,1.45,0,0,0-2.1.1,1.54,1.54,0,0,0,.1,2.1,11,11,0,1,1-14.9,16.1,13.65,13.65,0,0,1-1.9-2.3,1.46,1.46,0,0,0-2.1-.3,1.55,1.55,0,0,0-.4,2,14.32,14.32,0,0,0,12,6.5,9.7,9.7,0,0,0,1.7-.1,14,14,0,0,0,5.6-2,12.75,12.75,0,0,0,10.5,7.9h.9a13.94,13.94,0,0,0,9.2-3.9v48.3A13.32,13.32,0,0,0,733.6,169a1.51,1.51,0,0,0,1.5,1.3h.2a1.55,1.55,0,0,0,1.3-1.7,10.34,10.34,0,0,1,18.4-7.9v11.9h0c0,2.3-2.1,7.2-4.7,9Z" transform="translate(-47.89 0)"/><path class="cls-16" d="M739.5,137.1a11.44,11.44,0,0,0,11.6-11.4,11.28,11.28,0,0,0-2.4-7.1,1.51,1.51,0,0,0-2.5,1.7c0,.1.1.1.1.2a8.49,8.49,0,1,1-13.5,10.3,7.45,7.45,0,0,1-1.3-2.5,1.49,1.49,0,0,0-2.9.7c0,.1,0,.1.1.2a11.82,11.82,0,0,0,9.9,7.9Z" transform="translate(-47.89 0)"/><path class="cls-16" d="M824.2,113.3a16.35,16.35,0,0,0,.4-7.3,14.35,14.35,0,0,0-2.4-6.2,15.37,15.37,0,0,0,6.9-10.1,22.56,22.56,0,0,0-7.2-21.6,25,25,0,0,0-20.5-6.5,17.27,17.27,0,0,0-4.3-14.4,24.72,24.72,0,0,0-14.8-7.4c-3.7-.5-9-.5-13.8,2.2a13.87,13.87,0,0,0-7.2,11.7v49.5h0v56.5a.85.85,0,0,0,0,.7v12c-.2,3.8,2.6,9.5,5.9,11.8a24,24,0,0,0,13.7,3.9,34.24,34.24,0,0,0,9-1.2c6.5-1.7,12.8-7,17.4-14.6a21.71,21.71,0,0,0,3.3-13.8,14.92,14.92,0,0,0,2.1.2c5.3,0,10.3-3.1,11.9-4.3a25.23,25.23,0,0,0,5.5-35.2,20.72,20.72,0,0,0-5.9-5.9Zm-1.3,38.5c-3.6,2.5-8.9,4.6-13,3.3a14.86,14.86,0,0,0-6.7-8.1,13.77,13.77,0,0,0-1.3-19,1.43,1.43,0,0,0-2.1.5,1.5,1.5,0,0,0,.1,1.8,10.77,10.77,0,0,1-13.4,16.8,1.49,1.49,0,1,0-1.9,2.3c.1,0,.1.1.2.1a14.34,14.34,0,0,0,7.8,2.4,13.59,13.59,0,0,0,5.3-1.1,12.23,12.23,0,0,0,2.9-1.7h0a12,12,0,0,1,6.7,9.4,18.74,18.74,0,0,1-2.9,12c-4.2,6.9-9.9,11.7-15.6,13.2-7.7,2.1-15.2,1.3-20.1-2.2-2.6-1.9-4.8-6.7-4.6-9.2V160.5a10.33,10.33,0,0,1,18.4,7.9,1.48,1.48,0,0,0,1.3,1.7h.2a1.5,1.5,0,0,0,1.5-1.3,13.31,13.31,0,0,0-21.4-12.6V108a13.74,13.74,0,0,0,9.2,3.9h.9a12.75,12.75,0,0,0,10.5-7.9,14,14,0,0,0,5.6,2,9.7,9.7,0,0,0,1.7.1,14.28,14.28,0,0,0,11.9-6.5,1.45,1.45,0,0,0-.1-2.1,1.54,1.54,0,0,0-2.1.1c-.1.1-.2.3-.3.4a11,11,0,0,1-18.7-11.7,9.62,9.62,0,0,1,1.8-2.2,1.49,1.49,0,1,0-2-2.2A14.22,14.22,0,0,0,779,96.4a15,15,0,0,0,3.4,5.5,9.52,9.52,0,0,1-8.2,6.9,10.65,10.65,0,0,1-9.8-5.9V78a21.86,21.86,0,0,0,3.6.3,18.51,18.51,0,0,0,7-1.3,14.43,14.43,0,0,0,8.3-9.1A11.77,11.77,0,0,0,779.8,56a1.49,1.49,0,0,0-2,2.2.35.35,0,0,0,.2.1,8.89,8.89,0,0,1,2.6,8.7,11.61,11.61,0,0,1-6.5,7.2,15.17,15.17,0,0,1-9.4.7V54.1c-.2-3.6,2.1-7.4,5.7-9.4,4-2.3,8.7-2.3,11.9-1.8a20.72,20.72,0,0,1,13,6.4,14,14,0,0,1,3.4,12.5,9.77,9.77,0,0,0-10.4-.2,1.47,1.47,0,0,0-.3,2.1,1.44,1.44,0,0,0,1.9.4,6.46,6.46,0,0,1,8.9,1.9,6.24,6.24,0,0,1,.1,6.7,1.58,1.58,0,0,0,.5,2.1,1.88,1.88,0,0,0,.8.2,1.56,1.56,0,0,0,1.3-.8,9.67,9.67,0,0,0,0-9.6,21.65,21.65,0,0,1,18.8,5.6,19.35,19.35,0,0,1,6.3,18.7,12.49,12.49,0,0,1-5.9,8.4c-.2-.2-.5-.4-.7-.6a10.6,10.6,0,0,0-10.7-1.5,1.5,1.5,0,0,0,1.3,2.7h0a7.53,7.53,0,0,1,7.5,1.1,11.86,11.86,0,0,1,4,7.3,13.23,13.23,0,0,1-1,7.6,9.64,9.64,0,0,1-5.4,4.9,7.25,7.25,0,0,1-6.8-1.2,1.55,1.55,0,0,0-2.1.3,1.53,1.53,0,0,0,.2,2,9.42,9.42,0,0,0,6.4,2.2,12.57,12.57,0,0,0,3.3-.5,11.8,11.8,0,0,0,6.8-5.8,22.08,22.08,0,0,1,4.5,31,23.91,23.91,0,0,1-5.1,5Z" transform="translate(-47.89 0)"/><path class="cls-16" d="M789.6,127.3a1.46,1.46,0,0,0-1.9,1h0a8.47,8.47,0,0,1-16.1-5.3,7.45,7.45,0,0,1,1.3-2.5,1.49,1.49,0,0,0-2.3-1.9.1.1,0,0,1-.1.1,11.47,11.47,0,0,0,2.1,16.1,11.28,11.28,0,0,0,7.1,2.4,3.4,3.4,0,0,0,1-.1,12,12,0,0,0,9.9-7.9,1.43,1.43,0,0,0-1-1.9Z" transform="translate(-47.89 0)"/><text class="cls-17" transform="translate(391.01 167.99)">1 in 66</text></g></g><text class="cls-18" transform="translate(0 276.89)">Social communication</text><text class="cls-18" transform="translate(78.9 311.69)">difficulties</text><text class="cls-18" transform="translate(586.07 276.89)">Restricted, repetitive</text><text class="cls-18" transform="translate(578.47 311.69)">patterns of behaviour</text></svg>